<?xml version="1.0" encoding="UTF-8" standalone="no"?>
<!-- Created with Inkscape (http://www.inkscape.org/) -->

<svg
   xmlns:dc="http://purl.org/dc/elements/1.1/"
   xmlns:cc="http://creativecommons.org/ns#"
   xmlns:rdf="http://www.w3.org/1999/02/22-rdf-syntax-ns#"
   xmlns:svg="http://www.w3.org/2000/svg"
   xmlns="http://www.w3.org/2000/svg"
   xmlns:sodipodi="http://sodipodi.sourceforge.net/DTD/sodipodi-0.dtd"
   xmlns:inkscape="http://www.inkscape.org/namespaces/inkscape"
   version="1.1"
   id="svg8664"
   xml:space="preserve"
   width="713.1543"
   height="377.08188"
   viewBox="0 0 713.1543 377.08188"
   sodipodi:docname="scattering1df.svg"
   inkscape:version="0.92.2 5c3e80d, 2017-08-06"><sodipodi:namedview
     pagecolor="#ffffff"
     bordercolor="#666666"
     borderopacity="1"
     objecttolerance="10"
     gridtolerance="10"
     guidetolerance="10"
     inkscape:pageopacity="0"
     inkscape:pageshadow="2"
     inkscape:window-width="1920"
     inkscape:window-height="1027"
     id="namedview8666"
     showgrid="false"
     inkscape:zoom="1"
     inkscape:cx="226.23311"
     inkscape:cy="163.24289"
     inkscape:window-x="0"
     inkscape:window-y="0"
     inkscape:window-maximized="1"
     inkscape:current-layer="g8672"
     fit-margin-top="0"
     fit-margin-left="0"
     fit-margin-right="0"
     fit-margin-bottom="0" /><metadata
     id="metadata8670"><rdf:RDF><cc:Work
         rdf:about=""><dc:format>image/svg+xml</dc:format><dc:type
           rdf:resource="http://purl.org/dc/dcmitype/StillImage" /><dc:title></dc:title></cc:Work></rdf:RDF></metadata><defs
     id="defs8668"><marker
       inkscape:isstock="true"
       style="overflow:visible"
       id="marker9385"
       refX="0"
       refY="0"
       orient="auto"
       inkscape:stockid="Arrow2Mend"><path
         transform="scale(-0.6)"
         d="M 8.7185878,4.0337352 -2.2072895,0.01601326 8.7185884,-4.0017078 c -1.7454984,2.3720609 -1.7354408,5.6174519 -6e-7,8.035443 z"
         style="fill:#262626;fill-opacity:1;fill-rule:evenodd;stroke:#262626;stroke-width:0.625;stroke-linejoin:round;stroke-opacity:1"
         id="path9383"
         inkscape:connector-curvature="0" /></marker><marker
       inkscape:isstock="true"
       style="overflow:visible"
       id="Arrow2Mend"
       refX="0"
       refY="0"
       orient="auto"
       inkscape:stockid="Arrow2Mend"><path
         transform="scale(-0.6)"
         d="M 8.7185878,4.0337352 -2.2072895,0.01601326 8.7185884,-4.0017078 c -1.7454984,2.3720609 -1.7354408,5.6174519 -6e-7,8.035443 z"
         style="fill:#262626;fill-opacity:1;fill-rule:evenodd;stroke:#262626;stroke-width:0.625;stroke-linejoin:round;stroke-opacity:1"
         id="path844"
         inkscape:connector-curvature="0" /></marker></defs><g
     transform="matrix(1.3333333,0,0,-1.3333333,-23.742665,406.24081)"
     inkscape:label="ink_ext_XXXXXX"
     inkscape:groupmode="layer"
     id="g8672"><path
       d="m 74.094971,46.345217 v 2.906094"
       style="fill:none;stroke:#262626;stroke-width:1.61619842;stroke-linecap:butt;stroke-linejoin:miter;stroke-miterlimit:10;stroke-dasharray:none;stroke-opacity:1"
       id="path8684"
       inkscape:connector-curvature="0" /><path
       d="m 74.094971,46.345217 h 4.483052"
       style="fill:none;stroke:#262626;stroke-width:1.61619842;stroke-linecap:butt;stroke-linejoin:miter;stroke-miterlimit:10;stroke-dasharray:none;stroke-opacity:1"
       id="path8714"
       inkscape:connector-curvature="0" /><path
       sodipodi:nodetypes="cc"
       d="M 74.094971,46.345217 H 540.82243"
       style="fill:none;stroke:#262626;stroke-width:1.5;stroke-linecap:butt;stroke-linejoin:miter;stroke-miterlimit:10;stroke-dasharray:12.0000003, 0;stroke-dashoffset:0;stroke-opacity:1;marker-end:url(#marker9385)"
       id="path8754"
       inkscape:connector-curvature="0" /><path
       d="m 74.094971,275.48497 0.448415,-8.82183 0.448316,-8.1671 0.448014,-7.58397 0.448817,-7.06006 0.448014,-6.58888 0.448315,-6.16389 0.448416,-5.77795 0.448416,-5.42716 0.448415,-5.10827 0.448316,-4.81604 0.448415,-4.54857 0.448416,-4.3019 0.448416,-4.07606 0.448315,-3.86651 0.448416,-3.67321 0.448415,-3.49359 0.448416,-3.32697 0.447914,-3.17274 0.448416,-3.02825 0.448415,-2.89353 0.448416,-2.76793 0.448315,-2.64947 0.448416,-2.53949 0.448416,-2.43536 0.448415,-2.33839 0.448316,-2.24662 0.448415,-2.16006 0.448416,-2.07806 0.448416,-2.00191 0.448315,-1.92837 0.448014,-1.85939 0.448817,-1.79495 0.448015,-1.73247 0.448415,-1.67391 0.448316,-1.61793 0.448415,-1.56456 0.448416,-1.51445 0.448416,-1.46629 0.448315,-1.42074 0.448416,-1.37648 0.448415,-1.33482 0.448416,-1.29513 0.448315,-1.25738 0.448416,-1.22028 0.448416,-1.18579 0.448415,-1.15259 0.447914,-1.12006 0.448416,-1.08947 0.448416,-1.06018 0.448415,-1.03155 0.448316,-1.00486 0.448415,-0.97883 0.448416,-0.95344 0.448416,-0.92872 0.448315,-0.90659 0.448416,-0.88316 0.448014,-0.86233 0.448518,-0.84151 0.44851,-0.82133 0.44852,-0.8018 0.44852,-0.78359 0.44851,-0.76536 0.44751,-0.74779 0.44852,-0.73086 0.44852,-0.71525 0.44851,-0.69898 0.44852,-0.68401 0.44851,-0.66904 0.44752,-0.65472 0.44851,-0.64171 0.44852,-0.62738 0.44852,-0.61503 0.44851,-0.60265 0.44852,-0.58964 0.44851,-0.57858 0.44752,-0.56686 0.44851,-0.5558 0.44852,-0.54473 0.44851,-0.53497 0.44852,-0.52391 0.44852,-0.5148 0.44751,-0.504382 0.44851,-0.495923 0.44852,-0.48616 0.44852,-0.4777 0.44851,-0.468588 0.44852,-0.460779 0.44851,-0.452318 0.44752,-0.444508 0.44851,-0.436698 0.44852,-0.428888 0.44852,-0.42173 0.44851,-0.415221 0.44852,-0.407412 0.44751,-0.400903 0.44852,-0.394395 0.44851,-0.387887 0.44852,-0.381379 0.44851,-0.375522 0.44852,-0.369013 0.44852,-0.363807 0.44751,-0.357949 0.44851,-0.352092 0.44852,-0.346235 0.44852,-0.341679 0.44851,-0.336472 0.44852,-0.330615 0.44751,-0.32606 0.44852,-0.321503 0.44851,-0.316297 0.44852,-0.311742 0.44852,-0.307185 0.44851,-0.303281 0.44852,-0.298074 0.44751,-0.29417 0.44852,-0.290264 0.44851,-0.285709 0.44852,-0.281804 0.44851,-0.27855 0.44852,-0.273994 0.44751,-0.270089 0.44852,-0.266835 0.44851,-0.26293 0.44852,-0.259676 0.44852,-0.256422 0.44851,-0.252517 0.44852,-0.249263 0.44751,-0.246659 0.44852,-0.242755 0.44851,-0.240152 0.44852,-0.236246 0.44852,-0.233644 0.44851,-0.23104 0.44751,-0.227786 0.44852,-0.225182 0.44852,-0.221929 0.44851,-0.219976 0.44852,-0.216722 0.44851,-0.214119 0.44852,-0.211516 0.44751,-0.208912 0.44852,-0.206309 0.44851,-0.204096 0.44852,-0.201623 0.44852,-0.199346 0.44851,-0.197002 0.44752,-0.194464 0.44851,-0.192447 0.44852,-0.190169 0.44851,-0.188151 0.44852,-0.185808 0.44852,-0.183531 0.44851,-0.181773 0.44751,-0.179755 0.44852,-0.177739 0.44852,-0.175655 0.44851,-0.173638 0.44852,-0.171816 0.44851,-0.170123 0.44752,-0.168302 0.44851,-0.166218 0.44852,-0.164527 0.44851,-0.162965 0.44852,-0.160882 0.44852,-0.159385 0.44851,-0.157888 0.44752,-0.156131 0.44851,-0.154569 0.44852,-0.152747 0.44851,-0.151315 0.44852,-0.149688 0.44852,-0.148256 0.44851,-0.146954 0.44751,-0.145133 0.44852,-0.143895 0.44852,-0.142334 0.44851,-0.140837 0.44852,-0.1396 0.44851,-0.138299 0.44752,-0.136997 0.44851,-0.135565 0.44852,-0.134198 0.44851,-0.132962 0.44852,-0.131661 0.44852,-0.130423 0.44851,-0.129188 0.44752,-0.127885 0.44851,-0.126844 0.44852,-0.125543 0.44851,-0.124371 0.44852,-0.123265 0.44852,-0.122028 0.44751,-0.121052 0.44851,-0.119946 0.44852,-0.118709 0.44852,-0.117733 0.44851,-0.116691 0.44852,-0.11565 0.44851,-0.114674 0.44752,-0.113633 0.44851,-0.112396 0.44852,-0.111615 0.44851,-0.110574 0.44852,-0.109793 0.44852,-0.108556 0.44751,-0.107841 0.44852,-0.106734 0.44851,-0.105757 0.44852,-0.104977 0.44851,-0.104261 0.44852,-0.10322 0.44852,-0.102178 0.44751,-0.101723 0.44851,-0.100421 0.44852,-0.0999 0.44852,-0.09886 0.44851,-0.09814 0.44852,-0.09736 0.44751,-0.09665 0.44852,-0.09554 0.44851,-0.09508 0.44852,-0.09437 0.44851,-0.09326 0.44852,-0.09281 0.44852,-0.09177 0.44751,-0.09124 0.44852,-0.09053 0.44851,-0.08975 0.44852,-0.08923 0.44851,-0.08825 0.44852,-0.08766 0.44751,-0.08695 0.44852,-0.08643 0.44851,-0.08571 0.44852,-0.08487 0.44852,-0.08441 0.44851,-0.08363 0.44852,-0.08317 0.44751,-0.08233 0.44852,-0.08187 0.44851,-0.08135 0.44852,-0.08057 0.44851,-0.07985 0.44852,-0.07959 0.44751,-0.07881 0.44852,-0.07803 0.44852,-0.07777 0.44851,-0.07706 0.44852,-0.07654 0.44851,-0.07601 0.44852,-0.07523 0.44751,-0.07497 0.44852,-0.07426 0.44851,-0.07374 0.44852,-0.07341 0.44852,-0.07276 0.44851,-0.07218 0.44751,-0.07172 0.44852,-0.07113 0.44852,-0.07068 0.44851,-0.07042 0.44852,-0.0697 0.44851,-0.06912 0.44852,-0.06892 0.44751,-0.06814 0.44852,-0.06788 0.44852,-0.06736 0.44851,-0.06684 0.44852,-0.06658 0.44851,-0.06586 0.44752,-0.0656 0.44851,-0.06508 0.44852,-0.06482 0.44851,-0.06404 0.44852,-0.06385 0.44852,-0.06358 0.44851,-0.06274 0.44751,-0.06254 0.44852,-0.06228 0.44852,-0.06183 0.44851,-0.06124 0.44852,-0.06079 0.44851,-0.06046 0.44852,-0.06027 0.44751,-0.05974 0.44852,-0.05949 0.44852,-0.05896 0.44851,-0.05851 0.44852,-0.05818 0.44851,-0.05799 0.44752,-0.05747 0.44851,-0.05721 0.44852,-0.05669 0.44851,-0.05643 0.44852,-0.05617 0.44852,-0.05571 0.44851,-0.05538 0.44751,-0.05493 0.44852,-0.05467 0.44852,-0.05441 0.44851,-0.05415 0.44852,-0.05363 0.44851,-0.05337 0.44752,-0.05291 0.44851,-0.05285 0.44852,-0.05239 0.44852,-0.05213 0.44851,-0.05161 0.44852,-0.05161 0.44851,-0.05109 0.44752,-0.05083 0.44851,-0.05057 0.44852,-0.05037 0.44851,-0.04985 0.44852,-0.04953 0.44852,-0.04933 0.44751,-0.04933 0.44851,-0.04881 0.44852,-0.04829 0.44852,-0.04829 0.44851,-0.0481 0.44852,-0.04751 0.44851,-0.04751 0.44752,-0.04705 0.44851,-0.04679 0.44852,-0.04679 0.44852,-0.04627 0.44851,-0.04601 0.44852,-0.04575 0.44751,-0.04549 0.44852,-0.04523 0.44851,-0.0453 0.44852,-0.04471 0.44851,-0.04452 0.44852,-0.04419 0.44852,-0.044 0.44751,-0.04373 0.44851,-0.04373 0.44852,-0.04321 0.44852,-0.04322 0.44851,-0.04269 0.44852,-0.04269 0.44751,-0.0425 0.44852,-0.04191 0.44851,-0.04198 0.44852,-0.04172 0.44852,-0.04139 0.44851,-0.04146 0.44852,-0.04094 0.44751,-0.04094 0.44852,-0.04042 0.44851,-0.04042 0.44852,-0.04016 0.44851,-0.0399 0.44852,-0.03996 0.44751,-0.03937 0.44852,-0.03944 0.44851,-0.03911 0.44852,-0.03892 0.44852,-0.03866 0.44851,-0.03833 0.44852,-0.0384 0.44751,-0.03814 0.44852,-0.03788 0.44851,-0.03788 0.44852,-0.03742 0.44852,-0.03736 0.44851,-0.0371 0.44751,-0.0371 0.44852,-0.03664 0.44852,-0.03658 0.44851,-0.03664 0.44852,-0.03612 0.44851,-0.03605 0.44852,-0.03586 0.44751,-0.0356 0.44852,-0.0356 0.44851,-0.03534 0.44852,-0.03508 0.44852,-0.03508 0.44851,-0.03456 0.44852,-0.03482 0.44751,-0.03436 0.44852,-0.0343 0.44851,-0.0343 0.44852,-0.03384 0.44852,-0.03378 0.44851,-0.03358 0.44751,-0.03358 0.44852,-0.03326 0.44852,-0.03306 0.44851,-0.03306 0.44852,-0.03306 0.44851,-0.03254 0.44852,-0.03254 0.44751,-0.03228 0.44852,-0.03228 0.44851,-0.03202 0.44852,-0.03202 0.44852,-0.03183 0.44851,-0.0315 0.44752,-0.0315 0.44851,-0.0313 0.44852,-0.03098 0.44851,-0.0313 0.44852,-0.03078 0.44852,-0.03072 0.44851,-0.03052 0.44751,-0.03052 0.44852,-0.03026 0.44852,-0.0302 0.44851,-0.03 0.44852,-0.03 0.44851,-0.02974 0.44752,-0.02948 0.44851,-0.02974 0.44852,-0.02929 0.44851,-0.02922 0.44852,-0.02896 0.44852,-0.02896 0.44851,-0.02903 0.44752,-0.0287 0.44851,-0.02851 0.44852,-0.02844 0.44851,-0.02851 0.44852,-0.02792 0.44852,-0.02825 0.44751,-0.02799 0.44851,-0.02766 0.44852,-0.02773 0.44852,-0.02772 0.44851,-0.02746 0.44852,-0.0272 0.44851,-0.02746 0.44752,-0.02694 0.44851,-0.02694 0.44852,-0.02694 0.44851,-0.02668 0.44852,-0.02668 0.44852,-0.02642 0.44751,-0.02649 0.44852,-0.02642 0.44851,-0.02616 0.44852,-0.02597 0.44851,-0.0259 0.44852,-0.02597 0.44852,-0.02564 0.44751,-0.02571 0.44851,-0.02564 0.44852,-0.02545 0.44852,-0.02519 0.44851,-0.02512 0.44852,-0.02519 0.44751,-0.02493 0.44852,-0.02493 0.44851,-0.02486 0.44852,-0.02467 0.44851,-0.02467 0.44852,-0.02441 0.44852,-0.02441 0.44751,-0.02415 0.44852,-0.02414 0.44851,-0.02421 0.44852,-0.02415 0.44851,-0.02388 0.44852,-0.02362 0.44751,-0.02362 0.44852,-0.02369 0.44851,-0.02336 0.44852,-0.02363 0.44852,-0.02317 0.44851,-0.02336 0.44852,-0.02317 0.44751,-0.02284 0.44852,-0.02291 0.44851,-0.02284 0.44852,-0.02291 0.44851,-0.02265 0.44852,-0.02258 0.44751,-0.02239 0.44852,-0.02239 0.44852,-0.02232 0.44851,-0.02213 0.44852,-0.02213 0.44851,-0.02213 0.44852,-0.02213 0.44751,-0.02187 0.44852,-0.02161 0.44851,-0.02187 0.44852,-0.02161 0.44852,-0.02161 0.44851,-0.02135 0.44852,-0.02135 0.44751,-0.02135 0.44852,-0.02109 0.44851,-0.02115 0.44852,-0.02109 0.44851,-0.02083 0.44852,-0.02109 0.44751,-0.02089 0.44852,-0.02056 0.44852,-0.02057 0.44851,-0.02063 0.44852,-0.02057 0.44851,-0.02037 0.44752,-0.02031 0.44851,-0.02037 0.44852,-0.02004 0.44851,-0.02011 0.44852,-0.02011 0.44852,-0.01979 0.44851,-0.02011 0.44751,-0.01985 0.44852,-0.01952 0.44852,-0.01985 0.44851,-0.01959 0.44852,-0.01933 0.44851,-0.01952 0.44852,-0.01933 0.44751,-0.01933 0.44852,-0.01933 0.44852,-0.01907 0.44851,-0.01907 0.44852,-0.01907 0.44851,-0.01881 0.44752,-0.01907 0.44851,-0.01881 0.44852,-0.01881 0.44851,-0.01855 0.44852,-0.01855 0.44852,-0.01861 0.44851,-0.01855 0.44751,-0.01829 0.44852,-0.01855 0.44852,-0.01829 0.44851,-0.01809 0.44852,-0.01829 0.44851,-0.01803 0.44752,-0.01809 0.44851,-0.01777 0.44852,-0.01803 0.44852,-0.01783 0.44851,-0.01777 0.44852,-0.01783 0.44851,-0.01751 0.44752,-0.01757 0.44851,-0.01751 0.44852,-0.01731 0.44851,-0.01757 0.44852,-0.01725 0.44852,-0.01731 0.44751,-0.01725 0.44851,-0.01705 0.44852,-0.01731 0.44852,-0.01699 0.44851,-0.01705 0.44852,-0.01679 0.44851,-0.01705 0.44752,-0.01679 0.44851,-0.01673 0.44852,-0.01653 0.44852,-0.01679 0.44851,-0.01653 0.44852,-0.01653 0.44751,-0.01653 0.44852,-0.01627 0.44851,-0.01653 0.44852,-0.01627 0.44851,-0.01627 0.44852,-0.01601 0.44852,-0.01627 0.44751,-0.01601 0.44851,-0.01601 0.44852,-0.01601 0.44852,-0.01601 0.44851,-0.01575 0.44852,-0.01582 0.44751,-0.01575 0.44852,-0.01575 0.44851,-0.01575 0.44852,-0.01549 0.44852,-0.01555 0.44851,-0.01549 0.44852,-0.01549 0.44751,-0.01555 0.44852,-0.01523 0.44851,-0.01523 0.44852,-0.01529 0.44851,-0.01523 0.44852,-0.01523 0.44751,-0.01503 0.44852,-0.01497 0.44851,-0.01529 0.44852,-0.01471 0.44852,-0.01503 0.44851,-0.01471 0.44852,-0.01503 0.44751,-0.01471 0.44852,-0.01477 0.44851,-0.01451 0.44852,-0.01471 0.44852,-0.01451 0.44851,-0.01445 0.44852,-0.01451 0.44751,-0.01451 0.44852,-0.01445 0.44851,-0.01425 0.44852,-0.01451 0.44851,-0.01425 0.44852,-0.01419 0.44751,-0.01399 0.44852,-0.01425 0.44851,-0.01399 0.44852,-0.01419 0.44852,-0.01399 0.44851,-0.01373 0.44852,-0.01399 0.44751,-0.01399 0.44852,-0.01373 0.44851,-0.01373 0.44852,-0.01373 0.44852,-0.01373 0.44851,-0.01373 0.44751,-0.01347 0.44852,-0.01373 0.44852,-0.01347 0.44851,-0.01347 0.44852,-0.01347 0.44851,-0.01347 0.44852,-0.01321 0.44751,-0.01347 0.44852,-0.01321 0.44851,-0.01321 0.44852,-0.01321 0.44852,-0.01321 0.44851,-0.01302 0.44752,-0.01321 0.44851,-0.01295 0.44852,-0.01295 0.44851,-0.01295 0.44852,-0.01302 0.44852,-0.01295 0.44851,-0.01269 0.44751,-0.01269 0.44852,-0.01302 0.44852,-0.01269 0.44851,-0.01269 0.44852,-0.0125 0.44851,-0.01269 0.44752,-0.01269 0.44851,-0.0125 0.44852,-0.01243 0.44851,-0.0125 0.44852,-0.01243 0.44852,-0.01243 0.44851,-0.0125 0.44752,-0.01217 0.44851,-0.01224 0.44852,-0.01217 0.44851,-0.01223 0.44852,-0.01217 0.44852,-0.01224 0.44751,-0.01217 0.44851,-0.01197 0.44852,-0.01217 0.44852,-0.01197 0.44851,-0.01198 0.44852,-0.01191 0.44851,-0.01197 0.44752,-0.01165 0.44851,-0.01197 0.44852,-0.01172 0.44851,-0.01191 0.44852,-0.01172 0.44852,-0.01171 0.44751,-0.01165 0.44852,-0.01145 0.44851,-0.01172 0.44852,-0.01145 0.44851,-0.01165 0.44852,-0.01145 0.44852,-0.01145 0.44751,-0.01145 0.44851,-0.01139 0.44852,-0.01145 0.44852,-0.01119 0.44851,-0.01145 0.44852,-0.01119 0.44751,-0.01119 0.44852,-0.01113 0.44851,-0.01119 0.44852,-0.01119 0.44851,-0.01119 0.44852,-0.01093 0.44852,-0.01119 0.44751,-0.01119 0.44852,-0.01093 0.44851,-0.01093 0.44852,-0.01093 0.44851,-0.01093 0.44852,-0.01093 0.44751,-0.01067 0.44852,-0.01093 0.44851,-0.01067 0.44852,-0.01067 0.44852,-0.01093 0.44851,-0.01067 0.44852,-0.01041 0.44751,-0.01067 0.44852,-0.01067 0.44851,-0.01067 0.44852,-0.01041 0.44851,-0.01067 0.44852,-0.01048 0.44751,-0.01041 0.44852,-0.01041 0.44852,-0.01041 0.44851,-0.01041 0.44852,-0.01041 0.44851,-0.01022 0.44852,-0.01041 0.44751,-0.01015 0.44852,-0.01015 0.44851,-0.01041 0.44852,-0.01022 0.44852,-0.01015 0.44851,-0.0099 0.44751,-0.01022 0.44852,-0.01015 0.44852,-0.0099 0.44851,-0.01015 0.44852,-0.01 0.44851,-0.0099 0.44852,-0.01015 0.44751,-0.01 0.44852,-0.0096 0.44852,-0.0099 0.44851,-0.01 0.44852,-0.0099 0.44851,-0.0097 0.44752,-0.0099 0.44851,-0.0096 0.44852,-0.0097 0.44851,-0.0096 0.44852,-0.0097 0.44852,-0.0096 0.44851,-0.0097 0.44751,-0.0096 0.44852,-0.0094 0.44852,-0.0097 0.44851,-0.0094 0.44852,-0.0097 0.44851,-0.0094 0.44852,-0.0094 0.44751,-0.0094 0.44852,-0.0094 0.44852,-0.0094 0.44851,-0.0094 0.44852,-0.0092 0.44851,-0.0094 0.44752,-0.0094 0.44851,-0.0091 0.44852,-0.0092 0.44851,-0.0092 0.44852,-0.0091 0.44852,-0.0094 0.44851,-0.0089 0.44751,-0.0091 0.44852,-0.0092 0.44852,-0.0091 0.44851,-0.0089 0.44852,-0.0092 0.44851,-0.0089 0.44752,-0.0089 0.44851,-0.0092 0.44852,-0.0089 0.44852,-0.0089 0.44851,-0.0089 0.44852,-0.0089 0.44851,-0.0086 0.44752,-0.0089 0.44851,-0.0089 0.44852,-0.0087 0.44851,-0.0089 0.44852,-0.0087 0.44852,-0.0087 0.44751,-0.0089 0.44851,-0.0087 0.44852,-0.0086 0.44852,-0.0087 0.44851,-0.0084 0.44852,-0.0087 0.44851,-0.0087 0.44752,-0.0087 0.44851,-0.0083 0.44852,-0.0084 0.44852,-0.0087 0.44851,-0.0084 0.44852,-0.0084 0.44751,-0.0087 0.44852,-0.0084 0.44851,-0.0081 0.44852,-0.0084 0.44851,-0.0084 0.44852,-0.0083 0.44852,-0.0081 0.44751,-0.0084 0.44851,-0.0081 0.44852,-0.0084 0.44852,-0.0081 0.44851,-0.0081 0.44852,-0.0084 0.44851,-0.0081 0.44752,-0.0081 0.44851,-0.0081 0.44852,-0.0079 0.44852,-0.0081 0.44851,-0.0081 0.44852,-0.0081 0.44751,-0.0079 0.44852,-0.0081 0.44851,-0.0079 0.44852,-0.0081 0.44851,-0.0079 0.44852,-0.0079 0.44852,-0.0079 0.44751,-0.0079 0.44851,-0.0079 0.44852,-0.0079 0.44852,-0.0079 0.44851,-0.0079 0.44852,-0.0076 0.44751,-0.0079 0.44852,-0.0077 0.44851,-0.0079 0.44852,-0.0076 0.44852,-0.0079 0.44851,-0.0076 0.44751,-0.0076 0.44852,-0.0077 0.44852,-0.0076 0.44851,-0.0076 0.44852,-0.0076 0.44851,-0.0076 0.44852,-0.0077 0.44751,-0.0076 0.44852,-0.0074 0.44851,-0.0076 0.44852,-0.0074 0.44852,-0.0077 0.44851,-0.0074 0.44752,-0.0074 0.44851,-0.0076 0.44852,-0.0074 0.44851,-0.0074 0.44852,-0.0074 0.44852,-0.0074 0.44851,-0.0074 0.44751,-0.0074 0.44852,-0.0071 0.44852,-0.0074 0.44851,-0.0074 0.44852,-0.0071 0.44851,-0.0074 0.44852,-0.0071 0.44751,-0.0074 0.44852,-0.0072 0.44851,-0.0071 0.44852,-0.0071 0.44852,-0.0074 0.44851,-0.0071 0.44752,-0.0072 0.44851,-0.0068 0.44852,-0.0071 0.44851,-0.0072 0.44852,-0.0071 0.44852,-0.0071 0.44851,-0.0072 0.44751,-0.0068 0.44852,-0.0072 0.44852,-0.0068 0.44851,-0.0069 0.44852,-0.0071 0.44851,-0.0068 0.44752,-0.0069 0.44851,-0.0068 0.44852,-0.0072 0.44851,-0.0066 0.44852,-0.0072 0.44852,-0.0066 0.44851,-0.0069 0.44752,-0.0068 0.44851,-0.0069 0.44852,-0.0066 0.44851,-0.0069 0.44852,-0.0068 0.44852,-0.0066 0.44751,-0.0068 0.44851,-0.0066 0.44852,-0.0066 0.44852,-0.0069 0.44851,-0.0066 0.44852,-0.0066 0.44851,-0.0066 0.44752,-0.0066 0.44851,-0.0066 0.44852,-0.0066 0.44851,-0.0066 0.44852,-0.0066 0.44852,-0.0066 0.44751,-0.0064 0.44852,-0.0066 0.44851,-0.0066 0.44852,-0.0063 0.44851,-0.0066 0.44852,-0.0064 0.44852,-0.0066 0.44751,-0.0064 0.44851,-0.0063 0.44852,-0.0064 0.44852,-0.0066 0.44851,-0.0063 0.44852,-0.0064 0.44751,-0.0064 0.44852,-0.0063 0.44851,-0.0064 0.44852,-0.0064 0.44851,-0.0061 0.44852,-0.0064 0.44852,-0.0064 0.44751,-0.0063 0.44852,-0.0061 0.44851,-0.0064 0.44852,-0.0061 0.44851,-0.0064 0.44852,-0.0061 0.44852,-0.0061 0.44751,-0.0063 0.44851,-0.0061 0.44852,-0.0061 0.44852,-0.0061 0.44851,-0.0061 0.44852,-0.0061 0.44751,-0.0064 0.44852,-0.0059 0.44851,-0.0061 0.44852,-0.0061 0.44851,-0.0061 0.44852,-0.0061 0.44751,-0.0058 0.44852,-0.0061 0.44852,-0.0061 0.44851,-0.0059 0.44852,-0.0061 0.44851,-0.0059 0.44852,-0.0061 0.44751,-0.0059 0.44852,-0.0059 0.44851,-0.0061 0.44852,-0.0059 0.44852,-0.0059 0.44851,-0.0059 0.44852,-0.0059 0.44751,-0.0059 0.44852,-0.0059 0.44851,-0.0058 0.44852,-0.0059 0.44851,-0.0059 0.44852,-0.0059 0.44751,-0.0059 0.44852,-0.0056 0.44852,-0.0059 0.44851,-0.0058 0.44852,-0.0056 0.44851,-0.0059 0.44852,-0.0056 0.44751,-0.0056 0.44852,-0.0059 0.44851,-0.0056 0.44852,-0.0059 0.44852,-0.0056 0.44851,-0.0056 0.44751,-0.0055 0.44852,-0.0056 0.44852,-0.0059 0.44851,-0.0056 0.44852,-0.0056 0.44851,-0.0053 0.44852,-0.0056 0.44751,-0.0056 0.44852,-0.0056 0.44852,-0.0056 0.44851,-0.0056 0.44852,-0.0056 0.44851,-0.0053 0.44752,-0.0056 0.44851,-0.0053 0.44852,-0.0056 0.44851,-0.0053"
       style="fill:none;stroke:#0072bd;stroke-width:1.875;stroke-linecap:butt;stroke-linejoin:miter;stroke-miterlimit:10;stroke-dasharray:none;stroke-opacity:1"
       id="path8762"
       inkscape:connector-curvature="0" /><path
       d="m 74.094971,275.48497 0.448415,-0.57207 0.448316,-0.56881 0.448014,-0.56686 0.448817,-0.56296 0.448014,-0.561 0.448315,-0.55775 0.448416,-0.55515 0.448416,-0.55255 0.448415,-0.54994 0.448316,-0.54733 0.448415,-0.54409 0.448416,-0.54213 0.448416,-0.53887 0.448315,-0.53693 0.448416,-0.53367 0.448415,-0.53172 0.448416,-0.52846 0.447914,-0.52651 0.448416,-0.52391 0.448415,-0.5213 0.448416,-0.5187 0.448315,-0.5161 0.448416,-0.51415 0.448416,-0.51154 0.448415,-0.50894 0.448316,-0.50698 0.448415,-0.50439 0.448416,-0.50178 0.448416,-0.49983 0.448315,-0.49722 0.448014,-0.49462 0.448817,-0.49267 0.448015,-0.49072 0.448415,-0.48811 0.448316,-0.48551 0.448415,-0.48421 0.448416,-0.48095 0.448416,-0.47965 0.448315,-0.47705 0.448416,-0.47445 0.448415,-0.47314 0.448416,-0.47054 0.448315,-0.46859 0.448416,-0.46598 0.448416,-0.46469 0.448415,-0.46208 0.447914,-0.46013 0.448416,-0.45817 0.448416,-0.45557 0.448415,-0.45427 0.448316,-0.45167 0.448415,-0.45037 0.448416,-0.44776 0.448416,-0.44581 0.448315,-0.44451 0.448416,-0.4419 0.448014,-0.43995 0.448518,-0.43865 0.44851,-0.43605 0.44852,-0.4341 0.44852,-0.43279 0.44851,-0.43084 0.44751,-0.42889 0.44852,-0.42693 0.44852,-0.42499 0.44851,-0.42303 0.44852,-0.42173 0.44851,-0.41978 0.44752,-0.41782 0.44851,-0.41587 0.44852,-0.41457 0.44852,-0.41262 0.44851,-0.41067 0.44852,-0.40936 0.44851,-0.40676 0.44752,-0.40611 0.44851,-0.40351 0.44852,-0.40285 0.44851,-0.40026 0.44852,-0.39895 0.44852,-0.397 0.44751,-0.39569 0.44851,-0.3944 0.44852,-0.39179 0.44852,-0.39114 0.44851,-0.38919 0.44852,-0.38724 0.44851,-0.38593 0.44752,-0.38398 0.44851,-0.38333 0.44852,-0.38073 0.44852,-0.38008 0.44851,-0.37812 0.44852,-0.37618 0.44751,-0.37552 0.44852,-0.37357 0.44851,-0.37161 0.44852,-0.37097 0.44851,-0.36901 0.44852,-0.36706 0.44852,-0.36641 0.44751,-0.36446 0.44851,-0.36316 0.44852,-0.36185 0.44852,-0.36055 0.44851,-0.3586 0.44852,-0.35795 0.44751,-0.356 0.44852,-0.3547 0.44851,-0.35274 0.44852,-0.35209 0.44852,-0.35079 0.44851,-0.34884 0.44852,-0.34819 0.44751,-0.34623 0.44852,-0.34493 0.44851,-0.34363 0.44852,-0.34299 0.44851,-0.34102 0.44852,-0.33973 0.44751,-0.33842 0.44852,-0.33713 0.44851,-0.33582 0.44852,-0.33452 0.44852,-0.33322 0.44851,-0.33257 0.44852,-0.33061 0.44751,-0.32931 0.44852,-0.32867 0.44851,-0.32671 0.44852,-0.32606 0.44852,-0.32475 0.44851,-0.32346 0.44751,-0.32215 0.44852,-0.32086 0.44852,-0.31955 0.44851,-0.3189 0.44852,-0.3176 0.44851,-0.3163 0.44852,-0.31499 0.44751,-0.31369 0.44852,-0.31305 0.44851,-0.31109 0.44852,-0.31044 0.44852,-0.30914 0.44851,-0.30848 0.44752,-0.30719 0.44851,-0.30588 0.44852,-0.30459 0.44851,-0.30393 0.44852,-0.30263 0.44852,-0.30133 0.44851,-0.30002 0.44751,-0.29938 0.44852,-0.29872 0.44852,-0.29678 0.44851,-0.29612 0.44852,-0.29482 0.44851,-0.29417 0.44752,-0.29286 0.44851,-0.29222 0.44852,-0.29092 0.44851,-0.28961 0.44852,-0.28896 0.44852,-0.28766 0.44851,-0.28636 0.44752,-0.28571 0.44851,-0.28506 0.44852,-0.28376 0.44851,-0.28245 0.44852,-0.2818 0.44852,-0.28051 0.44851,-0.27985 0.44751,-0.2792 0.44852,-0.27725 0.44852,-0.27725 0.44851,-0.27594 0.44852,-0.27465 0.44851,-0.27399 0.44752,-0.27334 0.44851,-0.27205 0.44852,-0.27074 0.44851,-0.27074 0.44852,-0.26878 0.44852,-0.26879 0.44851,-0.26749 0.44752,-0.26618 0.44851,-0.26553 0.44852,-0.26489 0.44851,-0.26423 0.44852,-0.26293 0.44852,-0.26163 0.44751,-0.26162 0.44851,-0.26033 0.44852,-0.25903 0.44852,-0.25837 0.44851,-0.25772 0.44852,-0.25708 0.44851,-0.25577 0.44752,-0.25512 0.44851,-0.25447 0.44852,-0.25317 0.44851,-0.25251 0.44852,-0.25187 0.44852,-0.25122 0.44751,-0.24991 0.44852,-0.24926 0.44851,-0.24861 0.44852,-0.24731 0.44851,-0.24666 0.44852,-0.24601 0.44852,-0.24536 0.44751,-0.24471 0.44851,-0.2434 0.44852,-0.24276 0.44852,-0.2421 0.44851,-0.2408 0.44852,-0.24081 0.44751,-0.2395 0.44852,-0.23885 0.44851,-0.2382 0.44852,-0.23755 0.44851,-0.23624 0.44852,-0.23625 0.44852,-0.23494 0.44751,-0.2343 0.44852,-0.23364 0.44851,-0.23299 0.44852,-0.23169 0.44851,-0.2317 0.44852,-0.23038 0.44751,-0.22974 0.44852,-0.22974 0.44851,-0.22844 0.44852,-0.22713 0.44852,-0.22714 0.44851,-0.22648 0.44852,-0.22584 0.44751,-0.22453 0.44852,-0.22453 0.44851,-0.22323 0.44852,-0.22258 0.44851,-0.22193 0.44852,-0.22193 0.44751,-0.22062 0.44852,-0.21998 0.44852,-0.21933 0.44851,-0.21867 0.44852,-0.21802 0.44851,-0.21738 0.44852,-0.21672 0.44751,-0.21607 0.44852,-0.21477 0.44851,-0.21477 0.44852,-0.21412 0.44852,-0.21347 0.44851,-0.21281 0.44751,-0.21217 0.44852,-0.21086 0.44852,-0.21087 0.44851,-0.21021 0.44852,-0.20957 0.44851,-0.20891 0.44852,-0.20826 0.44751,-0.20761 0.44852,-0.20696 0.44852,-0.20631 0.44851,-0.20566 0.44852,-0.20501 0.44851,-0.205 0.44752,-0.20371 0.44851,-0.20305 0.44852,-0.20306 0.44851,-0.20175 0.44852,-0.20176 0.44852,-0.2011 0.44851,-0.20045 0.44751,-0.19915 0.44852,-0.19915 0.44852,-0.1985 0.44851,-0.1985 0.44852,-0.1972 0.44851,-0.19654 0.44852,-0.19655 0.44751,-0.19524 0.44852,-0.19525 0.44852,-0.19459 0.44851,-0.19395 0.44852,-0.19329 0.44851,-0.19329 0.44752,-0.19199 0.44851,-0.19134 0.44852,-0.19134 0.44851,-0.19069 0.44852,-0.19004 0.44852,-0.18939 0.44851,-0.18939 0.44751,-0.18808 0.44852,-0.18809 0.44852,-0.18743 0.44851,-0.18679 0.44852,-0.18613 0.44851,-0.18549 0.44752,-0.18548 0.44851,-0.18483 0.44852,-0.18418 0.44852,-0.18353 0.44851,-0.18288 0.44852,-0.18288 0.44851,-0.18223 0.44752,-0.18158 0.44851,-0.18093 0.44852,-0.18027 0.44851,-0.18028 0.44852,-0.17962 0.44852,-0.17898 0.44751,-0.17832 0.44851,-0.17833 0.44852,-0.17767 0.44852,-0.17702 0.44851,-0.17637 0.44852,-0.17637 0.44851,-0.17573 0.44752,-0.17507 0.44851,-0.17441 0.44852,-0.17442 0.44852,-0.17377 0.44851,-0.17312 0.44852,-0.17247 0.44751,-0.17246 0.44852,-0.17182 0.44851,-0.17116 0.44852,-0.17052 0.44851,-0.17051 0.44852,-0.16986 0.44852,-0.16987 0.44751,-0.16856 0.44851,-0.16856 0.44852,-0.16791 0.44852,-0.16791 0.44851,-0.16726 0.44852,-0.16661 0.44751,-0.16596 0.44852,-0.16596 0.44851,-0.16531 0.44852,-0.1653 0.44852,-0.16466 0.44851,-0.16401 0.44852,-0.16335 0.44751,-0.16336 0.44852,-0.1627 0.44851,-0.16205 0.44852,-0.16206 0.44851,-0.1614 0.44852,-0.16075 0.44751,-0.16075 0.44852,-0.1601 0.44851,-0.16011 0.44852,-0.15879 0.44852,-0.15945 0.44851,-0.15815 0.44852,-0.15815 0.44751,-0.1575 0.44852,-0.1575 0.44851,-0.15684 0.44852,-0.1562 0.44852,-0.1562 0.44851,-0.15554 0.44751,-0.1549 0.44852,-0.15489 0.44852,-0.15424 0.44851,-0.15425 0.44852,-0.15359 0.44851,-0.15359 0.44852,-0.15229 0.44751,-0.1523 0.44852,-0.15229 0.44851,-0.15164 0.44852,-0.15099 0.44852,-0.15099 0.44851,-0.15034 0.44852,-0.15033 0.44751,-0.14969 0.44852,-0.14904 0.44851,-0.14904 0.44852,-0.14838 0.44852,-0.14839 0.44851,-0.14773 0.44751,-0.14774 0.44852,-0.14708 0.44852,-0.14644 0.44851,-0.14643 0.44852,-0.14579 0.44851,-0.14578 0.44852,-0.14513 0.44751,-0.14448 0.44852,-0.14448 0.44851,-0.14448 0.44852,-0.14384 0.44852,-0.14318 0.44851,-0.14318 0.44752,-0.14252 0.44851,-0.14253 0.44852,-0.14188 0.44851,-0.14123 0.44852,-0.14188 0.44852,-0.14057 0.44851,-0.14058 0.44751,-0.13993 0.44852,-0.13992 0.44852,-0.13993 0.44851,-0.13927 0.44852,-0.13863 0.44851,-0.13862 0.44752,-0.13797 0.44851,-0.13798 0.44852,-0.13732 0.44851,-0.13732 0.44852,-0.13667 0.44852,-0.13667 0.44851,-0.13602 0.44752,-0.13603 0.44851,-0.13537 0.44852,-0.13471 0.44851,-0.13537 0.44852,-0.13407 0.44852,-0.13407 0.44751,-0.13407 0.44851,-0.13342 0.44852,-0.13341 0.44852,-0.13277 0.44851,-0.13277 0.44852,-0.13211 0.44851,-0.13212 0.44752,-0.13146 0.44851,-0.13147 0.44852,-0.13081 0.44851,-0.13082 0.44852,-0.13016 0.44852,-0.13017 0.44751,-0.12951 0.44852,-0.12951 0.44851,-0.12886 0.44852,-0.12886 0.44851,-0.12887 0.44852,-0.12821 0.44852,-0.12756 0.44751,-0.12756 0.44851,-0.12756 0.44852,-0.12691 0.44852,-0.12691 0.44851,-0.12625 0.44852,-0.12626 0.44751,-0.12561 0.44852,-0.12561 0.44851,-0.12496 0.44852,-0.12495 0.44851,-0.12496 0.44852,-0.12431 0.44852,-0.12365 0.44751,-0.12431 0.44852,-0.123 0.44851,-0.12366 0.44852,-0.123 0.44851,-0.12235 0.44852,-0.12236 0.44751,-0.12235 0.44852,-0.1217 0.44851,-0.12106 0.44852,-0.1217 0.44852,-0.1204 0.44851,-0.12105 0.44852,-0.1204 0.44751,-0.11975 0.44852,-0.1204 0.44851,-0.1191 0.44852,-0.11975 0.44851,-0.11845 0.44852,-0.1191 0.44751,-0.11845 0.44852,-0.11845 0.44852,-0.1178 0.44851,-0.1178 0.44852,-0.11714 0.44851,-0.11715 0.44852,-0.11715 0.44751,-0.11649 0.44852,-0.1165 0.44851,-0.11585 0.44852,-0.11584 0.44852,-0.11585 0.44851,-0.11519 0.44852,-0.1152 0.44751,-0.11454 0.44852,-0.11454 0.44851,-0.1139 0.44852,-0.11454 0.44851,-0.11389 0.44852,-0.11325 0.44751,-0.11324 0.44852,-0.11324 0.44852,-0.11259 0.44851,-0.11259 0.44852,-0.11194 0.44851,-0.11194 0.44752,-0.11194 0.44851,-0.11194 0.44852,-0.11064 0.44851,-0.11129 0.44852,-0.11064 0.44852,-0.11064 0.44851,-0.11064 0.44751,-0.10999 0.44852,-0.10999 0.44852,-0.10933 0.44851,-0.10934 0.44852,-0.10934 0.44851,-0.10868 0.44852,-0.10869 0.44751,-0.10804 0.44852,-0.10803 0.44852,-0.10804 0.44851,-0.10803 0.44852,-0.10739 0.44851,-0.10738 0.44752,-0.10674 0.44851,-0.10673 0.44852,-0.10673 0.44851,-0.10609 0.44852,-0.10608 0.44852,-0.10608 0.44851,-0.10544 0.44751,-0.10543 0.44852,-0.10543 0.44852,-0.10478 0.44851,-0.10478 0.44852,-0.10414 0.44851,-0.10413 0.44752,-0.10413 0.44851,-0.10413 0.44852,-0.10348 0.44852,-0.10348 0.44851,-0.10283 0.44852,-0.10348 0.44851,-0.10217 0.44752,-0.10283 0.44851,-0.10218 0.44852,-0.10218 0.44851,-0.10153 0.44852,-0.10218 0.44852,-0.10152 0.44751,-0.10088 0.44851,-0.10088 0.44852,-0.10087 0.44852,-0.10088 0.44851,-0.10023 0.44852,-0.10022 0.44851,-0.0996 0.44752,-0.10022 0.44851,-0.0996 0.44852,-0.0989 0.44852,-0.0996 0.44851,-0.0989 0.44852,-0.0983 0.44751,-0.0989 0.44852,-0.0983 0.44851,-0.0976 0.44852,-0.0983 0.44851,-0.0976 0.44852,-0.0976 0.44852,-0.097 0.44751,-0.097 0.44851,-0.097 0.44852,-0.097 0.44852,-0.0963 0.44851,-0.0963 0.44852,-0.0963 0.44751,-0.0957 0.44852,-0.0957 0.44851,-0.0957 0.44852,-0.095 0.44852,-0.0957 0.44851,-0.0944 0.44852,-0.095 0.44751,-0.0944 0.44852,-0.0944 0.44851,-0.0944 0.44852,-0.0937 0.44851,-0.0937 0.44852,-0.0937 0.44751,-0.0937 0.44852,-0.0931 0.44851,-0.0931 0.44852,-0.0931 0.44852,-0.0924 0.44851,-0.0924 0.44852,-0.0924 0.44751,-0.0918 0.44852,-0.0924 0.44851,-0.0918 0.44852,-0.0911 0.44852,-0.0918 0.44851,-0.0911 0.44852,-0.0911 0.44751,-0.0905 0.44852,-0.0905 0.44851,-0.0905 0.44852,-0.0905 0.44851,-0.0898 0.44852,-0.0905 0.44751,-0.0898 0.44852,-0.0892 0.44851,-0.0892 0.44852,-0.0898 0.44852,-0.0885 0.44851,-0.0892 0.44852,-0.0885 0.44751,-0.0885 0.44852,-0.0885 0.44851,-0.0879 0.44852,-0.0885 0.44852,-0.0879 0.44851,-0.0872 0.44751,-0.0879 0.44852,-0.0872 0.44852,-0.0872 0.44851,-0.0866 0.44852,-0.0872 0.44851,-0.0865 0.44852,-0.0866 0.44751,-0.0859 0.44852,-0.0859 0.44851,-0.0866 0.44852,-0.0853 0.44852,-0.0859 0.44851,-0.0853 0.44752,-0.0853 0.44851,-0.0853 0.44852,-0.0853 0.44851,-0.0846 0.44852,-0.0846 0.44852,-0.0846 0.44851,-0.084 0.44751,-0.0846 0.44852,-0.084 0.44852,-0.084 0.44851,-0.0833 0.44852,-0.0833 0.44851,-0.084 0.44752,-0.0827 0.44851,-0.0833 0.44852,-0.0827 0.44851,-0.0827 0.44852,-0.0827 0.44852,-0.0827 0.44851,-0.082 0.44752,-0.082 0.44851,-0.082 0.44852,-0.082 0.44851,-0.0814 0.44852,-0.082 0.44852,-0.0813 0.44751,-0.0807 0.44851,-0.0814 0.44852,-0.0807 0.44852,-0.0807 0.44851,-0.0807 0.44852,-0.08 0.44851,-0.0807 0.44752,-0.08 0.44851,-0.08 0.44852,-0.0794 0.44851,-0.08 0.44852,-0.0794 0.44852,-0.0794 0.44751,-0.0794 0.44852,-0.0787 0.44851,-0.0788 0.44852,-0.0787 0.44851,-0.0788 0.44852,-0.0787 0.44852,-0.0781 0.44751,-0.0781 0.44851,-0.0781 0.44852,-0.0781 0.44852,-0.0774 0.44851,-0.0781 0.44852,-0.0774 0.44751,-0.0774 0.44852,-0.0768 0.44851,-0.0774 0.44852,-0.0768 0.44851,-0.0768 0.44852,-0.0761 0.44852,-0.0768 0.44751,-0.0761 0.44852,-0.0761 0.44851,-0.0761 0.44852,-0.0762 0.44851,-0.0755 0.44852,-0.0761 0.44751,-0.0755 0.44852,-0.0755 0.44851,-0.0748 0.44852,-0.0755 0.44852,-0.0748 0.44851,-0.0748 0.44852,-0.0748 0.44751,-0.0742 0.44852,-0.0748 0.44851,-0.0742 0.44852,-0.0742 0.44851,-0.0735 0.44852,-0.0742 0.44751,-0.0736 0.44852,-0.0735 0.44852,-0.0735 0.44851,-0.0735 0.44852,-0.0735 0.44851,-0.0729 0.44852,-0.0729 0.44751,-0.0729 0.44852,-0.0729 0.44851,-0.0722 0.44852,-0.0729 0.44852,-0.0722 0.44851,-0.0722 0.44751,-0.0722 0.44852,-0.0716 0.44852,-0.0716 0.44851,-0.0722 0.44852,-0.0716 0.44851,-0.0709 0.44852,-0.0716 0.44751,-0.0709 0.44852,-0.0716 0.44852,-0.0709 0.44851,-0.0703 0.44852,-0.0709 0.44851,-0.0703 0.44752,-0.0709 0.44851,-0.0703 0.44852,-0.0703 0.44851,-0.0696 0.44852,-0.0703 0.44852,-0.0696 0.44851,-0.0696 0.44751,-0.0696 0.44852,-0.0696 0.44852,-0.069 0.44851,-0.0696 0.44852,-0.069 0.44851,-0.069 0.44852,-0.069 0.44751,-0.0683 0.44852,-0.069 0.44852,-0.0683 0.44851,-0.0683 0.44852,-0.0683 0.44851,-0.0683 0.44752,-0.0677 0.44851,-0.0683 0.44852,-0.0677 0.44851,-0.0677 0.44852,-0.0677 0.44852,-0.067 0.44851,-0.0677 0.44751,-0.067 0.44852,-0.067 0.44852,-0.067 0.44851,-0.067 0.44852,-0.0664 0.44851,-0.067 0.44752,-0.0664 0.44851,-0.0664 0.44852,-0.0664 0.44852,-0.0664 0.44851,-0.0657 0.44852,-0.0664 0.44851,-0.0657 0.44752,-0.0657 0.44851,-0.0657 0.44852,-0.0651 0.44851,-0.0657 0.44852,-0.0651 0.44852,-0.0651 0.44751,-0.0651 0.44851,-0.0651 0.44852,-0.0651 0.44852,-0.0644 0.44851,-0.0651 0.44852,-0.0644 0.44851,-0.0644 0.44752,-0.0644 0.44851,-0.0638 0.44852,-0.0644 0.44852,-0.0638 0.44851,-0.0638 0.44852,-0.0638 0.44751,-0.0638 0.44852,-0.0638 0.44851,-0.0631 0.44852,-0.0638 0.44851,-0.0631 0.44852,-0.0631 0.44852,-0.0631 0.44751,-0.0631 0.44851,-0.0625 0.44852,-0.0631 0.44852,-0.0625 0.44851,-0.0625 0.44852,-0.0625 0.44851,-0.0625 0.44752,-0.0618 0.44851,-0.0625 0.44852,-0.0618 0.44852,-0.0618 0.44851,-0.0618 0.44852,-0.0618 0.44751,-0.0618 0.44852,-0.0612 0.44851,-0.0612 0.44852,-0.0618 0.44851,-0.0612 0.44852,-0.0612 0.44852,-0.0605 0.44751,-0.0612 0.44851,-0.0605 0.44852,-0.0612 0.44852,-0.0605 0.44851,-0.0605 0.44852,-0.0605 0.44751,-0.0599 0.44852,-0.0605 0.44851,-0.0599 0.44852,-0.0599 0.44852,-0.0599 0.44851,-0.0599 0.44751,-0.0599 0.44852,-0.0599 0.44852,-0.0592 0.44851,-0.0599 0.44852,-0.0592 0.44851,-0.0592 0.44852,-0.0592 0.44751,-0.0586 0.44852,-0.0592 0.44851,-0.0592 0.44852,-0.0586 0.44852,-0.0586 0.44851,-0.0586 0.44752,-0.0586 0.44851,-0.0586 0.44852,-0.0579 0.44851,-0.0586 0.44852,-0.0579 0.44852,-0.0579 0.44851,-0.0579 0.44751,-0.0579 0.44852,-0.0579 0.44852,-0.0579 0.44851,-0.0573 0.44852,-0.0573 0.44851,-0.0573 0.44852,-0.0579 0.44751,-0.0566 0.44852,-0.0573 0.44851,-0.0573 0.44852,-0.0566 0.44852,-0.0573 0.44851,-0.0566 0.44752,-0.0566 0.44851,-0.0566 0.44852,-0.0566 0.44851,-0.056 0.44852,-0.0566 0.44852,-0.056 0.44851,-0.0566 0.44751,-0.056 0.44852,-0.056 0.44852,-0.056 0.44851,-0.0553 0.44852,-0.056 0.44851,-0.0553 0.44752,-0.056 0.44851,-0.0553 0.44852,-0.0553 0.44851,-0.0553 0.44852,-0.0553 0.44852,-0.0547 0.44851,-0.0553 0.44752,-0.0547 0.44851,-0.0547 0.44852,-0.0553 0.44851,-0.0547 0.44852,-0.054 0.44852,-0.0547 0.44751,-0.0547 0.44851,-0.054 0.44852,-0.0547 0.44852,-0.054 0.44851,-0.054 0.44852,-0.054 0.44851,-0.054 0.44752,-0.054 0.44851,-0.0534 0.44852,-0.054 0.44851,-0.0534 0.44852,-0.0534 0.44852,-0.0534 0.44751,-0.0534 0.44852,-0.0534 0.44851,-0.0534 0.44852,-0.0527 0.44851,-0.0534 0.44852,-0.0527 0.44852,-0.0534 0.44751,-0.0527 0.44851,-0.0527 0.44852,-0.0521 0.44852,-0.0527 0.44851,-0.0527 0.44852,-0.0521 0.44751,-0.0527 0.44852,-0.0521 0.44851,-0.0521 0.44852,-0.0521 0.44851,-0.0521 0.44852,-0.0521 0.44852,-0.0514 0.44751,-0.0521 0.44852,-0.0514 0.44851,-0.0521 0.44852,-0.0514 0.44851,-0.0514 0.44852,-0.0514 0.44852,-0.0514 0.44751,-0.0508 0.44851,-0.0514 0.44852,-0.0508 0.44852,-0.0514 0.44851,-0.0508 0.44852,-0.0508 0.44751,-0.0508 0.44852,-0.0508 0.44851,-0.0508 0.44852,-0.0501 0.44851,-0.0508 0.44852,-0.0501 0.44751,-0.0501 0.44852,-0.0508 0.44852,-0.0501 0.44851,-0.0501 0.44852,-0.0501 0.44851,-0.0495 0.44852,-0.0501 0.44751,-0.0495 0.44852,-0.0501 0.44851,-0.0495 0.44852,-0.0495 0.44852,-0.0495 0.44851,-0.0495 0.44852,-0.0495 0.44751,-0.0495 0.44852,-0.0488 0.44851,-0.0495 0.44852,-0.0488 0.44851,-0.0488 0.44852,-0.0495 0.44751,-0.0488 0.44852,-0.0488 0.44852,-0.0488 0.44851,-0.0482 0.44852,-0.0488 0.44851,-0.0482 0.44852,-0.0488 0.44751,-0.0482 0.44852,-0.0482 0.44851,-0.0482 0.44852,-0.0482 0.44852,-0.0482 0.44851,-0.0482 0.44751,-0.0482 0.44852,-0.0475 0.44852,-0.0482 0.44851,-0.0475 0.44852,-0.0475 0.44851,-0.0475 0.44852,-0.0475 0.44751,-0.0475 0.44852,-0.0475 0.44852,-0.0475 0.44851,-0.0469 0.44852,-0.0475 0.44851,-0.0469 0.44752,-0.0469 0.44851,-0.0475 0.44852,-0.0469 0.44851,-0.0469"
       style="fill:none;stroke:#d75319;stroke-width:1.875;stroke-linecap:butt;stroke-linejoin:miter;stroke-miterlimit:10;stroke-dasharray:none;stroke-opacity:1"
       id="path8764"
       inkscape:connector-curvature="0" /><path
       sodipodi:nodetypes="cc"
       d="M 74.094971,46.345217 V 295.00948"
       style="fill:none;stroke:#262626;stroke-width:1.5;stroke-linecap:butt;stroke-linejoin:miter;stroke-miterlimit:10;stroke-dasharray:12.0000003, 0;stroke-dashoffset:0;stroke-opacity:1;marker-end:url(#Arrow2Mend)"
       id="path8758"
       inkscape:connector-curvature="0" /><g
       id="g9487"
       transform="matrix(0.6,0,0,-0.6,-80.112515,172.92247)"><g
         word-spacing="normal"
         letter-spacing="normal"
         font-size-adjust="none"
         font-stretch="normal"
         font-weight="normal"
         font-variant="normal"
         font-style="normal"
         stroke-miterlimit="10.433"
         xml:space="preserve"
         transform="matrix(0.82285714,0,0,-0.82285714,-144,576)"
         id="content"
         style="font-style:normal;font-variant:normal;font-weight:normal;font-stretch:normal;letter-spacing:normal;word-spacing:normal;text-anchor:start;fill:none;fill-opacity:1;fill-rule:evenodd;stroke:#000000;stroke-linecap:butt;stroke-linejoin:miter;stroke-miterlimit:10.43299961;stroke-dasharray:none;stroke-dashoffset:0;stroke-opacity:1"><path
           id="path9484"
           d="m 478.44,422.14 v 0.74 l -0.01,0.75 -0.02,0.75 -0.04,0.74 -0.04,0.75 -0.06,0.74 -0.08,0.74 -0.09,0.73 -0.12,0.73 -0.14,0.73 -0.16,0.72 -0.19,0.72 -0.21,0.72 -0.25,0.7 -0.28,0.7 -0.15,0.35 -0.16,0.34 c -2.28,4.8 -6.37,5.6 -8.47,5.6 -2.98,0 -6.62,-1.3 -8.67,-5.94 -1.59,-3.44 -1.84,-7.33 -1.84,-11.31 0,-3.74 0.2,-8.22 2.25,-12 2.14,-4.03 5.78,-5.03 8.22,-5.03 v 1.09 c -1.94,0 -4.89,1.25 -5.79,6.03 -0.54,2.98 -0.54,7.56 -0.54,10.52 0,3.18 0,6.46 0.4,9.15 0.94,5.94 4.68,6.38 5.93,6.38 1.64,0 4.93,-0.89 5.87,-5.83 0.5,-2.78 0.5,-6.58 0.5,-9.7 0,-3.75 0,-7.13 -0.55,-10.32 -0.75,-4.73 -3.59,-6.23 -5.82,-6.23 v 0 -1.09 c 2.68,0 6.46,1.04 8.67,5.78 1.59,3.43 1.84,7.31 1.84,11.25 z"
           inkscape:connector-curvature="0"
           style="fill:#000000;stroke-width:0" /></g></g><g
       id="g9535"
       transform="matrix(0.6,0,0,-0.6,-123.61252,429.42247)"><g
         id="g9533"
         transform="matrix(0.82285714,0,0,-0.82285714,-144,576)"
         xml:space="preserve"
         stroke-miterlimit="10.433"
         font-style="normal"
         font-variant="normal"
         font-weight="normal"
         font-stretch="normal"
         font-size-adjust="none"
         letter-spacing="normal"
         word-spacing="normal"
         style="font-style:normal;font-variant:normal;font-weight:normal;font-stretch:normal;letter-spacing:normal;word-spacing:normal;text-anchor:start;fill:none;fill-opacity:1;fill-rule:evenodd;stroke:#000000;stroke-linecap:butt;stroke-linejoin:miter;stroke-miterlimit:10.43299961;stroke-dasharray:none;stroke-dashoffset:0;stroke-opacity:1"><path
           d="m 463.44,441.78 v 0.16 0.17 l -0.01,0.16 v 0.08 0.08 l -0.01,0.08 -0.01,0.08 -0.01,0.07 -0.01,0.07 -0.02,0.07 -0.01,0.07 -0.02,0.07 -0.02,0.06 -0.03,0.06 -0.03,0.06 -0.03,0.06 -0.03,0.05 -0.04,0.05 -0.04,0.05 -0.05,0.04 -0.05,0.04 -0.03,0.01 -0.03,0.02 -0.03,0.02 -0.03,0.01 -0.03,0.01 -0.03,0.02 -0.03,0.01 -0.04,0.01 -0.04,0.01 -0.03,0.01 h -0.04 l -0.04,0.01 h -0.04 l -0.05,0.01 h -0.04 -0.05 c -1,0 -1,-0.89 -1,-1.78 v -46.24 c 0,-0.9 0,-1.79 1,-1.79 1,0 1,0.89 1,1.79 z"
           id="path9523"
           inkscape:connector-curvature="0"
           style="fill:#000000;stroke-width:0" /><path
           d="m 487.6,426.12 h 4.28 c 1,0 1.5,0 1.5,1 0,0.55 -0.5,0.55 -1.34,0.55 h -4.15 l 1.05,5.69 c 0.2,1.04 0.91,4.57 1.2,5.17 0.46,0.95 1.3,1.7 2.35,1.7 0.19,0 1.48,0 2.44,-0.91 -2.19,-0.18 -2.69,-1.93 -2.69,-2.68 0,-1.14 0.89,-1.74 1.84,-1.74 1.3,0 2.74,1.1 2.74,2.99 0,2.29 -2.3,3.43 -4.33,3.43 -1.7,0 -4.85,-0.89 -6.33,-5.82 -0.3,-1.05 -0.45,-1.55 -1.64,-7.83 h -3.44 c -0.95,0 -1.5,0 -1.5,-0.94 0,-0.61 0.46,-0.61 1.39,-0.61 h 3.3 l -3.75,-19.67 c -0.89,-4.83 -1.73,-9.38 -4.33,-9.38 -0.2,0 -1.44,0 -2.39,0.91 2.3,0.14 2.74,1.94 2.74,2.69 0,1.14 -0.9,1.75 -1.85,1.75 -1.3,0 -2.73,-1.1 -2.73,-3 0,-2.24 2.18,-3.44 4.23,-3.44 2.74,0 4.74,2.94 5.63,4.84 1.59,3.14 2.75,9.16 2.79,9.52 z"
           id="path9525"
           inkscape:connector-curvature="0"
           style="fill:#000000;stroke-width:0" /><path
           d="m 510.09,409.84 h 10.59 c 0.56,0 1.39,0 1.39,0.84 0,0.86 -0.8,0.86 -1.39,0.86 h -10.59 v 10.5 c 0,0.63 0,1.5 -0.86,1.5 -0.85,0 -0.85,-0.81 -0.85,-1.33 v -10.67 h -10.62 c -0.6,0 -1.39,0 -1.39,-0.86 0,-0.84 0.83,-0.84 1.39,-0.84 h 10.62 v -10.28 h -10.62 c -0.6,0 -1.39,0 -1.39,-0.86 0,-0.84 0.83,-0.84 1.39,-0.84 h 22.92 c 0.56,0 1.39,0 1.39,0.84 0,0.86 -0.8,0.86 -1.39,0.86 h -10.59 z"
           id="path9527"
           inkscape:connector-curvature="0"
           style="fill:#000000;stroke-width:0" /><path
           d="m 535.32,441.78 v 0.16 0.17 l -0.01,0.16 v 0.08 l -0.01,0.08 v 0.08 l -0.01,0.08 -0.01,0.07 -0.01,0.07 -0.02,0.07 -0.01,0.07 -0.02,0.07 -0.02,0.06 -0.03,0.06 -0.03,0.06 -0.03,0.06 -0.03,0.05 -0.04,0.05 -0.04,0.05 -0.05,0.04 -0.05,0.04 -0.03,0.01 -0.03,0.02 -0.03,0.02 -0.03,0.01 -0.03,0.01 -0.03,0.02 -0.03,0.01 -0.04,0.01 -0.04,0.01 -0.03,0.01 h -0.04 l -0.04,0.01 h -0.05 l -0.04,0.01 h -0.04 -0.05 c -1,0 -1,-0.89 -1,-1.78 v -46.24 c 0,-0.9 0,-1.79 1,-1.79 1,0 1,0.89 1,1.79 z"
           id="path9529"
           inkscape:connector-curvature="0"
           style="fill:#000000;stroke-width:0" /><path
           d="m 558.79,430.54 h -1.19 c -0.09,-0.76 -0.45,-2.83 -0.9,-3.17 -0.27,-0.2 -2.95,-0.2 -3.44,-0.2 h -6.42 c 3.66,3.23 4.88,4.2 6.97,5.84 2.58,2.06 4.98,4.22 4.98,7.53 0,4.22 -3.69,6.8 -8.15,6.8 -4.32,0 -7.25,-3.03 -7.25,-6.23 0,-1.79 1.5,-1.96 1.86,-1.96 0.82,0 1.84,0.6 1.84,1.85 0,0.62 -0.25,1.84 -2.06,1.84 1.07,2.47 3.45,3.23 5.09,3.23 3.48,0 5.3,-2.7 5.3,-5.53 0,-3.03 -2.16,-5.43 -3.28,-6.68 l -8.39,-8.3 c -0.36,-0.31 -0.36,-0.39 -0.36,-1.36 h 14.36 z"
           id="path9531"
           inkscape:connector-curvature="0"
           style="fill:#000000;stroke-width:0" /></g></g><g
       id="g9589"
       transform="matrix(0.6,0,0,-0.6,395.3875,166.92246)"><g
         word-spacing="normal"
         letter-spacing="normal"
         font-size-adjust="none"
         font-stretch="normal"
         font-weight="normal"
         font-variant="normal"
         font-style="normal"
         stroke-miterlimit="10.433"
         xml:space="preserve"
         transform="matrix(0.82285714,0,0,-0.82285714,-144,576)"
         id="g9587"
         style="font-style:normal;font-variant:normal;font-weight:normal;font-stretch:normal;letter-spacing:normal;word-spacing:normal;text-anchor:start;fill:none;fill-opacity:1;fill-rule:evenodd;stroke:#000000;stroke-linecap:butt;stroke-linejoin:miter;stroke-miterlimit:10.43299961;stroke-dasharray:none;stroke-dashoffset:0;stroke-opacity:1"><path
           id="path9585"
           d="m 490.8,417.81 0.01,0.02 0.01,0.03 0.02,0.05 0.02,0.05 0.02,0.05 0.02,0.05 0.02,0.05 0.02,0.05 0.01,0.05 0.01,0.03 0.01,0.02 0.01,0.02 0.01,0.03 v 0.02 l 0.01,0.02 0.01,0.02 v 0.02 l 0.01,0.02 v 0.02 l 0.01,0.01 v 0.02 0.02 0.01 0.01 l 0.01,0.01 c 0,0.05 0,0.55 -0.6,0.55 -0.45,0 -0.55,-0.3 -0.64,-0.61 -3.25,-7.38 -5.08,-10.7 -13.61,-10.7 h -7.26 c -0.71,0 -0.8,0 -1.1,0.04 -0.5,0.05 -0.65,0.1 -0.65,0.5 0,0.14 0,0.25 0.25,1.14 l 3.39,13.61 h 4.93 c 4.24,0 4.24,-1.04 4.24,-2.29 0,-0.35 0,-0.96 -0.36,-2.44 -0.09,-0.25 -0.14,-0.41 -0.14,-0.55 0,-0.25 0.19,-0.55 0.64,-0.55 0.41,0 0.55,0.25 0.75,0.99 l 2.84,11.67 c 0,0.3 -0.25,0.55 -0.61,0.55 -0.43,0 -0.54,-0.3 -0.68,-0.91 -1.05,-3.78 -1.96,-4.92 -6.54,-4.92 h -4.68 l 3,12 c 0.43,1.75 0.5,1.94 2.68,1.94 h 7.02 c 6.08,0 7.58,-1.44 7.58,-5.53 0,-1.19 0,-1.29 -0.2,-2.64 0,-0.3 -0.05,-0.65 -0.05,-0.9 0,-0.25 0.15,-0.59 0.59,-0.59 0.56,0 0.61,0.3 0.71,1.25 l 1,8.61 c 0.14,1.34 -0.1,1.34 -1.35,1.34 h -25.15 c -1,0 -1.5,0 -1.5,-1 0,-0.54 0.45,-0.54 1.39,-0.54 1.84,0 3.23,0 3.23,-0.89 0,-0.21 0,-0.3 -0.25,-1.21 l -6.56,-26.34 c -0.5,-1.95 -0.61,-2.34 -4.55,-2.34 -0.84,0 -1.39,0 -1.39,-0.96 0,-0.59 0.45,-0.59 1.39,-0.59 h 25.86 c 1.16,0 1.2,0.05 1.55,0.84 z"
           inkscape:connector-curvature="0"
           style="fill:#000000;stroke-width:0" /></g></g><g
       id="g10024"
       transform="matrix(0.87546651,0,0,-0.87546651,127.90349,449.62261)"
       style="fill:#8f3711;fill-opacity:1"><g
         id="g10022"
         transform="matrix(0.5386884,0,0,-0.5386884,-94.27047,534.86572)"
         xml:space="preserve"
         stroke-miterlimit="10.433"
         font-style="normal"
         font-variant="normal"
         font-weight="normal"
         font-stretch="normal"
         font-size-adjust="none"
         letter-spacing="normal"
         word-spacing="normal"
         style="font-style:normal;font-variant:normal;font-weight:normal;font-stretch:normal;letter-spacing:normal;word-spacing:normal;text-anchor:start;fill:#8f3711;fill-opacity:1;fill-rule:evenodd;stroke:#000000;stroke-linecap:butt;stroke-linejoin:miter;stroke-miterlimit:10.43299961;stroke-dasharray:none;stroke-dashoffset:0;stroke-opacity:1"><path
           d="m 484.52,419.06 h -1.25 c -0.55,-5.1 -1.25,-11.31 -10.02,-11.31 h -4.07 c -2.35,0 -2.46,0.34 -2.46,1.98 v 26.56 c 0,1.69 0,2.39 4.74,2.39 h 1.65 v 1.55 c -1.79,-0.16 -6.32,-0.16 -8.37,-0.16 -1.94,0 -5.83,0 -7.58,0.16 v -1.55 h 1.2 c 3.83,0 3.94,-0.54 3.94,-2.34 v -26.25 c 0,-1.8 -0.11,-2.34 -3.94,-2.34 h -1.2 v -1.55 h 25.95 z"
           id="path10006"
           inkscape:connector-curvature="0"
           style="fill:#8f3711;fill-opacity:1;stroke-width:0" /><path
           d="m 503.19,409.98 0.02,-0.19 0.03,-0.18 0.04,-0.19 0.04,-0.18 0.05,-0.19 0.05,-0.18 0.07,-0.18 0.07,-0.18 0.07,-0.18 0.08,-0.17 0.09,-0.18 0.09,-0.16 0.1,-0.16 0.11,-0.16 0.11,-0.16 0.12,-0.14 0.13,-0.14 0.13,-0.14 0.14,-0.13 0.14,-0.12 0.16,-0.12 0.15,-0.1 0.16,-0.1 0.17,-0.09 0.18,-0.08 0.18,-0.07 0.19,-0.06 0.19,-0.05 0.2,-0.04 0.2,-0.03 0.22,-0.02 0.21,-0.01 c 1.03,0 4.08,0.71 4.08,4.74 v 2.78 h -1.25 v -2.78 c 0,-2.89 -1.23,-3.19 -1.8,-3.19 -1.64,0 -1.84,2.23 -1.84,2.48 v 9.97 c 0,2.1 0,4.03 -1.78,5.88 -1.95,1.93 -4.44,2.73 -6.83,2.73 -4.09,0 -7.53,-2.33 -7.53,-5.62 0,-1.49 1,-2.35 2.3,-2.35 1.39,0 2.29,1 2.29,2.3 0,0.59 -0.25,2.23 -2.54,2.3 1.34,1.73 3.78,2.28 5.37,2.28 2.45,0 5.28,-1.94 5.28,-6.38 v -1.84 -1.05 -4.98 c 0,-4.74 -3.58,-6.42 -5.83,-6.42 -2.43,0 -4.48,1.75 -4.48,4.23 0,2.73 2.09,6.88 10.31,7.17 v 0 1.05 c -2.53,-0.14 -6.01,-0.3 -9.15,-1.8 -3.74,-1.69 -4.99,-4.28 -4.99,-6.47 0,-4.03 4.83,-5.28 7.97,-5.28 3.3,0 5.58,1.99 6.53,4.33 z"
           id="path10008"
           inkscape:connector-curvature="0"
           style="fill:#8f3711;fill-opacity:1;stroke-width:0" /><path
           d="m 519.87,422.75 v 5.46 l -6.92,-0.54 v -1.55 c 3.48,0 3.89,-0.34 3.89,-2.78 v -13.36 c 0,-2.23 -0.55,-2.23 -3.89,-2.23 v -1.55 c 1.95,0.05 4.28,0.16 5.68,0.16 1.99,0 4.33,0 6.33,-0.16 v 1.55 h -1.05 c -3.68,0 -3.79,0.54 -3.79,2.34 v 7.67 c 0,4.92 2.09,9.36 5.89,9.36 0.34,0 0.44,0 0.54,-0.05 -0.15,-0.04 -1.15,-0.64 -1.15,-1.93 0,-1.41 1.05,-2.14 2.15,-2.14 0.9,0 2.15,0.59 2.15,2.18 0,1.6 -1.55,3.03 -3.69,3.03 -3.64,0 -5.44,-3.32 -6.14,-5.46 z"
           id="path10010"
           inkscape:connector-curvature="0"
           style="fill:#8f3711;fill-opacity:1;stroke-width:0" /><path
           d="m 536.4,412.82 v 0.03 0.02 0.03 0.04 0.04 0.05 0.05 l 0.01,0.06 v 0.05 l 0.01,0.07 0.01,0.06 0.01,0.07 0.01,0.07 0.02,0.08 0.01,0.08 0.02,0.08 0.02,0.08 0.03,0.08 0.02,0.09 0.03,0.09 0.03,0.09 0.04,0.09 0.04,0.09 0.04,0.1 0.05,0.09 0.05,0.1 0.05,0.09 0.06,0.1 0.06,0.09 0.07,0.1 0.07,0.09 0.08,0.1 c 1.95,-1.39 3.98,-1.55 4.94,-1.55 v 1.14 c -4.35,0 -4.35,4.99 -4.35,6.14 0,1.35 0.07,2.94 0.8,4.17 0.4,0.61 1.55,2 3.55,2 4.32,0 4.32,-4.98 4.32,-6.12 0,-1.34 -0.04,-2.94 -0.79,-4.19 -0.39,-0.59 -1.55,-2 -3.53,-2 v 0 -1.14 c 4.62,0 8.06,3.44 8.06,7.28 0,1.85 -0.8,3.69 -2.03,4.83 1.78,1.69 3.57,1.94 4.48,1.94 0.09,0 0.34,0 0.5,-0.05 -0.56,-0.2 -0.79,-0.75 -0.79,-1.34 0,-0.85 0.63,-1.44 1.43,-1.44 0.5,0 1.44,0.34 1.44,1.48 0,0.85 -0.59,2.44 -2.53,2.44 -1,0 -3.19,-0.3 -5.28,-2.33 -2.1,1.64 -4.19,1.78 -5.28,1.78 -4.65,0 -8.08,-3.43 -8.08,-7.26 0,-2.19 1.09,-4.09 2.34,-5.14 -0.64,-0.74 -1.54,-2.39 -1.54,-4.13 0,-1.54 0.65,-3.43 2.2,-4.43 -3,-0.85 -4.6,-2.99 -4.6,-4.99 0,-3.58 4.94,-6.33 11.02,-6.33 l 0.05,1.14 c -5.04,0 -8.47,2.55 -8.47,5.19 0,2.3 1.89,4.14 4.09,4.28 h 2.94 c 4.28,0 9.86,0 9.86,-4.28 0,-2.69 -3.53,-5.19 -8.42,-5.19 v 0 l -0.05,-1.14 c 5.88,0 11.06,2.55 11.06,6.43 0,1.75 -0.7,4.29 -3.23,5.68 -2.64,1.39 -5.53,1.39 -8.58,1.39 -1.25,0 -3.39,0 -3.74,0.05 -1.59,0.2 -2.63,1.75 -2.63,3.34 z"
           id="path10012"
           inkscape:connector-curvature="0"
           style="fill:#8f3711;fill-opacity:1;stroke-width:0" /><path
           d="m 561.6,417.71 0.05,1.05 c 0.3,7.42 4.48,8.66 6.19,8.66 5.12,0 5.62,-6.72 5.62,-8.66 h -11.81 l -0.05,-1.05 h 13.91 c 1.09,0 1.23,0 1.23,1.05 0,4.92 -2.69,9.75 -8.9,9.75 -5.79,0 -10.38,-5.12 -10.38,-11.36 0,-6.67 5.24,-11.5 10.97,-11.5 6.08,0 8.31,5.53 8.31,6.47 0,0.5 -0.39,0.61 -0.64,0.61 -0.45,0 -0.55,-0.3 -0.65,-0.7 -1.74,-5.13 -6.22,-5.13 -6.72,-5.13 -2.5,0 -4.49,1.49 -5.63,3.33 -1.5,2.39 -1.5,5.69 -1.5,7.48 z"
           id="path10014"
           inkscape:connector-curvature="0"
           style="fill:#8f3711;fill-opacity:1;stroke-width:0" /><path
           d="m 602.63,441.78 v 0.16 0.17 l -0.01,0.16 v 0.08 l -0.01,0.08 v 0.08 l -0.01,0.08 -0.01,0.07 -0.01,0.07 -0.02,0.07 -0.01,0.07 -0.02,0.07 -0.03,0.06 -0.02,0.06 -0.03,0.06 -0.03,0.06 -0.04,0.05 -0.03,0.05 -0.05,0.05 -0.04,0.04 -0.05,0.04 -0.03,0.01 -0.03,0.02 -0.03,0.02 -0.03,0.01 -0.03,0.01 -0.03,0.02 -0.04,0.01 -0.03,0.01 -0.04,0.01 -0.04,0.01 h -0.03 l -0.04,0.01 h -0.05 l -0.04,0.01 h -0.04 -0.05 c -1,0 -1,-0.89 -1,-1.78 v -46.24 c 0,-0.9 0,-1.79 1,-1.79 1,0 1,0.89 1,1.79 z"
           id="path10016"
           inkscape:connector-curvature="0"
           style="fill:#8f3711;fill-opacity:1;stroke-width:0" /><path
           d="m 610.55,418.86 0.09,0.26 0.1,0.26 0.11,0.24 0.1,0.25 0.12,0.23 0.11,0.22 0.12,0.22 0.13,0.21 0.12,0.2 0.13,0.2 0.14,0.19 0.13,0.18 0.29,0.34 0.29,0.32 0.3,0.29 0.31,0.27 0.31,0.24 0.31,0.22 0.32,0.21 0.32,0.18 0.32,0.16 0.31,0.15 0.31,0.13 0.31,0.11 0.3,0.1 0.29,0.08 0.28,0.07 0.26,0.06 0.26,0.05 0.24,0.04 0.22,0.03 0.2,0.02 0.19,0.02 0.17,0.01 0.14,0.01 0.12,0.01 h 0.09 0.06 c 7.52,0 8.06,-8.72 8.06,-12.66 0,-3.05 -0.25,-3.89 -0.59,-4.89 -1.09,-3.63 -2.59,-9.41 -2.59,-10.7 0,-0.55 0.25,-0.91 0.65,-0.91 0.65,0 1.05,1.11 1.6,3 1.14,4.19 1.64,7.02 1.84,8.56 0.09,0.66 0.19,1.3 0.39,1.96 1.6,4.92 4.78,12.34 6.78,16.28 0.35,0.59 0.94,1.7 0.94,1.89 0,0.5 -0.48,0.5 -0.59,0.5 -0.14,0 -0.46,0 -0.6,-0.35 -2.59,-4.73 -4.58,-9.71 -6.58,-14.75 -0.04,1.55 -0.09,5.33 -2.04,10.18 -1.19,3.03 -3.19,5.46 -6.63,5.46 -6.21,0 -9.71,-7.56 -9.71,-9.1 0,-0.5 0.45,-0.5 0.95,-0.5 z"
           id="path10018"
           inkscape:connector-curvature="0"
           style="fill:#8f3711;fill-opacity:1;stroke-width:0" /><path
           d="m 644.98,441.78 v 0.16 0.17 0.16 l -0.01,0.08 v 0.08 l -0.01,0.08 -0.01,0.08 -0.01,0.07 -0.01,0.07 -0.01,0.07 -0.02,0.07 -0.02,0.07 -0.02,0.06 -0.03,0.06 -0.02,0.06 -0.04,0.06 -0.03,0.05 -0.04,0.05 -0.04,0.05 -0.05,0.04 -0.05,0.04 -0.02,0.01 -0.03,0.02 -0.03,0.02 -0.03,0.01 -0.03,0.01 -0.04,0.02 -0.03,0.01 -0.04,0.01 -0.03,0.01 -0.04,0.01 h -0.04 l -0.04,0.01 h -0.04 l -0.05,0.01 h -0.04 -0.05 c -1,0 -1,-0.89 -1,-1.78 v -46.24 c 0,-0.9 0,-1.79 1,-1.79 1,0 1,0.89 1,1.79 z"
           id="path10020"
           inkscape:connector-curvature="0"
           style="fill:#8f3711;fill-opacity:1;stroke-width:0" /></g></g><g
       id="g10150"
       transform="matrix(0.87546651,0,0,-0.87546651,12.432386,365.94411)"
       style="fill:#00548c;fill-opacity:1"><g
         word-spacing="normal"
         letter-spacing="normal"
         font-size-adjust="none"
         font-stretch="normal"
         font-weight="normal"
         font-variant="normal"
         font-style="normal"
         stroke-miterlimit="10.433"
         xml:space="preserve"
         transform="matrix(0.5386884,0,0,-0.5386884,-94.27047,534.86572)"
         id="g10148"
         style="font-style:normal;font-variant:normal;font-weight:normal;font-stretch:normal;letter-spacing:normal;word-spacing:normal;text-anchor:start;fill:#00548c;fill-opacity:1;fill-rule:evenodd;stroke:#000000;stroke-linecap:butt;stroke-linejoin:miter;stroke-miterlimit:10.43299961;stroke-dasharray:none;stroke-dashoffset:0;stroke-opacity:1"><path
           id="path10132"
           d="m 472.91,425.53 -6.37,1.54 c -3.1,0.75 -5.04,3.44 -5.04,6.33 0,3.49 2.69,6.53 6.58,6.53 8.31,0 9.41,-8.17 9.71,-10.42 0.04,-0.3 0.04,-0.59 0.6,-0.59 0.65,0 0.65,0.25 0.65,1.2 v 10 c 0,0.86 0,1.2 -0.55,1.2 -0.35,0 -0.41,-0.04 -0.75,-0.65 L 476,437.84 c -1.5,1.44 -3.54,3.48 -7.98,3.48 -5.53,0 -9.7,-4.39 -9.7,-9.67 0,-4.12 2.64,-7.76 6.51,-9.11 0.55,-0.2 3.1,-0.79 6.58,-1.64 1.34,-0.36 2.84,-0.7 4.23,-2.54 1.05,-1.3 1.55,-2.94 1.55,-4.58 0,-3.55 -2.48,-7.13 -6.67,-7.13 -1.45,0 -5.23,0.25 -7.88,2.69 -2.89,2.69 -3.04,5.87 -3.09,7.67 -0.05,0.5 -0.44,0.5 -0.59,0.5 -0.64,0 -0.64,-0.36 -0.64,-1.25 v -9.97 c 0,-0.84 0,-1.18 0.54,-1.18 0.35,0 0.39,0.09 0.74,0.64 0,0.04 0.15,0.2 1.79,2.84 1.55,-1.69 4.74,-3.48 9.18,-3.48 5.82,0 9.81,4.87 9.81,10.35 0,4.99 -3.28,9.07 -7.47,10.07 z"
           inkscape:connector-curvature="0"
           style="fill:#00548c;fill-opacity:1;stroke-width:0" /><path
           id="path10134"
           d="m 488.72,423.34 v -13.36 c 0,-2.23 -0.54,-2.23 -3.89,-2.23 v -1.55 c 1.75,0.05 4.28,0.16 5.63,0.16 1.29,0 3.89,-0.11 5.58,-0.16 v 1.55 c -3.33,0 -3.88,0 -3.88,2.23 v 9.17 c 0,5.19 3.53,7.97 6.72,7.97 3.14,0 3.69,-2.69 3.69,-5.53 v -11.61 c 0,-2.23 -0.55,-2.23 -3.89,-2.23 v -1.55 c 1.75,0.05 4.29,0.16 5.64,0.16 1.29,0 3.87,-0.11 5.57,-0.16 v 1.55 c -3.34,0 -3.89,0 -3.89,2.23 v 9.17 c 0,5.19 3.55,7.97 6.74,7.97 3.14,0 3.69,-2.69 3.69,-5.53 v -11.61 c 0,-2.23 -0.55,-2.23 -3.9,-2.23 v -1.55 c 1.74,0.05 4.29,0.16 5.63,0.16 1.3,0 3.89,-0.11 5.58,-0.16 v 1.55 c -2.58,0 -3.83,0 -3.88,1.5 v 9.51 c 0,4.28 0,5.83 -1.54,7.61 -0.71,0.86 -2.35,1.84 -5.24,1.84 -4.19,0 -6.37,-2.98 -7.22,-4.87 -0.7,4.33 -4.39,4.87 -6.62,4.87 -3.64,0 -5.99,-2.14 -7.38,-5.21 v 5.21 l -7.03,-0.54 v -1.55 c 3.49,0 3.89,-0.34 3.89,-2.78 z"
           inkscape:connector-curvature="0"
           style="fill:#00548c;fill-opacity:1;stroke-width:0" /><path
           id="path10136"
           d="m 541.35,409.98 0.02,-0.19 0.03,-0.18 0.04,-0.19 0.04,-0.18 0.05,-0.19 0.06,-0.18 0.06,-0.18 0.07,-0.18 0.07,-0.18 0.08,-0.17 0.09,-0.18 0.09,-0.16 0.1,-0.16 0.11,-0.16 0.11,-0.16 0.12,-0.14 0.13,-0.14 0.13,-0.14 0.14,-0.13 0.14,-0.12 0.16,-0.12 0.15,-0.1 0.16,-0.1 0.17,-0.09 0.18,-0.08 0.18,-0.07 0.19,-0.06 0.19,-0.05 0.2,-0.04 0.2,-0.03 0.22,-0.02 0.21,-0.01 c 1.03,0 4.08,0.71 4.08,4.74 v 2.78 h -1.25 v -2.78 c 0,-2.89 -1.23,-3.19 -1.8,-3.19 -1.64,0 -1.84,2.23 -1.84,2.48 v 9.97 c 0,2.1 0,4.03 -1.78,5.88 -1.95,1.93 -4.44,2.73 -6.83,2.73 -4.09,0 -7.53,-2.33 -7.53,-5.62 0,-1.49 1,-2.35 2.3,-2.35 1.39,0 2.29,1 2.29,2.3 0,0.59 -0.25,2.23 -2.54,2.3 1.34,1.73 3.78,2.28 5.37,2.28 2.45,0 5.28,-1.94 5.28,-6.38 v -1.84 -1.05 -4.98 c 0,-4.74 -3.58,-6.42 -5.83,-6.42 -2.43,0 -4.48,1.75 -4.48,4.23 0,2.73 2.09,6.88 10.31,7.17 v 0 1.05 c -2.53,-0.14 -6.01,-0.3 -9.15,-1.8 -3.74,-1.69 -4.99,-4.28 -4.99,-6.47 0,-4.03 4.83,-5.28 7.97,-5.28 3.3,0 5.58,1.99 6.53,4.33 z"
           inkscape:connector-curvature="0"
           style="fill:#00548c;fill-opacity:1;stroke-width:0" /><path
           id="path10138"
           d="m 558.53,440.78 -7.18,-0.55 v -1.55 c 3.49,0 3.9,-0.34 3.9,-2.79 v -25.91 c 0,-2.23 -0.55,-2.23 -3.9,-2.23 v -1.55 c 1.65,0.05 4.29,0.16 5.54,0.16 1.25,0 3.68,-0.11 5.53,-0.16 v 1.55 c -3.35,0 -3.89,0 -3.89,2.23 z"
           inkscape:connector-curvature="0"
           style="fill:#00548c;fill-opacity:1;stroke-width:0" /><path
           id="path10140"
           d="m 572.32,440.78 -7.17,-0.55 v -1.55 c 3.49,0 3.89,-0.34 3.89,-2.79 v -25.91 c 0,-2.23 -0.54,-2.23 -3.89,-2.23 v -1.55 c 1.64,0.05 4.28,0.16 5.53,0.16 1.25,0 3.69,-0.11 5.54,-0.16 v 1.55 c -3.35,0 -3.9,0 -3.9,2.23 z"
           inkscape:connector-curvature="0"
           style="fill:#00548c;fill-opacity:1;stroke-width:0" /><path
           id="path10142"
           d="m 601.79,441.78 v 0.16 0.17 l -0.01,0.16 v 0.08 l -0.01,0.08 v 0.08 l -0.01,0.08 -0.01,0.07 -0.01,0.07 -0.02,0.07 -0.01,0.07 -0.02,0.07 -0.03,0.06 -0.02,0.06 -0.03,0.06 -0.03,0.06 -0.04,0.05 -0.03,0.05 -0.05,0.05 -0.04,0.04 -0.05,0.04 -0.03,0.01 -0.03,0.02 -0.03,0.02 -0.03,0.01 -0.03,0.01 -0.03,0.02 -0.04,0.01 -0.03,0.01 -0.04,0.01 -0.04,0.01 h -0.03 l -0.04,0.01 h -0.05 l -0.04,0.01 h -0.04 -0.05 c -1,0 -1,-0.89 -1,-1.78 v -46.24 c 0,-0.9 0,-1.79 1,-1.79 1,0 1,0.89 1,1.79 z"
           inkscape:connector-curvature="0"
           style="fill:#00548c;fill-opacity:1;stroke-width:0" /><path
           id="path10144"
           d="m 609.71,418.86 0.09,0.26 0.1,0.26 0.11,0.24 0.1,0.25 0.12,0.23 0.11,0.22 0.12,0.22 0.13,0.21 0.12,0.2 0.13,0.2 0.14,0.19 0.13,0.18 0.29,0.34 0.29,0.32 0.3,0.29 0.31,0.27 0.31,0.24 0.31,0.22 0.32,0.21 0.32,0.18 0.32,0.16 0.31,0.15 0.31,0.13 0.31,0.11 0.3,0.1 0.29,0.08 0.28,0.07 0.26,0.06 0.26,0.05 0.24,0.04 0.22,0.03 0.2,0.02 0.19,0.02 0.16,0.01 0.15,0.01 0.12,0.01 h 0.09 0.06 c 7.52,0 8.07,-8.72 8.07,-12.66 0,-3.05 -0.25,-3.89 -0.6,-4.89 -1.09,-3.63 -2.59,-9.41 -2.59,-10.7 0,-0.55 0.25,-0.91 0.65,-0.91 0.64,0 1.05,1.11 1.6,3 1.14,4.19 1.64,7.02 1.84,8.56 0.1,0.66 0.19,1.3 0.39,1.96 1.6,4.92 4.78,12.34 6.78,16.28 0.35,0.59 0.94,1.7 0.94,1.89 0,0.5 -0.48,0.5 -0.59,0.5 -0.14,0 -0.46,0 -0.6,-0.35 -2.59,-4.73 -4.57,-9.71 -6.57,-14.75 -0.05,1.55 -0.1,5.33 -2.05,10.18 -1.19,3.03 -3.19,5.46 -6.63,5.46 -6.22,0 -9.72,-7.56 -9.72,-9.1 0,-0.5 0.46,-0.5 0.96,-0.5 z"
           inkscape:connector-curvature="0"
           style="fill:#00548c;fill-opacity:1;stroke-width:0" /><path
           id="path10146"
           d="m 644.15,441.78 -0.01,0.16 v 0.17 0.16 l -0.01,0.08 v 0.08 l -0.01,0.08 -0.01,0.08 -0.01,0.07 -0.01,0.07 -0.01,0.07 -0.02,0.07 -0.02,0.07 -0.02,0.06 -0.02,0.06 -0.03,0.06 -0.03,0.06 -0.04,0.05 -0.04,0.05 -0.04,0.05 -0.05,0.04 -0.05,0.04 -0.02,0.01 -0.03,0.02 -0.03,0.02 -0.03,0.01 -0.03,0.01 -0.04,0.02 -0.03,0.01 -0.03,0.01 -0.04,0.01 -0.04,0.01 h -0.04 l -0.04,0.01 h -0.04 l -0.04,0.01 h -0.05 -0.04 c -1,0 -1,-0.89 -1,-1.78 v -46.24 c 0,-0.9 0,-1.79 1,-1.79 1,0 1,0.89 1,1.79 z"
           inkscape:connector-curvature="0"
           style="fill:#00548c;fill-opacity:1;stroke-width:0" /></g></g></g></svg>