<?xml version="1.0" encoding="UTF-8" standalone="no"?>
<!-- Created with Inkscape (http://www.inkscape.org/) -->

<svg
   xmlns:dc="http://purl.org/dc/elements/1.1/"
   xmlns:cc="http://creativecommons.org/ns#"
   xmlns:rdf="http://www.w3.org/1999/02/22-rdf-syntax-ns#"
   xmlns:svg="http://www.w3.org/2000/svg"
   xmlns="http://www.w3.org/2000/svg"
   xmlns:xlink="http://www.w3.org/1999/xlink"
   xmlns:sodipodi="http://sodipodi.sourceforge.net/DTD/sodipodi-0.dtd"
   xmlns:inkscape="http://www.inkscape.org/namespaces/inkscape"
   width="180.88972mm"
   height="139.11034mm"
   viewBox="0 0 180.88972 139.11034"
   version="1.1"
   id="svg8"
   inkscape:version="0.92.2 2405546, 2018-03-11"
   sodipodi:docname="lifetimes.svg">
  <sodipodi:namedview
     id="base"
     pagecolor="#ffffff"
     bordercolor="#666666"
     borderopacity="1.0"
     inkscape:pageopacity="0.0"
     inkscape:pageshadow="2"
     inkscape:zoom="1"
     inkscape:cx="267.74539"
     inkscape:cy="309.87828"
     inkscape:document-units="mm"
     inkscape:current-layer="layer1"
     showgrid="false"
     inkscape:window-width="1920"
     inkscape:window-height="1027"
     inkscape:window-x="0"
     inkscape:window-y="0"
     inkscape:window-maximized="1"
     inkscape:object-nodes="false"
     fit-margin-top="0"
     fit-margin-left="0"
     fit-margin-right="0"
     fit-margin-bottom="0" />
  <defs
     id="defs2"
     style="stroke-linecap:butt;stroke-linejoin:round">
    <style
       id="style4894"
       type="text/css">
*{stroke-linecap:butt;stroke-linejoin:round;}
  </style>
    <path
       style="stroke:#000000;stroke-width:0.80000001;stroke-linecap:butt;stroke-linejoin:round"
       id="m4478f94cfc"
       d="M 0,0 V 3.5"
       inkscape:connector-curvature="0" />
    <path
       id="DejaVuSans-30"
       d="m 31.78125,66.40625 q -7.609375,0 -11.453125,-7.5 Q 16.5,51.421875 16.5,36.375 q 0,-14.984375 3.828125,-22.484375 3.84375,-7.5 11.453125,-7.5 7.671875,0 11.5,7.5 3.84375,7.5 3.84375,22.484375 0,15.046875 -3.84375,22.53125 -3.828125,7.5 -11.5,7.5 z m 0,7.8125 q 12.265625,0 18.734375,-9.703125 6.46875,-9.6875 6.46875,-28.140625 0,-18.40625 -6.46875,-28.109375 -6.46875,-9.6875 -18.734375,-9.6875 -12.25,0 -18.71875,9.6875 Q 6.59375,17.96875 6.59375,36.375 q 0,18.453125 6.46875,28.140625 6.46875,9.703125 18.71875,9.703125 z"
       inkscape:connector-curvature="0"
       style="stroke-linecap:butt;stroke-linejoin:round" />
    <path
       id="DejaVuSans-31"
       d="m 12.40625,8.296875 h 16.109375 v 55.625 L 10.984375,60.40625 v 8.984375 l 17.4375,3.515625 H 38.28125 V 8.296875 H 54.390625 V 0 H 12.40625 Z"
       inkscape:connector-curvature="0"
       style="stroke-linecap:butt;stroke-linejoin:round" />
    <path
       id="DejaVuSans-32"
       d="M 19.1875,8.296875 H 53.609375 V 0 H 7.328125 v 8.296875 q 5.609375,5.8125 15.296875,15.59375 9.703125,9.796875 12.1875,12.640625 4.734375,5.3125 6.609375,9 1.890625,3.6875 1.890625,7.25 0,5.8125 -4.078125,9.46875 -4.078125,3.671875 -10.625,3.671875 -4.640625,0 -9.796875,-1.609375 -5.140625,-1.609375 -11,-4.890625 v 9.96875 Q 13.765625,71.78125 18.9375,73 q 5.1875,1.21875 9.484375,1.21875 11.328125,0 18.0625,-5.671875 6.734375,-5.65625 6.734375,-15.125 0,-4.5 -1.6875,-8.53125 Q 49.859375,40.875 45.40625,35.40625 44.1875,33.984375 37.640625,27.21875 31.109375,20.453125 19.1875,8.296875 Z"
       inkscape:connector-curvature="0"
       style="stroke-linecap:butt;stroke-linejoin:round" />
    <path
       id="DejaVuSans-33"
       d="M 40.578125,39.3125 Q 47.65625,37.796875 51.625,33 q 3.984375,-4.78125 3.984375,-11.8125 0,-10.78125 -7.421875,-16.703125 -7.421875,-5.90625 -21.09375,-5.90625 -4.578125,0 -9.4375,0.90625 -4.859375,0.90625 -10.03125,2.71875 v 9.515625 q 4.09375,-2.390625 8.96875,-3.609375 4.890625,-1.21875 10.21875,-1.21875 9.265625,0 14.125,3.65625 4.859375,3.65625 4.859375,10.640625 0,6.453125 -4.515625,10.078125 -4.515625,3.640625 -12.5625,3.640625 h -8.5 v 8.109375 h 8.890625 q 7.265625,0 11.125,2.90625 3.859375,2.90625 3.859375,8.375 0,5.609375 -3.984375,8.609375 -3.96875,3.015625 -11.390625,3.015625 -4.0625,0 -8.703125,-0.890625 Q 15.375,64.15625 9.8125,62.3125 v 8.78125 q 5.625,1.5625 10.53125,2.34375 4.90625,0.78125 9.25,0.78125 11.234375,0 17.765625,-5.109375 6.546875,-5.09375 6.546875,-13.78125 0,-6.0625 -3.46875,-10.234375 -3.46875,-4.171875 -9.859375,-5.78125 z"
       inkscape:connector-curvature="0"
       style="stroke-linecap:butt;stroke-linejoin:round" />
    <path
       id="DejaVuSans-34"
       d="M 37.796875,64.3125 12.890625,25.390625 h 24.90625 z m -2.59375,8.59375 h 12.40625 V 25.390625 h 10.40625 V 17.1875 H 47.609375 V 0 h -9.8125 V 17.1875 H 4.890625 v 9.515625 z"
       inkscape:connector-curvature="0"
       style="stroke-linecap:butt;stroke-linejoin:round" />
    <path
       id="DejaVuSans-35"
       d="m 10.796875,72.90625 h 38.71875 v -8.3125 h -29.6875 V 46.734375 q 2.140625,0.734375 4.28125,1.09375 2.15625,0.359375 4.3125,0.359375 Q 40.625,48.1875 47.75,41.5 54.890625,34.8125 54.890625,23.390625 54.890625,11.625 47.5625,5.09375 40.234375,-1.421875 26.90625,-1.421875 q -4.59375,0 -9.359375,0.78125 -4.75,0.78125 -9.828125,2.34375 V 11.625 q 4.390625,-2.390625 9.078125,-3.5625 4.6875,-1.171875 9.90625,-1.171875 8.453125,0 13.375,4.4375 4.9375,4.4375 4.9375,12.0625 0,7.609375 -4.9375,12.046875 -4.921875,4.453125 -13.375,4.453125 -3.953125,0 -7.890625,-0.875 -3.921875,-0.875 -8.015625,-2.734375 z"
       inkscape:connector-curvature="0"
       style="stroke-linecap:butt;stroke-linejoin:round" />
    <path
       id="DejaVuSans-36"
       d="m 33.015625,40.375 q -6.640625,0 -10.53125,-4.546875 -3.875,-4.53125 -3.875,-12.4375 0,-7.859375 3.875,-12.4375 3.890625,-4.5625 10.53125,-4.5625 6.640625,0 10.515625,4.5625 3.875,4.578125 3.875,12.4375 0,7.90625 -3.875,12.4375 Q 39.65625,40.375 33.015625,40.375 Z M 52.59375,71.296875 V 62.3125 q -3.71875,1.75 -7.5,2.671875 -3.78125,0.9375 -7.5,0.9375 -9.765625,0 -14.921875,-6.59375 -5.140625,-6.59375 -5.875,-19.921875 2.875,4.25 7.21875,6.515625 4.359375,2.265625 9.578125,2.265625 10.984375,0 17.359375,-6.671875 6.375,-6.65625 6.375,-18.125 0,-11.234375 -6.640625,-18.03125 -6.640625,-6.78125 -17.671875,-6.78125 -12.65625,0 -19.34375,9.6875 -6.6875,9.703125 -6.6875,28.109375 0,17.28125 8.203125,27.5625 8.203125,10.28125 22.015625,10.28125 3.71875,0 7.5,-0.734375 3.78125,-0.734375 7.890625,-2.1875 z"
       inkscape:connector-curvature="0"
       style="stroke-linecap:butt;stroke-linejoin:round" />
    <path
       id="DejaVuSans-37"
       d="m 8.203125,72.90625 h 46.875 V 68.703125 L 28.609375,0 H 18.3125 L 43.21875,64.59375 H 8.203125 Z"
       inkscape:connector-curvature="0"
       style="stroke-linecap:butt;stroke-linejoin:round" />
    <path
       style="stroke:#000000;stroke-width:0.80000001;stroke-linecap:butt;stroke-linejoin:round"
       id="m40a6d8bc65"
       d="M 0,0 H -3.5"
       inkscape:connector-curvature="0" />
    <path
       style="stroke:#1f77b4;stroke-linecap:butt;stroke-linejoin:round"
       id="m9a98f05d98"
       d="M 0,3 C 0.795609,3 1.55874,2.683901 2.12132,2.12132 2.683901,1.55874 3,0.795609 3,0 3,-0.795609 2.683901,-1.55874 2.12132,-2.12132 1.55874,-2.683901 0.795609,-3 0,-3 -0.795609,-3 -1.55874,-2.683901 -2.12132,-2.12132 -2.683901,-1.55874 -3,-0.795609 -3,0 -3,0.795609 -2.683901,1.55874 -2.12132,2.12132 -1.55874,2.683901 -0.795609,3 0,3 Z"
       inkscape:connector-curvature="0" />
    <clipPath
       id="p6954e30222"
       style="stroke-linecap:butt;stroke-linejoin:round">
      <rect
         id="rect5205"
         y="70.070396"
         x="72.720001"
         width="450.86401"
         height="449.61841"
         style="stroke-linecap:butt;stroke-linejoin:round" />
    </clipPath>
    <defs
       id="defs5049">
      <path
         inkscape:connector-curvature="0"
         d="M 0,0 H -3.5"
         id="path5332"
         style="stroke:#000000;stroke-width:0.80000001;stroke-linecap:butt;stroke-linejoin:round" />
    </defs>
    <defs
       id="defs4905">
      <path
         inkscape:connector-curvature="0"
         d="M 0,0 V 3.5"
         id="path5234"
         style="stroke:#000000;stroke-width:0.80000001;stroke-linecap:butt;stroke-linejoin:round" />
    </defs>
    <defs
       id="defs5178">
      <path
         inkscape:connector-curvature="0"
         d="M 0,3 C 0.795609,3 1.55874,2.683901 2.12132,2.12132 2.683901,1.55874 3,0.795609 3,0 3,-0.795609 2.683901,-1.55874 2.12132,-2.12132 1.55874,-2.683901 0.795609,-3 0,-3 -0.795609,-3 -1.55874,-2.683901 -2.12132,-2.12132 -2.683901,-1.55874 -3,-0.795609 -3,0 -3,0.795609 -2.683901,1.55874 -2.12132,2.12132 -1.55874,2.683901 -0.795609,3 0,3 Z"
         id="path5413"
         style="stroke:#1f77b4;stroke-linecap:butt;stroke-linejoin:round" />
    </defs>
  </defs>
  <metadata
     id="metadata5">
    <rdf:RDF>
      <cc:Work
         rdf:about="">
        <dc:format>image/svg+xml</dc:format>
        <dc:type
           rdf:resource="http://purl.org/dc/dcmitype/StillImage" />
        <dc:title></dc:title>
      </cc:Work>
    </rdf:RDF>
  </metadata>
  <g
     inkscape:label="Layer 1"
     inkscape:groupmode="layer"
     id="layer1"
     style="stroke-linecap:butt;stroke-linejoin:round"
     transform="translate(-5.7890909,-100.70483)">
    <use
       id="use4907"
       y="519.68878"
       xlink:href="#m4478f94cfc"
       x="72.720001"
       style="stroke:#000000;stroke-width:1.5;stroke-linecap:butt;stroke-linejoin:round;stroke-miterlimit:4;stroke-dasharray:none"
       width="100%"
       height="100%"
       transform="matrix(0.35277778,0,0,0.35277778,1.7054276,38.276809)" />
    <g
       id="text_1"
       style="stroke-linecap:butt;stroke-linejoin:round"
       transform="matrix(0.52916667,0,0,0.52916667,-11.121159,-54.000579)">
      <!-- 0 -->
      <defs
         id="defs4913">
        <path
           id="path5240"
           d="m 31.78125,66.40625 q -7.609375,0 -11.453125,-7.5 Q 16.5,51.421875 16.5,36.375 q 0,-14.984375 3.828125,-22.484375 3.84375,-7.5 11.453125,-7.5 7.671875,0 11.5,7.5 3.84375,7.5 3.84375,22.484375 0,15.046875 -3.84375,22.53125 -3.828125,7.5 -11.5,7.5 z m 0,7.8125 q 12.265625,0 18.734375,-9.703125 6.46875,-9.6875 6.46875,-28.140625 0,-18.40625 -6.46875,-28.109375 -6.46875,-9.6875 -18.734375,-9.6875 -12.25,0 -18.71875,9.6875 Q 6.59375,17.96875 6.59375,36.375 q 0,18.453125 6.46875,28.140625 6.46875,9.703125 18.71875,9.703125 z"
           inkscape:connector-curvature="0"
           style="stroke-linecap:butt;stroke-linejoin:round" />
      </defs>
      <g
         id="g4917"
         transform="matrix(0.1,0,0,-0.1,69.53875,534.28724)"
         style="stroke-linecap:butt;stroke-linejoin:round">
        <use
           id="use4915"
           xlink:href="#DejaVuSans-30"
           style="stroke-linecap:butt;stroke-linejoin:round"
           x="0"
           y="0"
           width="100%"
           height="100%" />
      </g>
    </g>
    <g
       id="text_2"
       style="stroke-linecap:butt;stroke-linejoin:round"
       transform="matrix(0.52916667,0,0,0.52916667,-21.623979,-54.000579)">
      <!-- 100 -->
      <defs
         id="defs4927">
        <path
           id="path5250"
           d="m 12.40625,8.296875 h 16.109375 v 55.625 L 10.984375,60.40625 v 8.984375 l 17.4375,3.515625 H 38.28125 V 8.296875 H 54.390625 V 0 H 12.40625 Z"
           inkscape:connector-curvature="0"
           style="stroke-linecap:butt;stroke-linejoin:round" />
      </defs>
      <g
         id="g4935"
         transform="matrix(0.1,0,0,-0.1,122.50046,534.28724)"
         style="stroke-linecap:butt;stroke-linejoin:round">
        <use
           id="use4929"
           xlink:href="#DejaVuSans-31"
           style="stroke-linecap:butt;stroke-linejoin:round"
           x="0"
           y="0"
           width="100%"
           height="100%" />
        <use
           id="use4931"
           xlink:href="#DejaVuSans-30"
           x="63.623047"
           style="stroke-linecap:butt;stroke-linejoin:round"
           y="0"
           width="100%"
           height="100%" />
        <use
           id="use4933"
           xlink:href="#DejaVuSans-30"
           x="127.24609"
           style="stroke-linecap:butt;stroke-linejoin:round"
           y="0"
           width="100%"
           height="100%" />
      </g>
    </g>
    <g
       id="text_3"
       style="stroke-linecap:butt;stroke-linejoin:round"
       transform="matrix(0.52916667,0,0,0.52916667,-32.055865,-54.000579)">
      <!-- 200 -->
      <defs
         id="defs4945">
        <path
           id="path5262"
           d="M 19.1875,8.296875 H 53.609375 V 0 H 7.328125 v 8.296875 q 5.609375,5.8125 15.296875,15.59375 9.703125,9.796875 12.1875,12.640625 4.734375,5.3125 6.609375,9 1.890625,3.6875 1.890625,7.25 0,5.8125 -4.078125,9.46875 -4.078125,3.671875 -10.625,3.671875 -4.640625,0 -9.796875,-1.609375 -5.140625,-1.609375 -11,-4.890625 v 9.96875 Q 13.765625,71.78125 18.9375,73 q 5.1875,1.21875 9.484375,1.21875 11.328125,0 18.0625,-5.671875 6.734375,-5.65625 6.734375,-15.125 0,-4.5 -1.6875,-8.53125 Q 49.859375,40.875 45.40625,35.40625 44.1875,33.984375 37.640625,27.21875 31.109375,20.453125 19.1875,8.296875 Z"
           inkscape:connector-curvature="0"
           style="stroke-linecap:butt;stroke-linejoin:round" />
      </defs>
      <g
         id="g4953"
         transform="matrix(0.1,0,0,-0.1,181.82467,534.28724)"
         style="stroke-linecap:butt;stroke-linejoin:round">
        <use
           id="use4947"
           xlink:href="#DejaVuSans-32"
           style="stroke-linecap:butt;stroke-linejoin:round"
           x="0"
           y="0"
           width="100%"
           height="100%" />
        <use
           id="use4949"
           xlink:href="#DejaVuSans-30"
           x="63.623047"
           style="stroke-linecap:butt;stroke-linejoin:round"
           y="0"
           width="100%"
           height="100%" />
        <use
           id="use4951"
           xlink:href="#DejaVuSans-30"
           x="127.24609"
           style="stroke-linecap:butt;stroke-linejoin:round"
           y="0"
           width="100%"
           height="100%" />
      </g>
    </g>
    <g
       id="text_4"
       style="stroke-linecap:butt;stroke-linejoin:round"
       transform="matrix(0.52916667,0,0,0.52916667,-42.522614,-54.000579)">
      <!-- 300 -->
      <defs
         id="defs4963">
        <path
           id="path5274"
           d="M 40.578125,39.3125 Q 47.65625,37.796875 51.625,33 q 3.984375,-4.78125 3.984375,-11.8125 0,-10.78125 -7.421875,-16.703125 -7.421875,-5.90625 -21.09375,-5.90625 -4.578125,0 -9.4375,0.90625 -4.859375,0.90625 -10.03125,2.71875 v 9.515625 q 4.09375,-2.390625 8.96875,-3.609375 4.890625,-1.21875 10.21875,-1.21875 9.265625,0 14.125,3.65625 4.859375,3.65625 4.859375,10.640625 0,6.453125 -4.515625,10.078125 -4.515625,3.640625 -12.5625,3.640625 h -8.5 v 8.109375 h 8.890625 q 7.265625,0 11.125,2.90625 3.859375,2.90625 3.859375,8.375 0,5.609375 -3.984375,8.609375 -3.96875,3.015625 -11.390625,3.015625 -4.0625,0 -8.703125,-0.890625 Q 15.375,64.15625 9.8125,62.3125 v 8.78125 q 5.625,1.5625 10.53125,2.34375 4.90625,0.78125 9.25,0.78125 11.234375,0 17.765625,-5.109375 6.546875,-5.09375 6.546875,-13.78125 0,-6.0625 -3.46875,-10.234375 -3.46875,-4.171875 -9.859375,-5.78125 z"
           inkscape:connector-curvature="0"
           style="stroke-linecap:butt;stroke-linejoin:round" />
      </defs>
      <g
         id="g4971"
         transform="matrix(0.1,0,0,-0.1,241.14888,534.28724)"
         style="stroke-linecap:butt;stroke-linejoin:round">
        <use
           id="use4965"
           xlink:href="#DejaVuSans-33"
           style="stroke-linecap:butt;stroke-linejoin:round"
           x="0"
           y="0"
           width="100%"
           height="100%" />
        <use
           id="use4967"
           xlink:href="#DejaVuSans-30"
           x="63.623047"
           style="stroke-linecap:butt;stroke-linejoin:round"
           y="0"
           width="100%"
           height="100%" />
        <use
           id="use4969"
           xlink:href="#DejaVuSans-30"
           x="127.24609"
           style="stroke-linecap:butt;stroke-linejoin:round"
           y="0"
           width="100%"
           height="100%" />
      </g>
    </g>
    <g
       id="text_5"
       style="stroke-linecap:butt;stroke-linejoin:round"
       transform="matrix(0.52916667,0,0,0.52916667,-52.96263,-54.000579)">
      <!-- 400 -->
      <defs
         id="defs4981">
        <path
           id="path5286"
           d="M 37.796875,64.3125 12.890625,25.390625 h 24.90625 z m -2.59375,8.59375 h 12.40625 V 25.390625 h 10.40625 V 17.1875 H 47.609375 V 0 h -9.8125 V 17.1875 H 4.890625 v 9.515625 z"
           inkscape:connector-curvature="0"
           style="stroke-linecap:butt;stroke-linejoin:round" />
      </defs>
      <g
         id="g4989"
         transform="matrix(0.1,0,0,-0.1,300.47309,534.28724)"
         style="stroke-linecap:butt;stroke-linejoin:round">
        <use
           id="use4983"
           xlink:href="#DejaVuSans-34"
           style="stroke-linecap:butt;stroke-linejoin:round"
           x="0"
           y="0"
           width="100%"
           height="100%" />
        <use
           id="use4985"
           xlink:href="#DejaVuSans-30"
           x="63.623047"
           style="stroke-linecap:butt;stroke-linejoin:round"
           y="0"
           width="100%"
           height="100%" />
        <use
           id="use4987"
           xlink:href="#DejaVuSans-30"
           x="127.24609"
           style="stroke-linecap:butt;stroke-linejoin:round"
           y="0"
           width="100%"
           height="100%" />
      </g>
    </g>
    <g
       id="text_6"
       style="stroke-linecap:butt;stroke-linejoin:round"
       transform="matrix(0.52916667,0,0,0.52916667,-63.451704,-54.000579)">
      <!-- 500 -->
      <defs
         id="defs4999">
        <path
           id="path5298"
           d="m 10.796875,72.90625 h 38.71875 v -8.3125 h -29.6875 V 46.734375 q 2.140625,0.734375 4.28125,1.09375 2.15625,0.359375 4.3125,0.359375 Q 40.625,48.1875 47.75,41.5 54.890625,34.8125 54.890625,23.390625 54.890625,11.625 47.5625,5.09375 40.234375,-1.421875 26.90625,-1.421875 q -4.59375,0 -9.359375,0.78125 -4.75,0.78125 -9.828125,2.34375 V 11.625 q 4.390625,-2.390625 9.078125,-3.5625 4.6875,-1.171875 9.90625,-1.171875 8.453125,0 13.375,4.4375 4.9375,4.4375 4.9375,12.0625 0,7.609375 -4.9375,12.046875 -4.921875,4.453125 -13.375,4.453125 -3.953125,0 -7.890625,-0.875 -3.921875,-0.875 -8.015625,-2.734375 z"
           inkscape:connector-curvature="0"
           style="stroke-linecap:butt;stroke-linejoin:round" />
      </defs>
      <g
         id="g5007"
         transform="matrix(0.1,0,0,-0.1,359.7973,534.28724)"
         style="stroke-linecap:butt;stroke-linejoin:round">
        <use
           id="use5001"
           xlink:href="#DejaVuSans-35"
           style="stroke-linecap:butt;stroke-linejoin:round"
           x="0"
           y="0"
           width="100%"
           height="100%" />
        <use
           id="use5003"
           xlink:href="#DejaVuSans-30"
           x="63.623047"
           style="stroke-linecap:butt;stroke-linejoin:round"
           y="0"
           width="100%"
           height="100%" />
        <use
           id="use5005"
           xlink:href="#DejaVuSans-30"
           x="127.24609"
           style="stroke-linecap:butt;stroke-linejoin:round"
           y="0"
           width="100%"
           height="100%" />
      </g>
    </g>
    <g
       id="text_7"
       style="stroke-linecap:butt;stroke-linejoin:round"
       transform="matrix(0.52916667,0,0,0.52916667,-73.909359,-54.000579)">
      <!-- 600 -->
      <defs
         id="defs5017">
        <path
           id="path5310"
           d="m 33.015625,40.375 q -6.640625,0 -10.53125,-4.546875 -3.875,-4.53125 -3.875,-12.4375 0,-7.859375 3.875,-12.4375 3.890625,-4.5625 10.53125,-4.5625 6.640625,0 10.515625,4.5625 3.875,4.578125 3.875,12.4375 0,7.90625 -3.875,12.4375 Q 39.65625,40.375 33.015625,40.375 Z M 52.59375,71.296875 V 62.3125 q -3.71875,1.75 -7.5,2.671875 -3.78125,0.9375 -7.5,0.9375 -9.765625,0 -14.921875,-6.59375 -5.140625,-6.59375 -5.875,-19.921875 2.875,4.25 7.21875,6.515625 4.359375,2.265625 9.578125,2.265625 10.984375,0 17.359375,-6.671875 6.375,-6.65625 6.375,-18.125 0,-11.234375 -6.640625,-18.03125 -6.640625,-6.78125 -17.671875,-6.78125 -12.65625,0 -19.34375,9.6875 -6.6875,9.703125 -6.6875,28.109375 0,17.28125 8.203125,27.5625 8.203125,10.28125 22.015625,10.28125 3.71875,0 7.5,-0.734375 3.78125,-0.734375 7.890625,-2.1875 z"
           inkscape:connector-curvature="0"
           style="stroke-linecap:butt;stroke-linejoin:round" />
      </defs>
      <g
         id="g5025"
         transform="matrix(0.1,0,0,-0.1,419.12151,534.28724)"
         style="stroke-linecap:butt;stroke-linejoin:round">
        <use
           id="use5019"
           xlink:href="#DejaVuSans-36"
           style="stroke-linecap:butt;stroke-linejoin:round"
           x="0"
           y="0"
           width="100%"
           height="100%" />
        <use
           id="use5021"
           xlink:href="#DejaVuSans-30"
           x="63.623047"
           style="stroke-linecap:butt;stroke-linejoin:round"
           y="0"
           width="100%"
           height="100%" />
        <use
           id="use5023"
           xlink:href="#DejaVuSans-30"
           x="127.24609"
           style="stroke-linecap:butt;stroke-linejoin:round"
           y="0"
           width="100%"
           height="100%" />
      </g>
    </g>
    <g
       id="text_8"
       style="stroke-linecap:butt;stroke-linejoin:round"
       transform="matrix(0.52916667,0,0,0.52916667,-84.384239,-54.000579)">
      <!-- 700 -->
      <defs
         id="defs5035">
        <path
           id="path5322"
           d="m 8.203125,72.90625 h 46.875 V 68.703125 L 28.609375,0 H 18.3125 L 43.21875,64.59375 H 8.203125 Z"
           inkscape:connector-curvature="0"
           style="stroke-linecap:butt;stroke-linejoin:round" />
      </defs>
      <g
         id="g5043"
         transform="matrix(0.1,0,0,-0.1,478.44572,534.28724)"
         style="stroke-linecap:butt;stroke-linejoin:round">
        <use
           id="use5037"
           xlink:href="#DejaVuSans-37"
           style="stroke-linecap:butt;stroke-linejoin:round"
           x="0"
           y="0"
           width="100%"
           height="100%" />
        <use
           id="use5039"
           xlink:href="#DejaVuSans-30"
           x="63.623047"
           style="stroke-linecap:butt;stroke-linejoin:round"
           y="0"
           width="100%"
           height="100%" />
        <use
           id="use5041"
           xlink:href="#DejaVuSans-30"
           x="127.24609"
           style="stroke-linecap:butt;stroke-linejoin:round"
           y="0"
           width="100%"
           height="100%" />
      </g>
    </g>
    <use
       id="use5051"
       y="519.68878"
       xlink:href="#m40a6d8bc65"
       x="72.720001"
       style="stroke:#000000;stroke-width:1.5;stroke-linecap:butt;stroke-linejoin:round;stroke-miterlimit:4;stroke-dasharray:none"
       width="100%"
       height="100%"
       transform="matrix(0.35277778,0,0,0.35277778,1.7054276,38.276809)" />
    <g
       id="text_9"
       style="stroke-linecap:butt;stroke-linejoin:round"
       transform="matrix(0.52916667,0,0,0.52916667,-10.912799,-53.418634)">
      <!-- 0 -->
      <g
         id="g5058"
         transform="matrix(0.1,0,0,-0.1,59.3575,523.48802)"
         style="stroke-linecap:butt;stroke-linejoin:round">
        <use
           id="use5056"
           xlink:href="#DejaVuSans-30"
           style="stroke-linecap:butt;stroke-linejoin:round"
           x="0"
           y="0"
           width="100%"
           height="100%" />
      </g>
    </g>
    <g
       id="text_10"
       style="stroke-linecap:butt;stroke-linejoin:round"
       transform="matrix(0.52916667,0,0,0.52916667,-10.904256,-43.516748)">
      <!-- 5 -->
      <g
         id="g5069"
         transform="matrix(0.1,0,0,-0.1,59.3575,467.28572)"
         style="stroke-linecap:butt;stroke-linejoin:round">
        <use
           id="use5067"
           xlink:href="#DejaVuSans-35"
           style="stroke-linecap:butt;stroke-linejoin:round"
           x="0"
           y="0"
           width="100%"
           height="100%" />
      </g>
    </g>
    <g
       id="text_11"
       style="stroke-linecap:butt;stroke-linejoin:round"
       transform="matrix(0.52916667,0,0,0.52916667,-10.390368,-33.591711)">
      <!-- 10 -->
      <g
         id="g5082"
         transform="matrix(0.1,0,0,-0.1,52.995,411.08342)"
         style="stroke-linecap:butt;stroke-linejoin:round">
        <use
           id="use5078"
           xlink:href="#DejaVuSans-31"
           style="stroke-linecap:butt;stroke-linejoin:round"
           x="0"
           y="0"
           width="100%"
           height="100%" />
        <use
           id="use5080"
           xlink:href="#DejaVuSans-30"
           x="63.623047"
           style="stroke-linecap:butt;stroke-linejoin:round"
           y="0"
           width="100%"
           height="100%" />
      </g>
    </g>
    <g
       id="text_12"
       style="stroke-linecap:butt;stroke-linejoin:round"
       transform="matrix(0.52916667,0,0,0.52916667,-10.371902,-23.689825)">
      <!-- 15 -->
      <g
         id="g5095"
         transform="matrix(0.1,0,0,-0.1,52.995,354.88112)"
         style="stroke-linecap:butt;stroke-linejoin:round">
        <use
           id="use5091"
           xlink:href="#DejaVuSans-31"
           style="stroke-linecap:butt;stroke-linejoin:round"
           x="0"
           y="0"
           width="100%"
           height="100%" />
        <use
           id="use5093"
           xlink:href="#DejaVuSans-35"
           x="63.623047"
           style="stroke-linecap:butt;stroke-linejoin:round"
           y="0"
           width="100%"
           height="100%" />
      </g>
    </g>
    <g
       id="text_13"
       style="stroke-linecap:butt;stroke-linejoin:round"
       transform="matrix(0.52916667,0,0,0.52916667,-10.358122,-13.764789)">
      <!-- 20 -->
      <g
         id="g5108"
         transform="matrix(0.1,0,0,-0.1,52.995,298.67882)"
         style="stroke-linecap:butt;stroke-linejoin:round">
        <use
           id="use5104"
           xlink:href="#DejaVuSans-32"
           style="stroke-linecap:butt;stroke-linejoin:round"
           x="0"
           y="0"
           width="100%"
           height="100%" />
        <use
           id="use5106"
           xlink:href="#DejaVuSans-30"
           x="63.623047"
           style="stroke-linecap:butt;stroke-linejoin:round"
           y="0"
           width="100%"
           height="100%" />
      </g>
    </g>
    <g
       id="text_14"
       style="stroke-linecap:butt;stroke-linejoin:round"
       transform="matrix(0.52916667,0,0,0.52916667,-10.339656,-3.8513272)">
      <!-- 25 -->
      <g
         id="g5121"
         transform="matrix(0.1,0,0,-0.1,52.995,242.47652)"
         style="stroke-linecap:butt;stroke-linejoin:round">
        <use
           id="use5117"
           xlink:href="#DejaVuSans-32"
           style="stroke-linecap:butt;stroke-linejoin:round"
           x="0"
           y="0"
           width="100%"
           height="100%" />
        <use
           id="use5119"
           xlink:href="#DejaVuSans-35"
           x="63.623047"
           style="stroke-linecap:butt;stroke-linejoin:round"
           y="0"
           width="100%"
           height="100%" />
      </g>
    </g>
    <g
       id="text_15"
       style="stroke-linecap:butt;stroke-linejoin:round"
       transform="matrix(0.52916667,0,0,0.52916667,-10.36074,6.0621341)">
      <!-- 30 -->
      <g
         id="g5134"
         transform="matrix(0.1,0,0,-0.1,52.995,186.27422)"
         style="stroke-linecap:butt;stroke-linejoin:round">
        <use
           id="use5130"
           xlink:href="#DejaVuSans-33"
           style="stroke-linecap:butt;stroke-linejoin:round"
           x="0"
           y="0"
           width="100%"
           height="100%" />
        <use
           id="use5132"
           xlink:href="#DejaVuSans-30"
           x="63.623047"
           style="stroke-linecap:butt;stroke-linejoin:round"
           y="0"
           width="100%"
           height="100%" />
      </g>
    </g>
    <g
       id="LineCollection_1"
       style="stroke-linecap:butt;stroke-linejoin:round"
       transform="matrix(0.35277778,0,0,0.35277778,1.7054276,38.276809)">
      <path
         id="path5165"
         style="fill:none;stroke:#1f77b4;stroke-width:1.5;stroke-linecap:butt;stroke-linejoin:round"
         d="m 470.6668,212.93665 v 0"
         clip-path="url(#p6954e30222)"
         inkscape:connector-curvature="0" />
      <path
         id="path5167"
         style="fill:none;stroke:#1f77b4;stroke-width:1.5;stroke-linecap:butt;stroke-linejoin:round"
         d="m 422.49554,335.34526 v 0"
         clip-path="url(#p6954e30222)"
         inkscape:connector-curvature="0" />
      <path
         id="path5169"
         style="fill:none;stroke:#1f77b4;stroke-width:1.5;stroke-linecap:butt;stroke-linejoin:round"
         d="m 144.83451,501.70406 v 0"
         clip-path="url(#p6954e30222)"
         inkscape:connector-curvature="0" />
      <path
         id="path5171"
         style="fill:none;stroke:#1f77b4;stroke-width:1.5;stroke-linecap:butt;stroke-linejoin:round"
         d="m 133.56291,456.96703 v 0"
         clip-path="url(#p6954e30222)"
         inkscape:connector-curvature="0" />
    </g>
    <g
       id="line2d_18"
       style="stroke-linecap:butt;stroke-linejoin:round"
       transform="matrix(0.35277778,0,0,0.35277778,1.7054276,38.276809)">
      <path
         id="path5174"
         style="fill:none;stroke:#ff7f0e;stroke-width:1.5;stroke-linecap:butt;stroke-linejoin:round;stroke-dasharray:5.55, 2.4;stroke-dashoffset:0"
         d="m 78.652421,519.68725 5.932421,-0.0109 5.932421,-0.0295 5.932421,-0.0575 5.932416,-0.0948 5.93243,-0.14137 5.93242,-0.1973 5.93242,-0.26255 5.93242,-0.33711 5.93242,-0.42101 5.93242,-0.51422 5.93242,-0.61675 5.93242,-0.72861 5.93242,-0.84978 5.93243,-0.98027 5.93242,-1.1201 5.93242,-1.26923 5.93242,-1.4277 5.93242,-1.59547 5.93242,-1.77258 5.93242,-1.959 5.93242,-2.15475 5.93242,-2.35981 5.93242,-2.5742 5.93243,-2.79791 5.93242,-3.03094 5.93242,-3.27329 5.93242,-3.52496 5.93242,-3.78595 5.93242,-4.05627 5.93242,-4.3359 5.93242,-4.62486 5.93242,-4.92314 5.93243,-5.23073 5.93242,-5.54766 5.93242,-5.8739 5.93242,-6.20946 5.93242,-6.55434 5.93242,-6.90855 5.93242,-7.27208 5.93242,-7.64492 5.93242,-8.02709 5.93242,-8.41858 5.93243,-8.81939 5.93242,-9.22952 5.93242,-9.64898 5.93242,-10.07775 5.93242,-10.51585 5.93242,-10.96326 5.93242,-11.42 5.93242,-11.88606 5.93242,-12.36144 5.93243,-12.84614 5.93242,-13.34017 5.93242,-13.8435 5.93242,-14.35618 5.93242,-14.87816 5.93242,-15.40946 5.93242,-15.9501 5.93242,-16.50004"
         clip-path="url(#p6954e30222)"
         inkscape:connector-curvature="0"
         sodipodi:nodetypes="cccccccccccccccccccccccccccccccccccccccccccccccccccccccccccc" />
    </g>
    <use
       id="use5180"
       y="212.93665"
       xlink:href="#m9a98f05d98"
       x="470.66681"
       style="fill:#97caed;fill-opacity:1;stroke:#1f77b4;stroke-width:1.00017858;stroke-linecap:butt;stroke-linejoin:round;stroke-miterlimit:4;stroke-dasharray:none"
       width="100%"
       height="100%"
       transform="matrix(0.49388889,0,0,0.49388889,-64.710889,8.2290855)" />
    <use
       id="use5182"
       y="335.34525"
       xlink:href="#m9a98f05d98"
       x="422.49554"
       style="fill:#97caed;fill-opacity:1;stroke:#1f77b4;stroke-width:1.00017858;stroke-linecap:butt;stroke-linejoin:round;stroke-miterlimit:4;stroke-dasharray:none"
       width="100%"
       height="100%"
       transform="matrix(0.49388889,0,0,0.49388889,-57.913388,-9.0441281)" />
    <use
       id="use5184"
       y="501.70407"
       xlink:href="#m9a98f05d98"
       x="144.8345"
       style="fill:#97caed;fill-opacity:1;stroke:#1f77b4;stroke-width:1.00017858;stroke-linecap:butt;stroke-linejoin:round;stroke-miterlimit:4;stroke-dasharray:none"
       width="100%"
       height="100%"
       transform="matrix(0.49388889,0,0,0.49388889,-18.73233,-32.519207)" />
    <use
       id="use5186"
       y="456.96704"
       xlink:href="#m9a98f05d98"
       x="133.56291"
       style="fill:#97caed;fill-opacity:1;stroke:#1f77b4;stroke-width:1.00017858;stroke-linecap:butt;stroke-linejoin:round;stroke-miterlimit:4;stroke-dasharray:none"
       width="100%"
       height="100%"
       transform="matrix(0.49388889,0,0,0.49388889,-17.141783,-26.206315)" />
    <path
       inkscape:connector-curvature="0"
       d="M 27.359428,221.61147 V 102.63014"
       style="fill:none;stroke:#000000;stroke-width:0.5291667;stroke-linecap:square;stroke-linejoin:miter;stroke-miterlimit:4;stroke-dasharray:none"
       id="path5191"
       sodipodi:nodetypes="cc" />
    <path
       inkscape:connector-curvature="0"
       d="M 186.41423,221.61147 V 102.63014"
       style="fill:none;stroke:#000000;stroke-width:0.5291667;stroke-linecap:square;stroke-linejoin:miter;stroke-miterlimit:4;stroke-dasharray:none"
       id="path5194"
       sodipodi:nodetypes="cc" />
    <path
       inkscape:connector-curvature="0"
       d="M 27.359428,221.61147 H 186.41423"
       style="fill:none;stroke:#000000;stroke-width:0.5291667;stroke-linecap:square;stroke-linejoin:miter;stroke-miterlimit:4;stroke-dasharray:none"
       id="path5197" />
    <path
       inkscape:connector-curvature="0"
       d="M 27.359428,102.63014 H 186.41423"
       style="fill:none;stroke:#000000;stroke-width:0.5291667;stroke-linecap:square;stroke-linejoin:miter;stroke-miterlimit:4;stroke-dasharray:none"
       id="path5200" />
    <path
       style="fill:none;stroke:#000000;stroke-width:0.5291667;stroke-linecap:butt;stroke-linejoin:miter;stroke-miterlimit:4;stroke-dasharray:none;stroke-opacity:1"
       d="m 26.262572,102.63826 h 3.461139"
       id="path6191"
       inkscape:connector-curvature="0" />
    <path
       style="fill:none;stroke:#000000;stroke-width:0.52916676;stroke-linecap:butt;stroke-linejoin:miter;stroke-miterlimit:4;stroke-dasharray:none;stroke-opacity:1"
       d="m 26.262573,122.45564 h 3.461139"
       id="path6191-3"
       inkscape:connector-curvature="0" />
    <path
       style="fill:none;stroke:#000000;stroke-width:0.52916676;stroke-linecap:butt;stroke-linejoin:miter;stroke-miterlimit:4;stroke-dasharray:none;stroke-opacity:1"
       d="m 26.262573,142.3009 h 3.461139"
       id="path6191-6"
       inkscape:connector-curvature="0" />
    <path
       style="fill:none;stroke:#000000;stroke-width:0.52916682;stroke-linecap:butt;stroke-linejoin:miter;stroke-miterlimit:4;stroke-dasharray:none;stroke-opacity:1"
       d="m 26.262574,162.11828 h 3.461139"
       id="path6191-3-7"
       inkscape:connector-curvature="0" />
    <path
       style="fill:none;stroke:#000000;stroke-width:0.52916682;stroke-linecap:butt;stroke-linejoin:miter;stroke-miterlimit:4;stroke-dasharray:none;stroke-opacity:1"
       d="m 26.262573,181.93265 h 3.461139"
       id="path6191-6-5"
       inkscape:connector-curvature="0" />
    <path
       style="fill:none;stroke:#000000;stroke-width:0.52916682;stroke-linecap:butt;stroke-linejoin:miter;stroke-miterlimit:4;stroke-dasharray:none;stroke-opacity:1"
       d="m 26.262574,201.75003 h 3.461139"
       id="path6191-3-7-3"
       inkscape:connector-curvature="0" />
    <path
       style="fill:none;stroke:#000000;stroke-width:0.52916682;stroke-linecap:butt;stroke-linejoin:miter;stroke-miterlimit:4;stroke-dasharray:none;stroke-opacity:1"
       d="m 48.28057,219.64479 v 3.46114"
       id="path6191-3-7-5"
       inkscape:connector-curvature="0" />
    <path
       style="fill:none;stroke:#000000;stroke-width:0.52916682;stroke-linecap:butt;stroke-linejoin:miter;stroke-miterlimit:4;stroke-dasharray:none;stroke-opacity:1"
       d="m 69.182652,219.64479 v 3.46114"
       id="path6191-3-7-5-6"
       inkscape:connector-curvature="0" />
    <path
       style="fill:none;stroke:#000000;stroke-width:0.52916682;stroke-linecap:butt;stroke-linejoin:miter;stroke-miterlimit:4;stroke-dasharray:none;stroke-opacity:1"
       d="m 90.141659,219.64479 v 3.46114"
       id="path6191-3-7-5-2"
       inkscape:connector-curvature="0" />
    <path
       style="fill:none;stroke:#000000;stroke-width:0.52916682;stroke-linecap:butt;stroke-linejoin:miter;stroke-miterlimit:4;stroke-dasharray:none;stroke-opacity:1"
       d="m 111.04374,219.64479 v 3.46114"
       id="path6191-3-7-5-6-9"
       inkscape:connector-curvature="0" />
    <path
       style="color:#000000;font-style:normal;font-variant:normal;font-weight:normal;font-stretch:normal;font-size:medium;line-height:normal;font-family:sans-serif;font-variant-ligatures:normal;font-variant-position:normal;font-variant-caps:normal;font-variant-numeric:normal;font-variant-alternates:normal;font-feature-settings:normal;text-indent:0;text-align:start;text-decoration:none;text-decoration-line:none;text-decoration-style:solid;text-decoration-color:#000000;letter-spacing:normal;word-spacing:normal;text-transform:none;writing-mode:lr-tb;direction:ltr;text-orientation:mixed;dominant-baseline:auto;baseline-shift:baseline;text-anchor:start;white-space:normal;shape-padding:0;clip-rule:nonzero;display:inline;overflow:visible;visibility:visible;opacity:1;isolation:auto;mix-blend-mode:normal;color-interpolation:sRGB;color-interpolation-filters:linearRGB;solid-color:#000000;solid-opacity:1;vector-effect:none;fill:#000000;fill-opacity:1;fill-rule:nonzero;stroke:none;stroke-width:0.52916682;stroke-linecap:butt;stroke-linejoin:miter;stroke-miterlimit:4;stroke-dasharray:none;stroke-dashoffset:0;stroke-opacity:1;color-rendering:auto;image-rendering:auto;shape-rendering:auto;text-rendering:auto;enable-background:accumulate"
       d="m 131.7378,219.64427 v 3.46094 h 0.5293 v -3.46094 z"
       id="path6191-3-7-5-1"
       inkscape:connector-curvature="0" />
    <path
       style="color:#000000;font-style:normal;font-variant:normal;font-weight:normal;font-stretch:normal;font-size:medium;line-height:normal;font-family:sans-serif;font-variant-ligatures:normal;font-variant-position:normal;font-variant-caps:normal;font-variant-numeric:normal;font-variant-alternates:normal;font-feature-settings:normal;text-indent:0;text-align:start;text-decoration:none;text-decoration-line:none;text-decoration-style:solid;text-decoration-color:#000000;letter-spacing:normal;word-spacing:normal;text-transform:none;writing-mode:lr-tb;direction:ltr;text-orientation:mixed;dominant-baseline:auto;baseline-shift:baseline;text-anchor:start;white-space:normal;shape-padding:0;clip-rule:nonzero;display:inline;overflow:visible;visibility:visible;opacity:1;isolation:auto;mix-blend-mode:normal;color-interpolation:sRGB;color-interpolation-filters:linearRGB;solid-color:#000000;solid-opacity:1;vector-effect:none;fill:#000000;fill-opacity:1;fill-rule:nonzero;stroke:none;stroke-width:0.52916682;stroke-linecap:butt;stroke-linejoin:miter;stroke-miterlimit:4;stroke-dasharray:none;stroke-dashoffset:0;stroke-opacity:1;color-rendering:auto;image-rendering:auto;shape-rendering:auto;text-rendering:auto;enable-background:accumulate"
       d="m 152.64015,219.64427 v 3.46094 h 0.5293 v -3.46094 z"
       id="path6191-3-7-5-6-2"
       inkscape:connector-curvature="0" />
    <path
       style="color:#000000;font-style:normal;font-variant:normal;font-weight:normal;font-stretch:normal;font-size:medium;line-height:normal;font-family:sans-serif;font-variant-ligatures:normal;font-variant-position:normal;font-variant-caps:normal;font-variant-numeric:normal;font-variant-alternates:normal;font-feature-settings:normal;text-indent:0;text-align:start;text-decoration:none;text-decoration-line:none;text-decoration-style:solid;text-decoration-color:#000000;letter-spacing:normal;word-spacing:normal;text-transform:none;writing-mode:lr-tb;direction:ltr;text-orientation:mixed;dominant-baseline:auto;baseline-shift:baseline;text-anchor:start;white-space:normal;shape-padding:0;clip-rule:nonzero;display:inline;overflow:visible;visibility:visible;opacity:1;isolation:auto;mix-blend-mode:normal;color-interpolation:sRGB;color-interpolation-filters:linearRGB;solid-color:#000000;solid-opacity:1;vector-effect:none;fill:#000000;fill-opacity:1;fill-rule:nonzero;stroke:none;stroke-width:0.52916682;stroke-linecap:butt;stroke-linejoin:miter;stroke-miterlimit:4;stroke-dasharray:none;stroke-dashoffset:0;stroke-opacity:1;color-rendering:auto;image-rendering:auto;shape-rendering:auto;text-rendering:auto;enable-background:accumulate"
       d="m 173.59913,219.64427 v 3.46094 h 0.5293 v -3.46094 z"
       id="path6191-3-7-5-2-7"
       inkscape:connector-curvature="0" />
    <g
       id="g6488"
       transform="matrix(0.5,0,0,0.5,37.457825,187.50267)"
       style="stroke-linecap:butt;stroke-linejoin:round">
      <g
         id="content"
         transform="matrix(0.3,0,0,-0.3,-52.5,222.75)"
         xml:space="preserve"
         stroke-miterlimit="10.433"
         font-style="normal"
         font-variant="normal"
         font-weight="normal"
         font-stretch="normal"
         font-size-adjust="none"
         letter-spacing="normal"
         word-spacing="normal"
         style="font-style:normal;font-variant:normal;font-weight:normal;font-stretch:normal;letter-spacing:normal;word-spacing:normal;text-anchor:start;fill:none;fill-opacity:1;fill-rule:evenodd;stroke:#000000;stroke-linecap:butt;stroke-linejoin:round;stroke-miterlimit:10.43299961;stroke-dasharray:none;stroke-dashoffset:0;stroke-opacity:1"><path
           d="m 500.8,435.34 0.09,0.26 0.09,0.25 0.11,0.23 0.11,0.22 0.11,0.21 0.12,0.19 0.13,0.19 0.13,0.17 0.14,0.16 0.14,0.16 0.14,0.14 0.16,0.13 0.15,0.12 0.16,0.11 0.16,0.1 0.17,0.1 0.16,0.08 0.18,0.08 0.17,0.07 0.18,0.07 0.17,0.05 0.18,0.05 0.18,0.04 0.19,0.04 0.18,0.03 0.18,0.03 0.19,0.02 0.18,0.02 0.37,0.02 h 0.37 v 1.55 c -1.49,-0.11 -3.04,-0.16 -4.54,-0.16 -1.43,0 -4.62,0.11 -5.92,0.16 v -1.55 c 3.33,-0.04 4.33,-1.68 4.33,-2.64 0,-0.29 -0.14,-0.7 -0.25,-1 l -7.47,-23.01 -7.97,24.4 c -0.06,0.21 -0.15,0.5 -0.15,0.75 0,1.5 2.89,1.5 4.18,1.5 v 1.55 c -1.79,-0.16 -5.18,-0.16 -7.07,-0.16 -1.89,0 -4.04,0.11 -6.08,0.16 v -1.55 c 2.84,0 3.89,0 4.48,-1.79 l 1.1,-3.49 -6.93,-21.37 -8.01,24.51 c -0.05,0.14 -0.11,0.5 -0.11,0.64 0,1.5 2.89,1.5 4.19,1.5 v 1.55 c -1.8,-0.16 -5.18,-0.16 -7.08,-0.16 -1.89,0 -4.03,0.11 -6.08,0.16 v -1.55 c 3.75,0 3.94,-0.25 4.55,-2.09 l 9.95,-30.55 c 0.16,-0.43 0.3,-0.93 0.95,-0.93 0.69,0 0.8,0.34 1,1 l 8.22,25.29 8.27,-25.36 c 0.15,-0.43 0.29,-0.93 0.95,-0.93 0.69,0 0.8,0.34 0.99,1 z"
           id="path6459"
           inkscape:connector-curvature="0"
           style="fill:#000000;stroke-width:0;stroke-linecap:butt;stroke-linejoin:round" /><path
           d="m 519.15,409.98 0.02,-0.19 0.03,-0.18 0.04,-0.19 0.04,-0.18 0.05,-0.19 0.06,-0.18 0.06,-0.18 0.07,-0.18 0.07,-0.18 0.08,-0.17 0.09,-0.18 0.09,-0.16 0.1,-0.16 0.11,-0.16 0.12,-0.16 0.11,-0.14 0.13,-0.14 0.13,-0.14 0.14,-0.13 0.15,-0.12 0.15,-0.12 0.15,-0.1 0.17,-0.1 0.16,-0.09 0.18,-0.08 0.18,-0.07 0.19,-0.06 0.19,-0.05 0.2,-0.04 0.21,-0.03 0.21,-0.02 0.21,-0.01 c 1.03,0 4.08,0.71 4.08,4.74 v 2.78 h -1.25 v -2.78 c 0,-2.89 -1.23,-3.19 -1.8,-3.19 -1.64,0 -1.84,2.23 -1.84,2.48 v 9.97 c 0,2.1 0,4.03 -1.78,5.88 -1.95,1.93 -4.44,2.73 -6.83,2.73 -4.09,0 -7.53,-2.33 -7.53,-5.62 0,-1.49 1,-2.35 2.3,-2.35 1.39,0 2.29,1 2.29,2.3 0,0.59 -0.25,2.23 -2.54,2.3 1.34,1.73 3.78,2.28 5.37,2.28 2.46,0 5.28,-1.94 5.28,-6.38 v -1.84 -1.05 -4.98 c 0,-4.74 -3.57,-6.42 -5.82,-6.42 -2.44,0 -4.49,1.75 -4.49,4.23 0,2.73 2.09,6.88 10.31,7.17 v 0 1.05 c -2.53,-0.14 -6.01,-0.3 -9.15,-1.8 -3.74,-1.69 -4.99,-4.28 -4.99,-6.47 0,-4.03 4.83,-5.28 7.97,-5.28 3.3,0 5.58,1.99 6.53,4.33 z"
           id="path6461"
           inkscape:connector-curvature="0"
           style="fill:#000000;stroke-width:0;stroke-linecap:butt;stroke-linejoin:round" /><path
           d="m 546.79,422.79 0.05,0.11 0.04,0.12 0.05,0.12 0.06,0.12 0.05,0.13 0.06,0.13 0.07,0.13 0.07,0.14 0.07,0.13 0.09,0.14 0.08,0.14 0.1,0.14 0.1,0.13 0.1,0.14 0.12,0.13 0.12,0.13 0.14,0.12 0.14,0.13 0.15,0.11 0.15,0.12 0.17,0.11 0.18,0.1 0.19,0.09 0.2,0.09 0.21,0.08 0.23,0.07 0.23,0.07 0.25,0.05 0.26,0.05 0.14,0.01 0.14,0.02 0.14,0.01 0.15,0.01 0.14,0.01 h 0.16 v 1.55 c -1.16,-0.1 -2.6,-0.14 -3.74,-0.14 -1.2,0 -3.5,0.09 -4.34,0.14 v -1.55 c 1.84,-0.05 2.39,-1.19 2.39,-2.14 0,-0.44 -0.1,-0.64 -0.3,-1.19 l -5.08,-12.7 -5.57,13.89 c -0.3,0.66 -0.3,0.75 -0.3,0.86 0,1.28 1.94,1.28 2.83,1.28 v 1.55 c -1.49,-0.05 -4.28,-0.14 -5.43,-0.14 -1.34,0 -3.34,0.04 -4.82,0.14 v -1.55 c 3.12,0 3.32,-0.3 3.98,-1.84 l 7.17,-17.67 c 0.3,-0.71 0.39,-0.96 1.05,-0.96 0.64,0 0.84,0.46 1.05,0.96 z"
           id="path6463"
           inkscape:connector-curvature="0"
           style="fill:#000000;stroke-width:0;stroke-linecap:butt;stroke-linejoin:round" /><path
           d="m 556.45,417.71 0.04,1.05 c 0.3,7.42 4.49,8.66 6.19,8.66 5.12,0 5.62,-6.72 5.62,-8.66 h -11.81 l -0.04,-1.05 h 13.9 c 1.1,0 1.24,0 1.24,1.05 0,4.92 -2.69,9.75 -8.91,9.75 -5.78,0 -10.38,-5.12 -10.38,-11.36 0,-6.67 5.24,-11.5 10.97,-11.5 6.08,0 8.32,5.53 8.32,6.47 0,0.5 -0.39,0.61 -0.64,0.61 -0.46,0 -0.55,-0.3 -0.66,-0.7 -1.74,-5.13 -6.22,-5.13 -6.72,-5.13 -2.5,0 -4.48,1.49 -5.62,3.33 -1.5,2.39 -1.5,5.69 -1.5,7.48 z"
           id="path6465"
           inkscape:connector-curvature="0"
           style="fill:#000000;stroke-width:0;stroke-linecap:butt;stroke-linejoin:round" /><path
           d="m 581.8,440.78 -7.17,-0.55 v -1.55 c 3.49,0 3.89,-0.34 3.89,-2.79 v -25.91 c 0,-2.23 -0.54,-2.23 -3.89,-2.23 v -1.55 c 1.64,0.05 4.28,0.16 5.53,0.16 1.25,0 3.69,-0.11 5.54,-0.16 v 1.55 c -3.35,0 -3.9,0 -3.9,2.23 z"
           id="path6467"
           inkscape:connector-curvature="0"
           style="fill:#000000;stroke-width:0;stroke-linecap:butt;stroke-linejoin:round" /><path
           d="m 592.32,417.71 0.05,1.05 c 0.29,7.42 4.48,8.66 6.18,8.66 5.13,0 5.63,-6.72 5.63,-8.66 h -11.81 l -0.05,-1.05 h 13.91 c 1.09,0 1.23,0 1.23,1.05 0,4.92 -2.69,9.75 -8.91,9.75 -5.78,0 -10.37,-5.12 -10.37,-11.36 0,-6.67 5.23,-11.5 10.97,-11.5 6.08,0 8.31,5.53 8.31,6.47 0,0.5 -0.39,0.61 -0.64,0.61 -0.45,0 -0.55,-0.3 -0.66,-0.7 -1.73,-5.13 -6.21,-5.13 -6.71,-5.13 -2.5,0 -4.49,1.49 -5.63,3.33 -1.5,2.39 -1.5,5.69 -1.5,7.48 z"
           id="path6469"
           inkscape:connector-curvature="0"
           style="fill:#000000;stroke-width:0;stroke-linecap:butt;stroke-linejoin:round" /><path
           d="m 614.35,423.34 v -13.36 c 0,-2.23 -0.55,-2.23 -3.89,-2.23 v -1.55 c 1.75,0.05 4.28,0.16 5.63,0.16 1.29,0 3.89,-0.11 5.57,-0.16 v 1.55 c -3.32,0 -3.87,0 -3.87,2.23 v 9.17 c 0,5.19 3.53,7.97 6.72,7.97 3.14,0 3.69,-2.69 3.69,-5.53 v -11.61 c 0,-2.23 -0.55,-2.23 -3.9,-2.23 v -1.55 c 1.75,0.05 4.3,0.16 5.65,0.16 1.29,0 3.87,-0.11 5.57,-0.16 v 1.55 c -2.59,0 -3.84,0 -3.89,1.5 v 9.51 c 0,4.28 0,5.83 -1.54,7.61 -0.69,0.86 -2.35,1.84 -5.22,1.84 -3.64,0 -5.99,-2.14 -7.38,-5.21 v 5.21 l -7.03,-0.54 v -1.55 c 3.49,0 3.89,-0.34 3.89,-2.78 z"
           id="path6471"
           inkscape:connector-curvature="0"
           style="fill:#000000;stroke-width:0;stroke-linecap:butt;stroke-linejoin:round" /><path
           d="m 641.87,412.82 v 0.03 0.02 0.03 0.04 0.04 0.05 l 0.01,0.05 v 0.06 l 0.01,0.05 v 0.07 l 0.01,0.06 0.01,0.07 0.01,0.07 0.02,0.08 0.01,0.08 0.02,0.08 0.02,0.08 0.03,0.08 0.02,0.09 0.03,0.09 0.04,0.09 0.03,0.09 0.04,0.09 0.04,0.1 0.05,0.09 0.05,0.1 0.05,0.09 0.06,0.1 0.07,0.09 0.06,0.1 0.07,0.09 0.08,0.1 c 1.95,-1.39 3.99,-1.55 4.94,-1.55 v 1.14 c -4.35,0 -4.35,4.99 -4.35,6.14 0,1.35 0.07,2.94 0.8,4.17 0.41,0.61 1.55,2 3.55,2 4.33,0 4.33,-4.98 4.33,-6.12 0,-1.34 -0.05,-2.94 -0.8,-4.19 -0.39,-0.59 -1.55,-2 -3.53,-2 v 0 -1.14 c 4.62,0 8.06,3.44 8.06,7.28 0,1.85 -0.8,3.69 -2.03,4.83 1.78,1.69 3.58,1.94 4.48,1.94 0.1,0 0.35,0 0.5,-0.05 -0.56,-0.2 -0.79,-0.75 -0.79,-1.34 0,-0.85 0.64,-1.44 1.43,-1.44 0.5,0 1.44,0.34 1.44,1.48 0,0.85 -0.59,2.44 -2.53,2.44 -1,0 -3.19,-0.3 -5.28,-2.33 -2.09,1.64 -4.19,1.78 -5.28,1.78 -4.64,0 -8.08,-3.43 -8.08,-7.26 0,-2.19 1.09,-4.09 2.34,-5.14 -0.64,-0.74 -1.54,-2.39 -1.54,-4.13 0,-1.54 0.65,-3.43 2.2,-4.43 -3,-0.85 -4.59,-2.99 -4.59,-4.99 0,-3.58 4.93,-6.33 11.01,-6.33 l 0.05,1.14 c -5.03,0 -8.47,2.55 -8.47,5.19 0,2.3 1.89,4.14 4.09,4.28 h 2.94 c 4.28,0 9.86,0 9.86,-4.28 0,-2.69 -3.53,-5.19 -8.42,-5.19 v 0 l -0.05,-1.14 c 5.88,0 11.06,2.55 11.06,6.43 0,1.75 -0.7,4.29 -3.23,5.68 -2.64,1.39 -5.53,1.39 -8.58,1.39 -1.25,0 -3.39,0 -3.73,0.05 -1.6,0.2 -2.64,1.75 -2.64,3.34 z"
           id="path6473"
           inkscape:connector-curvature="0"
           style="fill:#000000;stroke-width:0;stroke-linecap:butt;stroke-linejoin:round" /><path
           d="m 670.17,426.12 h 7.12 v 1.55 h -7.12 v 9.17 h -1.25 c -0.05,-4.08 -1.55,-9.42 -6.42,-9.61 v -1.11 h 4.23 v -13.75 c 0,-6.12 4.62,-6.72 6.42,-6.72 3.53,0 4.94,3.53 4.94,6.72 v 2.84 h -1.25 v -2.73 c 0,-3.69 -1.5,-5.58 -3.34,-5.58 -3.33,0 -3.33,4.53 -3.33,5.38 z"
           id="path6475"
           inkscape:connector-curvature="0"
           style="fill:#000000;stroke-width:0;stroke-linecap:butt;stroke-linejoin:round" /><path
           d="m 686.34,409.98 v -0.1 -0.1 -0.19 l -0.01,-0.18 -0.02,-0.17 -0.01,-0.15 -0.03,-0.15 -0.03,-0.13 -0.03,-0.12 -0.05,-0.11 -0.04,-0.11 -0.06,-0.09 -0.07,-0.09 -0.07,-0.08 -0.08,-0.07 -0.09,-0.06 -0.1,-0.05 -0.11,-0.05 -0.12,-0.05 -0.13,-0.03 -0.14,-0.04 -0.15,-0.02 -0.16,-0.03 -0.18,-0.01 -0.09,-0.01 -0.1,-0.01 -0.1,-0.01 h -0.1 l -0.11,-0.01 h -0.11 -0.11 l -0.12,-0.01 h -0.12 -0.12 -0.13 -0.13 -0.13 -0.14 -0.14 -0.15 -0.15 -0.16 v -1.55 c 1.75,0.05 4.28,0.16 5.63,0.16 1.3,0 3.89,-0.11 5.58,-0.16 v 1.55 c -3.33,0 -3.88,0 -3.88,2.23 v 9.17 c 0,5.19 3.53,7.97 6.72,7.97 3.14,0 3.69,-2.69 3.69,-5.53 v -11.61 c 0,-2.23 -0.55,-2.23 -3.89,-2.23 v -1.55 c 1.75,0.05 4.29,0.16 5.64,0.16 1.29,0 3.87,-0.11 5.58,-0.16 v 1.55 c -2.6,0 -3.85,0 -3.9,1.5 v 9.51 c 0,4.28 0,5.83 -1.54,7.61 -0.69,0.86 -2.35,1.84 -5.22,1.84 -4.19,0 -6.39,-2.98 -7.24,-4.87 v 17.44 l -7.17,-0.55 v -1.55 c 3.49,0 3.89,-0.34 3.89,-2.79 z"
           id="path6477"
           inkscape:connector-curvature="0"
           style="fill:#000000;stroke-width:0;stroke-linecap:butt;stroke-linejoin:round" /><path
           d="m 741.86,394.25 v 0.02 0.03 0.01 l -0.01,0.02 v 0.01 0.02 l -0.01,0.01 -0.01,0.02 -0.01,0.02 -0.01,0.02 -0.01,0.02 -0.01,0.03 -0.02,0.02 -0.02,0.03 -0.02,0.03 -0.02,0.03 -0.03,0.03 -0.03,0.04 -0.01,0.02 -0.02,0.02 -0.02,0.02 -0.01,0.02 -0.02,0.02 -0.02,0.03 -0.02,0.02 -0.03,0.02 -0.02,0.03 -0.02,0.02 -0.03,0.03 -0.02,0.03 -0.03,0.03 -0.03,0.03 -0.03,0.03 -0.03,0.03 -0.03,0.03 -0.03,0.03 -0.03,0.04 -0.04,0.03 -0.03,0.04 -0.04,0.03 -0.04,0.04 -0.03,0.04 c -6.22,6.28 -7.82,15.69 -7.82,23.31 0,8.67 1.89,17.35 8.02,23.56 0.64,0.61 0.64,0.71 0.64,0.86 0,0.35 -0.19,0.49 -0.48,0.49 -0.5,0 -4.99,-3.38 -7.93,-9.7 -2.54,-5.49 -3.14,-11.02 -3.14,-15.21 0,-3.89 0.55,-9.9 3.28,-15.54 2.99,-6.13 7.29,-9.36 7.79,-9.36 0.29,0 0.48,0.14 0.48,0.5 z"
           id="path6479"
           inkscape:connector-curvature="0"
           style="fill:#000000;stroke-width:0;stroke-linecap:butt;stroke-linejoin:round" /><path
           d="m 750.18,423.34 v -13.36 c 0,-2.23 -0.55,-2.23 -3.9,-2.23 v -1.55 c 1.75,0.05 4.29,0.16 5.63,0.16 1.3,0 3.89,-0.11 5.58,-0.16 v 1.55 c -3.33,0 -3.88,0 -3.88,2.23 v 9.17 c 0,5.19 3.54,7.97 6.72,7.97 3.14,0 3.69,-2.69 3.69,-5.53 v -11.61 c 0,-2.23 -0.55,-2.23 -3.89,-2.23 v -1.55 c 1.75,0.05 4.3,0.16 5.64,0.16 1.3,0 3.88,-0.11 5.58,-0.16 v 1.55 c -2.6,0 -3.85,0 -3.89,1.5 v 9.51 c 0,4.28 0,5.83 -1.55,7.61 -0.69,0.86 -2.34,1.84 -5.22,1.84 -3.64,0 -5.98,-2.14 -7.37,-5.21 v 5.21 l -7.04,-0.54 v -1.55 c 3.49,0 3.9,-0.34 3.9,-2.78 z"
           id="path6481"
           inkscape:connector-curvature="0"
           style="fill:#000000;stroke-width:0;stroke-linecap:butt;stroke-linejoin:round" /><path
           d="m 777.9,423.34 v -13.36 c 0,-2.23 -0.55,-2.23 -3.9,-2.23 v -1.55 c 1.75,0.05 4.28,0.16 5.63,0.16 1.3,0 3.89,-0.11 5.58,-0.16 v 1.55 c -3.33,0 -3.88,0 -3.88,2.23 v 9.17 c 0,5.19 3.53,7.97 6.72,7.97 3.14,0 3.69,-2.69 3.69,-5.53 v -11.61 c 0,-2.23 -0.55,-2.23 -3.89,-2.23 v -1.55 c 1.75,0.05 4.3,0.16 5.64,0.16 1.29,0 3.87,-0.11 5.58,-0.16 v 1.55 c -3.35,0 -3.89,0 -3.89,2.23 v 9.17 c 0,5.19 3.54,7.97 6.73,7.97 3.14,0 3.69,-2.69 3.69,-5.53 v -11.61 c 0,-2.23 -0.55,-2.23 -3.89,-2.23 v -1.55 c 1.73,0.05 4.28,0.16 5.62,0.16 1.3,0 3.89,-0.11 5.58,-0.16 v 1.55 c -2.58,0 -3.83,0 -3.88,1.5 v 9.51 c 0,4.28 0,5.83 -1.54,7.61 -0.71,0.86 -2.34,1.84 -5.24,1.84 -4.18,0 -6.37,-2.98 -7.22,-4.87 -0.7,4.33 -4.38,4.87 -6.62,4.87 -3.64,0 -5.98,-2.14 -7.38,-5.21 v 5.21 L 774,427.67 v -1.55 c 3.49,0 3.9,-0.34 3.9,-2.78 z"
           id="path6483"
           inkscape:connector-curvature="0"
           style="fill:#000000;stroke-width:0;stroke-linecap:butt;stroke-linejoin:round" /><path
           d="m 828.32,418.65 v 0.37 l -0.01,0.39 -0.01,0.39 -0.01,0.41 -0.04,0.84 -0.06,0.88 -0.08,0.92 -0.11,0.95 -0.13,0.97 -0.17,1.01 -0.19,1.02 -0.23,1.03 -0.27,1.05 -0.3,1.06 -0.35,1.07 -0.4,1.07 -0.21,0.53 -0.22,0.53 -0.24,0.53 -0.25,0.53 c -2.99,6.12 -7.27,9.36 -7.77,9.36 -0.29,0 -0.5,-0.19 -0.5,-0.49 0,-0.15 0,-0.25 0.94,-1.15 4.89,-4.92 7.74,-12.85 7.74,-23.27 0,-8.51 -1.85,-17.28 -8.04,-23.56 -0.64,-0.59 -0.64,-0.7 -0.64,-0.84 0,-0.3 0.21,-0.5 0.5,-0.5 0.5,0 4.97,3.39 7.93,9.71 2.53,5.47 3.12,11 3.12,15.19 z"
           id="path6485"
           inkscape:connector-curvature="0"
           style="fill:#000000;stroke-width:0;stroke-linecap:butt;stroke-linejoin:round" /></g>    </g>
    <g
       id="g6824"
       transform="matrix(0,-0.5,0.5,0,-39.051909,222.5659)"
       style="stroke-linecap:butt;stroke-linejoin:round">
      <g
         word-spacing="normal"
         letter-spacing="normal"
         font-size-adjust="none"
         font-stretch="normal"
         font-weight="normal"
         font-variant="normal"
         font-style="normal"
         stroke-miterlimit="10.433"
         xml:space="preserve"
         transform="matrix(0.3,0,0,-0.3,-52.5,222.75)"
         id="g6822"
         style="font-style:normal;font-variant:normal;font-weight:normal;font-stretch:normal;letter-spacing:normal;word-spacing:normal;text-anchor:start;fill:none;fill-opacity:1;fill-rule:evenodd;stroke:#000000;stroke-linecap:butt;stroke-linejoin:round;stroke-miterlimit:10.43299961;stroke-dasharray:none;stroke-dashoffset:0;stroke-opacity:1"><path
           id="path6794"
           d="m 484.52,419.06 h -1.25 c -0.55,-5.1 -1.25,-11.31 -10.02,-11.31 h -4.07 c -2.35,0 -2.46,0.34 -2.46,1.98 v 26.56 c 0,1.69 0,2.39 4.74,2.39 h 1.65 v 1.55 c -1.79,-0.16 -6.32,-0.16 -8.37,-0.16 -1.94,0 -5.83,0 -7.58,0.16 v -1.55 h 1.2 c 3.83,0 3.94,-0.54 3.94,-2.34 v -26.25 c 0,-1.8 -0.11,-2.34 -3.94,-2.34 h -1.2 v -1.55 h 25.95 z"
           inkscape:connector-curvature="0"
           style="fill:#000000;stroke-width:0;stroke-linecap:butt;stroke-linejoin:round" /><path
           id="path6796"
           d="m 495.41,428.21 -6.97,-0.54 v -1.55 c 3.24,0 3.69,-0.3 3.69,-2.73 v -13.41 c 0,-2.23 -0.55,-2.23 -3.89,-2.23 v -1.55 c 1.59,0.05 4.28,0.16 5.48,0.16 1.75,0 3.49,-0.11 5.19,-0.16 v 1.55 c -3.3,0 -3.5,0.25 -3.5,2.18 z"
           inkscape:connector-curvature="0"
           style="fill:#000000;stroke-width:0;stroke-linecap:butt;stroke-linejoin:round" /><path
           id="path6798"
           d="m 495.61,436.89 v 0.14 l -0.01,0.15 -0.02,0.14 -0.02,0.14 -0.03,0.13 -0.04,0.13 -0.04,0.13 -0.05,0.12 -0.06,0.12 -0.06,0.12 -0.07,0.11 -0.07,0.1 -0.07,0.1 -0.08,0.1 -0.09,0.1 -0.09,0.08 -0.09,0.09 -0.1,0.08 -0.1,0.07 -0.1,0.07 -0.11,0.07 -0.11,0.06 -0.11,0.05 -0.12,0.05 -0.12,0.04 -0.12,0.04 -0.12,0.03 -0.12,0.03 -0.13,0.02 -0.13,0.01 -0.13,0.01 -0.13,0.01 c -1.54,0 -2.64,-1.35 -2.64,-2.64 0,-1.35 1.1,-2.64 2.64,-2.64 1.39,0 2.64,1.04 2.64,2.64 z"
           inkscape:connector-curvature="0"
           style="fill:#000000;stroke-width:0;stroke-linecap:butt;stroke-linejoin:round" /><path
           id="path6800"
           d="m 509.11,427.67 v 5.78 c 0,4.39 2.39,6.78 4.58,6.78 0.16,0 0.91,0 1.66,-0.36 -0.61,-0.19 -1.5,-0.84 -1.5,-2.08 0,-1.15 0.8,-2.15 2.14,-2.15 1.44,0 2.19,1 2.19,2.2 0,1.84 -1.85,3.48 -4.49,3.48 -3.48,0 -7.72,-2.64 -7.72,-7.92 v -5.73 h -3.93 v -1.55 h 3.93 v -16.14 c 0,-2.23 -0.54,-2.23 -3.89,-2.23 v -1.55 c 1.96,0.05 4.3,0.16 5.69,0.16 1.98,0 4.33,0 6.33,-0.16 v 1.55 h -1.05 c -3.69,0 -3.78,0.54 -3.78,2.34 v 16.03 h 5.67 v 1.55 z"
           inkscape:connector-curvature="0"
           style="fill:#000000;stroke-width:0;stroke-linecap:butt;stroke-linejoin:round" /><path
           id="path6802"
           d="m 521.16,417.71 0.05,1.05 c 0.3,7.42 4.49,8.66 6.19,8.66 5.12,0 5.62,-6.72 5.62,-8.66 h -11.81 l -0.05,-1.05 h 13.91 c 1.09,0 1.23,0 1.23,1.05 0,4.92 -2.68,9.75 -8.9,9.75 -5.78,0 -10.38,-5.12 -10.38,-11.36 0,-6.67 5.24,-11.5 10.97,-11.5 6.08,0 8.31,5.53 8.31,6.47 0,0.5 -0.39,0.61 -0.64,0.61 -0.45,0 -0.54,-0.3 -0.65,-0.7 -1.74,-5.13 -6.22,-5.13 -6.72,-5.13 -2.5,0 -4.49,1.49 -5.63,3.33 -1.5,2.39 -1.5,5.69 -1.5,7.48 z"
           inkscape:connector-curvature="0"
           style="fill:#000000;stroke-width:0;stroke-linecap:butt;stroke-linejoin:round" /><path
           id="path6804"
           d="m 546.34,426.12 h 7.12 v 1.55 h -7.12 v 9.17 h -1.25 c -0.05,-4.08 -1.55,-9.42 -6.43,-9.61 v -1.11 h 4.24 v -13.75 c 0,-6.12 4.62,-6.72 6.42,-6.72 3.53,0 4.94,3.53 4.94,6.72 v 2.84 h -1.25 v -2.73 c 0,-3.69 -1.5,-5.58 -3.35,-5.58 -3.32,0 -3.32,4.53 -3.32,5.38 z"
           inkscape:connector-curvature="0"
           style="fill:#000000;stroke-width:0;stroke-linecap:butt;stroke-linejoin:round" /><path
           id="path6806"
           d="m 565.84,428.21 -6.97,-0.54 v -1.55 c 3.23,0 3.69,-0.3 3.69,-2.73 v -13.41 c 0,-2.23 -0.55,-2.23 -3.89,-2.23 v -1.55 c 1.59,0.05 4.28,0.16 5.48,0.16 1.75,0 3.49,-0.11 5.19,-0.16 v 1.55 c -3.3,0 -3.5,0.25 -3.5,2.18 z"
           inkscape:connector-curvature="0"
           style="fill:#000000;stroke-width:0;stroke-linecap:butt;stroke-linejoin:round" /><path
           id="path6808"
           d="m 566.04,436.89 v 0.14 l -0.01,0.15 -0.02,0.14 -0.02,0.14 -0.03,0.13 -0.04,0.13 -0.04,0.13 -0.05,0.12 -0.06,0.12 -0.06,0.12 -0.07,0.11 -0.07,0.1 -0.07,0.1 -0.08,0.1 -0.09,0.1 -0.09,0.08 -0.09,0.09 -0.1,0.08 -0.1,0.07 -0.1,0.07 -0.11,0.07 -0.11,0.06 -0.11,0.05 -0.12,0.05 -0.12,0.04 -0.12,0.04 -0.12,0.03 -0.13,0.03 -0.12,0.02 -0.13,0.01 -0.13,0.01 -0.13,0.01 c -1.55,0 -2.64,-1.35 -2.64,-2.64 0,-1.35 1.09,-2.64 2.64,-2.64 1.39,0 2.64,1.04 2.64,2.64 z"
           inkscape:connector-curvature="0"
           style="fill:#000000;stroke-width:0;stroke-linecap:butt;stroke-linejoin:round" /><path
           id="path6810"
           d="m 576.31,423.34 v -13.36 c 0,-2.23 -0.55,-2.23 -3.89,-2.23 v -1.55 c 1.75,0.05 4.28,0.16 5.62,0.16 1.3,0 3.89,-0.11 5.58,-0.16 v 1.55 c -3.33,0 -3.87,0 -3.87,2.23 v 9.17 c 0,5.19 3.53,7.97 6.72,7.97 3.13,0 3.68,-2.69 3.68,-5.53 v -11.61 c 0,-2.23 -0.55,-2.23 -3.89,-2.23 v -1.55 c 1.75,0.05 4.3,0.16 5.64,0.16 1.3,0 3.88,-0.11 5.58,-0.16 v 1.55 c -3.34,0 -3.89,0 -3.89,2.23 v 9.17 c 0,5.19 3.55,7.97 6.73,7.97 3.15,0 3.69,-2.69 3.69,-5.53 v -11.61 c 0,-2.23 -0.54,-2.23 -3.89,-2.23 v -1.55 c 1.73,0.05 4.28,0.16 5.63,0.16 1.29,0 3.89,-0.11 5.57,-0.16 v 1.55 c -2.57,0 -3.82,0 -3.87,1.5 v 9.51 c 0,4.28 0,5.83 -1.55,7.61 -0.7,0.86 -2.34,1.84 -5.23,1.84 -4.19,0 -6.38,-2.98 -7.22,-4.87 -0.7,4.33 -4.39,4.87 -6.63,4.87 -3.64,0 -5.98,-2.14 -7.37,-5.21 v 5.21 l -7.03,-0.54 v -1.55 c 3.48,0 3.89,-0.34 3.89,-2.78 z"
           inkscape:connector-curvature="0"
           style="fill:#000000;stroke-width:0;stroke-linecap:butt;stroke-linejoin:round" /><path
           id="path6812"
           d="m 617.88,417.71 0.04,1.05 c 0.3,7.42 4.49,8.66 6.19,8.66 5.12,0 5.62,-6.72 5.62,-8.66 h -11.81 l -0.04,-1.05 h 13.9 c 1.1,0 1.24,0 1.24,1.05 0,4.92 -2.69,9.75 -8.91,9.75 -5.78,0 -10.38,-5.12 -10.38,-11.36 0,-6.67 5.24,-11.5 10.97,-11.5 6.08,0 8.32,5.53 8.32,6.47 0,0.5 -0.4,0.61 -0.64,0.61 -0.46,0 -0.55,-0.3 -0.66,-0.7 -1.74,-5.13 -6.22,-5.13 -6.72,-5.13 -2.5,0 -4.48,1.49 -5.62,3.33 -1.5,2.39 -1.5,5.69 -1.5,7.48 z"
           inkscape:connector-curvature="0"
           style="fill:#000000;stroke-width:0;stroke-linecap:butt;stroke-linejoin:round" /><path
           id="path6814"
           d="m 667.83,394.25 v 0.02 0.03 l -0.01,0.01 v 0.02 0.01 l -0.01,0.02 v 0.01 l -0.01,0.02 -0.01,0.02 -0.01,0.02 -0.01,0.02 -0.01,0.03 -0.02,0.02 -0.02,0.03 -0.02,0.03 -0.02,0.03 -0.03,0.03 -0.03,0.04 -0.01,0.02 -0.02,0.02 -0.02,0.02 -0.02,0.02 -0.02,0.02 -0.02,0.03 -0.02,0.02 -0.02,0.02 -0.02,0.03 -0.02,0.02 -0.03,0.03 -0.02,0.03 -0.03,0.03 -0.03,0.03 -0.03,0.03 -0.03,0.03 -0.03,0.03 -0.03,0.03 -0.03,0.04 -0.04,0.03 -0.03,0.04 -0.04,0.03 -0.04,0.04 -0.04,0.04 c -6.21,6.28 -7.81,15.69 -7.81,23.31 0,8.67 1.89,17.35 8.02,23.56 0.64,0.61 0.64,0.71 0.64,0.86 0,0.35 -0.19,0.49 -0.49,0.49 -0.5,0 -4.98,-3.38 -7.92,-9.7 -2.54,-5.49 -3.14,-11.02 -3.14,-15.21 0,-3.89 0.55,-9.9 3.28,-15.54 2.99,-6.13 7.28,-9.36 7.78,-9.36 0.3,0 0.49,0.14 0.49,0.5 z"
           inkscape:connector-curvature="0"
           style="fill:#000000;stroke-width:0;stroke-linecap:butt;stroke-linejoin:round" /><path
           id="path6816"
           d="m 676.15,423.34 v -13.36 c 0,-2.23 -0.55,-2.23 -3.9,-2.23 v -1.55 c 1.75,0.05 4.28,0.16 5.63,0.16 1.3,0 3.89,-0.11 5.58,-0.16 v 1.55 c -3.33,0 -3.88,0 -3.88,2.23 v 9.17 c 0,5.19 3.53,7.97 6.72,7.97 3.14,0 3.69,-2.69 3.69,-5.53 v -11.61 c 0,-2.23 -0.55,-2.23 -3.89,-2.23 v -1.55 c 1.75,0.05 4.3,0.16 5.64,0.16 1.29,0 3.87,-0.11 5.58,-0.16 v 1.55 c -2.6,0 -3.85,0 -3.89,1.5 v 9.51 c 0,4.28 0,5.83 -1.55,7.61 -0.69,0.86 -2.35,1.84 -5.22,1.84 -3.64,0 -5.98,-2.14 -7.38,-5.21 v 5.21 l -7.03,-0.54 v -1.55 c 3.49,0 3.9,-0.34 3.9,-2.78 z"
           inkscape:connector-curvature="0"
           style="fill:#000000;stroke-width:0;stroke-linecap:butt;stroke-linejoin:round" /><path
           id="path6818"
           d="m 708.74,415.87 0.11,-0.02 0.13,-0.02 0.14,-0.03 0.15,-0.04 0.17,-0.04 0.18,-0.04 0.19,-0.05 0.2,-0.06 0.21,-0.06 0.21,-0.07 0.21,-0.08 0.22,-0.08 0.22,-0.1 0.22,-0.1 0.22,-0.11 0.22,-0.12 0.22,-0.14 0.21,-0.14 0.2,-0.15 0.2,-0.16 0.19,-0.18 0.18,-0.19 0.17,-0.2 0.16,-0.21 0.14,-0.22 0.07,-0.12 0.06,-0.12 0.06,-0.13 0.05,-0.12 0.05,-0.14 0.05,-0.13 0.04,-0.14 0.03,-0.14 0.03,-0.15 0.03,-0.15 0.02,-0.16 0.01,-0.15 0.01,-0.17 0.01,-0.16 c 0,-2.53 -1.75,-4.53 -5.63,-4.53 -4.19,0 -5.98,2.84 -6.94,7.07 -0.14,0.64 -0.18,0.85 -0.68,0.85 -0.66,0 -0.66,-0.35 -0.66,-1.25 v -6.58 c 0,-0.84 0,-1.19 0.55,-1.19 0.25,0 0.29,0.05 1.25,1 0.09,0.1 0.09,0.19 1,1.14 2.18,-2.09 4.43,-2.14 5.48,-2.14 5.72,0 8.02,3.35 8.02,6.92 0,2.64 -1.5,4.14 -2.1,4.74 -1.64,1.59 -3.59,2 -5.69,2.39 -2.78,0.55 -6.12,1.2 -6.12,4.09 0,1.74 1.3,3.78 5.58,3.78 5.48,0 5.73,-4.48 5.83,-6.03 0.06,-0.45 0.5,-0.45 0.61,-0.45 0.64,0 0.64,0.25 0.64,1.2 v 5.03 c 0,0.85 0,1.19 -0.55,1.19 -0.25,0 -0.34,0 -1,-0.59 -0.14,-0.21 -0.64,-0.64 -0.84,-0.8 -1.9,1.39 -3.94,1.39 -4.69,1.39 -6.08,0 -7.97,-3.33 -7.97,-6.12 0,-1.74 0.8,-3.14 2.14,-4.24 1.59,-1.29 3,-1.59 6.58,-2.28 z"
           inkscape:connector-curvature="0"
           style="fill:#000000;stroke-width:0;stroke-linecap:butt;stroke-linejoin:round" /><path
           id="path6820"
           d="m 732.45,418.65 v 0.37 l -0.01,0.39 -0.01,0.39 -0.01,0.41 -0.04,0.84 -0.06,0.88 -0.08,0.92 -0.11,0.95 -0.13,0.97 -0.17,1.01 -0.19,1.02 -0.23,1.03 -0.27,1.05 -0.31,1.06 -0.34,1.07 -0.4,1.07 -0.21,0.53 -0.22,0.53 -0.24,0.53 -0.25,0.53 c -2.99,6.12 -7.27,9.36 -7.77,9.36 -0.3,0 -0.5,-0.19 -0.5,-0.49 0,-0.15 0,-0.25 0.94,-1.15 4.89,-4.92 7.73,-12.85 7.73,-23.27 0,-8.51 -1.84,-17.28 -8.03,-23.56 -0.64,-0.59 -0.64,-0.7 -0.64,-0.84 0,-0.3 0.2,-0.5 0.5,-0.5 0.5,0 4.97,3.39 7.92,9.71 2.53,5.47 3.13,11 3.13,15.19 z"
           inkscape:connector-curvature="0"
           style="fill:#000000;stroke-width:0;stroke-linecap:butt;stroke-linejoin:round" /></g>    </g>
    <g
       style="stroke-linecap:butt;stroke-linejoin:round"
       transform="matrix(0.5,0,0,0.5,91.86975,115.82215)"
       id="g12025">
      <g
         style="font-style:normal;font-variant:normal;font-weight:normal;font-stretch:normal;letter-spacing:normal;word-spacing:normal;text-anchor:start;fill:none;fill-opacity:1;fill-rule:evenodd;stroke:#000000;stroke-linecap:butt;stroke-linejoin:round;stroke-miterlimit:10.43299961;stroke-dasharray:none;stroke-dashoffset:0;stroke-opacity:1"
         id="g12023"
         transform="matrix(0.3,0,0,-0.3,-52.5,222.75)"
         xml:space="preserve"
         stroke-miterlimit="10.433"
         font-style="normal"
         font-variant="normal"
         font-weight="normal"
         font-stretch="normal"
         font-size-adjust="none"
         letter-spacing="normal"
         word-spacing="normal"><path
           style="fill:#000000;stroke-width:0;stroke-linecap:butt;stroke-linejoin:round"
           inkscape:connector-curvature="0"
           d="m 467.08,439.57 -0.04,0.06 -0.04,0.05 -0.04,0.05 -0.03,0.05 -0.04,0.04 -0.03,0.04 -0.03,0.04 -0.03,0.03 -0.03,0.04 -0.03,0.03 -0.03,0.02 -0.04,0.03 -0.03,0.02 -0.03,0.02 -0.03,0.02 -0.04,0.02 -0.03,0.02 -0.04,0.01 -0.04,0.01 -0.04,0.01 -0.05,0.01 -0.04,0.01 -0.05,0.01 h -0.06 l -0.05,0.01 h -0.06 -0.07 l -0.06,0.01 h -0.08 -0.03 -0.04 -0.04 -0.04 -0.05 -0.04 -8.47 v -1.55 h 1.45 c 0.75,0 1.74,-0.04 2.49,-0.09 1.14,-0.16 1.2,-0.2 1.2,-1.16 v -26 c 0,-1.34 0,-3.68 -5.14,-3.68 v -1.55 c 1.75,0.05 4.19,0.16 5.83,0.16 1.65,0 4.09,-0.11 5.83,-0.16 v 1.55 c -5.13,0 -5.13,2.34 -5.13,3.68 v 25.91 c 0.25,-0.25 0.3,-0.3 0.5,-0.59 l 20.33,-29.91 c 0.44,-0.59 0.5,-0.64 0.84,-0.64 0.71,0 0.71,0.34 0.71,1.3 V 435 c 0,1.34 0,3.68 5.12,3.68 v 1.55 c -1.75,-0.05 -4.19,-0.16 -5.83,-0.16 -1.64,0 -4.09,0.11 -5.82,0.16 v -1.55 c 5.12,0 5.12,-2.34 5.12,-3.68 v -21.29 z"
           id="path12009" /><path
           style="fill:#000000;stroke-width:0;stroke-linecap:butt;stroke-linejoin:round"
           inkscape:connector-curvature="0"
           d="m 509.43,409.98 0.02,-0.19 0.03,-0.18 0.04,-0.19 0.04,-0.18 0.05,-0.19 0.05,-0.18 0.07,-0.18 0.06,-0.18 0.08,-0.18 0.08,-0.17 0.09,-0.18 0.09,-0.16 0.1,-0.16 0.11,-0.16 0.11,-0.16 0.12,-0.14 0.13,-0.14 0.13,-0.14 0.14,-0.13 0.14,-0.12 0.15,-0.12 0.16,-0.1 0.16,-0.1 0.17,-0.09 0.18,-0.08 0.18,-0.07 0.19,-0.06 0.19,-0.05 0.2,-0.04 0.2,-0.03 0.21,-0.02 0.22,-0.01 c 1.03,0 4.08,0.71 4.08,4.74 v 2.78 h -1.25 v -2.78 c 0,-2.89 -1.24,-3.19 -1.8,-3.19 -1.64,0 -1.84,2.23 -1.84,2.48 v 9.97 c 0,2.1 0,4.03 -1.78,5.88 -1.96,1.93 -4.44,2.73 -6.83,2.73 -4.1,0 -7.53,-2.33 -7.53,-5.62 0,-1.49 1,-2.35 2.29,-2.35 1.39,0 2.3,1 2.3,2.3 0,0.59 -0.25,2.23 -2.55,2.3 1.35,1.73 3.79,2.28 5.38,2.28 2.45,0 5.28,-1.94 5.28,-6.38 v -1.84 -1.05 -4.98 c 0,-4.74 -3.58,-6.42 -5.83,-6.42 -2.44,0 -4.48,1.75 -4.48,4.23 0,2.73 2.09,6.88 10.31,7.17 v 0 1.05 c -2.53,-0.14 -6.02,-0.3 -9.16,-1.8 -3.73,-1.69 -4.98,-4.28 -4.98,-6.47 0,-4.03 4.83,-5.28 7.97,-5.28 3.3,0 5.58,1.99 6.53,4.33 z"
           id="path12011" /><path
           style="fill:#000000;stroke-width:0;stroke-linecap:butt;stroke-linejoin:round"
           inkscape:connector-curvature="0"
           d="m 546.17,423.73 0.38,0.13 0.37,0.15 0.36,0.15 0.36,0.17 0.35,0.18 0.34,0.19 0.33,0.2 0.32,0.22 0.31,0.22 0.3,0.23 0.29,0.24 0.29,0.25 0.27,0.26 0.26,0.27 0.24,0.27 0.24,0.29 0.23,0.29 0.21,0.3 0.2,0.3 0.19,0.32 0.17,0.32 0.16,0.32 0.15,0.33 0.13,0.34 0.12,0.34 0.1,0.34 0.09,0.35 0.07,0.36 0.06,0.36 0.04,0.36 0.03,0.36 0.01,0.37 c 0,4.08 -4.39,6.88 -9.17,6.88 -5.04,0 -8.82,-3 -8.82,-6.78 0,-1.65 1.1,-2.6 2.55,-2.6 1.53,0 2.53,1.1 2.53,2.55 0,2.48 -2.34,2.48 -3.08,2.48 1.53,2.44 4.83,3.1 6.63,3.1 2.03,0 4.78,-1.1 4.78,-5.58 0,-0.61 -0.11,-3.49 -1.41,-5.69 -1.48,-2.39 -3.18,-2.53 -4.42,-2.59 -0.41,-0.05 -1.59,-0.14 -1.95,-0.14 -0.39,-0.05 -0.75,-0.1 -0.75,-0.6 0,-0.54 0.36,-0.54 1.2,-0.54 h 2.19 c 4.09,0 5.93,-3.39 5.93,-8.29 0,-6.76 -3.43,-8.21 -5.63,-8.21 -2.15,0 -5.88,0.84 -7.62,3.78 1.74,-0.24 3.29,0.86 3.29,2.75 0,1.79 -1.35,2.78 -2.8,2.78 -1.19,0 -2.78,-0.69 -2.78,-2.89 0,-4.53 4.62,-7.81 10.06,-7.81 6.08,0 10.61,4.53 10.61,9.6 0,4.1 -3.14,7.97 -8.31,9.02 z"
           id="path12013" /><path
           style="fill:#000000;stroke-width:0;stroke-linecap:butt;stroke-linejoin:round"
           inkscape:connector-curvature="0"
           d="m 558.91,400.12 -0.04,-0.15 -0.03,-0.15 -0.04,-0.14 -0.03,-0.13 -0.03,-0.13 -0.04,-0.11 -0.03,-0.12 -0.04,-0.1 -0.04,-0.1 -0.04,-0.09 -0.04,-0.09 -0.04,-0.08 -0.05,-0.07 -0.06,-0.07 -0.06,-0.07 -0.06,-0.06 -0.07,-0.05 -0.07,-0.05 -0.08,-0.04 -0.09,-0.04 -0.09,-0.04 -0.1,-0.03 -0.11,-0.03 -0.12,-0.02 -0.12,-0.02 -0.07,-0.01 -0.07,-0.01 -0.07,-0.01 -0.07,-0.01 h -0.08 l -0.08,-0.01 h -0.08 l -0.09,-0.01 h -0.08 -0.09 -0.09 -0.1 l -0.1,-0.01 h -0.1 c -0.6,0 -1.14,0 -1.14,-0.93 0,-0.41 0.25,-0.61 0.64,-0.61 1.36,0 2.8,0.15 4.19,0.15 1.64,0 3.34,-0.15 4.93,-0.15 0.25,0 0.89,0 0.89,1 0,0.54 -0.5,0.54 -1.18,0.54 -2.5,0 -2.5,0.36 -2.5,0.8 0,0.61 2.09,8.72 2.45,9.97 0.64,-1.44 2.03,-3.19 4.58,-3.19 l -0.05,1.1 c -3.3,0 -3.94,4.14 -3.94,4.43 0,0.1 0,0.21 0.14,0.8 l 2.46,9.77 c 0.34,1.34 1.69,2.73 2.58,3.48 1.75,1.55 3.2,1.89 4.04,1.89 1.99,0 3.19,-1.73 3.19,-4.69 0,-2.93 -1.64,-8.65 -2.55,-10.56 -1.68,-3.48 -4.07,-5.12 -5.92,-5.12 l 0.05,-1.1 c 5.78,0 12,7.27 12,14.6 0,4.68 -2.83,7.96 -6.63,7.96 -2.48,0 -4.87,-1.78 -6.51,-3.73 -0.5,2.69 -2.64,3.73 -4.49,3.73 -2.29,0 -3.25,-1.93 -3.68,-2.82 -0.91,-1.71 -1.55,-4.69 -1.55,-4.85 0,-0.5 0.5,-0.5 0.59,-0.5 0.5,0 0.55,0.07 0.85,1.16 0.86,3.53 1.84,5.92 3.64,5.92 0.84,0 1.54,-0.39 1.54,-2.28 0,-1.16 -0.15,-1.7 -0.34,-2.55 z"
           id="path12015" /><path
           style="fill:#000000;stroke-width:0;stroke-linecap:butt;stroke-linejoin:round"
           inkscape:connector-curvature="0"
           d="m 636.98,417.65 -0.26,-0.19 -0.24,-0.2 -0.24,-0.19 -0.22,-0.2 -0.22,-0.19 -0.22,-0.19 -0.2,-0.19 -0.2,-0.19 -0.19,-0.18 -0.18,-0.18 -0.18,-0.18 -0.17,-0.18 -0.16,-0.17 -0.15,-0.17 -0.15,-0.17 -0.14,-0.16 -0.13,-0.15 -0.13,-0.16 -0.12,-0.15 -0.11,-0.14 -0.11,-0.14 -0.1,-0.13 -0.09,-0.13 -0.09,-0.12 -0.08,-0.11 -0.08,-0.11 -0.07,-0.11 -0.06,-0.09 -0.06,-0.09 -0.05,-0.08 -0.05,-0.07 -0.04,-0.07 c -2.23,-3.44 -2.64,-6.58 -2.64,-6.62 0,-0.6 0.61,-0.6 1,-0.6 0.85,0 0.89,0.1 1.1,1 1.15,4.88 4.09,9.06 9.71,11.36 0.6,0.19 0.75,0.3 0.75,0.64 0,0.35 -0.29,0.5 -0.4,0.55 -2.19,0.84 -8.22,3.34 -10.11,11.72 -0.16,0.59 -0.2,0.73 -1.05,0.73 -0.39,0 -1,0 -1,-0.59 0,-0.1 0.45,-3.24 2.55,-6.58 1,-1.48 2.44,-3.23 4.58,-4.83 h -37.02 c -0.89,0 -1.8,0 -1.8,-1 0,-1 0.91,-1 1.8,-1 z"
           id="path12017" /><path
           style="fill:#000000;stroke-width:0;stroke-linecap:butt;stroke-linejoin:round"
           inkscape:connector-curvature="0"
           d="m 673.6,423.73 0.38,0.13 0.37,0.15 0.36,0.15 0.36,0.17 0.35,0.18 0.34,0.19 0.33,0.2 0.32,0.22 0.31,0.22 0.3,0.23 0.29,0.24 0.28,0.25 0.28,0.26 0.26,0.27 0.24,0.27 0.24,0.29 0.23,0.29 0.21,0.3 0.2,0.3 0.19,0.32 0.17,0.32 0.16,0.32 0.15,0.33 0.13,0.34 0.12,0.34 0.1,0.34 0.09,0.35 0.07,0.36 0.06,0.36 0.04,0.36 0.03,0.36 0.01,0.37 c 0,4.08 -4.39,6.88 -9.17,6.88 -5.04,0 -8.82,-3 -8.82,-6.78 0,-1.65 1.1,-2.6 2.55,-2.6 1.53,0 2.53,1.1 2.53,2.55 0,2.48 -2.34,2.48 -3.08,2.48 1.53,2.44 4.83,3.1 6.63,3.1 2.03,0 4.78,-1.1 4.78,-5.58 0,-0.61 -0.11,-3.49 -1.41,-5.69 -1.48,-2.39 -3.18,-2.53 -4.42,-2.59 -0.41,-0.05 -1.59,-0.14 -1.95,-0.14 -0.39,-0.05 -0.75,-0.1 -0.75,-0.6 0,-0.54 0.36,-0.54 1.2,-0.54 h 2.19 c 4.09,0 5.93,-3.39 5.93,-8.29 0,-6.76 -3.43,-8.21 -5.63,-8.21 -2.15,0 -5.88,0.84 -7.62,3.78 1.74,-0.24 3.29,0.86 3.29,2.75 0,1.79 -1.35,2.78 -2.8,2.78 -1.19,0 -2.78,-0.69 -2.78,-2.89 0,-4.53 4.62,-7.81 10.06,-7.81 6.08,0 10.61,4.53 10.61,9.6 0,4.1 -3.14,7.97 -8.31,9.02 z"
           id="path12019" /><path
           style="fill:#000000;stroke-width:0;stroke-linecap:butt;stroke-linejoin:round"
           inkscape:connector-curvature="0"
           d="m 703.59,424.84 -0.13,-0.01 -0.13,-0.01 -0.13,-0.02 -0.12,-0.03 -0.12,-0.03 -0.12,-0.04 -0.11,-0.04 -0.11,-0.04 -0.11,-0.05 -0.1,-0.06 -0.1,-0.06 -0.1,-0.06 -0.09,-0.07 -0.09,-0.07 -0.09,-0.07 -0.08,-0.08 -0.07,-0.08 -0.08,-0.08 -0.07,-0.09 -0.06,-0.08 -0.06,-0.09 -0.05,-0.1 -0.05,-0.09 -0.05,-0.1 -0.04,-0.09 -0.03,-0.1 -0.04,-0.1 -0.02,-0.1 -0.02,-0.1 -0.01,-0.11 -0.01,-0.1 v -0.1 c 0,-0.7 0.43,-1.44 1.54,-1.44 1.1,0 2.28,0.85 2.28,2.78 0,2.25 -2.14,4.28 -5.92,4.28 -6.58,0 -8.42,-5.07 -8.42,-7.26 0,-3.89 3.69,-4.64 5.12,-4.94 2.6,-0.5 5.19,-1.05 5.19,-3.78 0,-1.3 -1.14,-5.48 -7.12,-5.48 -0.71,0 -4.53,0 -5.69,2.64 1.91,-0.25 3.14,1.25 3.14,2.64 0,1.14 -0.8,1.75 -1.84,1.75 -1.3,0 -2.78,-1.05 -2.78,-3.3 0,-2.84 2.84,-4.83 7.12,-4.83 8.06,0 10.02,6.03 10.02,8.27 0,1.79 -0.96,3.04 -1.55,3.64 -1.34,1.39 -2.8,1.64 -4.99,2.09 -1.79,0.39 -3.78,0.75 -3.78,2.99 0,1.45 1.19,4.48 5.58,4.48 1.24,0 3.74,-0.34 4.49,-2.28 z"
           id="path12021" /></g>    </g>
    <g
       id="g12446"
       transform="matrix(0.5,0,0,0.5,107.24325,71.901328)"
       style="stroke-linecap:butt;stroke-linejoin:round">
      <g
         word-spacing="normal"
         letter-spacing="normal"
         font-size-adjust="none"
         font-stretch="normal"
         font-weight="normal"
         font-variant="normal"
         font-style="normal"
         stroke-miterlimit="10.433"
         xml:space="preserve"
         transform="matrix(0.3,0,0,-0.3,-52.5,222.75)"
         id="g12444"
         style="font-style:normal;font-variant:normal;font-weight:normal;font-stretch:normal;letter-spacing:normal;word-spacing:normal;text-anchor:start;fill:none;fill-opacity:1;fill-rule:evenodd;stroke:#000000;stroke-linecap:butt;stroke-linejoin:round;stroke-miterlimit:10.43299961;stroke-dasharray:none;stroke-dashoffset:0;stroke-opacity:1"><path
           id="path12428"
           d="m 484.52,419.06 h -1.25 c -0.55,-5.1 -1.25,-11.31 -10.02,-11.31 h -4.07 c -2.35,0 -2.46,0.34 -2.46,1.98 v 26.56 c 0,1.69 0,2.39 4.74,2.39 h 1.65 v 1.55 c -1.79,-0.16 -6.32,-0.16 -8.37,-0.16 -1.94,0 -5.83,0 -7.58,0.16 v -1.55 h 1.2 c 3.83,0 3.94,-0.54 3.94,-2.34 v -26.25 c 0,-1.8 -0.11,-2.34 -3.94,-2.34 h -1.2 v -1.55 h 25.95 z"
           inkscape:connector-curvature="0"
           style="fill:#000000;stroke-width:0;stroke-linecap:butt;stroke-linejoin:round" /><path
           id="path12430"
           d="m 495.41,428.21 -6.97,-0.54 v -1.55 c 3.24,0 3.69,-0.3 3.69,-2.73 v -13.41 c 0,-2.23 -0.55,-2.23 -3.89,-2.23 v -1.55 c 1.59,0.05 4.28,0.16 5.48,0.16 1.75,0 3.49,-0.11 5.19,-0.16 v 1.55 c -3.3,0 -3.5,0.25 -3.5,2.18 z"
           inkscape:connector-curvature="0"
           style="fill:#000000;stroke-width:0;stroke-linecap:butt;stroke-linejoin:round" /><path
           id="path12432"
           d="m 495.61,436.89 v 0.14 l -0.01,0.15 -0.02,0.14 -0.02,0.14 -0.03,0.13 -0.04,0.13 -0.04,0.13 -0.05,0.12 -0.06,0.12 -0.06,0.12 -0.07,0.11 -0.07,0.1 -0.07,0.1 -0.08,0.1 -0.09,0.1 -0.09,0.08 -0.09,0.09 -0.1,0.08 -0.1,0.07 -0.1,0.07 -0.11,0.07 -0.11,0.06 -0.11,0.05 -0.12,0.05 -0.12,0.04 -0.12,0.04 -0.12,0.03 -0.12,0.03 -0.13,0.02 -0.13,0.01 -0.13,0.01 -0.13,0.01 c -1.54,0 -2.64,-1.35 -2.64,-2.64 0,-1.35 1.1,-2.64 2.64,-2.64 1.39,0 2.64,1.04 2.64,2.64 z"
           inkscape:connector-curvature="0"
           style="fill:#000000;stroke-width:0;stroke-linecap:butt;stroke-linejoin:round" /><path
           id="path12434"
           d="m 520.65,410.04 5.28,5.13 c 7.76,6.87 10.76,9.56 10.76,14.54 0,5.69 -4.48,9.68 -10.56,9.68 -5.64,0 -9.33,-4.6 -9.33,-9.03 0,-2.79 2.5,-2.79 2.64,-2.79 0.86,0 2.59,0.6 2.59,2.64 0,1.3 -0.88,2.6 -2.63,2.6 -0.4,0 -0.5,0 -0.65,-0.05 1.15,3.24 3.83,5.08 6.72,5.08 4.53,0 6.69,-4.05 6.69,-8.13 0,-3.98 -2.5,-7.92 -5.23,-11.01 l -9.57,-10.66 c -0.56,-0.54 -0.56,-0.64 -0.56,-1.84 h 18.48 l 1.41,8.67 h -1.25 c -0.25,-1.5 -0.59,-3.69 -1.09,-4.44 -0.36,-0.39 -3.64,-0.39 -4.74,-0.39 z"
           inkscape:connector-curvature="0"
           style="fill:#000000;stroke-width:0;stroke-linecap:butt;stroke-linejoin:round" /><path
           id="path12436"
           d="m 541.51,400.12 -0.04,-0.15 -0.03,-0.15 -0.04,-0.14 -0.03,-0.13 -0.03,-0.13 -0.04,-0.11 -0.03,-0.12 -0.04,-0.1 -0.03,-0.1 -0.04,-0.09 -0.05,-0.09 -0.04,-0.08 -0.05,-0.07 -0.06,-0.07 -0.05,-0.07 -0.07,-0.06 -0.06,-0.05 -0.08,-0.05 -0.08,-0.04 -0.08,-0.04 -0.1,-0.04 -0.1,-0.03 -0.11,-0.03 -0.12,-0.02 -0.12,-0.02 -0.07,-0.01 -0.07,-0.01 -0.07,-0.01 -0.07,-0.01 h -0.08 l -0.08,-0.01 h -0.08 l -0.08,-0.01 h -0.09 -0.09 -0.09 -0.1 l -0.1,-0.01 h -0.1 c -0.59,0 -1.14,0 -1.14,-0.93 0,-0.41 0.25,-0.61 0.64,-0.61 1.36,0 2.8,0.15 4.19,0.15 1.64,0 3.34,-0.15 4.94,-0.15 0.25,0 0.89,0 0.89,1 0,0.54 -0.5,0.54 -1.19,0.54 -2.5,0 -2.5,0.36 -2.5,0.8 0,0.61 2.09,8.72 2.45,9.97 0.64,-1.44 2.03,-3.19 4.58,-3.19 l -0.05,1.1 c -3.29,0 -3.93,4.14 -3.93,4.43 0,0.1 0,0.21 0.14,0.8 l 2.45,9.77 c 0.34,1.34 1.69,2.73 2.58,3.48 1.75,1.55 3.2,1.89 4.04,1.89 1.99,0 3.19,-1.73 3.19,-4.69 0,-2.93 -1.64,-8.65 -2.55,-10.56 -1.68,-3.48 -4.07,-5.12 -5.92,-5.12 l 0.05,-1.1 c 5.78,0 12,7.27 12,14.6 0,4.68 -2.83,7.96 -6.63,7.96 -2.48,0 -4.87,-1.78 -6.51,-3.73 -0.5,2.69 -2.64,3.73 -4.49,3.73 -2.29,0 -3.25,-1.93 -3.68,-2.82 -0.91,-1.71 -1.55,-4.69 -1.55,-4.85 0,-0.5 0.5,-0.5 0.59,-0.5 0.5,0 0.55,0.07 0.85,1.16 0.86,3.53 1.84,5.92 3.64,5.92 0.84,0 1.55,-0.39 1.55,-2.28 0,-1.16 -0.16,-1.7 -0.35,-2.55 z"
           inkscape:connector-curvature="0"
           style="fill:#000000;stroke-width:0;stroke-linecap:butt;stroke-linejoin:round" /><path
           id="path12438"
           d="m 619.7,417.65 -0.26,-0.19 -0.24,-0.2 -0.24,-0.19 -0.23,-0.2 -0.22,-0.19 -0.21,-0.19 -0.2,-0.19 -0.2,-0.19 -0.19,-0.18 -0.18,-0.18 -0.18,-0.18 -0.17,-0.18 -0.16,-0.17 -0.15,-0.17 -0.15,-0.17 -0.14,-0.16 -0.13,-0.15 -0.13,-0.16 -0.12,-0.15 -0.11,-0.14 -0.11,-0.14 -0.1,-0.13 -0.09,-0.13 -0.09,-0.12 -0.08,-0.11 -0.08,-0.11 -0.07,-0.11 -0.06,-0.09 -0.06,-0.09 -0.05,-0.08 -0.05,-0.07 -0.04,-0.07 c -2.23,-3.44 -2.64,-6.58 -2.64,-6.62 0,-0.6 0.61,-0.6 1,-0.6 0.84,0 0.89,0.1 1.09,1 1.16,4.88 4.1,9.06 9.72,11.36 0.6,0.19 0.75,0.3 0.75,0.64 0,0.35 -0.29,0.5 -0.4,0.55 -2.19,0.84 -8.22,3.34 -10.11,11.72 -0.16,0.59 -0.21,0.73 -1.05,0.73 -0.39,0 -1,0 -1,-0.59 0,-0.1 0.45,-3.24 2.55,-6.58 1,-1.48 2.43,-3.23 4.58,-4.83 h -37.02 c -0.89,0 -1.8,0 -1.8,-1 0,-1 0.91,-1 1.8,-1 z"
           inkscape:connector-curvature="0"
           style="fill:#000000;stroke-width:0;stroke-linecap:butt;stroke-linejoin:round" /><path
           id="path12440"
           d="m 648.2,410.04 5.28,5.13 c 7.76,6.87 10.76,9.56 10.76,14.54 0,5.69 -4.48,9.68 -10.56,9.68 -5.64,0 -9.33,-4.6 -9.33,-9.03 0,-2.79 2.5,-2.79 2.64,-2.79 0.86,0 2.6,0.6 2.6,2.64 0,1.3 -0.89,2.6 -2.64,2.6 -0.4,0 -0.5,0 -0.65,-0.05 1.15,3.24 3.83,5.08 6.72,5.08 4.53,0 6.69,-4.05 6.69,-8.13 0,-3.98 -2.5,-7.92 -5.23,-11.01 l -9.57,-10.66 c -0.56,-0.54 -0.56,-0.64 -0.56,-1.84 h 18.49 l 1.4,8.67 h -1.25 c -0.25,-1.5 -0.59,-3.69 -1.09,-4.44 -0.36,-0.39 -3.64,-0.39 -4.74,-0.39 z"
           inkscape:connector-curvature="0"
           style="fill:#000000;stroke-width:0;stroke-linecap:butt;stroke-linejoin:round" /><path
           id="path12442"
           d="m 686.31,424.84 -0.13,-0.01 -0.13,-0.01 -0.13,-0.02 -0.12,-0.03 -0.12,-0.03 -0.11,-0.04 -0.12,-0.04 -0.11,-0.04 -0.11,-0.05 -0.1,-0.06 -0.1,-0.06 -0.1,-0.06 -0.09,-0.07 -0.09,-0.07 -0.08,-0.07 -0.08,-0.08 -0.08,-0.08 -0.07,-0.08 -0.07,-0.09 -0.07,-0.08 -0.06,-0.09 -0.05,-0.1 -0.05,-0.09 -0.05,-0.1 -0.04,-0.09 -0.03,-0.1 -0.03,-0.1 -0.03,-0.1 -0.02,-0.1 -0.01,-0.11 -0.01,-0.1 v -0.1 c 0,-0.7 0.43,-1.44 1.55,-1.44 1.09,0 2.28,0.85 2.28,2.78 0,2.25 -2.15,4.28 -5.93,4.28 -6.57,0 -8.42,-5.07 -8.42,-7.26 0,-3.89 3.69,-4.64 5.13,-4.94 2.59,-0.5 5.19,-1.05 5.19,-3.78 0,-1.3 -1.15,-5.48 -7.13,-5.48 -0.7,0 -4.53,0 -5.69,2.64 1.91,-0.25 3.14,1.25 3.14,2.64 0,1.14 -0.79,1.75 -1.84,1.75 -1.3,0 -2.78,-1.05 -2.78,-3.3 0,-2.84 2.84,-4.83 7.12,-4.83 8.06,0 10.02,6.03 10.02,8.27 0,1.79 -0.96,3.04 -1.55,3.64 -1.34,1.39 -2.79,1.64 -4.98,2.09 -1.8,0.39 -3.78,0.75 -3.78,2.99 0,1.45 1.18,4.48 5.57,4.48 1.24,0 3.74,-0.34 4.49,-2.28 z"
           inkscape:connector-curvature="0"
           style="fill:#000000;stroke-width:0;stroke-linecap:butt;stroke-linejoin:round" /></g>    </g>
    <g
       id="g12848"
       transform="matrix(0.5,0,0,0.5,-3.9285838,160.80134)"
       style="stroke-linecap:butt;stroke-linejoin:round">
      <g
         id="g12846"
         transform="matrix(0.3,0,0,-0.3,-52.5,222.75)"
         xml:space="preserve"
         stroke-miterlimit="10.433"
         font-style="normal"
         font-variant="normal"
         font-weight="normal"
         font-stretch="normal"
         font-size-adjust="none"
         letter-spacing="normal"
         word-spacing="normal"
         style="font-style:normal;font-variant:normal;font-weight:normal;font-stretch:normal;letter-spacing:normal;word-spacing:normal;text-anchor:start;fill:none;fill-opacity:1;fill-rule:evenodd;stroke:#000000;stroke-linecap:butt;stroke-linejoin:round;stroke-miterlimit:10.43299961;stroke-dasharray:none;stroke-dashoffset:0;stroke-opacity:1"><path
           d="m 486.07,436.34 v 0.16 0.16 0.15 l 0.01,0.15 0.01,0.13 0.01,0.13 0.02,0.13 0.02,0.11 0.03,0.12 0.03,0.1 0.05,0.1 0.05,0.09 0.06,0.09 0.06,0.08 0.08,0.08 0.09,0.07 0.1,0.06 0.11,0.06 0.06,0.03 0.07,0.03 0.06,0.02 0.07,0.03 0.08,0.02 0.08,0.02 0.08,0.02 0.08,0.02 0.09,0.02 0.09,0.02 0.1,0.02 0.1,0.01 0.1,0.01 0.11,0.02 0.12,0.01 0.11,0.01 0.13,0.01 0.12,0.01 0.13,0.01 0.14,0.01 h 0.14 l 0.15,0.01 h 0.15 l 0.15,0.01 h 0.16 0.17 0.17 0.18 1.2 v 1.55 c -1.75,-0.16 -5.44,-0.16 -7.33,-0.16 -1.89,0 -5.62,0 -7.37,0.16 v -1.55 h 1.2 c 3.83,0 3.94,-0.54 3.94,-2.34 v -11.66 h -14.91 v 11.66 c 0,1.8 0.11,2.34 3.94,2.34 h 1.2 v 1.55 c -1.75,-0.16 -5.43,-0.16 -7.32,-0.16 -1.9,0 -5.63,0 -7.38,0.16 v -1.55 h 1.2 c 3.83,0 3.94,-0.54 3.94,-2.34 v -26.25 c 0,-1.8 -0.11,-2.34 -3.94,-2.34 h -1.2 v -1.55 c 1.75,0.16 5.44,0.16 7.33,0.16 1.89,0 5.62,0 7.37,-0.16 v 1.55 h -1.2 c -3.83,0 -3.94,0.54 -3.94,2.34 v 13.05 h 14.91 v -13.05 c 0,-1.8 -0.11,-2.34 -3.94,-2.34 h -1.2 v -1.55 c 1.75,0.16 5.44,0.16 7.33,0.16 1.89,0 5.62,0 7.37,-0.16 v 1.55 h -1.2 c -3.83,0 -3.92,0.54 -3.92,2.34 z"
           id="path12834"
           inkscape:connector-curvature="0"
           style="fill:#000000;stroke-width:0;stroke-linecap:butt;stroke-linejoin:round" /><path
           d="m 513.09,410.04 5.28,5.13 c 7.76,6.87 10.76,9.56 10.76,14.54 0,5.69 -4.48,9.68 -10.56,9.68 -5.64,0 -9.33,-4.6 -9.33,-9.03 0,-2.79 2.5,-2.79 2.64,-2.79 0.86,0 2.6,0.6 2.6,2.64 0,1.3 -0.89,2.6 -2.64,2.6 -0.39,0 -0.5,0 -0.64,-0.05 1.14,3.24 3.82,5.08 6.71,5.08 4.54,0 6.69,-4.05 6.69,-8.13 0,-3.98 -2.5,-7.92 -5.23,-11.01 l -9.57,-10.66 c -0.56,-0.54 -0.56,-0.64 -0.56,-1.84 h 18.49 l 1.4,8.67 h -1.25 c -0.25,-1.5 -0.59,-3.69 -1.09,-4.44 -0.36,-0.39 -3.64,-0.39 -4.74,-0.39 z"
           id="path12836"
           inkscape:connector-curvature="0"
           style="fill:#000000;stroke-width:0;stroke-linecap:butt;stroke-linejoin:round" /><path
           d="m 533.95,400.12 -0.04,-0.15 -0.03,-0.15 -0.03,-0.14 -0.04,-0.13 -0.03,-0.13 -0.04,-0.11 -0.03,-0.12 -0.04,-0.1 -0.03,-0.1 -0.04,-0.09 -0.05,-0.09 -0.04,-0.08 -0.05,-0.07 -0.05,-0.07 -0.06,-0.07 -0.06,-0.06 -0.07,-0.05 -0.08,-0.05 -0.08,-0.04 -0.08,-0.04 -0.1,-0.04 -0.1,-0.03 -0.11,-0.03 -0.11,-0.02 -0.13,-0.02 -0.07,-0.01 -0.07,-0.01 -0.07,-0.01 -0.07,-0.01 h -0.08 l -0.08,-0.01 h -0.08 l -0.08,-0.01 h -0.09 -0.09 -0.09 -0.1 l -0.1,-0.01 h -0.1 c -0.59,0 -1.14,0 -1.14,-0.93 0,-0.41 0.25,-0.61 0.64,-0.61 1.36,0 2.8,0.15 4.19,0.15 1.64,0 3.34,-0.15 4.94,-0.15 0.25,0 0.89,0 0.89,1 0,0.54 -0.5,0.54 -1.19,0.54 -2.5,0 -2.5,0.36 -2.5,0.8 0,0.61 2.09,8.72 2.45,9.97 0.64,-1.44 2.03,-3.19 4.58,-3.19 l -0.05,1.1 c -3.29,0 -3.93,4.14 -3.93,4.43 0,0.1 0,0.21 0.14,0.8 l 2.45,9.77 c 0.34,1.34 1.69,2.73 2.58,3.48 1.75,1.55 3.2,1.89 4.04,1.89 1.99,0 3.19,-1.73 3.19,-4.69 0,-2.93 -1.64,-8.65 -2.54,-10.56 -1.69,-3.48 -4.08,-5.12 -5.93,-5.12 l 0.05,-1.1 c 5.78,0 12,7.27 12,14.6 0,4.68 -2.83,7.96 -6.62,7.96 -2.49,0 -4.88,-1.78 -6.52,-3.73 -0.5,2.69 -2.64,3.73 -4.48,3.73 -2.3,0 -3.25,-1.93 -3.69,-2.82 -0.91,-1.71 -1.55,-4.69 -1.55,-4.85 0,-0.5 0.5,-0.5 0.59,-0.5 0.5,0 0.55,0.07 0.85,1.16 0.86,3.53 1.84,5.92 3.64,5.92 0.84,0 1.55,-0.39 1.55,-2.28 0,-1.16 -0.16,-1.7 -0.35,-2.55 z"
           id="path12838"
           inkscape:connector-curvature="0"
           style="fill:#000000;stroke-width:0;stroke-linecap:butt;stroke-linejoin:round" /><path
           d="m 612.14,417.65 -0.26,-0.19 -0.24,-0.2 -0.24,-0.19 -0.22,-0.2 -0.22,-0.19 -0.22,-0.19 -0.2,-0.19 -0.2,-0.19 -0.19,-0.18 -0.18,-0.18 -0.18,-0.18 -0.17,-0.18 -0.16,-0.17 -0.15,-0.17 -0.15,-0.17 -0.14,-0.16 -0.13,-0.15 -0.13,-0.16 -0.12,-0.15 -0.11,-0.14 -0.11,-0.14 -0.1,-0.13 -0.09,-0.13 -0.09,-0.12 -0.08,-0.11 -0.08,-0.11 -0.07,-0.11 -0.06,-0.09 -0.06,-0.09 -0.05,-0.08 -0.05,-0.07 -0.04,-0.07 c -2.23,-3.44 -2.64,-6.58 -2.64,-6.62 0,-0.6 0.61,-0.6 1,-0.6 0.84,0 0.89,0.1 1.09,1 1.16,4.88 4.1,9.06 9.72,11.36 0.6,0.19 0.75,0.3 0.75,0.64 0,0.35 -0.29,0.5 -0.4,0.55 -2.19,0.84 -8.22,3.34 -10.11,11.72 -0.16,0.59 -0.21,0.73 -1.05,0.73 -0.39,0 -1,0 -1,-0.59 0,-0.1 0.46,-3.24 2.55,-6.58 1,-1.48 2.44,-3.23 4.58,-4.83 h -37.02 c -0.89,0 -1.8,0 -1.8,-1 0,-1 0.91,-1 1.8,-1 z"
           id="path12840"
           inkscape:connector-curvature="0"
           style="fill:#000000;stroke-width:0;stroke-linecap:butt;stroke-linejoin:round" /><path
           d="m 648.83,438.09 v 0.05 0.06 0.05 0.05 0.05 0.05 0.04 0.05 l -0.01,0.04 v 0.04 0.04 0.04 0.04 0.03 l -0.01,0.04 v 0.03 l -0.01,0.07 -0.01,0.06 -0.01,0.05 -0.01,0.05 -0.02,0.05 -0.02,0.04 -0.02,0.04 -0.02,0.03 -0.03,0.03 -0.03,0.03 -0.04,0.03 -0.04,0.02 -0.04,0.02 -0.03,0.01 -0.02,0.01 h -0.03 l -0.03,0.01 -0.02,0.01 h -0.03 l -0.03,0.01 h -0.04 l -0.03,0.01 h -0.03 -0.04 l -0.04,0.01 h -0.04 -0.04 -0.04 -0.04 -0.05 l -0.04,0.01 h -0.05 -0.05 -0.05 -0.05 c -3.1,-3.19 -7.47,-3.19 -9.07,-3.19 v -1.55 c 1,0 3.94,0 6.52,1.3 v -25.81 c 0,-1.8 -0.14,-2.39 -4.62,-2.39 h -1.6 v -1.55 c 1.75,0.16 6.08,0.16 8.06,0.16 2,0 6.33,0 8.08,-0.16 v 1.55 h -1.59 c -4.49,0 -4.64,0.54 -4.64,2.39 z"
           id="path12842"
           inkscape:connector-curvature="0"
           style="fill:#000000;stroke-width:0;stroke-linecap:butt;stroke-linejoin:round" /><path
           d="m 678.63,424.84 -0.13,-0.01 -0.13,-0.01 -0.12,-0.02 -0.13,-0.03 -0.12,-0.03 -0.11,-0.04 -0.12,-0.04 -0.11,-0.04 -0.1,-0.05 -0.11,-0.06 -0.1,-0.06 -0.1,-0.06 -0.09,-0.07 -0.09,-0.07 -0.08,-0.07 -0.08,-0.08 -0.08,-0.08 -0.07,-0.08 -0.07,-0.09 -0.07,-0.08 -0.06,-0.09 -0.05,-0.1 -0.05,-0.09 -0.05,-0.1 -0.04,-0.09 -0.03,-0.1 -0.03,-0.1 -0.03,-0.1 -0.02,-0.1 -0.01,-0.11 -0.01,-0.1 v -0.1 c 0,-0.7 0.44,-1.44 1.54,-1.44 1.1,0 2.29,0.85 2.29,2.78 0,2.25 -2.14,4.28 -5.92,4.28 -6.58,0 -8.43,-5.07 -8.43,-7.26 0,-3.89 3.69,-4.64 5.13,-4.94 2.59,-0.5 5.18,-1.05 5.18,-3.78 0,-1.3 -1.13,-5.48 -7.12,-5.48 -0.7,0 -4.53,0 -5.69,2.64 1.91,-0.25 3.14,1.25 3.14,2.64 0,1.14 -0.79,1.75 -1.84,1.75 -1.3,0 -2.78,-1.05 -2.78,-3.3 0,-2.84 2.84,-4.83 7.12,-4.83 8.07,0 10.02,6.03 10.02,8.27 0,1.79 -0.95,3.04 -1.55,3.64 -1.34,1.39 -2.8,1.64 -4.98,2.09 -1.8,0.39 -3.78,0.75 -3.78,2.99 0,1.45 1.18,4.48 5.58,4.48 1.23,0 3.73,-0.34 4.48,-2.28 z"
           id="path12844"
           inkscape:connector-curvature="0"
           style="fill:#000000;stroke-width:0;stroke-linecap:butt;stroke-linejoin:round" /></g>    </g>
    <g
       id="g13250"
       transform="matrix(0.5,0,0,0.5,-7.6327499,145.19091)"
       style="stroke-linecap:butt;stroke-linejoin:round">
      <g
         word-spacing="normal"
         letter-spacing="normal"
         font-size-adjust="none"
         font-stretch="normal"
         font-weight="normal"
         font-variant="normal"
         font-style="normal"
         stroke-miterlimit="10.433"
         xml:space="preserve"
         transform="matrix(0.3,0,0,-0.3,-52.5,222.75)"
         id="g13248"
         style="font-style:normal;font-variant:normal;font-weight:normal;font-stretch:normal;letter-spacing:normal;word-spacing:normal;text-anchor:start;fill:none;fill-opacity:1;fill-rule:evenodd;stroke:#000000;stroke-linecap:butt;stroke-linejoin:round;stroke-miterlimit:10.43299961;stroke-dasharray:none;stroke-dashoffset:0;stroke-opacity:1"><path
           id="path13236"
           d="m 486.07,436.34 v 0.16 0.16 0.15 l 0.01,0.15 0.01,0.13 0.01,0.13 0.02,0.13 0.02,0.11 0.03,0.12 0.03,0.1 0.05,0.1 0.05,0.09 0.06,0.09 0.06,0.08 0.08,0.08 0.09,0.07 0.1,0.06 0.11,0.06 0.06,0.03 0.07,0.03 0.06,0.02 0.07,0.03 0.08,0.02 0.08,0.02 0.08,0.02 0.08,0.02 0.09,0.02 0.09,0.02 0.1,0.02 0.1,0.01 0.1,0.01 0.11,0.02 0.12,0.01 0.11,0.01 0.13,0.01 0.12,0.01 0.13,0.01 0.14,0.01 h 0.14 l 0.15,0.01 h 0.15 l 0.15,0.01 h 0.16 0.17 0.17 0.18 1.2 v 1.55 c -1.75,-0.16 -5.44,-0.16 -7.33,-0.16 -1.89,0 -5.62,0 -7.37,0.16 v -1.55 h 1.2 c 3.83,0 3.94,-0.54 3.94,-2.34 v -11.66 h -14.91 v 11.66 c 0,1.8 0.11,2.34 3.94,2.34 h 1.2 v 1.55 c -1.75,-0.16 -5.43,-0.16 -7.32,-0.16 -1.9,0 -5.63,0 -7.38,0.16 v -1.55 h 1.2 c 3.83,0 3.94,-0.54 3.94,-2.34 v -26.25 c 0,-1.8 -0.11,-2.34 -3.94,-2.34 h -1.2 v -1.55 c 1.75,0.16 5.44,0.16 7.33,0.16 1.89,0 5.62,0 7.37,-0.16 v 1.55 h -1.2 c -3.83,0 -3.94,0.54 -3.94,2.34 v 13.05 h 14.91 v -13.05 c 0,-1.8 -0.11,-2.34 -3.94,-2.34 h -1.2 v -1.55 c 1.75,0.16 5.44,0.16 7.33,0.16 1.89,0 5.62,0 7.37,-0.16 v 1.55 h -1.2 c -3.83,0 -3.92,0.54 -3.92,2.34 z"
           inkscape:connector-curvature="0"
           style="fill:#000000;stroke-width:0;stroke-linecap:butt;stroke-linejoin:round" /><path
           id="path13238"
           d="m 521.21,423.73 0.38,0.13 0.37,0.15 0.37,0.15 0.35,0.17 0.35,0.18 0.34,0.19 0.33,0.2 0.32,0.22 0.31,0.22 0.3,0.23 0.3,0.24 0.28,0.25 0.27,0.26 0.26,0.27 0.25,0.27 0.23,0.29 0.23,0.29 0.21,0.3 0.2,0.3 0.19,0.32 0.17,0.32 0.17,0.32 0.14,0.33 0.13,0.34 0.12,0.34 0.11,0.34 0.08,0.35 0.08,0.36 0.06,0.36 0.04,0.36 0.02,0.36 0.01,0.37 c 0,4.08 -4.39,6.88 -9.17,6.88 -5.03,0 -8.81,-3 -8.81,-6.78 0,-1.65 1.09,-2.6 2.54,-2.6 1.53,0 2.53,1.1 2.53,2.55 0,2.48 -2.34,2.48 -3.07,2.48 1.53,2.44 4.82,3.1 6.62,3.1 2.03,0 4.78,-1.1 4.78,-5.58 0,-0.61 -0.11,-3.49 -1.4,-5.69 -1.49,-2.39 -3.19,-2.53 -4.43,-2.59 -0.4,-0.05 -1.59,-0.14 -1.95,-0.14 -0.39,-0.05 -0.75,-0.1 -0.75,-0.6 0,-0.54 0.36,-0.54 1.2,-0.54 h 2.19 c 4.09,0 5.94,-3.39 5.94,-8.29 0,-6.76 -3.44,-8.21 -5.64,-8.21 -2.14,0 -5.88,0.84 -7.61,3.78 1.73,-0.24 3.28,0.86 3.28,2.75 0,1.79 -1.34,2.78 -2.8,2.78 -1.18,0 -2.78,-0.69 -2.78,-2.89 0,-4.53 4.63,-7.81 10.06,-7.81 6.08,0 10.61,4.53 10.61,9.6 0,4.1 -3.14,7.97 -8.31,9.02 z"
           inkscape:connector-curvature="0"
           style="fill:#000000;stroke-width:0;stroke-linecap:butt;stroke-linejoin:round" /><path
           id="path13240"
           d="m 533.95,400.12 -0.04,-0.15 -0.03,-0.15 -0.03,-0.14 -0.04,-0.13 -0.03,-0.13 -0.04,-0.11 -0.03,-0.12 -0.04,-0.1 -0.03,-0.1 -0.04,-0.09 -0.05,-0.09 -0.04,-0.08 -0.05,-0.07 -0.05,-0.07 -0.06,-0.07 -0.06,-0.06 -0.07,-0.05 -0.08,-0.05 -0.08,-0.04 -0.08,-0.04 -0.1,-0.04 -0.1,-0.03 -0.11,-0.03 -0.11,-0.02 -0.13,-0.02 -0.07,-0.01 -0.07,-0.01 -0.07,-0.01 -0.07,-0.01 h -0.08 l -0.08,-0.01 h -0.08 l -0.08,-0.01 h -0.09 -0.09 -0.09 -0.1 l -0.1,-0.01 h -0.1 c -0.59,0 -1.14,0 -1.14,-0.93 0,-0.41 0.25,-0.61 0.64,-0.61 1.36,0 2.8,0.15 4.19,0.15 1.64,0 3.34,-0.15 4.94,-0.15 0.25,0 0.89,0 0.89,1 0,0.54 -0.5,0.54 -1.19,0.54 -2.5,0 -2.5,0.36 -2.5,0.8 0,0.61 2.09,8.72 2.45,9.97 0.64,-1.44 2.03,-3.19 4.58,-3.19 l -0.05,1.1 c -3.29,0 -3.93,4.14 -3.93,4.43 0,0.1 0,0.21 0.14,0.8 l 2.45,9.77 c 0.34,1.34 1.69,2.73 2.58,3.48 1.75,1.55 3.2,1.89 4.04,1.89 1.99,0 3.19,-1.73 3.19,-4.69 0,-2.93 -1.64,-8.65 -2.54,-10.56 -1.69,-3.48 -4.08,-5.12 -5.93,-5.12 l 0.05,-1.1 c 5.78,0 12,7.27 12,14.6 0,4.68 -2.83,7.96 -6.62,7.96 -2.49,0 -4.88,-1.78 -6.52,-3.73 -0.5,2.69 -2.64,3.73 -4.48,3.73 -2.3,0 -3.25,-1.93 -3.69,-2.82 -0.91,-1.71 -1.55,-4.69 -1.55,-4.85 0,-0.5 0.5,-0.5 0.59,-0.5 0.5,0 0.55,0.07 0.85,1.16 0.86,3.53 1.84,5.92 3.64,5.92 0.84,0 1.55,-0.39 1.55,-2.28 0,-1.16 -0.16,-1.7 -0.35,-2.55 z"
           inkscape:connector-curvature="0"
           style="fill:#000000;stroke-width:0;stroke-linecap:butt;stroke-linejoin:round" /><path
           id="path13242"
           d="m 612.14,417.65 -0.26,-0.19 -0.24,-0.2 -0.24,-0.19 -0.22,-0.2 -0.22,-0.19 -0.22,-0.19 -0.2,-0.19 -0.2,-0.19 -0.19,-0.18 -0.18,-0.18 -0.18,-0.18 -0.17,-0.18 -0.16,-0.17 -0.15,-0.17 -0.15,-0.17 -0.14,-0.16 -0.13,-0.15 -0.13,-0.16 -0.12,-0.15 -0.11,-0.14 -0.11,-0.14 -0.1,-0.13 -0.09,-0.13 -0.09,-0.12 -0.08,-0.11 -0.08,-0.11 -0.07,-0.11 -0.06,-0.09 -0.06,-0.09 -0.05,-0.08 -0.05,-0.07 -0.04,-0.07 c -2.23,-3.44 -2.64,-6.58 -2.64,-6.62 0,-0.6 0.61,-0.6 1,-0.6 0.84,0 0.89,0.1 1.09,1 1.16,4.88 4.1,9.06 9.72,11.36 0.6,0.19 0.75,0.3 0.75,0.64 0,0.35 -0.29,0.5 -0.4,0.55 -2.19,0.84 -8.22,3.34 -10.11,11.72 -0.16,0.59 -0.21,0.73 -1.05,0.73 -0.39,0 -1,0 -1,-0.59 0,-0.1 0.46,-3.24 2.55,-6.58 1,-1.48 2.44,-3.23 4.58,-4.83 h -37.02 c -0.89,0 -1.8,0 -1.8,-1 0,-1 0.91,-1 1.8,-1 z"
           inkscape:connector-curvature="0"
           style="fill:#000000;stroke-width:0;stroke-linecap:butt;stroke-linejoin:round" /><path
           id="path13244"
           d="m 648.83,438.09 v 0.05 0.06 0.05 0.05 0.05 0.05 0.04 0.05 l -0.01,0.04 v 0.04 0.04 0.04 0.04 0.03 l -0.01,0.04 v 0.03 l -0.01,0.07 -0.01,0.06 -0.01,0.05 -0.01,0.05 -0.02,0.05 -0.02,0.04 -0.02,0.04 -0.02,0.03 -0.03,0.03 -0.03,0.03 -0.04,0.03 -0.04,0.02 -0.04,0.02 -0.03,0.01 -0.02,0.01 h -0.03 l -0.03,0.01 -0.02,0.01 h -0.03 l -0.03,0.01 h -0.04 l -0.03,0.01 h -0.03 -0.04 l -0.04,0.01 h -0.04 -0.04 -0.04 -0.04 -0.05 l -0.04,0.01 h -0.05 -0.05 -0.05 -0.05 c -3.1,-3.19 -7.47,-3.19 -9.07,-3.19 v -1.55 c 1,0 3.94,0 6.52,1.3 v -25.81 c 0,-1.8 -0.14,-2.39 -4.62,-2.39 h -1.6 v -1.55 c 1.75,0.16 6.08,0.16 8.06,0.16 2,0 6.33,0 8.08,-0.16 v 1.55 h -1.59 c -4.49,0 -4.64,0.54 -4.64,2.39 z"
           inkscape:connector-curvature="0"
           style="fill:#000000;stroke-width:0;stroke-linecap:butt;stroke-linejoin:round" /><path
           id="path13246"
           d="m 678.63,424.84 -0.13,-0.01 -0.13,-0.01 -0.12,-0.02 -0.13,-0.03 -0.12,-0.03 -0.11,-0.04 -0.12,-0.04 -0.11,-0.04 -0.1,-0.05 -0.11,-0.06 -0.1,-0.06 -0.1,-0.06 -0.09,-0.07 -0.09,-0.07 -0.08,-0.07 -0.08,-0.08 -0.08,-0.08 -0.07,-0.08 -0.07,-0.09 -0.07,-0.08 -0.06,-0.09 -0.05,-0.1 -0.05,-0.09 -0.05,-0.1 -0.04,-0.09 -0.03,-0.1 -0.03,-0.1 -0.03,-0.1 -0.02,-0.1 -0.01,-0.11 -0.01,-0.1 v -0.1 c 0,-0.7 0.44,-1.44 1.54,-1.44 1.1,0 2.29,0.85 2.29,2.78 0,2.25 -2.14,4.28 -5.92,4.28 -6.58,0 -8.43,-5.07 -8.43,-7.26 0,-3.89 3.69,-4.64 5.13,-4.94 2.59,-0.5 5.18,-1.05 5.18,-3.78 0,-1.3 -1.13,-5.48 -7.12,-5.48 -0.7,0 -4.53,0 -5.69,2.64 1.91,-0.25 3.14,1.25 3.14,2.64 0,1.14 -0.79,1.75 -1.84,1.75 -1.3,0 -2.78,-1.05 -2.78,-3.3 0,-2.84 2.84,-4.83 7.12,-4.83 8.07,0 10.02,6.03 10.02,8.27 0,1.79 -0.95,3.04 -1.55,3.64 -1.34,1.39 -2.8,1.64 -4.98,2.09 -1.8,0.39 -3.78,0.75 -3.78,2.99 0,1.45 1.18,4.48 5.58,4.48 1.23,0 3.73,-0.34 4.48,-2.28 z"
           inkscape:connector-curvature="0"
           style="fill:#000000;stroke-width:0;stroke-linecap:butt;stroke-linejoin:round" /></g>    </g>
  </g>
</svg>
