<?xml version="1.0" encoding="UTF-8" standalone="no"?>
<!-- Created with Inkscape (http://www.inkscape.org/) -->

<svg
   xmlns:dc="http://purl.org/dc/elements/1.1/"
   xmlns:cc="http://creativecommons.org/ns#"
   xmlns:rdf="http://www.w3.org/1999/02/22-rdf-syntax-ns#"
   xmlns:svg="http://www.w3.org/2000/svg"
   xmlns="http://www.w3.org/2000/svg"
   xmlns:sodipodi="http://sodipodi.sourceforge.net/DTD/sodipodi-0.dtd"
   xmlns:inkscape="http://www.inkscape.org/namespaces/inkscape"
   width="145.8063mm"
   height="40.527878mm"
   viewBox="0 0 145.8063 40.527878"
   version="1.1"
   id="svg8"
   inkscape:version="0.92.2 5c3e80d, 2017-08-06"
   sodipodi:docname="scattering1d.svg">
  <sodipodi:namedview
     id="base"
     pagecolor="#ffffff"
     bordercolor="#666666"
     borderopacity="1.0"
     inkscape:pageopacity="0.0"
     inkscape:pageshadow="2"
     inkscape:zoom="1"
     inkscape:cx="491.67435"
     inkscape:cy="39.671237"
     inkscape:document-units="mm"
     inkscape:current-layer="layer1"
     showgrid="false"
     inkscape:window-width="1920"
     inkscape:window-height="1027"
     inkscape:window-x="0"
     inkscape:window-y="0"
     inkscape:window-maximized="1"
     fit-margin-top="0"
     fit-margin-left="0"
     fit-margin-right="0"
     fit-margin-bottom="0" />
  <defs
     id="defs2">
    <marker
       inkscape:stockid="Arrow2Mend"
       orient="auto"
       refY="0"
       refX="0"
       id="Arrow2Mend"
       style="overflow:visible"
       inkscape:isstock="true">
      <path
         id="path844"
         style="fill:#000000;fill-opacity:1;fill-rule:evenodd;stroke:#000000;stroke-width:0.625;stroke-linejoin:round;stroke-opacity:1"
         d="M 8.7185878,4.0337352 -2.2072895,0.01601326 8.7185884,-4.0017078 c -1.7454984,2.3720609 -1.7354408,5.6174519 -6e-7,8.035443 z"
         transform="scale(-0.6)"
         inkscape:connector-curvature="0" />
    </marker>
    <marker
       inkscape:stockid="Arrow2Mend"
       orient="auto"
       refY="0"
       refX="0"
       id="Arrow2Mend-3"
       style="overflow:visible"
       inkscape:isstock="true">
      <path
         inkscape:connector-curvature="0"
         id="path844-6"
         style="fill:#000000;fill-opacity:1;fill-rule:evenodd;stroke:#000000;stroke-width:0.625;stroke-linejoin:round;stroke-opacity:1"
         d="M 8.7185878,4.0337352 -2.2072895,0.01601326 8.7185884,-4.0017078 c -1.7454984,2.3720609 -1.7354408,5.6174519 -6e-7,8.035443 z"
         transform="scale(-0.6)" />
    </marker>
  </defs>
  <metadata
     id="metadata5">
    <rdf:RDF>
      <cc:Work
         rdf:about="">
        <dc:format>image/svg+xml</dc:format>
        <dc:type
           rdf:resource="http://purl.org/dc/dcmitype/StillImage" />
        <dc:title></dc:title>
      </cc:Work>
    </rdf:RDF>
  </metadata>
  <g
     inkscape:label="Layer 1"
     inkscape:groupmode="layer"
     id="layer1"
     transform="translate(56.678561,-104.51503)">
    <path
       d="m 14.156471,137.62432 h 0.281609 l 0.002,-6.8e-4 h 0.06742 l 0.002,-6.4e-4 h 0.01795 l 0.002,-6.5e-4 h 0.01 l 0.002,-6.3e-4 h 0.0081 l 0.002,-6.7e-4 h 0.004 l 0.002,-6.5e-4 h 0.004 l 0.002,-6.5e-4 h 0.004 l 0.002,-6.3e-4 h 0.002 l 0.002,-6.7e-4 h 0.002 l 0.002,-6.5e-4 h 0.002 l 0.002,-6.5e-4 h 0.002 l 0.002,-6.6e-4 0.002,-6.4e-4 h 0.002 l 0.0043,-0.001 0.002,-6.6e-4 0.002,-6.4e-4 0.002,-6.5e-4 0.002,-6.5e-4 0.002,-6.6e-4 0.0038,-0.001 0.002,-6.4e-4 0.002,-6.4e-4 0.002,-0.001 0.002,-6.4e-4 0.002,-0.001 0.002,-6.4e-4 0.002,-0.001 0.002,-6.3e-4 0.002,-0.001 0.0038,-0.003 0.002,-0.001 0.002,-0.001 0.002,-0.003 0.002,-0.001 0.002,-0.003 0.002,-0.001 0.002,-0.003 0.004,-0.005 0.002,-0.003 0.002,-0.003 0.002,-0.003 0.002,-0.003 0.002,-0.003 0.002,-0.003 0.002,-0.003 0.002,-0.003 0.002,-0.005 0.004,-0.008 0.002,-0.005 0.002,-0.005 0.002,-0.005 0.002,-0.005 0.002,-0.005 0.004,-0.0135 0.002,-0.005 0.002,-0.005 0.002,-0.008 0.002,-0.008 0.002,-0.008 0.002,-0.008 0.002,-0.008 0.002,-0.008 0.002,-0.008 0.002,-0.008 0.002,-0.0108 0.002,-0.0108 0.002,-0.0108 0.002,-0.0108 0.002,-0.0108 0.002,-0.0108 0.002,-0.0135 0.002,-0.0135 0.0038,-0.0271 0.002,-0.0135 0.002,-0.016 0.002,-0.016 0.002,-0.016 0.002,-0.016 0.002,-0.016 0.002,-0.0187 0.002,-0.0187 0.002,-0.0187 0.0038,-0.0412 0.002,-0.0214 0.002,-0.0214 0.002,-0.0241 0.002,-0.0241 0.002,-0.0241 0.004,-0.052 0.002,-0.0279 0.002,-0.0287 0.002,-0.0295 0.002,-0.0295 0.002,-0.0325 0.002,-0.0322 0.002,-0.0333 0.002,-0.0349 0.002,-0.0357 0.004,-0.0753 0.002,-0.0393 0.002,-0.0412 0.002,-0.0423 0.002,-0.0428 0.002,-0.0447 0.002,-0.0469 0.002,-0.0474 0.002,-0.0482 0.002,-0.0512 0.002,-0.052 0.002,-0.0536 0.002,-0.0547 0.002,-0.0566 0.002,-0.0593 0.002,-0.0601 0.002,-0.0619 0.002,-0.0636 0.002,-0.0653 0.002,-0.0672 0.002,-0.0691 0.002,-0.0707 0.002,-0.0737 0.002,-0.0742 0.002,-0.0772 0.002,-0.0791 0.002,-0.0815 0.002,-0.0834 0.002,-0.0852 0.002,-0.088 0.002,-0.0897 0.002,-0.0915 0.002,-0.094 0.002,-0.0967 0.002,-0.0997 0.002,-0.10128 0.002,-0.10317 0.002,-0.1064 0.002,-0.10855 0.002,-0.11098 0.002,-0.11421 0.002,-0.11556 0.002,-0.11919 0.002,-0.12081 0.002,-0.12459 0.002,-0.12646 0.002,-0.12916 0.002,-0.13267 0.002,-0.13455 0.002,-0.13801 0.002,-0.14069 0.002,-0.14283 0.002,-0.14603 0.002,-0.149 0.002,-0.15248 0.002,-0.15409 0.002,-0.15757 0.002,-0.16051 0.002,-0.1632 0.002,-0.16694 0.002,-0.1683 0.002,-0.17203 0.002,-0.17579 0.002,-0.1774 0.002,-0.18115 0.002,-0.18383 0.002,-0.18651 0.002,-0.19 0.002,-0.19267 0.002,-0.19535 0.002,-0.19884 0.002,-0.20071 0.002,-0.20446 0.002,-0.20687 0.002,-0.20984 0.002,-0.2133 0.002,-0.21518 0.002,-0.21867 0.002,-0.22136 0.002,-0.22401 0.002,-0.22591 0.002,-0.22939 0.002,-0.23206 0.002,-0.23421 0.002,-0.23661 0.002,-0.24012 0.002,-0.24197 0.002,-0.24359 0.002,-0.24654 0.002,-0.24921 0.002,-0.25109 0.002,-0.25352 0.002,-0.25564 0.002,-0.25726 0.002,-0.25992 0.002,-0.26156 0.002,-0.26368 0.002,-0.26422 0.002,-0.26717 0.002,-0.26894 0.002,-0.26985 0.002,-0.27145 0.002,-0.27261 0.002,-0.27419 0.002,-0.27605 0.002,-0.27606 0.002,-0.27786 0.002,-0.2779 0.002,-0.27971 0.002,-0.28065 0.002,-0.28041 0.002,-0.28063 0.002,-0.28225 0.002,-0.28153 0.002,-0.28225 0.002,-0.28248 0.002,-0.28222 0.002,-0.28247 0.002,-0.28133 0.002,-0.28156 0.002,-0.28156 0.002,-0.28042 0.002,-0.27971 0.002,-0.27879 0.002,-0.27789 0.002,-0.27695 0.002,-0.27513 0.002,-0.27422 0.002,-0.27352 0.002,-0.27051 0.002,-0.26986 0.002,-0.26717 0.002,-0.26609 0.002,-0.2637 0.002,-0.261 0.002,-0.25913 0.002,-0.25645 0.002,-0.2535 0.002,-0.2511 0.002,-0.24841 0.002,-0.24546 0.002,-0.24199 0.002,-0.2385 0.002,-0.23554 0.002,-0.23233 0.002,-0.22752 0.002,-0.2251 0.002,-0.22054 0.002,-0.21679 0.002,-0.2125 0.002,-0.20795 0.002,-0.20446 0.002,-0.19884 0.002,-0.19535 0.002,-0.19026 0.002,-0.18544 0.002,-0.18007 0.002,-0.17581 0.002,-0.17123 0.002,-0.16507 0.002,-0.16025 0.002,-0.15436 0.002,-0.14952 0.002,-0.14337 0.002,-0.13827 0.002,-0.13266 0.002,-0.12647 0.002,-0.12081 0.002,-0.11461 0.002,-0.10856 0.002,-0.1029 0.002,-0.0967 0.002,-0.0904 0.002,-0.0842 0.002,-0.078 0.002,-0.0718 0.002,-0.0646 0.002,-0.0593 0.002,-0.052 0.002,-0.0469 0.002,-0.0383 0.002,-0.0333 0.002,-0.0268 0.002,-0.0187 0.002,-0.0135 0.002,-0.008 h 0.002 l 0.002,0.008 0.002,0.0135 0.002,0.0187 0.002,0.0268 0.002,0.0333 0.002,0.0383 0.002,0.0469 0.002,0.052 0.002,0.0593 0.002,0.0646 0.002,0.0718 0.002,0.078 0.002,0.0842 0.002,0.0904 0.002,0.0967 0.002,0.1029 0.002,0.10856 0.002,0.11461 0.002,0.12081 0.002,0.12647 0.002,0.13266 0.002,0.13827 0.002,0.14337 0.002,0.14952 0.002,0.15436 0.002,0.16025 0.002,0.16507 0.002,0.17123 0.002,0.17581 0.002,0.18007 0.002,0.18544 0.002,0.19026 0.002,0.19535 0.002,0.19884 0.002,0.20446 0.002,0.20795 0.002,0.2125 0.002,0.21679 0.002,0.22054 0.002,0.2251 0.002,0.22752 0.002,0.23233 0.002,0.23554 0.002,0.2385 0.002,0.24199 0.002,0.24546 0.002,0.24841 0.002,0.2511 0.002,0.2535 0.002,0.25645 0.002,0.25913 0.002,0.261 0.002,0.2637 0.002,0.26609 0.002,0.26717 0.002,0.26986 0.002,0.27051 0.002,0.27352 0.002,0.27422 0.002,0.27513 0.002,0.27695 0.002,0.27789 0.002,0.27879 0.002,0.27971 0.002,0.28042 0.002,0.28156 0.002,0.28156 0.002,0.28133 0.002,0.28247 0.002,0.28222 0.002,0.28248 0.002,0.28225 0.002,0.28153 0.002,0.28225 0.002,0.28063 0.002,0.28041 0.002,0.28065 0.002,0.27971 0.002,0.2779 0.002,0.27786 0.002,0.27606 0.002,0.27605 0.002,0.27419 0.002,0.27261 0.002,0.27145 0.002,0.26985 0.002,0.26894 0.002,0.26717 0.002,0.26422 0.002,0.26368 0.002,0.26156 0.002,0.25992 0.002,0.25726 0.002,0.25564 0.002,0.25352 0.002,0.25109 0.002,0.24921 0.002,0.24654 0.002,0.24359 0.002,0.24197 0.002,0.24012 0.002,0.23661 0.002,0.23421 0.002,0.23206 0.002,0.22939 0.002,0.22591 0.002,0.22401 0.002,0.22136 0.002,0.21867 0.002,0.21518 0.002,0.2133 0.002,0.20984 0.002,0.20687 0.002,0.20446 0.002,0.20071 0.002,0.19884 0.002,0.19535 0.002,0.19267 0.002,0.19 0.002,0.18651 0.002,0.18383 0.002,0.18115 0.002,0.1774 0.002,0.17579 0.002,0.17203 0.002,0.1683 0.002,0.16694 0.002,0.1632 0.002,0.16051 0.002,0.15757 0.002,0.15409 0.002,0.15248 0.002,0.149 0.002,0.14603 0.002,0.14283 0.002,0.14069 0.002,0.13801 0.002,0.13455 0.002,0.13267 0.002,0.12916 0.002,0.12646 0.002,0.12459 0.002,0.12081 0.002,0.11919 0.002,0.11556 0.002,0.11421 0.002,0.11098 0.002,0.10855 0.002,0.1064 0.002,0.10317 0.002,0.10128 0.002,0.0997 0.002,0.0967 0.002,0.094 0.002,0.0915 0.002,0.0897 0.002,0.088 0.002,0.0852 0.002,0.0834 0.002,0.0815 0.002,0.0791 0.002,0.0772 0.002,0.0742 0.002,0.0737 0.002,0.0707 0.002,0.0691 0.002,0.0672 0.002,0.0653 0.002,0.0636 0.002,0.0619 0.002,0.0601 0.002,0.0593 0.002,0.0566 0.002,0.0547 0.002,0.0536 0.002,0.052 0.002,0.0512 0.002,0.0482 0.002,0.0474 0.002,0.0469 0.002,0.0447 0.002,0.0428 0.004,0.0836 0.002,0.0393 0.002,0.0376 0.002,0.0376 0.002,0.036 0.002,0.0349 0.002,0.0333 0.002,0.0322 0.002,0.0325 0.002,0.0295 0.002,0.0295 0.002,0.0287 0.002,0.0279 0.002,0.0268 0.002,0.0268 0.002,0.0241 0.004,0.0466 0.002,0.0214 0.002,0.0214 0.002,0.0214 0.002,0.0214 0.002,0.0187 0.002,0.0187 0.002,0.0187 0.002,0.016 0.002,0.016 0.002,0.016 0.002,0.016 0.002,0.016 0.002,0.0135 0.002,0.0135 0.002,0.0135 0.002,0.0135 0.002,0.0135 0.002,0.0108 0.002,0.0108 0.002,0.0108 0.002,0.0108 0.002,0.0108 0.002,0.0108 0.002,0.008 0.002,0.008 0.002,0.008 0.002,0.008 0.002,0.008 0.002,0.008 0.002,0.008 0.002,0.008 0.002,0.005 0.002,0.005 0.002,0.005 0.002,0.005 0.002,0.005 0.0043,0.0108 0.002,0.005 0.002,0.005 0.002,0.005 0.002,0.005 0.002,0.005 0.004,0.008 0.002,0.003 0.002,0.003 0.002,0.003 0.002,0.003 0.002,0.003 0.002,0.003 0.002,0.003 0.002,0.003 0.002,0.003 0.002,10e-4 0.002,0.003 0.002,0.001 0.002,0.003 0.002,0.001 0.002,0.001 0.002,0.001 0.002,0.001 0.002,10e-4 0.002,6.5e-4 0.002,0.001 0.002,6.5e-4 0.002,0.001 0.002,6.4e-4 0.002,0.001 0.002,6.5e-4 0.002,6.4e-4 0.002,6.8e-4 0.004,0.001 0.002,6.5e-4 0.002,6.3e-4 0.002,6.5e-4 0.002,6.7e-4 0.002,6.5e-4 0.002,6.3e-4 h 0.002 l 0.004,0.001 h 0.002 l 0.002,6.3e-4 h 0.002 l 0.002,6.7e-4 h 0.002 l 0.002,6.5e-4 h 0.002 l 0.002,6.5e-4 h 0.004 l 0.002,6.3e-4 h 0.004 l 0.002,6.7e-4 h 0.004 l 0.002,6.5e-4 h 0.0081 l 0.002,6.5e-4 h 0.01 l 0.002,6.3e-4 h 0.01795 l 0.002,6.7e-4 h 0.0674 l 0.002,6.5e-4 h 0.281606"
       style="fill:#e3c2b7;fill-opacity:1;stroke:#6f4227;stroke-width:0.49631047;stroke-linecap:butt;stroke-linejoin:miter;stroke-miterlimit:10;stroke-dasharray:none;stroke-opacity:1"
       id="path6924"
       inkscape:connector-curvature="0" />
    <path
       style="fill:none;fill-rule:evenodd;stroke:#000000;stroke-width:0.70901495;stroke-linecap:butt;stroke-linejoin:miter;stroke-miterlimit:4;stroke-dasharray:none;stroke-opacity:1;marker-end:url(#Arrow2Mend)"
       d="M -56.678561,137.52112 H 88.055831"
       id="path815"
       inkscape:connector-curvature="0"
       sodipodi:nodetypes="cc" />
    <g
       transform="matrix(0.51631444,0,0,0.51631444,40.841291,92.866758)"
       id="g1893">
      <g
         style="font-style:normal;font-variant:normal;font-weight:normal;font-stretch:normal;letter-spacing:normal;word-spacing:normal;text-anchor:start;fill:none;fill-opacity:1;fill-rule:evenodd;stroke:#000000;stroke-linecap:butt;stroke-linejoin:miter;stroke-miterlimit:10.43299961;stroke-dasharray:none;stroke-dashoffset:0;stroke-opacity:1"
         id="content"
         transform="matrix(0.3,0,0,-0.3,-52.5,222.75)"
         xml:space="preserve"
         stroke-miterlimit="10.433"
         font-style="normal"
         font-variant="normal"
         font-weight="normal"
         font-stretch="normal"
         font-size-adjust="none"
         letter-spacing="normal"
         word-spacing="normal"><path
           style="fill:#000000;stroke-width:0"
           inkscape:connector-curvature="0"
           d="m 472.16,421.25 0.03,0.13 0.04,0.15 0.04,0.16 0.04,0.18 0.06,0.19 0.06,0.21 0.06,0.22 0.07,0.22 0.08,0.23 0.09,0.24 0.1,0.25 0.1,0.24 0.11,0.25 0.12,0.25 0.13,0.25 0.14,0.25 0.15,0.24 0.15,0.24 0.17,0.23 0.18,0.22 0.18,0.22 0.2,0.2 0.21,0.19 0.22,0.18 0.23,0.16 0.25,0.14 0.12,0.07 0.13,0.06 0.14,0.05 0.13,0.05 0.14,0.05 0.14,0.04 0.15,0.03 0.15,0.03 0.15,0.02 0.16,0.02 0.16,0.01 h 0.16 c 0.25,0 1.44,0 2.48,-0.64 -1.39,-0.25 -2.39,-1.5 -2.39,-2.69 0,-0.79 0.55,-1.75 1.89,-1.75 1.1,0 2.69,0.89 2.69,2.89 0,2.6 -2.94,3.28 -4.63,3.28 -2.89,0 -4.64,-2.64 -5.23,-3.78 -1.25,3.28 -3.94,3.78 -5.37,3.78 -5.19,0 -8.04,-6.42 -8.04,-7.67 0,-0.5 0.5,-0.5 0.61,-0.5 0.39,0 0.55,0.11 0.64,0.55 1.69,5.28 4.99,6.53 6.68,6.53 0.95,0 2.68,-0.44 2.68,-3.33 0,-1.54 -0.84,-4.89 -2.68,-11.86 -0.8,-3.09 -2.54,-5.18 -4.74,-5.18 -0.3,0 -1.44,0 -2.48,0.65 1.25,0.24 2.34,1.28 2.34,2.69 0,1.34 -1.09,1.73 -1.84,1.73 -1.5,0 -2.75,-1.29 -2.75,-2.89 0,-2.28 2.5,-3.28 4.68,-3.28 3.3,0 5.08,3.49 5.24,3.78 0.59,-1.84 2.39,-3.78 5.37,-3.78 5.14,0 7.99,6.42 7.99,7.67 0,0.5 -0.45,0.5 -0.61,0.5 -0.44,0 -0.55,-0.2 -0.64,-0.54 -1.64,-5.33 -5.03,-6.53 -6.63,-6.53 -1.95,0 -2.75,1.59 -2.75,3.29 0,1.1 0.3,2.19 0.86,4.38 z"
           id="path1890" /></g>    </g>
    <path
       sodipodi:nodetypes="ccccccccccccccccccccccccccccccccccccccccccccccccccccccccccccccccccccccccccccccccccccccccccccccccccccccccccccccccccccccccccccccccccccccccccccccccccccccccccccccccccccccccccccccccccccccccccccccccccccccccccccccccccccccccccccccccccccccccccccccccccccccccccccccccccccccccccccccccccccccccccccccccccccccccccccccccccccccccccccccccccccccccccccccccccccccccccccccccccccccccccccccccccccccccccccccccccccccccccccccccccccccccccccccccccccccccccccccccccccccccccccccccccccccccccccccccccccccccccccccccccccccccccccccccccccccccccccccccccccccccccccccccccccccccccccccccccccccccccccccccccccccc"
       d="m -56.261831,128.0881 0.06426,-0.4048 0.06426,-0.403 0.06426,-0.39936 0.06426,-0.394 0.06426,-0.3868 0.06426,-0.37792 0.06426,-0.36735 0.06426,-0.35512 0.06426,-0.34129 0.06426,-0.32596 0.06426,-0.30916 0.06426,-0.291 0.06426,-0.27151 0.06426,-0.25082 0.06426,-0.22912 0.06426,-0.20606 0.06428,-0.1825 0.06426,-0.15757 0.06426,-0.13239 0.06426,-0.10667 0.06426,-0.0801 0.06423,-0.0536 0.06426,-0.0268 0.06428,4.8e-4 0.06426,0.0273 0.06426,0.0547 0.06426,0.0812 0.06426,0.10775 0.06426,0.13347 0.06426,0.15864 0.06426,0.18329 0.06426,0.20687 0.06426,0.22992 0.06426,0.25163 0.06426,0.27218 0.06426,0.29159 0.06426,0.30975 0.06426,0.32649 0.06426,0.34179 0.06426,0.35555 0.06426,0.36774 0.06426,0.37824 0.06426,0.38708 0.06426,0.39417 0.06426,0.39952 0.06426,0.40312 0.06426,0.4048 0.06426,0.40475 0.06426,0.40292 0.06426,0.39918 0.06426,0.39378 0.06426,0.38656 0.06426,0.37759 0.06426,0.36695 0.06426,0.35469 0.06426,0.34084 0.06426,0.32539 0.06426,0.30858 0.06426,0.29037 0.06426,0.27085 0.06426,0.25001 0.06426,0.22832 0.06426,0.20527 0.06423,0.18169 0.06426,0.15675 0.06426,0.13159 0.06426,0.10586 0.06426,0.0793 0.06426,0.0528 0.06426,0.0268 0.06426,-0.001 0.06426,-0.0284 0.06426,-0.0555 0.06426,-0.082 0.06426,-0.10828 0.06426,-0.13428 0.06426,-0.15972 0.06426,-0.1841 0.06426,-0.20768 0.06426,-0.23046 0.06426,-0.25216 0.06426,-0.27285 0.06426,-0.29223 0.06426,-0.31031 0.06426,-0.32704 0.06426,-0.34226 0.06426,-0.35599 0.06426,-0.36806 0.06426,-0.3786 0.06426,-0.38731 0.06426,-0.3944 0.06426,-0.39969 0.06426,-0.40316 0.06426,-0.40483 0.06426,-0.40475 0.06426,-0.40282 0.06426,-0.39904 0.06426,-0.39355 0.06426,-0.38631 0.06426,-0.37724 0.06426,-0.36657 0.06426,-0.35426 0.06428,-0.34033 0.06426,-0.32492 0.06426,-0.30798 0.06426,-0.28973 0.06426,-0.27015 0.06423,-0.24949 0.06426,-0.2275 0.06426,-0.20447 0.06426,-0.18088 0.06426,-0.15596 0.06426,-0.13078 0.06426,-0.10505 0.06426,-0.0785 0.06426,-0.0517 0.06426,-0.0241 0.06426,0.003 0.06426,0.0292 0.06426,0.0563 0.06428,0.0828 0.06426,0.10936 0.06426,0.13506 0.06426,0.16052 0.06426,0.18491 0.06426,0.20848 0.06426,0.23126 0.06426,0.25297 0.06426,0.27349 0.06426,0.29287 0.06426,0.31087 0.06426,0.32761 0.06426,0.34271 0.06426,0.35643 0.06426,0.36846 0.06428,0.37889 0.06426,0.38761 0.06426,0.39461 0.06426,0.39979 0.06426,0.40325 0.06426,0.40485 0.06426,0.40472 0.06426,0.40272 0.06426,0.3989 0.06426,0.39336 0.06426,0.38599 0.06426,0.37693 0.06426,0.36619 0.06426,0.35386 0.06423,0.33982 0.06426,0.32433 0.06426,0.30743 0.06426,0.28911 0.06429,0.2695 0.06426,0.24868 0.06426,0.22698 0.06426,0.20365 0.06426,0.18009 0.06426,0.15515 0.06426,0.12997 0.06426,0.10425 0.06426,0.0777 0.06426,0.0509 0.06426,0.0241 0.06426,-0.003 0.06426,-0.03 0.06426,-0.0574 0.06426,-0.0836 0.06429,-0.11018 0.06426,-0.13586 0.06426,-0.16106 0.06426,-0.1857 0.06426,-0.20901 0.06426,-0.23208 0.06426,-0.2535 0.06426,-0.27419 0.06426,-0.29348 0.06426,-0.3115 0.06426,-0.32805 0.06426,-0.34322 0.06426,-0.35683 0.06426,-0.36887 0.06426,-0.37916 0.06428,-0.38789 0.06426,-0.39481 0.06426,-0.39993 0.06426,-0.40335 0.06426,-0.40488 0.06426,-0.4047 0.06426,-0.40257 0.06426,-0.39878 0.06421,-0.39311 0.06431,-0.38572 0.06423,-0.37662 0.06426,-0.36584 0.06426,-0.35331 0.06426,-0.3394 0.06426,-0.32379 0.06426,-0.30685 0.06426,-0.28848 0.06426,-0.26886 0.06426,-0.24815 0.06429,-0.22616 0.06426,-0.20286 0.06426,-0.17928 0.06426,-0.15434 0.06426,-0.12916 0.06426,-0.10317 0.06426,-0.0766 0.06426,-0.0501 0.06426,-0.0241 0.06426,0.005 0.06426,0.0308 0.06426,0.0582 0.06426,0.0847 0.06426,0.11125 0.06426,0.13668 0.06426,0.16212 0.06426,0.1865 0.06426,0.20983 0.06426,0.23288 0.06426,0.25429 0.06426,0.27481 0.06426,0.29411 0.06426,0.31206 0.06426,0.32861 0.06426,0.34367 0.06426,0.35726 0.06426,0.36925 0.06426,0.37954 0.06426,0.38805 0.06426,0.39502 0.06426,0.40011 0.06429,0.40341 0.06426,0.4049 0.06423,0.40462 0.06426,0.4025 0.06426,0.39863 0.06426,0.39291 0.06426,0.38545 0.06426,0.37627 0.06426,0.36543 0.06426,0.35293 0.06426,0.33885 0.06426,0.3233 0.06426,0.30625 0.06426,0.28783 0.06426,0.26803 0.06426,0.24733 0.06426,0.22511 0.06426,0.20232 0.06426,0.17847 0.06426,0.15355 0.06426,0.12809 0.06426,0.10236 0.06426,0.0758 0.06426,0.049 0.06426,0.0214 0.06426,-0.005 0.06426,-0.0319 0.06426,-0.059 0.06426,-0.0855 0.06426,-0.11206 0.06426,-0.13747 0.06426,-0.16267 0.06426,-0.1873 0.06426,-0.21063 0.06426,-0.23341 0.06426,-0.25511 0.06426,-0.27551 0.06426,-0.29472 0.06426,-0.31258 0.06426,-0.32913 0.06426,-0.34422 0.06426,-0.35769 0.06426,-0.36956 0.06426,-0.37982 0.06423,-0.38836 0.06426,-0.39523 0.06426,-0.40025 0.06426,-0.40345 0.05917,-0.37461 0.05914,-0.37443 0.06426,-0.40302 0.06426,-0.39936 0.06426,-0.394 0.06426,-0.3868 0.06426,-0.37792 0.06426,-0.36733 0.06426,-0.35512 0.06426,-0.34129 0.06426,-0.32597 0.06426,-0.30916 0.06426,-0.29099 0.06426,-0.27152 0.06426,-0.25082 0.06426,-0.22911 0.06426,-0.20608 0.06429,-0.1825 0.06426,-0.15756 0.06426,-0.1324 0.06426,-0.10667 0.06426,-0.0801 0.06423,-0.0536 0.06426,-0.0268 0.06429,4.9e-4 0.06426,0.0273 0.06426,0.0547 0.06426,0.0812 0.06426,0.10775 0.06426,0.13347 0.06426,0.15864 0.06426,0.18329 0.06426,0.20689 0.06426,0.22992 0.06426,0.25163 0.06426,0.27218 0.06426,0.29157 0.06426,0.30976 0.06426,0.3265 0.06426,0.34177 0.06426,0.35555 0.06426,0.36774 0.06426,0.37825 0.06426,0.38709 0.06426,0.39416 0.06426,0.39953 0.06426,0.4031 0.06426,0.40481 0.06426,0.40475 0.06426,0.40291 0.06426,0.39919 0.06426,0.39379 0.06426,0.38655 0.06426,0.3776 0.06426,0.36693 0.06426,0.3547 0.06426,0.34083 0.06426,0.32541 0.06426,0.30856 0.06426,0.29038 0.06426,0.27084 0.06426,0.25003 0.06426,0.2283 0.06426,0.20527 0.06423,0.18169 0.06426,0.15677 0.06426,0.13159 0.06426,0.10586 0.06426,0.0793 0.06426,0.0528 0.06426,0.0268 0.06426,-10e-4 0.06426,-0.0284 0.06426,-0.0555 0.06426,-0.082 0.06426,-0.10829 0.06426,-0.13428 0.06426,-0.15971 0.06426,-0.18409 0.06426,-0.20769 0.06426,-0.23045 0.06426,-0.25217 0.06426,-0.27285 0.06426,-0.29223 0.06426,-0.31032 0.06426,-0.32702 0.06426,-0.34226 0.06426,-0.35601 0.06426,-0.36806 0.06426,-0.37859 0.06426,-0.38731 0.06426,-0.3944 0.06426,-0.39968 0.06426,-0.40318 0.06426,-0.40483 0.06426,-0.40473 0.06426,-0.40283 0.06426,-0.39904 0.06426,-0.39354 0.06426,-0.38631 0.06426,-0.37726 0.06426,-0.36656 0.06426,-0.35427 0.06429,-0.34033 0.06426,-0.32491 0.06426,-0.30798 0.06426,-0.28974 0.06426,-0.27014 0.06423,-0.24948 0.06426,-0.22751 0.06426,-0.20448 0.06426,-0.18087 0.06426,-0.15597 0.06426,-0.13078 0.06426,-0.10505 0.06426,-0.0785 0.06426,-0.0517 0.06426,-0.0241 0.06426,0.003 0.06426,0.0292 0.06426,0.0563 0.06429,0.0828 0.06426,0.10937 0.06426,0.13506 0.06426,0.16051 0.06426,0.18489 0.06426,0.20849 0.06426,0.23127 0.06426,0.25296 0.06426,0.2735 0.06426,0.29287 0.06426,0.31088 0.06426,0.32759 0.06426,0.34271 0.06426,0.35644 0.06426,0.36847 0.06429,0.37887 0.06426,0.38761 0.06426,0.39462 0.06426,0.39979 0.06426,0.40324 0.06426,0.40486 0.06426,0.40472 0.06426,0.40271 0.06426,0.39891 0.06426,0.39336 0.06426,0.38599 0.06426,0.37692 0.06426,0.36619 0.06426,0.35387 0.06423,0.33982 0.06426,0.32433 0.06426,0.30741 0.06426,0.28911 0.06429,0.26951 0.06426,0.24869 0.06426,0.22697 0.06426,0.20365 0.06426,0.18009 0.06426,0.15515 0.06426,0.12997 0.06426,0.10424 0.06426,0.0777 0.06426,0.0509 0.06426,0.0241 0.06426,-0.003 0.06426,-0.03 0.06426,-0.0574 0.06426,-0.0836 0.06429,-0.11017 0.06426,-0.13585 0.06426,-0.16106 0.06426,-0.1857 0.06426,-0.20903 0.06426,-0.23205 0.06426,-0.25352 0.06426,-0.27419 0.06426,-0.29348 0.06426,-0.31149 0.06426,-0.32806 0.06426,-0.34322 0.06426,-0.35683 0.06426,-0.36887 0.06426,-0.37915 0.06429,-0.3879 0.06426,-0.3948 0.06426,-0.39993 0.06426,-0.40336 0.06426,-0.40487 0.06426,-0.4047 0.06426,-0.40258 0.06426,-0.39877 0.06421,-0.39312 0.06431,-0.38572 0.06423,-0.3766 0.06426,-0.36584 0.06426,-0.35333 0.06426,-0.33939 0.06426,-0.32379 0.06426,-0.30686 0.06426,-0.28848 0.06426,-0.26886 0.06426,-0.24814 0.06429,-0.22617 0.06426,-0.20286 0.06426,-0.17928 0.06426,-0.15434 0.06426,-0.12916 0.06426,-0.10317 0.06426,-0.0766 0.06426,-0.0501 0.06426,-0.0241 0.06426,0.005 0.06426,0.0308 0.06426,0.0582 0.06426,0.0847 0.06426,0.11125 0.06426,0.13666 0.06426,0.16213 0.06426,0.18651 0.06426,0.20983 0.06426,0.23286 0.06426,0.25431 0.06426,0.27481 0.06426,0.29409 0.06426,0.31207 0.06426,0.32861 0.06426,0.34368 0.06426,0.35726 0.06426,0.36924 0.06426,0.37953 0.06426,0.38805 0.06426,0.39503 0.06426,0.40012 0.06429,0.4034 0.06426,0.40491 0.06423,0.40462 0.06426,0.4025 0.06426,0.39863 0.06426,0.3929 0.06426,0.38546 0.06426,0.37625 0.06426,0.36544 0.06426,0.35292 0.06426,0.33887 0.06426,0.3233 0.06426,0.30625 0.06426,0.28783 0.06426,0.26802 0.06426,0.24734 0.06426,0.2251 0.06426,0.20232 0.06426,0.17847 0.06426,0.15355 0.06426,0.12808 0.06426,0.10236 0.06426,0.0758 0.06426,0.049 0.06426,0.0214 0.06426,-0.005 0.06426,-0.0319 0.06426,-0.059 0.06426,-0.0855 0.06426,-0.11206 0.06426,-0.13747 0.06426,-0.16266 0.06426,-0.18732 0.06426,-0.21063 0.06426,-0.2334 0.06426,-0.25511 0.06426,-0.2755 0.06426,-0.29472 0.06426,-0.3126 0.06426,-0.32912 0.06426,-0.34421 0.06426,-0.35769 0.06426,-0.36957 0.06426,-0.37982 0.06423,-0.38835 0.06426,-0.39524 0.06426,-0.40024 0.06426,-0.40347 0.06429,-0.40496 0.06426,-0.40457 0.06426,-0.4024"
       style="fill:none;stroke:#195ac7;stroke-width:0.70901495;stroke-linecap:butt;stroke-linejoin:miter;stroke-miterlimit:10;stroke-dasharray:none;stroke-opacity:1"
       id="path4255"
       inkscape:connector-curvature="0" />
    <path
       sodipodi:nodetypes="cccccccc"
       inkscape:connector-curvature="0"
       id="path18791"
       d="m -21.664346,130.6435 v -5.9249 h 5.925375 v -3.48087 l 4.972084,6.31427 -4.972084,6.86231 v -3.77081 z"
       style="fill:#8fb4f1;fill-opacity:1;fill-rule:evenodd;stroke:#1c67e3;stroke-width:0.23439287px;stroke-linecap:butt;stroke-linejoin:miter;stroke-opacity:1" />
    <g
       transform="matrix(0.53607332,0,0,0.53607332,-98.349953,57.3586)"
       id="g4601">
      <g
         style="font-style:normal;font-variant:normal;font-weight:normal;font-stretch:normal;letter-spacing:normal;word-spacing:normal;text-anchor:start;fill:none;fill-opacity:1;fill-rule:evenodd;stroke:#000000;stroke-linecap:butt;stroke-linejoin:miter;stroke-miterlimit:10.43299961;stroke-dasharray:none;stroke-dashoffset:0;stroke-opacity:1"
         word-spacing="normal"
         letter-spacing="normal"
         font-size-adjust="none"
         font-stretch="normal"
         font-weight="normal"
         font-variant="normal"
         font-style="normal"
         stroke-miterlimit="10.433"
         xml:space="preserve"
         transform="matrix(0.3,0,0,-0.3,-52.5,222.75)"
         id="g4599"><path
           style="fill:#000000;stroke-width:0"
           inkscape:connector-curvature="0"
           id="path4581"
           d="m 466.72,436.34 v 0.16 l 0.01,0.16 v 0.15 l 0.01,0.15 0.01,0.13 0.01,0.13 0.02,0.13 0.03,0.11 0.03,0.12 0.04,0.1 0.05,0.1 0.05,0.09 0.06,0.09 0.08,0.08 0.08,0.08 0.09,0.07 0.11,0.06 0.12,0.06 0.06,0.03 0.07,0.03 0.07,0.02 0.07,0.03 0.08,0.02 0.08,0.02 0.08,0.02 0.09,0.02 0.09,0.02 0.1,0.02 0.1,0.02 0.11,0.01 0.1,0.01 0.12,0.02 0.11,0.01 0.13,0.01 0.12,0.01 0.13,0.01 0.14,0.01 0.14,0.01 h 0.15 l 0.15,0.01 h 0.15 l 0.16,0.01 h 0.17 0.17 0.17 0.19 1.29 v 1.55 c -1.75,-0.16 -5.68,-0.16 -7.57,-0.16 -1.94,0 -5.88,0 -7.63,0.16 v -1.55 h 1.3 c 3.93,0 4.09,-0.54 4.09,-2.34 v -26.25 c 0,-1.8 -0.16,-2.34 -4.09,-2.34 h -1.3 v -1.55 c 1.75,0.16 5.69,0.16 7.58,0.16 1.94,0 5.87,0 7.62,-0.16 v 1.55 h -1.29 c -3.94,0 -4.1,0.54 -4.1,2.34 z" /><path
           style="fill:#000000;stroke-width:0"
           inkscape:connector-curvature="0"
           id="path4583"
           d="m 479,423.34 v -13.36 c 0,-2.23 -0.54,-2.23 -3.89,-2.23 v -1.55 c 1.75,0.05 4.28,0.16 5.63,0.16 1.3,0 3.89,-0.11 5.58,-0.16 v 1.55 c -3.33,0 -3.88,0 -3.88,2.23 v 9.17 c 0,5.19 3.53,7.97 6.72,7.97 3.14,0 3.69,-2.69 3.69,-5.53 v -11.61 c 0,-2.23 -0.55,-2.23 -3.89,-2.23 v -1.55 c 1.75,0.05 4.29,0.16 5.64,0.16 1.29,0 3.87,-0.11 5.58,-0.16 v 1.55 c -2.6,0 -3.85,0 -3.89,1.5 v 9.51 c 0,4.28 0,5.83 -1.55,7.61 -0.69,0.86 -2.35,1.84 -5.22,1.84 -3.64,0 -5.98,-2.14 -7.38,-5.21 v 5.21 l -7.03,-0.54 v -1.55 c 3.49,0 3.89,-0.34 3.89,-2.78 z" /><path
           style="fill:#000000;stroke-width:0"
           inkscape:connector-curvature="0"
           id="path4585"
           d="m 507.07,417.06 v 0.38 l 0.01,0.36 0.01,0.36 0.02,0.35 0.03,0.34 0.03,0.34 0.04,0.32 0.04,0.32 0.04,0.31 0.05,0.3 0.06,0.29 0.06,0.29 0.14,0.55 0.15,0.51 0.16,0.49 0.19,0.46 0.19,0.43 0.21,0.4 0.22,0.38 0.23,0.35 0.24,0.32 0.25,0.3 0.26,0.28 0.26,0.26 0.27,0.23 0.28,0.21 0.28,0.19 0.28,0.16 0.28,0.15 0.28,0.13 0.29,0.12 0.28,0.09 0.28,0.08 0.27,0.06 0.27,0.05 0.27,0.03 0.26,0.02 0.25,0.01 c 0.44,0 3.58,-0.05 5.33,-1.85 -2.05,-0.15 -2.35,-1.64 -2.35,-2.29 0,-1.3 0.9,-2.3 2.3,-2.3 1.28,0 2.28,0.86 2.28,2.34 0,3.39 -3.78,5.33 -7.62,5.33 -6.22,0 -10.81,-5.37 -10.81,-11.55 0,-6.37 4.93,-11.31 10.72,-11.31 6.67,0 8.26,5.99 8.26,6.47 0,0.5 -0.5,0.5 -0.64,0.5 -0.45,0 -0.55,-0.19 -0.66,-0.5 -1.43,-4.62 -4.67,-5.22 -6.51,-5.22 -2.64,0 -7.03,2.14 -7.03,10.16 z" /><path
           style="fill:#000000;stroke-width:0"
           inkscape:connector-curvature="0"
           id="path4587"
           d="m 532.13,428.21 -6.97,-0.54 v -1.55 c 3.24,0 3.69,-0.3 3.69,-2.73 v -13.41 c 0,-2.23 -0.55,-2.23 -3.89,-2.23 v -1.55 c 1.59,0.05 4.28,0.16 5.48,0.16 1.75,0 3.49,-0.11 5.19,-0.16 v 1.55 c -3.3,0 -3.5,0.25 -3.5,2.18 z" /><path
           style="fill:#000000;stroke-width:0"
           inkscape:connector-curvature="0"
           id="path4589"
           d="m 532.33,436.89 v 0.14 l -0.01,0.15 -0.02,0.14 -0.02,0.14 -0.04,0.13 -0.03,0.13 -0.05,0.13 -0.05,0.12 -0.05,0.12 -0.06,0.12 -0.07,0.11 -0.07,0.1 -0.07,0.1 -0.08,0.1 -0.09,0.1 -0.09,0.08 -0.09,0.09 -0.1,0.08 -0.1,0.07 -0.1,0.07 -0.11,0.07 -0.11,0.06 -0.11,0.05 -0.12,0.05 -0.12,0.04 -0.12,0.04 -0.12,0.03 -0.13,0.03 -0.12,0.02 -0.13,0.01 -0.13,0.01 -0.13,0.01 c -1.54,0 -2.64,-1.35 -2.64,-2.64 0,-1.35 1.1,-2.64 2.64,-2.64 1.39,0 2.64,1.04 2.64,2.64 z" /><path
           style="fill:#000000;stroke-width:0"
           inkscape:connector-curvature="0"
           id="path4591"
           d="m 556.05,408.93 v -3.28 l 7.31,0.55 v 1.55 c -3.48,0 -3.87,0.34 -3.87,2.78 v 30.25 l -7.17,-0.55 v -1.55 c 3.48,0 3.87,-0.34 3.87,-2.79 v -10.75 c -1.44,1.78 -3.58,3.07 -6.28,3.07 l 0.2,-1.09 c 1.75,0 3.85,-0.75 5.39,-2.98 0.55,-0.85 0.55,-0.96 0.55,-1.85 v 0 -10.22 c 0,-0.89 0,-1 -0.55,-1.84 -1.5,-2.39 -3.75,-3.48 -5.89,-3.48 -2.23,0 -4.03,1.29 -5.21,3.18 -1.3,2.05 -1.46,4.89 -1.46,6.93 0,1.84 0.09,4.84 1.55,7.07 1.04,1.55 2.94,3.19 5.62,3.19 l -0.2,1.09 c -5.88,0 -11.11,-4.87 -11.11,-11.29 0,-6.33 4.89,-11.27 10.56,-11.27 3.19,0 5.44,1.69 6.69,3.28 z" /><path
           style="fill:#000000;stroke-width:0"
           inkscape:connector-curvature="0"
           id="path4593"
           d="m 570.36,417.71 0.05,1.05 c 0.3,7.42 4.49,8.66 6.19,8.66 5.12,0 5.62,-6.72 5.62,-8.66 h -11.81 l -0.05,-1.05 h 13.91 c 1.09,0 1.23,0 1.23,1.05 0,4.92 -2.68,9.75 -8.9,9.75 -5.78,0 -10.38,-5.12 -10.38,-11.36 0,-6.67 5.24,-11.5 10.97,-11.5 6.08,0 8.31,5.53 8.31,6.47 0,0.5 -0.39,0.61 -0.64,0.61 -0.45,0 -0.54,-0.3 -0.65,-0.7 -1.74,-5.13 -6.22,-5.13 -6.72,-5.13 -2.5,0 -4.49,1.49 -5.63,3.33 -1.5,2.39 -1.5,5.69 -1.5,7.48 z" /><path
           style="fill:#000000;stroke-width:0"
           inkscape:connector-curvature="0"
           id="path4595"
           d="m 592.4,423.34 v -13.36 c 0,-2.23 -0.55,-2.23 -3.9,-2.23 v -1.55 c 1.75,0.05 4.28,0.16 5.63,0.16 1.3,0 3.89,-0.11 5.58,-0.16 v 1.55 c -3.33,0 -3.88,0 -3.88,2.23 v 9.17 c 0,5.19 3.53,7.97 6.72,7.97 3.14,0 3.69,-2.69 3.69,-5.53 v -11.61 c 0,-2.23 -0.55,-2.23 -3.89,-2.23 v -1.55 c 1.75,0.05 4.3,0.16 5.64,0.16 1.29,0 3.87,-0.11 5.58,-0.16 v 1.55 c -2.6,0 -3.85,0 -3.89,1.5 v 9.51 c 0,4.28 0,5.83 -1.55,7.61 -0.69,0.86 -2.35,1.84 -5.22,1.84 -3.64,0 -5.98,-2.14 -7.38,-5.21 v 5.21 l -7.03,-0.54 v -1.55 c 3.49,0 3.9,-0.34 3.9,-2.78 z" /><path
           style="fill:#000000;stroke-width:0"
           inkscape:connector-curvature="0"
           id="path4597"
           d="m 621.81,426.12 h 7.13 v 1.55 h -7.13 v 9.17 h -1.25 c -0.04,-4.08 -1.54,-9.42 -6.42,-9.61 v -1.11 h 4.24 v -13.75 c 0,-6.12 4.62,-6.72 6.42,-6.72 3.53,0 4.93,3.53 4.93,6.72 v 2.84 h -1.25 v -2.73 c 0,-3.69 -1.5,-5.58 -3.34,-5.58 -3.33,0 -3.33,4.53 -3.33,5.38 z" /></g>    </g>
    <g
       transform="matrix(0.53607332,0,0,0.53607332,-98.157118,63.766321)"
       id="g4673">
      <g
         style="font-style:normal;font-variant:normal;font-weight:normal;font-stretch:normal;letter-spacing:normal;word-spacing:normal;text-anchor:start;fill:none;fill-opacity:1;fill-rule:evenodd;stroke:#000000;stroke-linecap:butt;stroke-linejoin:miter;stroke-miterlimit:10.43299961;stroke-dasharray:none;stroke-dashoffset:0;stroke-opacity:1"
         id="g4671"
         transform="matrix(0.3,0,0,-0.3,-52.5,222.75)"
         xml:space="preserve"
         stroke-miterlimit="10.433"
         font-style="normal"
         font-variant="normal"
         font-weight="normal"
         font-stretch="normal"
         font-size-adjust="none"
         letter-spacing="normal"
         word-spacing="normal"><path
           style="fill:#000000;stroke-width:0"
           inkscape:connector-curvature="0"
           d="m 464.08,424.93 v 3.28 l -7.17,-0.54 v -1.55 c 3.55,0 3.89,-0.3 3.89,-2.48 v -23.32 c 0,-2.25 -0.55,-2.25 -3.89,-2.25 v -1.54 c 1.7,0.06 4.28,0.15 5.58,0.15 1.34,0 3.89,-0.09 5.64,-0.15 v 1.54 c -3.34,0 -3.89,0 -3.89,2.25 v 8.36 0.46 l 0.7,0.65 c -0.7,1.05 -0.7,1.1 -0.7,2.08 v 0 11.13 c 1.44,2.53 3.89,3.98 6.42,3.98 3.64,0 6.69,-4.39 6.69,-10.02 0,-6.03 -3.5,-10.21 -7.19,-10.21 -1.98,0 -3.87,1 -5.22,3.04 l -0.7,-0.65 c 0.25,-0.8 2.34,-3.49 6.12,-3.49 5.94,0 11.11,4.88 11.11,11.31 0,6.33 -4.83,11.25 -10.4,11.25 -3.89,0 -5.99,-2.18 -6.99,-3.28 z"
           id="path4653" /><path
           style="fill:#000000;stroke-width:0"
           inkscape:connector-curvature="0"
           d="m 499.83,409.98 0.02,-0.19 0.03,-0.18 0.04,-0.19 0.04,-0.18 0.05,-0.19 0.06,-0.18 0.06,-0.18 0.07,-0.18 0.07,-0.18 0.08,-0.17 0.09,-0.18 0.09,-0.16 0.1,-0.16 0.11,-0.16 0.12,-0.16 0.11,-0.14 0.13,-0.14 0.13,-0.14 0.14,-0.13 0.15,-0.12 0.15,-0.12 0.15,-0.1 0.17,-0.1 0.16,-0.09 0.18,-0.08 0.18,-0.07 0.19,-0.06 0.19,-0.05 0.2,-0.04 0.21,-0.03 0.21,-0.02 0.21,-0.01 c 1.03,0 4.08,0.71 4.08,4.74 v 2.78 h -1.25 v -2.78 c 0,-2.89 -1.23,-3.19 -1.8,-3.19 -1.64,0 -1.84,2.23 -1.84,2.48 v 9.97 c 0,2.1 0,4.03 -1.78,5.88 -1.95,1.93 -4.44,2.73 -6.83,2.73 -4.09,0 -7.53,-2.33 -7.53,-5.62 0,-1.49 1,-2.35 2.3,-2.35 1.39,0 2.29,1 2.29,2.3 0,0.59 -0.25,2.23 -2.54,2.3 1.34,1.73 3.78,2.28 5.37,2.28 2.45,0 5.28,-1.94 5.28,-6.38 v -1.84 -1.05 -4.98 c 0,-4.74 -3.58,-6.42 -5.83,-6.42 -2.43,0 -4.48,1.75 -4.48,4.23 0,2.73 2.09,6.88 10.31,7.17 v 0 1.05 c -2.53,-0.14 -6.01,-0.3 -9.15,-1.8 -3.74,-1.69 -4.99,-4.28 -4.99,-6.47 0,-4.03 4.83,-5.28 7.97,-5.28 3.3,0 5.58,1.99 6.53,4.33 z"
           id="path4655" /><path
           style="fill:#000000;stroke-width:0"
           inkscape:connector-curvature="0"
           d="m 516.51,422.75 v 5.46 l -6.92,-0.54 v -1.55 c 3.48,0 3.89,-0.34 3.89,-2.78 v -13.36 c 0,-2.23 -0.55,-2.23 -3.89,-2.23 v -1.55 c 1.95,0.05 4.28,0.16 5.68,0.16 1.99,0 4.33,0 6.33,-0.16 v 1.55 h -1.05 c -3.68,0 -3.79,0.54 -3.79,2.34 v 7.67 c 0,4.92 2.09,9.36 5.89,9.36 0.34,0 0.44,0 0.55,-0.05 -0.16,-0.04 -1.16,-0.64 -1.16,-1.93 0,-1.41 1.05,-2.14 2.16,-2.14 0.89,0 2.14,0.59 2.14,2.18 0,1.6 -1.55,3.03 -3.69,3.03 -3.64,0 -5.44,-3.32 -6.14,-5.46 z"
           id="path4657" /><path
           style="fill:#000000;stroke-width:0"
           inkscape:connector-curvature="0"
           d="m 536.38,426.12 h 7.12 v 1.55 h -7.12 v 9.17 h -1.25 c -0.05,-4.08 -1.55,-9.42 -6.42,-9.61 v -1.11 h 4.23 v -13.75 c 0,-6.12 4.63,-6.72 6.42,-6.72 3.54,0 4.94,3.53 4.94,6.72 v 2.84 h -1.25 v -2.73 c 0,-3.69 -1.5,-5.58 -3.34,-5.58 -3.33,0 -3.33,4.53 -3.33,5.38 z"
           id="path4659" /><path
           style="fill:#000000;stroke-width:0"
           inkscape:connector-curvature="0"
           d="m 555.88,428.21 -6.97,-0.54 v -1.55 c 3.24,0 3.69,-0.3 3.69,-2.73 v -13.41 c 0,-2.23 -0.55,-2.23 -3.89,-2.23 v -1.55 c 1.59,0.05 4.28,0.16 5.49,0.16 1.75,0 3.48,-0.11 5.18,-0.16 v 1.55 c -3.29,0 -3.5,0.25 -3.5,2.18 z"
           id="path4661" /><path
           style="fill:#000000;stroke-width:0"
           inkscape:connector-curvature="0"
           d="m 556.09,436.89 -0.01,0.14 -0.01,0.15 -0.02,0.14 -0.02,0.14 -0.03,0.13 -0.04,0.13 -0.04,0.13 -0.05,0.12 -0.06,0.12 -0.06,0.12 -0.06,0.11 -0.07,0.1 -0.08,0.1 -0.08,0.1 -0.08,0.1 -0.09,0.08 -0.1,0.09 -0.09,0.08 -0.1,0.07 -0.11,0.07 -0.11,0.07 -0.11,0.06 -0.11,0.05 -0.12,0.05 -0.11,0.04 -0.12,0.04 -0.13,0.03 -0.12,0.03 -0.13,0.02 -0.13,0.01 -0.13,0.01 -0.12,0.01 c -1.55,0 -2.65,-1.35 -2.65,-2.64 0,-1.35 1.1,-2.64 2.65,-2.64 1.39,0 2.64,1.04 2.64,2.64 z"
           id="path4663" /><path
           style="fill:#000000;stroke-width:0"
           inkscape:connector-curvature="0"
           d="m 566.7,417.06 v 0.38 l 0.01,0.36 0.01,0.36 0.02,0.35 0.03,0.34 0.03,0.34 0.03,0.32 0.05,0.32 0.04,0.31 0.05,0.3 0.06,0.29 0.06,0.29 0.13,0.55 0.16,0.51 0.16,0.49 0.19,0.46 0.19,0.43 0.21,0.4 0.22,0.38 0.23,0.35 0.24,0.32 0.25,0.3 0.26,0.28 0.26,0.26 0.27,0.23 0.28,0.21 0.28,0.19 0.28,0.16 0.28,0.15 0.28,0.13 0.29,0.12 0.28,0.09 0.28,0.08 0.27,0.06 0.27,0.05 0.27,0.03 0.26,0.02 0.25,0.01 c 0.44,0 3.58,-0.05 5.33,-1.85 -2.05,-0.15 -2.35,-1.64 -2.35,-2.29 0,-1.3 0.89,-2.3 2.3,-2.3 1.28,0 2.28,0.86 2.28,2.34 0,3.39 -3.78,5.33 -7.62,5.33 -6.22,0 -10.82,-5.37 -10.82,-11.55 0,-6.37 4.94,-11.31 10.72,-11.31 6.68,0 8.27,5.99 8.27,6.47 0,0.5 -0.5,0.5 -0.64,0.5 -0.45,0 -0.55,-0.19 -0.66,-0.5 -1.44,-4.62 -4.67,-5.22 -6.51,-5.22 -2.64,0 -7.03,2.14 -7.03,10.16 z"
           id="path4665" /><path
           style="fill:#000000;stroke-width:0"
           inkscape:connector-curvature="0"
           d="m 591.76,440.78 -7.17,-0.55 v -1.55 c 3.48,0 3.89,-0.34 3.89,-2.79 v -25.91 c 0,-2.23 -0.55,-2.23 -3.89,-2.23 v -1.55 c 1.64,0.05 4.28,0.16 5.53,0.16 1.25,0 3.68,-0.11 5.53,-0.16 v 1.55 c -3.35,0 -3.89,0 -3.89,2.23 z"
           id="path4667" /><path
           style="fill:#000000;stroke-width:0"
           inkscape:connector-curvature="0"
           d="m 602.27,417.71 0.05,1.05 c 0.3,7.42 4.48,8.66 6.19,8.66 5.12,0 5.62,-6.72 5.62,-8.66 h -11.81 l -0.05,-1.05 h 13.91 c 1.09,0 1.23,0 1.23,1.05 0,4.92 -2.68,9.75 -8.9,9.75 -5.78,0 -10.38,-5.12 -10.38,-11.36 0,-6.67 5.24,-11.5 10.97,-11.5 6.08,0 8.31,5.53 8.31,6.47 0,0.5 -0.39,0.61 -0.64,0.61 -0.45,0 -0.54,-0.3 -0.65,-0.7 -1.74,-5.13 -6.22,-5.13 -6.72,-5.13 -2.5,0 -4.49,1.49 -5.63,3.33 -1.5,2.39 -1.5,5.69 -1.5,7.48 z"
           id="path4669" /></g>    </g>
    <g
       id="g7674"
       transform="matrix(0.47166299,0,0,0.47166299,-33.10756,96.235787)">
      <g
         word-spacing="normal"
         letter-spacing="normal"
         font-size-adjust="none"
         font-stretch="normal"
         font-weight="normal"
         font-variant="normal"
         font-style="normal"
         stroke-miterlimit="10.433"
         xml:space="preserve"
         transform="matrix(0.3,0,0,-0.3,-52.5,222.75)"
         id="g7672"
         style="font-style:normal;font-variant:normal;font-weight:normal;font-stretch:normal;letter-spacing:normal;word-spacing:normal;text-anchor:start;fill:none;fill-opacity:1;fill-rule:evenodd;stroke:#000000;stroke-linecap:butt;stroke-linejoin:miter;stroke-miterlimit:10.43299961;stroke-dasharray:none;stroke-dashoffset:0;stroke-opacity:1"><path
           id="path7664"
           d="m 472.16,421.25 0.03,0.13 0.04,0.15 0.04,0.16 0.04,0.18 0.06,0.19 0.06,0.21 0.06,0.22 0.07,0.22 0.08,0.23 0.09,0.24 0.1,0.25 0.1,0.24 0.11,0.25 0.12,0.25 0.13,0.25 0.14,0.25 0.15,0.24 0.15,0.24 0.17,0.23 0.18,0.22 0.18,0.22 0.2,0.2 0.21,0.19 0.22,0.18 0.23,0.16 0.25,0.14 0.12,0.07 0.13,0.06 0.14,0.05 0.13,0.05 0.14,0.05 0.14,0.04 0.15,0.03 0.15,0.03 0.15,0.02 0.16,0.02 0.16,0.01 h 0.16 c 0.25,0 1.44,0 2.48,-0.64 -1.39,-0.25 -2.39,-1.5 -2.39,-2.69 0,-0.79 0.55,-1.75 1.89,-1.75 1.1,0 2.69,0.89 2.69,2.89 0,2.6 -2.94,3.28 -4.63,3.28 -2.89,0 -4.64,-2.64 -5.23,-3.78 -1.25,3.28 -3.94,3.78 -5.37,3.78 -5.19,0 -8.04,-6.42 -8.04,-7.67 0,-0.5 0.5,-0.5 0.61,-0.5 0.39,0 0.55,0.11 0.64,0.55 1.69,5.28 4.99,6.53 6.68,6.53 0.95,0 2.68,-0.44 2.68,-3.33 0,-1.54 -0.84,-4.89 -2.68,-11.86 -0.8,-3.09 -2.54,-5.18 -4.74,-5.18 -0.3,0 -1.44,0 -2.48,0.65 1.25,0.24 2.34,1.28 2.34,2.69 0,1.34 -1.09,1.73 -1.84,1.73 -1.5,0 -2.75,-1.29 -2.75,-2.89 0,-2.28 2.5,-3.28 4.68,-3.28 3.3,0 5.08,3.49 5.24,3.78 0.59,-1.84 2.39,-3.78 5.37,-3.78 5.14,0 7.99,6.42 7.99,7.67 0,0.5 -0.45,0.5 -0.61,0.5 -0.44,0 -0.55,-0.2 -0.64,-0.54 -1.64,-5.33 -5.03,-6.53 -6.63,-6.53 -1.95,0 -2.75,1.59 -2.75,3.29 0,1.1 0.3,2.19 0.86,4.38 z"
           inkscape:connector-curvature="0"
           style="fill:#000000;stroke-width:0" /><path
           id="path7666"
           d="m 532.11,422.5 h 0.14 0.15 0.14 l 0.07,0.01 h 0.08 l 0.07,0.01 0.07,0.01 0.07,0.01 0.07,0.01 0.07,0.01 0.06,0.02 0.07,0.02 0.06,0.02 0.06,0.02 0.06,0.03 0.06,0.03 0.05,0.04 0.05,0.03 0.05,0.05 0.04,0.04 0.04,0.05 0.02,0.03 0.02,0.03 0.01,0.02 0.02,0.03 0.01,0.03 0.02,0.04 0.01,0.03 0.01,0.04 0.01,0.03 0.01,0.04 v 0.04 l 0.01,0.04 v 0.04 l 0.01,0.04 v 0.04 0.05 c 0,1 -0.95,1 -1.64,1 h -29.84 c -0.71,0 -1.64,0 -1.64,-1 0,-0.98 0.93,-0.98 1.68,-0.98 z"
           inkscape:connector-curvature="0"
           style="fill:#000000;stroke-width:0" /><path
           id="path7668"
           d="m 532.16,412.82 h 0.07 0.06 l 0.14,0.01 h 0.14 0.07 l 0.07,0.01 0.07,0.01 h 0.07 l 0.06,0.01 0.07,0.02 0.07,0.01 0.06,0.02 0.07,0.02 0.06,0.02 0.06,0.02 0.06,0.03 0.05,0.03 0.05,0.04 0.05,0.04 0.05,0.04 0.04,0.05 0.02,0.02 0.02,0.03 0.02,0.02 0.02,0.03 0.01,0.03 0.02,0.03 0.01,0.03 0.02,0.03 0.01,0.04 0.01,0.03 0.01,0.04 0.01,0.04 v 0.04 l 0.01,0.04 v 0.04 l 0.01,0.04 v 0.05 0.04 c 0,1 -0.95,1 -1.69,1 h -29.75 c -0.75,0 -1.68,0 -1.68,-1 0,-1 0.93,-1 1.64,-1 z"
           inkscape:connector-curvature="0"
           style="fill:#000000;stroke-width:0" /><path
           id="path7670"
           d="m 573.35,422.14 v 0.74 l -0.01,0.75 -0.02,0.75 -0.03,0.74 -0.05,0.75 -0.06,0.74 -0.07,0.74 -0.1,0.73 -0.11,0.73 -0.14,0.73 -0.17,0.72 -0.18,0.72 -0.22,0.72 -0.25,0.7 -0.27,0.7 -0.16,0.35 -0.16,0.34 c -2.28,4.8 -6.37,5.6 -8.46,5.6 -2.99,0 -6.63,-1.3 -8.67,-5.94 -1.6,-3.44 -1.85,-7.33 -1.85,-11.31 0,-3.74 0.2,-8.22 2.25,-12 2.14,-4.03 5.78,-5.03 8.22,-5.03 v 1.09 c -1.94,0 -4.89,1.25 -5.78,6.03 -0.55,2.98 -0.55,7.56 -0.55,10.52 0,3.18 0,6.46 0.41,9.15 0.93,5.94 4.67,6.38 5.92,6.38 1.64,0 4.94,-0.89 5.88,-5.83 0.5,-2.78 0.5,-6.58 0.5,-9.7 0,-3.75 0,-7.13 -0.55,-10.32 -0.75,-4.73 -3.6,-6.23 -5.83,-6.23 v 0 -1.09 c 2.69,0 6.47,1.04 8.67,5.78 1.59,3.43 1.84,7.31 1.84,11.25 z"
           inkscape:connector-curvature="0"
           style="fill:#000000;stroke-width:0" /></g>    </g>
  </g>
</svg>
