<?xml version="1.0" encoding="UTF-8" standalone="no"?>
<!-- Created with Inkscape (http://www.inkscape.org/) -->

<svg
   xmlns:dc="http://purl.org/dc/elements/1.1/"
   xmlns:cc="http://creativecommons.org/ns#"
   xmlns:rdf="http://www.w3.org/1999/02/22-rdf-syntax-ns#"
   xmlns:svg="http://www.w3.org/2000/svg"
   xmlns="http://www.w3.org/2000/svg"
   xmlns:sodipodi="http://sodipodi.sourceforge.net/DTD/sodipodi-0.dtd"
   xmlns:inkscape="http://www.inkscape.org/namespaces/inkscape"
   width="451.21124"
   height="107.75934"
   id="svg2"
   version="1.1"
   inkscape:version="0.91 r13725"
   sodipodi:docname="periodic_function.svg"
   inkscape:export-filename="/home/cyd/jupyter/MH2801/img/periodic_ring.png"
   inkscape:export-xdpi="110"
   inkscape:export-ydpi="110">
  <sodipodi:namedview
     id="base"
     pagecolor="#ffffff"
     bordercolor="#666666"
     borderopacity="1.0"
     inkscape:pageopacity="0.0"
     inkscape:pageshadow="2"
     inkscape:zoom="1"
     inkscape:cx="200.34609"
     inkscape:cy="6.0082178"
     inkscape:document-units="px"
     inkscape:current-layer="layer1"
     showgrid="false"
     inkscape:window-width="1920"
     inkscape:window-height="1027"
     inkscape:window-x="0"
     inkscape:window-y="0"
     inkscape:window-maximized="1"
     fit-margin-top="0"
     fit-margin-left="0"
     fit-margin-right="0"
     fit-margin-bottom="0" />
  <defs
     id="defs4">
    <marker
       inkscape:stockid="Arrow2Mend"
       orient="auto"
       refY="0"
       refX="0"
       id="Arrow2Mend"
       style="overflow:visible">
      <path
         inkscape:connector-curvature="0"
         id="path4980"
         style="fill-rule:evenodd;stroke-width:0.625;stroke-linejoin:round"
         d="M 8.7185878,4.0337352 -2.2072895,0.01601326 8.7185884,-4.0017078 c -1.7454984,2.3720609 -1.7354408,5.6174519 -6e-7,8.035443 z"
         transform="scale(-0.6,-0.6)" />
    </marker>
    <marker
       inkscape:stockid="Arrow2MendE"
       orient="auto"
       refY="0"
       refX="0"
       id="Arrow2MendE"
       style="overflow:visible">
      <path
         inkscape:connector-curvature="0"
         id="path5398"
         style="fill:#175217;fill-rule:evenodd;stroke:#175217;stroke-width:0.625;stroke-linejoin:round"
         d="M 8.7185878,4.0337352 -2.2072895,0.01601326 8.7185884,-4.0017078 c -1.7454984,2.3720609 -1.7354408,5.6174519 -6e-7,8.035443 z"
         transform="scale(-0.6,-0.6)" />
    </marker>
    <marker
       inkscape:stockid="Arrow2MendU"
       orient="auto"
       refY="0"
       refX="0"
       id="Arrow2MendU"
       style="overflow:visible">
      <path
         inkscape:connector-curvature="0"
         id="path5781"
         style="fill:#175217;fill-rule:evenodd;stroke:#175217;stroke-width:0.625;stroke-linejoin:round"
         d="M 8.7185878,4.0337352 -2.2072895,0.01601326 8.7185884,-4.0017078 c -1.7454984,2.3720609 -1.7354408,5.6174519 -6e-7,8.035443 z"
         transform="scale(-0.6,-0.6)" />
    </marker>
    <marker
       inkscape:stockid="Arrow2MendE6"
       orient="auto"
       refY="0"
       refX="0"
       id="Arrow2MendE6"
       style="overflow:visible">
      <path
         inkscape:connector-curvature="0"
         id="path4217"
         style="fill:#294029;fill-rule:evenodd;stroke:#294029;stroke-width:0.625;stroke-linejoin:round"
         d="M 8.7185878,4.0337352 -2.2072895,0.01601326 8.7185884,-4.0017078 c -1.7454984,2.3720609 -1.7354408,5.6174519 -6e-7,8.035443 z"
         transform="scale(-0.6,-0.6)" />
    </marker>
    <marker
       inkscape:stockid="Arrow2MendE6"
       orient="auto"
       refY="0"
       refX="0"
       id="Arrow2MendE6-5"
       style="overflow:visible">
      <path
         inkscape:connector-curvature="0"
         id="path4217-5"
         style="fill:#294029;fill-rule:evenodd;stroke:#294029;stroke-width:0.625;stroke-linejoin:round"
         d="M 8.7185878,4.0337352 -2.2072895,0.01601326 8.7185884,-4.0017078 c -1.7454984,2.3720609 -1.7354408,5.6174519 -6e-7,8.035443 z"
         transform="scale(-0.6,-0.6)" />
    </marker>
    <marker
       inkscape:stockid="Arrow2MendE6s"
       orient="auto"
       refY="0"
       refX="0"
       id="Arrow2MendE6s"
       style="overflow:visible">
      <path
         inkscape:connector-curvature="0"
         id="path7331"
         style="fill:#3a5b3a;fill-rule:evenodd;stroke:#3a5b3a;stroke-width:0.625;stroke-linejoin:round"
         d="M 8.7185878,4.0337352 -2.2072895,0.01601326 8.7185884,-4.0017078 c -1.7454984,2.3720609 -1.7354408,5.6174519 -6e-7,8.035443 z"
         transform="scale(-0.6,-0.6)" />
    </marker>
    <marker
       inkscape:stockid="Arrow2MendE6p"
       orient="auto"
       refY="0"
       refX="0"
       id="Arrow2MendE6p"
       style="overflow:visible">
      <path
         inkscape:connector-curvature="0"
         id="path7462"
         style="fill:#3a5b3a;fill-rule:evenodd;stroke:#3a5b3a;stroke-width:0.625;stroke-linejoin:round"
         d="M 8.7185878,4.0337352 -2.2072895,0.01601326 8.7185884,-4.0017078 c -1.7454984,2.3720609 -1.7354408,5.6174519 -6e-7,8.035443 z"
         transform="scale(-0.6,-0.6)" />
    </marker>
  </defs>
  <metadata
     id="metadata7">
    <rdf:RDF>
      <cc:Work
         rdf:about="">
        <dc:format>image/svg+xml</dc:format>
        <dc:type
           rdf:resource="http://purl.org/dc/dcmitype/StillImage" />
        <dc:title></dc:title>
      </cc:Work>
    </rdf:RDF>
  </metadata>
  <g
     transform="translate(-246.54763,-364.60104)"
     inkscape:label="Layer 1"
     inkscape:groupmode="layer"
     id="layer1">
    <path
       style="fill:none;stroke:#3a5b3a;stroke-width:1.20000005;stroke-linecap:butt;stroke-linejoin:miter;stroke-miterlimit:3.8499999;stroke-dasharray:none;stroke-opacity:1;marker-end:url(#Arrow2MendE6p)"
       d="m 255.95437,439.49901 232.08026,0"
       id="path4171"
       inkscape:connector-curvature="0"
       sodipodi:nodetypes="cc" />
    <path
       sodipodi:nodetypes="cc"
       inkscape:connector-curvature="0"
       id="path5418"
       d="m 475.67717,392.06795 0,48.01254"
       style="fill:none;stroke:#555555;stroke-width:1.20000005;stroke-linecap:butt;stroke-linejoin:miter;stroke-miterlimit:4;stroke-dasharray:3.60000014, 3.60000014;stroke-dashoffset:0;stroke-opacity:1" />
    <g
       id="g5546"
       transform="matrix(0.336,0,0,0.336,144.87695,337.4747)">
      <g
         word-spacing="normal"
         letter-spacing="normal"
         font-size-adjust="none"
         font-stretch="normal"
         font-weight="normal"
         font-variant="normal"
         font-style="normal"
         stroke-miterlimit="10.433"
         xml:space="preserve"
         transform="matrix(1.0629921,0,0,-1.0629921,-186.02362,789.27165)"
         id="g5548"
         style="font-style:normal;font-variant:normal;font-weight:normal;font-stretch:normal;letter-spacing:normal;word-spacing:normal;text-anchor:start;fill:none;stroke:#000000;stroke-linecap:butt;stroke-linejoin:miter;stroke-miterlimit:10.43299961;stroke-dasharray:none;stroke-dashoffset:0;stroke-opacity:1"><path
           id="path5550"
           d="m 488.35,417.65 0.16,0 0.16,0 0.15,0.01 0.08,0 0.08,0.01 0.07,0 0.08,0.01 0.07,0.01 0.07,0.01 0.07,0.02 0.07,0.02 0.07,0.02 0.06,0.02 0.06,0.02 0.06,0.03 0.05,0.03 0.06,0.04 0.05,0.03 0.04,0.05 0.04,0.04 0.04,0.05 0.02,0.03 0.02,0.03 0.01,0.03 0.02,0.03 0.01,0.03 0.02,0.03 0.01,0.04 0.01,0.03 0.01,0.04 0,0.04 0.01,0.04 0.01,0.04 0,0.04 0.01,0.04 0,0.05 0,0.04 c 0,1 -0.91,1 -1.75,1 l -26.96,0 c -0.84,0 -1.73,0 -1.73,-1 0,-1 0.89,-1 1.73,-1 z"
           inkscape:connector-curvature="0"
           style="fill:#000000;stroke-width:0" /><path
           id="path5552"
           d="m 512.85,425.03 -0.08,0.17 -0.09,0.17 -0.09,0.16 -0.1,0.16 -0.09,0.16 -0.11,0.16 -0.1,0.15 -0.11,0.14 -0.11,0.15 -0.12,0.13 -0.12,0.14 -0.13,0.13 -0.12,0.12 -0.13,0.12 -0.14,0.11 -0.14,0.11 -0.14,0.11 -0.15,0.09 -0.15,0.1 -0.16,0.08 -0.16,0.08 -0.16,0.08 -0.17,0.06 -0.17,0.07 -0.18,0.05 -0.18,0.05 -0.18,0.04 -0.19,0.03 -0.19,0.03 -0.2,0.02 -0.21,0.01 -0.2,0 0.04,-1.09 c 3.24,0 3.94,-4.08 3.94,-4.37 0,-0.32 -0.09,-0.61 -0.14,-0.86 l -2.5,-9.77 c -0.25,-0.89 -0.25,-0.98 -1,-1.84 -2.19,-2.74 -4.23,-3.53 -5.62,-3.53 -2.49,0 -3.19,2.73 -3.19,4.68 0,2.49 1.59,8.61 2.73,10.91 1.55,2.94 3.8,4.78 5.78,4.78 l -0.04,1.09 c -5.83,0 -12,-7.31 -12,-14.59 0,-4.69 2.73,-7.97 6.62,-7.97 0.99,0 3.49,0.21 6.47,3.74 0.41,-2.1 2.14,-3.74 4.53,-3.74 1.75,0 2.89,1.14 3.69,2.74 0.84,1.79 1.5,4.84 1.5,4.93 0,0.5 -0.45,0.5 -0.59,0.5 -0.5,0 -0.55,-0.2 -0.71,-0.9 -0.84,-3.24 -1.75,-6.17 -3.78,-6.17 -1.34,0 -1.5,1.29 -1.5,2.29 0,1.1 0.09,1.49 0.64,3.69 0.57,2.09 0.66,2.59 1.11,4.48 l 1.78,6.97 c 0.36,1.39 0.36,1.5 0.36,1.69 0,0.86 -0.61,1.36 -1.45,1.36 -1.19,0 -1.94,-1.11 -2.1,-2.2 z"
           inkscape:connector-curvature="0"
           style="fill:#000000;stroke-width:0" /><path
           id="path5554"
           d="m 542.43,441.67 0.01,0.03 0.01,0.03 0.01,0.03 0.01,0.03 0.01,0.02 0.01,0.03 0.01,0.03 0.01,0.02 0.02,0.05 0.02,0.05 0.01,0.04 0.01,0.05 0.02,0.04 0.01,0.04 0.01,0.03 0.01,0.04 0.01,0.03 0.01,0.03 0,0.03 0.01,0.02 0,0.03 0.01,0.02 0,0.02 0.01,0.02 0,0.02 0,0.02 0,0.01 0.01,0.02 0,0.01 0,0.01 0,0.01 0,0.01 0,0.01 0,0.01 0,0.01 0,0 c 0,0.55 -0.45,0.99 -1,0.99 -0.34,0 -0.7,-0.14 -0.84,-0.44 l -17.3,-47.48 c -0.25,-0.64 -0.25,-0.85 -0.25,-0.89 0,-0.55 0.45,-1 1,-1 0.66,0 0.8,0.34 1.09,1.18 z"
           inkscape:connector-curvature="0"
           style="fill:#000000;stroke-width:0" /><path
           id="path5556"
           d="m 551.84,410.04 5.28,5.13 c 7.77,6.87 10.77,9.56 10.77,14.54 0,5.69 -4.49,9.68 -10.57,9.68 -5.64,0 -9.32,-4.6 -9.32,-9.03 0,-2.79 2.5,-2.79 2.64,-2.79 0.86,0 2.59,0.6 2.59,2.64 0,1.3 -0.89,2.6 -2.64,2.6 -0.39,0 -0.5,0 -0.64,-0.05 1.14,3.24 3.83,5.08 6.72,5.08 4.53,0 6.68,-4.05 6.68,-8.13 0,-3.98 -2.5,-7.92 -5.23,-11.01 l -9.56,-10.66 C 548,407.5 548,407.4 548,406.2 l 18.48,0 1.41,8.67 -1.25,0 c -0.25,-1.5 -0.6,-3.69 -1.1,-4.44 -0.36,-0.39 -3.64,-0.39 -4.73,-0.39 z"
           inkscape:connector-curvature="0"
           style="fill:#000000;stroke-width:0" /></g>    </g>
    <path
       sodipodi:nodetypes="cc"
       inkscape:connector-curvature="0"
       id="path5418-8"
       d="m 260.15102,392.06795 0,48.01254"
       style="fill:none;stroke:#555555;stroke-width:1.20000005;stroke-linecap:butt;stroke-linejoin:miter;stroke-miterlimit:4;stroke-dasharray:3.60000014, 3.60000014;stroke-dashoffset:0;stroke-opacity:1" />
    <g
       id="g5453"
       transform="matrix(0.336,0,0,0.336,382.99864,286.91103)">
      <g
         word-spacing="normal"
         letter-spacing="normal"
         font-size-adjust="none"
         font-stretch="normal"
         font-weight="normal"
         font-variant="normal"
         font-style="normal"
         stroke-miterlimit="10.433"
         xml:space="preserve"
         transform="matrix(1.0629921,0,0,-1.0629921,-186.02362,789.27165)"
         id="content"
         style="font-style:normal;font-variant:normal;font-weight:normal;font-stretch:normal;letter-spacing:normal;word-spacing:normal;text-anchor:start;fill:none;stroke:#000000;stroke-linecap:butt;stroke-linejoin:miter;stroke-miterlimit:10.43299961;stroke-dasharray:none;stroke-dashoffset:0;stroke-opacity:1"><path
           id="path5456"
           d="m 472.16,421.25 0.03,0.13 0.04,0.15 0.04,0.16 0.04,0.18 0.06,0.19 0.06,0.21 0.06,0.22 0.07,0.22 0.08,0.23 0.09,0.24 0.1,0.25 0.1,0.24 0.11,0.25 0.12,0.25 0.13,0.25 0.14,0.25 0.15,0.24 0.15,0.24 0.17,0.23 0.18,0.22 0.18,0.22 0.2,0.2 0.21,0.19 0.22,0.18 0.23,0.16 0.25,0.14 0.12,0.07 0.13,0.06 0.14,0.05 0.13,0.05 0.14,0.05 0.14,0.04 0.15,0.03 0.15,0.03 0.15,0.02 0.16,0.02 0.16,0.01 0.16,0 c 0.25,0 1.44,0 2.48,-0.64 -1.39,-0.25 -2.39,-1.5 -2.39,-2.69 0,-0.79 0.55,-1.75 1.89,-1.75 1.1,0 2.69,0.89 2.69,2.89 0,2.6 -2.94,3.28 -4.63,3.28 -2.89,0 -4.64,-2.64 -5.23,-3.78 -1.25,3.28 -3.94,3.78 -5.37,3.78 -5.19,0 -8.04,-6.42 -8.04,-7.67 0,-0.5 0.5,-0.5 0.61,-0.5 0.39,0 0.55,0.11 0.64,0.55 1.69,5.28 4.99,6.53 6.68,6.53 0.95,0 2.68,-0.44 2.68,-3.33 0,-1.54 -0.84,-4.89 -2.68,-11.86 -0.8,-3.09 -2.54,-5.18 -4.74,-5.18 -0.3,0 -1.44,0 -2.48,0.65 1.25,0.24 2.34,1.28 2.34,2.69 0,1.34 -1.09,1.73 -1.84,1.73 -1.5,0 -2.75,-1.29 -2.75,-2.89 0,-2.28 2.5,-3.28 4.68,-3.28 3.3,0 5.08,3.49 5.24,3.78 0.59,-1.84 2.39,-3.78 5.37,-3.78 5.14,0 7.99,6.42 7.99,7.67 0,0.5 -0.45,0.5 -0.61,0.5 -0.44,0 -0.55,-0.2 -0.64,-0.54 -1.64,-5.33 -5.03,-6.53 -6.63,-6.53 -1.95,0 -2.75,1.59 -2.75,3.29 0,1.1 0.3,2.19 0.86,4.38 z"
           inkscape:connector-curvature="0"
           style="fill:#000000;stroke-width:0" /></g>    </g>
    <g
       id="g5492"
       transform="matrix(0.336,0,0,0.336,362.30259,337.75754)">
      <g
         id="g5494"
         transform="matrix(1.0629921,0,0,-1.0629921,-186.02362,789.27165)"
         xml:space="preserve"
         stroke-miterlimit="10.433"
         font-style="normal"
         font-variant="normal"
         font-weight="normal"
         font-stretch="normal"
         font-size-adjust="none"
         letter-spacing="normal"
         word-spacing="normal"
         style="font-style:normal;font-variant:normal;font-weight:normal;font-stretch:normal;letter-spacing:normal;word-spacing:normal;text-anchor:start;fill:none;stroke:#000000;stroke-linecap:butt;stroke-linejoin:miter;stroke-miterlimit:10.43299961;stroke-dasharray:none;stroke-dashoffset:0;stroke-opacity:1"><path
           d="m 474.1,425.03 -0.09,0.17 -0.09,0.17 -0.09,0.16 -0.09,0.16 -0.1,0.16 -0.1,0.16 -0.11,0.15 -0.11,0.14 -0.11,0.15 -0.12,0.13 -0.12,0.14 -0.12,0.13 -0.13,0.12 -0.13,0.12 -0.14,0.11 -0.14,0.11 -0.14,0.11 -0.15,0.09 -0.15,0.1 -0.15,0.08 -0.16,0.08 -0.17,0.08 -0.17,0.06 -0.17,0.07 -0.17,0.05 -0.18,0.05 -0.19,0.04 -0.19,0.03 -0.19,0.03 -0.2,0.02 -0.2,0.01 -0.21,0 0.05,-1.09 c 3.23,0 3.93,-4.08 3.93,-4.37 0,-0.32 -0.09,-0.61 -0.14,-0.86 l -2.5,-9.77 c -0.25,-0.89 -0.25,-0.98 -1,-1.84 -2.18,-2.74 -4.23,-3.53 -5.62,-3.53 -2.49,0 -3.19,2.73 -3.19,4.68 0,2.49 1.59,8.61 2.74,10.91 1.54,2.94 3.79,4.78 5.78,4.78 l -0.05,1.09 c -5.83,0 -12,-7.31 -12,-14.59 0,-4.69 2.73,-7.97 6.62,-7.97 0.99,0 3.49,0.21 6.47,3.74 0.41,-2.1 2.14,-3.74 4.53,-3.74 1.75,0 2.9,1.14 3.69,2.74 0.85,1.79 1.5,4.84 1.5,4.93 0,0.5 -0.45,0.5 -0.59,0.5 -0.5,0 -0.55,-0.2 -0.7,-0.9 -0.85,-3.24 -1.75,-6.17 -3.79,-6.17 -1.34,0 -1.5,1.29 -1.5,2.29 0,1.1 0.1,1.49 0.64,3.69 0.57,2.09 0.66,2.59 1.11,4.48 l 1.79,6.97 c 0.35,1.39 0.35,1.5 0.35,1.69 0,0.86 -0.6,1.36 -1.45,1.36 -1.19,0 -1.94,-1.11 -2.09,-2.2 z"
           id="path5496"
           inkscape:connector-curvature="0"
           style="fill:#000000;stroke-width:0" /><path
           d="m 503.67,441.67 0.01,0.03 0.01,0.03 0.02,0.03 0.01,0.03 0.01,0.02 0.01,0.03 0.01,0.03 0,0.02 0.02,0.05 0.02,0.05 0.01,0.04 0.02,0.05 0.01,0.04 0.01,0.04 0.01,0.03 0.01,0.04 0.01,0.03 0.01,0.03 0,0.03 0.01,0.02 0.01,0.03 0,0.02 0.01,0.02 0,0.02 0,0.02 0,0.02 0.01,0.01 0,0.02 0,0.01 0,0.01 0,0.01 0,0.01 0,0.01 0,0.01 0,0.01 0,0 c 0,0.55 -0.45,0.99 -1,0.99 -0.34,0 -0.7,-0.14 -0.84,-0.44 l -17.3,-47.48 c -0.25,-0.64 -0.25,-0.85 -0.25,-0.89 0,-0.55 0.45,-1 1,-1 0.66,0 0.8,0.34 1.09,1.18 z"
           id="path5498"
           inkscape:connector-curvature="0"
           style="fill:#000000;stroke-width:0" /><path
           d="m 513.08,410.04 5.28,5.13 c 7.77,6.87 10.77,9.56 10.77,14.54 0,5.69 -4.48,9.68 -10.56,9.68 -5.64,0 -9.33,-4.6 -9.33,-9.03 0,-2.79 2.5,-2.79 2.64,-2.79 0.86,0 2.59,0.6 2.59,2.64 0,1.3 -0.89,2.6 -2.64,2.6 -0.39,0 -0.5,0 -0.64,-0.05 1.14,3.24 3.83,5.08 6.72,5.08 4.53,0 6.69,-4.05 6.69,-8.13 0,-3.98 -2.5,-7.92 -5.24,-11.01 l -9.56,-10.66 c -0.56,-0.54 -0.56,-0.64 -0.56,-1.84 l 18.48,0 1.41,8.67 -1.25,0 c -0.25,-1.5 -0.6,-3.69 -1.1,-4.44 -0.35,-0.39 -3.63,-0.39 -4.73,-0.39 z"
           id="path5500"
           inkscape:connector-curvature="0"
           style="fill:#000000;stroke-width:0" /></g>    </g>
    <path
       sodipodi:nodetypes="ccccccccccc"
       inkscape:connector-curvature="0"
       id="path5880"
       d="m 515.37763,421.29231 7.82283,6.75048 0,-2.99946 10.15969,0 0,2.99946 7.82372,-6.75048 -7.68278,-6.75184 0,3.00082 -10.30498,0 0,-3.00082 z"
       style="fill:#d8bdd8;fill-opacity:1;stroke:#000000;stroke-width:0.37708494px;stroke-linecap:butt;stroke-linejoin:miter;stroke-opacity:1" />
    <path
       inkscape:connector-curvature="0"
       d="m 260.05299,407.91019 1.08155,-0.73579 1.08177,-0.49774 1.08178,-0.14556 1.08152,0.26417 1.08178,0.65961 1.08178,0.96752 1.08154,1.1244 1.08178,1.08912 1.08173,0.84992 1.08157,0.42986 1.08177,-0.11645 1.08183,-0.70751 1.08159,-1.2475 1.08158,-1.63944 1.08158,-1.7998 1.08159,-1.67253 1.08206,-1.23819 1.08158,-0.52003 1.08159,0.41754 1.08159,1.47525 1.08206,2.53094 1.08158,3.45572 1.08159,4.12944 1.08159,4.45983 1.08157,4.39279 1.08207,3.92184 1.08159,3.09139 1.08158,1.98878 1.08158,0.73699 1.08159,-0.52272 1.08205,-1.64892 1.0816,-2.51762 1.08157,-3.03817 1.08159,-3.16507 1.08206,-2.90341 1.08159,-2.30687 1.08158,-1.47025 1.08158,-0.5157 1.08158,0.42453 1.08208,1.22538 1.08157,1.78699 1.08159,2.04685 1.08158,1.98779 1.08207,1.63943 1.08158,1.07134 1.08158,0.38344 1.08158,-0.31042 1.0816,-0.90015 1.08205,-1.29424 1.08159,-1.43482 1.08159,-1.30474 1.08158,-0.93042 1.08158,-0.37696 1.08206,0.26184 1.08158,0.87902 1.08159,1.36928 1.08158,1.64775 1.08207,1.66206 1.08157,1.40089 1.08159,0.89748 1.08159,0.22392 1.08158,-0.51854 1.08206,-1.21489 1.0816,-1.75355 1.08157,-2.04485 1.08159,-2.03519 1.08158,-1.71613 1.08207,-1.12823 1.08159,-0.35716 1.08157,0.47928 1.08159,1.24483 1.08207,1.80762 1.08158,2.0575 1.08158,1.92522 1.08158,1.39473 1.08159,0.50738 1.08207,-0.6403 1.08157,-1.90759 1.08159,-3.12732 1.08157,-4.12829 1.08208,-4.75844 1.08158,-4.90782 1.08158,-4.52456 1.08158,-3.62472 1.08159,-2.29404 1.08206,-0.67857 1.08159,1.03306 1.08157,2.63093 1.0816,3.91335 1.08158,4.71087 1.08206,4.91164 1.08159,4.47614 1.08159,3.44455 1.08157,1.9344 1.08207,0.12643 1.08158,-1.75671 1.08159,-3.47785 1.08158,-4.81517 1.08158,-5.58987 1.08207,-5.69087 1.08158,-5.08766 1.08158,-3.83567 1.08159,-2.07112 1.08157,0.006 1.08208,2.15862 1.08158,4.13594 1.08158,5.70933 1.08158,6.69832 1.08207,6.99143 1.08158,6.56007 1.08159,5.46029 1.08158,3.82502 1.08158,1.84676 1.08208,-0.24797 1.08157,-2.22496 1.08159,-3.87209 1.08158,-5.02377 1.08159,-5.57841 1.08206,-5.50904 1.08158,-4.86175 1.08159,-3.74816 1.08159,-2.32614 1.08205,-0.77904 1.0816,0.70933 1.08157,1.97847 1.08159,2.90906 1.08158,3.43575 1.08206,3.55186 1.08158,3.30515 1.08159,2.7868 1.08158,2.11454 1.08159,1.4147 1.08206,0.80116 1.08159,0.36066 1.08158,0.1404 1.08158,0.1439 1.08207,0.33338 1.08158,0.63731 1.08158,0.96636 1.08159,1.22653 1.08157,1.33801 1.08208,1.24816 1.08157,0.94008 1.08159,0.43802 1.08158,-0.1978 1.08207,-0.87868 1.08158,-1.50204 1.08159,-1.9665 1.08158,-2.18922 1.0816,-2.11955 1.08205,-1.7474 1.08158,-1.10859 1.0816,-0.27947 1.08156,0.63081 1.08161,1.49638 1.08207,2.19006 1.08155,2.60329 1.08161,2.66038 1.08156,2.3313 1.08206,1.63611 1.08162,0.64463 1.08155,-0.53217 1.08161,-1.75656 1.08156,-2.88076 1.08207,-3.76664 1.0816,-4.3038 1.08156,-4.42406 1.0816,-4.10982 1.08208,-3.39697 1.08155,-2.36991 1.08161,-1.14935 1.08155,0.12161 1.08161,1.29757 1.08207,2.24879 1.08156,2.87662 1.0816,3.126 1.08158,2.99041 1.08159,2.51063 1.08207,1.76771 1.08156,0.87104 1.08161,-0.0585 1.08156,-0.90464 1.0816,-1.57024 1.08207,-1.99027 1.08156,-2.13867 1.0816,-2.0282 1.08157,-1.70732 1.08205,-1.24933 1.08161,-0.74195 1.08157,-0.26999 1.0816,0.0942 1.08156,0.30344 1.08207,0.34103 1.0816,0.22191 1.08157,-0.0119 1.08159,-0.29927 1.08208,-0.57127 1.08156,-0.7629 1.0816,-0.82562"
       style="fill:none;stroke:#2e2eb0;stroke-width:1.39999998;stroke-linecap:round;stroke-linejoin:round;stroke-miterlimit:10;stroke-dasharray:none;stroke-opacity:1"
       id="path3226" />
    <path
       id="path4393"
       style="fill:none;stroke:#2d2db0;stroke-width:1.0756855;stroke-linecap:round;stroke-linejoin:round;stroke-miterlimit:10;stroke-dasharray:none;stroke-opacity:1"
       d="m 569.84795,431.43135 0.36709,-1.97254"
       inkscape:connector-curvature="0" />
    <path
       id="path4395"
       style="fill:none;stroke:#2d2db0;stroke-width:1.0756855;stroke-linecap:round;stroke-linejoin:round;stroke-miterlimit:10;stroke-dasharray:none;stroke-opacity:1"
       d="m 569.54406,432.73071 0.30389,-1.29936"
       inkscape:connector-curvature="0" />
    <path
       id="path4397"
       style="fill:none;stroke:#2d2db0;stroke-width:1.0756855;stroke-linecap:round;stroke-linejoin:round;stroke-miterlimit:10;stroke-dasharray:none;stroke-opacity:1"
       d="m 569.3034,433.1772 0.24066,-0.44649"
       inkscape:connector-curvature="0" />
    <path
       style="fill:none;stroke:#2d2db0;stroke-width:1.39121449;stroke-linecap:round;stroke-linejoin:round;stroke-miterlimit:10;stroke-dasharray:none;stroke-opacity:1"
       d="m 570.21504,429.45881 c 0.72722,-3.1812 0.79772,-6.53546 2.58043,-9.5299 1.36899,-0.97701 2.00764,1.34464 2.4166,2.07021 2.34003,5.54637 3.1947,11.43427 6.59143,16.73877 0.73962,1.26083 2.82515,2.52749 4.66584,1.44734 3.13327,-1.46954 5.57171,-4.56266 9.88706,-4.09918 4.55123,0.73763 8.2205,3.70651 13.20979,3.17071 4.28657,-0.35679 8.74568,-1.95946 12.9849,-0.52187 4.49069,1.17693 8.06373,4.51857 13.23254,4.02768 5.71527,-0.98507 8.19103,-5.41966 13.14075,-7.28524 2.41078,-1.06563 5.14418,0.24183 6.48057,1.71444 4.86524,4.84417 6.56865,10.9034 11.37315,15.77826 0.96667,0.77209 2.74232,1.62677 4.01917,0.71825 2.89624,-1.75582 3.87002,-4.57387 5.28124,-6.99474 2.08157,-3.72563 3.28081,-7.80094 6.50404,-11.14002 0.95145,-1.29383 3.35873,-1.15088 4.48358,-0.0543 1.14006,0.67521 2.52543,2.49021 4.19439,1.61384 2.18709,-1.85446 2.41947,-4.47955 3.29909,-6.74935 0.68621,-1.72634 0.73246,-3.7206 2.07474,-5.24881"
       id="path4399"
       inkscape:connector-curvature="0" />
    <path
       style="fill:none;stroke:#3a5b3a;stroke-width:1.11297143;stroke-linecap:butt;stroke-linejoin:miter;stroke-miterlimit:10;stroke-dasharray:none;stroke-opacity:1"
       d="m 568.96356,443.98085 c 0.13421,7.57909 7.38471,14.0801 15.87173,18.24015 14.04873,6.87084 31.47173,9.53486 48.36253,9.58289 16.83535,-0.0738 34.1919,-2.7487 48.18334,-9.60837 7.46798,-3.72243 13.95055,-9.06606 15.49098,-15.60328 l 0.17383,-0.88269 0.1102,-0.88509 0.047,-0.88578"
       id="path4603"
       inkscape:connector-curvature="0"
       sodipodi:nodetypes="cccccccc" />
    <path
       id="path4619"
       style="fill:none;stroke:#3a5b3a;stroke-width:0.7019397;stroke-linecap:butt;stroke-linejoin:miter;stroke-miterlimit:10;stroke-dasharray:none;stroke-opacity:1"
       d="m 577.81462,429.50889 -0.11782,0.085"
       inkscape:connector-curvature="0" />
    <path
       id="path4649"
       style="fill:none;stroke:#555555;stroke-width:1.0756855;stroke-linecap:butt;stroke-linejoin:miter;stroke-miterlimit:10;stroke-dasharray:3.22705626, 3.22705626;stroke-dashoffset:0;stroke-opacity:1"
       d="m 614.18241,470.56025 c 0,-16.56726 0,-34.98235 0,-50.54708"
       inkscape:connector-curvature="0"
       sodipodi:nodetypes="cc" />
    <path
       id="path4701"
       style="fill:none;stroke:#3a5b3a;stroke-width:0.7019397;stroke-linecap:butt;stroke-linejoin:miter;stroke-miterlimit:10;stroke-dasharray:none;stroke-opacity:1"
       d="M 589.24396,423.25659 Z"
       inkscape:connector-curvature="0"
       sodipodi:nodetypes="cc" />
    <path
       id="path5053"
       style="fill:none;stroke:#2d2db0;stroke-width:1.0756855;stroke-linecap:round;stroke-linejoin:round;stroke-miterlimit:10;stroke-dasharray:none;stroke-opacity:1"
       d="m 697.04597,425.63 0.1102,0.37037"
       inkscape:connector-curvature="0" />
    <path
       id="path5055"
       style="fill:none;stroke:#2d2db0;stroke-width:1.0756855;stroke-linecap:round;stroke-linejoin:round;stroke-miterlimit:10;stroke-dasharray:none;stroke-opacity:1"
       d="m 696.87214,425.26857 0.17383,0.36143"
       inkscape:connector-curvature="0" />
    <path
       id="path5057"
       style="fill:none;stroke:#2d2db0;stroke-width:1.0756855;stroke-linecap:round;stroke-linejoin:round;stroke-miterlimit:10;stroke-dasharray:none;stroke-opacity:1"
       d="m 696.63435,425.11494 0.23779,0.15363"
       inkscape:connector-curvature="0" />
    <path
       id="path5059"
       style="fill:none;stroke:#2d2db0;stroke-width:1.0756855;stroke-linecap:round;stroke-linejoin:round;stroke-miterlimit:10;stroke-dasharray:none;stroke-opacity:1"
       d="m 697.15622,426.00037 0.0469,0.17181"
       inkscape:connector-curvature="0" />
    <path
       id="path5061"
       style="fill:none;stroke:#2d2db0;stroke-width:1.0756855;stroke-linecap:round;stroke-linejoin:round;stroke-miterlimit:10;stroke-dasharray:none;stroke-opacity:1"
       d="m 696.84266,422.97333 0.116,0.99828"
       inkscape:connector-curvature="0" />
    <path
       id="path5063"
       style="fill:none;stroke:#2d2db0;stroke-width:1.0756855;stroke-linecap:round;stroke-linejoin:round;stroke-miterlimit:10;stroke-dasharray:none;stroke-opacity:1"
       d="m 697.18533,425.96368 -0.0815,-0.71638 -0.14514,-1.27569"
       inkscape:connector-curvature="0" />
    <path
       id="path5065"
       style="fill:none;stroke:#2d2db0;stroke-width:1.0756855;stroke-linecap:round;stroke-linejoin:round;stroke-miterlimit:10;stroke-dasharray:none;stroke-opacity:1"
       d="m 697.20296,426.17218 -0.0177,-0.2085"
       inkscape:connector-curvature="0" />
    <path
       id="path5089"
       style="fill:none;stroke:#3a5b3a;stroke-width:0.7019397;stroke-linecap:butt;stroke-linejoin:miter;stroke-miterlimit:10;stroke-dasharray:none;stroke-opacity:1"
       d="m 697.1038,442.16676 -0.14514,-0.88373"
       inkscape:connector-curvature="0" />
    <path
       id="path5091"
       style="fill:none;stroke:#3a5b3a;stroke-width:0.7019397;stroke-linecap:butt;stroke-linejoin:miter;stroke-miterlimit:10;stroke-dasharray:none;stroke-opacity:1"
       d="m 697.18533,443.05255 -0.0815,-0.88579"
       inkscape:connector-curvature="0" />
    <path
       id="path5093"
       style="fill:none;stroke:#3a5b3a;stroke-width:0.7019397;stroke-linecap:butt;stroke-linejoin:miter;stroke-miterlimit:10;stroke-dasharray:none;stroke-opacity:1"
       d="m 697.20296,443.93868 -0.0177,-0.88613"
       inkscape:connector-curvature="0" />
    <path
       style="fill:none;stroke:#3a5b3a;stroke-width:1.11297143;stroke-linecap:butt;stroke-linejoin:miter;stroke-miterlimit:10;stroke-dasharray:none;stroke-opacity:1"
       d="m 686.52148,408.69855 0.24089,-0.15699 3e-5,0 0.1143,-0.0745 m -0.3553,0.23149 -0.23062,0.15021 m -24.36912,9.40929 c 8.39989,-1.9053 16.81128,-4.56896 24.36912,-9.40929 m -24.43733,9.42438 0.0682,-0.0151 m -0.35992,0.0809 0.2703,-0.061 10e-6,0 0.0214,-0.005 m -0.29172,0.0659 -0.0944,0.0213 m -0.14618,0.0301 0.14618,-0.0301 m -0.33009,0.0685 0.18391,-0.0383 m -0.30424,0.0632 0.12033,-0.0247 m -0.17278,0.0357 0.0524,-0.011 m -0.0524,0.011 c -0.44218,0.0918 -0.88435,0.18358 -1.32654,0.27536 m -45.45551,1.27331 c 15.10748,1.97849 30.45049,1.64738 45.45551,-1.2731 m 27.23884,-10.27321 c 4.94773,-3.39189 10.51227,-8.49619 10.30851,-15.962 -0.65808,-7.34846 -6.34671,-12.02465 -11.40579,-15.30049 -12.5521,-7.57606 -26.75319,-10.25881 -40.66933,-11.58484 -18.82786,-1.35476 -38.14757,0.048 -56.13344,7.19728 -6.93983,3.05339 -14.41324,6.82427 -18.57521,14.45761 -3.40818,6.12552 -0.18672,13.77101 4.36647,17.58521 8.9332,8.02682 20.14416,11.31019 30.99004,13.72212 2.79501,0.5778 5.606,1.04481 8.42442,1.43162"
       id="path5349"
       inkscape:connector-curvature="0" />
    <path
       style="fill:none;stroke:#9090e3;stroke-width:1.2984668;stroke-linecap:round;stroke-linejoin:round;stroke-miterlimit:10;stroke-dasharray:none;stroke-opacity:1"
       d="m 696.47736,419.97065 c -0.55559,-3.28381 -0.6707,-6.67884 -2.30209,-9.80917 -1.49368,-1.30194 -2.63284,1.00384 -3.80241,1.56186 -2.03118,0.8602 -2.98999,-1.36585 -3.52982,-2.38879 -2.64393,-5.65487 -3.55506,-11.62547 -5.72862,-17.37374 -1.17451,-3.20375 -1.89361,-6.65902 -4.42709,-9.47568 -1.21384,-1.56823 -3.37879,-0.28405 -4.17425,0.84351 -3.37707,4.47944 -4.6006,9.70597 -8.68109,13.90522 -1.21496,1.339 -3.68141,0.89649 -4.50902,-0.44361 -3.38246,-3.85104 -4.66469,-8.42472 -6.64482,-12.70173 -1.78796,-3.9266 -3.08349,-8.09258 -6.1739,-11.62046 -0.68404,-1.15514 -3.12455,-2.02719 -4.24682,-0.72916 -2.93007,2.2899 -3.79005,5.50291 -5.2622,8.34157 -2.96893,6.78988 -4.84357,13.85473 -8.82232,20.39988 -0.75198,1.24139 -1.81483,2.68001 -3.52803,3.24681 -2.34274,0.28238 -3.61097,-1.51655 -4.53844,-2.75994 -4.4519,-6.12118 -5.95021,-13.16696 -10.99972,-19.07917 -1.00793,-1.14366 -3.25951,-2.0823 -4.76631,-0.82598 -3.34099,2.49176 -4.61486,6.01571 -6.47111,9.13131 -2.74194,4.69525 -4.60155,10.08479 -10.34016,13.4737 -5.26608,2.22215 -7.55397,6.37494 -9.83234,10.16684 -0.97929,1.1839 -1.49434,3.05054 -3.62864,3.39432 -1.94607,-0.45859 -1.86793,-2.65173 -3.6667,-2.96844 -1.48104,3.29173 -1.06342,6.86506 -1.3691,10.28646 0.016,2.8667 -0.33786,5.79572 0.2711,8.63094"
       id="path5375"
       inkscape:connector-curvature="0" />
    <path
       id="path5377"
       style="fill:none;stroke:#2d2db0;stroke-width:1.0756855;stroke-linecap:round;stroke-linejoin:round;stroke-miterlimit:10;stroke-dasharray:none;stroke-opacity:1"
       d="m 696.74962,422.17293 -0.27226,-2.20228"
       inkscape:connector-curvature="0" />
    <path
       id="path5379"
       style="fill:none;stroke:#2d2db0;stroke-width:1.0756855;stroke-linecap:round;stroke-linejoin:round;stroke-miterlimit:10;stroke-dasharray:none;stroke-opacity:1"
       d="m 696.84266,422.97333 -0.0931,-0.8004"
       inkscape:connector-curvature="0" />
    <path
       id="path4649-8"
       style="fill:none;stroke:#3a5b3a;stroke-width:1.11297143;stroke-linecap:round;stroke-linejoin:miter;stroke-miterlimit:10;stroke-dasharray:none;stroke-dashoffset:0;stroke-opacity:1"
       d="m 568.96724,443.94792 c 0,-16.56726 0,-34.98235 0,-50.54709"
       inkscape:connector-curvature="0"
       sodipodi:nodetypes="cc" />
    <path
       id="path4649-8-1"
       style="fill:none;stroke:#3a5b3a;stroke-width:1.11297143;stroke-linecap:butt;stroke-linejoin:miter;stroke-miterlimit:10;stroke-dasharray:none;stroke-dashoffset:0;stroke-opacity:1"
       d="m 697.18111,443.94792 c 0,-16.56726 0,-34.98235 0,-50.54709"
       inkscape:connector-curvature="0"
       sodipodi:nodetypes="cc" />
    <path
       style="fill:none;stroke:#567156;stroke-width:1.00397313;stroke-linecap:butt;stroke-linejoin:miter;stroke-miterlimit:10;stroke-dasharray:1.00397306, 2.00794612;stroke-dashoffset:0;stroke-opacity:1"
       d="m 568.96356,443.98085 c 0.0176,-7.58461 6.03501,-12.6084 11.02189,-15.98951 13.89825,-8.43841 29.75421,-11.0346 45.18319,-12.12774 17.86965,-0.71304 36.15694,0.87661 53.11888,7.96547 7.26696,3.5256 16.11664,7.82872 18.67114,17.45396"
       id="path4603-7"
       inkscape:connector-curvature="0" />
    <path
       style="fill:none;stroke:#3a5b3a;stroke-width:1.11297143;stroke-linecap:butt;stroke-linejoin:miter;stroke-miterlimit:3.8499999;stroke-dasharray:none;stroke-opacity:1;marker-end:url(#Arrow2MendE6s)"
       d="m 609.5107,469.78552 3.42992,0.63008"
       id="path4171-1"
       inkscape:connector-curvature="0"
       sodipodi:nodetypes="cc" />
  </g>
</svg>
