<?xml version="1.0" encoding="UTF-8" standalone="no"?>
<!-- Created with Inkscape (http://www.inkscape.org/) -->

<svg
   xmlns:dc="http://purl.org/dc/elements/1.1/"
   xmlns:cc="http://creativecommons.org/ns#"
   xmlns:rdf="http://www.w3.org/1999/02/22-rdf-syntax-ns#"
   xmlns:svg="http://www.w3.org/2000/svg"
   xmlns="http://www.w3.org/2000/svg"
   xmlns:sodipodi="http://sodipodi.sourceforge.net/DTD/sodipodi-0.dtd"
   xmlns:inkscape="http://www.inkscape.org/namespaces/inkscape"
   width="287.15109"
   height="76.055931"
   id="svg2"
   version="1.1"
   inkscape:version="0.91 r13725"
   sodipodi:docname="periodicity.svg"
   inkscape:export-filename="/home/cyd/jupyter/MH2801/img/periodicity.png"
   inkscape:export-xdpi="140.10046"
   inkscape:export-ydpi="140.10046">
  <sodipodi:namedview
     id="base"
     pagecolor="#ffffff"
     bordercolor="#666666"
     borderopacity="1.0"
     inkscape:pageopacity="0.0"
     inkscape:pageshadow="2"
     inkscape:zoom="2.8284271"
     inkscape:cx="201.92494"
     inkscape:cy="73.646491"
     inkscape:document-units="px"
     inkscape:current-layer="layer1"
     showgrid="false"
     inkscape:window-width="1920"
     inkscape:window-height="1027"
     inkscape:window-x="0"
     inkscape:window-y="0"
     inkscape:window-maximized="1"
     fit-margin-top="0"
     fit-margin-left="0"
     fit-margin-right="0"
     fit-margin-bottom="0" />
  <defs
     id="defs4">
    <marker
       inkscape:isstock="true"
       style="overflow:visible"
       id="marker4843"
       refX="0"
       refY="0"
       orient="auto"
       inkscape:stockid="Arrow2Mend">
      <path
         transform="scale(-0.6,-0.6)"
         d="M 8.7185878,4.0337352 -2.2072895,0.01601326 8.7185884,-4.0017078 c -1.7454984,2.3720609 -1.7354408,5.6174519 -6e-7,8.035443 z"
         style="fill:#000000;fill-opacity:1;fill-rule:evenodd;stroke:#000000;stroke-width:0.625;stroke-linejoin:round;stroke-opacity:1"
         id="path4614"
         inkscape:connector-curvature="0" />
    </marker>
    <marker
       style="overflow:visible"
       id="Arrow2Mend"
       refX="0"
       refY="0"
       orient="auto"
       inkscape:stockid="Arrow2Mend">
      <path
         transform="scale(-0.6,-0.6)"
         d="M 8.7185878,4.0337352 -2.2072895,0.01601326 8.7185884,-4.0017078 c -1.7454984,2.3720609 -1.7354408,5.6174519 -6e-7,8.035443 z"
         style="fill-rule:evenodd;stroke-width:0.625;stroke-linejoin:round"
         id="path4980"
         inkscape:connector-curvature="0" />
    </marker>
    <marker
       style="overflow:visible"
       id="Arrow2MendE"
       refX="0"
       refY="0"
       orient="auto"
       inkscape:stockid="Arrow2MendE">
      <path
         transform="scale(-0.6,-0.6)"
         d="M 8.7185878,4.0337352 -2.2072895,0.01601326 8.7185884,-4.0017078 c -1.7454984,2.3720609 -1.7354408,5.6174519 -6e-7,8.035443 z"
         style="fill:#175217;fill-rule:evenodd;stroke:#175217;stroke-width:0.625;stroke-linejoin:round"
         id="path5398"
         inkscape:connector-curvature="0" />
    </marker>
    <marker
       style="overflow:visible"
       id="Arrow2MendU"
       refX="0"
       refY="0"
       orient="auto"
       inkscape:stockid="Arrow2MendU">
      <path
         transform="scale(-0.6,-0.6)"
         d="M 8.7185878,4.0337352 -2.2072895,0.01601326 8.7185884,-4.0017078 c -1.7454984,2.3720609 -1.7354408,5.6174519 -6e-7,8.035443 z"
         style="fill:#175217;fill-rule:evenodd;stroke:#175217;stroke-width:0.625;stroke-linejoin:round"
         id="path5781"
         inkscape:connector-curvature="0" />
    </marker>
    <marker
       style="overflow:visible"
       id="Arrow2MendE6"
       refX="0"
       refY="0"
       orient="auto"
       inkscape:stockid="Arrow2MendE6">
      <path
         transform="scale(-0.6,-0.6)"
         d="M 8.7185878,4.0337352 -2.2072895,0.01601326 8.7185884,-4.0017078 c -1.7454984,2.3720609 -1.7354408,5.6174519 -6e-7,8.035443 z"
         style="fill:#294029;fill-rule:evenodd;stroke:#294029;stroke-width:0.625;stroke-linejoin:round"
         id="path4217"
         inkscape:connector-curvature="0" />
    </marker>
    <marker
       style="overflow:visible"
       id="Arrow2MendE6-5"
       refX="0"
       refY="0"
       orient="auto"
       inkscape:stockid="Arrow2MendE6">
      <path
         transform="scale(-0.6,-0.6)"
         d="M 8.7185878,4.0337352 -2.2072895,0.01601326 8.7185884,-4.0017078 c -1.7454984,2.3720609 -1.7354408,5.6174519 -6e-7,8.035443 z"
         style="fill:#294029;fill-rule:evenodd;stroke:#294029;stroke-width:0.625;stroke-linejoin:round"
         id="path4217-5"
         inkscape:connector-curvature="0" />
    </marker>
    <marker
       style="overflow:visible"
       id="Arrow2MendE6s"
       refX="0"
       refY="0"
       orient="auto"
       inkscape:stockid="Arrow2MendE6s">
      <path
         transform="scale(-0.6,-0.6)"
         d="M 8.7185878,4.0337352 -2.2072895,0.01601326 8.7185884,-4.0017078 c -1.7454984,2.3720609 -1.7354408,5.6174519 -6e-7,8.035443 z"
         style="fill:#3a5b3a;fill-rule:evenodd;stroke:#3a5b3a;stroke-width:0.625;stroke-linejoin:round"
         id="path7331"
         inkscape:connector-curvature="0" />
    </marker>
    <marker
       style="overflow:visible"
       id="Arrow2MendE6p"
       refX="0"
       refY="0"
       orient="auto"
       inkscape:stockid="Arrow2MendE6p">
      <path
         transform="scale(-0.6,-0.6)"
         d="M 8.7185878,4.0337352 -2.2072895,0.01601326 8.7185884,-4.0017078 c -1.7454984,2.3720609 -1.7354408,5.6174519 -6e-7,8.035443 z"
         style="fill:#3a5b3a;fill-rule:evenodd;stroke:#3a5b3a;stroke-width:0.625;stroke-linejoin:round"
         id="path7462"
         inkscape:connector-curvature="0" />
    </marker>
    <marker
       style="overflow:visible"
       id="Arrow2MendE6p5"
       refX="0"
       refY="0"
       orient="auto"
       inkscape:stockid="Arrow2MendE6p5">
      <path
         transform="scale(-0.6,-0.6)"
         d="M 8.7185878,4.0337352 -2.2072895,0.01601326 8.7185884,-4.0017078 c -1.7454984,2.3720609 -1.7354408,5.6174519 -6e-7,8.035443 z"
         style="fill:#000000;fill-rule:evenodd;stroke:#000000;stroke-width:0.625;stroke-linejoin:round"
         id="path4866"
         inkscape:connector-curvature="0" />
    </marker>
    <marker
       style="overflow:visible"
       id="Arrow2MendE6p5-3"
       refX="0"
       refY="0"
       orient="auto"
       inkscape:stockid="Arrow2MendE6p5">
      <path
         transform="scale(-0.6,-0.6)"
         d="M 8.7185878,4.0337352 -2.2072895,0.01601326 8.7185884,-4.0017078 c -1.7454984,2.3720609 -1.7354408,5.6174519 -6e-7,8.035443 z"
         style="fill:#000000;fill-rule:evenodd;stroke:#000000;stroke-width:0.625;stroke-linejoin:round"
         id="path4866-6"
         inkscape:connector-curvature="0" />
    </marker>
    <marker
       style="overflow:visible"
       id="Arrow2MendE6p5-3-5"
       refX="0"
       refY="0"
       orient="auto"
       inkscape:stockid="Arrow2MendE6p5">
      <path
         transform="scale(-0.6,-0.6)"
         d="M 8.7185878,4.0337352 -2.2072895,0.01601326 8.7185884,-4.0017078 c -1.7454984,2.3720609 -1.7354408,5.6174519 -6e-7,8.035443 z"
         style="fill:#000000;fill-rule:evenodd;stroke:#000000;stroke-width:0.625;stroke-linejoin:round"
         id="path4866-6-3"
         inkscape:connector-curvature="0" />
    </marker>
  </defs>
  <metadata
     id="metadata7">
    <rdf:RDF>
      <cc:Work
         rdf:about="">
        <dc:format>image/svg+xml</dc:format>
        <dc:type
           rdf:resource="http://purl.org/dc/dcmitype/StillImage" />
        <dc:title></dc:title>
      </cc:Work>
    </rdf:RDF>
  </metadata>
  <g
     id="layer1"
     inkscape:groupmode="layer"
     inkscape:label="Layer 1"
     transform="translate(-249.20021,-375.87705)">
    <path
       sodipodi:nodetypes="cc"
       inkscape:connector-curvature="0"
       id="path4171"
       d="m 256.10296,439.67749 277.93468,0"
       style="fill:none;stroke:#000000;stroke-width:0.88773972;stroke-linecap:butt;stroke-linejoin:miter;stroke-miterlimit:3.8499999;stroke-dasharray:none;stroke-opacity:1;marker-end:url(#Arrow2MendE6p5)"
       inkscape:export-filename="/home/cyd/jupyter/MH2801/img/path4171-7-5.png"
       inkscape:export-xdpi="140.10046"
       inkscape:export-ydpi="140.10046" />
    <path
       style="fill:none;stroke:#555555;stroke-width:0.78404754;stroke-linecap:butt;stroke-linejoin:miter;stroke-miterlimit:4;stroke-dasharray:2.3521427, 2.3521427;stroke-dashoffset:0;stroke-opacity:1"
       d="m 349.43889,379.99661 0,60.31043"
       id="path5418"
       inkscape:connector-curvature="0"
       sodipodi:nodetypes="cc"
       inkscape:export-filename="/home/cyd/jupyter/MH2801/img/path4171-7-5.png"
       inkscape:export-xdpi="140.10046"
       inkscape:export-ydpi="140.10046" />
    <path
       style="fill:none;stroke:#000000;stroke-width:1;stroke-linecap:butt;stroke-linejoin:miter;stroke-miterlimit:4;stroke-dasharray:none;stroke-dashoffset:0;stroke-opacity:1;marker-end:url(#marker4843)"
       d="m 256.59228,439.93199 0,-48.3824"
       id="path5418-8"
       inkscape:connector-curvature="0"
       sodipodi:nodetypes="cc"
       inkscape:export-filename="/home/cyd/jupyter/MH2801/img/path4171-7-5.png"
       inkscape:export-xdpi="140.10046"
       inkscape:export-ydpi="140.10046" />
    <g
       transform="matrix(0.336,0,0,0.336,426.7837,331.62182)"
       id="g5453"
       inkscape:export-filename="/home/cyd/jupyter/MH2801/img/path4171-7-5.png"
       inkscape:export-xdpi="140.10046"
       inkscape:export-ydpi="140.10046">
      <g
         style="font-style:normal;font-variant:normal;font-weight:normal;font-stretch:normal;letter-spacing:normal;word-spacing:normal;text-anchor:start;fill:none;stroke:#000000;stroke-linecap:butt;stroke-linejoin:miter;stroke-miterlimit:10.43299961;stroke-dasharray:none;stroke-dashoffset:0;stroke-opacity:1"
         id="content"
         transform="matrix(1.0629921,0,0,-1.0629921,-186.02362,789.27165)"
         xml:space="preserve"
         stroke-miterlimit="10.433"
         font-style="normal"
         font-variant="normal"
         font-weight="normal"
         font-stretch="normal"
         font-size-adjust="none"
         letter-spacing="normal"
         word-spacing="normal"><path
           style="fill:#000000;stroke-width:0"
           inkscape:connector-curvature="0"
           d="m 472.16,421.25 0.03,0.13 0.04,0.15 0.04,0.16 0.04,0.18 0.06,0.19 0.06,0.21 0.06,0.22 0.07,0.22 0.08,0.23 0.09,0.24 0.1,0.25 0.1,0.24 0.11,0.25 0.12,0.25 0.13,0.25 0.14,0.25 0.15,0.24 0.15,0.24 0.17,0.23 0.18,0.22 0.18,0.22 0.2,0.2 0.21,0.19 0.22,0.18 0.23,0.16 0.25,0.14 0.12,0.07 0.13,0.06 0.14,0.05 0.13,0.05 0.14,0.05 0.14,0.04 0.15,0.03 0.15,0.03 0.15,0.02 0.16,0.02 0.16,0.01 0.16,0 c 0.25,0 1.44,0 2.48,-0.64 -1.39,-0.25 -2.39,-1.5 -2.39,-2.69 0,-0.79 0.55,-1.75 1.89,-1.75 1.1,0 2.69,0.89 2.69,2.89 0,2.6 -2.94,3.28 -4.63,3.28 -2.89,0 -4.64,-2.64 -5.23,-3.78 -1.25,3.28 -3.94,3.78 -5.37,3.78 -5.19,0 -8.04,-6.42 -8.04,-7.67 0,-0.5 0.5,-0.5 0.61,-0.5 0.39,0 0.55,0.11 0.64,0.55 1.69,5.28 4.99,6.53 6.68,6.53 0.95,0 2.68,-0.44 2.68,-3.33 0,-1.54 -0.84,-4.89 -2.68,-11.86 -0.8,-3.09 -2.54,-5.18 -4.74,-5.18 -0.3,0 -1.44,0 -2.48,0.65 1.25,0.24 2.34,1.28 2.34,2.69 0,1.34 -1.09,1.73 -1.84,1.73 -1.5,0 -2.75,-1.29 -2.75,-2.89 0,-2.28 2.5,-3.28 4.68,-3.28 3.3,0 5.08,3.49 5.24,3.78 0.59,-1.84 2.39,-3.78 5.37,-3.78 5.14,0 7.99,6.42 7.99,7.67 0,0.5 -0.45,0.5 -0.61,0.5 -0.44,0 -0.55,-0.2 -0.64,-0.54 -1.64,-5.33 -5.03,-6.53 -6.63,-6.53 -1.95,0 -2.75,1.59 -2.75,3.29 0,1.1 0.3,2.19 0.86,4.38 z"
           id="path5456" /></g>    </g>
    <path
       id="path3226"
       style="fill:none;stroke:#43439b;stroke-width:0.91472208;stroke-linecap:round;stroke-linejoin:round;stroke-miterlimit:10;stroke-dasharray:none;stroke-opacity:1"
       d="m 258.25171,407.83265 0.45739,-0.74275 0.45747,-0.50244 0.45749,-0.14694 0.45737,0.26667 0.45748,0.66584 0.45749,0.97666 0.45738,1.13504 0.45748,1.09941 0.45746,0.85795 0.4574,0.43392 0.45748,-0.11754 0.45751,-0.7142 0.45739,-1.25929 0.4574,-1.65494 0.45741,-1.81682 0.45739,-1.68833 0.45761,-1.2499 0.4574,-0.52494 0.4574,0.42148 0.4574,1.4892 0.4576,2.55486 0.4574,3.48839 0.45741,4.16847 0.4574,4.50199 0.45739,4.43432 0.45761,3.95891 0.4574,3.1206 0.4574,2.00758 0.4574,0.74396 0.4574,-0.52766 0.4576,-1.66451 0.45741,-2.54141 0.4574,-3.0669 0.45739,-3.19498 0.4576,-2.93085 0.45741,-2.32868 0.4574,-1.48415 0.4574,-0.52057 0.45739,0.42854 0.45762,1.23697 0.45739,1.80387 0.45741,2.0662 0.45739,2.00658 0.45761,1.65493 0.4574,1.08146 0.4574,0.38707 0.4574,-0.31335 0.4574,-0.90867 0.4576,-1.30647 0.45741,-1.44838 0.4574,-1.31707 0.45739,-0.93922 0.4574,-0.38052 0.45761,0.26432 0.4574,0.88733 0.4574,1.38221 0.45739,1.66333 0.45761,1.67777 0.4574,1.41413 0.4574,0.90597 0.4574,0.22603 0.4574,-0.52343 0.4576,-1.22638 0.45741,-1.77013 0.4574,-2.06417 0.4574,-2.05443 0.4574,-1.73236 0.45761,-1.13889 0.4574,-0.36053 0.45739,0.4838 0.4574,1.2566 0.45761,1.8247 0.4574,2.07695 0.4574,1.94342 0.45739,1.40792 0.45741,0.51218 0.45761,-0.64636 0.45739,-1.92562 0.4574,-3.15688 0.4574,-4.16731 0.45761,-4.80342 0.4574,-4.95421 0.4574,-4.56733 0.45739,-3.65899 0.45741,-2.31572 0.4576,-0.68499 0.45741,1.04283 0.45739,2.65579 0.4574,3.95035 0.45741,4.7554 0.4576,4.95807 0.4574,4.51845 0.4574,3.47711 0.4574,1.95268 0.4576,0.12763 0.4574,-1.77332 0.4574,-3.51072 0.4574,-4.86069 0.4574,-5.64271 0.45761,-5.74466 0.4574,-5.13575 0.45739,-3.87193 0.45741,-2.09069 0.45739,0.006 0.45762,2.17902 0.45739,4.17504 0.4574,5.7633 0.4574,6.76163 0.45761,7.05752 0.4574,6.62208 0.45739,5.51191 0.45741,3.86117 0.4574,1.86422 0.45761,-0.25031 0.45739,-2.24599 0.4574,-3.9087 0.4574,-5.07126 0.4574,-5.63113 0.45761,-5.56112 0.45739,-4.90771 0.45741,-3.78358 0.4574,-2.34813 0.4576,-0.7864 0.4574,0.71603 0.4574,1.99717 0.45741,2.93656 0.45739,3.46823 0.45761,3.58543 0.45739,3.33639 0.45741,2.81315 0.4574,2.13452 0.45739,1.42807 0.45761,0.80873 0.4574,0.36407 0.4574,0.14173 0.4574,0.14526 0.4576,0.33653 0.4574,0.64334 0.4574,0.97549 0.45741,1.23812 0.45739,1.35067 0.45761,1.25995 0.45739,0.94897 0.45741,0.44216 0.4574,-0.19967 0.4576,-0.88698 0.4574,-1.51624 0.45741,-1.98509 0.4574,-2.20992 0.4574,-2.13958 0.4576,-1.76392 0.4574,-1.11906 0.45741,-0.28212 0.45739,0.63677 0.45741,1.51053 0.4576,2.21076 0.45739,2.62789 0.45741,2.68554 0.45739,2.35333 0.4576,1.65158 0.45742,0.65072 0.45739,-0.5372 0.4574,-1.77316 0.45739,-2.908 0.45761,-3.80224 0.45741,-4.34449 0.45739,-4.46587 0.4574,-4.14866 0.45762,-3.42909 0.45738,-2.39231 0.45742,-1.16021 0.45738,0.12276 0.45741,1.30983 0.45761,2.27004 0.45739,2.90381 0.45741,3.15555 0.45739,3.01868 0.45741,2.53437 0.45761,1.78442 0.45739,0.87927 0.4574,-0.0591 0.45739,-0.91319 0.45741,-1.58509 0.45761,-2.00908 0.45739,-2.15889 0.4574,-2.04737 0.4574,-1.72346 0.4576,-1.26113 0.45741,-0.74897 0.4574,-0.27254 0.4574,0.0951 0.45739,0.3063 0.45761,0.34426 0.45741,0.22401 0.45739,-0.012 0.4574,-0.30211 0.45762,-0.57667 0.45739,-0.7701 0.4574,-0.83342"
       inkscape:connector-curvature="0"
       inkscape:export-filename="/home/cyd/jupyter/MH2801/img/path4171-7-5.png"
       inkscape:export-xdpi="140.10046"
       inkscape:export-ydpi="140.10046" />
    <path
       style="fill:none;stroke:#555555;stroke-width:0.78404754;stroke-linecap:butt;stroke-linejoin:miter;stroke-miterlimit:4;stroke-dasharray:2.3521427, 2.3521427;stroke-dashoffset:0;stroke-opacity:1"
       d="m 440.65811,379.99661 0,60.31043"
       id="path5418-3"
       inkscape:connector-curvature="0"
       sodipodi:nodetypes="cc"
       inkscape:export-filename="/home/cyd/jupyter/MH2801/img/path4171-7-5.png"
       inkscape:export-xdpi="140.10046"
       inkscape:export-ydpi="140.10046" />
    <path
       id="path3226-7"
       style="fill:none;stroke:#0000f7;stroke-width:0.91472208;stroke-linecap:round;stroke-linejoin:round;stroke-miterlimit:10;stroke-dasharray:none;stroke-opacity:1"
       d="m 349.30176,407.83265 0.45738,-0.74275 0.45749,-0.50244 0.45748,-0.14694 0.45737,0.26667 0.45749,0.66584 0.45748,0.97666 0.45738,1.13504 0.45748,1.09941 0.45746,0.85795 0.4574,0.43392 0.45747,-0.11754 0.45751,-0.7142 0.45741,-1.25929 0.45739,-1.65494 0.4574,-1.81682 0.45741,-1.68833 0.4576,-1.2499 0.4574,-0.52494 0.4574,0.42148 0.4574,1.4892 0.4576,2.55486 0.4574,3.48839 0.4574,4.16847 0.45741,4.50199 0.45739,4.43432 0.45761,3.95891 0.4574,3.1206 0.4574,2.00758 0.4574,0.74396 0.4574,-0.52766 0.4576,-1.66451 0.4574,-2.54141 0.4574,-3.0669 0.4574,-3.19498 0.45761,-2.93085 0.4574,-2.32868 0.45739,-1.48415 0.45741,-0.52057 0.4574,0.42854 0.45761,1.23697 0.45739,1.80387 0.4574,2.0662 0.4574,2.00658 0.45761,1.65493 0.4574,1.08146 0.45739,0.38707 0.4574,-0.31335 0.45741,-0.90867 0.45761,-1.30647 0.45739,-1.44838 0.4574,-1.31707 0.4574,-0.93922 0.4574,-0.38052 0.45761,0.26432 0.45739,0.88733 0.4574,1.38221 0.45741,1.66333 0.4576,1.67777 0.4574,1.41413 0.45739,0.90597 0.45741,0.22603 0.45741,-0.52343 0.45759,-1.22638 0.45741,-1.77013 0.4574,-2.06417 0.4574,-2.05443 0.4574,-1.73236 0.4576,-1.13889 0.4574,-0.36053 0.4574,0.4838 0.45741,1.2566 0.4576,1.8247 0.4574,2.07695 0.4574,1.94342 0.4574,1.40792 0.4574,0.51218 0.4576,-0.64636 0.4574,-1.92562 0.45741,-3.15688 0.45739,-4.16731 0.45761,-4.80342 0.4574,-4.95421 0.4574,-4.56733 0.4574,-3.65899 0.4574,-2.31572 0.4576,-0.68499 0.4574,1.04283 0.4574,2.65579 0.45741,3.95035 0.45739,4.7554 0.4576,4.95807 0.45741,4.51845 0.45741,3.47711 0.45739,1.95268 0.4576,0.12763 0.4574,-1.77332 0.45741,-3.51072 0.4574,-4.86069 0.45739,-5.64271 0.45761,-5.74466 0.4574,-5.13575 0.4574,-3.87193 0.4574,-2.09069 0.45739,0.006 0.45761,2.17902 0.4574,4.17504 0.45741,5.7633 0.45739,6.76163 0.4576,7.05752 0.4574,6.62208 0.45741,5.51191 0.4574,3.86117 0.45739,1.86422 0.45762,-0.25031 0.45739,-2.24599 0.45741,-3.9087 0.45739,-5.07126 0.45741,-5.63113 0.4576,-5.56112 0.4574,-4.90771 0.4574,-3.78358 0.4574,-2.34813 0.4576,-0.7864 0.45741,0.71603 0.45739,1.99717 0.4574,2.93656 0.4574,3.46823 0.45761,3.58543 0.4574,3.33639 0.45739,2.81315 0.4574,2.13452 0.45741,1.42807 0.4576,0.80873 0.4574,0.36407 0.4574,0.14173 0.4574,0.14526 0.45761,0.33653 0.4574,0.64334 0.45739,0.97549 0.45741,1.23812 0.45739,1.35067 0.45761,1.25995 0.4574,0.94897 0.4574,0.44216 0.4574,-0.19967 0.45761,-0.88698 0.4574,-1.51624 0.45739,-1.98509 0.4574,-2.20992 0.45742,-2.13958 0.45759,-1.76392 0.4574,-1.11906 0.45741,-0.28212 0.45739,0.63677 0.45741,1.51053 0.4576,2.21076 0.45739,2.62789 0.45741,2.68554 0.45739,2.35333 0.4576,1.65158 0.45742,0.65072 0.45738,-0.5372 0.45742,-1.77316 0.45739,-2.908 0.45761,-3.80224 0.4574,-4.34449 0.45739,-4.46587 0.45741,-4.14866 0.45761,-3.42909 0.45739,-2.39231 0.45741,-1.16021 0.45738,0.12276 0.45742,1.30983 0.4576,2.27004 0.45739,2.90381 0.45741,3.15555 0.4574,3.01868 0.4574,2.53437 0.4576,1.78442 0.45739,0.87927 0.45742,-0.0591 0.45739,-0.91319 0.4574,-1.58509 0.45761,-2.00908 0.45739,-2.15889 0.45741,-2.04737 0.4574,-1.72346 0.45759,-1.26113 0.45741,-0.74897 0.4574,-0.27254 0.45741,0.0951 0.45739,0.3063 0.4576,0.34426 0.45741,0.22401 0.45739,-0.012 0.45741,-0.30211 0.4576,-0.57667 0.45739,-0.7701 0.45741,-0.83342"
       inkscape:connector-curvature="0"
       inkscape:export-filename="/home/cyd/jupyter/MH2801/img/path4171-7-5.png"
       inkscape:export-xdpi="140.10046"
       inkscape:export-ydpi="140.10046" />
    <path
       id="path3226-7-5"
       style="fill:none;stroke:#43439b;stroke-width:0.91472208;stroke-linecap:round;stroke-linejoin:round;stroke-miterlimit:10;stroke-dasharray:none;stroke-opacity:1"
       d="m 440.34393,407.83265 0.45738,-0.74275 0.45748,-0.50244 0.45749,-0.14694 0.45736,0.26667 0.45749,0.66584 0.45748,0.97666 0.45738,1.13504 0.45749,1.09941 0.45745,0.85795 0.4574,0.43392 0.45747,-0.11754 0.45751,-0.7142 0.45741,-1.25929 0.45739,-1.65494 0.45741,-1.81682 0.4574,-1.68833 0.4576,-1.2499 0.4574,-0.52494 0.45741,0.42148 0.45739,1.4892 0.4576,2.55486 0.4574,3.48839 0.45741,4.16847 0.4574,4.50199 0.45739,4.43432 0.45761,3.95891 0.45741,3.1206 0.45739,2.00758 0.4574,0.74396 0.4574,-0.52766 0.4576,-1.66451 0.4574,-2.54141 0.4574,-3.0669 0.45741,-3.19498 0.4576,-2.93085 0.45739,-2.32868 0.45741,-1.48415 0.45741,-0.52057 0.45739,0.42854 0.4576,1.23697 0.4574,1.80387 0.4574,2.0662 0.4574,2.00658 0.45761,1.65493 0.45739,1.08146 0.4574,0.38707 0.4574,-0.31335 0.45741,-0.90867 0.4576,-1.30647 0.4574,-1.44838 0.45741,-1.31707 0.4574,-0.93922 0.45739,-0.38052 0.4576,0.26432 0.4574,0.88733 0.45741,1.38221 0.4574,1.66333 0.4576,1.67777 0.4574,1.41413 0.4574,0.90597 0.45741,0.22603 0.4574,-0.52343 0.45759,-1.22638 0.45742,-1.77013 0.45739,-2.06417 0.4574,-2.05443 0.4574,-1.73236 0.4576,-1.13889 0.45741,-0.36053 0.4574,0.4838 0.4574,1.2566 0.45761,1.8247 0.4574,2.07695 0.4574,1.94342 0.45739,1.40792 0.45741,0.51218 0.4576,-0.64636 0.4574,-1.92562 0.4574,-3.15688 0.45739,-4.16731 0.45761,-4.80342 0.4574,-4.95421 0.45741,-4.56733 0.45739,-3.65899 0.4574,-2.31572 0.4576,-0.68499 0.45741,1.04283 0.4574,2.65579 0.4574,3.95035 0.4574,4.7554 0.4576,4.95807 0.45741,4.51845 0.45739,3.47711 0.4574,1.95268 0.45761,0.12763 0.4574,-1.77332 0.4574,-3.51072 0.4574,-4.86069 0.4574,-5.64271 0.4576,-5.74466 0.45741,-5.13575 0.45739,-3.87193 0.4574,-2.09069 0.4574,0.006 0.45761,2.17902 0.4574,4.17504 0.45739,5.7633 0.4574,6.76163 0.45761,7.05752 0.4574,6.62208 0.4574,5.51191 0.4574,3.86117 0.4574,1.86422 0.45761,-0.25031 0.4574,-2.24599 0.4574,-3.9087 0.4574,-5.07126 0.4574,-5.63113 0.45761,-5.56112 0.45739,-4.90771 0.4574,-3.78358 0.45741,-2.34813 0.4576,-0.7864 0.4574,0.71603 0.45739,1.99717 0.45741,2.93656 0.4574,3.46823 0.4576,3.58543 0.4574,3.33639 0.4574,2.81315 0.4574,2.13452 0.4574,1.42807 0.45761,0.80873 0.4574,0.36407 0.4574,0.14173 0.4574,0.14526 0.4576,0.33653 0.4574,0.64334 0.4574,0.97549 0.4574,1.23812 0.4574,1.35067 0.4576,1.25995 0.4574,0.94897 0.4574,0.44216 0.45741,-0.19967 0.4576,-0.88698 0.45739,-1.51624 0.45741,-1.98509 0.4574,-2.20992 0.4574,-2.13958 0.4576,-1.76392 0.4574,-1.11906 0.45741,-0.28212 0.45739,0.63677 0.45741,1.51053 0.45761,2.21076 0.45738,2.62789 0.45742,2.68554 0.45739,2.35333 0.4576,1.65158 0.45741,0.65072 0.45739,-0.5372 0.45741,-1.77316 0.45739,-2.908 0.4576,-3.80224 0.45742,-4.34449 0.45739,-4.46587 0.4574,-4.14866 0.45761,-3.42909 0.45739,-2.39231 0.45741,-1.16021 0.45739,0.12276 0.45741,1.30983 0.4576,2.27004 0.45739,2.90381 0.45741,3.15555 0.4574,3.01868 0.4574,2.53437 0.45761,1.78442 0.45739,0.87927 0.45741,-0.0591 0.45739,-0.91319 0.45741,-1.58509 0.45761,-2.00908 0.45739,-2.15889 0.4574,-2.04737 0.45739,-1.72346 0.4576,-1.26113 0.45742,-0.74897 0.45739,-0.27254 0.45741,0.0951 0.45739,0.3063 0.4576,0.34426 0.45741,0.22401 0.4574,-0.012 0.4574,-0.30211 0.45761,-0.57667 0.45739,-0.7701 0.45741,-0.83342"
       inkscape:connector-curvature="0"
       inkscape:export-filename="/home/cyd/jupyter/MH2801/img/path4171-7-5.png"
       inkscape:export-xdpi="140.10046"
       inkscape:export-ydpi="140.10046" />
    <g
       id="g4966"
       transform="matrix(1.5615722,0,0,1.5615722,181.13098,-44.379949)"
       inkscape:export-filename="/home/cyd/jupyter/MH2801/img/path4171-7-5.png"
       inkscape:export-xdpi="140.10046"
       inkscape:export-ydpi="140.10046">
      <g
         id="g4968"
         transform="matrix(0.15394191,0,0,-0.15394191,-26.939835,338.40843)"
         xml:space="preserve"
         stroke-miterlimit="10.433"
         font-style="normal"
         font-variant="normal"
         font-weight="normal"
         font-stretch="normal"
         font-size-adjust="none"
         letter-spacing="normal"
         word-spacing="normal"
         style="font-style:normal;font-variant:normal;font-weight:normal;font-stretch:normal;letter-spacing:normal;word-spacing:normal;text-anchor:start;fill:none;fill-opacity:1;fill-rule:evenodd;stroke:#000000;stroke-linecap:butt;stroke-linejoin:miter;stroke-miterlimit:10.43299961;stroke-dasharray:none;stroke-dashoffset:0;stroke-opacity:1"><path
           d="m 473.8,426.12 4.28,0 c 1,0 1.5,0 1.5,1 0,0.55 -0.5,0.55 -1.34,0.55 l -4.14,0 1.04,5.69 c 0.21,1.04 0.91,4.57 1.21,5.17 0.45,0.95 1.29,1.7 2.34,1.7 0.19,0 1.49,0 2.44,-0.91 -2.19,-0.18 -2.69,-1.93 -2.69,-2.68 0,-1.14 0.89,-1.74 1.85,-1.74 1.29,0 2.73,1.1 2.73,2.99 0,2.29 -2.3,3.43 -4.33,3.43 -1.7,0 -4.84,-0.89 -6.33,-5.82 -0.29,-1.05 -0.45,-1.55 -1.64,-7.83 l -3.43,0 c -0.96,0 -1.5,0 -1.5,-0.94 0,-0.61 0.45,-0.61 1.39,-0.61 l 3.29,0 -3.75,-19.67 c -0.89,-4.83 -1.73,-9.38 -4.33,-9.38 -0.2,0 -1.43,0 -2.39,0.91 2.3,0.14 2.74,1.94 2.74,2.69 0,1.14 -0.89,1.75 -1.85,1.75 -1.29,0 -2.73,-1.1 -2.73,-3 0,-2.24 2.19,-3.44 4.23,-3.44 2.74,0 4.74,2.94 5.63,4.84 1.59,3.14 2.75,9.16 2.8,9.52 z"
           id="path4970"
           inkscape:connector-curvature="0"
           style="fill:#000000;stroke-width:0" /><path
           d="m 501.77,394.25 0,0.02 -0.01,0.03 0,0.01 0,0.02 0,0.01 -0.01,0.02 0,0.01 -0.01,0.02 -0.01,0.02 -0.01,0.02 -0.01,0.02 -0.01,0.03 -0.02,0.02 -0.02,0.03 -0.02,0.03 -0.02,0.03 -0.03,0.03 -0.03,0.04 -0.02,0.02 -0.01,0.02 -0.02,0.02 -0.02,0.02 -0.02,0.02 -0.02,0.03 -0.02,0.02 -0.02,0.02 -0.02,0.03 -0.03,0.02 -0.02,0.03 -0.03,0.03 -0.02,0.03 -0.03,0.03 -0.03,0.03 -0.03,0.03 -0.03,0.03 -0.03,0.03 -0.04,0.04 -0.03,0.03 -0.03,0.04 -0.04,0.03 -0.04,0.04 -0.04,0.04 c -6.22,6.28 -7.81,15.69 -7.81,23.31 0,8.67 1.89,17.35 8.01,23.56 0.65,0.61 0.65,0.71 0.65,0.86 0,0.35 -0.19,0.49 -0.49,0.49 -0.5,0 -4.98,-3.38 -7.92,-9.7 -2.55,-5.49 -3.14,-11.02 -3.14,-15.21 0,-3.89 0.55,-9.9 3.28,-15.54 2.98,-6.13 7.28,-9.36 7.78,-9.36 0.3,0 0.49,0.14 0.49,0.5 z"
           id="path4972"
           inkscape:connector-curvature="0"
           style="fill:#000000;stroke-width:0" /><path
           d="m 521.24,421.25 0.03,0.13 0.03,0.15 0.05,0.16 0.04,0.18 0.05,0.19 0.06,0.21 0.07,0.22 0.07,0.22 0.08,0.23 0.09,0.24 0.09,0.25 0.11,0.24 0.11,0.25 0.12,0.25 0.13,0.25 0.14,0.25 0.14,0.24 0.16,0.24 0.17,0.23 0.17,0.22 0.19,0.22 0.2,0.2 0.21,0.19 0.22,0.18 0.23,0.16 0.25,0.14 0.12,0.07 0.13,0.06 0.14,0.05 0.13,0.05 0.14,0.05 0.14,0.04 0.15,0.03 0.15,0.03 0.15,0.02 0.15,0.02 0.16,0.01 0.17,0 c 0.25,0 1.43,0 2.48,-0.64 -1.39,-0.25 -2.39,-1.5 -2.39,-2.69 0,-0.79 0.55,-1.75 1.89,-1.75 1.09,0 2.69,0.89 2.69,2.89 0,2.6 -2.94,3.28 -4.63,3.28 -2.89,0 -4.64,-2.64 -5.23,-3.78 -1.25,3.28 -3.94,3.78 -5.38,3.78 -5.18,0 -8.03,-6.42 -8.03,-7.67 0,-0.5 0.5,-0.5 0.61,-0.5 0.39,0 0.55,0.11 0.64,0.55 1.69,5.28 4.99,6.53 6.67,6.53 0.96,0 2.69,-0.44 2.69,-3.33 0,-1.54 -0.84,-4.89 -2.69,-11.86 -0.79,-3.09 -2.53,-5.18 -4.73,-5.18 -0.3,0 -1.44,0 -2.48,0.65 1.25,0.24 2.34,1.28 2.34,2.69 0,1.34 -1.09,1.73 -1.84,1.73 -1.5,0 -2.75,-1.29 -2.75,-2.89 0,-2.28 2.5,-3.28 4.68,-3.28 3.3,0 5.08,3.49 5.24,3.78 0.59,-1.84 2.39,-3.78 5.37,-3.78 5.14,0 7.99,6.42 7.99,7.67 0,0.5 -0.46,0.5 -0.61,0.5 -0.44,0 -0.55,-0.2 -0.64,-0.54 -1.64,-5.33 -5.04,-6.53 -6.63,-6.53 -1.95,0 -2.75,1.59 -2.75,3.29 0,1.1 0.3,2.19 0.86,4.38 z"
           id="path4974"
           inkscape:connector-curvature="0"
           style="fill:#000000;stroke-width:0" /><path
           d="m 547.43,418.65 -0.01,0.37 0,0.39 -0.01,0.39 -0.01,0.41 -0.04,0.84 -0.06,0.88 -0.08,0.92 -0.11,0.95 -0.14,0.97 -0.16,1.01 -0.2,1.02 -0.23,1.03 -0.26,1.05 -0.31,1.06 -0.35,1.07 -0.39,1.07 -0.21,0.53 -0.23,0.53 -0.24,0.53 -0.24,0.53 c -2.99,6.12 -7.27,9.36 -7.77,9.36 -0.3,0 -0.5,-0.19 -0.5,-0.49 0,-0.15 0,-0.25 0.94,-1.15 4.89,-4.92 7.73,-12.85 7.73,-23.27 0,-8.51 -1.84,-17.28 -8.03,-23.56 -0.64,-0.59 -0.64,-0.7 -0.64,-0.84 0,-0.3 0.2,-0.5 0.5,-0.5 0.5,0 4.97,3.39 7.92,9.71 2.53,5.47 3.13,11 3.13,15.19 z"
           id="path4976"
           inkscape:connector-curvature="0"
           style="fill:#000000;stroke-width:0" /></g>    </g>
    <g
       id="g5054"
       transform="matrix(1.5615722,0,0,1.5615722,305.47327,-46.612425)"
       inkscape:export-filename="/home/cyd/jupyter/MH2801/img/path4171-7-5.png"
       inkscape:export-xdpi="140.10046"
       inkscape:export-ydpi="140.10046">
      <g
         word-spacing="normal"
         letter-spacing="normal"
         font-size-adjust="none"
         font-stretch="normal"
         font-weight="normal"
         font-variant="normal"
         font-style="normal"
         stroke-miterlimit="10.433"
         xml:space="preserve"
         transform="matrix(0.15394191,0,0,-0.15394191,-26.939835,338.40843)"
         id="g5056"
         style="font-style:normal;font-variant:normal;font-weight:normal;font-stretch:normal;letter-spacing:normal;word-spacing:normal;text-anchor:start;fill:none;fill-opacity:1;fill-rule:evenodd;stroke:#000000;stroke-linecap:butt;stroke-linejoin:miter;stroke-miterlimit:10.43299961;stroke-dasharray:none;stroke-dashoffset:0;stroke-opacity:1"><path
           id="path5058"
           d="m 466.83,421.95 -0.15,1.28 0,13.45 c 0,1.66 0.11,2 2.43,2 l 4.44,0 c 7.92,0 7.92,-5.28 7.92,-7.72 0,-2.34 0,-7.73 -7.92,-7.73 l -6.87,0 0.15,-1.28 8.42,0 c 5.97,0 11.36,4.03 11.36,9.01 0,4.88 -4.93,9.27 -11.76,9.27 l -17.58,0 0,-1.55 1.19,0 c 3.84,0 3.93,-0.54 3.93,-2.34 l 0,-26.25 c 0,-1.8 -0.09,-2.34 -3.93,-2.34 l -1.19,0 0,-1.55 c 1.73,0.16 5.42,0.16 7.31,0.16 1.89,0 5.64,0 7.38,-0.16 l 0,1.55 -1.19,0 c -3.84,0 -3.94,0.54 -3.94,2.34 z"
           inkscape:connector-curvature="0"
           style="fill:#000000;stroke-width:0" /><path
           id="path5060"
           d="m 493.57,417.71 0.04,1.05 c 0.3,7.42 4.49,8.66 6.19,8.66 5.13,0 5.63,-6.72 5.63,-8.66 l -11.82,0 -0.04,-1.05 13.9,0 c 1.1,0 1.24,0 1.24,1.05 0,4.92 -2.69,9.75 -8.91,9.75 -5.78,0 -10.37,-5.12 -10.37,-11.36 0,-6.67 5.23,-11.5 10.96,-11.5 6.08,0 8.32,5.53 8.32,6.47 0,0.5 -0.39,0.61 -0.64,0.61 -0.46,0 -0.55,-0.3 -0.66,-0.7 -1.73,-5.13 -6.22,-5.13 -6.72,-5.13 -2.5,0 -4.48,1.49 -5.62,3.33 -1.5,2.39 -1.5,5.69 -1.5,7.48 z"
           inkscape:connector-curvature="0"
           style="fill:#000000;stroke-width:0" /><path
           id="path5062"
           d="m 518.43,422.75 0,5.46 -6.93,-0.54 0,-1.55 c 3.49,0 3.9,-0.34 3.9,-2.78 l 0,-13.36 c 0,-2.23 -0.55,-2.23 -3.9,-2.23 l 0,-1.55 c 1.96,0.05 4.28,0.16 5.69,0.16 1.99,0 4.33,0 6.33,-0.16 l 0,1.55 -1.05,0 c -3.69,0 -3.79,0.54 -3.79,2.34 l 0,7.67 c 0,4.92 2.09,9.36 5.89,9.36 0.34,0 0.43,0 0.54,-0.05 -0.15,-0.04 -1.15,-0.64 -1.15,-1.93 0,-1.41 1.04,-2.14 2.15,-2.14 0.89,0 2.14,0.59 2.14,2.18 0,1.6 -1.54,3.03 -3.68,3.03 -3.64,0 -5.44,-3.32 -6.14,-5.46 z"
           inkscape:connector-curvature="0"
           style="fill:#000000;stroke-width:0" /><path
           id="path5064"
           d="m 538.48,428.21 -6.96,-0.54 0,-1.55 c 3.23,0 3.68,-0.3 3.68,-2.73 l 0,-13.41 c 0,-2.23 -0.54,-2.23 -3.89,-2.23 l 0,-1.55 c 1.6,0.05 4.28,0.16 5.49,0.16 1.75,0 3.48,-0.11 5.18,-0.16 l 0,1.55 c -3.29,0 -3.5,0.25 -3.5,2.18 z"
           inkscape:connector-curvature="0"
           style="fill:#000000;stroke-width:0" /><path
           id="path5066"
           d="m 538.69,436.89 -0.01,0.14 -0.01,0.15 -0.01,0.14 -0.03,0.14 -0.03,0.13 -0.04,0.13 -0.04,0.13 -0.05,0.12 -0.05,0.12 -0.06,0.12 -0.07,0.11 -0.07,0.1 -0.08,0.1 -0.08,0.1 -0.08,0.1 -0.09,0.08 -0.09,0.09 -0.1,0.08 -0.1,0.07 -0.11,0.07 -0.1,0.07 -0.11,0.06 -0.12,0.05 -0.11,0.05 -0.12,0.04 -0.12,0.04 -0.13,0.03 -0.12,0.03 -0.13,0.02 -0.12,0.01 -0.13,0.01 -0.13,0.01 c -1.55,0 -2.64,-1.35 -2.64,-2.64 0,-1.35 1.09,-2.64 2.64,-2.64 1.39,0 2.64,1.04 2.64,2.64 z"
           inkscape:connector-curvature="0"
           style="fill:#000000;stroke-width:0" /><path
           id="path5068"
           d="m 566.94,416.86 -0.02,0.59 -0.04,0.59 -0.07,0.58 -0.1,0.57 -0.12,0.56 -0.15,0.55 -0.18,0.54 -0.2,0.53 -0.22,0.51 -0.24,0.5 -0.27,0.49 -0.29,0.47 -0.31,0.46 -0.32,0.44 -0.35,0.43 -0.37,0.4 -0.38,0.39 -0.4,0.37 -0.42,0.35 -0.43,0.32 -0.45,0.31 -0.46,0.28 -0.48,0.26 -0.48,0.24 -0.5,0.21 -0.51,0.18 -0.52,0.16 -0.53,0.13 -0.54,0.11 -0.55,0.07 -0.56,0.05 -0.56,0.01 -0.04,-1.09 c 2.18,0 4.32,-1.1 5.62,-3.24 1.3,-2.14 1.3,-5.03 1.3,-6.92 0,-1.8 0,-4.48 -1.1,-6.67 -1.09,-2.25 -3.28,-3.69 -5.78,-3.69 l 0,0 c -2.14,0 -4.33,1.05 -5.67,3.33 -1.25,2.2 -1.25,5.23 -1.25,7.03 0,1.94 0,4.63 1.19,6.83 1.36,2.28 3.69,3.33 5.69,3.33 l 0.04,1.09 c -6.22,0 -11.06,-5.42 -11.06,-11.65 0,-6.43 5.19,-11.21 11.02,-11.21 6.03,0 11.06,4.88 11.06,11.21 z"
           inkscape:connector-curvature="0"
           style="fill:#000000;stroke-width:0" /><path
           id="path5070"
           d="m 588.8,408.93 0,-3.28 7.32,0.55 0,1.55 c -3.49,0 -3.88,0.34 -3.88,2.78 l 0,30.25 -7.17,-0.55 0,-1.55 c 3.48,0 3.88,-0.34 3.88,-2.79 l 0,-10.75 c -1.44,1.78 -3.58,3.07 -6.29,3.07 l 0.21,-1.09 c 1.75,0 3.84,-0.75 5.39,-2.98 0.54,-0.85 0.54,-0.96 0.54,-1.85 l 0,0 0,-10.22 c 0,-0.89 0,-1 -0.54,-1.84 -1.5,-2.39 -3.75,-3.48 -5.89,-3.48 -2.24,0 -4.03,1.29 -5.22,3.18 -1.3,2.05 -1.45,4.89 -1.45,6.93 0,1.84 0.09,4.84 1.54,7.07 1.05,1.55 2.94,3.19 5.63,3.19 l -0.21,1.09 c -5.87,0 -11.11,-4.87 -11.11,-11.29 0,-6.33 4.9,-11.27 10.57,-11.27 3.18,0 5.43,1.69 6.68,3.28 z"
           inkscape:connector-curvature="0"
           style="fill:#000000;stroke-width:0" /><path
           id="path5072"
           d="m 632.72,425.03 -0.08,0.17 -0.09,0.17 -0.09,0.16 -0.1,0.16 -0.1,0.16 -0.1,0.16 -0.1,0.15 -0.11,0.14 -0.12,0.15 -0.11,0.13 -0.12,0.14 -0.13,0.13 -0.13,0.12 -0.13,0.12 -0.13,0.11 -0.14,0.11 -0.15,0.11 -0.14,0.09 -0.15,0.1 -0.16,0.08 -0.16,0.08 -0.16,0.08 -0.17,0.06 -0.17,0.07 -0.18,0.05 -0.18,0.05 -0.18,0.04 -0.19,0.03 -0.2,0.03 -0.2,0.02 -0.2,0.01 -0.2,0 0.04,-1.09 c 3.24,0 3.94,-4.08 3.94,-4.37 0,-0.32 -0.1,-0.61 -0.14,-0.86 l -2.5,-9.77 c -0.25,-0.89 -0.25,-0.98 -1,-1.84 -2.19,-2.74 -4.24,-3.53 -5.63,-3.53 -2.48,0 -3.18,2.73 -3.18,4.68 0,2.49 1.59,8.61 2.73,10.91 1.55,2.94 3.8,4.78 5.78,4.78 l -0.04,1.09 c -5.83,0 -12,-7.31 -12,-14.59 0,-4.69 2.73,-7.97 6.62,-7.97 0.98,0 3.48,0.21 6.47,3.74 0.41,-2.1 2.14,-3.74 4.53,-3.74 1.75,0 2.89,1.14 3.69,2.74 0.84,1.79 1.5,4.84 1.5,4.93 0,0.5 -0.46,0.5 -0.6,0.5 -0.5,0 -0.54,-0.2 -0.7,-0.9 -0.84,-3.24 -1.75,-6.17 -3.78,-6.17 -1.35,0 -1.5,1.29 -1.5,2.29 0,1.1 0.09,1.49 0.64,3.69 0.56,2.09 0.66,2.59 1.11,4.48 l 1.78,6.97 c 0.36,1.39 0.36,1.5 0.36,1.69 0,0.86 -0.61,1.36 -1.45,1.36 -1.19,0 -1.94,-1.11 -2.1,-2.2 z"
           inkscape:connector-curvature="0"
           style="fill:#000000;stroke-width:0" /></g>    </g>
    <path
       sodipodi:nodetypes="cc"
       inkscape:connector-curvature="0"
       id="path4171-7"
       d="m 420.36894,380.74391 18.48753,0"
       style="fill:none;stroke:#000000;stroke-width:0.88773972;stroke-linecap:butt;stroke-linejoin:miter;stroke-miterlimit:3.8499999;stroke-dasharray:none;stroke-opacity:1;marker-end:url(#Arrow2MendE6p5-3)"
       inkscape:export-filename="/home/cyd/jupyter/MH2801/img/path4171-7-5.png"
       inkscape:export-xdpi="140.10046"
       inkscape:export-ydpi="140.10046" />
    <path
       sodipodi:nodetypes="cc"
       inkscape:connector-curvature="0"
       id="path4171-7-5"
       d="m 369.6205,380.72685 -18.53173,0"
       style="fill:none;stroke:#000000;stroke-width:0.88773972;stroke-linecap:butt;stroke-linejoin:miter;stroke-miterlimit:3.8499999;stroke-dasharray:none;stroke-opacity:1;marker-end:url(#Arrow2MendE6p5-3-5)"
       inkscape:export-filename="/home/cyd/jupyter/MH2801/img/path4171-7-5.png"
       inkscape:export-xdpi="140.10046"
       inkscape:export-ydpi="140.10046" />
  </g>
</svg>
