<?xml version="1.0" encoding="UTF-8" standalone="no"?>
<svg
   xmlns:dc="http://purl.org/dc/elements/1.1/"
   xmlns:cc="http://creativecommons.org/ns#"
   xmlns:rdf="http://www.w3.org/1999/02/22-rdf-syntax-ns#"
   xmlns:svg="http://www.w3.org/2000/svg"
   xmlns="http://www.w3.org/2000/svg"
   xmlns:sodipodi="http://sodipodi.sourceforge.net/DTD/sodipodi-0.dtd"
   xmlns:inkscape="http://www.inkscape.org/namespaces/inkscape"
   version="1.1"
   id="svg7544"
   xml:space="preserve"
   width="541.44971"
   height="177.43713"
   viewBox="0 0 541.44971 177.43714"
   sodipodi:docname="fourier_example1.svg"
   inkscape:version="1.0 (4035a4fb49, 2020-05-01)"><metadata
     id="metadata7550"><rdf:RDF><cc:Work
         rdf:about=""><dc:format>image/svg+xml</dc:format><dc:type
           rdf:resource="http://purl.org/dc/dcmitype/StillImage" /><dc:title></dc:title></cc:Work></rdf:RDF></metadata><defs
     id="defs7548" /><sodipodi:namedview
     inkscape:document-rotation="0"
     pagecolor="#ffffff"
     bordercolor="#666666"
     borderopacity="1"
     objecttolerance="10"
     gridtolerance="10"
     guidetolerance="10"
     inkscape:pageopacity="0"
     inkscape:pageshadow="2"
     inkscape:window-width="1920"
     inkscape:window-height="1026"
     id="namedview7546"
     showgrid="false"
     inkscape:zoom="1"
     inkscape:cx="235.16234"
     inkscape:cy="69.653172"
     inkscape:window-x="0"
     inkscape:window-y="0"
     inkscape:window-maximized="1"
     inkscape:current-layer="g7552"
     fit-margin-top="0"
     fit-margin-left="0"
     fit-margin-right="0"
     fit-margin-bottom="0" /><g
     id="g7552"
     inkscape:groupmode="layer"
     inkscape:label="fourier_example1"
     transform="matrix(1.3333333,0,0,-1.3333333,36.130356,180.92026)"><path
       d="M -27.097768,18.30735 H 151.77094"
       style="fill:none;stroke:#000000;stroke-width:0.93750002;stroke-linecap:butt;stroke-linejoin:miter;stroke-miterlimit:3.9000001;stroke-dasharray:none;stroke-opacity:1"
       id="path7558"
       sodipodi:nodetypes="cc" /><path
       id="path7560"
       style="fill:#000000;fill-opacity:1;fill-rule:evenodd;stroke:none"
       d="m 148.03731,21.706 9.207,-3.386 -9.207,-3.383 c 1.473,1.996 1.465,4.73 0,6.769 z" /><path
       d="m 39.746232,4.06135 v 127.836"
       style="fill:none;stroke:#000000;stroke-width:0.93750002;stroke-linecap:butt;stroke-linejoin:miter;stroke-miterlimit:3.9000001;stroke-dasharray:none;stroke-opacity:1"
       id="path7564" /><path
       id="path7566"
       style="fill:#000000;fill-opacity:1;fill-rule:evenodd;stroke:none"
       d="m 36.347232,124.554 3.387,9.203 3.383,-9.203 c -1.996,1.469 -4.731,1.461 -6.77,0 z" /><path
       id="path7568"
       style="fill:#000000;fill-opacity:1;fill-rule:nonzero;stroke:none;stroke-width:0.999997"
       d="m 35.681741,10.753744 v 0.154105 l -0.0031,0.157978 -0.0031,0.160301 -0.0093,0.154105 -0.0085,0.157204 -0.01239,0.157203 -0.01781,0.157203 -0.01859,0.151782 -0.02401,0.154106 -0.0302,0.154106 -0.0333,0.151008 -0.04259,0.151782 -0.04182,0.154106 -0.05498,0.144812 -0.05731,0.148685 -0.0333,0.07512 -0.0333,0.0697 c -0.477804,1.01369 -1.339712,1.180186 -1.784992,1.180186 -0.625715,0 -1.39392,-0.272589 -1.826809,-1.249882 -0.332992,-0.725613 -0.3872,-1.545702 -0.3872,-2.383603 0,-0.7891139 0.04259,-1.7331075 0.474707,-2.5284163 0.450701,-0.8502912 1.21968,-1.0617024 1.730784,-1.0617024 v 0.2292224 c -0.408883,0 -1.028403,0.263296 -1.21968,1.2707904 -0.111514,0.6295872 -0.111514,1.5944899 -0.111514,2.2171069 0,0.67218 0,1.361396 0.08131,1.93058 0.199796,1.249107 0.986586,1.342809 1.249882,1.342809 0.347706,0 1.040019,-0.187405 1.236717,-1.228198 0.106093,-0.586995 0.106093,-1.388499 0.106093,-2.045191 0,-0.789113 0,-1.5031101 -0.114612,-2.1745149 C 34.534872,7.7111261 33.936261,7.3928477 33.464651,7.3928477 V 7.1636253 c 0.565312,0 1.363718,0.220704 1.82681,1.2189056 0.336089,0.7225152 0.390297,1.5395072 0.390297,2.3712131 z" /><path
       id="path7570"
       style="fill:#000000;fill-opacity:1;fill-rule:nonzero;stroke:none;stroke-width:0.999999"
       d="m 158.61941,8.1351648 0.009,0.034056 0.01,0.040392 0.0127,0.04356 0.009,0.049104 0.0158,0.049896 0.0182,0.058608 0.0158,0.058608 0.0182,0.058608 0.0221,0.062568 0.0246,0.064944 0.0246,0.068112 0.0277,0.064944 0.0309,0.064944 0.0309,0.068112 0.034,0.06732 0.0404,0.068112 0.0404,0.064944 0.0404,0.062568 0.0459,0.064944 0.0467,0.058608 0.0491,0.058608 0.0531,0.052272 0.0586,0.053064 0.0586,0.045936 0.0617,0.04356 0.0681,0.040392 0.0309,0.018216 0.034,0.01584 0.0404,0.012672 0.034,0.015048 0.0373,0.012672 0.0373,0.00873 0.08,0.019008 0.0404,0.00315 0.0436,0.0063 0.0436,0.00234 h 0.0428 c 0.0681,0 0.38966,0 0.66844,-0.1726567 -0.37461,-0.064944 -0.6431,-0.402336 -0.6431,-0.723888 0,-0.21384 0.1481,-0.470448 0.51005,-0.470448 0.29383,0 0.72389,0.238392 0.72389,0.77616 0,0.7025047 -0.792,0.8854569 -1.24661,0.8854569 -0.77933,0 -1.24978,-0.7120089 -1.41055,-1.0185129 -0.3374,0.8822887 -1.06128,1.0185129 -1.4454,1.0185129 -1.39788,0 -2.16533,-1.729729 -2.16533,-2.067121 0,-0.133056 0.13305,-0.133056 0.16394,-0.133056 0.10534,0 0.1489,0.02772 0.17028,0.145728 0.45778,1.4232241 1.34561,1.7598248 1.80022,1.7598248 0.2574,0 0.72151,-0.1172167 0.72151,-0.8965447 0,-0.4150081 -0.22651,-1.3178881 -0.72151,-3.1965121 -0.21622,-0.8316 -0.6835,-1.394712 -1.2775,-1.394712 -0.08,0 -0.38649,0 -0.66845,0.175824 0.3374,0.064944 0.63123,0.343728 0.63123,0.723888 0,0.362736 -0.29383,0.46728 -0.495,0.46728 -0.40471,0 -0.74211,-0.349272 -0.74211,-0.779328 0,-0.612216 0.674,-0.884664 1.26166,-0.884664 0.88862,0 1.36778,0.940104 1.41134,1.020888 0.16078,-0.498168 0.64311,-1.020888 1.44778,-1.020888 1.38283,0 2.15345,1.728936 2.15345,2.066328 0,0.136224 -0.12435,0.136224 -0.16395,0.136224 -0.12117,0 -0.14889,-0.05544 -0.17344,-0.145728 -0.44273,-1.435104 -1.35512,-1.759824 -1.78834,-1.759824 -0.52272,0 -0.73973,0.430056 -0.73973,0.8878321 0,0.293832 0.0808,0.587664 0.23206,1.1784959 z" /><g
       id="g8991"
       transform="matrix(0.88,0,0,0.88,6.0027161,15.36624)"
       style="stroke-width:1.13636"><path
         d="m 2.9962324,130.593 h 1.457 c 0.34,0 0.511,0 0.511,0.34 0,0.187 -0.171,0.187 -0.457,0.187 h -1.406 l 0.352,1.934 c 0.07,0.355 0.308,1.555 0.41,1.758 0.156,0.324 0.441,0.578 0.797,0.578 0.066,0 0.508,0 0.832,-0.309 -0.746,-0.062 -0.918,-0.656 -0.918,-0.91 0,-0.391 0.305,-0.594 0.633,-0.594 0.437,0 0.925,0.375 0.925,1.02 0,0.777 -0.781,1.164 -1.472,1.164 -0.578,0 -1.645,-0.301 -2.153,-1.981 -0.097,-0.355 -0.152,-0.523 -0.558,-2.66 H 0.78523243 c -0.328,0 -0.512,0 -0.512,-0.32 0,-0.207 0.152,-0.207 0.473,-0.207 H 1.8632324 l -1.27299997,-6.691 c -0.305,-1.645 -0.58999999796,-3.192 -1.473,-3.192 -0.07,0 -0.48800003,0 -0.81300003,0.309 0.78200003,0.047 0.93000003,0.66 0.93000003,0.914 0,0.39 -0.30100003,0.597 -0.62900003,0.597 -0.437,0 -0.93,-0.375 -0.93,-1.019 0,-0.762 0.747,-1.172 1.44200003,-1.172 0.93,0 1.613,1 1.91399997,1.648 0.543,1.067 0.937,3.114 0.953,3.239 z"
         style="fill:#000000;fill-opacity:1;fill-rule:nonzero;stroke:none;stroke-width:1.13636"
         id="path7572" /><path
         d="m 12.511232,119.749 v 0.008 l -0.004,0.012 v 0.011 l -0.003,0.008 v 0.004 l -0.004,0.008 v 0.004 l -0.012,0.023 -0.008,0.008 -0.008,0.012 -0.004,0.008 -0.007,0.011 -0.012,0.012 -0.008,0.012 -0.008,0.008 -0.004,0.007 -0.007,0.004 -0.004,0.008 -0.024,0.024 -0.004,0.007 -0.008,0.012 -0.011,0.004 -0.004,0.012 -0.02,0.019 -0.007,0.012 -0.012,0.008 -0.012,0.012 -0.008,0.011 -0.011,0.008 -0.012,0.016 -0.012,0.008 -0.012,0.015 -0.011,0.008 -0.012,0.016 -0.016,0.011 c -2.117,2.137 -2.6559996,5.34 -2.6559996,7.93 0,2.949 0.6449996,5.902 2.7229996,8.016 0.222,0.207 0.222,0.242 0.222,0.293 0,0.117 -0.066,0.164 -0.168,0.164 -0.168,0 -1.691,-1.149 -2.6909996,-3.297 -0.867,-1.867 -1.07,-3.75 -1.07,-5.176 0,-1.324 0.187,-3.367 1.117,-5.285 1.0119996,-2.086 2.4759996,-3.184 2.6439996,-3.184 0.102,0 0.168,0.047 0.168,0.168 z"
         style="fill:#000000;fill-opacity:1;fill-rule:nonzero;stroke:none;stroke-width:1.13636"
         id="path7574" /><path
         d="m 19.132232,128.937 0.012,0.043 0.012,0.05 0.016,0.055 0.031,0.125 0.019,0.07 0.024,0.079 0.023,0.074 0.028,0.078 0.062,0.164 0.039,0.082 0.035,0.086 0.086,0.172 0.094,0.164 0.055,0.082 0.058,0.078 0.059,0.074 0.062,0.078 0.141,0.133 0.074,0.059 0.078,0.054 0.086,0.047 0.039,0.024 0.047,0.023 0.047,0.016 0.043,0.015 0.047,0.02 0.101,0.023 0.153,0.024 0.054,0.004 h 0.059 c 0.082,0 0.484,0 0.844,-0.219 -0.473,-0.086 -0.813,-0.512 -0.813,-0.914 0,-0.27 0.184,-0.598 0.641,-0.598 0.371,0 0.914,0.305 0.914,0.985 0,0.883 -1,1.117 -1.574,1.117 -0.985,0 -1.578,-0.899 -1.778,-1.285 -0.425,1.113 -1.339,1.285 -1.832,1.285 -1.761,0 -2.73,-2.184 -2.73,-2.609 0,-0.172 0.172,-0.172 0.207,-0.172 0.133,0 0.187,0.039 0.219,0.187 0.574,1.797 1.695,2.223 2.269,2.223 0.324,0 0.914,-0.153 0.914,-1.133 0,-0.523 -0.285,-1.664 -0.914,-4.035 -0.269,-1.051 -0.863,-1.762 -1.609,-1.762 -0.102,0 -0.492,0 -0.844,0.223 0.426,0.078 0.797,0.433 0.797,0.914 0,0.453 -0.371,0.586 -0.629,0.586 -0.508,0 -0.934,-0.438 -0.934,-0.981 0,-0.777 0.852,-1.117 1.59,-1.117 1.125,0 1.731,1.188 1.786,1.285 0.199,-0.625 0.812,-1.285 1.824,-1.285 1.75,0 2.718,2.184 2.718,2.609 0,0.172 -0.156,0.172 -0.207,0.172 -0.148,0 -0.187,-0.07 -0.218,-0.183 -0.559,-1.817 -1.715,-2.223 -2.254,-2.223 -0.664,0 -0.938,0.539 -0.938,1.117 0,0.375 0.106,0.746 0.293,1.492 z"
         style="fill:#000000;fill-opacity:1;fill-rule:nonzero;stroke:none;stroke-width:1.13636"
         id="path7576" /><path
         d="m 28.043232,128.05 -0.004,0.125 v 0.133 l -0.004,0.133 v 0.14 l -0.016,0.285 -0.019,0.301 -0.028,0.313 -0.039,0.324 -0.047,0.328 -0.054,0.344 -0.067,0.347 -0.078,0.352 -0.09,0.355 -0.105,0.36 -0.117,0.367 -0.133,0.363 -0.074,0.18 -0.078,0.18 -0.083,0.179 -0.078,0.18 c -1.019,2.082 -2.476,3.184 -2.644,3.184 -0.102,0 -0.172,-0.063 -0.172,-0.164 0,-0.051 0,-0.086 0.32,-0.391 1.664,-1.676 2.629,-4.371 2.629,-7.918 0,-2.895 -0.625,-5.879 -2.73,-8.012 -0.219,-0.203 -0.219,-0.238 -0.219,-0.289 0,-0.101 0.07,-0.168 0.172,-0.168 0.168,0 1.691,1.153 2.695,3.301 0.86,1.863 1.063,3.742 1.063,5.168 z"
         style="fill:#000000;fill-opacity:1;fill-rule:nonzero;stroke:none;stroke-width:1.13636"
         id="path7578" /></g><path
       d="m -24.452768,18.28835 h 64.203 v 97.137"
       style="fill:none;stroke:#1f77b4;stroke-width:1.54439;stroke-linecap:round;stroke-linejoin:miter;stroke-miterlimit:3.95;stroke-dasharray:none;stroke-opacity:1"
       id="path7582" /><path
       d="m 132.62523,23.87035 c 2.066,-0.379 4.156,-0.699 6.242,-1.016 m -16.52,3.172 c 3.375,-0.84 6.813,-1.539 10.278,-2.156 m -20.578,5.098 c 3.367,-1.122 6.812,-2.106 10.3,-2.942 m -20.601,6.961 c 3.332,-1.5 6.754,-2.848 10.301,-4.019 m -20.582998,9.515 c 3.258,-2.023 6.688,-3.844 10.281998,-5.496 m -20.577998,13.012 c 3.191,-2.695 6.613,-5.223 10.296,-7.516 m -20.597,17.789 c 3.129,-3.601 6.527,-7.058 10.301,-10.273 m -20.582,24.316 c 3.031,-4.843 6.445,-9.547 10.281,-14.043 m -20.582,33.231 c 3.012,-6.524 6.367,-12.957 10.301,-19.188 m -20.579,45.399 c 2.957,-8.836 6.325,-17.602 10.278,-26.211"
       style="fill:none;stroke:#1f77b4;stroke-width:1.54439;stroke-linecap:round;stroke-linejoin:miter;stroke-miterlimit:3.95;stroke-dasharray:none;stroke-opacity:1"
       id="path7586" /><path
       d="m 342.172,21.59635 c 3.562,-0.32 7.129,-0.582 10.699,-0.785 m -28.34,3.11 c 5.805,-1.094 11.703,-1.797 17.641,-2.325 m -35.281,8.024 c 5.304,-2.793 11.449,-4.484 17.64,-5.699 m -35.281,24.441 c 3.613,-7.269 9.047,-14.367 17.641,-18.742 m -35.301,80.68 c 5.98,-20.235 7.98,-41.231 17.121,-60.871 0.195,-0.352 0.34,-0.719 0.539,-1.067 m -35.301,18.512 c 4.383,14.64 6.469,29.633 10.981,44.246 0.808,1.594 0.965,4.082 3.281,4.773 2.328,-1.062 2.547,-3.785 3.379,-5.593 m -35.278,-76.043 c 10.305,9.011 14.118,21.23 17.637,32.617 m -35.277,-41.336 c 6.66,1.793 12.898,4.652 17.64,8.719 m -35.3,-11.95 c 5.976,0.719 11.949,1.653 17.66,3.231 m -35.301,-4.727 c 5.891,0.34 11.789,0.821 17.641,1.496"
       style="fill:none;stroke:#ff3e0e;stroke-width:1.6;stroke-linecap:butt;stroke-linejoin:miter;stroke-miterlimit:3.8;stroke-dasharray:none;stroke-opacity:1"
       id="path7590" /><path
       d="M 183.109,18.25735 H 371.17054"
       style="fill:none;stroke:#000000;stroke-width:0.93750002;stroke-linecap:butt;stroke-linejoin:miter;stroke-miterlimit:3.9000001;stroke-dasharray:none;stroke-opacity:1"
       id="path7594"
       sodipodi:nodetypes="cc" /><path
       id="path7596"
       style="fill:#000000;fill-opacity:1;fill-rule:evenodd;stroke:none"
       d="m 365.58259,21.655 9.203,-3.382 -9.203,-3.387 c 1.473,2 1.465,4.734 0,6.769 z" /><path
       d="m 268.152,2.61235 v 129.234"
       style="fill:none;stroke:#000000;stroke-width:0.93750002;stroke-linecap:butt;stroke-linejoin:miter;stroke-miterlimit:3.9000001;stroke-dasharray:none;stroke-opacity:1"
       id="path7600" /><path
       id="path7602"
       style="fill:#000000;fill-opacity:1;fill-rule:evenodd;stroke:none"
       d="m 264.754,124.503 3.387,9.203 3.382,-9.203 c -2,1.469 -4.73,1.461 -6.769,0 z" /><path
       id="path7604"
       style="fill:#000000;fill-opacity:1;fill-rule:nonzero;stroke:none;stroke-width:0.999997"
       d="m 264.08848,10.703646 v 0.157978 l -0.004,0.157203 -0.0124,0.314406 -0.009,0.157204 -0.0116,0.157203 -0.0364,0.308985 -0.0542,0.308212 -0.0333,0.151008 -0.0852,0.30279 -0.0542,0.14791 -0.0573,0.148685 -0.0666,0.144813 c -0.48091,1.010592 -1.34359,1.180186 -1.785,1.180186 -0.62649,0 -1.39469,-0.275687 -1.82681,-1.252205 -0.33609,-0.726387 -0.3872,-1.545703 -0.3872,-2.384378 0,-0.7860159 0.0418,-1.7331071 0.47471,-2.5284159 0.4507,-0.8502912 1.21581,-1.0586048 1.73001,-1.0586048 v 0.2299968 c -0.40811,0 -1.0284,0.2625216 -1.21891,1.270016 -0.11461,0.6264896 -0.11461,1.5913919 -0.11461,2.2171069 0,0.669082 0,1.361396 0.0844,1.927482 0.19979,1.252205 0.98581,1.345907 1.2491,1.345907 0.34848,0 1.0408,-0.187405 1.23749,-1.231296 0.1061,-0.583897 0.1061,-1.385401 0.1061,-2.042093 0,-0.792211 0,-1.5031101 -0.11539,-2.1745149 -0.1572,-0.9982016 -0.75581,-1.312608 -1.2282,-1.312608 V 7.1166253 c 0.56609,0 1.3614,0.2176064 1.82759,1.215808 0.33531,0.7232896 0.39029,1.5426048 0.39029,2.3712127 z" /><g
       id="g9000"
       transform="matrix(0.88,0,0,0.88,29.479301,15.32028)"
       style="stroke-width:1.13636"><path
         d="m 211.965,134.894 v 0.113 l -0.004,0.055 v 0.05 l -0.008,0.055 -0.004,0.024 v 0.027 l -0.008,0.023 -0.003,0.024 -0.008,0.023 -0.016,0.039 -0.012,0.024 -0.007,0.019 -0.024,0.032 -0.016,0.019 -0.015,0.012 -0.02,0.015 -0.008,0.004 -0.011,0.004 -0.008,0.008 -0.023,0.008 -0.008,0.008 h -0.012 l -0.012,0.004 -0.015,0.003 -0.012,0.004 h -0.012 l -0.011,0.004 h -0.016 l -0.016,0.004 h -0.031 c -0.34,0 -0.34,-0.304 -0.34,-0.605 v -15.731 c 0,-0.304 0,-0.609 0.34,-0.609 0.34,0 0.34,0.305 0.34,0.609 z"
         style="fill:#000000;fill-opacity:1;fill-rule:nonzero;stroke:none;stroke-width:1.13636"
         id="path7606" /><path
         d="m 219.098,128.296 h 1.644 c 1.274,0 1.406,-0.269 1.406,-0.762 0,-0.121 0,-0.32 -0.117,-0.828 -0.035,-0.086 -0.051,-0.152 -0.051,-0.191 0,-0.133 0.102,-0.199 0.2,-0.199 0.168,0 0.168,0.05 0.254,0.355 l 0.937,3.676 c 0.047,0.183 0.047,0.223 0.047,0.269 0,0.036 -0.031,0.188 -0.199,0.188 -0.172,0 -0.188,-0.086 -0.258,-0.356 -0.356,-1.316 -0.742,-1.628 -2.184,-1.628 h -1.539 l 1.082,4.308 c 0.149,0.594 0.168,0.66 0.914,0.66 h 2.239 c 2.082,0 2.472,-0.558 2.472,-1.863 0,-0.395 0,-0.457 -0.05,-0.918 -0.036,-0.219 -0.036,-0.25 -0.036,-0.305 0,-0.086 0.051,-0.199 0.203,-0.199 0.188,0 0.208,0.102 0.235,0.422 l 0.344,2.93 c 0.05,0.457 -0.032,0.457 -0.457,0.457 h -8.305 c -0.34,0 -0.508,0 -0.508,-0.34 0,-0.184 0.156,-0.184 0.473,-0.184 0.629,0 1.101,0 1.101,-0.304 0,-0.071 0,-0.102 -0.086,-0.411 l -2.234,-8.961 c -0.172,-0.664 -0.203,-0.796 -1.543,-0.796 -0.289,0 -0.473,0 -0.473,-0.325 0,-0.199 0.2,-0.199 0.254,-0.199 0.485,0 1.742,0.051 2.239,0.051 0.558,0 1.964,-0.051 2.523,-0.051 0.152,0 0.355,0 0.355,0.32 0,0.133 -0.101,0.168 -0.101,0.188 -0.055,0.016 -0.082,0.016 -0.473,0.016 -0.375,0 -0.461,0 -0.883,0.031 -0.492,0.055 -0.543,0.125 -0.543,0.34 0,0.031 0,0.14 0.067,0.39 z"
         style="fill:#000000;fill-opacity:1;fill-rule:nonzero;stroke:none;stroke-width:1.13636"
         id="path7608" /><path
         d="m 232.836,118.726 v 0.027 l -0.004,0.004 v 0.004 l -0.004,0.004 v 0.015 l -0.004,0.008 -0.008,0.004 -0.004,0.012 -0.007,0.008 -0.004,0.008 -0.016,0.023 -0.012,0.008 -0.007,0.015 -0.012,0.012 -0.008,0.016 -0.008,0.004 -0.008,0.011 -0.007,0.008 -0.008,0.004 -0.008,0.012 -0.016,0.015 -0.007,0.012 -0.02,0.02 -0.008,0.011 -0.011,0.008 -0.024,0.024 -0.008,0.011 -0.023,0.024 -0.016,0.012 -0.012,0.011 -0.011,0.016 c -2.117,2.137 -2.656,5.336 -2.656,7.93 0,2.949 0.64,5.902 2.722,8.011 0.219,0.207 0.219,0.242 0.219,0.293 0,0.121 -0.063,0.168 -0.164,0.168 -0.168,0 -1.695,-1.148 -2.692,-3.301 -0.867,-1.867 -1.074,-3.746 -1.074,-5.171 0,-1.325 0.188,-3.368 1.117,-5.29 1.016,-2.082 2.481,-3.183 2.649,-3.183 0.101,0 0.164,0.051 0.164,0.172 z"
         style="fill:#000000;fill-opacity:1;fill-rule:nonzero;stroke:none;stroke-width:1.13636"
         id="path7610" /><path
         d="m 238.664,134.366 v 0.024 l -0.004,0.008 v 0.011 l -0.008,0.016 v 0.004 l -0.004,0.012 -0.011,0.023 -0.008,0.012 -0.004,0.004 -0.004,0.007 -0.019,0.02 h -0.004 l -0.008,0.008 -0.008,0.004 -0.004,0.004 -0.008,0.004 -0.004,0.003 -0.007,0.004 h -0.012 l -0.008,0.004 h -0.008 l -0.015,0.008 H 238.5 l -0.008,0.004 h -0.019 l -0.008,0.004 h -0.02 c -0.394,0 -1.625,-0.141 -2.066,-0.172 -0.141,-0.016 -0.324,-0.031 -0.324,-0.34 0,-0.203 0.152,-0.203 0.406,-0.203 0.816,0 0.848,-0.117 0.848,-0.285 l -0.055,-0.34 -2.453,-9.766 c -0.071,-0.234 -0.071,-0.269 -0.071,-0.371 0,-0.39 0.34,-0.472 0.493,-0.472 0.218,0 0.476,0.156 0.578,0.355 0.082,0.152 0.847,3.285 0.949,3.711 0.574,-0.051 1.969,-0.32 1.969,-1.441 0,-0.118 0,-0.188 -0.055,-0.36 -0.031,-0.199 -0.07,-0.398 -0.07,-0.586 0,-1.004 0.683,-1.679 1.562,-1.679 0.504,0 0.965,0.269 1.34,0.898 0.418,0.742 0.606,1.68 0.606,1.711 0,0.168 -0.149,0.168 -0.2,0.168 -0.172,0 -0.187,-0.066 -0.242,-0.305 -0.332,-1.234 -0.726,-2.101 -1.472,-2.101 -0.317,0 -0.54,0.183 -0.54,0.797 0,0.285 0.067,0.675 0.137,0.945 0.063,0.293 0.063,0.359 0.063,0.527 0,1.106 -1.071,1.598 -2.508,1.782 0.527,0.308 1.07,0.847 1.465,1.253 0.812,0.899 1.586,1.625 2.422,1.625 0.101,0 0.113,0 0.148,-0.015 0.207,-0.031 0.219,-0.031 0.355,-0.133 0.036,-0.02 0.036,-0.039 0.071,-0.066 -0.813,-0.055 -0.969,-0.711 -0.969,-0.918 0,-0.27 0.184,-0.594 0.645,-0.594 0.437,0 0.933,0.375 0.933,1.031 0,0.508 -0.394,1.067 -1.156,1.067 -0.473,0 -1.25,-0.133 -2.477,-1.485 -0.57,-0.644 -1.23,-1.324 -1.871,-1.578 z"
         style="fill:#000000;fill-opacity:1;fill-rule:nonzero;stroke:none;stroke-width:1.13636"
         id="path7612" /><path
         d="m 248.043,127.027 v 0.125 l -0.008,0.265 -0.004,0.141 -0.011,0.285 -0.024,0.297 -0.027,0.312 -0.035,0.325 -0.047,0.332 -0.055,0.343 -0.066,0.344 -0.078,0.352 -0.09,0.355 -0.106,0.363 -0.117,0.364 -0.137,0.363 -0.07,0.18 -0.074,0.179 -0.082,0.184 -0.086,0.18 c -1.016,2.082 -2.473,3.183 -2.645,3.183 -0.097,0 -0.168,-0.066 -0.168,-0.168 0,-0.051 0,-0.086 0.321,-0.39 1.664,-1.672 2.628,-4.371 2.628,-7.914 0,-2.895 -0.624,-5.879 -2.73,-8.016 -0.219,-0.199 -0.219,-0.238 -0.219,-0.285 0,-0.102 0.071,-0.172 0.168,-0.172 0.172,0 1.692,1.156 2.699,3.305 0.86,1.859 1.063,3.742 1.063,5.168 z"
         style="fill:#000000;fill-opacity:1;fill-rule:nonzero;stroke:none;stroke-width:1.13636"
         id="path7614" /><path
         d="m 252.414,134.894 v 0.113 l -0.004,0.055 v 0.023 l -0.004,0.027 v 0.028 l -0.004,0.027 -0.004,0.024 -0.003,0.027 -0.004,0.023 -0.008,0.024 -0.004,0.023 -0.012,0.02 -0.004,0.019 -0.011,0.024 -0.012,0.019 -0.024,0.032 -0.015,0.019 -0.016,0.012 -0.015,0.015 -0.012,0.004 -0.008,0.004 -0.012,0.008 -0.008,0.004 -0.011,0.004 -0.012,0.008 h -0.012 l -0.023,0.007 -0.016,0.004 h -0.011 l -0.016,0.004 h -0.012 l -0.015,0.004 h -0.028 c -0.344,0 -0.344,-0.304 -0.344,-0.605 v -15.731 c 0,-0.304 0,-0.609 0.344,-0.609 0.34,0 0.34,0.305 0.34,0.609 z"
         style="fill:#000000;fill-opacity:1;fill-rule:nonzero;stroke:none;stroke-width:1.13636"
         id="path7616" /><path
         d="M 260.398,131.07 H 260 c -0.035,-0.258 -0.16,-0.961 -0.312,-1.079 -0.09,-0.066 -1.004,-0.066 -1.168,-0.066 h -2.184 c 1.242,1.098 1.656,1.426 2.371,1.984 0.875,0.703 1.691,1.438 1.691,2.563 0,1.433 -1.25,2.312 -2.769,2.312 -1.473,0 -2.469,-1.031 -2.469,-2.121 0,-0.605 0.512,-0.664 0.629,-0.664 0.285,0 0.629,0.203 0.629,0.629 0,0.211 -0.082,0.625 -0.699,0.625 0.367,0.84 1.172,1.098 1.73,1.098 1.188,0 1.805,-0.918 1.805,-1.879 0,-1.031 -0.734,-1.848 -1.117,-2.274 l -2.856,-2.824 c -0.121,-0.105 -0.121,-0.133 -0.121,-0.461 h 4.883 z"
         style="fill:#000000;fill-opacity:1;fill-rule:nonzero;stroke:none;stroke-width:1.13636"
         id="path7618" /></g><path
       id="path7620"
       style="fill:#000000;fill-opacity:1;fill-rule:nonzero;stroke:none;stroke-width:0.999999"
       d="m 376.03424,13.162749 v 0.0063 l -0.004,0.0063 v 0.01822 l -0.004,0.0063 v 0.0063 l -0.004,0.0031 -0.004,0.0056 -0.004,0.0095 -0.004,0.0031 v 0.0095 l -0.004,0.0056 -0.0119,0.01267 -0.004,0.0063 -0.0127,0.01267 -0.006,0.0023 -0.009,0.0095 h -0.006 l -0.004,0.0031 -0.006,0.0031 -0.004,0.0032 h -0.006 l -0.0119,0.0063 h -0.004 l -0.0127,0.0063 h -0.034 l -0.009,0.0023 h -0.0127 c -0.31284,0 -1.29017,-0.107712 -1.63707,-0.133056 -0.11088,-0.01505 -0.25977,-0.02772 -0.25977,-0.268488 0,-0.163944 0.12434,-0.163944 0.32551,-0.163944 0.6431,0 0.66766,-0.09029 0.66766,-0.226512 l -0.0396,-0.268488 -1.94674,-7.7315043 c -0.0554,-0.18612 -0.0554,-0.217008 -0.0554,-0.297 0,-0.306504 0.26928,-0.374616 0.39283,-0.374616 0.17345,0 0.37462,0.123552 0.45461,0.28512 0.065,0.120384 0.67162,2.60172 0.7524,2.939112 0.45778,-0.040392 1.55866,-0.254232 1.55866,-1.145232 0,-0.089496 0,-0.144936 -0.0396,-0.28116 -0.0285,-0.157608 -0.0594,-0.319176 -0.0594,-0.46728 0,-0.795168 0.54172,-1.33056 1.24106,-1.33056 0.39917,0 0.76111,0.217008 1.05811,0.712008 0.33423,0.590832 0.48233,1.329768 0.48233,1.355112 0,0.135432 -0.11722,0.135432 -0.16078,0.135432 -0.13622,0 -0.14572,-0.05544 -0.18849,-0.243936 -0.26611,-0.97812 -0.57579,-1.661616 -1.16662,-1.661616 -0.25344,0 -0.43005,0.145728 -0.43005,0.631224 0,0.22572 0.0554,0.532224 0.1085,0.74844 0.0523,0.232056 0.0523,0.281952 0.0523,0.418176 0,0.87516 -0.84744,1.261656 -1.98634,1.407384 0.41501,0.244728 0.84507,0.674784 1.15712,0.996336 0.64389,0.7080479 1.25611,1.2869999 1.91822,1.2869999 0.0808,0 0.0927,0 0.12118,-0.01584 0.16077,-0.021384 0.17265,-0.021384 0.27799,-0.102168 0.0309,-0.018216 0.0309,-0.030888 0.0586,-0.05544 -0.64627,-0.04356 -0.76983,-0.563112 -0.76983,-0.723888 0,-0.213048 0.14811,-0.4736159 0.51005,-0.4736159 0.35007,0 0.73973,0.2969999 0.73973,0.8173439 0,0.404712 -0.30967,0.84744 -0.91238,0.84744 -0.37462,0 -0.99317,-0.105336 -1.96179,-1.178496 -0.45461,-0.5076719 -0.97495,-1.0493999 -1.485,-1.2497759 z" /><path
       d="m 23.867232,53.77635 h 12.199"
       style="fill:none;stroke:#000000;stroke-width:0.8;stroke-linecap:butt;stroke-linejoin:miter;stroke-miterlimit:4;stroke-dasharray:none;stroke-opacity:1"
       id="path7624" /><path
       id="path7626"
       style="fill:#000000;fill-opacity:1;fill-rule:evenodd;stroke:none"
       d="m 31.882232,55.714 5.243,-1.93 -5.243,-1.925 c 0.836,1.136 0.832,2.695 0,3.855 z" /><path
       d="m 91.867232,53.79235 h -14.801"
       style="fill:none;stroke:#000000;stroke-width:0.8;stroke-linecap:butt;stroke-linejoin:miter;stroke-miterlimit:4;stroke-dasharray:none;stroke-opacity:1"
       id="path7630" /><path
       id="path7632"
       style="fill:#000000;fill-opacity:1;fill-rule:evenodd;stroke:none"
       d="m 81.250232,51.859 -5.243,1.925 5.243,1.93 c -0.836,-1.141 -0.832,-2.695 0,-3.855 z" /><g
       id="g9009"
       transform="matrix(0.88,0,0,0.88,10.178908,7.95978)"
       style="stroke-width:1.13636"><path
         d="m 78.136232,71.55 v 0.18 l -0.004,0.011 -0.003,0.016 v 0.016 l -0.004,0.015 -0.004,0.012 -0.004,0.016 -0.008,0.011 -0.008,0.016 -0.027,0.027 -0.024,0.008 -0.007,0.004 -0.004,0.004 h -0.016 l -0.008,0.004 h -0.008 l -0.007,0.004 h -0.036 l -0.007,0.004 h -0.059 l -0.012,0.004 h -0.054 c -0.828,-0.86 -2.008,-0.86 -2.434,-0.86 v -0.414 c 0.27,0 1.055,0 1.75,0.348 v -6.93 c 0,-0.484 -0.039,-0.644 -1.242,-0.644 h -0.43 v -0.415 c 0.469,0.043 1.633,0.043 2.168,0.043 0.535,0 1.696,0 2.168,-0.043 v 0.415 h -0.43 c -1.203,0 -1.246,0.148 -1.246,0.644 z"
         style="fill:#000000;fill-opacity:1;fill-rule:nonzero;stroke:none;stroke-width:1.13636"
         id="path7634" /><path
         d="m 86.785232,72.515 v 0.008 l 0.012,0.023 0.003,0.004 v 0.008 l 0.004,0.008 v 0.007 l 0.004,0.012 0.008,0.016 v 0.008 l 0.012,0.023 v 0.012 l 0.004,0.008 0.004,0.011 v 0.008 l 0.004,0.008 v 0.008 l 0.003,0.008 v 0.011 l 0.004,0.004 v 0.02 h 0.004 v 0.023 c 0,0.149 -0.121,0.266 -0.269,0.266 -0.09,0 -0.188,-0.035 -0.227,-0.117 l -4.644,-12.75 c -0.067,-0.172 -0.067,-0.231 -0.067,-0.239 0,-0.148 0.121,-0.269 0.266,-0.269 0.18,0 0.215,0.09 0.293,0.316 z"
         style="fill:#000000;fill-opacity:1;fill-rule:nonzero;stroke:none;stroke-width:1.13636"
         id="path7636" /><path
         d="m 94.140232,66.695 0.012,0.042 0.016,0.043 0.015,0.086 0.012,0.043 0.008,0.039 0.008,0.043 0.007,0.047 0.008,0.043 0.008,0.047 v 0.024 l 0.004,0.023 0.004,0.027 v 0.028 l 0.004,0.027 v 0.082 l 0.004,0.035 v 0.094 c 0,0.867 -0.539,1.43 -1.539,1.43 -1.059,0 -1.754,-0.692 -2.075,-1.161 -0.066,0.762 -0.629,1.161 -1.234,1.161 -0.613,0 -0.867,-0.52 -0.988,-0.758 -0.239,-0.457 -0.418,-1.258 -0.418,-1.301 0,-0.137 0.136,-0.137 0.164,-0.137 0.137,0 0.148,0.02 0.226,0.313 0.227,0.949 0.496,1.59 0.977,1.59 0.23,0 0.418,-0.106 0.418,-0.614 0,-0.281 -0.043,-0.429 -0.211,-1.125 l -0.781,-3.089 c -0.039,-0.204 -0.121,-0.508 -0.121,-0.575 0,-0.238 0.187,-0.363 0.386,-0.363 0.164,0 0.403,0.106 0.496,0.375 0.02,0.027 0.176,0.652 0.254,0.988 l 0.297,1.203 c 0.078,0.297 0.156,0.59 0.223,0.903 0.031,0.078 0.137,0.519 0.148,0.597 0.043,0.125 0.457,0.872 0.91,1.235 0.293,0.215 0.711,0.465 1.286,0.465 0.574,0 0.722,-0.453 0.722,-0.934 0,-0.066 0,-0.305 -0.129,-0.844 l -1.527,-6.16 c -0.039,-0.156 -0.039,-0.18 -0.039,-0.211 0,-0.199 0.145,-0.363 0.375,-0.363 0.414,0 0.508,0.394 0.547,0.539 z"
         style="fill:#000000;fill-opacity:1;fill-rule:nonzero;stroke:none;stroke-width:1.13636"
         id="path7638" /></g><path
       d="m 238.312,66.33535 h 12.204"
       style="fill:none;stroke:#000000;stroke-width:0.8;stroke-linecap:butt;stroke-linejoin:miter;stroke-miterlimit:4;stroke-dasharray:none;stroke-opacity:1"
       id="path7642" /><path
       id="path7644"
       style="fill:#000000;fill-opacity:1;fill-rule:evenodd;stroke:none"
       d="m 246.328,68.273 5.246,-1.93 -5.246,-1.926 c 0.84,1.137 0.832,2.695 0,3.856 z" /><path
       d="M 300.375,66.35035 H 285.574"
       style="fill:none;stroke:#000000;stroke-width:0.8;stroke-linecap:butt;stroke-linejoin:miter;stroke-miterlimit:4;stroke-dasharray:none;stroke-opacity:1"
       id="path7648" /><path
       id="path7650"
       style="fill:#000000;fill-opacity:1;fill-rule:evenodd;stroke:none"
       d="m 289.758,64.417 -5.242,1.926 5.242,1.93 c -0.836,-1.137 -0.832,-2.696 0,-3.856 z" /><g
       id="g9004"
       transform="matrix(0.88,0,0,0.88,36.60485,10.424013)"
       style="stroke-width:1.13636"><path
         d="m 287.262,76.71 1.578,1.535 c 2.32,2.051 3.219,2.856 3.219,4.344 0,1.703 -1.34,2.895 -3.161,2.895 -1.683,0 -2.789,-1.375 -2.789,-2.7 0,-0.832 0.75,-0.832 0.789,-0.832 0.258,0 0.778,0.18 0.778,0.789 0,0.387 -0.266,0.778 -0.789,0.778 -0.117,0 -0.149,0 -0.192,-0.016 0.344,0.969 1.145,1.52 2.012,1.52 1.352,0 1.996,-1.211 1.996,-2.434 0,-1.187 -0.746,-2.367 -1.562,-3.289 l -2.86,-3.188 c -0.172,-0.164 -0.172,-0.191 -0.172,-0.55 h 5.528 l 0.422,2.593 h -0.375 c -0.075,-0.449 -0.176,-1.105 -0.325,-1.328 -0.109,-0.117 -1.089,-0.117 -1.414,-0.117 z"
         style="fill:#000000;fill-opacity:1;fill-rule:evenodd;stroke:none;stroke-width:1.13636"
         id="path7652" /><path
         d="m 300.102,79.687 0.011,0.047 0.012,0.05 0.016,0.047 0.011,0.047 0.008,0.047 0.012,0.047 0.008,0.047 0.011,0.051 0.004,0.05 0.008,0.051 v 0.027 l 0.004,0.028 0.004,0.031 0.004,0.027 v 0.09 l 0.004,0.035 v 0.102 l 0.004,0.039 c 0,0.969 -0.598,1.594 -1.715,1.594 -1.18,0 -1.953,-0.77 -2.309,-1.293 -0.074,0.847 -0.699,1.293 -1.375,1.293 -0.679,0 -0.969,-0.578 -1.101,-0.844 -0.266,-0.512 -0.465,-1.402 -0.465,-1.449 0,-0.153 0.152,-0.153 0.183,-0.153 0.149,0 0.164,0.024 0.254,0.348 0.25,1.055 0.551,1.77 1.09,1.77 0.25,0 0.461,-0.118 0.461,-0.68 0,-0.316 -0.047,-0.484 -0.238,-1.254 l -0.863,-3.441 c -0.047,-0.223 -0.137,-0.567 -0.137,-0.641 0,-0.266 0.211,-0.402 0.43,-0.402 0.183,0 0.449,0.117 0.554,0.414 0.016,0.035 0.192,0.73 0.281,1.105 l 0.329,1.34 c 0.089,0.328 0.179,0.652 0.253,1 0.032,0.09 0.149,0.578 0.161,0.668 0.046,0.137 0.511,0.969 1.015,1.375 0.328,0.234 0.789,0.516 1.426,0.516 0.645,0 0.805,-0.504 0.805,-1.039 0,-0.075 0,-0.34 -0.141,-0.942 l -1.703,-6.855 c -0.043,-0.176 -0.043,-0.203 -0.043,-0.235 0,-0.222 0.164,-0.402 0.418,-0.402 0.461,0 0.562,0.434 0.613,0.598 z"
         style="fill:#000000;fill-opacity:1;fill-rule:evenodd;stroke:none;stroke-width:1.13636"
         id="path7654" /></g></g></svg>
