<?xml version="1.0" encoding="UTF-8" standalone="no"?>
<svg
   xmlns:dc="http://purl.org/dc/elements/1.1/"
   xmlns:cc="http://creativecommons.org/ns#"
   xmlns:rdf="http://www.w3.org/1999/02/22-rdf-syntax-ns#"
   xmlns:svg="http://www.w3.org/2000/svg"
   xmlns="http://www.w3.org/2000/svg"
   xmlns:sodipodi="http://sodipodi.sourceforge.net/DTD/sodipodi-0.dtd"
   xmlns:inkscape="http://www.inkscape.org/namespaces/inkscape"
   inkscape:version="1.0 (4035a4fb49, 2020-05-01)"
   sodipodi:docname="fourier_example4.svg"
   viewBox="0 0 524.35022 217.07362"
   height="217.07362"
   width="524.35022"
   xml:space="preserve"
   id="svg9062"
   version="1.1"><metadata
     id="metadata9068"><rdf:RDF><cc:Work
         rdf:about=""><dc:format>image/svg+xml</dc:format><dc:type
           rdf:resource="http://purl.org/dc/dcmitype/StillImage" /><dc:title></dc:title></cc:Work></rdf:RDF></metadata><defs
     id="defs9066" /><sodipodi:namedview
     fit-margin-bottom="0"
     fit-margin-right="0"
     fit-margin-left="0"
     fit-margin-top="0"
     inkscape:current-layer="g9070"
     inkscape:window-maximized="1"
     inkscape:window-y="0"
     inkscape:window-x="0"
     inkscape:cy="67.179944"
     inkscape:cx="120.64484"
     inkscape:zoom="1"
     showgrid="false"
     id="namedview9064"
     inkscape:window-height="1026"
     inkscape:window-width="1920"
     inkscape:pageshadow="2"
     inkscape:pageopacity="0"
     guidetolerance="10"
     gridtolerance="10"
     objecttolerance="10"
     borderopacity="1"
     bordercolor="#666666"
     pagecolor="#ffffff" /><g
     transform="matrix(1.3333333,0,0,-1.3333333,43.733308,216.6619)"
     inkscape:label="fourier_example4"
     inkscape:groupmode="layer"
     id="g9070"><path
       id="path9076"
       style="fill:none;stroke:#6d6d6d;stroke-width:0.8;stroke-linecap:round;stroke-linejoin:miter;stroke-miterlimit:10;stroke-dasharray:0.8, 2.4;stroke-dashoffset:0;stroke-opacity:1"
       d="m -32.399982,70.48934 c 11.285,0.281 23.1019992,-0.457 33.7229992,4.054 11.6250008,5.203 18.6020008,16.551 24.8670008,27.063 5.641,9.265 10.129,19.441 17.633,27.414 2.941,3.312 8.098,5.379 12.121,2.683 6.723,-4.464 10.418,-11.996 14.524,-18.687 7.015,-11.875 13.117,-24.906 23.924997,-33.899 7.667995,-6.433 17.784995,-8.003 27.464995,-8.355" /><path
       id="path9080"
       style="fill:none;stroke:#6d6d6d;stroke-width:0.8;stroke-linecap:round;stroke-linejoin:miter;stroke-miterlimit:10;stroke-dasharray:0.8, 2.4;stroke-dashoffset:0;stroke-opacity:1"
       d="m -31.942982,70.42634 c 11.293,-0.281 23.1489992,0.438 33.7189992,-4.258 11.4730008,-5.363 18.3480008,-16.668 24.5820008,-27.144 5.57,-9.176 10.035,-19.239 17.465,-27.125 2.906,-3.25 7.945,-5.356 11.957,-2.778 6.594,4.223 10.234,11.516 14.231,17.989 7.156,12.05 13.265,25.32 24.182997,34.531 7.550995,6.437 17.597995,8.133 27.206995,8.492" /><path
       id="path9084"
       style="fill:none;stroke:#b140bf;stroke-width:0.75;stroke-linecap:butt;stroke-linejoin:miter;stroke-miterlimit:10;stroke-dasharray:none;stroke-dashoffset:0;stroke-opacity:1"
       d="m -31.942982,70.43434 c 6.848,-0.441 13.832,1.277 20.527999,-0.801 3.9960001,-1.254 7.0540002,2.012 10.1400002,3.875 3.504,1.32 5.1180004,-3.281 6.4100004,-5.668 1.317,-2.035 1.836,-5.625 4.512,-6.137 2.8360004,2.364 2.9340004,6.68 3.9880004,10.043 1.54,5.782 1.903,12.02 4.563,17.414 2.039,0.93 2.129,-3.269 2.652,-4.671 2.891,-15.27 3.211,-30.918 6.254,-46.157 0.832,-4.023 2.547,0.207 2.492,2.196 2.782,20.289 3.356,40.8 5.153,61.183 0.656,6.235 0.758,12.614 2.426,18.68 1.71,-0.031 1.296,-4.066 1.82,-5.707 3.207,-32.719 3.457,-65.652 6.469,-98.387 0.359,-2.273 0.343,-4.687 1.324,-6.804 1.707,2.699 1.254,6.476 1.832,9.632 2.82,35.094 3.187,70.344 6.234,105.418 0.438,2.262 0.121,5.067 1.547,6.883 1.93,-6.441 1.734,-13.359 2.422,-20.027 1.996,-28.352 2.621,-56.797 5.359,-85.094 0.504,-1.742 0.157,-5.332 1.7,-5.871 1.964,6.168 1.867,12.941 2.609,19.391 1.77,20.203 2.344,40.527 5.113,60.625 -0.058,1.953 1.692,6.195 2.481,2.136 3.277,-16.093 3.273,-32.707 6.867,-48.746 0.246,-3.211 2.941,-2.539 3.137,0.301 2.558,7.973 2.812,16.68 6.472,24.273 1.847997,2.364 3.566997,-1.371 4.296997,-2.867 1.762,-2.902 2.57,-7.41 6.234995,-8.43 3.695,0.532 5.964,5.012 10.066,4.368 3.066,-0.371 6.019,-1.477 9.156,-1.293" /><path
       id="path9088"
       style="fill:none;stroke:#1f77b4;stroke-width:1.12;stroke-linecap:butt;stroke-linejoin:miter;stroke-miterlimit:10;stroke-dasharray:none;stroke-opacity:1"
       d="m -31.485982,70.43834 c 5.657,0.199 11.317,0.238 16.937999,-0.516 3.933,-0.601 7.1370001,2.985 10.9840002,2.285 3.71899997,-1.211 4.59,-6.156 8.2390004,-7.308 3.035,1.019 3.437,4.988 4.578,7.597 1.4880004,3.704 1.7970004,8.215 4.5780004,11.204 2.273,-0.614 2.203,-3.981 2.918,-5.907 2.41,-10.66 2.879,-21.707 5.781,-32.258 1.391,-3.085 2.438,1.735 2.598,3.125 3.254,20.274 3.441,40.907 6.554,61.2 0.063,3.203 2.235,3.468 2.27,0.054 2.492,-18.238 2.957,-36.679 4.234,-55.023 0.949,-13.113 1.262,-26.32 3.289,-39.32 0.516,-3.653 1.899,0.179 1.817,1.898 2.289,20.285 2.754,40.731 3.926,61.102 1.031,17.3 1.371,34.679 3.546,51.882 0.321,4.063 2.004,1.04 1.891,-1.418 2.336,-22.093 2.844,-44.335 4.121,-66.507 0.953,-15.539 1.258,-31.164 3.375,-46.602 0.297,-3.668 1.938,-1 1.856,1.184 2.418,20.058 2.949,40.289 4.371,60.433 0.91,11.434 1.101,22.996 3.297,34.278 1.429,2.679 1.886,-2.664 2.156,-3.895 2.816,-19.949 3.07,-40.203 6.394,-60.082 -0.086,-2.109 2.047,-5.203 2.672,-1.562 3.098,11.746 3.133,24.156 6.789,35.761 0.715,3.098 3.235,0.821 3.504,-1.176 2.214997,-5.101 2.620997,-11.187 6.249997,-15.554 2.589995,-1.434 4.159995,2.394 5.652995,3.883 1.601,2.648 4.964,4.148 7.781,2.406 3.75,-2.117 7.812,-1.809 11.898,-1.192" /><path
       sodipodi:nodetypes="cc"
       id="path9092"
       style="fill:none;stroke:#000000;stroke-width:0.9375;stroke-linecap:butt;stroke-linejoin:miter;stroke-miterlimit:3.9;stroke-dasharray:none;stroke-opacity:1"
       d="M -26.977436,70.51234 H 142.19856" /><path
       d="m 137.20139,73.469 8.012,-2.945 -8.012,-2.945 c 1.281,1.738 1.274,4.117 0,5.89 z"
       style="fill:#000000;fill-opacity:1;fill-rule:evenodd;stroke:none"
       id="path9094" /><path
       id="path9098"
       style="fill:none;stroke:#000000;stroke-width:0.9375;stroke-linecap:butt;stroke-linejoin:miter;stroke-miterlimit:3.9;stroke-dasharray:none;stroke-opacity:1"
       d="m 51.624018,3.4e-4 v 148.867" /><path
       d="m 48.667018,142.477 2.945,8.012 2.945,-8.012 c -1.738,1.278 -4.117,1.27 -5.89,0 z"
       style="fill:#000000;fill-opacity:1;fill-rule:evenodd;stroke:none"
       id="path9100" /><path
       d="m 143.85399,61.255754 0.01,0.0344 0.009,0.0408 0.0128,0.0432 0.01,0.0504 0.0184,0.0496 0.016,0.0568 0.0152,0.0592 0.0192,0.0624 0.0216,0.0624 0.0248,0.0656 0.028,0.0656 0.0256,0.0656 0.0624,0.1376 0.0376,0.0688 0.0368,0.0656 0.0816,0.1312 0.0472,0.0624 0.0464,0.06 0.0504,0.0592 0.056,0.056 0.056,0.0504 0.0592,0.0496 0.0632,0.044 0.0688,0.0376 0.0312,0.0184 0.0368,0.0192 0.0376,0.012 0.0344,0.0128 0.0376,0.0152 0.0376,0.0096 0.044,0.0096 0.0808,0.012 0.044,0.0064 0.044,0.0032 h 0.04 c 0.0688,0 0.3944,0 0.6752,-0.1752 -0.3776,-0.0688 -0.6496,-0.4088 -0.6496,-0.7312 0,-0.2152 0.1496,-0.4776 0.5152,-0.4776 0.3,0 0.7312,0.2432 0.7312,0.7872 0,0.7064 -0.8,0.8936 -1.2592,0.8936 -0.7872,0 -1.2624,-0.7184 -1.4216,-1.0312 -0.3408,0.8936 -1.0752,1.0312 -1.4624,1.0312 -1.4128,0 -2.188,-1.7464 -2.188,-2.0872 0,-0.1376 0.1344,-0.1376 0.1656,-0.1376 0.1064,0 0.1504,0.0312 0.1752,0.1496 0.4592,1.4376 1.356,1.7784 1.816,1.7784 0.2592,0 0.7312,-0.1216 0.7312,-0.9064 0,-0.4184 -0.2288,-1.3312 -0.7312,-3.228 -0.216,-0.8408 -0.6912,-1.4096 -1.288,-1.4096 -0.084,0 -0.3936,0 -0.6752,0.1752 0.3376,0.0656 0.6344,0.3504 0.6344,0.7344 0,0.3624 -0.2968,0.4688 -0.5,0.4688 -0.4056,0 -0.7464,-0.3496 -0.7464,-0.784 0,-0.6224 0.6776,-0.8944 1.272,-0.8944 0.9,0 1.384,0.9504 1.4248,1.0288 0.1624,-0.5 0.6528,-1.0288 1.4624,-1.0288 1.4,0 2.1752,1.7472 2.1752,2.088 0,0.1376 -0.1224,0.1376 -0.1656,0.1376 -0.1224,0 -0.1504,-0.0568 -0.1752,-0.1504 -0.4472,-1.4496 -1.3688,-1.7752 -1.8032,-1.7752 -0.5312,0 -0.7496,0.432 -0.7496,0.8944 0,0.3 0.0808,0.5968 0.2344,1.1936 z"
       style="fill:#000000;fill-opacity:1;fill-rule:nonzero;stroke:none;stroke-width:1"
       id="path9102" /><g
       style="stroke-width:1.25"
       transform="matrix(0.8,0,0,0.8,-23.090529,38.115686)"
       id="g10605"><path
         id="path9104"
         style="fill:#000000;fill-opacity:1;fill-rule:nonzero;stroke:none;stroke-width:1.25"
         d="m 61.819018,147.622 h 1.457 c 0.34,0 0.508,0 0.508,0.34 0,0.187 -0.168,0.187 -0.453,0.187 h -1.41 l 0.355,1.938 c 0.07,0.351 0.309,1.554 0.41,1.757 0.153,0.325 0.442,0.579 0.797,0.579 0.063,0 0.508,0 0.828,-0.309 -0.742,-0.063 -0.914,-0.656 -0.914,-0.914 0,-0.387 0.305,-0.59 0.629,-0.59 0.442,0 0.93,0.375 0.93,1.016 0,0.781 -0.781,1.168 -1.473,1.168 -0.578,0 -1.648,-0.305 -2.152,-1.981 -0.102,-0.355 -0.153,-0.527 -0.559,-2.664 h -1.168 c -0.324,0 -0.508,0 -0.508,-0.32 0,-0.207 0.153,-0.207 0.473,-0.207 h 1.117 l -1.273,-6.692 c -0.305,-1.64 -0.59,-3.187 -1.473,-3.187 -0.07,0 -0.488,0 -0.816,0.308 0.785,0.047 0.933,0.661 0.933,0.914 0,0.387 -0.3,0.598 -0.629,0.598 -0.437,0 -0.929,-0.375 -0.929,-1.023 0,-0.762 0.746,-1.168 1.441,-1.168 0.93,0 1.61,1 1.914,1.644 0.539,1.071 0.934,3.117 0.953,3.239 z" /><path
         id="path9106"
         style="fill:#000000;fill-opacity:1;fill-rule:nonzero;stroke:none;stroke-width:1.25"
         d="m 71.335018,136.782 v 0.008 l -0.004,0.008 v 0.015 l -0.004,0.008 v 0.004 l -0.004,0.004 -0.008,0.015 v 0.004 l -0.004,0.012 -0.015,0.016 -0.008,0.011 -0.004,0.012 -0.012,0.008 -0.011,0.016 -0.004,0.007 -0.024,0.024 -0.008,0.011 -0.015,0.016 -0.004,0.008 -0.012,0.008 -0.008,0.011 -0.008,0.008 -0.007,0.012 -0.012,0.008 -0.008,0.012 -0.031,0.031 -0.016,0.011 -0.008,0.012 -0.05,0.051 c -2.118,2.137 -2.657,5.336 -2.657,7.93 0,2.949 0.641,5.902 2.723,8.011 0.223,0.211 0.223,0.243 0.223,0.293 0,0.121 -0.067,0.168 -0.168,0.168 -0.168,0 -1.696,-1.148 -2.696,-3.3 -0.867,-1.868 -1.066,-3.747 -1.066,-5.172 0,-1.325 0.188,-3.368 1.117,-5.285 1.012,-2.086 2.477,-3.184 2.645,-3.184 0.101,0 0.168,0.047 0.168,0.168 z" /><path
         id="path9108"
         style="fill:#000000;fill-opacity:1;fill-rule:nonzero;stroke:none;stroke-width:1.25"
         d="m 77.956018,145.965 0.012,0.047 0.007,0.051 0.02,0.055 0.012,0.058 0.019,0.067 0.02,0.07 0.047,0.149 0.027,0.078 0.031,0.082 0.031,0.086 0.036,0.082 0.078,0.172 0.047,0.082 0.046,0.086 0.047,0.082 0.055,0.082 0.059,0.078 0.058,0.074 0.063,0.074 0.066,0.07 0.148,0.125 0.079,0.055 0.086,0.047 0.039,0.023 0.093,0.04 0.043,0.015 0.094,0.031 0.051,0.008 0.055,0.012 0.101,0.016 h 0.109 c 0.086,0 0.489,0 0.844,-0.215 -0.472,-0.086 -0.812,-0.512 -0.812,-0.918 0,-0.266 0.187,-0.594 0.644,-0.594 0.371,0 0.914,0.305 0.914,0.984 0,0.883 -1,1.114 -1.574,1.114 -0.984,0 -1.578,-0.899 -1.781,-1.285 -0.422,1.117 -1.34,1.285 -1.828,1.285 -1.762,0 -2.731,-2.184 -2.731,-2.61 0,-0.168 0.168,-0.168 0.207,-0.168 0.133,0 0.188,0.035 0.219,0.188 0.574,1.797 1.695,2.219 2.266,2.219 0.328,0 0.918,-0.149 0.918,-1.133 0,-0.524 -0.289,-1.66 -0.918,-4.031 -0.266,-1.051 -0.86,-1.762 -1.61,-1.762 -0.101,0 -0.488,0 -0.84,0.219 0.422,0.082 0.793,0.437 0.793,0.914 0,0.457 -0.371,0.589 -0.625,0.589 -0.511,0 -0.933,-0.437 -0.933,-0.984 0,-0.773 0.847,-1.113 1.59,-1.113 1.121,0 1.726,1.187 1.781,1.285 0.203,-0.625 0.816,-1.285 1.828,-1.285 1.75,0 2.719,2.183 2.719,2.609 0,0.168 -0.156,0.168 -0.207,0.168 -0.153,0 -0.188,-0.066 -0.219,-0.183 -0.559,-1.813 -1.715,-2.219 -2.254,-2.219 -0.664,0 -0.937,0.539 -0.937,1.117 0,0.375 0.101,0.746 0.293,1.488 z" /><path
         id="path9110"
         style="fill:#000000;fill-opacity:1;fill-rule:nonzero;stroke:none;stroke-width:1.25"
         d="m 86.866018,145.083 -0.004,0.125 v 0.132 l -0.004,0.133 -0.004,0.141 -0.011,0.285 -0.02,0.297 -0.027,0.316 -0.039,0.321 -0.047,0.332 -0.055,0.343 -0.07,0.348 -0.078,0.348 -0.086,0.359 -0.106,0.36 -0.121,0.363 -0.133,0.363 -0.07,0.18 -0.078,0.183 -0.164,0.36 c -1.016,2.082 -2.473,3.183 -2.641,3.183 -0.105,0 -0.172,-0.066 -0.172,-0.168 0,-0.05 0,-0.082 0.321,-0.39 1.664,-1.672 2.628,-4.371 2.628,-7.914 0,-2.895 -0.624,-5.879 -2.73,-8.016 -0.219,-0.199 -0.219,-0.238 -0.219,-0.285 0,-0.102 0.067,-0.168 0.172,-0.168 0.168,0 1.688,1.152 2.692,3.301 0.863,1.859 1.066,3.742 1.066,5.168 z" /></g><path
       id="path9114"
       style="fill:none;stroke:#000000;stroke-width:0.9375;stroke-linecap:butt;stroke-linejoin:miter;stroke-miterlimit:3.9;stroke-dasharray:none;stroke-opacity:1"
       d="M 178.492,34.88734 H 356.566" /><path
       d="m 349.223,38.286 9.203,-3.383 -9.203,-3.387 c 1.468,2 1.461,4.735 0,6.77 z"
       style="fill:#000000;fill-opacity:1;fill-rule:evenodd;stroke:none"
       id="path9116" /><path
       id="path9120"
       style="fill:none;stroke:#000000;stroke-width:0.9375;stroke-linecap:butt;stroke-linejoin:miter;stroke-miterlimit:3.9;stroke-dasharray:none;stroke-opacity:1"
       d="m 218.566,19.24334 v 129.234" /><path
       d="m 215.168,141.133 3.387,9.204 3.383,-9.204 c -1.997,1.473 -4.731,1.465 -6.77,0 z"
       style="fill:#000000;fill-opacity:1;fill-rule:evenodd;stroke:none"
       id="path9122" /><g
       style="stroke-width:1.25"
       transform="matrix(0.8,0,0,0.8,44.158455,39.76443)"
       id="g9932"><path
         id="path9124"
         style="fill:#000000;fill-opacity:1;fill-rule:nonzero;stroke:none;stroke-width:1.25"
         d="m 169.918,151.692 v 0.106 l -0.004,0.046 v 0.051 l -0.004,0.024 v 0.027 l -0.004,0.019 -0.004,0.024 -0.007,0.019 v 0.024 l -0.008,0.019 -0.004,0.02 -0.012,0.019 -0.008,0.02 -0.011,0.016 -0.008,0.015 -0.024,0.032 -0.015,0.011 -0.016,0.016 h -0.012 l -0.015,0.015 h -0.012 l -0.008,0.004 -0.012,0.008 -0.007,0.004 h -0.012 l -0.023,0.008 h -0.012 l -0.012,0.004 h -0.012 l -0.015,0.004 h -0.028 c -0.312,0 -0.312,-0.278 -0.312,-0.555 v -14.316 c 0,-0.282 0,-0.555 0.312,-0.555 0.309,0 0.309,0.273 0.309,0.555 z" /><path
         id="path9126"
         style="fill:#000000;fill-opacity:1;fill-rule:nonzero;stroke:none;stroke-width:1.25"
         d="m 176.414,145.688 h 1.492 c 1.164,0 1.285,-0.246 1.285,-0.691 0,-0.114 0,-0.297 -0.105,-0.758 -0.035,-0.078 -0.051,-0.137 -0.051,-0.172 0,-0.121 0.094,-0.184 0.184,-0.184 0.152,0 0.152,0.047 0.23,0.325 l 0.852,3.347 c 0.043,0.168 0.043,0.203 0.043,0.246 0,0.032 -0.028,0.172 -0.18,0.172 -0.156,0 -0.172,-0.078 -0.234,-0.328 -0.325,-1.199 -0.676,-1.48 -1.989,-1.48 h -1.402 l 0.984,3.922 c 0.137,0.543 0.157,0.601 0.832,0.601 h 2.04 c 1.894,0 2.25,-0.508 2.25,-1.695 0,-0.36 0,-0.418 -0.043,-0.836 -0.032,-0.199 -0.032,-0.231 -0.032,-0.277 0,-0.079 0.043,-0.184 0.184,-0.184 0.172,0 0.187,0.094 0.215,0.387 l 0.308,2.668 c 0.051,0.414 -0.027,0.414 -0.414,0.414 h -7.558 c -0.313,0 -0.465,0 -0.465,-0.309 0,-0.168 0.14,-0.168 0.43,-0.168 0.574,0 1.003,0 1.003,-0.277 0,-0.063 0,-0.094 -0.078,-0.375 l -2.035,-8.156 c -0.152,-0.606 -0.183,-0.723 -1.406,-0.723 -0.262,0 -0.43,0 -0.43,-0.301 0,-0.18 0.184,-0.18 0.231,-0.18 0.445,0 1.586,0.047 2.039,0.047 0.508,0 1.789,-0.047 2.297,-0.047 0.14,0 0.324,0 0.324,0.293 0,0.121 -0.09,0.153 -0.09,0.172 -0.051,0.016 -0.078,0.016 -0.43,0.016 -0.343,0 -0.422,0 -0.804,0.027 -0.45,0.047 -0.496,0.11 -0.496,0.309 0,0.027 0,0.125 0.062,0.351 z" /><path
         id="path9128"
         style="fill:#000000;fill-opacity:1;fill-rule:nonzero;stroke:none;stroke-width:1.25"
         d="m 188.922,136.973 v 0.028 h -0.004 v 0.007 l -0.004,0.004 v 0.004 l -0.008,0.016 -0.004,0.004 -0.004,0.012 -0.007,0.003 v 0.012 l -0.012,0.008 -0.004,0.008 -0.012,0.011 -0.008,0.012 -0.003,0.004 -0.008,0.016 -0.008,0.004 -0.004,0.007 -0.016,0.016 -0.007,0.004 -0.008,0.012 -0.004,0.004 -0.008,0.011 -0.027,0.028 -0.004,0.007 -0.012,0.012 -0.012,0.008 -0.019,0.02 -0.008,0.011 -0.012,0.012 -0.011,0.008 -0.012,0.015 -0.012,0.012 c -1.926,1.945 -2.418,4.86 -2.418,7.219 0,2.683 0.582,5.371 2.481,7.297 0.199,0.187 0.199,0.219 0.199,0.265 0,0.106 -0.059,0.153 -0.149,0.153 -0.156,0 -1.546,-1.047 -2.453,-3.004 -0.793,-1.703 -0.976,-3.414 -0.976,-4.711 0,-1.207 0.172,-3.067 1.015,-4.813 0.926,-1.898 2.258,-2.898 2.414,-2.898 0.09,0 0.149,0.043 0.149,0.152 z" /><path
         id="path9130"
         style="fill:#000000;fill-opacity:1;fill-rule:nonzero;stroke:none;stroke-width:1.25"
         d="m 194.227,151.215 v 0.02 l -0.004,0.008 v 0.012 l -0.004,0.003 -0.004,0.008 v 0.008 l -0.004,0.008 v 0.008 l -0.008,0.008 -0.012,0.023 -0.007,0.004 -0.016,0.015 v 0.004 l -0.008,0.004 h -0.004 l -0.008,0.008 -0.007,0.004 -0.004,0.004 h -0.012 l -0.004,0.004 -0.008,0.004 h -0.008 l -0.007,0.004 -0.004,0.004 h -0.043 l -0.004,0.003 h -0.02 c -0.359,0 -1.48,-0.125 -1.882,-0.152 -0.129,-0.016 -0.293,-0.031 -0.293,-0.312 0,-0.184 0.136,-0.184 0.371,-0.184 0.738,0 0.769,-0.105 0.769,-0.262 l -0.051,-0.308 -2.234,-8.891 c -0.062,-0.211 -0.062,-0.246 -0.062,-0.34 0,-0.351 0.308,-0.429 0.449,-0.429 0.199,0 0.429,0.144 0.523,0.324 0.078,0.14 0.774,2.992 0.863,3.379 0.524,-0.047 1.793,-0.289 1.793,-1.313 0,-0.105 0,-0.168 -0.046,-0.324 -0.028,-0.184 -0.063,-0.367 -0.063,-0.535 0,-0.914 0.617,-1.531 1.422,-1.531 0.457,0 0.875,0.25 1.219,0.816 0.383,0.68 0.55,1.531 0.55,1.559 0,0.156 -0.136,0.156 -0.183,0.156 -0.152,0 -0.168,-0.063 -0.219,-0.281 -0.305,-1.122 -0.664,-1.911 -1.34,-1.911 -0.289,0 -0.492,0.168 -0.492,0.727 0,0.258 0.063,0.613 0.125,0.859 0.059,0.266 0.059,0.325 0.059,0.481 0,1.008 -0.973,1.453 -2.285,1.621 0.48,0.281 0.972,0.773 1.332,1.141 0.742,0.82 1.445,1.48 2.207,1.48 0.089,0 0.105,0 0.136,-0.016 0.188,-0.027 0.2,-0.027 0.325,-0.121 0.031,-0.015 0.031,-0.031 0.062,-0.062 -0.742,-0.047 -0.883,-0.645 -0.883,-0.832 0,-0.242 0.168,-0.543 0.586,-0.543 0.403,0 0.852,0.344 0.852,0.941 0,0.465 -0.36,0.973 -1.051,0.973 -0.43,0 -1.141,-0.121 -2.254,-1.356 -0.523,-0.586 -1.121,-1.203 -1.707,-1.437 z" /><path
         id="path9132"
         style="fill:#000000;fill-opacity:1;fill-rule:nonzero;stroke:none;stroke-width:1.25"
         d="m 202.762,144.532 v 0.234 l -0.004,0.121 -0.004,0.125 -0.012,0.262 -0.019,0.274 -0.024,0.285 -0.035,0.293 -0.039,0.3 -0.055,0.313 -0.058,0.316 -0.071,0.317 -0.082,0.328 -0.093,0.328 -0.11,0.332 -0.187,0.492 -0.071,0.164 -0.074,0.164 -0.078,0.168 c -0.926,1.895 -2.25,2.899 -2.406,2.899 -0.09,0 -0.152,-0.063 -0.152,-0.153 0,-0.046 0,-0.078 0.289,-0.355 1.515,-1.527 2.394,-3.981 2.394,-7.207 0,-2.637 -0.57,-5.352 -2.488,-7.297 -0.195,-0.184 -0.195,-0.219 -0.195,-0.262 0,-0.09 0.062,-0.152 0.152,-0.152 0.156,0 1.539,1.047 2.457,3.004 0.785,1.695 0.965,3.41 0.965,4.707 z" /><path
         id="path9134"
         style="fill:#000000;fill-opacity:1;fill-rule:nonzero;stroke:none;stroke-width:1.25"
         d="m 206.742,151.692 v 0.106 l -0.004,0.046 v 0.075 l -0.004,0.027 -0.004,0.019 -0.003,0.024 -0.004,0.019 -0.008,0.024 -0.004,0.019 -0.023,0.059 -0.024,0.031 -0.008,0.016 -0.043,0.043 h -0.011 l -0.016,0.015 h -0.012 l -0.008,0.004 -0.007,0.008 -0.016,0.004 h -0.008 l -0.023,0.008 h -0.016 l -0.012,0.004 h -0.011 l -0.012,0.004 h -0.027 c -0.309,0 -0.309,-0.278 -0.309,-0.555 v -14.316 c 0,-0.282 0,-0.555 0.309,-0.555 0.308,0 0.308,0.273 0.308,0.555 z" /><path
         id="path9136"
         style="fill:#000000;fill-opacity:1;fill-rule:nonzero;stroke:none;stroke-width:1.25"
         d="m 214.016,148.212 h -0.368 c -0.031,-0.235 -0.14,-0.875 -0.281,-0.981 -0.086,-0.062 -0.918,-0.062 -1.066,-0.062 h -1.989 c 1.133,1 1.508,1.3 2.161,1.808 0.797,0.637 1.543,1.309 1.543,2.332 0,1.309 -1.141,2.106 -2.528,2.106 -1.336,0 -2.242,-0.938 -2.242,-1.93 0,-0.555 0.465,-0.605 0.57,-0.605 0.258,0 0.575,0.187 0.575,0.574 0,0.191 -0.079,0.566 -0.637,0.566 0.332,0.766 1.066,1.004 1.574,1.004 1.082,0 1.641,-0.84 1.641,-1.715 0,-0.937 -0.668,-1.679 -1.016,-2.066 l -2.601,-2.57 c -0.106,-0.098 -0.106,-0.122 -0.106,-0.422 h 4.442 z" /></g><path
       d="m 357.46249,28.647446 v 0.0032 l -0.002,0.0064 v 0.0312 l -0.003,0.0032 -0.003,0.0064 -0.003,0.0088 -0.01,0.0192 -0.003,0.0096 -0.006,0.0024 -0.006,0.0064 -0.006,0.0096 -0.003,0.0032 -0.006,0.0032 -0.003,0.0032 -0.006,0.0032 -0.009,0.0088 h -0.006 l -0.006,0.0032 h -0.003 l -0.0128,0.0064 h -0.006 l -0.003,0.0032 -0.006,0.0032 h -0.016 l -0.006,0.0032 h -0.0128 l -0.01,0.0032 h -0.012 c -0.316,0 -1.3064,-0.1128 -1.6568,-0.1376 -0.112,-0.0128 -0.2592,-0.028 -0.2592,-0.272 0,-0.1624 0.1248,-0.1624 0.328,-0.1624 0.6504,0 0.6752,-0.0936 0.6752,-0.228 l -0.0408,-0.2752 -1.9656,-7.8096 c -0.056,-0.1872 -0.056,-0.2152 -0.056,-0.3 0,-0.3096 0.272,-0.3776 0.3968,-0.3776 0.1752,0 0.3784,0.128 0.456,0.2872 0.0688,0.1216 0.6816,2.628 0.7624,2.9688 0.46,-0.0408 1.572,-0.256 1.572,-1.1536 0,-0.0936 0,-0.1496 -0.0408,-0.2872 -0.0248,-0.1592 -0.056,-0.3184 -0.056,-0.4688 0,-0.8032 0.544,-1.3464 1.2536,-1.3464 0.4,0 0.7688,0.2184 1.068,0.7184 0.3376,0.5968 0.488,1.3472 0.488,1.3688 0,0.1376 -0.1216,0.1376 -0.1656,0.1376 -0.1344,0 -0.1472,-0.0568 -0.1904,-0.244 -0.2688,-0.9904 -0.5816,-1.6808 -1.1784,-1.6808 -0.2528,0 -0.4312,0.1464 -0.4312,0.6368 0,0.2288 0.0528,0.5376 0.1096,0.7568 0.0496,0.2344 0.0496,0.2872 0.0496,0.4216 0,0.8848 -0.8528,1.2752 -2.0032,1.4216 0.4192,0.2504 0.8536,0.6816 1.1656,1.0064 0.6504,0.7192 1.272,1.3 1.9408,1.3 0.0784,0 0.0936,0 0.1184,-0.012 0.1656,-0.0256 0.1784,-0.0256 0.2848,-0.1064 0.028,-0.016 0.028,-0.0312 0.056,-0.0568 -0.6528,-0.0432 -0.7752,-0.568 -0.7752,-0.7312 0,-0.2152 0.1504,-0.4744 0.516,-0.4744 0.3528,0 0.7472,0.2968 0.7472,0.8248 0,0.4064 -0.3128,0.8528 -0.9224,0.8528 -0.3776,0 -1.0032,-0.1056 -1.9808,-1.1904 -0.46,-0.5128 -0.9848,-1.056 -1.5032,-1.2624 z"
       style="fill:#000000;fill-opacity:1;fill-rule:nonzero;stroke:none;stroke-width:1"
       id="path9138" /><g
       style="fill:#8e3399;fill-opacity:1;stroke-width:1.11111"
       transform="matrix(0.9,0,0,0.9,0.54957241,16.366797)"
       id="g10599"><path
         id="path9144"
         style="fill:#8e3399;fill-opacity:1;fill-rule:evenodd;stroke:none;stroke-width:1.11111"
         d="m -23.637982,140.114 v 0.035 l 0.004,0.035 v 0.067 l 0.004,0.027 v 0.027 l 0.004,0.028 0.008,0.023 0.007,0.027 0.008,0.02 0.012,0.023 0.008,0.02 0.015,0.019 0.016,0.016 0.02,0.016 0.015,0.015 0.028,0.016 0.023,0.012 0.012,0.008 0.031,0.007 0.016,0.008 0.015,0.004 0.02,0.004 0.015,0.004 0.039,0.008 0.024,0.007 0.019,0.004 h 0.024 l 0.047,0.008 h 0.023 l 0.027,0.004 h 0.028 l 0.027,0.004 0.031,0.004 h 0.063 l 0.031,0.004 h 0.496 v 0.336 c -0.379,-0.035 -1.222,-0.035 -1.629,-0.035 -0.418,0 -1.261,0 -1.64,0.035 v -0.336 h 0.281 c 0.844,0 0.879,-0.113 0.879,-0.504 v -5.641 c 0,-0.386 -0.035,-0.504 -0.879,-0.504 h -0.281 v -0.332 c 0.379,0.036 1.222,0.036 1.629,0.036 0.418,0 1.261,0 1.64,-0.036 v 0.332 h -0.277 c -0.848,0 -0.883,0.118 -0.883,0.504 z" /><path
         id="path9146"
         style="fill:#8e3399;fill-opacity:1;fill-rule:evenodd;stroke:none;stroke-width:1.11111"
         d="m -20.996982,137.321 v -2.871 c 0,-0.481 -0.118,-0.481 -0.836,-0.481 v -0.332 c 0.375,0.012 0.918,0.036 1.211,0.036 0.277,0 0.836,-0.024 1.199,-0.036 v 0.332 c -0.719,0 -0.836,0 -0.836,0.481 v 1.973 c 0,1.113 0.758,1.71 1.445,1.71 0.676,0 0.793,-0.578 0.793,-1.187 v -2.496 c 0,-0.481 -0.117,-0.481 -0.836,-0.481 v -0.332 c 0.375,0.012 0.922,0.036 1.211,0.036 0.278,0 0.832,-0.024 1.198999,-0.036 v 0.332 c -0.717999,0 -0.834999,0 -0.834999,0.481 v 1.973 c 0,1.113 0.760999,1.71 1.448999,1.71 0.672,0 0.793,-0.578 0.793,-1.187 v -2.496 c 0,-0.481 -0.121,-0.481 -0.836,-0.481 v -0.332 c 0.371,0.012 0.918,0.036 1.207,0.036 0.277,0 0.836,-0.024 1.199,-0.036 v 0.332 c -0.555,0 -0.824,0 -0.836,0.325 v 2.043 c 0,0.921 0,1.253 -0.328,1.636 -0.152,0.184 -0.508,0.395 -1.129,0.395 -0.898,0 -1.366999,-0.641 -1.550999,-1.047 -0.152,0.93 -0.945,1.047 -1.422,1.047 -0.785,0 -1.285,-0.461 -1.586,-1.121 v 1.121 l -1.511,-0.117 v -0.332 c 0.75,0 0.836,-0.075 0.836,-0.598 z" /><path
         id="path9148"
         style="fill:#8e3399;fill-opacity:1;fill-rule:evenodd;stroke:none;stroke-width:1.11111"
         d="m -9.7079828,131.067 v 0.02 h -0.004 v 0.011 l -0.004,0.004 v 0.004 l -0.004,0.004 -0.004,0.008 -0.004,0.004 -0.004,0.008 -0.004,0.003 -0.003,0.008 -0.008,0.008 -0.004,0.008 -0.02,0.019 -0.004,0.008 -0.019,0.02 -0.004,0.008 -0.008,0.003 -0.008,0.008 -0.004,0.008 -0.023,0.024 -0.012,0.007 -0.004,0.008 -0.031,0.031 c -1.3400002,1.352 -1.6800002,3.375 -1.6800002,5.012 0,1.863 0.407,3.731 1.7230002,5.063 0.137,0.132 0.137,0.156 0.137,0.187 0,0.074 -0.039,0.106 -0.106,0.106 -0.105,0 -1.0700002,-0.727 -1.6990002,-2.086 -0.551,-1.18 -0.676,-2.368 -0.676,-3.27 0,-0.836 0.117,-2.129 0.703,-3.34 0.641,-1.316 1.5670002,-2.011 1.6720002,-2.011 0.067,0 0.106,0.031 0.106,0.105 z" /><path
         id="path9150"
         style="fill:#8e3399;fill-opacity:1;fill-rule:evenodd;stroke:none;stroke-width:1.11111"
         d="m -5.1689828,137.919 h 0.918 c 0.219,0 0.324,0 0.324,0.214 0,0.118 -0.105,0.118 -0.289,0.118 h -0.891 l 0.227,1.226 c 0.043,0.223 0.195,0.981 0.258,1.11 0.097,0.203 0.277,0.367 0.504,0.367 0.039,0 0.316,0 0.523,-0.199 -0.469,-0.036 -0.578,-0.415 -0.578,-0.575 0,-0.246 0.191,-0.375 0.398,-0.375 0.278,0 0.586,0.239 0.586,0.645 0,0.492 -0.492,0.738 -0.929,0.738 -0.368,0 -1.043,-0.191 -1.36,-1.254 -0.066,-0.226 -0.097,-0.332 -0.3550001,-1.683 h -0.739 c -0.203,0 -0.32,0 -0.32,-0.2 0,-0.132 0.094,-0.132 0.297,-0.132 h 0.711 l -0.809,-4.227 c -0.191,-1.039 -0.371,-2.016 -0.929,-2.016 -0.043,0 -0.3089999,0 -0.5119999,0.196 0.4919999,0.027 0.5859999,0.414 0.5859999,0.578 0,0.242 -0.191,0.375 -0.3949999,0.375 -0.281,0 -0.589,-0.238 -0.589,-0.645 0,-0.48 0.468,-0.738 0.9099999,-0.738 0.59,0 1.019,0.629 1.207,1.039 0.343,0.676 0.593,1.969 0.601,2.047 z" /><path
         id="path9152"
         style="fill:#8e3399;fill-opacity:1;fill-rule:evenodd;stroke:none;stroke-width:1.11111"
         d="m 0.38901717,136.313 v 0.164 l -0.004,0.082 v 0.09 l -0.007,0.18 -0.016,0.191 -0.016,0.195 -0.023,0.204 -0.027,0.211 -0.039,0.214 -0.039,0.223 -0.051,0.219 -0.059,0.226 -0.066,0.227 -0.071,0.23 -0.086,0.231 -0.046,0.113 -0.051,0.113 -0.047,0.118 -0.055,0.113 c -0.644,1.312 -1.56199997,2.012 -1.67199997,2.012 -0.062,0 -0.105,-0.043 -0.105,-0.106 0,-0.031 0,-0.055 0.203,-0.246 1.05099997,-1.059 1.65999997,-2.766 1.65999997,-5.004 0,-1.828 -0.394,-3.715 -1.72599997,-5.062 -0.137,-0.129 -0.137,-0.153 -0.137,-0.184 0,-0.062 0.043,-0.105 0.105,-0.105 0.11,0 1.07099997,0.726 1.70399997,2.086 0.543,1.175 0.671,2.367 0.671,3.265 z" /></g><g
       transform="matrix(0.9,0,0,0.9,-33.767582,11.92015)"
       style="fill:#165683;fill-opacity:1;stroke-width:1.11111"
       id="g9921"><path
         id="path9154"
         style="fill:#165683;fill-opacity:1;fill-rule:evenodd;stroke:none;stroke-width:1.11111"
         d="m 7.926,120.165 0.094,0.027 0.097,0.027 0.094,0.028 0.09,0.035 0.094,0.031 0.089,0.039 0.172,0.078 0.082,0.043 0.078,0.043 0.082,0.047 0.075,0.047 0.074,0.051 0.07,0.051 0.071,0.054 0.062,0.055 0.062,0.059 0.059,0.058 0.055,0.059 0.101,0.125 0.047,0.066 0.039,0.067 0.039,0.07 0.032,0.066 0.031,0.071 0.027,0.07 0.016,0.078 0.019,0.07 0.012,0.078 0.008,0.075 v 0.078 c 0,1.027 -1.219,1.929 -2.793,1.929 H 3.641 v -0.332 h 0.257 c 0.825,0 0.844,-0.117 0.844,-0.503 v -5.645 c 0,-0.387 -0.019,-0.5 -0.844,-0.5 H 3.641 v -0.336 c 0.382,0.035 1.148,0.035 1.562,0.035 0.418,0 1.18,0 1.567,-0.035 v 0.336 H 6.508 c -0.82,0 -0.844,0.113 -0.844,0.5 v 5.719 c 0,0.246 0,0.375 0.234,0.41 0.11,0.019 0.422,0.019 0.637,0.019 0.957,0 2.164,-0.043 2.164,-1.597 0,-0.738 -0.261,-1.606 -1.844,-1.606 H 5.664 v -0.238 h 1.234 c 0.172,0 0.622,0 0.993,-0.359 0.41,-0.387 0.41,-0.723 0.41,-1.438 0,-0.699 0,-1.125 0.437,-1.531 0.438,-0.387 1.028,-0.449 1.348,-0.449 0.836,0 1.019,0.875 1.019,1.179 0,0.063 0,0.18 -0.136,0.18 -0.121,0 -0.121,-0.098 -0.133,-0.168 -0.063,-0.766 -0.438,-0.957 -0.703,-0.957 -0.528,0 -0.613,0.551 -0.766,1.543 l -0.137,0.856 c -0.191,0.683 -0.718,1.042 -1.304,1.242 z" /><path
         id="path9156"
         style="fill:#165683;fill-opacity:1;fill-rule:evenodd;stroke:none;stroke-width:1.11111"
         d="m 12.348,119.001 0.011,0.222 c 0.063,1.598 0.961,1.864 1.329,1.864 1.101,0 1.21,-1.446 1.21,-1.864 h -2.539 l -0.011,-0.222 h 2.988 c 0.234,0 0.266,0 0.266,0.222 0,1.059 -0.579,2.098 -1.914,2.098 -1.243,0 -2.231,-1.102 -2.231,-2.441 0,-1.434 1.125,-2.473 2.359,-2.473 1.305,0 1.786,1.187 1.786,1.391 0,0.109 -0.082,0.132 -0.137,0.132 -0.098,0 -0.117,-0.066 -0.141,-0.152 -0.375,-1.102 -1.34,-1.102 -1.445,-1.102 -0.539,0 -0.965,0.321 -1.207,0.715 -0.324,0.516 -0.324,1.223 -0.324,1.61 z" /><path
         id="path9158"
         style="fill:#165683;fill-opacity:1;fill-rule:evenodd;stroke:none;stroke-width:1.11111"
         d="m 19.449,113.958 v 0.015 l -0.004,0.004 v 0.004 h -0.004 v 0.012 l -0.007,0.008 v 0.004 l -0.004,0.007 -0.016,0.016 -0.004,0.008 -0.012,0.012 -0.003,0.007 v 0.004 l -0.008,0.008 -0.008,0.004 -0.004,0.008 -0.02,0.019 -0.003,0.008 -0.008,0.004 -0.008,0.008 -0.004,0.008 -0.004,0.004 -0.012,0.007 -0.004,0.008 -0.023,0.024 -0.008,0.004 -0.008,0.011 -0.007,0.008 c -1.336,1.348 -1.676,3.371 -1.676,5.008 0,1.863 0.402,3.73 1.719,5.066 0.14,0.129 0.14,0.153 0.14,0.184 0,0.074 -0.043,0.105 -0.105,0.105 -0.106,0 -1.071,-0.726 -1.703,-2.086 -0.547,-1.179 -0.676,-2.367 -0.676,-3.269 0,-0.836 0.117,-2.125 0.703,-3.34 0.644,-1.316 1.57,-2.012 1.676,-2.012 0.062,0 0.105,0.032 0.105,0.11 z" /><path
         id="path9160"
         style="fill:#165683;fill-opacity:1;fill-rule:evenodd;stroke:none;stroke-width:1.11111"
         d="m 23.984,120.805 h 0.922 c 0.215,0 0.324,0 0.324,0.215 0,0.121 -0.109,0.121 -0.292,0.121 h -0.887 l 0.222,1.223 c 0.043,0.223 0.196,0.98 0.258,1.109 0.098,0.207 0.281,0.367 0.504,0.367 0.043,0 0.32,0 0.524,-0.195 -0.469,-0.039 -0.579,-0.414 -0.579,-0.578 0,-0.242 0.196,-0.371 0.399,-0.371 0.281,0 0.586,0.234 0.586,0.641 0,0.492 -0.492,0.738 -0.93,0.738 -0.363,0 -1.039,-0.192 -1.359,-1.25 -0.063,-0.227 -0.098,-0.336 -0.352,-1.684 h -0.738 c -0.203,0 -0.324,0 -0.324,-0.203 0,-0.133 0.097,-0.133 0.3,-0.133 h 0.708 l -0.805,-4.226 c -0.192,-1.039 -0.375,-2.016 -0.93,-2.016 -0.047,0 -0.308,0 -0.515,0.195 0.492,0.032 0.589,0.418 0.589,0.579 0,0.246 -0.191,0.375 -0.398,0.375 -0.277,0 -0.586,-0.235 -0.586,-0.645 0,-0.48 0.469,-0.738 0.91,-0.738 0.586,0 1.016,0.633 1.207,1.039 0.344,0.676 0.59,1.969 0.602,2.047 z" /><path
         id="path9162"
         style="fill:#165683;fill-opacity:1;fill-rule:evenodd;stroke:none;stroke-width:1.11111"
         d="m 29.547,119.2 v 0.164 l -0.004,0.086 v 0.086 l -0.012,0.179 -0.011,0.192 -0.02,0.199 -0.02,0.203 -0.031,0.207 -0.035,0.219 -0.043,0.219 -0.051,0.222 -0.054,0.223 -0.067,0.231 -0.074,0.23 -0.086,0.227 -0.043,0.117 -0.101,0.226 -0.055,0.114 c -0.641,1.316 -1.559,2.011 -1.668,2.011 -0.063,0 -0.106,-0.039 -0.106,-0.105 0,-0.031 0,-0.055 0.2,-0.246 1.05,-1.059 1.664,-2.762 1.664,-5.004 0,-1.828 -0.399,-3.711 -1.727,-5.063 -0.137,-0.125 -0.137,-0.152 -0.137,-0.179 0,-0.067 0.043,-0.11 0.106,-0.11 0.109,0 1.07,0.731 1.703,2.09 0.543,1.176 0.672,2.363 0.672,3.262 z" /></g><path
       id="path9170"
       style="fill:none;stroke:#6d6d6d;stroke-width:0.8;stroke-linecap:round;stroke-linejoin:miter;stroke-miterlimit:4;stroke-dasharray:0.8, 2.4;stroke-dashoffset:0;stroke-opacity:1"
       d="m 272.57,130.61734 v -93.761" /><path
       id="path9174"
       style="fill:none;stroke:#000000;stroke-width:0.8;stroke-linecap:butt;stroke-linejoin:miter;stroke-miterlimit:4;stroke-dasharray:none;stroke-opacity:1"
       d="m 272.535,38.53234 v -5.903" /><path
       d="m 274.68075,29.653296 -0.002,0.006 v 0.012 l -0.003,0.006 v 0.003 l -0.003,0.0052 v 0.009 l -0.003,0.003 -0.006,0.012 v 0.0053 l -0.009,0.009 v 0.003 l -0.006,0.003 -0.002,0.006 -0.003,0.003 -0.006,0.003 -0.003,0.003 -0.006,0.0023 -0.003,0.006 h -0.009 l -0.002,0.003 -0.012,0.006 h -0.0202 l -0.006,0.003 h -0.006 c -0.123,0 -0.5655,-0.4425 -0.753,-0.765 -0.246,0.59775 -0.6765,0.774 -1.03125,0.774 v -0.24075 c 0.71775,0 0.876,-0.89625 0.876,-0.97275 0,-0.06975 -0.609,-2.493 -0.64125,-2.5395 -0.16725,-0.3105 -0.78525,-1.017 -1.40625,-1.017 -0.66525,0 -0.7125,0.85275 -0.7125,1.04025 0,0.53025 0.3225,1.737 0.513,2.20275 0.33975,0.8205 0.91725,1.28625 1.371,1.28625 v 0.24075 c -1.3065,0 -2.66625,-1.638 -2.66625,-3.24375 0,-1.08075 0.65325,-1.77225 1.4565,-1.77225 0.48,0 0.91425,0.267 1.3095,0.66525 -0.0997,-0.387 -0.46275,-1.881 -0.498,-1.98375 -0.0877,-0.3105 -0.17625,-0.354 -0.79725,-0.366 -0.14325,0 -0.255,0 -0.255,-0.22275 0,-0.009 0,-0.12 0.144,-0.12 0.35475,0 0.741,0.03525 1.11,0.03525 0.375,0 0.774,-0.03525 1.137,-0.03525 0.0555,0 0.1995,0 0.1995,0.22275 0,0.12 -0.10875,0.12 -0.28425,0.12 -0.53625,0 -0.53625,0.07875 -0.53625,0.1785 0,0.0795 0.0263,0.147 0.0465,0.24375 z"
       style="fill:#000000;fill-opacity:1;fill-rule:evenodd;stroke:none;stroke-width:0.999997"
       id="path9176" /><path
       id="path9180"
       style="fill:none;stroke:#000000;stroke-width:0.8;stroke-linecap:butt;stroke-linejoin:miter;stroke-miterlimit:4;stroke-dasharray:none;stroke-opacity:1"
       d="m 37.620018,4.58234 h 12.203" /><path
       d="m 45.635018,6.516 5.247,-1.926 -5.247,-1.929 c 0.84,1.137 0.836,2.695 0,3.855 z"
       style="fill:#000000;fill-opacity:1;fill-rule:evenodd;stroke:none"
       id="path9182" /><path
       id="path9186"
       style="fill:none;stroke:#000000;stroke-width:0.8;stroke-linecap:butt;stroke-linejoin:miter;stroke-miterlimit:4;stroke-dasharray:none;stroke-opacity:1"
       d="m 88.882018,4.59834 h -14.801" /><path
       d="m 78.268018,2.661 -5.246,1.929 5.246,1.926 c -0.84,-1.136 -0.836,-2.695 0,-3.855 z"
       style="fill:#000000;fill-opacity:1;fill-rule:evenodd;stroke:none"
       id="path9188" /><path
       id="path9192"
       style="fill:none;stroke:#ff3e0e;stroke-width:1.2;stroke-linecap:round;stroke-linejoin:miter;stroke-miterlimit:10;stroke-dasharray:none;stroke-opacity:1"
       d="m 187.992,36.18834 c 11.274,0.429 23.07,-0.707 33.68,6.265 11.609,8.032 18.582,25.563 24.836,41.809 5.633,14.309 10.117,30.031 17.613,42.348 2.938,5.121 8.086,8.308 12.102,4.148 6.715,-6.898 10.406,-18.531 14.507,-28.871 7.008,-18.348 13.098,-38.477 23.895,-52.375 7.656,-9.934 17.766,-12.363 27.43,-12.906" /><g
       transform="translate(15.810723,-7.816704)"
       id="g10613"><path
         id="path9194"
         style="fill:#000000;fill-opacity:1;fill-rule:evenodd;stroke:none"
         d="m 77.788018,16.618 v 0.086 l -0.004,0.008 v 0.058 l -0.004,0.012 -0.019,0.039 -0.004,0.004 -0.008,0.004 -0.004,0.008 -0.016,0.007 h -0.008 l -0.003,0.004 h -0.008 l -0.004,0.004 h -0.02 l -0.008,0.004 h -0.054 l -0.012,0.004 h -0.035 c -0.578,-0.598 -1.395,-0.598 -1.688,-0.598 v -0.285 c 0.184,0 0.731,0 1.211,0.242 v -4.808 c 0,-0.336 -0.027,-0.446 -0.859,-0.446 h -0.301 v -0.289 c 0.328,0.028 1.133,0.028 1.504,0.028 0.375,0 1.18,0 1.504,-0.028 v 0.289 h -0.297 c -0.832,0 -0.863,0.102 -0.863,0.446 z" /><path
         id="path9196"
         style="fill:#000000;fill-opacity:1;fill-rule:evenodd;stroke:none"
         d="m 83.784018,17.282 v 0.008 l 0.004,0.004 0.004,0.007 v 0.004 l 0.004,0.004 v 0.004 l 0.004,0.008 v 0.004 l 0.003,0.008 0.004,0.011 v 0.004 l 0.004,0.012 0.004,0.008 v 0.008 l 0.004,0.004 v 0.007 l 0.004,0.004 v 0.012 l 0.004,0.004 v 0.023 l 0.004,0.004 v 0.016 c 0,0.101 -0.086,0.183 -0.188,0.183 -0.062,0 -0.129,-0.023 -0.156,-0.082 l -3.223,-8.843 c -0.046,-0.118 -0.046,-0.157 -0.046,-0.164 0,-0.102 0.085,-0.188 0.187,-0.188 0.121,0 0.148,0.063 0.203,0.219 z" /><path
         id="path9198"
         style="fill:#000000;fill-opacity:1;fill-rule:evenodd;stroke:none"
         d="m 87.971018,9.512 -1.636,3.61 c -0.063,0.152 -0.11,0.152 -0.137,0.152 -0.012,0 -0.059,0 -0.156,-0.074 l -0.887,-0.672 c -0.117,-0.094 -0.117,-0.117 -0.117,-0.145 0,-0.046 0.027,-0.105 0.094,-0.105 0.054,0 0.211,0.133 0.312,0.203 0.059,0.047 0.195,0.152 0.297,0.227 l 1.828,-4.02 c 0.066,-0.148 0.113,-0.148 0.195,-0.148 0.141,0 0.168,0.054 0.235,0.187 l 4.215,8.723 c 0.062,0.129 0.062,0.164 0.062,0.183 0,0.094 -0.074,0.188 -0.187,0.188 -0.071,0 -0.137,-0.047 -0.211,-0.195 z" /><path
         id="path9200"
         style="fill:#000000;fill-opacity:1;fill-rule:nonzero;stroke:none"
         d="m 92.100018,17.532 h 9.968992 v 0.379 h -9.968992" /><path
         id="path9202"
         style="fill:#000000;fill-opacity:1;fill-rule:evenodd;stroke:none"
         d="m 93.249018,11.391 0.983997,0.957 c 1.449,1.278 2.008,1.778 2.008,2.707 0,1.059 -0.836,1.805 -1.969,1.805 -1.050997,0 -1.737997,-0.859 -1.737997,-1.684 0,-0.519 0.465,-0.519 0.492,-0.519 0.16,0 0.484997,0.113 0.484997,0.492 0,0.242 -0.168,0.484 -0.492997,0.484 -0.074,0 -0.093,0 -0.121,-0.011 0.215,0.605 0.714997,0.949 1.253997,0.949 0.844,0 1.242,-0.754 1.242,-1.516 0,-0.742 -0.465,-1.476 -0.972,-2.05 L 92.639018,11.02 c -0.105,-0.101 -0.105,-0.121 -0.105,-0.344 h 3.444997 l 0.262,1.614 h -0.234 c -0.047,-0.278 -0.11,-0.688 -0.204,-0.825 -0.066,-0.074 -0.679,-0.074 -0.882,-0.074 z" /><path
         id="path9204"
         style="fill:#000000;fill-opacity:1;fill-rule:evenodd;stroke:none"
         d="m 97.100015,13.036 0.039,0.094 0.016,0.046 0.023,0.047 0.02,0.043 0.02,0.039 0.023,0.043 0.023,0.039 0.024,0.036 0.027,0.039 0.024,0.035 0.023,0.031 0.055,0.066 0.054,0.059 0.055,0.055 0.059,0.05 0.054,0.043 0.063,0.043 0.059,0.039 0.117,0.063 0.058,0.027 0.059,0.024 0.055,0.019 0.058,0.02 0.051,0.015 0.055,0.012 0.05,0.012 0.047,0.012 0.043,0.003 0.043,0.008 0.039,0.004 0.032,0.004 h 0.031 l 0.027,0.004 h 0.051 c 1.398,0 1.503995,-1.625 1.503995,-2.359 0,-0.567 -0.047,-0.723 -0.112995,-0.911 -0.204,-0.675 -0.481,-1.75 -0.481,-1.992 0,-0.101 0.043,-0.168 0.121,-0.168 0.121,0 0.195,0.207 0.297,0.559 0.210995,0.781 0.304995,1.305 0.343995,1.594 0.015,0.121 0.035,0.242 0.07,0.363 0.297,0.918 0.895,2.301 1.266,3.035 0.062,0.109 0.172,0.317 0.172,0.352 0,0.093 -0.09,0.093 -0.11,0.093 -0.023,0 -0.082,0 -0.109,-0.066 -0.485,-0.883 -0.852,-1.809 -1.227,-2.746 -0.008,0.289 -0.015,0.992 -0.378995,1.894 -0.222,0.567 -0.597,1.016 -1.234,1.016 -1.16,0 -1.813,-1.406 -1.813,-1.695 0,-0.09 0.086,-0.09 0.18,-0.09 z" /></g><path
       id="path9208"
       style="fill:none;stroke:#000000;stroke-width:0.8;stroke-linecap:butt;stroke-linejoin:miter;stroke-miterlimit:4;stroke-dasharray:none;stroke-opacity:1"
       d="m 258.648,4.58234 h 12.2" /><path
       d="m 266.664,6.516 5.242,-1.926 -5.242,-1.929 c 0.836,1.137 0.832,2.695 0,3.855 z"
       style="fill:#000000;fill-opacity:1;fill-rule:evenodd;stroke:none"
       id="path9210" /><path
       id="path9214"
       style="fill:none;stroke:#000000;stroke-width:0.8;stroke-linecap:butt;stroke-linejoin:miter;stroke-miterlimit:4;stroke-dasharray:none;stroke-opacity:1"
       d="M 309.418,4.59834 H 294.617" /><path
       d="m 298.801,2.661 -5.242,1.929 5.242,1.926 c -0.836,-1.136 -0.832,-2.695 0,-3.855 z"
       style="fill:#000000;fill-opacity:1;fill-rule:evenodd;stroke:none"
       id="path9216" /><path
       id="path9220"
       style="fill:none;stroke:#6d6d6d;stroke-width:0.8;stroke-linecap:round;stroke-linejoin:miter;stroke-miterlimit:4;stroke-dasharray:0.8, 2.4;stroke-dashoffset:0;stroke-opacity:1"
       d="M 72.944018,30.96134 V 0.69634" /><path
       id="path9224"
       style="fill:none;stroke:#6d6d6d;stroke-width:0.8;stroke-linecap:round;stroke-linejoin:miter;stroke-miterlimit:4;stroke-dasharray:0.8, 2.4;stroke-dashoffset:0;stroke-opacity:1"
       d="M 293.914,92.62134 V 3.87534" /><path
       id="path9228"
       style="fill:none;stroke:#6d6d6d;stroke-width:0.8;stroke-linecap:round;stroke-linejoin:miter;stroke-miterlimit:4;stroke-dasharray:0.8, 2.4;stroke-dashoffset:0;stroke-opacity:1"
       d="M 272.57,18.61034 V 3.90334" /><g
       style="stroke-width:1.12989"
       transform="matrix(0.88503974,0,0,0.88503974,31.67591,-0.883183)"
       id="g10624"><path
         id="path9232"
         style="fill:#000000;fill-opacity:1;fill-rule:nonzero;stroke:none;stroke-width:1.12989"
         d="m 283.746,11.106 h 6.266 v 0.445 h -6.266" /><path
         id="path9230"
         style="fill:#000000;fill-opacity:1;fill-rule:evenodd;stroke:none;stroke-width:1.12989"
         d="m 278.898,1.798 -1.921,4.25 c -0.079,0.175 -0.133,0.175 -0.168,0.175 -0.008,0 -0.063,0 -0.184,-0.086 l -1.039,-0.789 c -0.141,-0.109 -0.141,-0.14 -0.141,-0.175 0,-0.055 0.032,-0.122 0.11,-0.122 0.066,0 0.25,0.157 0.371,0.243 0.062,0.054 0.23,0.175 0.347,0.265 l 2.153,-4.734 c 0.082,-0.176 0.136,-0.176 0.23,-0.176 0.164,0 0.199,0.066 0.274,0.219 l 4.965,10.273 c 0.074,0.153 0.074,0.196 0.074,0.219 0,0.109 -0.09,0.219 -0.219,0.219 -0.086,0 -0.164,-0.055 -0.25,-0.231 z" /><path
         id="path9234"
         style="fill:#000000;fill-opacity:1;fill-rule:evenodd;stroke:none;stroke-width:1.12989"
         d="m 284.207,7.126 0.02,0.058 0.019,0.055 0.047,0.109 0.023,0.051 0.055,0.094 0.024,0.047 0.031,0.043 0.027,0.047 0.027,0.039 0.032,0.043 0.062,0.074 0.063,0.07 0.066,0.063 0.067,0.058 0.14,0.102 0.07,0.047 0.071,0.039 0.066,0.035 0.071,0.031 0.07,0.027 0.062,0.028 0.067,0.019 0.062,0.02 0.063,0.015 0.058,0.012 0.055,0.012 0.055,0.008 0.047,0.008 0.046,0.003 0.043,0.004 0.036,0.004 h 0.031 l 0.023,0.004 h 0.035 c 1.649,0 1.77,-1.914 1.77,-2.777 0,-0.672 -0.055,-0.856 -0.129,-1.074 -0.242,-0.797 -0.57,-2.063 -0.57,-2.348 0,-0.121 0.054,-0.199 0.144,-0.199 0.141,0 0.231,0.246 0.348,0.66 0.25,0.918 0.359,1.539 0.406,1.875 0.02,0.144 0.039,0.285 0.086,0.43 0.348,1.082 1.047,2.707 1.488,3.574 0.075,0.129 0.204,0.371 0.204,0.414 0,0.109 -0.106,0.109 -0.129,0.109 -0.032,0 -0.102,0 -0.129,-0.078 -0.571,-1.035 -1.008,-2.129 -1.446,-3.234 -0.011,0.34 -0.019,1.168 -0.449,2.234 -0.258,0.664 -0.699,1.195 -1.453,1.195 -1.363,0 -2.133,-1.656 -2.133,-1.996 0,-0.109 0.102,-0.109 0.211,-0.109 z" /></g><path
       id="path9923"
       d="M -3.4890178,116.51545 28.495016,98.816679"
       style="fill:none;stroke:#165683;stroke-width:0.525;stroke-linecap:butt;stroke-linejoin:miter;stroke-miterlimit:4;stroke-dasharray:none;stroke-opacity:1" /><path
       style="fill:none;stroke:#8e3399;stroke-width:0.525;stroke-linecap:butt;stroke-linejoin:miter;stroke-miterlimit:4;stroke-dasharray:none;stroke-opacity:1"
       d="M 3.6445321,137.98326 35.628566,120.28449"
       id="path9923-0" /></g></svg>
