<?xml version="1.0" encoding="UTF-8" standalone="no"?>
<svg
   xmlns:dc="http://purl.org/dc/elements/1.1/"
   xmlns:cc="http://creativecommons.org/ns#"
   xmlns:rdf="http://www.w3.org/1999/02/22-rdf-syntax-ns#"
   xmlns:svg="http://www.w3.org/2000/svg"
   xmlns="http://www.w3.org/2000/svg"
   xmlns:sodipodi="http://sodipodi.sourceforge.net/DTD/sodipodi-0.dtd"
   xmlns:inkscape="http://www.inkscape.org/namespaces/inkscape"
   inkscape:version="1.0 (4035a4fb49, 2020-05-01)"
   sodipodi:docname="logarithm.svg"
   viewBox="0 0 286.19418 231.50533"
   height="231.50533"
   width="286.19418"
   xml:space="preserve"
   id="svg3490"
   version="1.1"><metadata
     id="metadata3496"><rdf:RDF><cc:Work
         rdf:about=""><dc:format>image/svg+xml</dc:format><dc:type
           rdf:resource="http://purl.org/dc/dcmitype/StillImage" /><dc:title></dc:title></cc:Work></rdf:RDF></metadata><defs
     id="defs3494" /><sodipodi:namedview
     fit-margin-bottom="0"
     fit-margin-right="0"
     fit-margin-left="0"
     fit-margin-top="0"
     inkscape:current-layer="g3498"
     inkscape:window-maximized="1"
     inkscape:window-y="0"
     inkscape:window-x="0"
     inkscape:cy="196.55589"
     inkscape:cx="202.07315"
     inkscape:zoom="2"
     showgrid="false"
     id="namedview3492"
     inkscape:window-height="1026"
     inkscape:window-width="1920"
     inkscape:pageshadow="2"
     inkscape:pageopacity="0"
     guidetolerance="10"
     gridtolerance="10"
     objecttolerance="10"
     borderopacity="1"
     bordercolor="#666666"
     pagecolor="#ffffff" /><g
     transform="matrix(1.3333333,0,0,-1.3333333,0,231.50533)"
     inkscape:label="logarithm"
     inkscape:groupmode="layer"
     id="g3498"><path
       id="path3504"
       style="fill:none;stroke:#000000;stroke-width:0.9;stroke-linecap:butt;stroke-linejoin:miter;stroke-miterlimit:10;stroke-dasharray:none;stroke-opacity:1"
       d="m 42.305,6.43806 h 2.007" /><path
       id="path3508"
       style="fill:none;stroke:#000000;stroke-width:0.9;stroke-linecap:butt;stroke-linejoin:miter;stroke-miterlimit:10;stroke-dasharray:none;stroke-opacity:1"
       d="m 42.305,56.65606 h 2.007" /><path
       id="path3512"
       style="fill:none;stroke:#000000;stroke-width:0.9;stroke-linecap:butt;stroke-linejoin:miter;stroke-miterlimit:10;stroke-dasharray:none;stroke-opacity:1"
       d="m 203.539,56.65606 h -2.008" /><path
       id="path3516"
       style="fill:none;stroke:#000000;stroke-width:0.9;stroke-linecap:butt;stroke-linejoin:miter;stroke-miterlimit:10;stroke-dasharray:none;stroke-opacity:1"
       d="m 42.305,106.87506 h 2.007" /><path
       id="path3520"
       style="fill:none;stroke:#000000;stroke-width:0.9;stroke-linecap:butt;stroke-linejoin:miter;stroke-miterlimit:10;stroke-dasharray:none;stroke-opacity:1"
       d="m 42.305,157.09806 h 2.007" /><path
       id="path3524"
       style="fill:none;stroke:#000000;stroke-width:0.9;stroke-linecap:butt;stroke-linejoin:miter;stroke-miterlimit:10;stroke-dasharray:none;stroke-opacity:1"
       d="m 71.508,53.81706 v 2.011" /><path
       id="path3528"
       style="fill:none;stroke:#000000;stroke-width:0.9;stroke-linecap:butt;stroke-linejoin:miter;stroke-miterlimit:10;stroke-dasharray:none;stroke-opacity:1"
       d="m 97.914,53.81706 v 2.011" /><path
       id="path3532"
       style="fill:none;stroke:#000000;stroke-width:0.9;stroke-linecap:butt;stroke-linejoin:miter;stroke-miterlimit:10;stroke-dasharray:none;stroke-opacity:1"
       d="m 124.32,53.81706 v 2.011" /><path
       id="path3536"
       style="fill:none;stroke:#000000;stroke-width:0.9;stroke-linecap:butt;stroke-linejoin:miter;stroke-miterlimit:10;stroke-dasharray:none;stroke-opacity:1"
       d="m 150.727,53.81706 v 2.011" /><path
       id="path3540"
       style="fill:none;stroke:#000000;stroke-width:0.9;stroke-linecap:butt;stroke-linejoin:miter;stroke-miterlimit:10;stroke-dasharray:none;stroke-opacity:1"
       d="m 177.133,53.81706 v 2.011" /><text
       y="3.47227e-06"
       x="29.775379"
       transform="scale(1,-1)"
       style="font-variant:normal;font-weight:normal;font-size:11.2px;font-family:'DejaVu Sans';-inkscape-font-specification:DejaVuSans;writing-mode:lr-tb;fill:#000000;fill-opacity:1;fill-rule:nonzero;stroke:none"
       id="text3550"><tspan
         x="29.775379 33.807381"
         y="3.47227e-06"
         sodipodi:role="line"
         id="tspan3542">-2</tspan><tspan
         x="31.698307"
         y="-44.849075"
         id="tspan3544">0</tspan><tspan
         x="31.662102"
         y="-102.5133"
         id="tspan3546">2</tspan><tspan
         x="31.478924"
         y="-151.49652"
         id="tspan3548">4</tspan></text><path
       id="path3554"
       style="fill:none;stroke:#000000;stroke-width:1.28;stroke-linecap:butt;stroke-linejoin:miter;stroke-miterlimit:4;stroke-dasharray:none;stroke-opacity:1"
       d="M 26.816,56.45706 H 209.719" /><text
       y="-38.572273"
       x="168.47882"
       transform="scale(1,-1)"
       style="font-variant:normal;font-weight:normal;font-size:11.2px;font-family:'DejaVu Sans';-inkscape-font-specification:DejaVuSans;writing-mode:lr-tb;fill:#000000;fill-opacity:1;fill-rule:nonzero;stroke:none"
       id="text3566"><tspan
         x="168.47882 175.60202"
         y="-38.572273"
         sodipodi:role="line"
         id="tspan3556">50</tspan><tspan
         x="142.61591 149.73911"
         y="-38.4137"
         sodipodi:role="line"
         id="tspan3558">40</tspan><tspan
         x="115.87554 122.99874"
         y="-38.566818"
         sodipodi:role="line"
         id="tspan3560">30</tspan><tspan
         x="89.870422 96.993622"
         y="-38.550404"
         sodipodi:role="line"
         id="tspan3562">20</tspan><tspan
         x="63.643784 70.766983"
         y="-38.755489"
         sodipodi:role="line"
         id="tspan3564">10</tspan></text><path
       id="path3570"
       style="fill:none;stroke:#000000;stroke-width:1.28;stroke-linecap:butt;stroke-linejoin:miter;stroke-miterlimit:4;stroke-dasharray:none;stroke-opacity:1"
       d="m 45,0.65606 v 167.801" /><path
       id="path3574"
       style="fill:none;stroke:#1f77b4;stroke-width:1.35;stroke-linecap:butt;stroke-linejoin:miter;stroke-miterlimit:10;stroke-dasharray:none;stroke-opacity:1"
       d="m 45.461,5.48106 0.004,0.203 0.004,0.199 0.004,0.203 0.004,0.199 0.003,0.203 v 0.2 l 0.004,0.199 0.004,0.203 0.004,0.199 0.004,0.203 0.004,0.199 v 0.204 l 0.004,0.199 0.004,0.203 0.004,0.199 0.004,0.203 0.004,0.2 0.003,0.203 0.004,0.199 0.004,0.203 0.004,0.199 0.004,0.203 0.004,0.2 0.004,0.203 0.008,0.398 0.004,0.203 0.003,0.199 0.004,0.204 0.004,0.199 0.004,0.203 0.004,0.199 0.004,0.203 0.004,0.2 0.004,0.203 0.004,0.199 0.004,0.203 0.004,0.199 0.007,0.203 0.004,0.2 0.004,0.203 0.004,0.199 0.004,0.203 0.004,0.199 0.004,0.203 0.008,0.399 0.004,0.203 0.003,0.199 0.004,0.203 0.004,0.199 0.004,0.204 0.004,0.199 0.008,0.203 0.004,0.199 0.004,0.203 0.004,0.199 0.004,0.204 0.007,0.199 0.004,0.203 0.004,0.199 0.004,0.203 0.004,0.2 0.008,0.203 0.004,0.199 0.004,0.203 0.003,0.199 0.004,0.203 0.004,0.2 0.008,0.199 0.004,0.203 0.004,0.199 0.004,0.203 0.004,0.199 0.004,0.204 0.007,0.199 0.004,0.203 0.004,0.199 0.004,0.203 0.008,0.2 0.004,0.203 0.004,0.199 0.004,0.203 0.007,0.199 0.004,0.203 0.004,0.2 0.004,0.203 0.004,0.199 0.008,0.203 0.004,0.199 0.004,0.203 0.004,0.2 0.007,0.199 0.004,0.203 0.004,0.199 0.004,0.203 0.008,0.199 0.008,0.204 0.004,0.199 0.004,0.203 0.007,0.199 0.004,0.203 0.008,0.199 0.004,0.204 0.008,0.199 0.004,0.203 0.008,0.199 0.004,0.203 0.007,0.2 0.004,0.203 0.004,0.199 0.008,0.199 0.008,0.203 0.004,0.199 0.007,0.204 0.008,0.199 0.008,0.203 0.004,0.199 0.008,0.203 0.008,0.199 0.007,0.204 0.008,0.199 0.008,0.203 0.008,0.199 0.004,0.203 0.008,0.2 0.007,0.203 0.008,0.199 0.008,0.203 0.008,0.199 0.008,0.203 0.015,0.399 0.008,0.203 0.008,0.199 0.012,0.203 0.007,0.199 0.008,0.204 0.008,0.199 0.008,0.203 0.008,0.199 0.008,0.203 0.007,0.199 0.012,0.204 0.008,0.199 0.008,0.203 0.011,0.199 0.008,0.203 0.008,0.199 0.008,0.204 0.012,0.199 0.007,0.203 0.008,0.199 0.012,0.203 0.008,0.2 0.011,0.203 0.008,0.199 0.012,0.199 0.008,0.203 0.011,0.199 0.008,0.204 0.012,0.199 0.012,0.203 0.008,0.199 0.011,0.203 0.008,0.199 0.012,0.204 0.012,0.199 0.011,0.203 0.008,0.199 0.012,0.203 0.011,0.2 0.012,0.203 0.008,0.199 0.012,0.203 0.023,0.398 0.012,0.204 0.012,0.199 0.011,0.203 0.012,0.199 0.012,0.203 0.011,0.199 0.012,0.204 0.012,0.199 0.012,0.203 0.011,0.199 0.016,0.203 0.012,0.199 0.011,0.204 0.012,0.199 0.012,0.203 0.015,0.199 0.012,0.203 0.012,0.199 0.016,0.2 0.011,0.203 0.016,0.199 0.012,0.203 0.015,0.199 0.012,0.204 0.016,0.199 0.011,0.203 0.016,0.199 0.012,0.203 0.015,0.199 0.016,0.204 0.012,0.199 0.015,0.203 0.016,0.199 0.015,0.203 0.016,0.199 0.016,0.204 0.011,0.199 0.016,0.203 0.016,0.199 0.015,0.203 0.016,0.2 0.016,0.203 0.015,0.199 0.02,0.203 0.031,0.398 0.016,0.204 0.015,0.199 0.02,0.203 0.015,0.199 0.016,0.203 0.02,0.199 0.015,0.204 0.02,0.199 0.015,0.203 0.02,0.199 0.015,0.203 0.02,0.199 0.02,0.204 0.015,0.199 0.02,0.203 0.019,0.199 0.02,0.203 0.015,0.199 0.02,0.2 0.019,0.203 0.02,0.199 0.019,0.203 0.02,0.199 0.02,0.204 0.019,0.199 0.024,0.203 0.019,0.199 0.02,0.203 0.019,0.199 0.024,0.204 0.019,0.199 0.02,0.203 0.023,0.199 0.02,0.203 0.023,0.199 0.023,0.204 0.02,0.199 0.023,0.199 0.024,0.203 0.019,0.199 0.024,0.204 0.023,0.199 0.024,0.203 0.023,0.199 0.024,0.203 0.023,0.199 0.023,0.204 0.024,0.199 0.023,0.203 0.028,0.199 0.023,0.203 0.024,0.199 0.027,0.204 0.023,0.199 0.028,0.203 0.023,0.199 0.027,0.203 0.028,0.199 0.023,0.204 0.028,0.199 0.027,0.203 0.055,0.398 0.027,0.203 0.027,0.2 0.028,0.203 0.027,0.199 0.027,0.203 0.028,0.199 0.031,0.204 0.027,0.199 0.032,0.203 0.027,0.199 0.031,0.203 0.027,0.199 0.032,0.204 0.031,0.199 0.031,0.203 0.031,0.199 0.028,0.203 0.031,0.199 0.035,0.204 0.063,0.398 0.031,0.203 0.035,0.199 0.031,0.204 0.032,0.199 0.035,0.203 0.035,0.199 0.031,0.203 0.035,0.199 0.036,0.204 0.035,0.199 0.035,0.203 0.035,0.199 0.035,0.203 0.035,0.199 0.035,0.204 0.04,0.199 0.035,0.203 0.035,0.199 0.039,0.203 0.039,0.199 0.035,0.2 0.039,0.203 0.039,0.199 0.039,0.203 0.039,0.199 0.039,0.203 0.039,0.2 0.043,0.203 0.04,0.199 0.039,0.203 0.043,0.199 0.042,0.204 0.04,0.199 0.043,0.203 0.043,0.199 0.042,0.203 0.043,0.199 0.043,0.204 0.086,0.398 0.047,0.203 0.043,0.199 0.047,0.203 0.047,0.2 0.043,0.203 0.047,0.199 0.047,0.203 0.047,0.199 0.046,0.204 0.051,0.199 0.047,0.203 0.051,0.199 0.047,0.203 0.05,0.199 0.047,0.204 0.051,0.199 0.051,0.203 0.051,0.199 0.054,0.203 0.051,0.199 0.051,0.204 0.055,0.199 0.05,0.203 0.055,0.199 0.055,0.203 0.109,0.399 0.055,0.203 0.055,0.199 0.058,0.203 0.055,0.199 0.058,0.203 0.055,0.2 0.059,0.203 0.058,0.199 0.059,0.203 0.062,0.199 0.059,0.204 0.059,0.199 0.062,0.203 0.063,0.199 0.058,0.203 0.063,0.199 0.062,0.204 0.067,0.199 0.062,0.199 0.067,0.203 0.062,0.199 0.066,0.203 0.067,0.2 0.066,0.203 0.067,0.199 0.066,0.203 0.07,0.199 0.067,0.204 0.07,0.199 0.07,0.203 0.071,0.199 0.07,0.203 0.07,0.199 0.075,0.204 0.07,0.199 0.074,0.203 0.149,0.398 0.074,0.203 0.074,0.2 0.078,0.203 0.074,0.199 0.078,0.203 0.079,0.199 0.078,0.203 0.082,0.2 0.078,0.203 0.082,0.199 0.082,0.203 0.082,0.199 0.082,0.203 0.082,0.2 0.082,0.203 0.086,0.199 0.086,0.203 0.086,0.199 0.086,0.204 0.086,0.199 0.09,0.203 0.085,0.199 0.09,0.203 0.09,0.199 0.094,0.2 0.09,0.203 0.094,0.199 0.093,0.203 0.094,0.199 0.094,0.203 0.093,0.2 0.098,0.203 0.098,0.199 0.097,0.203 0.098,0.199 0.098,0.204 0.101,0.199 0.102,0.203 0.101,0.199 0.102,0.203 0.102,0.199 0.105,0.204 0.106,0.199 0.105,0.203 0.105,0.199 0.11,0.199 0.105,0.203 0.11,0.2 0.109,0.203 0.113,0.199 0.11,0.203 0.113,0.199 0.113,0.203 0.117,0.2 0.114,0.203 0.117,0.199 0.117,0.203 0.117,0.199 0.121,0.203 0.122,0.2 0.121,0.203 0.121,0.199 0.125,0.203 0.121,0.199 0.125,0.2 0.129,0.203 0.125,0.199 0.129,0.203 0.128,0.199 0.129,0.203 0.133,0.2 0.133,0.203 0.133,0.199 0.133,0.203 0.136,0.199 0.137,0.203 0.137,0.2 0.14,0.203 0.141,0.199 0.141,0.203 0.14,0.199 0.145,0.204 0.144,0.199 0.145,0.203 0.148,0.199 0.149,0.203 0.297,0.399 0.152,0.203 0.152,0.199 0.157,0.203 0.156,0.199 0.156,0.203 0.156,0.2 0.16,0.203 0.161,0.199 0.16,0.203 0.164,0.199 0.164,0.203 0.164,0.2 0.168,0.203 0.168,0.199 0.172,0.203 0.168,0.199 0.176,0.203 0.171,0.2 0.176,0.203 0.176,0.199 0.18,0.203 0.359,0.399 0.184,0.203 0.183,0.199 0.184,0.203 0.187,0.199 0.188,0.203 0.187,0.2 0.192,0.203 0.195,0.199 0.195,0.203 0.196,0.199 0.195,0.203 0.602,0.602 0.207,0.203 0.203,0.199 0.207,0.204 0.422,0.398 0.211,0.203 0.214,0.199 0.215,0.203 0.219,0.2 0.219,0.203 0.218,0.199 0.223,0.203 0.227,0.199 0.226,0.203 0.227,0.2 0.23,0.203 0.231,0.199 0.234,0.203 0.235,0.199 0.238,0.203 0.242,0.2 0.238,0.203 0.246,0.199 0.243,0.203 0.25,0.199 0.246,0.2 0.254,0.203 0.25,0.199 0.257,0.203 0.258,0.199 0.258,0.203 0.262,0.2 0.261,0.203 0.266,0.199 0.27,0.203 0.269,0.199 0.274,0.203 0.273,0.2 0.277,0.203 0.278,0.199 0.281,0.203 0.281,0.199 0.285,0.203 0.289,0.2 0.289,0.203 0.293,0.199 0.297,0.203 0.297,0.199 0.297,0.204 0.609,0.398 0.305,0.203 0.309,0.199 0.312,0.203 0.317,0.2 0.316,0.203 0.316,0.199 0.325,0.203 0.324,0.199 0.328,0.203 0.328,0.2 0.332,0.203 0.336,0.199 0.336,0.203 0.34,0.199 0.344,0.203 0.347,0.2 0.348,0.203 0.352,0.199 0.355,0.203 0.355,0.199 0.36,0.2 0.363,0.203 0.367,0.199 0.367,0.203 0.375,0.199 0.375,0.203 0.375,0.2 0.383,0.203 0.383,0.199 0.387,0.203 0.39,0.199 0.395,0.203 0.394,0.2 0.399,0.203 0.402,0.199 0.407,0.203 0.41,0.199 0.414,0.203 0.414,0.2 0.422,0.199 0.422,0.203 0.425,0.199 0.43,0.203 0.434,0.2 0.433,0.203 0.442,0.199 0.441,0.203 0.449,0.199 0.449,0.203 0.454,0.2 0.461,0.203 0.46,0.199 0.465,0.203 0.469,0.199 0.473,0.203 0.476,0.2 0.481,0.203 0.484,0.199 0.488,0.203 0.493,0.199 0.496,0.203 0.5,0.2 0.504,0.199 0.507,0.203 0.512,0.199 0.516,0.203 0.519,0.2 0.528,0.203 0.527,0.199 0.535,0.203 0.535,0.199 0.543,0.203 0.547,0.2 0.551,0.203 0.555,0.199 0.558,0.203 0.563,0.199 0.57,0.203 0.57,0.2 0.578,0.203 0.582,0.199 0.586,0.203 0.594,0.199 0.594,0.203 0.601,0.2 0.61,0.199 0.609,0.203 0.613,0.199 0.622,0.203 0.628,0.2 0.629,0.203 0.637,0.199 0.641,0.203 0.644,0.199 0.653,0.203 0.656,0.2 0.66,0.203 0.668,0.199 0.672,0.203 0.68,0.199 0.683,0.203 0.688,0.2 0.695,0.203 0.699,0.199 0.707,0.199 0.711,0.203 0.715,0.2 0.723,0.203 0.73,0.199 0.735,0.203 0.738,0.199 0.746,0.203 0.754,0.2 0.758,0.203 0.765,0.199 0.77,0.203 0.777,0.199 0.781,0.203 0.789,0.2 0.797,0.203 0.801,0.199 0.809,0.203 0.816,0.199 0.82,0.203 0.829,0.2 0.835,0.199 0.84,0.203 0.848,0.199 0.855,0.203 0.864,0.2 0.867,0.203 0.879,0.199 0.883,0.203 0.886,0.199 0.899,0.203 0.906,0.2 0.91,0.203 0.918,0.199 0.926,0.203 0.934,0.199 0.941,0.203 0.949,0.2 0.957,0.203 0.965,0.199 0.973,0.203 0.98,0.199 0.985,0.203 0.996,0.2 1.004,0.203 1.011,0.199 1.02,0.199 1.027,0.203 1.039,0.2 1.043,0.203 1.055,0.199 1.058,0.203 1.071,0.199 1.078,0.203 1.09,0.2 1.093,0.203 1.106,0.199 1.113,0.203 1.125,0.199 1.129,0.203 1.141,0.2 1.152,0.203" /><path
       d="M 2.078,172.824 0,172.664 v -0.449 c 1.008,0 1.129,-0.098 1.129,-0.809 v -7.511 C 1.129,163.25 0.969,163.25 0,163.25 v -0.449 c 0.477,0.012 1.242,0.043 1.602,0.043 0.363,0 1.07,-0.031 1.605,-0.043 v 0.449 c -0.969,0 -1.129,0 -1.129,0.645 z"
       style="fill:#000000;fill-opacity:1;fill-rule:nonzero;stroke:none"
       id="path3576" /><path
       d="m 5.113,167.766 v -3.871 c 0,-0.645 -0.16,-0.645 -1.129,-0.645 v -0.449 c 0.508,0.012 1.243,0.043 1.633,0.043 0.375,0 1.129,-0.031 1.617,-0.043 v 0.449 c -0.964,0 -1.125,0 -1.125,0.645 v 2.66 c 0,1.504 1.024,2.308 1.95,2.308 0.91,0 1.066,-0.781 1.066,-1.601 v -3.367 c 0,-0.645 -0.156,-0.645 -1.129,-0.645 v -0.449 c 0.508,0.012 1.25,0.043 1.637,0.043 0.375,0 1.125,-0.031 1.617,-0.043 v 0.449 c -0.75,0 -1.113,0 -1.129,0.434 v 2.758 c 0,1.238 0,1.687 -0.445,2.203 -0.199,0.25 -0.68,0.535 -1.512,0.535 -1.055,0 -1.738,-0.621 -2.141,-1.512 v 1.512 l -2.039,-0.156 v -0.45 c 1.012,0 1.129,-0.097 1.129,-0.808 z"
       style="fill:#000000;fill-opacity:1;fill-rule:nonzero;stroke:none"
       id="path3578" /><path
       d="m 16.336,159.336 v 0.031 l -0.008,0.008 v 0.008 l -0.004,0.004 -0.008,0.015 -0.004,0.004 -0.007,0.012 -0.004,0.008 -0.016,0.016 -0.008,0.011 -0.004,0.008 -0.015,0.016 -0.004,0.008 -0.027,0.027 -0.004,0.008 -0.121,0.121 -0.008,0.011 c -1.805,1.821 -2.266,4.547 -2.266,6.754 0,2.516 0.547,5.032 2.324,6.832 0.184,0.176 0.184,0.207 0.184,0.25 0,0.102 -0.055,0.141 -0.141,0.141 -0.144,0 -1.445,-0.98 -2.297,-2.812 -0.734,-1.59 -0.91,-3.196 -0.91,-4.411 0,-1.125 0.16,-2.867 0.953,-4.504 0.868,-1.777 2.11,-2.71 2.254,-2.71 0.086,0 0.141,0.039 0.141,0.144 z"
       style="fill:#000000;fill-opacity:1;fill-rule:nonzero;stroke:none"
       id="path3580" /><path
       d="m 21.98,167.16 0.008,0.039 0.012,0.043 0.012,0.047 0.015,0.051 0.032,0.117 0.019,0.063 0.047,0.132 0.023,0.071 0.055,0.14 0.035,0.075 0.032,0.07 0.039,0.074 0.129,0.211 0.046,0.067 0.055,0.062 0.055,0.066 0.054,0.055 0.125,0.109 0.071,0.047 0.066,0.039 0.078,0.039 0.035,0.012 0.043,0.016 0.036,0.015 0.046,0.012 0.04,0.008 0.085,0.016 0.094,0.007 h 0.047 c 0.07,0 0.418,0 0.719,-0.183 -0.403,-0.074 -0.692,-0.438 -0.692,-0.781 0,-0.231 0.157,-0.508 0.547,-0.508 0.317,0 0.778,0.258 0.778,0.836 0,0.754 -0.852,0.953 -1.336,0.953 -0.84,0 -1.348,-0.766 -1.52,-1.098 -0.363,0.953 -1.144,1.098 -1.558,1.098 -1.504,0 -2.329,-1.863 -2.329,-2.223 0,-0.144 0.145,-0.144 0.18,-0.144 0.113,0 0.156,0.031 0.184,0.156 0.488,1.531 1.445,1.894 1.933,1.894 0.278,0 0.782,-0.128 0.782,-0.964 0,-0.446 -0.247,-1.418 -0.782,-3.438 -0.23,-0.898 -0.734,-1.504 -1.375,-1.504 -0.082,0 -0.414,0 -0.718,0.192 0.363,0.066 0.679,0.371 0.679,0.777 0,0.391 -0.316,0.504 -0.535,0.504 -0.433,0 -0.797,-0.375 -0.797,-0.84 0,-0.66 0.727,-0.949 1.36,-0.949 0.953,0 1.472,1.011 1.515,1.094 0.172,-0.532 0.696,-1.094 1.563,-1.094 1.488,0 2.312,1.859 2.312,2.222 0,0.145 -0.133,0.145 -0.176,0.145 -0.128,0 -0.16,-0.059 -0.187,-0.156 -0.477,-1.547 -1.457,-1.895 -1.918,-1.895 -0.57,0 -0.797,0.461 -0.797,0.957 0,0.317 0.082,0.633 0.246,1.27 z"
       style="fill:#000000;fill-opacity:1;fill-rule:nonzero;stroke:none"
       id="path3582" /><path
       d="m 29.574,166.406 v 0.11 l -0.008,0.226 v 0.118 l -0.011,0.246 -0.02,0.254 -0.023,0.265 -0.032,0.277 -0.039,0.282 -0.046,0.293 -0.055,0.293 -0.067,0.3 -0.078,0.305 -0.09,0.305 -0.101,0.312 -0.113,0.309 -0.063,0.152 -0.062,0.157 -0.071,0.152 -0.074,0.152 c -0.867,1.778 -2.105,2.715 -2.25,2.715 -0.086,0 -0.144,-0.055 -0.144,-0.141 0,-0.043 0,-0.074 0.269,-0.336 1.418,-1.425 2.242,-3.722 2.242,-6.746 0,-2.464 -0.531,-5.007 -2.328,-6.828 -0.183,-0.172 -0.183,-0.203 -0.183,-0.242 0,-0.09 0.058,-0.144 0.144,-0.144 0.145,0 1.441,0.98 2.297,2.812 0.734,1.586 0.906,3.191 0.906,4.402 z"
       style="fill:#000000;fill-opacity:1;fill-rule:nonzero;stroke:none"
       id="path3584" /><path
       d="m 210.79026,46.145008 0.008,0.039 0.011,0.047 0.016,0.046 0.012,0.059 0.015,0.059 0.02,0.062 0.019,0.07 0.02,0.067 0.027,0.07 0.028,0.074 0.031,0.079 0.062,0.148 0.078,0.156 0.043,0.078 0.094,0.149 0.051,0.07 0.059,0.066 0.054,0.071 0.125,0.117 0.071,0.059 0.07,0.046 0.074,0.043 0.039,0.024 0.039,0.019 0.043,0.016 0.043,0.012 0.086,0.031 0.043,0.008 0.094,0.015 0.051,0.004 0.046,0.004 h 0.051 c 0.078,0 0.446,0 0.766,-0.195 -0.43,-0.078 -0.738,-0.465 -0.738,-0.832 0,-0.242 0.171,-0.539 0.586,-0.539 0.335,0 0.828,0.273 0.828,0.89 0,0.805 -0.907,1.012 -1.43,1.012 -0.891,0 -1.43,-0.812 -1.613,-1.164 -0.387,1.012 -1.215,1.164 -1.657,1.164 -1.601,0 -2.48,-1.98 -2.48,-2.367 0,-0.152 0.152,-0.152 0.187,-0.152 0.122,0 0.168,0.035 0.2,0.168 0.519,1.632 1.539,2.015 2.058,2.015 0.293,0 0.828,-0.133 0.828,-1.027 0,-0.473 -0.257,-1.508 -0.828,-3.66 -0.246,-0.953 -0.781,-1.598 -1.461,-1.598 -0.093,0 -0.445,0 -0.765,0.199 0.386,0.075 0.722,0.399 0.722,0.832 0,0.414 -0.336,0.535 -0.57,0.535 -0.461,0 -0.848,-0.398 -0.848,-0.894 0,-0.703 0.774,-1.012 1.446,-1.012 1.019,0 1.566,1.078 1.617,1.168 0.18,-0.57 0.738,-1.168 1.656,-1.168 1.586,0 2.465,1.981 2.465,2.367 0,0.157 -0.137,0.157 -0.188,0.157 -0.136,0 -0.167,-0.063 -0.199,-0.168 -0.504,-1.645 -1.551,-2.016 -2.043,-2.016 -0.601,0 -0.851,0.492 -0.851,1.016 0,0.34 0.093,0.675 0.265,1.351 z"
       style="fill:#000000;fill-opacity:1;fill-rule:nonzero;stroke:none"
       id="path3586" /><path
       d="m 48.088518,165.1717 -3.082,8.39 -3.086,-8.39 c 1.821,1.339 4.313,1.332 6.168,0 z"
       style="fill:#000000;fill-opacity:1;fill-rule:evenodd;stroke:none;stroke-width:0.999998"
       id="path2788" /><path
       d="m 206.25465,53.330547 8.391,3.085995 -8.391,3.082005 c 1.34,-1.820002 1.332,-4.312005 0,-6.168 z"
       style="fill:#000000;fill-opacity:1;fill-rule:evenodd;stroke:none;stroke-width:0.999998"
       id="path2804" /></g></svg>
