<?xml version="1.0" encoding="UTF-8" standalone="no"?>
<svg
   inkscape:version="1.1 (c4e8f9ed74, 2021-05-24)"
   sodipodi:docname="underdamped.svg"
   viewBox="0 0 349.14648 156.86743"
   height="156.86743"
   width="349.14648"
   xml:space="preserve"
   id="svg1045"
   version="1.1"
   xmlns:inkscape="http://www.inkscape.org/namespaces/inkscape"
   xmlns:sodipodi="http://sodipodi.sourceforge.net/DTD/sodipodi-0.dtd"
   xmlns="http://www.w3.org/2000/svg"
   xmlns:svg="http://www.w3.org/2000/svg"
   xmlns:rdf="http://www.w3.org/1999/02/22-rdf-syntax-ns#"
   xmlns:cc="http://creativecommons.org/ns#"
   xmlns:dc="http://purl.org/dc/elements/1.1/"><metadata
     id="metadata1051"><rdf:RDF><cc:Work
         rdf:about=""><dc:format>image/svg+xml</dc:format><dc:type
           rdf:resource="http://purl.org/dc/dcmitype/StillImage" /></cc:Work></rdf:RDF></metadata><defs
     id="defs1049"><marker
       style="overflow:visible"
       id="Arrow2Mend"
       refX="0"
       refY="0"
       orient="auto"
       inkscape:stockid="Arrow2Mend"
       inkscape:isstock="true"><path
         transform="scale(-0.6)"
         d="M 8.7185878,4.0337352 -2.2072895,0.01601326 8.7185884,-4.0017078 c -1.7454984,2.3720609 -1.7354408,5.6174519 -6e-7,8.035443 z"
         style="fill:context-stroke;fill-rule:evenodd;stroke-width:0.625;stroke-linejoin:round"
         id="path2227" /></marker><clipPath
       id="clipPath1063"
       clipPathUnits="userSpaceOnUse"><path
         id="path1061"
         d="M 35.91,224.86 H 269.012 V 34.782 H 35.91 Z" /></clipPath><clipPath
       id="clipPath1073"
       clipPathUnits="userSpaceOnUse"><path
         id="path1071"
         d="M 35,68 H 270 V 203 H 35 Z" /></clipPath><clipPath
       id="clipPath1089"
       clipPathUnits="userSpaceOnUse"><path
         id="path1087"
         d="m 35,135 h 235 v 73 H 35 Z" /></clipPath><clipPath
       id="clipPath1105"
       clipPathUnits="userSpaceOnUse"><path
         id="path1103"
         d="m 35,53 h 235 v 72 H 35 Z" /></clipPath></defs><sodipodi:namedview
     fit-margin-bottom="0"
     fit-margin-right="0"
     fit-margin-left="0"
     fit-margin-top="0"
     inkscape:current-layer="g1053"
     inkscape:window-maximized="1"
     inkscape:window-y="0"
     inkscape:window-x="0"
     inkscape:cy="109.9551"
     inkscape:cx="58.336309"
     inkscape:zoom="1.4142136"
     showgrid="false"
     id="namedview1047"
     inkscape:window-height="1026"
     inkscape:window-width="1920"
     inkscape:pageshadow="2"
     inkscape:pageopacity="0"
     guidetolerance="10"
     gridtolerance="10"
     objecttolerance="10"
     borderopacity="1"
     bordercolor="#666666"
     pagecolor="#ffffff"
     inkscape:pagecheckerboard="0" /><g
     transform="matrix(1.3333333,0,0,-1.3333333,-28.877825,199.45117)"
     inkscape:label="underdamped"
     inkscape:groupmode="layer"
     id="g1053"><g
       id="g1055" /><path
       d="m 35.909799,97.614174 0.934227,7.172826 0.933276,6.24991 0.699721,3.94183 0.698771,3.21672 0.469012,1.70832 0.464265,1.34286 0.465214,0.97104 0.234506,0.34325 0.234506,0.24752 0.234506,0.15127 0.229759,0.0576 0.234506,-0.0391 0.234506,-0.13223 0.234506,-0.22742 0.230708,-0.31998 0.468063,-0.91339 0.465214,-1.26458 0.469012,-1.60307 0.698771,-2.99141 0.69972,-3.6282 0.933277,-5.66866 1.167783,-8.07406 3.964766,-28.735737 0.934226,-5.524273 0.698771,-3.532995 0.703518,-2.929531 0.464265,-1.58879 0.469012,-1.280975 0.465214,-0.966814 0.464265,-0.642604 0.234506,-0.198334 0.234506,-0.117414 0.234506,-0.03544 0.230708,0.04548 0.233557,0.125876 0.234506,0.206797 0.234506,0.285073 0.465214,0.801799 0.464265,1.105384 0.469012,1.38834 0.69972,2.58628 0.698771,3.125749 0.933277,4.87162 1.168733,6.921076 3.964765,24.525231 0.933277,4.693912 0.703518,2.99353 0.698771,2.47521 0.465214,1.33862 0.468063,1.07471 0.465214,0.80339 0.469012,0.52889 0.229759,0.1592 0.234506,0.0888 0.234506,0.0206 0.234506,-0.0497 0.230708,-0.11741 0.234506,-0.18617 0.464265,-0.57438 0.469012,-0.83671 0.469012,-1.08475 0.464265,-1.32435 0.69972,-2.39217 0.698771,-2.83063 0.934227,-4.332152 1.167783,-6.049462 3.265045,-17.469818 0.934226,-4.282435 0.698771,-2.807885 0.69972,-2.392706 0.702569,-1.933627 0.465214,-1.014414 0.469012,-0.786991 0.464265,-0.549518 0.234506,-0.188286 0.234506,-0.125876 0.230708,-0.06823 0.234506,-0.0079 0.233557,0.0513 0.234506,0.109481 0.230708,0.167658 0.469012,0.508265 0.464265,0.731457 0.469012,0.944072 0.465214,1.144521 0.698771,2.065851 0.703518,2.435545 0.92948,3.719166 1.167783,5.183137 3.265994,14.912627 0.933277,3.640361 0.703518,2.381599 0.698771,2.02724 0.69972,1.63005 0.464265,0.8531 0.469012,0.65477 0.465214,0.45643 0.233557,0.15126 0.234506,0.10102 0.23451,0.0497 h 0.2307 l 0.23451,-0.0518 0.23451,-0.10102 0.46426,-0.35119 0.46901,-0.54581 0.46522,-0.72934 0.46806,-0.90652 0.69972,-1.6676 0.69877,-1.997624 0.93423,-3.088727 1.16778,-4.359125 3.73026,-14.455664 0.93328,-2.987709 0.69972,-1.92305 0.70257,-1.605186 0.46521,-0.878489 0.46901,-0.714532 0.46427,-0.549518 0.46901,-0.376042 0.46521,-0.202566 0.23451,-0.03491 0.22976,0.0058 0.2345,0.05183 0.23451,0.09308 0.46521,0.312046 0.46807,0.477061 0.46521,0.636256 0.46901,0.786991 0.69877,1.440172 0.69972,1.718897 0.93328,2.655036 1.16778,3.735032 3.50051,11.646193 0.93327,2.631765 0.69877,1.71255 0.69972,1.452337 0.69877,1.15933 0.46902,0.60135 0.46521,0.456433 0.46806,0.309931 0.46522,0.162898 0.2345,0.02486 0.23451,-0.01216 0.22976,-0.04972 0.46901,-0.204681 0.46521,-0.349069 0.46902,-0.487638 0.46426,-0.617745 0.70352,-1.156686 0.69877,-1.404736 0.93423,-2.200189 1.16398,-3.136327 3.96857,-11.191346 0.93327,-2.15682 0.69972,-1.382522 0.69877,-1.146637 0.46902,-0.623563 0.46426,-0.504563 0.46901,-0.379744 0.46522,-0.256513 0.46426,-0.127991 0.46901,-0.0021 0.46522,0.12429 0.46806,0.247521 0.46521,0.365993 0.46902,0.481291 0.46426,0.590772 0.69972,1.072063 0.70257,1.275158 0.93423,1.958486 1.16398,2.74336 3.49955,8.482892 0.93423,1.902952 0.69877,1.233375 0.70352,1.037157 0.69877,0.824542 0.46521,0.423113 0.46902,0.318393 0.46426,0.208383 0.46901,0.103663 0.46427,-0.0085 0.46901,-0.113711 0.46521,-0.218961 0.46902,-0.31998 0.46426,-0.419411 0.69972,-0.799684 0.69877,-0.985325 0.70352,-1.148752 0.93328,-1.733178 1.39849,-2.88669 2.56627,-5.367192 0.93328,-1.723129 0.93423,-1.49359 0.69877,-0.936138 0.69972,-0.757901 0.46806,-0.398785 0.46521,-0.30993 0.46902,-0.218961 0.46426,-0.125877 0.46901,-0.03332 0.46522,0.05818 0.46806,0.150734 0.46521,0.237473 0.46522,0.322095 0.46806,0.403015 0.69972,0.747853 0.69877,0.898587 0.93423,1.394687 1.16778,1.976996 3.73406,6.59475 0.93422,1.37406 0.69878,0.886422 0.69877,0.741506 0.69972,0.586541 0.46901,0.297766 0.46426,0.218961 0.46902,0.140156 0.46521,0.06453 0.46806,-0.01904 0.46522,-0.09467 0.46521,-0.171889 0.46806,-0.243291 0.46522,-0.316277 0.70257,-0.599234 0.69972,-0.733572 0.93327,-1.154571 1.16399,-1.657017 2.10201,-3.252154 1.39849,-2.086478 0.93328,-1.247655 0.93422,-1.076294 0.69877,-0.669577 0.70352,-0.538941 0.69877,-0.398784 0.46522,-0.181939 0.46806,-0.115827 0.46521,-0.0476 0.46902,0.01851 0.46426,0.08674 0.46901,0.151263 0.46522,0.21473 0.69877,0.433691 0.70352,0.555866 0.69877,0.667461 0.93422,1.028694 1.16399,1.452336 3.73406,4.803393 0.93327,0.991672 0.69972,0.638372 0.70257,0.531007 0.69972,0.41518 0.69877,0.29142 0.46522,0.12376 0.46901,0.064 0.46426,0.0085 0.46902,-0.04972 0.46521,-0.10525 0.46806,-0.161312 0.69972,-0.33849 0.69877,-0.446385 0.69972,-0.545287 0.93328,-0.853102 1.16778,-1.219095 4.19928,-4.580201 0.93422,-0.810262 0.69877,-0.509852 0.69877,-0.417295 0.70352,-0.314162 0.69972,-0.206796 0.46427,-0.07828 0.46901,-0.02697 0.46426,0.02274 0.46902,0.07034 0.69972,0.194103 0.69877,0.293535 0.69972,0.386091 0.69877,0.469127 0.93328,0.733043 1.16873,1.045619 4.19927,3.909038 0.93328,0.685972 0.69877,0.433691 0.70351,0.351184 0.69878,0.264446 0.69972,0.173477 0.69877,0.07669 0.69972,-0.01693 0.70257,-0.10948 0.69972,-0.20045 0.69877,-0.280842 0.69972,-0.359646 0.93327,-0.580194 1.16779,-0.853102 1.63299,-1.330691 2.10201,-1.700387 1.16399,-0.828244 0.93328,-0.557981 0.69972,-0.342721 0.70256,-0.272908 0.69973,-0.196219 0.69877,-0.117943 0.69972,-0.03491 0.69877,0.04548 0.70352,0.12376 0.69877,0.198335 0.69972,0.266561 0.93327,0.452202 0.93328,0.541585 1.16399,0.76848 1.63679,1.152984"
       style="fill:none;stroke:#1f77b4;stroke-width:1.07182;stroke-linecap:square;stroke-linejoin:round;stroke-miterlimit:4;stroke-dasharray:none;stroke-opacity:1"
       id="path1079" /><path
       d="m 35.909799,125.42805 4.199272,-1.77866 4.199271,-1.70039 4.433777,-1.71466 4.433778,-1.63428 4.433777,-1.55758 4.667334,-1.56182 4.664486,-1.48566 4.668283,-1.41319 4.898043,-1.40897 4.902789,-1.33863 5.132548,-1.32646 5.132549,-1.25823 5.367054,-1.24131 5.36705,-1.17149 5.60156,-1.1551 5.83227,-1.12971 5.83227,-1.06202 6.06678,-1.03504 6.30033,-1.00648 6.53483,-0.974747 6.76555,-0.940369 7.00005,-0.902818 7.23456,-0.865267 7.46527,-0.824542 7.69882,-0.784875 7.93333,-0.742035 8.40234,-0.720879 8.86375,-0.694435 9.10112,-0.646305 9.56727,-0.613514 10.2651,-0.595003 10.73411,-0.55375 11.43382,-0.52466 12.1326,-0.489754 5.83607,-0.21473"
       style="fill:none;stroke:#ff3e0e;stroke-width:1.07182;stroke-linecap:butt;stroke-linejoin:round;stroke-miterlimit:4;stroke-dasharray:3.21545, 3.21545;stroke-dashoffset:0;stroke-opacity:1"
       id="path1095" /><path
       d="m 35.909799,44.664723 4.199272,1.779191 4.199271,1.699857 4.433777,1.715196 4.433778,1.633746 4.433777,1.558115 4.667334,1.561816 4.664486,1.485657 4.668283,1.412669 4.898043,1.408967 4.902789,1.339154 5.132548,1.32646 5.132549,1.257704 5.367054,1.241838 5.36705,1.171494 5.60156,1.1551 5.83227,1.129712 5.83227,1.062014 6.06678,1.035041 6.30033,1.005952 6.53483,0.975276 6.76555,0.940369 7.00005,0.902818 7.23456,0.865267 7.46527,0.824542 7.69882,0.784875 7.93333,0.742035 8.40234,0.720879 8.86375,0.693906 9.10112,0.646834 9.56727,0.613514 10.2651,0.595003 10.73411,0.55375 11.43382,0.52466 12.1326,0.489754 5.83607,0.21473"
       style="fill:none;stroke:#ff3e0e;stroke-width:1.07182;stroke-linecap:butt;stroke-linejoin:round;stroke-miterlimit:4;stroke-dasharray:3.21545, 3.21545;stroke-dashoffset:0;stroke-opacity:1"
       id="path1111" /><path
       id="path1117"
       style="fill:none;stroke:#000000;stroke-width:0.267955;stroke-linecap:butt;stroke-linejoin:round;stroke-miterlimit:4;stroke-dasharray:none;stroke-opacity:1"
       d="m 35.909799,34.781325 v 1.163033" /><path
       id="path1121"
       style="fill:none;stroke:#000000;stroke-width:0.267955;stroke-linecap:butt;stroke-linejoin:round;stroke-miterlimit:4;stroke-dasharray:none;stroke-opacity:1"
       d="m 35.909799,135.31197 v -1.16302" /><path
       id="path1127"
       style="fill:none;stroke:#000000;stroke-width:0.757895;stroke-linecap:butt;stroke-linejoin:round;stroke-miterlimit:4;stroke-dasharray:none;stroke-opacity:1"
       d="M 82.531,34.781066 V 35.94423"
       transform="translate(0,50.270697)" /><path
       id="path1135"
       style="fill:none;stroke:#000000;stroke-width:0.757895;stroke-linecap:butt;stroke-linejoin:round;stroke-miterlimit:4;stroke-dasharray:none;stroke-opacity:1"
       d="M 129.148,34.781066 V 35.94423"
       transform="translate(0,50.270697)" /><g
       style="stroke-width:1.42857"
       transform="matrix(0.7,0,0,0.7,38.375966,61.640663)"
       id="g1599"><path
         id="path1141"
         style="fill:#000000;fill-opacity:1;fill-rule:nonzero;stroke:none;stroke-width:1.42857"
         d="m 125.219,22.293 h 3.523 v -0.847 h -4.734 v 0.847 c 0.383,0.395 0.902,0.93 1.562,1.594 0.664,0.668 1.078,1.101 1.25,1.293 0.321,0.363 0.547,0.672 0.676,0.922 0.129,0.25 0.192,0.5 0.192,0.742 0,0.394 -0.137,0.719 -0.418,0.969 -0.278,0.25 -0.641,0.375 -1.086,0.375 -0.317,0 -0.649,-0.055 -1,-0.164 -0.352,-0.11 -0.727,-0.278 -1.129,-0.5 v 1.019 c 0.406,0.164 0.785,0.285 1.14,0.367 0.352,0.086 0.676,0.125 0.969,0.125 0.774,0 1.391,-0.191 1.848,-0.578 0.461,-0.386 0.691,-0.902 0.691,-1.547 0,-0.308 -0.058,-0.597 -0.176,-0.875 -0.113,-0.273 -0.32,-0.597 -0.625,-0.968 -0.082,-0.098 -0.347,-0.375 -0.793,-0.836 -0.445,-0.465 -1.078,-1.11 -1.89,-1.938" /><path
         id="path1143"
         style="fill:#000000;fill-opacity:1;fill-rule:nonzero;stroke:none;stroke-width:1.42857"
         d="m 133.016,28.238 c -0.516,0 -0.907,-0.257 -1.172,-0.769 -0.258,-0.508 -0.391,-1.277 -0.391,-2.305 0,-1.019 0.133,-1.789 0.391,-2.301 0.265,-0.507 0.656,-0.765 1.172,-0.765 0.523,0 0.918,0.258 1.179,0.765 0.262,0.512 0.391,1.282 0.391,2.301 0,1.028 -0.129,1.797 -0.391,2.305 -0.261,0.512 -0.656,0.769 -1.179,0.769 m 0,0.797 c 0.839,0 1.476,-0.328 1.918,-0.992 0.441,-0.66 0.66,-1.621 0.66,-2.879 0,-1.254 -0.219,-2.211 -0.66,-2.875 -0.442,-0.66 -1.079,-0.992 -1.918,-0.992 -0.836,0 -1.473,0.332 -1.914,0.992 -0.442,0.664 -0.661,1.621 -0.661,2.875 0,1.258 0.219,2.219 0.661,2.879 0.441,0.664 1.078,0.992 1.914,0.992" /></g><path
       id="path1147"
       style="fill:none;stroke:#000000;stroke-width:0.757895;stroke-linecap:butt;stroke-linejoin:round;stroke-miterlimit:4;stroke-dasharray:none;stroke-opacity:1"
       d="M 175.77,34.781066 V 35.94423"
       transform="translate(0,50.270697)" /><path
       id="path1155"
       style="fill:none;stroke:#000000;stroke-width:0.757895;stroke-linecap:butt;stroke-linejoin:round;stroke-miterlimit:4;stroke-dasharray:none;stroke-opacity:1"
       d="M 222.391,34.781066 V 35.94423"
       transform="translate(0,50.270697)" /><rect
       style="fill:#ffffff;fill-opacity:1;stroke:none;stroke-width:3.02675;stroke-linecap:round;stroke-linejoin:round;paint-order:stroke fill markers;stop-color:#000000"
       id="rect3523"
       width="14.446037"
       height="7.957798"
       x="276.57864"
       y="75.599045"
       transform="matrix(0.7214475,0,0,-0.53191752,18.214533,121.12848)" /><g
       style="stroke-width:1.42857"
       transform="matrix(0.7,0,0,0.7,67.358808,61.640663)"
       id="g1577"><path
         id="path1157"
         style="fill:#000000;fill-opacity:1;fill-rule:nonzero;stroke:none;stroke-width:1.42857"
         d="m 218.895,28.024 -2.547,-3.981 h 2.547 z m -0.266,0.879 h 1.269 v -4.86 h 1.067 v -0.84 h -1.067 v -1.757 h -1.003 v 1.757 h -3.368 v 0.973 z" /><path
         id="path1159"
         style="fill:#000000;fill-opacity:1;fill-rule:nonzero;stroke:none;stroke-width:1.42857"
         d="m 224.789,28.238 c -0.519,0 -0.91,-0.257 -1.172,-0.769 -0.262,-0.508 -0.39,-1.277 -0.39,-2.305 0,-1.019 0.128,-1.789 0.39,-2.301 0.262,-0.507 0.653,-0.765 1.172,-0.765 0.523,0 0.914,0.258 1.176,0.765 0.262,0.512 0.394,1.282 0.394,2.301 0,1.028 -0.132,1.797 -0.394,2.305 -0.262,0.512 -0.653,0.769 -1.176,0.769 m 0,0.797 c 0.836,0 1.477,-0.328 1.918,-0.992 0.441,-0.66 0.66,-1.621 0.66,-2.879 0,-1.254 -0.219,-2.211 -0.66,-2.875 -0.441,-0.66 -1.082,-0.992 -1.918,-0.992 -0.836,0 -1.473,0.332 -1.914,0.992 -0.441,0.664 -0.664,1.621 -0.664,2.875 0,1.258 0.223,2.219 0.664,2.879 0.441,0.664 1.078,0.992 1.914,0.992" /></g><path
       id="path1171"
       style="fill:none;stroke:#000000;stroke-width:0.267955;stroke-linecap:butt;stroke-linejoin:round;stroke-miterlimit:4;stroke-dasharray:none;stroke-opacity:1"
       d="m 35.909799,34.781325 h 2.090616" /><g
       style="stroke-width:1.42857"
       transform="matrix(0.7,0,0,0.7,9.2767695,9.7919026)"
       id="g1573"><path
         id="path1177"
         style="fill:#000000;fill-opacity:1;fill-rule:nonzero;stroke:none;stroke-width:1.42857"
         d="M 17.688,35.266 H 24.09 V 34.418 H 17.688 Z" /><path
         id="path1179"
         style="fill:#000000;fill-opacity:1;fill-rule:nonzero;stroke:none;stroke-width:1.42857"
         d="m 29.043,38.215 -2.551,-3.98 h 2.551 z m -0.266,0.879 h 1.27 v -4.859 h 1.062 v -0.84 h -1.062 v -1.758 h -1.004 v 1.758 h -3.367 v 0.972 z" /></g><path
       id="path1183"
       style="fill:none;stroke:#000000;stroke-width:0.757889;stroke-linecap:butt;stroke-linejoin:round;stroke-miterlimit:4;stroke-dasharray:none;stroke-opacity:1"
       d="m 35.910117,47.346732 h 2.089902" /><path
       id="path1191"
       style="fill:none;stroke:#000000;stroke-width:0.757889;stroke-linecap:butt;stroke-linejoin:round;stroke-miterlimit:4;stroke-dasharray:none;stroke-opacity:1"
       d="m 35.910117,59.913723 h 2.089902" /><g
       style="stroke-width:1.42857"
       transform="matrix(0.7,0,0,0.7,9.3207195,0.81220118)"
       id="g1569"><path
         id="path1197"
         style="fill:#000000;fill-opacity:1;fill-rule:nonzero;stroke:none;stroke-width:1.42857"
         d="m 18.059,82.766 h 6.402 v -0.852 h -6.402 z" /><path
         id="path1199"
         style="fill:#000000;fill-opacity:1;fill-rule:nonzero;stroke:none;stroke-width:1.42857"
         d="m 27.508,79.981 h 3.523 v -0.848 h -4.734 v 0.848 c 0.379,0.398 0.902,0.929 1.562,1.593 0.664,0.672 1.079,1.102 1.246,1.297 0.325,0.36 0.551,0.668 0.676,0.918 0.129,0.254 0.196,0.5 0.196,0.742 0,0.399 -0.141,0.719 -0.418,0.969 -0.278,0.25 -0.641,0.375 -1.086,0.375 -0.317,0 -0.653,-0.054 -1.004,-0.164 -0.348,-0.109 -0.723,-0.277 -1.125,-0.5 v 1.02 c 0.406,0.164 0.785,0.285 1.14,0.371 0.352,0.082 0.676,0.125 0.969,0.125 0.774,0 1.387,-0.196 1.848,-0.582 0.461,-0.387 0.687,-0.903 0.687,-1.547 0,-0.309 -0.054,-0.598 -0.172,-0.875 -0.113,-0.274 -0.32,-0.594 -0.625,-0.969 -0.086,-0.098 -0.347,-0.375 -0.796,-0.836 -0.446,-0.461 -1.075,-1.109 -1.887,-1.937" /></g><path
       id="path1203"
       style="fill:none;stroke:#000000;stroke-width:0.757889;stroke-linecap:butt;stroke-linejoin:round;stroke-miterlimit:4;stroke-dasharray:none;stroke-opacity:1"
       d="m 35.910117,72.47913 h 2.089902" /><path
       id="path1211"
       style="fill:none;stroke:#000000;stroke-width:0.757889;stroke-linecap:butt;stroke-linejoin:round;stroke-miterlimit:4;stroke-dasharray:none;stroke-opacity:1"
       d="m 35.910117,85.046651 h 2.089902" /><path
       d="m 30.359219,86.161388 c -0.3633,0 -0.637,-0.1806 -0.8204,-0.539 -0.1827,-0.3549 -0.2758,-0.8939 -0.2758,-1.6128 0,-0.714 0.0931,-1.2523 0.2758,-1.6107 0.1834,-0.3584 0.4571,-0.5362 0.8204,-0.5362 0.3668,0 0.6398,0.1778 0.8232,0.5362 0.1834,0.3584 0.2737,0.8967 0.2737,1.6107 0,0.7189 -0.0903,1.2579 -0.2737,1.6128 -0.1834,0.3584 -0.4564,0.539 -0.8232,0.539 m 0,0.5579 c 0.5852,0 1.0311,-0.2296 1.3398,-0.6944 0.3094,-0.4627 0.4648,-1.1354 0.4648,-2.0153 0,-0.8778 -0.1554,-1.5505 -0.4648,-2.0125 -0.3087,-0.4627 -0.7546,-0.6951 -1.3398,-0.6951 -0.5852,0 -1.0332,0.2324 -1.3426,0.6951 -0.3087,0.462 -0.462,1.1347 -0.462,2.0125 0,0.8799 0.1533,1.5526 0.462,2.0153 0.3094,0.4648 0.7574,0.6944 1.3426,0.6944"
       style="fill:#000000;fill-opacity:1;fill-rule:nonzero;stroke:none;stroke-width:0.999999"
       id="path1217" /><path
       id="path1221"
       style="fill:none;stroke:#000000;stroke-width:0.757889;stroke-linecap:butt;stroke-linejoin:round;stroke-miterlimit:4;stroke-dasharray:none;stroke-opacity:1"
       d="m 35.910117,97.614173 h 2.089902" /><path
       id="path1229"
       style="fill:none;stroke:#000000;stroke-width:0.757889;stroke-linecap:butt;stroke-linejoin:round;stroke-miterlimit:4;stroke-dasharray:none;stroke-opacity:1"
       d="m 35.910117,110.17905 h 2.089902" /><path
       d="m 29.736819,108.35904 h 2.4633 v -0.5936 h -3.3138 v 0.5936 c 0.2681,0.2786 0.6314,0.6503 1.0962,1.1179 0.462,0.4676 0.7518,0.7686 0.8722,0.9051 0.2247,0.2548 0.3829,0.4676 0.4732,0.6426 0.0903,0.1778 0.1337,0.35 0.1337,0.5201 0,0.2786 -0.0952,0.5026 -0.2898,0.6776 -0.1967,0.175 -0.448,0.2625 -0.7623,0.2625 -0.2219,0 -0.4543,-0.0378 -0.7,-0.1148 -0.2464,-0.0763 -0.5089,-0.1911 -0.7875,-0.35 v 0.714 c 0.2842,0.1148 0.5495,0.2023 0.7952,0.2597 0.2492,0.0574 0.4732,0.0875 0.6783,0.0875 0.5411,0 0.9737,-0.1365 1.2936,-0.4074 0.3227,-0.2709 0.4837,-0.6321 0.4837,-1.0829 0,-0.2135 -0.0413,-0.4186 -0.1204,-0.6097 -0.0819,-0.1918 -0.2268,-0.4186 -0.4403,-0.6811 -0.0574,-0.0679 -0.2429,-0.2625 -0.5551,-0.5852 -0.3115,-0.3227 -0.7518,-0.7735 -1.3202,-1.3559"
       style="fill:#000000;fill-opacity:1;fill-rule:nonzero;stroke:none;stroke-width:0.999999"
       id="path1235" /><path
       id="path1239"
       style="fill:none;stroke:#000000;stroke-width:0.757889;stroke-linecap:butt;stroke-linejoin:round;stroke-miterlimit:4;stroke-dasharray:none;stroke-opacity:1"
       d="m 35.910117,122.74657 h 2.089902" /><path
       id="path1247"
       style="fill:none;stroke:#000000;stroke-width:0.267955;stroke-linecap:butt;stroke-linejoin:round;stroke-miterlimit:4;stroke-dasharray:none;stroke-opacity:1"
       d="m 35.909799,135.31197 h 2.090616" /><path
       d="m 30.610519,137.60137 -1.7829,-2.7888 h 1.7829 z m -0.1862,0.6153 h 0.889 v -3.4041 h 0.7462 v -0.588 h -0.7462 v -1.2306 h -0.7028 v 1.2306 h -2.3576 v 0.6832 z"
       style="fill:#000000;fill-opacity:1;fill-rule:nonzero;stroke:none;stroke-width:0.999999"
       id="path1253" /><path
       d="M 35.91,34.780998 H 276.40869"
       style="fill:none;stroke:#000000;stroke-width:0.75;stroke-linecap:butt;stroke-linejoin:round;stroke-miterlimit:4;stroke-dasharray:none;stroke-opacity:1;marker-end:url(#Arrow2Mend)"
       id="path1255"
       transform="translate(0,50.270697)"
       sodipodi:nodetypes="cc" /><path
       d="M 35.91,32.51051 V 145.30407"
       style="fill:none;stroke:#000000;stroke-width:0.75;stroke-linecap:butt;stroke-linejoin:round;stroke-miterlimit:4;stroke-dasharray:none;stroke-opacity:1;marker-end:url(#Arrow2Mend)"
       id="path1257"
       sodipodi:nodetypes="cc" /><path
       d="m 143.93881,18.935548 h 1.2712 c 0.2688,0 0.4064,0 0.4064,0.2752 0,0.1464 -0.1376,0.1464 -0.3776,0.1464 h -1.1944 c 0.488,1.9288 0.5536,2.2 0.5536,2.2784 0,0.2312 -0.1592,0.3688 -0.388,0.3688 -0.0432,0 -0.4216,-0.0128 -0.5432,-0.4904 l -0.528,-2.1568 h -1.2784 c -0.272,0 -0.4064,0 -0.4064,-0.2528 0,-0.1688 0.1096,-0.1688 0.3816,-0.1688 h 1.1904 c -0.9752,-3.8464 -1.028,-4.0752 -1.028,-4.3216 0,-0.7312 0.5128,-1.2472 1.2464,-1.2472 1.3816,0 2.1536,1.9784 2.1536,2.088 0,0.1344 -0.1064,0.1344 -0.1592,0.1344 -0.1256,0 -0.1376,-0.0408 -0.2032,-0.1912 -0.5848,-1.4064 -1.3032,-1.7312 -1.7624,-1.7312 -0.2848,0 -0.4224,0.1752 -0.4224,0.6224 0,0.3248 0.0256,0.4216 0.0816,0.6496 z"
       style="fill:#000000;fill-opacity:1;fill-rule:nonzero;stroke:none;stroke-width:1.11111"
       id="path1263"
       transform="matrix(0.9,0,0,0.9,152.46347,68.18926)" /><path
       d="m 13.38544,85.895472 0.0056,0.0376 0.0128,0.0408 0.0096,0.0432 0.012,0.0472 0.016,0.0528 0.0152,0.0568 0.016,0.0592 0.0184,0.0592 0.0224,0.0624 0.0248,0.0656 0.028,0.0688 0.028,0.0656 0.028,0.0688 0.0344,0.0688 0.0344,0.0656 0.0376,0.0688 0.0816,0.1312 0.0464,0.0624 0.0504,0.0592 0.0464,0.06 0.0568,0.056 0.056,0.0496 0.0592,0.0504 0.0624,0.044 0.1032,0.056 0.0344,0.016 0.0376,0.0152 0.0344,0.0128 0.0408,0.012 0.0376,0.0128 0.0408,0.006 0.04,0.009 0.0408,0.006 0.044,0.006 h 0.0872 c 0.0656,0 0.3912,0 0.6752,-0.172 -0.3784,-0.0688 -0.6504,-0.4088 -0.6504,-0.7344 0,-0.212 0.1472,-0.4744 0.5128,-0.4744 0.3,0 0.7312,0.2432 0.7312,0.7872 0,0.7064 -0.8,0.8904 -1.2592,0.8904 -0.7848,0 -1.2624,-0.7184 -1.4216,-1.028 -0.3408,0.8936 -1.072,1.028 -1.4632,1.028 -1.412,0 -2.1872002,-1.7464 -2.1872002,-2.0872 0,-0.1344 0.1376,-0.1344 0.1656,-0.1344 0.1064,0 0.1504,0.028 0.1752002,0.1496 0.4592,1.4376 1.356,1.7752 1.8184,1.7752 0.2568,0 0.728,-0.1184 0.728,-0.9064 0,-0.4184 -0.228,-1.328 -0.728,-3.2248 -0.2184,-0.8408 -0.6936,-1.4096 -1.2904,-1.4096 -0.0816,0 -0.3936,0 -0.6752002,0.1752 0.3408002,0.0656 0.6376002,0.3504 0.6376002,0.7312 0,0.3656 -0.2968,0.472 -0.5032002,0.472 -0.4064,0 -0.7464,-0.3504 -0.7464,-0.7872 0,-0.6192 0.6808,-0.8912 1.2720002,-0.8912 0.8992,0 1.384,0.9504 1.428,1.028 0.1592,-0.5 0.6496,-1.028 1.4592,-1.028 1.4,0 2.1752,1.7472 2.1752,2.088 0,0.1344 -0.1224,0.1344 -0.1656,0.1344 -0.1192,0 -0.1504,-0.0536 -0.1752,-0.1472 -0.4472,-1.4496 -1.3688,-1.7752 -1.8032,-1.7752 -0.5312,0 -0.7504,0.4312 -0.7504,0.8936 0,0.3 0.0848,0.5976 0.2344,1.1944 z"
       style="fill:#000000;fill-opacity:1;fill-rule:nonzero;stroke:none;stroke-width:1.11111"
       id="path1265"
       transform="matrix(0.9,0,0,0.9,14.822056,70.57912)" /><g
       style="stroke-width:1.3945"
       transform="matrix(0.71709991,0,0,0.71709991,66.076271,-13.96917)"
       id="g1483"><path
         id="path1267"
         style="fill:#000000;fill-opacity:1;fill-rule:nonzero;stroke:none;stroke-width:1.3945"
         d="m 154.691,180.606 0.012,0.043 0.012,0.047 0.012,0.05 0.011,0.055 0.02,0.062 0.019,0.067 0.02,0.07 0.047,0.141 0.027,0.078 0.035,0.078 0.032,0.078 0.07,0.156 0.043,0.082 0.043,0.079 0.047,0.074 0.05,0.078 0.051,0.074 0.059,0.07 0.058,0.067 0.063,0.066 0.066,0.059 0.071,0.058 0.074,0.051 0.078,0.043 0.039,0.024 0.039,0.019 0.047,0.016 0.039,0.015 0.047,0.016 0.043,0.012 0.047,0.012 0.093,0.015 0.102,0.008 h 0.051 c 0.082,0 0.457,0 0.789,-0.203 -0.442,-0.078 -0.758,-0.477 -0.758,-0.856 0,-0.25 0.172,-0.554 0.598,-0.554 0.351,0 0.855,0.285 0.855,0.918 0,0.824 -0.933,1.043 -1.469,1.043 -0.918,0 -1.472,-0.84 -1.66,-1.204 -0.398,1.043 -1.25,1.204 -1.707,1.204 -1.644,0 -2.551,-2.039 -2.551,-2.438 0,-0.156 0.161,-0.156 0.196,-0.156 0.121,0 0.172,0.035 0.203,0.172 0.535,1.676 1.582,2.074 2.121,2.074 0.301,0 0.848,-0.141 0.848,-1.059 0,-0.488 -0.266,-1.55 -0.848,-3.761 -0.254,-0.981 -0.809,-1.645 -1.508,-1.645 -0.094,0 -0.457,0 -0.785,0.207 0.395,0.074 0.742,0.406 0.742,0.852 0,0.425 -0.347,0.55 -0.582,0.55 -0.476,0 -0.875,-0.41 -0.875,-0.917 0,-0.723 0.793,-1.04 1.485,-1.04 1.046,0 1.613,1.106 1.664,1.2 0.187,-0.586 0.757,-1.2 1.703,-1.2 1.633,0 2.539,2.036 2.539,2.434 0,0.156 -0.145,0.156 -0.196,0.156 -0.14,0 -0.175,-0.062 -0.203,-0.168 -0.519,-1.691 -1.597,-2.074 -2.105,-2.074 -0.617,0 -0.871,0.504 -0.871,1.043 0,0.352 0.094,0.695 0.273,1.391 z" /><path
         id="path1269"
         style="fill:#000000;fill-opacity:1;fill-rule:nonzero;stroke:none;stroke-width:1.3945"
         d="m 164.145,176.996 v 0.223 l -0.008,0.215 -0.008,0.211 -0.016,0.203 -0.019,0.195 -0.02,0.192 -0.062,0.359 -0.043,0.176 -0.047,0.168 -0.055,0.16 -0.058,0.16 -0.071,0.156 -0.074,0.153 -0.082,0.148 -0.047,0.07 -0.047,0.075 c -0.34,0.511 -1.023,0.953 -1.914,0.953 V 180.5 c 0.602,0 1.176,-0.359 1.375,-1.004 0.18,-0.597 0.188,-1.394 0.188,-2.359 0,-0.816 0,-1.633 -0.141,-2.328 -0.223,-1.008 -0.973,-1.25 -1.422,-1.25 -0.504,0 -1.179,0.297 -1.402,1.203 -0.152,0.652 -0.152,1.559 -0.152,2.375 0,0.809 0,1.652 0.164,2.258 0.234,0.871 0.941,1.105 1.39,1.105 v 0.313 c -2.562,0 -2.562,-3.02 -2.562,-3.817 0,-0.797 0,-3.75 2.562,-3.75 2.571,0 2.571,2.953 2.571,3.75 z" /><path
         id="path1271"
         style="fill:#000000;fill-opacity:1;fill-rule:nonzero;stroke:none;stroke-width:1.3945"
         d="m 180.801,181.004 h 0.183 l 0.047,0.008 0.02,0.004 0.047,0.008 0.019,0.004 0.02,0.007 0.019,0.004 0.039,0.016 0.02,0.012 0.031,0.023 0.043,0.043 0.004,0.008 0.008,0.012 0.004,0.003 0.004,0.012 0.015,0.031 v 0.012 l 0.008,0.024 v 0.011 l 0.004,0.012 v 0.016 l 0.004,0.011 v 0.028 c 0,0.32 -0.305,0.32 -0.524,0.32 h -9.468 c -0.227,0 -0.52,0 -0.52,-0.32 0,-0.309 0.293,-0.309 0.531,-0.309 z" /><path
         id="path1273"
         style="fill:#000000;fill-opacity:1;fill-rule:nonzero;stroke:none;stroke-width:1.3945"
         d="m 180.816,177.93 h 0.043 l 0.043,0.004 h 0.067 l 0.047,0.008 h 0.039 l 0.023,0.007 0.024,0.004 0.019,0.004 0.039,0.016 0.02,0.004 0.019,0.011 0.016,0.008 0.015,0.012 0.016,0.016 0.016,0.011 0.011,0.016 0.016,0.016 0.004,0.007 0.008,0.008 0.004,0.012 0.007,0.016 0.008,0.011 0.004,0.012 v 0.012 l 0.008,0.023 v 0.012 l 0.004,0.016 v 0.011 l 0.004,0.012 v 0.027 c 0,0.321 -0.305,0.321 -0.539,0.321 h -9.442 c -0.238,0 -0.531,0 -0.531,-0.321 0,-0.316 0.293,-0.316 0.52,-0.316 z" /><path
         id="path1275"
         style="fill:#000000;fill-opacity:1;fill-rule:nonzero;stroke:none;stroke-width:1.3945"
         d="m 191.266,185.949 v 0.129 l -0.004,0.012 v 0.059 l -0.004,0.015 v 0.032 l -0.004,0.019 -0.012,0.047 -0.015,0.023 -0.004,0.012 -0.012,0.008 -0.008,0.012 -0.012,0.007 -0.015,0.008 -0.012,0.004 -0.016,0.008 h -0.007 l -0.012,0.004 -0.008,0.004 h -0.031 l -0.008,0.004 h -0.023 l -0.012,0.004 h -0.067 l -0.011,0.003 h -0.067 c -0.98,-1.011 -2.371,-1.011 -2.875,-1.011 v -0.492 c 0.321,0 1.25,0 2.067,0.41 v -8.192 c 0,-0.57 -0.043,-0.757 -1.465,-0.757 h -0.508 v -0.493 c 0.555,0.051 1.93,0.051 2.559,0.051 0.632,0 2.008,0 2.562,-0.051 v 0.493 h -0.504 c -1.426,0 -1.472,0.171 -1.472,0.757 z" /><path
         id="path1277"
         style="fill:#000000;fill-opacity:1;fill-rule:nonzero;stroke:none;stroke-width:1.3945"
         d="m 197.746,175.844 v 0.098 l -0.008,0.187 -0.015,0.172 -0.016,0.086 -0.016,0.082 -0.015,0.074 -0.02,0.078 -0.039,0.141 -0.027,0.066 -0.024,0.067 -0.062,0.117 -0.031,0.055 -0.032,0.05 -0.039,0.051 -0.035,0.047 -0.039,0.039 -0.039,0.043 -0.043,0.035 -0.047,0.031 -0.043,0.032 -0.094,0.047 -0.05,0.019 -0.055,0.016 -0.051,0.011 -0.058,0.012 h -0.055 l -0.055,0.004 c -0.523,0 -0.84,-0.394 -0.84,-0.836 0,-0.426 0.317,-0.84 0.84,-0.84 0.188,0 0.395,0.067 0.555,0.203 0.043,0.036 0.062,0.051 0.078,0.051 0.012,0 0.031,-0.015 0.031,-0.238 0,-1.168 -0.55,-2.117 -1.078,-2.641 -0.176,-0.168 -0.176,-0.203 -0.176,-0.25 0,-0.113 0.082,-0.172 0.161,-0.172 0.175,0 1.437,1.215 1.437,3.063 z" /><path
         id="path1279"
         style="fill:#000000;fill-opacity:1;fill-rule:nonzero;stroke:none;stroke-width:1.3945"
         d="m 208.945,181.711 v 0.117 l -0.004,0.035 -0.003,0.04 -0.004,0.035 -0.004,0.031 -0.004,0.035 -0.008,0.067 -0.023,0.117 -0.02,0.054 -0.031,0.102 -0.024,0.051 -0.019,0.039 -0.024,0.043 -0.023,0.035 -0.024,0.039 -0.023,0.031 -0.031,0.031 -0.024,0.032 -0.031,0.023 -0.055,0.047 -0.027,0.016 -0.031,0.019 -0.028,0.016 -0.031,0.012 -0.031,0.007 -0.027,0.012 -0.028,0.008 -0.027,0.004 -0.031,0.008 h -0.055 c -0.395,0 -0.773,-0.411 -0.773,-0.762 0,-0.203 0.078,-0.293 0.253,-0.469 0.332,-0.316 0.536,-0.73 0.536,-1.297 0,-0.668 -0.965,-4.285 -2.813,-4.285 -0.808,0 -1.168,0.555 -1.168,1.371 0,0.887 0.426,2.043 0.918,3.356 0.106,0.273 0.188,0.488 0.188,0.793 0,0.707 -0.508,1.293 -1.301,1.293 -1.481,0 -2.086,-2.289 -2.086,-2.438 0,-0.156 0.156,-0.156 0.191,-0.156 0.16,0 0.176,0.035 0.254,0.289 0.453,1.594 1.137,1.957 1.598,1.957 0.125,0 0.394,0 0.394,-0.504 0,-0.398 -0.156,-0.824 -0.269,-1.109 -0.695,-1.832 -0.899,-2.563 -0.899,-3.243 0,-1.703 1.387,-1.957 2.118,-1.957 2.656,0 3.554,5.231 3.554,6.055 z" /><path
         id="path1281"
         style="fill:#000000;fill-opacity:1;fill-rule:nonzero;stroke:none;stroke-width:1.3945"
         d="m 214.914,176.996 -0.004,0.223 -0.008,0.215 -0.007,0.211 -0.012,0.203 -0.02,0.195 -0.023,0.192 -0.028,0.179 -0.035,0.18 -0.043,0.176 -0.046,0.168 -0.051,0.16 -0.063,0.16 -0.066,0.156 -0.078,0.153 -0.082,0.148 -0.043,0.07 -0.047,0.075 c -0.34,0.511 -1.028,0.953 -1.914,0.953 V 180.5 c 0.597,0 1.176,-0.359 1.371,-1.004 0.18,-0.597 0.187,-1.394 0.187,-2.359 0,-0.816 0,-1.633 -0.14,-2.328 -0.223,-1.008 -0.973,-1.25 -1.418,-1.25 -0.508,0 -1.184,0.297 -1.403,1.203 -0.152,0.652 -0.152,1.559 -0.152,2.375 0,0.809 0,1.652 0.16,2.258 0.235,0.871 0.942,1.105 1.395,1.105 v 0.313 c -2.567,0 -2.567,-3.02 -2.567,-3.817 0,-0.797 0,-3.75 2.567,-3.75 2.57,0 2.57,2.953 2.57,3.75 z" /><path
         id="path1283"
         style="fill:#000000;fill-opacity:1;fill-rule:nonzero;stroke:none;stroke-width:1.3945"
         d="m 231.57,181.004 h 0.184 l 0.019,0.004 0.071,0.012 0.019,0.004 0.024,0.004 0.019,0.007 0.02,0.004 0.019,0.008 0.016,0.008 0.019,0.012 0.032,0.023 0.015,0.016 0.016,0.011 0.012,0.016 0.007,0.008 0.004,0.012 0.004,0.003 0.008,0.012 v 0.008 l 0.012,0.023 0.008,0.024 v 0.012 l 0.004,0.011 v 0.012 l 0.003,0.016 v 0.039 c 0,0.32 -0.3,0.32 -0.519,0.32 h -9.473 c -0.222,0 -0.519,0 -0.519,-0.32 0,-0.309 0.297,-0.309 0.535,-0.309 z" /><path
         id="path1285"
         style="fill:#000000;fill-opacity:1;fill-rule:nonzero;stroke:none;stroke-width:1.3945"
         d="m 231.586,177.93 h 0.039 l 0.047,0.004 h 0.066 l 0.02,0.004 0.023,0.004 h 0.043 l 0.02,0.007 0.023,0.004 0.02,0.004 0.023,0.008 0.016,0.008 0.019,0.004 0.02,0.011 0.015,0.008 0.016,0.012 0.016,0.016 0.015,0.011 0.016,0.016 0.004,0.008 0.015,0.015 0.004,0.008 0.004,0.012 0.008,0.008 v 0.008 l 0.008,0.011 0.012,0.035 v 0.012 l 0.004,0.012 v 0.016 l 0.003,0.011 v 0.039 c 0,0.321 -0.3,0.321 -0.535,0.321 h -9.441 c -0.238,0 -0.535,0 -0.535,-0.321 0,-0.316 0.297,-0.316 0.519,-0.316 z" /><path
         id="path1287"
         style="fill:#000000;fill-opacity:1;fill-rule:nonzero;stroke:none;stroke-width:1.3945"
         d="m 241.973,181.395 0.121,0.039 0.117,0.047 0.117,0.05 0.11,0.051 0.113,0.059 0.105,0.058 0.106,0.067 0.101,0.07 0.098,0.067 0.101,0.074 0.18,0.156 0.086,0.082 0.082,0.086 0.078,0.086 0.078,0.09 0.071,0.094 0.066,0.093 0.063,0.098 0.117,0.203 0.051,0.102 0.043,0.105 0.046,0.106 0.036,0.109 0.035,0.105 0.027,0.114 0.024,0.113 0.019,0.113 0.012,0.117 0.004,0.114 0.004,0.117 c 0,1.293 -1.391,2.183 -2.911,2.183 -1.593,0 -2.796,-0.953 -2.796,-2.152 0,-0.523 0.347,-0.824 0.808,-0.824 0.485,0 0.801,0.348 0.801,0.809 0,0.785 -0.742,0.785 -0.973,0.785 0.485,0.777 1.528,0.984 2.102,0.984 0.644,0 1.515,-0.348 1.515,-1.769 0,-0.196 -0.035,-1.11 -0.445,-1.805 -0.473,-0.758 -1.012,-0.805 -1.406,-0.824 -0.125,-0.016 -0.504,-0.043 -0.617,-0.043 -0.125,-0.016 -0.239,-0.032 -0.239,-0.192 0,-0.172 0.114,-0.172 0.383,-0.172 h 0.692 c 1.304,0 1.886,-1.074 1.886,-2.629 0,-2.144 -1.089,-2.605 -1.789,-2.605 -0.679,0 -1.867,0.266 -2.414,1.199 0.547,-0.078 1.039,0.274 1.039,0.871 0,0.571 -0.425,0.883 -0.886,0.883 -0.375,0 -0.883,-0.219 -0.883,-0.918 0,-1.437 1.469,-2.476 3.195,-2.476 1.926,0 3.363,1.437 3.363,3.046 0,1.301 -0.996,2.528 -2.636,2.864 z" /><path
         id="path1293"
         style="fill:#000000;fill-opacity:1;fill-rule:nonzero;stroke:none;stroke-width:1.3945"
         d="m 140.195,201.953 0.024,0.075 0.031,0.078 0.031,0.07 0.031,0.074 0.032,0.067 0.07,0.132 0.035,0.063 0.078,0.117 0.039,0.055 0.043,0.054 0.082,0.098 0.086,0.098 0.086,0.086 0.094,0.078 0.09,0.07 0.094,0.067 0.097,0.062 0.094,0.051 0.09,0.047 0.094,0.047 0.093,0.039 0.09,0.031 0.086,0.027 0.086,0.024 0.082,0.023 0.082,0.016 0.074,0.015 0.071,0.012 0.125,0.016 0.058,0.004 0.047,0.004 0.078,0.007 h 0.047 c 2.219,0 2.379,-2.578 2.379,-3.742 0,-0.898 -0.074,-1.148 -0.172,-1.441 -0.328,-1.074 -0.769,-2.781 -0.769,-3.164 0,-0.16 0.074,-0.266 0.195,-0.266 0.187,0 0.309,0.324 0.469,0.883 0.336,1.238 0.484,2.074 0.547,2.531 0.027,0.195 0.054,0.383 0.113,0.578 0.473,1.453 1.414,3.645 2.004,4.809 0.101,0.176 0.277,0.504 0.277,0.558 0,0.149 -0.144,0.149 -0.176,0.149 -0.043,0 -0.132,0 -0.175,-0.106 -0.766,-1.394 -1.352,-2.867 -1.942,-4.355 -0.015,0.457 -0.027,1.574 -0.605,3.008 -0.352,0.894 -0.942,1.613 -1.957,1.613 -1.836,0 -2.871,-2.234 -2.871,-2.691 0,-0.145 0.132,-0.145 0.281,-0.145 z" /><path
         id="path1295"
         style="fill:#000000;fill-opacity:1;fill-rule:nonzero;stroke:none;stroke-width:1.3945"
         d="m 162.25,203.028 h 0.125 l 0.02,0.003 h 0.046 l 0.039,0.008 0.024,0.004 h 0.019 l 0.02,0.008 0.019,0.004 0.016,0.008 0.02,0.004 0.015,0.011 0.016,0.008 0.019,0.012 0.016,0.008 0.012,0.015 0.012,0.012 0.011,0.016 0.008,0.007 0.008,0.016 0.008,0.008 v 0.008 l 0.011,0.035 0.004,0.008 v 0.011 l 0.008,0.024 v 0.051 c 0,0.296 -0.277,0.296 -0.484,0.296 h -8.817 c -0.207,0 -0.484,0 -0.484,-0.296 0,-0.289 0.277,-0.289 0.5,-0.289 z" /><path
         id="path1297"
         style="fill:#000000;fill-opacity:1;fill-rule:nonzero;stroke:none;stroke-width:1.3945"
         d="m 162.262,200.168 h 0.039 l 0.043,0.004 h 0.078 l 0.023,0.004 h 0.02 l 0.039,0.008 0.023,0.004 0.016,0.008 0.019,0.003 0.02,0.008 0.02,0.004 0.011,0.008 0.02,0.012 0.031,0.023 0.012,0.012 0.012,0.015 0.007,0.004 0.004,0.008 0.008,0.008 0.008,0.016 0.008,0.011 v 0.008 l 0.004,0.008 0.003,0.012 0.004,0.007 0.004,0.016 v 0.012 l 0.008,0.023 v 0.047 c 0,0.297 -0.277,0.297 -0.496,0.297 h -8.789 c -0.223,0 -0.5,0 -0.5,-0.297 0,-0.293 0.277,-0.293 0.484,-0.293 z" /><path
         id="path1299"
         style="fill:#000000;fill-opacity:1;fill-rule:nonzero;stroke:none;stroke-width:1.3945"
         d="m 174.434,202.922 -0.004,0.219 v 0.219 l -0.008,0.222 -0.008,0.219 -0.012,0.223 -0.019,0.218 -0.024,0.219 -0.027,0.215 -0.035,0.215 -0.039,0.215 -0.047,0.215 -0.059,0.21 -0.062,0.215 -0.07,0.207 -0.086,0.203 -0.043,0.106 -0.047,0.101 c -0.676,1.418 -1.887,1.653 -2.504,1.653 -0.883,0 -1.957,-0.383 -2.559,-1.754 -0.472,-1.016 -0.547,-2.164 -0.547,-3.34 0,-1.105 0.063,-2.43 0.664,-3.547 0.633,-1.191 1.707,-1.484 2.43,-1.484 v 0.32 c -0.574,0 -1.445,0.371 -1.711,1.781 -0.16,0.883 -0.16,2.235 -0.16,3.11 0,0.937 0,1.906 0.121,2.703 0.277,1.754 1.379,1.883 1.75,1.883 0.484,0 1.457,-0.262 1.734,-1.723 0.149,-0.82 0.149,-1.941 0.149,-2.863 0,-1.11 0,-2.106 -0.164,-3.051 -0.219,-1.395 -1.059,-1.84 -1.719,-1.84 v -0.32 c 0.793,0 1.91,0.305 2.559,1.707 0.472,1.012 0.547,2.16 0.547,3.324 z" /><path
         id="path1301"
         style="fill:#000000;fill-opacity:1;fill-rule:nonzero;stroke:none;stroke-width:1.3945"
         d="m 177.859,198.992 v 0.039 l -0.004,0.04 -0.007,0.039 -0.004,0.039 -0.008,0.035 -0.012,0.039 -0.012,0.035 -0.031,0.07 -0.019,0.032 -0.016,0.035 -0.019,0.031 -0.024,0.031 -0.023,0.028 -0.024,0.031 -0.051,0.051 -0.062,0.046 -0.027,0.024 -0.032,0.019 -0.035,0.02 -0.031,0.02 -0.035,0.015 -0.071,0.024 -0.078,0.023 -0.039,0.004 -0.039,0.008 h -0.078 c -0.422,0 -0.781,-0.352 -0.781,-0.778 0,-0.425 0.359,-0.781 0.781,-0.781 0.43,0 0.781,0.356 0.781,0.781 z" /><path
         id="path1303"
         style="fill:#000000;fill-opacity:1;fill-rule:nonzero;stroke:none;stroke-width:1.3945"
         d="m 185.883,202.922 v 0.219 l -0.004,0.219 -0.008,0.222 -0.012,0.219 -0.011,0.223 -0.016,0.218 -0.023,0.219 -0.028,0.215 -0.035,0.215 -0.043,0.215 -0.047,0.215 -0.054,0.21 -0.067,0.215 -0.07,0.207 -0.082,0.203 -0.047,0.106 -0.047,0.101 c -0.672,1.418 -1.883,1.653 -2.5,1.653 -0.883,0 -1.957,-0.383 -2.562,-1.754 -0.469,-1.016 -0.543,-2.164 -0.543,-3.34 0,-1.105 0.058,-2.43 0.664,-3.547 0.632,-1.191 1.707,-1.484 2.429,-1.484 v 0.32 c -0.574,0 -1.449,0.371 -1.711,1.781 -0.16,0.883 -0.16,2.235 -0.16,3.11 0,0.937 0,1.906 0.117,2.703 0.278,1.754 1.383,1.883 1.754,1.883 0.481,0 1.457,-0.262 1.735,-1.723 0.144,-0.82 0.144,-1.941 0.144,-2.863 0,-1.11 0,-2.106 -0.16,-3.051 -0.223,-1.395 -1.062,-1.84 -1.719,-1.84 v -0.32 c 0.789,0 1.907,0.305 2.559,1.707 0.473,1.012 0.547,2.16 0.547,3.324 z" /><path
         id="path1305"
         style="fill:#000000;fill-opacity:1;fill-rule:nonzero;stroke:none;stroke-width:1.3945"
         d="m 193.09,201.168 v 0.168 l -0.012,0.156 -0.016,0.161 -0.054,0.312 -0.039,0.152 -0.043,0.149 -0.047,0.148 -0.055,0.141 -0.058,0.137 -0.071,0.136 -0.07,0.129 -0.078,0.129 -0.078,0.121 -0.09,0.117 -0.09,0.114 -0.094,0.105 -0.101,0.106 -0.106,0.093 -0.109,0.09 -0.113,0.086 -0.118,0.078 -0.121,0.075 -0.125,0.062 -0.129,0.063 -0.265,0.093 -0.137,0.039 -0.141,0.024 -0.144,0.023 -0.145,0.012 -0.148,0.004 c -0.703,0 -1.336,-0.235 -1.867,-0.746 v 2.863 c 0.293,-0.082 0.777,-0.187 1.25,-0.187 1.808,0 2.84,1.339 2.84,1.535 0,0.086 -0.043,0.16 -0.149,0.16 -0.015,0 -0.039,0 -0.113,-0.047 -0.297,-0.133 -1.016,-0.426 -2.004,-0.426 -0.59,0 -1.266,0.106 -1.957,0.41 -0.117,0.043 -0.148,0.043 -0.176,0.043 -0.148,0 -0.148,-0.117 -0.148,-0.347 v -4.36 c 0,-0.261 0,-0.383 0.207,-0.383 0.101,0 0.129,0.047 0.191,0.133 0.16,0.235 0.703,1.032 1.895,1.032 0.769,0 1.136,-0.68 1.254,-0.942 0.238,-0.547 0.265,-1.117 0.265,-1.855 0,-0.516 0,-1.403 -0.355,-2.02 -0.352,-0.574 -0.895,-0.953 -1.574,-0.953 -1.075,0 -1.911,0.781 -2.164,1.645 0.046,-0.012 0.093,-0.028 0.253,-0.028 0.485,0 0.735,0.371 0.735,0.723 0,0.355 -0.25,0.719 -0.735,0.719 -0.207,0 -0.726,-0.102 -0.726,-0.782 0,-1.265 1.015,-2.687 2.668,-2.687 1.707,0 3.207,1.41 3.207,3.277 z" /><path
         id="path1307"
         style="fill:#000000;fill-opacity:1;fill-rule:nonzero;stroke:none;stroke-width:1.3945"
         d="m 196.84,198.227 v 0.09 l -0.008,0.171 -0.008,0.083 -0.012,0.082 -0.007,0.078 -0.016,0.074 -0.012,0.07 -0.019,0.074 -0.039,0.133 -0.024,0.059 -0.023,0.062 -0.055,0.11 -0.031,0.05 -0.031,0.047 -0.035,0.047 -0.036,0.043 -0.035,0.039 -0.039,0.039 -0.035,0.032 -0.043,0.027 -0.043,0.031 -0.043,0.024 -0.047,0.019 -0.043,0.02 -0.051,0.015 -0.05,0.012 -0.051,0.008 -0.051,0.004 h -0.051 c -0.488,0 -0.785,-0.367 -0.785,-0.778 0,-0.394 0.297,-0.781 0.785,-0.781 0.172,0 0.368,0.059 0.516,0.192 0.039,0.031 0.059,0.046 0.074,0.046 0.012,0 0.028,-0.015 0.028,-0.222 0,-1.09 -0.516,-1.973 -1.004,-2.457 -0.161,-0.16 -0.161,-0.192 -0.161,-0.235 0,-0.105 0.075,-0.164 0.149,-0.164 0.16,0 1.336,1.133 1.336,2.856 z" /><path
         id="path1309"
         style="fill:#000000;fill-opacity:1;fill-rule:nonzero;stroke:none;stroke-width:1.3945"
         d="m 209.281,203.684 v 0.062 l -0.004,0.063 -0.004,0.058 -0.003,0.055 -0.008,0.055 -0.016,0.101 -0.023,0.094 -0.016,0.047 -0.012,0.043 -0.015,0.043 -0.016,0.035 -0.016,0.039 -0.023,0.035 -0.016,0.035 -0.023,0.032 -0.02,0.027 -0.023,0.031 -0.02,0.028 -0.023,0.023 -0.027,0.02 -0.024,0.019 -0.027,0.02 -0.027,0.015 -0.024,0.016 -0.031,0.012 -0.028,0.007 -0.027,0.004 -0.031,0.008 -0.031,0.004 h -0.028 c -0.383,0 -0.781,-0.352 -0.781,-0.691 0,-0.145 0.07,-0.305 0.215,-0.438 0.254,-0.223 0.519,-0.621 0.519,-1.238 0,-0.59 -0.281,-1.426 -0.734,-2.106 -0.441,-0.632 -0.988,-1.129 -1.68,-1.129 -0.843,0 -1.296,0.524 -1.425,1.317 0.16,0.383 0.496,1.328 0.496,1.742 0,0.176 -0.071,0.324 -0.262,0.324 -0.121,0 -0.281,-0.035 -0.398,-0.25 -0.161,-0.293 -0.34,-1.25 -0.34,-1.785 -0.485,-0.691 -1.071,-1.348 -2,-1.348 -0.973,0 -1.282,0.864 -1.282,1.688 0,1.844 1.504,3.387 1.504,3.574 0,0.164 -0.117,0.285 -0.281,0.285 -0.195,0 -0.297,-0.195 -0.383,-0.328 -0.754,-1.09 -1.308,-2.84 -1.308,-4.176 0,-1.015 0.34,-2.105 1.543,-2.105 1.043,0 1.734,0.734 2.265,1.547 0.133,-0.856 0.707,-1.547 1.621,-1.547 1.153,0 1.856,0.895 2.383,2 0.356,0.723 0.914,2.723 0.914,3.633 z" /><path
         id="path1311"
         style="fill:#000000;fill-opacity:1;fill-rule:nonzero;stroke:none;stroke-width:1.3945"
         d="m 214.844,199.297 -0.004,0.207 -0.008,0.203 -0.008,0.196 -0.012,0.187 -0.015,0.184 -0.024,0.175 -0.027,0.172 -0.031,0.164 -0.039,0.161 -0.043,0.16 -0.051,0.148 -0.055,0.149 -0.062,0.144 -0.07,0.141 -0.079,0.14 -0.043,0.067 -0.043,0.07 c -0.32,0.473 -0.953,0.883 -1.781,0.883 v -0.289 c 0.559,0 1.098,-0.336 1.281,-0.934 0.165,-0.558 0.172,-1.297 0.172,-2.195 0,-0.762 0,-1.524 -0.132,-2.168 -0.208,-0.938 -0.903,-1.164 -1.321,-1.164 -0.469,0 -1.097,0.277 -1.304,1.121 -0.141,0.605 -0.141,1.449 -0.141,2.211 0,0.754 0,1.539 0.148,2.098 0.219,0.812 0.879,1.031 1.297,1.031 v 0.289 c -2.387,0 -2.387,-2.809 -2.387,-3.551 0,-0.738 0,-3.488 2.387,-3.488 2.395,0 2.395,2.75 2.395,3.488 z" /><path
         id="path1313"
         style="fill:#000000;fill-opacity:1;fill-rule:nonzero;stroke:none;stroke-width:1.3945"
         d="m 230.309,203.028 h 0.129 l 0.019,0.003 h 0.043 l 0.023,0.004 0.039,0.008 h 0.024 l 0.016,0.008 0.019,0.004 0.02,0.008 0.015,0.004 0.02,0.011 0.019,0.008 0.012,0.012 0.016,0.008 0.027,0.027 0.012,0.016 0.004,0.007 0.007,0.008 0.012,0.024 0.012,0.035 0.004,0.008 0.004,0.011 v 0.036 l 0.004,0.011 v 0.028 c 0,0.296 -0.282,0.296 -0.485,0.296 h -8.816 c -0.207,0 -0.485,0 -0.485,-0.296 0,-0.289 0.278,-0.289 0.497,-0.289 z" /><path
         id="path1315"
         style="fill:#000000;fill-opacity:1;fill-rule:nonzero;stroke:none;stroke-width:1.3945"
         d="m 230.324,200.168 h 0.039 l 0.039,0.004 h 0.086 l 0.02,0.004 h 0.015 l 0.024,0.004 0.039,0.008 0.019,0.008 0.02,0.003 0.02,0.008 0.015,0.004 0.016,0.008 0.019,0.012 0.012,0.011 0.031,0.024 0.012,0.015 0.012,0.012 0.004,0.008 0.007,0.008 0.004,0.008 0.004,0.011 0.008,0.016 0.004,0.012 0.004,0.007 0.004,0.016 0.004,0.012 v 0.035 l 0.004,0.012 v 0.023 c 0,0.297 -0.282,0.297 -0.5,0.297 h -8.789 c -0.219,0 -0.497,0 -0.497,-0.297 0,-0.293 0.278,-0.293 0.485,-0.293 z" /><path
         id="path1317"
         style="fill:#000000;fill-opacity:1;fill-rule:nonzero;stroke:none;stroke-width:1.3945"
         d="m 240.051,207.633 v 0.117 l -0.004,0.012 v 0.055 l -0.004,0.011 v 0.012 l -0.008,0.039 v 0.012 l -0.004,0.015 -0.008,0.016 -0.003,0.012 -0.008,0.012 -0.004,0.007 -0.008,0.012 -0.035,0.023 -0.012,0.004 -0.008,0.004 -0.004,0.004 h -0.019 l -0.008,0.004 h -0.008 l -0.008,0.004 h -0.011 l -0.008,0.004 h -0.098 l -0.011,0.004 h -0.059 c -0.914,-0.942 -2.207,-0.942 -2.676,-0.942 v -0.457 c 0.297,0 1.16,0 1.922,0.383 v -7.625 c 0,-0.531 -0.039,-0.707 -1.367,-0.707 h -0.469 v -0.457 c 0.516,0.047 1.797,0.047 2.383,0.047 0.59,0 1.867,0 2.387,-0.047 v 0.457 h -0.473 c -1.324,0 -1.367,0.16 -1.367,0.707 z" /><path
         id="path1319"
         style="fill:#000000;fill-opacity:1;fill-rule:nonzero;stroke:none;stroke-width:1.3945"
         d="m 245.922,198.992 -0.008,0.079 v 0.039 l -0.012,0.039 -0.007,0.035 -0.008,0.039 -0.012,0.035 -0.031,0.07 -0.016,0.032 -0.023,0.035 -0.039,0.062 -0.024,0.028 -0.023,0.031 -0.028,0.027 -0.054,0.047 -0.063,0.047 -0.062,0.039 -0.035,0.02 -0.036,0.015 -0.07,0.024 -0.039,0.011 -0.035,0.012 -0.035,0.004 -0.039,0.008 h -0.082 c -0.426,0 -0.778,-0.352 -0.778,-0.778 0,-0.425 0.352,-0.781 0.778,-0.781 0.429,0 0.781,0.356 0.781,0.781 z" /><path
         id="path1321"
         style="fill:#000000;fill-opacity:1;fill-rule:nonzero;stroke:none;stroke-width:1.3945"
         d="m 253.941,202.922 v 0.219 l -0.003,0.219 -0.004,0.222 -0.008,0.219 -0.016,0.223 -0.019,0.218 -0.024,0.219 -0.027,0.215 -0.035,0.215 -0.039,0.215 -0.047,0.215 -0.059,0.21 -0.062,0.215 -0.075,0.207 -0.082,0.203 -0.043,0.106 -0.046,0.101 c -0.676,1.418 -1.883,1.653 -2.504,1.653 -0.879,0 -1.953,-0.383 -2.559,-1.754 -0.473,-1.016 -0.547,-2.164 -0.547,-3.34 0,-1.105 0.063,-2.43 0.668,-3.547 0.629,-1.191 1.707,-1.484 2.426,-1.484 v 0.32 c -0.57,0 -1.445,0.371 -1.707,1.781 -0.16,0.883 -0.16,2.235 -0.16,3.11 0,0.937 0,1.906 0.121,2.703 0.273,1.754 1.379,1.883 1.746,1.883 0.484,0 1.457,-0.262 1.734,-1.723 0.149,-0.82 0.149,-1.941 0.149,-2.863 0,-1.11 0,-2.106 -0.16,-3.051 -0.223,-1.395 -1.063,-1.84 -1.723,-1.84 v -0.32 c 0.793,0 1.914,0.305 2.562,1.707 0.469,1.012 0.543,2.16 0.543,3.324 z" /></g></g></svg>
