<?xml version="1.0" encoding="UTF-8" standalone="no"?>
<svg
   xmlns:dc="http://purl.org/dc/elements/1.1/"
   xmlns:cc="http://creativecommons.org/ns#"
   xmlns:rdf="http://www.w3.org/1999/02/22-rdf-syntax-ns#"
   xmlns:svg="http://www.w3.org/2000/svg"
   xmlns="http://www.w3.org/2000/svg"
   xmlns:xlink="http://www.w3.org/1999/xlink"
   xmlns:sodipodi="http://sodipodi.sourceforge.net/DTD/sodipodi-0.dtd"
   xmlns:inkscape="http://www.inkscape.org/namespaces/inkscape"
   inkscape:export-ydpi="110.00705"
   inkscape:export-xdpi="110.00705"
   inkscape:export-filename="/home/cyd/jupyter/MH2801/img/complex_integral.png"
   sodipodi:docname="complex_integral.svg"
   inkscape:version="1.0 (4035a4fb49, 2020-05-01)"
   version="1.1"
   id="svg2985"
   height="259.89697"
   width="402.30148">
  <sodipodi:namedview
     id="base"
     pagecolor="#ffffff"
     bordercolor="#666666"
     borderopacity="1.0"
     inkscape:pageopacity="0.0"
     inkscape:pageshadow="2"
     inkscape:zoom="1"
     inkscape:cx="227.90255"
     inkscape:cy="253.1693"
     inkscape:document-units="px"
     inkscape:current-layer="layer1"
     showgrid="false"
     fit-margin-top="0"
     fit-margin-left="0"
     fit-margin-right="0"
     fit-margin-bottom="0"
     inkscape:window-width="1920"
     inkscape:window-height="1026"
     inkscape:window-x="0"
     inkscape:window-y="0"
     inkscape:window-maximized="1"
     inkscape:document-rotation="0" />
  <defs
     id="defs2987">
    <marker
       style="overflow:visible"
       id="Arrow2Mend"
       refX="0"
       refY="0"
       orient="auto"
       inkscape:stockid="Arrow2Mend">
      <path
         transform="scale(-0.6)"
         d="M 8.7185878,4.0337352 -2.2072895,0.01601326 8.7185884,-4.0017078 c -1.7454984,2.3720609 -1.7354408,5.6174519 -6e-7,8.035443 z"
         style="fill-rule:evenodd;stroke-width:0.625;stroke-linejoin:round"
         id="path3805"
         inkscape:connector-curvature="0" />
    </marker>
    <marker
       style="overflow:visible"
       id="marker3190"
       refX="0"
       refY="0"
       orient="auto"
       inkscape:stockid="Arrow2Mend">
      <path
         transform="scale(-0.6)"
         d="M 8.7185878,4.0337352 -2.2072895,0.01601326 8.7185884,-4.0017078 c -1.7454984,2.3720609 -1.7354408,5.6174519 -6e-7,8.035443 z"
         style="fill-rule:evenodd;stroke-width:0.625;stroke-linejoin:round"
         id="path3192"
         inkscape:connector-curvature="0" />
    </marker>
    <marker
       style="overflow:visible"
       id="marker3190g"
       refX="0"
       refY="0"
       orient="auto"
       inkscape:stockid="marker3190g">
      <path
         transform="scale(-0.6)"
         d="M 8.7185878,4.0337352 -2.2072895,0.01601326 8.7185884,-4.0017078 c -1.7454984,2.3720609 -1.7354408,5.6174519 -6e-7,8.035443 z"
         style="fill:#d16666;fill-rule:evenodd;stroke:#d16666;stroke-width:0.625;stroke-linejoin:round"
         id="path4717"
         inkscape:connector-curvature="0" />
    </marker>
    <marker
       style="overflow:visible"
       id="marker3190g-4"
       refX="0"
       refY="0"
       orient="auto"
       inkscape:stockid="marker3190g">
      <path
         transform="scale(-0.6)"
         d="M 8.7185878,4.0337352 -2.2072895,0.01601326 8.7185884,-4.0017078 c -1.7454984,2.3720609 -1.7354408,5.6174519 -6e-7,8.035443 z"
         style="fill:#d16666;fill-rule:evenodd;stroke:#d16666;stroke-width:0.625;stroke-linejoin:round"
         id="path4717-0"
         inkscape:connector-curvature="0" />
    </marker>
    <marker
       style="overflow:visible"
       id="marker3190g-1"
       refX="0"
       refY="0"
       orient="auto"
       inkscape:stockid="marker3190g">
      <path
         transform="scale(-0.6)"
         d="M 8.7185878,4.0337352 -2.2072895,0.01601326 8.7185884,-4.0017078 c -1.7454984,2.3720609 -1.7354408,5.6174519 -6e-7,8.035443 z"
         style="fill:#d16666;fill-rule:evenodd;stroke:#d16666;stroke-width:0.625;stroke-linejoin:round"
         id="path4717-8"
         inkscape:connector-curvature="0" />
    </marker>
    <marker
       style="overflow:visible"
       id="marker3190gn"
       refX="0"
       refY="0"
       orient="auto"
       inkscape:stockid="marker3190gn">
      <path
         transform="scale(-0.6)"
         d="M 8.7185878,4.0337352 -2.2072895,0.01601326 8.7185884,-4.0017078 c -1.7454984,2.3720609 -1.7354408,5.6174519 -6e-7,8.035443 z"
         style="fill:#6682d1;fill-rule:evenodd;stroke:#6682d1;stroke-width:0.625;stroke-linejoin:round"
         id="path4824"
         inkscape:connector-curvature="0" />
    </marker>
    <marker
       style="overflow:visible"
       id="marker3190gE"
       refX="0"
       refY="0"
       orient="auto"
       inkscape:stockid="marker3190gE">
      <path
         transform="scale(-0.6)"
         d="M 8.7185878,4.0337352 -2.2072895,0.01601326 8.7185884,-4.0017078 c -1.7454984,2.3720609 -1.7354408,5.6174519 -6e-7,8.035443 z"
         style="fill:#91d535;fill-rule:evenodd;stroke:#91d535;stroke-width:0.625;stroke-linejoin:round"
         id="path4907"
         inkscape:connector-curvature="0" />
    </marker>
    <marker
       style="overflow:visible"
       id="marker3190T"
       refX="0"
       refY="0"
       orient="auto"
       inkscape:stockid="marker3190T">
      <path
         transform="scale(-0.6)"
         d="M 8.7185878,4.0337352 -2.2072895,0.01601326 8.7185884,-4.0017078 c -1.7454984,2.3720609 -1.7354408,5.6174519 -6e-7,8.035443 z"
         style="fill:#727f9c;fill-rule:evenodd;stroke:#727f9c;stroke-width:0.625;stroke-linejoin:round"
         id="path4195"
         inkscape:connector-curvature="0" />
    </marker>
    <marker
       style="overflow:visible"
       id="marker3190gn9"
       refX="0"
       refY="0"
       orient="auto"
       inkscape:stockid="marker3190gn9">
      <path
         transform="scale(-0.6)"
         d="M 8.7185878,4.0337352 -2.2072895,0.01601326 8.7185884,-4.0017078 c -1.7454984,2.3720609 -1.7354408,5.6174519 -6e-7,8.035443 z"
         style="fill:#2c4792;fill-rule:evenodd;stroke:#2c4792;stroke-width:0.625;stroke-linejoin:round"
         id="path7225"
         inkscape:connector-curvature="0" />
    </marker>
    <marker
       style="overflow:visible"
       id="marker3190gc"
       refX="0"
       refY="0"
       orient="auto"
       inkscape:stockid="marker3190gc">
      <path
         transform="scale(-0.6)"
         d="M 8.7185878,4.0337352 -2.2072895,0.01601326 8.7185884,-4.0017078 c -1.7454984,2.3720609 -1.7354408,5.6174519 -6e-7,8.035443 z"
         style="fill:#a93333;fill-rule:evenodd;stroke:#a93333;stroke-width:0.625;stroke-linejoin:round"
         id="path7390"
         inkscape:connector-curvature="0" />
    </marker>
    <marker
       style="overflow:visible"
       id="marker3190gE5"
       refX="0"
       refY="0"
       orient="auto"
       inkscape:stockid="marker3190gE5">
      <path
         transform="scale(-0.6)"
         d="M 8.7185878,4.0337352 -2.2072895,0.01601326 8.7185884,-4.0017078 c -1.7454984,2.3720609 -1.7354408,5.6174519 -6e-7,8.035443 z"
         style="fill:#71ab24;fill-rule:evenodd;stroke:#71ab24;stroke-width:0.625;stroke-linejoin:round"
         id="path7579"
         inkscape:connector-curvature="0" />
    </marker>
    <marker
       style="overflow:visible"
       id="marker3190gn9X"
       refX="0"
       refY="0"
       orient="auto"
       inkscape:stockid="marker3190gn9X">
      <path
         transform="scale(-0.6)"
         d="M 8.7185878,4.0337352 -2.2072895,0.01601326 8.7185884,-4.0017078 c -1.7454984,2.3720609 -1.7354408,5.6174519 -6e-7,8.035443 z"
         style="fill:#d37f00;fill-rule:evenodd;stroke:#d37f00;stroke-width:0.625;stroke-linejoin:round"
         id="path7808"
         inkscape:connector-curvature="0" />
    </marker>
    <marker
       style="overflow:visible"
       id="marker3190gE5-6"
       refX="0"
       refY="0"
       orient="auto"
       inkscape:stockid="marker3190gE5">
      <path
         transform="scale(-0.6)"
         d="M 8.7185878,4.0337352 -2.2072895,0.01601326 8.7185884,-4.0017078 c -1.7454984,2.3720609 -1.7354408,5.6174519 -6e-7,8.035443 z"
         style="fill:#71ab24;fill-rule:evenodd;stroke:#71ab24;stroke-width:0.625;stroke-linejoin:round"
         id="path7579-7"
         inkscape:connector-curvature="0" />
    </marker>
    <marker
       style="overflow:visible"
       id="marker3190gE5-6T"
       refX="0"
       refY="0"
       orient="auto"
       inkscape:stockid="marker3190gE5-6T">
      <path
         transform="scale(-0.6)"
         d="M 8.7185878,4.0337352 -2.2072895,0.01601326 8.7185884,-4.0017078 c -1.7454984,2.3720609 -1.7354408,5.6174519 -6e-7,8.035443 z"
         style="fill:#a782f0;fill-rule:evenodd;stroke:#a782f0;stroke-width:0.625;stroke-linejoin:round"
         id="path8075"
         inkscape:connector-curvature="0" />
    </marker>
    <g
       id="g1455">
      <symbol
         overflow="visible"
         id="symbol8957">
        <path
           style="stroke:none"
           d=""
           id="path9593" />
      </symbol>
      <symbol
         overflow="visible"
         id="symbol4981">
        <path
           style="stroke:none"
           d="m 1.328125,-0.828125 c 0.53125,-0.578125 0.828125,-0.828125 1.1875,-1.140625 0,0 0.609375,-0.53125 0.96875,-0.890625 C 4.4375,-3.78125 4.65625,-4.265625 4.65625,-4.3125 c 0,-0.09375 -0.09375,-0.09375 -0.109375,-0.09375 -0.078125,0 -0.09375,0.015625 -0.15625,0.109375 -0.296875,0.484375 -0.5,0.640625 -0.734375,0.640625 -0.25,0 -0.359375,-0.15625 -0.515625,-0.328125 -0.1875,-0.21875 -0.359375,-0.421875 -0.6875,-0.421875 -0.75,0 -1.203125,0.921875 -1.203125,1.140625 0,0.046875 0.03125,0.109375 0.109375,0.109375 0.09375,0 0.109375,-0.046875 0.140625,-0.109375 0.1875,-0.46875 0.765625,-0.46875 0.84375,-0.46875 0.203125,0 0.390625,0.0625 0.625,0.140625 0.40625,0.15625 0.515625,0.15625 0.765625,0.15625 -0.359375,0.421875 -1.1875,1.140625 -1.375,1.296875 l -0.90625,0.84375 C 0.78125,-0.625 0.421875,-0.0625 0.421875,0.015625 c 0,0.09375 0.109375,0.09375 0.125,0.09375 0.078125,0 0.09375,-0.015625 0.15625,-0.125 0.234375,-0.359375 0.53125,-0.625 0.859375,-0.625 0.21875,0 0.328125,0.09375 0.578125,0.375 0.15625,0.21875 0.34375,0.375 0.625,0.375 1,0 1.578125,-1.265625 1.578125,-1.53125 0,-0.046875 -0.046875,-0.109375 -0.125,-0.109375 -0.09375,0 -0.109375,0.0625 -0.140625,0.140625 C 3.84375,-0.75 3.203125,-0.5625 2.875,-0.5625 c -0.1875,0 -0.375,-0.0625 -0.578125,-0.125 -0.34375,-0.125 -0.5,-0.171875 -0.703125,-0.171875 -0.015625,0 -0.171875,0 -0.265625,0.03125 z m 0,0"
           id="path3913" />
      </symbol>
      <symbol
         overflow="visible"
         id="symbol6023">
        <path
           style="stroke:none"
           d="m 2.03125,-0.015625 c 0,-0.65625 -0.25,-1.046875 -0.640625,-1.046875 -0.328125,0 -0.53125,0.25 -0.53125,0.53125 C 0.859375,-0.265625 1.0625,0 1.390625,0 1.5,0 1.640625,-0.046875 1.734375,-0.125 1.765625,-0.15625 1.78125,-0.15625 1.78125,-0.15625 c 0.015625,0 0.015625,0 0.015625,0.140625 0,0.75 -0.34375,1.34375 -0.671875,1.671875 -0.109375,0.109375 -0.109375,0.125 -0.109375,0.15625 0,0.078125 0.046875,0.109375 0.09375,0.109375 0.109375,0 0.921875,-0.765625 0.921875,-1.9375 z m 0,0"
           id="path9134" />
      </symbol>
      <symbol
         overflow="visible"
         id="symbol7751">
        <path
           style="stroke:none"
           d="m 1.90625,-0.53125 c 0,-0.28125 -0.234375,-0.53125 -0.515625,-0.53125 -0.296875,0 -0.53125,0.25 -0.53125,0.53125 C 0.859375,-0.234375 1.09375,0 1.390625,0 1.671875,0 1.90625,-0.234375 1.90625,-0.53125 Z m 0,0"
           id="path8468" />
      </symbol>
      <symbol
         overflow="visible"
         id="symbol3763">
        <path
           style="stroke:none"
           d=""
           id="path234" />
      </symbol>
      <symbol
         overflow="visible"
         id="symbol9878">
        <path
           style="stroke:none"
           d="M 3.515625,-1.265625 H 3.28125 c -0.015625,0.15625 -0.09375,0.5625 -0.1875,0.625 C 3.046875,-0.59375 2.515625,-0.59375 2.40625,-0.59375 H 1.125 c 0.734375,-0.640625 0.984375,-0.84375 1.390625,-1.171875 0.515625,-0.40625 1,-0.84375 1,-1.5 0,-0.84375 -0.734375,-1.359375 -1.625,-1.359375 -0.859375,0 -1.453125,0.609375 -1.453125,1.25 0,0.34375 0.296875,0.390625 0.375,0.390625 0.15625,0 0.359375,-0.125 0.359375,-0.375 0,-0.125 -0.046875,-0.375 -0.40625,-0.375 C 0.984375,-4.21875 1.453125,-4.375 1.78125,-4.375 c 0.703125,0 1.0625,0.546875 1.0625,1.109375 0,0.609375 -0.4375,1.078125 -0.65625,1.328125 L 0.515625,-0.265625 C 0.4375,-0.203125 0.4375,-0.1875 0.4375,0 h 2.875 z m 0,0"
           id="path8598" />
      </symbol>
      <symbol
         overflow="visible"
         id="symbol5186">
        <path
           style="stroke:none"
           d="m 2.328125,-4.4375 c 0,-0.1875 0,-0.1875 -0.203125,-0.1875 -0.453125,0.4375 -1.078125,0.4375 -1.359375,0.4375 v 0.25 c 0.15625,0 0.625,0 1,-0.1875 v 3.546875 c 0,0.234375 0,0.328125 -0.6875,0.328125 H 0.8125 V 0 c 0.125,0 0.984375,-0.03125 1.234375,-0.03125 0.21875,0 1.09375,0.03125 1.25,0.03125 V -0.25 H 3.03125 c -0.703125,0 -0.703125,-0.09375 -0.703125,-0.328125 z m 0,0"
           id="path9916" />
      </symbol>
      <symbol
         overflow="visible"
         id="symbol8893">
        <path
           style="stroke:none"
           d="m 1.90625,-2.328125 c 0.546875,0 0.9375,0.375 0.9375,1.125 0,0.859375 -0.515625,1.125 -0.90625,1.125 -0.28125,0 -0.90625,-0.078125 -1.1875,-0.5 0.328125,0 0.40625,-0.234375 0.40625,-0.390625 0,-0.21875 -0.171875,-0.375 -0.390625,-0.375 -0.1875,0 -0.390625,0.125 -0.390625,0.40625 0,0.65625 0.71875,1.078125 1.5625,1.078125 0.96875,0 1.640625,-0.65625 1.640625,-1.34375 0,-0.546875 -0.4375,-1.09375 -1.203125,-1.25 0.71875,-0.265625 0.984375,-0.78125 0.984375,-1.21875 0,-0.546875 -0.625,-0.953125 -1.40625,-0.953125 -0.765625,0 -1.359375,0.375 -1.359375,0.9375 0,0.234375 0.15625,0.359375 0.359375,0.359375 0.21875,0 0.359375,-0.15625 0.359375,-0.34375 0,-0.203125 -0.140625,-0.359375 -0.359375,-0.375 0.25,-0.296875 0.71875,-0.375 0.984375,-0.375 0.3125,0 0.75,0.15625 0.75,0.75 0,0.296875 -0.09375,0.625 -0.28125,0.828125 -0.21875,0.265625 -0.421875,0.28125 -0.765625,0.3125 -0.171875,0.015625 -0.1875,0.015625 -0.21875,0.015625 -0.015625,0 -0.078125,0.015625 -0.078125,0.09375 0,0.09375 0.0625,0.09375 0.1875,0.09375 z m 0,0"
           id="path8104" />
      </symbol>
      <symbol
         overflow="visible"
         id="symbol8878">
        <path
           style="stroke:none"
           d="m 3.6875,-1.140625 v -0.25 H 2.90625 V -4.5 c 0,-0.140625 0,-0.203125 -0.140625,-0.203125 -0.09375,0 -0.125,0 -0.1875,0.109375 l -2.3125,3.203125 v 0.25 h 2.0625 v 0.5625 c 0,0.25 0,0.328125 -0.578125,0.328125 H 1.5625 V 0 C 1.921875,-0.015625 2.359375,-0.03125 2.609375,-0.03125 2.875,-0.03125 3.3125,-0.015625 3.671875,0 v -0.25 h -0.1875 C 2.90625,-0.25 2.90625,-0.328125 2.90625,-0.578125 v -0.5625 z M 2.375,-3.9375 v 2.546875 H 0.53125 Z m 0,0"
           id="path5569" />
      </symbol>
      <symbol
         overflow="visible"
         id="symbol1609">
        <path
           style="stroke:none"
           d=""
           id="path8313" />
      </symbol>
      <symbol
         overflow="visible"
         id="symbol2312">
        <path
           style="stroke:none"
           d="m 6.84375,-3.265625 c 0.15625,0 0.34375,0 0.34375,-0.1875 C 7.1875,-3.65625 7,-3.65625 6.859375,-3.65625 h -5.96875 c -0.140625,0 -0.328125,0 -0.328125,0.203125 0,0.1875 0.1875,0.1875 0.328125,0.1875 z m 0.015625,1.9375 c 0.140625,0 0.328125,0 0.328125,-0.203125 0,-0.1875 -0.1875,-0.1875 -0.34375,-0.1875 H 0.890625 c -0.140625,0 -0.328125,0 -0.328125,0.1875 0,0.203125 0.1875,0.203125 0.328125,0.203125 z m 0,0"
           id="path8458" />
      </symbol>
      <symbol
         overflow="visible"
         id="symbol9284">
        <path
           style="stroke:none"
           d="m 4.078125,-2.296875 h 2.78125 C 7,-2.296875 7.1875,-2.296875 7.1875,-2.5 7.1875,-2.6875 7,-2.6875 6.859375,-2.6875 h -2.78125 v -2.796875 c 0,-0.140625 0,-0.328125 -0.203125,-0.328125 -0.203125,0 -0.203125,0.1875 -0.203125,0.328125 V -2.6875 h -2.78125 c -0.140625,0 -0.328125,0 -0.328125,0.1875 0,0.203125 0.1875,0.203125 0.328125,0.203125 h 2.78125 V 0.5 c 0,0.140625 0,0.328125 0.203125,0.328125 0.203125,0 0.203125,-0.1875 0.203125,-0.328125 z m 0,0"
           id="path2827" />
      </symbol>
      <symbol
         overflow="visible"
         id="symbol5396">
        <path
           style="stroke:none"
           d="m 4.40625,-6.953125 c -0.0625,-0.140625 -0.09375,-0.1875 -0.265625,-0.1875 -0.15625,0 -0.1875,0.046875 -0.25,0.1875 l -3.375,6.75 C 0.46875,-0.109375 0.46875,-0.09375 0.46875,-0.078125 0.46875,0 0.53125,0 0.6875,0 h 6.921875 c 0.15625,0 0.21875,0 0.21875,-0.078125 0,-0.015625 0,-0.03125 -0.046875,-0.125 z m -0.578125,0.8125 2.6875,5.390625 h -5.375 z m 0,0"
           id="path6985" />
      </symbol>
      <symbol
         overflow="visible"
         id="symbol3978">
        <path
           style="stroke:none"
           d="m 1.90625,-0.53125 c 0,-0.28125 -0.234375,-0.53125 -0.515625,-0.53125 -0.296875,0 -0.53125,0.25 -0.53125,0.53125 C 0.859375,-0.234375 1.09375,0 1.390625,0 1.671875,0 1.90625,-0.234375 1.90625,-0.53125 Z m 0,0"
           id="path2694" />
      </symbol>
      <symbol
         overflow="visible"
         id="symbol9273">
        <path
           style="stroke:none"
           d=""
           id="path2599" />
      </symbol>
      <symbol
         overflow="visible"
         id="symbol9290">
        <path
           style="stroke:none"
           d="M 5.8125,-4 C 5.875,-4.265625 6,-4.5 6.546875,-4.515625 c 0.03125,0 0.140625,0 0.140625,-0.140625 0,-0.046875 -0.03125,-0.109375 -0.109375,-0.109375 -0.21875,0 -0.484375,0.03125 -0.71875,0.03125 -0.171875,0 -0.5625,-0.03125 -0.734375,-0.03125 -0.03125,0 -0.140625,0 -0.140625,0.15625 0,0.09375 0.09375,0.09375 0.15625,0.09375 0.328125,0.015625 0.4375,0.125 0.4375,0.296875 0,0.046875 0,0.09375 -0.03125,0.15625 l -0.75,3.046875 -1.765625,-3.625 c -0.0625,-0.125 -0.078125,-0.125 -0.25,-0.125 H 1.828125 c -0.125,0 -0.21875,0 -0.21875,0.15625 0,0.09375 0.078125,0.09375 0.234375,0.09375 0.140625,0 0.296875,0.015625 0.4375,0.046875 L 1.359375,-0.75 c -0.0625,0.265625 -0.1875,0.484375 -0.734375,0.5 -0.046875,0 -0.140625,0 -0.140625,0.140625 C 0.484375,-0.03125 0.53125,0 0.578125,0 0.8125,0 1.078125,-0.03125 1.3125,-0.03125 1.484375,-0.03125 1.875,0 2.046875,0 2.125,0 2.1875,-0.03125 2.1875,-0.140625 2.1875,-0.25 2.109375,-0.25 2.03125,-0.25 c -0.4375,-0.015625 -0.4375,-0.203125 -0.4375,-0.296875 0,-0.03125 0,-0.0625 0.015625,-0.171875 l 0.90625,-3.5625 2.03125,4.15625 C 4.59375,0 4.625,0 4.703125,0 4.8125,0 4.8125,-0.015625 4.84375,-0.140625 Z m 0,0"
           id="path4728" />
      </symbol>
      <symbol
         overflow="visible"
         id="symbol811">
        <path
           style="stroke:none"
           d=""
           id="path4744" />
      </symbol>
      <symbol
         overflow="visible"
         id="symbol2650">
        <path
           style="stroke:none"
           d="m 5.1875,-1.578125 c 0.109375,0 0.28125,0 0.28125,-0.15625 0,-0.1875 -0.171875,-0.1875 -0.28125,-0.1875 H 1.03125 c -0.109375,0 -0.28125,0 -0.28125,0.171875 0,0.171875 0.15625,0.171875 0.28125,0.171875 z m 0,0"
           id="path3855" />
      </symbol>
    </g>
  </defs>
  <metadata
     id="metadata2990">
    <rdf:RDF>
      <cc:Work
         rdf:about="">
        <dc:format>image/svg+xml</dc:format>
        <dc:type
           rdf:resource="http://purl.org/dc/dcmitype/StillImage" />
        <dc:title />
      </cc:Work>
    </rdf:RDF>
  </metadata>
  <g
     inkscape:label="Layer 1"
     inkscape:groupmode="layer"
     id="layer1"
     transform="translate(-362.19842,-436.72779)">
    <path
       style="fill:none;stroke:#464f63;stroke-width:3;stroke-linecap:round;stroke-linejoin:miter;stroke-miterlimit:4;stroke-dasharray:3, 6;stroke-dashoffset:0;stroke-opacity:1"
       d="m 408.8683,475.68158 c 45.39627,82.7315 151.03801,10.98544 186.25193,183.70635"
       id="path4522"
       inkscape:connector-curvature="0"
       sodipodi:nodetypes="cc" />
    <path
       inkscape:connector-curvature="0"
       id="path4630"
       d="m 362.19842,670.85975 h 244.9881"
       style="fill:none;stroke:#000000;stroke-width:1.86277;stroke-linecap:butt;stroke-linejoin:miter;stroke-miterlimit:4;stroke-dasharray:none;stroke-opacity:1;marker-end:url(#Arrow2Mend)"
       sodipodi:nodetypes="cc" />
    <path
       sodipodi:nodetypes="cc"
       inkscape:connector-curvature="0"
       id="path4632"
       d="M 380.87426,687.15788 V 460.46183"
       style="fill:none;stroke:#000000;stroke-width:1.86277;stroke-linecap:butt;stroke-linejoin:miter;stroke-miterlimit:4;stroke-dasharray:none;stroke-opacity:1;marker-end:url(#Arrow2Mend)" />
    <g
       transform="matrix(0.30579289,0,0,0.30579289,481.76692,583.26168)"
       id="g5403"
       style="stroke-width:0.877192">
      <g
         style="font-style:normal;font-variant:normal;font-weight:normal;font-stretch:normal;letter-spacing:normal;word-spacing:normal;text-anchor:start;fill:none;stroke:#000000;stroke-width:0.923358;stroke-linecap:butt;stroke-linejoin:miter;stroke-miterlimit:10.433;stroke-dasharray:none;stroke-dashoffset:0;stroke-opacity:1"
         id="g5405"
         transform="matrix(1.0629921,0,0,-1.0629921,-186.02362,789.27165)"
         xml:space="preserve"
         stroke-miterlimit="10.433"
         font-style="normal"
         font-variant="normal"
         font-weight="normal"
         font-stretch="normal"
         font-size-adjust="none"
         letter-spacing="normal"
         word-spacing="normal"><path
           style="fill:#000000;stroke-width:0"
           inkscape:connector-curvature="0"
           d="m 477.19,423.14 0.45,0.12 0.44,0.12 0.44,0.14 0.43,0.15 0.42,0.16 0.42,0.17 0.4,0.18 0.4,0.19 0.39,0.19 0.37,0.21 0.37,0.22 0.35,0.22 0.34,0.23 0.33,0.24 0.32,0.25 0.3,0.26 0.29,0.27 0.27,0.27 0.26,0.28 0.24,0.29 0.23,0.29 0.21,0.31 0.19,0.3 0.18,0.32 0.15,0.32 0.14,0.33 0.12,0.33 0.09,0.35 0.08,0.34 0.06,0.35 0.03,0.36 0.01,0.36 c 0,4.78 -5.67,8.97 -13,8.97 h -15.64 v -1.55 h 1.19 c 3.84,0 3.93,-0.54 3.93,-2.34 v -26.25 c 0,-1.8 -0.09,-2.34 -3.93,-2.34 h -1.19 v -1.55 c 1.78,0.16 5.33,0.16 7.27,0.16 1.93,0 5.48,0 7.28,-0.16 v 1.55 h -1.21 c -3.82,0 -3.93,0.54 -3.93,2.34 v 12.59 1.11 12.89 c 0,1.16 0,1.75 1.09,1.91 0.5,0.09 1.95,0.09 2.95,0.09 4.47,0 10.07,-0.2 10.07,-7.42 0,-3.44 -1.21,-7.47 -8.58,-7.47 h -5.53 v -1.11 h 5.73 c 0.8,0 2.89,0 4.63,-1.68 1.9,-1.8 1.9,-3.35 1.9,-6.68 0,-3.25 0,-5.23 2.03,-7.12 2.05,-1.8 4.78,-2.09 6.28,-2.09 3.89,0 4.74,4.07 4.74,5.48 0,0.3 0,0.84 -0.64,0.84 -0.55,0 -0.55,-0.45 -0.61,-0.79 -0.3,-3.55 -2.03,-4.44 -3.28,-4.44 -2.44,0 -2.85,2.55 -3.55,7.17 l -0.64,3.99 c -0.89,3.18 -3.34,4.84 -6.08,5.78 z"
           id="path5407" /><path
           style="fill:#000000;stroke-width:0"
           inkscape:connector-curvature="0"
           d="m 497.77,417.71 0.05,1.05 c 0.29,7.42 4.48,8.66 6.18,8.66 5.13,0 5.63,-6.72 5.63,-8.66 h -11.81 l -0.05,-1.05 h 13.91 c 1.09,0 1.23,0 1.23,1.05 0,4.92 -2.69,9.75 -8.91,9.75 -5.78,0 -10.37,-5.12 -10.37,-11.36 0,-6.67 5.23,-11.5 10.97,-11.5 6.08,0 8.31,5.53 8.31,6.47 0,0.5 -0.39,0.61 -0.64,0.61 -0.45,0 -0.55,-0.3 -0.66,-0.7 -1.73,-5.13 -6.22,-5.13 -6.72,-5.13 -2.5,0 -4.48,1.49 -5.62,3.33 -1.5,2.39 -1.5,5.69 -1.5,7.48 z"
           id="path5409" /><path
           style="fill:#000000;stroke-width:0"
           inkscape:connector-curvature="0"
           d="m 530.8,394.25 v 0.02 0.03 0.01 0.02 l -0.01,0.01 v 0.02 l -0.01,0.01 v 0.02 l -0.01,0.02 -0.01,0.02 -0.02,0.02 -0.01,0.03 -0.02,0.02 -0.01,0.03 -0.03,0.03 -0.02,0.03 -0.03,0.03 -0.03,0.04 -0.01,0.02 -0.02,0.02 -0.01,0.02 -0.02,0.02 -0.02,0.02 -0.02,0.03 -0.02,0.02 -0.03,0.02 -0.02,0.03 -0.02,0.02 -0.03,0.03 -0.02,0.03 -0.03,0.03 -0.03,0.03 -0.02,0.03 -0.03,0.03 -0.04,0.03 -0.03,0.03 -0.03,0.04 -0.03,0.03 -0.04,0.04 -0.04,0.03 -0.03,0.04 -0.04,0.04 c -6.22,6.28 -7.81,15.69 -7.81,23.31 0,8.67 1.88,17.35 8.01,23.56 0.64,0.61 0.64,0.71 0.64,0.86 0,0.35 -0.19,0.49 -0.48,0.49 -0.5,0 -4.99,-3.38 -7.92,-9.7 -2.55,-5.49 -3.15,-11.02 -3.15,-15.21 0,-3.89 0.55,-9.9 3.28,-15.54 2.99,-6.13 7.29,-9.36 7.79,-9.36 0.29,0 0.48,0.14 0.48,0.5 z"
           id="path5411" /><path
           style="fill:#000000;stroke-width:0"
           inkscape:connector-curvature="0"
           d="m 540.26,410.34 0.25,0.27 0.24,0.25 0.23,0.25 0.23,0.24 0.22,0.23 0.22,0.22 0.21,0.22 0.21,0.21 0.2,0.2 0.19,0.19 0.2,0.19 0.18,0.19 0.19,0.17 0.18,0.18 0.35,0.33 0.34,0.32 0.34,0.3 0.32,0.29 0.33,0.29 0.64,0.56 0.33,0.29 0.34,0.28 c 0,0.05 3.07,2.69 4.87,4.49 4.73,4.64 5.83,7.03 5.83,7.21 0,0.5 -0.45,0.5 -0.55,0.5 -0.34,0 -0.5,-0.09 -0.75,-0.54 -1.48,-2.39 -2.53,-3.19 -3.73,-3.19 -1.21,0 -1.8,0.75 -2.55,1.59 -0.94,1.16 -1.78,2.14 -3.44,2.14 -3.73,0 -6.01,-4.62 -6.01,-5.67 0,-0.25 0.14,-0.54 0.59,-0.54 0.45,0 0.55,0.25 0.64,0.54 0.95,2.3 3.85,2.35 4.24,2.35 1.04,0 2,-0.36 3.14,-0.75 2,-0.75 2.54,-0.75 3.84,-0.75 -1.8,-2.14 -5.98,-5.74 -6.92,-6.53 l -4.49,-4.18 c -3.39,-3.34 -5.14,-6.18 -5.14,-6.53 0,-0.5 0.5,-0.5 0.6,-0.5 0.4,0 0.5,0.1 0.79,0.64 1.16,1.75 2.64,3.1 4.24,3.1 1.15,0 1.65,-0.46 2.89,-1.89 0.86,-1.05 1.75,-1.85 3.19,-1.85 4.93,0 7.82,6.33 7.82,7.67 0,0.25 -0.2,0.5 -0.59,0.5 -0.45,0 -0.55,-0.29 -0.7,-0.65 -1.14,-3.24 -4.33,-4.17 -5.99,-4.17 -0.98,0 -1.89,0.29 -2.93,0.64 -1.69,0.64 -2.44,0.84 -3.49,0.84 -0.09,0 -0.89,0 -1.34,-0.14 z"
           id="path5413" /><path
           style="fill:#000000;stroke-width:0"
           inkscape:connector-curvature="0"
           d="m 573.34,418.65 v 0.37 l -0.01,0.39 -0.01,0.39 -0.01,0.41 -0.04,0.84 -0.06,0.88 -0.08,0.92 -0.11,0.95 -0.13,0.97 -0.17,1.01 -0.19,1.02 -0.23,1.03 -0.27,1.05 -0.3,1.06 -0.35,1.07 -0.4,1.07 -0.21,0.53 -0.22,0.53 -0.24,0.53 -0.25,0.53 c -2.99,6.12 -7.27,9.36 -7.77,9.36 -0.29,0 -0.5,-0.19 -0.5,-0.49 0,-0.15 0,-0.25 0.94,-1.15 4.89,-4.92 7.74,-12.85 7.74,-23.27 0,-8.51 -1.85,-17.28 -8.04,-23.56 -0.64,-0.59 -0.64,-0.7 -0.64,-0.84 0,-0.3 0.21,-0.5 0.5,-0.5 0.5,0 4.97,3.39 7.93,9.71 2.53,5.47 3.12,11 3.12,15.19 z"
           id="path5415" /></g>
    </g>
    <g
       transform="matrix(0.30579289,0,0,0.30579289,272.02672,340.27034)"
       id="g5487"
       style="stroke-width:0.877192">
      <g
         style="font-style:normal;font-variant:normal;font-weight:normal;font-stretch:normal;letter-spacing:normal;word-spacing:normal;text-anchor:start;fill:none;stroke:#000000;stroke-width:0.923358;stroke-linecap:butt;stroke-linejoin:miter;stroke-miterlimit:10.433;stroke-dasharray:none;stroke-dashoffset:0;stroke-opacity:1"
         word-spacing="normal"
         letter-spacing="normal"
         font-size-adjust="none"
         font-stretch="normal"
         font-weight="normal"
         font-variant="normal"
         font-style="normal"
         stroke-miterlimit="10.433"
         xml:space="preserve"
         transform="matrix(1.0629921,0,0,-1.0629921,-186.02362,789.27165)"
         id="g5489"><path
           style="fill:#000000;stroke-width:0"
           inkscape:connector-curvature="0"
           id="path5491"
           d="m 466.72,436.34 v 0.16 l 0.01,0.16 v 0.15 l 0.01,0.15 0.01,0.13 0.01,0.13 0.02,0.13 0.03,0.11 0.03,0.12 0.04,0.1 0.05,0.1 0.05,0.09 0.06,0.09 0.08,0.08 0.08,0.08 0.09,0.07 0.11,0.06 0.12,0.06 0.06,0.03 0.07,0.03 0.07,0.02 0.07,0.03 0.08,0.02 0.08,0.02 0.08,0.02 0.09,0.02 0.09,0.02 0.1,0.02 0.1,0.02 0.11,0.01 0.1,0.01 0.12,0.02 0.11,0.01 0.13,0.01 0.12,0.01 0.13,0.01 0.14,0.01 0.14,0.01 h 0.15 l 0.15,0.01 h 0.15 l 0.16,0.01 h 0.17 0.17 0.17 0.19 1.29 v 1.55 c -1.75,-0.16 -5.68,-0.16 -7.57,-0.16 -1.94,0 -5.88,0 -7.63,0.16 v -1.55 h 1.3 c 3.93,0 4.09,-0.54 4.09,-2.34 v -26.25 c 0,-1.8 -0.16,-2.34 -4.09,-2.34 h -1.3 v -1.55 c 1.75,0.16 5.69,0.16 7.58,0.16 1.94,0 5.87,0 7.62,-0.16 v 1.55 h -1.29 c -3.94,0 -4.1,0.54 -4.1,2.34 z" /><path
           style="fill:#000000;stroke-width:0"
           inkscape:connector-curvature="0"
           id="path5493"
           d="m 479,423.34 v -13.36 c 0,-2.23 -0.54,-2.23 -3.89,-2.23 v -1.55 c 1.75,0.05 4.28,0.16 5.63,0.16 1.3,0 3.89,-0.11 5.58,-0.16 v 1.55 c -3.33,0 -3.88,0 -3.88,2.23 v 9.17 c 0,5.19 3.53,7.97 6.72,7.97 3.14,0 3.69,-2.69 3.69,-5.53 v -11.61 c 0,-2.23 -0.55,-2.23 -3.89,-2.23 v -1.55 c 1.75,0.05 4.29,0.16 5.64,0.16 1.29,0 3.87,-0.11 5.58,-0.16 v 1.55 c -3.35,0 -3.89,0 -3.89,2.23 v 9.17 c 0,5.19 3.54,7.97 6.73,7.97 3.14,0 3.69,-2.69 3.69,-5.53 v -11.61 c 0,-2.23 -0.55,-2.23 -3.89,-2.23 v -1.55 c 1.73,0.05 4.28,0.16 5.62,0.16 1.3,0 3.89,-0.11 5.58,-0.16 v 1.55 c -2.58,0 -3.83,0 -3.88,1.5 v 9.51 c 0,4.28 0,5.83 -1.54,7.61 -0.71,0.86 -2.35,1.84 -5.24,1.84 -4.18,0 -6.37,-2.98 -7.22,-4.87 -0.7,4.33 -4.39,4.87 -6.62,4.87 -3.64,0 -5.98,-2.14 -7.38,-5.21 v 5.21 l -7.03,-0.54 v -1.55 c 3.49,0 3.89,-0.34 3.89,-2.78 z" /><path
           style="fill:#000000;stroke-width:0"
           inkscape:connector-curvature="0"
           id="path5495"
           d="m 531.52,394.25 v 0.02 0.03 0.01 0.02 l -0.01,0.01 v 0.02 l -0.01,0.01 v 0.02 l -0.01,0.02 -0.01,0.02 -0.01,0.02 -0.02,0.03 -0.01,0.02 -0.02,0.03 -0.02,0.03 -0.03,0.03 -0.02,0.03 -0.03,0.04 -0.02,0.02 -0.02,0.02 -0.01,0.02 -0.02,0.02 -0.02,0.02 -0.02,0.03 -0.02,0.02 -0.02,0.02 -0.03,0.03 -0.02,0.02 -0.02,0.03 -0.03,0.03 -0.03,0.03 -0.02,0.03 -0.03,0.03 -0.03,0.03 -0.03,0.03 -0.03,0.03 -0.04,0.04 -0.03,0.03 -0.04,0.04 -0.03,0.03 -0.04,0.04 -0.04,0.04 c -6.22,6.28 -7.81,15.69 -7.81,23.31 0,8.67 1.89,17.35 8.01,23.56 0.64,0.61 0.64,0.71 0.64,0.86 0,0.35 -0.18,0.49 -0.48,0.49 -0.5,0 -4.99,-3.38 -7.92,-9.7 -2.55,-5.49 -3.14,-11.02 -3.14,-15.21 0,-3.89 0.54,-9.9 3.28,-15.54 2.98,-6.13 7.28,-9.36 7.78,-9.36 0.3,0 0.48,0.14 0.48,0.5 z" /><path
           style="fill:#000000;stroke-width:0"
           inkscape:connector-curvature="0"
           id="path5497"
           d="m 540.98,410.34 0.25,0.27 0.24,0.25 0.23,0.25 0.23,0.24 0.23,0.23 0.21,0.22 0.21,0.22 0.21,0.21 0.2,0.2 0.2,0.19 0.19,0.19 0.19,0.19 0.18,0.17 0.18,0.18 0.35,0.33 0.34,0.32 0.34,0.3 0.33,0.29 0.32,0.29 0.65,0.56 0.32,0.29 0.34,0.28 c 0,0.05 3.08,2.69 4.87,4.49 4.74,4.64 5.83,7.03 5.83,7.21 0,0.5 -0.45,0.5 -0.55,0.5 -0.34,0 -0.5,-0.09 -0.75,-0.54 -1.48,-2.39 -2.53,-3.19 -3.73,-3.19 -1.2,0 -1.8,0.75 -2.55,1.59 -0.94,1.16 -1.78,2.14 -3.44,2.14 -3.73,0 -6.01,-4.62 -6.01,-5.67 0,-0.25 0.14,-0.54 0.59,-0.54 0.46,0 0.55,0.25 0.64,0.54 0.96,2.3 3.85,2.35 4.24,2.35 1.04,0 2,-0.36 3.14,-0.75 2,-0.75 2.55,-0.75 3.84,-0.75 -1.79,-2.14 -5.98,-5.74 -6.92,-6.53 l -4.48,-4.18 c -3.39,-3.34 -5.14,-6.18 -5.14,-6.53 0,-0.5 0.5,-0.5 0.59,-0.5 0.41,0 0.5,0.1 0.8,0.64 1.15,1.75 2.64,3.1 4.23,3.1 1.16,0 1.66,-0.46 2.89,-1.89 0.86,-1.05 1.75,-1.85 3.19,-1.85 4.94,0 7.83,6.33 7.83,7.67 0,0.25 -0.21,0.5 -0.6,0.5 -0.45,0 -0.54,-0.29 -0.7,-0.65 -1.14,-3.24 -4.33,-4.17 -5.98,-4.17 -0.99,0 -1.9,0.29 -2.94,0.64 -1.69,0.64 -2.44,0.84 -3.49,0.84 -0.09,0 -0.89,0 -1.34,-0.14 z" /><path
           style="fill:#000000;stroke-width:0"
           inkscape:connector-curvature="0"
           id="path5499"
           d="m 574.06,418.65 v 0.37 0.39 l -0.01,0.39 -0.02,0.41 -0.04,0.84 -0.06,0.88 -0.08,0.92 -0.1,0.95 -0.14,0.97 -0.16,1.01 -0.2,1.02 -0.23,1.03 -0.27,1.05 -0.3,1.06 -0.35,1.07 -0.39,1.07 -0.22,0.53 -0.22,0.53 -0.24,0.53 -0.25,0.53 c -2.98,6.12 -7.26,9.36 -7.76,9.36 -0.3,0 -0.5,-0.19 -0.5,-0.49 0,-0.15 0,-0.25 0.93,-1.15 4.89,-4.92 7.74,-12.85 7.74,-23.27 0,-8.51 -1.85,-17.28 -8.03,-23.56 -0.64,-0.59 -0.64,-0.7 -0.64,-0.84 0,-0.3 0.2,-0.5 0.5,-0.5 0.5,0 4.96,3.39 7.92,9.71 2.53,5.47 3.12,11 3.12,15.19 z" /></g>
    </g>
    <path
       style="fill:none;stroke:#a93333;stroke-width:1.4;stroke-linecap:butt;stroke-linejoin:miter;stroke-miterlimit:4;stroke-dasharray:none;stroke-opacity:1;marker-end:url(#marker3190gc)"
       d="m 409.08044,474.40879 33.79274,34.7356"
       id="path4524"
       inkscape:connector-curvature="0"
       sodipodi:nodetypes="cc" />
    <path
       style="fill:none;stroke:#d37f00;stroke-width:1.4;stroke-linecap:butt;stroke-linejoin:miter;stroke-miterlimit:4;stroke-dasharray:none;stroke-opacity:1;marker-end:url(#marker3190gn9X)"
       d="m 447.33201,512.61253 51.78871,19.38826"
       id="path4524-4"
       inkscape:connector-curvature="0"
       sodipodi:nodetypes="cc" />
    <path
       style="fill:none;stroke:#71ab24;stroke-width:1.4;stroke-linecap:butt;stroke-linejoin:miter;stroke-miterlimit:4;stroke-dasharray:none;stroke-opacity:1;marker-end:url(#marker3190gE5)"
       d="m 504.49945,533.9354 35.64339,19.65627"
       id="path4524-0"
       inkscape:connector-curvature="0"
       sodipodi:nodetypes="cc" />
    <g
       transform="matrix(1.1664,0,0,1.1664,283.11231,429.40054)"
       id="g5019"
       style="stroke-width:1.02881">
      <g
         style="font-style:normal;font-variant:normal;font-weight:normal;font-stretch:normal;letter-spacing:normal;word-spacing:normal;text-anchor:start;fill:none;stroke:#000000;stroke-width:1.14312;stroke-linecap:butt;stroke-linejoin:miter;stroke-miterlimit:10.433;stroke-dasharray:none;stroke-dashoffset:0;stroke-opacity:1"
         word-spacing="normal"
         letter-spacing="normal"
         font-size-adjust="none"
         font-stretch="normal"
         font-weight="normal"
         font-variant="normal"
         font-style="normal"
         stroke-miterlimit="10.433"
         xml:space="preserve"
         transform="matrix(0.32754464,0,0,-0.32754464,-57.320312,183.32812)"
         id="content"><path
           style="fill:#000000;stroke-width:0"
           inkscape:connector-curvature="0"
           id="path5022"
           d="m 462.14,410.34 0.25,0.27 0.24,0.25 0.24,0.25 0.23,0.24 0.22,0.23 0.22,0.22 0.21,0.22 0.2,0.21 0.2,0.2 0.2,0.19 0.19,0.19 0.19,0.19 0.18,0.17 0.19,0.18 0.35,0.33 0.34,0.32 0.33,0.3 0.33,0.29 0.32,0.29 0.65,0.56 0.33,0.29 0.33,0.28 c 0,0.05 3.08,2.69 4.88,4.49 4.73,4.64 5.83,7.03 5.83,7.21 0,0.5 -0.46,0.5 -0.55,0.5 -0.35,0 -0.5,-0.09 -0.75,-0.54 -1.49,-2.39 -2.53,-3.19 -3.74,-3.19 -1.2,0 -1.79,0.75 -2.54,1.59 -0.94,1.16 -1.78,2.14 -3.44,2.14 -3.73,0 -6.02,-4.62 -6.02,-5.67 0,-0.25 0.14,-0.54 0.6,-0.54 0.45,0 0.54,0.25 0.64,0.54 0.95,2.3 3.84,2.35 4.23,2.35 1.05,0 2,-0.36 3.14,-0.75 2,-0.75 2.55,-0.75 3.85,-0.75 -1.8,-2.14 -5.99,-5.74 -6.92,-6.53 l -4.49,-4.18 c -3.39,-3.34 -5.14,-6.18 -5.14,-6.53 0,-0.5 0.5,-0.5 0.59,-0.5 0.41,0 0.5,0.1 0.8,0.64 1.16,1.75 2.64,3.1 4.24,3.1 1.15,0 1.65,-0.46 2.89,-1.89 0.86,-1.05 1.75,-1.85 3.18,-1.85 4.94,0 7.83,6.33 7.83,7.67 0,0.25 -0.2,0.5 -0.59,0.5 -0.46,0 -0.55,-0.29 -0.71,-0.65 -1.14,-3.24 -4.32,-4.17 -5.98,-4.17 -0.98,0 -1.89,0.29 -2.94,0.64 -1.68,0.64 -2.43,0.84 -3.48,0.84 -0.1,0 -0.89,0 -1.35,-0.14 z" /><path
           style="fill:#000000;stroke-width:0"
           inkscape:connector-curvature="0"
           id="path5024"
           d="m 490.35,420.92 v 0.04 0.04 0.05 0.04 0.03 0.04 0.04 0.03 0.04 l -0.01,0.03 v 0.03 0.03 0.03 l -0.01,0.03 v 0.03 0.02 l -0.01,0.03 v 0.02 l -0.01,0.03 v 0.02 l -0.02,0.04 -0.01,0.04 -0.02,0.03 -0.02,0.03 -0.02,0.03 -0.02,0.03 -0.03,0.02 -0.03,0.02 -0.03,0.02 -0.04,0.01 -0.04,0.01 -0.05,0.02 h -0.02 -0.02 l -0.03,0.01 h -0.03 l -0.02,0.01 h -0.03 -0.03 -0.03 -0.03 l -0.04,0.01 h -0.03 -0.04 -0.03 -0.04 -0.04 -0.04 -0.04 -0.05 -0.04 -0.05 c -2.23,-2.2 -5.39,-2.23 -6.82,-2.23 v -1.25 c 0.84,0 3.14,0 5.04,0.97 v -17.77 c 0,-1.16 0,-1.61 -3.48,-1.61 h -1.31 v -1.25 c 0.62,0.03 4.9,0.14 6.2,0.14 1.08,0 5.47,-0.11 6.23,-0.14 v 1.25 h -1.32 c -3.49,0 -3.49,0.45 -3.49,1.61 z" /></g>
    </g>
    <g
       transform="matrix(1.1664,0,0,1.1664,321.97919,469.76234)"
       id="g5118"
       style="stroke-width:1.02881">
      <g
         style="font-style:normal;font-variant:normal;font-weight:normal;font-stretch:normal;letter-spacing:normal;word-spacing:normal;text-anchor:start;fill:none;stroke:#000000;stroke-width:1.14312;stroke-linecap:butt;stroke-linejoin:miter;stroke-miterlimit:10.433;stroke-dasharray:none;stroke-dashoffset:0;stroke-opacity:1"
         id="g5120"
         transform="matrix(0.32754464,0,0,-0.32754464,-57.320312,183.32812)"
         xml:space="preserve"
         stroke-miterlimit="10.433"
         font-style="normal"
         font-variant="normal"
         font-weight="normal"
         font-stretch="normal"
         font-size-adjust="none"
         letter-spacing="normal"
         word-spacing="normal"><path
           style="fill:#000000;stroke-width:0"
           inkscape:connector-curvature="0"
           d="m 462.14,410.34 0.25,0.27 0.24,0.25 0.24,0.25 0.23,0.24 0.22,0.23 0.22,0.22 0.21,0.22 0.2,0.21 0.2,0.2 0.2,0.19 0.19,0.19 0.19,0.19 0.18,0.17 0.19,0.18 0.35,0.33 0.34,0.32 0.33,0.3 0.33,0.29 0.32,0.29 0.65,0.56 0.33,0.29 0.33,0.28 c 0,0.05 3.08,2.69 4.88,4.49 4.73,4.64 5.83,7.03 5.83,7.21 0,0.5 -0.46,0.5 -0.55,0.5 -0.35,0 -0.5,-0.09 -0.75,-0.54 -1.49,-2.39 -2.53,-3.19 -3.74,-3.19 -1.2,0 -1.79,0.75 -2.54,1.59 -0.94,1.16 -1.78,2.14 -3.44,2.14 -3.73,0 -6.02,-4.62 -6.02,-5.67 0,-0.25 0.14,-0.54 0.6,-0.54 0.45,0 0.54,0.25 0.64,0.54 0.95,2.3 3.84,2.35 4.23,2.35 1.05,0 2,-0.36 3.14,-0.75 2,-0.75 2.55,-0.75 3.85,-0.75 -1.8,-2.14 -5.99,-5.74 -6.92,-6.53 l -4.49,-4.18 c -3.39,-3.34 -5.14,-6.18 -5.14,-6.53 0,-0.5 0.5,-0.5 0.59,-0.5 0.41,0 0.5,0.1 0.8,0.64 1.16,1.75 2.64,3.1 4.24,3.1 1.15,0 1.65,-0.46 2.89,-1.89 0.86,-1.05 1.75,-1.85 3.18,-1.85 4.94,0 7.83,6.33 7.83,7.67 0,0.25 -0.2,0.5 -0.59,0.5 -0.46,0 -0.55,-0.29 -0.71,-0.65 -1.14,-3.24 -4.32,-4.17 -5.98,-4.17 -0.98,0 -1.89,0.29 -2.94,0.64 -1.68,0.64 -2.43,0.84 -3.48,0.84 -0.1,0 -0.89,0 -1.35,-0.14 z"
           id="path5122" /><path
           style="fill:#000000;stroke-width:0"
           inkscape:connector-curvature="0"
           d="m 496.27,405.11 h -1.18 c -0.1,-0.77 -0.46,-2.83 -0.91,-3.18 -0.27,-0.2 -2.95,-0.2 -3.44,-0.2 h -6.42 c 3.66,3.23 4.88,4.2 6.97,5.84 2.58,2.07 4.98,4.22 4.98,7.54 0,4.21 -3.68,6.79 -8.15,6.79 -4.32,0 -7.25,-3.03 -7.25,-6.23 0,-1.78 1.5,-1.96 1.86,-1.96 0.82,0 1.84,0.6 1.84,1.85 0,0.62 -0.25,1.84 -2.06,1.84 1.08,2.47 3.45,3.24 5.09,3.24 3.49,0 5.3,-2.71 5.3,-5.53 0,-3.04 -2.16,-5.44 -3.28,-6.69 l -8.39,-8.3 c -0.36,-0.31 -0.36,-0.39 -0.36,-1.36 h 14.36 z"
           id="path5124" /></g>
    </g>
    <g
       transform="matrix(1.1664,0,0,1.1664,384.10154,496.06173)"
       id="g5226"
       style="stroke-width:1.02881">
      <g
         style="font-style:normal;font-variant:normal;font-weight:normal;font-stretch:normal;letter-spacing:normal;word-spacing:normal;text-anchor:start;fill:none;stroke:#000000;stroke-width:1.14312;stroke-linecap:butt;stroke-linejoin:miter;stroke-miterlimit:10.433;stroke-dasharray:none;stroke-dashoffset:0;stroke-opacity:1"
         word-spacing="normal"
         letter-spacing="normal"
         font-size-adjust="none"
         font-stretch="normal"
         font-weight="normal"
         font-variant="normal"
         font-style="normal"
         stroke-miterlimit="10.433"
         xml:space="preserve"
         transform="matrix(0.32754464,0,0,-0.32754464,-57.320312,183.32812)"
         id="g5228"><path
           style="fill:#000000;stroke-width:0"
           inkscape:connector-curvature="0"
           id="path5230"
           d="m 462.14,410.34 0.25,0.27 0.24,0.25 0.24,0.25 0.23,0.24 0.22,0.23 0.22,0.22 0.21,0.22 0.2,0.21 0.2,0.2 0.2,0.19 0.19,0.19 0.19,0.19 0.18,0.17 0.19,0.18 0.35,0.33 0.34,0.32 0.33,0.3 0.33,0.29 0.32,0.29 0.65,0.56 0.33,0.29 0.33,0.28 c 0,0.05 3.08,2.69 4.88,4.49 4.73,4.64 5.83,7.03 5.83,7.21 0,0.5 -0.46,0.5 -0.55,0.5 -0.35,0 -0.5,-0.09 -0.75,-0.54 -1.49,-2.39 -2.53,-3.19 -3.74,-3.19 -1.2,0 -1.79,0.75 -2.54,1.59 -0.94,1.16 -1.78,2.14 -3.44,2.14 -3.73,0 -6.02,-4.62 -6.02,-5.67 0,-0.25 0.14,-0.54 0.6,-0.54 0.45,0 0.54,0.25 0.64,0.54 0.95,2.3 3.84,2.35 4.23,2.35 1.05,0 2,-0.36 3.14,-0.75 2,-0.75 2.55,-0.75 3.85,-0.75 -1.8,-2.14 -5.99,-5.74 -6.92,-6.53 l -4.49,-4.18 c -3.39,-3.34 -5.14,-6.18 -5.14,-6.53 0,-0.5 0.5,-0.5 0.59,-0.5 0.41,0 0.5,0.1 0.8,0.64 1.16,1.75 2.64,3.1 4.24,3.1 1.15,0 1.65,-0.46 2.89,-1.89 0.86,-1.05 1.75,-1.85 3.18,-1.85 4.94,0 7.83,6.33 7.83,7.67 0,0.25 -0.2,0.5 -0.59,0.5 -0.46,0 -0.55,-0.29 -0.71,-0.65 -1.14,-3.24 -4.32,-4.17 -5.98,-4.17 -0.98,0 -1.89,0.29 -2.94,0.64 -1.68,0.64 -2.43,0.84 -3.48,0.84 -0.1,0 -0.89,0 -1.35,-0.14 z" /><path
           style="fill:#000000;stroke-width:0"
           inkscape:connector-curvature="0"
           id="path5232"
           d="m 488.2,410.4 h 0.25 l 0.25,-0.02 0.24,-0.03 0.24,-0.04 0.23,-0.05 0.23,-0.06 0.22,-0.07 0.21,-0.08 0.21,-0.1 0.2,-0.1 0.2,-0.12 0.19,-0.12 0.18,-0.14 0.17,-0.15 0.17,-0.16 0.16,-0.17 0.15,-0.18 0.14,-0.19 0.14,-0.2 0.13,-0.22 0.11,-0.22 0.11,-0.24 0.1,-0.24 0.09,-0.26 0.08,-0.27 0.07,-0.28 0.06,-0.29 0.05,-0.3 0.04,-0.31 0.02,-0.32 0.02,-0.33 0.01,-0.35 c 0,-4.33 -2.52,-5.61 -4.53,-5.61 -1.39,0 -4.47,0.38 -5.93,2.44 1.63,0.06 2.02,1.22 2.02,1.95 0,1.11 -0.84,1.91 -1.92,1.91 -0.97,0 -1.96,-0.59 -1.96,-2.02 0,-3.28 3.63,-5.4 7.85,-5.4 4.84,0 8.19,3.25 8.19,6.73 0,2.72 -2.22,5.44 -6.07,6.24 3.66,1.33 4.99,3.93 4.99,6.06 0,2.75 -3.17,4.81 -7.03,4.81 -3.88,0 -6.83,-1.89 -6.83,-4.67 0,-1.19 0.76,-1.84 1.81,-1.84 1.08,0 1.77,0.79 1.77,1.76 0,1.02 -0.69,1.75 -1.77,1.81 1.22,1.55 3.61,1.93 4.91,1.93 1.56,0 3.76,-0.77 3.76,-3.8 0,-1.47 -0.48,-3.06 -1.39,-4.14 -1.15,-1.33 -2.12,-1.41 -3.87,-1.5 -0.88,-0.08 -0.94,-0.08 -1.11,-0.11 -0.08,0 -0.36,-0.06 -0.36,-0.45 0,-0.49 0.31,-0.49 0.9,-0.49 z" /></g>
    </g>
    <g
       transform="matrix(1.1664,0,0,1.1664,421.07166,517.05832)"
       id="g5342"
       style="stroke-width:1.02881">
      <g
         style="font-style:normal;font-variant:normal;font-weight:normal;font-stretch:normal;letter-spacing:normal;word-spacing:normal;text-anchor:start;fill:none;stroke:#000000;stroke-width:1.14312;stroke-linecap:butt;stroke-linejoin:miter;stroke-miterlimit:10.433;stroke-dasharray:none;stroke-dashoffset:0;stroke-opacity:1"
         id="g5344"
         transform="matrix(0.32754464,0,0,-0.32754464,-57.320312,183.32812)"
         xml:space="preserve"
         stroke-miterlimit="10.433"
         font-style="normal"
         font-variant="normal"
         font-weight="normal"
         font-stretch="normal"
         font-size-adjust="none"
         letter-spacing="normal"
         word-spacing="normal"><path
           style="fill:#000000;stroke-width:0"
           inkscape:connector-curvature="0"
           d="m 462.14,410.34 0.25,0.27 0.24,0.25 0.24,0.25 0.23,0.24 0.22,0.23 0.22,0.22 0.21,0.22 0.2,0.21 0.2,0.2 0.2,0.19 0.19,0.19 0.19,0.19 0.18,0.17 0.19,0.18 0.35,0.33 0.34,0.32 0.33,0.3 0.33,0.29 0.32,0.29 0.65,0.56 0.33,0.29 0.33,0.28 c 0,0.05 3.08,2.69 4.88,4.49 4.73,4.64 5.83,7.03 5.83,7.21 0,0.5 -0.46,0.5 -0.55,0.5 -0.35,0 -0.5,-0.09 -0.75,-0.54 -1.49,-2.39 -2.53,-3.19 -3.74,-3.19 -1.2,0 -1.79,0.75 -2.54,1.59 -0.94,1.16 -1.78,2.14 -3.44,2.14 -3.73,0 -6.02,-4.62 -6.02,-5.67 0,-0.25 0.14,-0.54 0.6,-0.54 0.45,0 0.54,0.25 0.64,0.54 0.95,2.3 3.84,2.35 4.23,2.35 1.05,0 2,-0.36 3.14,-0.75 2,-0.75 2.55,-0.75 3.85,-0.75 -1.8,-2.14 -5.99,-5.74 -6.92,-6.53 l -4.49,-4.18 c -3.39,-3.34 -5.14,-6.18 -5.14,-6.53 0,-0.5 0.5,-0.5 0.59,-0.5 0.41,0 0.5,0.1 0.8,0.64 1.16,1.75 2.64,3.1 4.24,3.1 1.15,0 1.65,-0.46 2.89,-1.89 0.86,-1.05 1.75,-1.85 3.18,-1.85 4.94,0 7.83,6.33 7.83,7.67 0,0.25 -0.2,0.5 -0.59,0.5 -0.46,0 -0.55,-0.29 -0.71,-0.65 -1.14,-3.24 -4.32,-4.17 -5.98,-4.17 -0.98,0 -1.89,0.29 -2.94,0.64 -1.68,0.64 -2.43,0.84 -3.48,0.84 -0.1,0 -0.89,0 -1.35,-0.14 z"
           id="path5346" /><path
           style="fill:#000000;stroke-width:0"
           inkscape:connector-curvature="0"
           d="m 497.12,404.48 v 1.25 h -3.88 v 15.55 c 0,0.72 0,0.97 -0.76,0.97 -0.43,0 -0.57,0 -0.91,-0.49 l -11.53,-16.03 v -1.25 h 10.25 l 0.23,1.25 h -9.2 l 9.2,12.75 v -12.75 l -0.23,-1.25 v -2.86 c 0,-1.19 0,-1.61 -2.83,-1.61 h -0.94 v -1.25 c 1.74,0.06 3.97,0.14 5.22,0.14 1.3,0 3.52,-0.08 5.27,-0.14 v 1.25 h -0.94 c -2.83,0 -2.83,0.42 -2.83,1.61 v 2.86 z"
           id="path5348" /></g>
    </g>
    <g
       style="fill:#972e2e;fill-opacity:1;stroke-width:0.980392"
       transform="matrix(0.816,0,0,0.816,349.08917,443.76053)"
       id="g5602">
      <g
         style="font-style:normal;font-variant:normal;font-weight:normal;font-stretch:normal;letter-spacing:normal;word-spacing:normal;text-anchor:start;fill:#972e2e;fill-opacity:1;stroke:#000000;stroke-width:1.1534;stroke-linecap:butt;stroke-linejoin:miter;stroke-miterlimit:10.433;stroke-dasharray:none;stroke-dashoffset:0;stroke-opacity:1"
         id="g5604"
         transform="matrix(0.32754464,0,0,-0.32754464,-57.320312,183.32812)"
         xml:space="preserve"
         stroke-miterlimit="10.433"
         font-style="normal"
         font-variant="normal"
         font-weight="normal"
         font-stretch="normal"
         font-size-adjust="none"
         letter-spacing="normal"
         word-spacing="normal"><path
           style="fill:#972e2e;fill-opacity:1;stroke:#9a4747;stroke-width:0"
           inkscape:connector-curvature="0"
           d="m 477.54,440.98 -0.04,0.06 -0.03,0.06 -0.03,0.05 -0.02,0.05 -0.03,0.05 -0.03,0.05 -0.03,0.05 -0.02,0.04 -0.03,0.04 -0.03,0.04 -0.02,0.04 -0.03,0.03 -0.03,0.04 -0.03,0.03 -0.03,0.03 -0.03,0.03 -0.03,0.02 -0.04,0.03 -0.04,0.02 -0.03,0.02 -0.05,0.02 -0.04,0.01 -0.05,0.02 -0.04,0.01 -0.06,0.01 -0.05,0.01 -0.06,0.01 -0.06,0.01 h -0.07 l -0.07,0.01 h -0.07 -0.04 -0.04 c -0.85,0 -0.94,-0.25 -1.28,-0.89 l -0.32,-4.09 13.41,-26.91 h -26.86 l 13.45,26.91 0.32,4.09 -16.85,-33.78 c -0.25,-0.45 -0.25,-0.55 -0.25,-0.59 0,-0.41 0.3,-0.41 1.1,-0.41 h 34.58 c 0.79,0 1.09,0 1.09,0.41 0,0.04 0,0.14 -0.25,0.59 z"
           id="path5606" /><path
           style="fill:#972e2e;fill-opacity:1;stroke:#9a4747;stroke-width:0"
           inkscape:connector-curvature="0"
           d="m 503.66,410.34 0.25,0.27 0.24,0.25 0.24,0.25 0.23,0.24 0.22,0.23 0.22,0.22 0.21,0.22 0.2,0.21 0.2,0.2 0.2,0.19 0.19,0.19 0.19,0.19 0.18,0.17 0.19,0.18 0.35,0.33 0.34,0.32 0.33,0.3 0.33,0.29 0.32,0.29 0.65,0.56 0.33,0.29 0.33,0.28 c 0,0.05 3.08,2.69 4.88,4.49 4.73,4.64 5.82,7.03 5.82,7.21 0,0.5 -0.45,0.5 -0.54,0.5 -0.35,0 -0.5,-0.09 -0.75,-0.54 -1.49,-2.39 -2.53,-3.19 -3.74,-3.19 -1.2,0 -1.79,0.75 -2.54,1.59 -0.94,1.16 -1.78,2.14 -3.44,2.14 -3.74,0 -6.02,-4.62 -6.02,-5.67 0,-0.25 0.14,-0.54 0.6,-0.54 0.45,0 0.54,0.25 0.64,0.54 0.95,2.3 3.84,2.35 4.23,2.35 1.05,0 2,-0.36 3.14,-0.75 2,-0.75 2.55,-0.75 3.85,-0.75 -1.8,-2.14 -5.99,-5.74 -6.93,-6.53 l -4.48,-4.18 c -3.39,-3.34 -5.14,-6.18 -5.14,-6.53 0,-0.5 0.5,-0.5 0.59,-0.5 0.41,0 0.5,0.1 0.8,0.64 1.16,1.75 2.64,3.1 4.23,3.1 1.16,0 1.66,-0.46 2.9,-1.89 0.85,-1.05 1.75,-1.85 3.18,-1.85 4.94,0 7.83,6.33 7.83,7.67 0,0.25 -0.2,0.5 -0.59,0.5 -0.46,0 -0.55,-0.29 -0.71,-0.65 -1.14,-3.24 -4.32,-4.17 -5.98,-4.17 -0.98,0 -1.89,0.29 -2.94,0.64 -1.69,0.64 -2.44,0.84 -3.48,0.84 -0.1,0 -0.89,0 -1.35,-0.14 z"
           id="path5608" /><path
           style="fill:#972e2e;fill-opacity:1;stroke:#9a4747;stroke-width:0"
           inkscape:connector-curvature="0"
           d="m 531.87,420.92 v 0.04 0.04 0.05 0.04 0.03 0.04 0.04 0.03 l -0.01,0.04 v 0.03 0.03 0.03 0.03 l -0.01,0.03 v 0.03 0.02 l -0.01,0.03 v 0.02 l -0.01,0.03 v 0.02 l -0.02,0.04 -0.01,0.04 -0.02,0.03 -0.02,0.03 -0.02,0.03 -0.02,0.03 -0.03,0.02 -0.03,0.02 -0.03,0.02 -0.04,0.01 -0.04,0.01 -0.05,0.02 h -0.02 -0.02 l -0.03,0.01 h -0.03 l -0.02,0.01 h -0.03 -0.03 -0.03 -0.04 l -0.03,0.01 h -0.03 -0.04 -0.03 -0.04 -0.04 -0.04 -0.04 -0.05 -0.04 -0.05 c -2.23,-2.2 -5.39,-2.23 -6.82,-2.23 v -1.25 c 0.84,0 3.14,0 5.04,0.97 v -17.77 c 0,-1.16 0,-1.61 -3.48,-1.61 h -1.31 v -1.25 c 0.62,0.03 4.9,0.14 6.2,0.14 1.08,0 5.47,-0.11 6.23,-0.14 v 1.25 h -1.33 c -3.48,0 -3.48,0.45 -3.48,1.61 z"
           id="path5610" /></g>
    </g>
    <g
       id="g5743"
       transform="matrix(0.816,0,0,0.816,391.15406,470.93344)"
       style="fill:#9e5f00;fill-opacity:1;stroke-width:0.980392">
      <g
         word-spacing="normal"
         letter-spacing="normal"
         font-size-adjust="none"
         font-stretch="normal"
         font-weight="normal"
         font-variant="normal"
         font-style="normal"
         stroke-miterlimit="10.433"
         xml:space="preserve"
         transform="matrix(0.32754464,0,0,-0.32754464,-57.320312,183.32812)"
         id="g5745"
         style="font-style:normal;font-variant:normal;font-weight:normal;font-stretch:normal;letter-spacing:normal;word-spacing:normal;text-anchor:start;fill:#9e5f00;fill-opacity:1;stroke:#000000;stroke-width:1.1534;stroke-linecap:butt;stroke-linejoin:miter;stroke-miterlimit:10.433;stroke-dasharray:none;stroke-dashoffset:0;stroke-opacity:1"><path
           id="path5747"
           d="m 477.54,440.98 -0.04,0.06 -0.03,0.06 -0.03,0.05 -0.02,0.05 -0.03,0.05 -0.03,0.05 -0.03,0.05 -0.02,0.04 -0.03,0.04 -0.03,0.04 -0.02,0.04 -0.03,0.03 -0.03,0.04 -0.03,0.03 -0.03,0.03 -0.03,0.03 -0.03,0.02 -0.04,0.03 -0.04,0.02 -0.03,0.02 -0.05,0.02 -0.04,0.01 -0.05,0.02 -0.04,0.01 -0.06,0.01 -0.05,0.01 -0.06,0.01 -0.06,0.01 h -0.07 l -0.07,0.01 h -0.07 -0.04 -0.04 c -0.85,0 -0.94,-0.25 -1.28,-0.89 l -0.32,-4.09 13.41,-26.91 h -26.86 l 13.45,26.91 0.32,4.09 -16.85,-33.78 c -0.25,-0.45 -0.25,-0.55 -0.25,-0.59 0,-0.41 0.3,-0.41 1.1,-0.41 h 34.58 c 0.79,0 1.09,0 1.09,0.41 0,0.04 0,0.14 -0.25,0.59 z"
           inkscape:connector-curvature="0"
           style="fill:#9e5f00;fill-opacity:1;stroke:#5a6496;stroke-width:0" /><path
           id="path5749"
           d="m 503.66,410.34 0.25,0.27 0.24,0.25 0.24,0.25 0.23,0.24 0.22,0.23 0.22,0.22 0.21,0.22 0.2,0.21 0.2,0.2 0.2,0.19 0.19,0.19 0.19,0.19 0.18,0.17 0.19,0.18 0.35,0.33 0.34,0.32 0.33,0.3 0.33,0.29 0.32,0.29 0.65,0.56 0.33,0.29 0.33,0.28 c 0,0.05 3.08,2.69 4.88,4.49 4.73,4.64 5.82,7.03 5.82,7.21 0,0.5 -0.45,0.5 -0.54,0.5 -0.35,0 -0.5,-0.09 -0.75,-0.54 -1.49,-2.39 -2.53,-3.19 -3.74,-3.19 -1.2,0 -1.79,0.75 -2.54,1.59 -0.94,1.16 -1.78,2.14 -3.44,2.14 -3.74,0 -6.02,-4.62 -6.02,-5.67 0,-0.25 0.14,-0.54 0.6,-0.54 0.45,0 0.54,0.25 0.64,0.54 0.95,2.3 3.84,2.35 4.23,2.35 1.05,0 2,-0.36 3.14,-0.75 2,-0.75 2.55,-0.75 3.85,-0.75 -1.8,-2.14 -5.99,-5.74 -6.93,-6.53 l -4.48,-4.18 c -3.39,-3.34 -5.14,-6.18 -5.14,-6.53 0,-0.5 0.5,-0.5 0.59,-0.5 0.41,0 0.5,0.1 0.8,0.64 1.16,1.75 2.64,3.1 4.23,3.1 1.16,0 1.66,-0.46 2.9,-1.89 0.85,-1.05 1.75,-1.85 3.18,-1.85 4.94,0 7.83,6.33 7.83,7.67 0,0.25 -0.2,0.5 -0.59,0.5 -0.46,0 -0.55,-0.29 -0.71,-0.65 -1.14,-3.24 -4.32,-4.17 -5.98,-4.17 -0.98,0 -1.89,0.29 -2.94,0.64 -1.69,0.64 -2.44,0.84 -3.48,0.84 -0.1,0 -0.89,0 -1.35,-0.14 z"
           inkscape:connector-curvature="0"
           style="fill:#9e5f00;fill-opacity:1;stroke:#5a6496;stroke-width:0" /><path
           id="path5751"
           d="m 537.79,405.11 h -1.19 c -0.09,-0.77 -0.45,-2.83 -0.9,-3.18 -0.27,-0.2 -2.95,-0.2 -3.44,-0.2 h -6.42 c 3.66,3.23 4.88,4.2 6.97,5.84 2.58,2.07 4.98,4.22 4.98,7.54 0,4.21 -3.69,6.79 -8.15,6.79 -4.32,0 -7.25,-3.03 -7.25,-6.23 0,-1.78 1.5,-1.96 1.86,-1.96 0.82,0 1.84,0.6 1.84,1.85 0,0.62 -0.25,1.84 -2.06,1.84 1.07,2.47 3.45,3.24 5.09,3.24 3.48,0 5.3,-2.71 5.3,-5.53 0,-3.04 -2.16,-5.44 -3.28,-6.69 l -8.39,-8.3 c -0.36,-0.31 -0.36,-0.39 -0.36,-1.36 h 14.36 z"
           inkscape:connector-curvature="0"
           style="fill:#9e5f00;fill-opacity:1;stroke:#5a6496;stroke-width:0" /></g>
    </g>
    <g
       style="fill:#4e7719;fill-opacity:1;stroke-width:0.980392"
       id="g3133"
       transform="matrix(0.816,0,0,0.816,443.85801,490.77362)">
      <g
         word-spacing="normal"
         letter-spacing="normal"
         font-size-adjust="none"
         font-stretch="normal"
         font-weight="normal"
         font-variant="normal"
         font-style="normal"
         stroke-miterlimit="10.433"
         xml:space="preserve"
         transform="matrix(0.32754464,0,0,-0.32754464,-57.320312,183.32812)"
         id="g3135"
         style="font-style:normal;font-variant:normal;font-weight:normal;font-stretch:normal;letter-spacing:normal;word-spacing:normal;text-anchor:start;fill:#4e7719;fill-opacity:1;stroke:#000000;stroke-width:1.1534;stroke-linecap:butt;stroke-linejoin:miter;stroke-miterlimit:10.433;stroke-dasharray:none;stroke-dashoffset:0;stroke-opacity:1"><path
           id="path3137"
           d="m 477.54,440.98 -0.04,0.06 -0.03,0.06 -0.03,0.05 -0.02,0.05 -0.03,0.05 -0.03,0.05 -0.03,0.05 -0.02,0.04 -0.03,0.04 -0.03,0.04 -0.02,0.04 -0.03,0.03 -0.03,0.04 -0.03,0.03 -0.03,0.03 -0.03,0.03 -0.03,0.02 -0.04,0.03 -0.04,0.02 -0.03,0.02 -0.05,0.02 -0.04,0.01 -0.05,0.02 -0.04,0.01 -0.06,0.01 -0.05,0.01 -0.06,0.01 -0.06,0.01 h -0.07 l -0.07,0.01 h -0.07 -0.04 -0.04 c -0.85,0 -0.94,-0.25 -1.28,-0.89 l -0.32,-4.09 13.41,-26.91 h -26.86 l 13.45,26.91 0.32,4.09 -16.85,-33.78 c -0.25,-0.45 -0.25,-0.55 -0.25,-0.59 0,-0.41 0.3,-0.41 1.1,-0.41 h 34.58 c 0.79,0 1.09,0 1.09,0.41 0,0.04 0,0.14 -0.25,0.59 z"
           inkscape:connector-curvature="0"
           style="fill:#4e7719;fill-opacity:1;stroke:#64a01e;stroke-width:0" /><path
           id="path3139"
           d="m 503.66,410.34 0.25,0.27 0.24,0.25 0.24,0.25 0.23,0.24 0.22,0.23 0.22,0.22 0.21,0.22 0.2,0.21 0.2,0.2 0.2,0.19 0.19,0.19 0.19,0.19 0.18,0.17 0.19,0.18 0.35,0.33 0.34,0.32 0.33,0.3 0.33,0.29 0.32,0.29 0.65,0.56 0.33,0.29 0.33,0.28 c 0,0.05 3.08,2.69 4.88,4.49 4.73,4.64 5.82,7.03 5.82,7.21 0,0.5 -0.45,0.5 -0.54,0.5 -0.35,0 -0.5,-0.09 -0.75,-0.54 -1.49,-2.39 -2.53,-3.19 -3.74,-3.19 -1.2,0 -1.79,0.75 -2.54,1.59 -0.94,1.16 -1.78,2.14 -3.44,2.14 -3.74,0 -6.02,-4.62 -6.02,-5.67 0,-0.25 0.14,-0.54 0.6,-0.54 0.45,0 0.54,0.25 0.64,0.54 0.95,2.3 3.84,2.35 4.23,2.35 1.05,0 2,-0.36 3.14,-0.75 2,-0.75 2.55,-0.75 3.85,-0.75 -1.8,-2.14 -5.99,-5.74 -6.93,-6.53 l -4.48,-4.18 c -3.39,-3.34 -5.14,-6.18 -5.14,-6.53 0,-0.5 0.5,-0.5 0.59,-0.5 0.41,0 0.5,0.1 0.8,0.64 1.16,1.75 2.64,3.1 4.23,3.1 1.16,0 1.66,-0.46 2.9,-1.89 0.85,-1.05 1.75,-1.85 3.18,-1.85 4.94,0 7.83,6.33 7.83,7.67 0,0.25 -0.2,0.5 -0.59,0.5 -0.46,0 -0.55,-0.29 -0.71,-0.65 -1.14,-3.24 -4.32,-4.17 -5.98,-4.17 -0.98,0 -1.89,0.29 -2.94,0.64 -1.69,0.64 -2.44,0.84 -3.48,0.84 -0.1,0 -0.89,0 -1.35,-0.14 z"
           inkscape:connector-curvature="0"
           style="fill:#4e7719;fill-opacity:1;stroke:#64a01e;stroke-width:0" /><path
           id="path3141"
           d="m 529.72,410.4 h 0.25 l 0.25,-0.02 0.24,-0.03 0.24,-0.04 0.23,-0.05 0.23,-0.06 0.22,-0.07 0.21,-0.08 0.21,-0.1 0.2,-0.1 0.2,-0.12 0.19,-0.12 0.18,-0.14 0.17,-0.15 0.17,-0.16 0.16,-0.17 0.15,-0.18 0.14,-0.19 0.14,-0.2 0.13,-0.22 0.11,-0.22 0.11,-0.24 0.1,-0.24 0.09,-0.26 0.08,-0.27 0.07,-0.28 0.06,-0.29 0.05,-0.3 0.04,-0.31 0.02,-0.32 0.02,-0.33 0.01,-0.35 c 0,-4.33 -2.52,-5.61 -4.54,-5.61 -1.38,0 -4.46,0.38 -5.92,2.44 1.63,0.06 2.02,1.22 2.02,1.95 0,1.11 -0.85,1.91 -1.92,1.91 -0.97,0 -1.96,-0.59 -1.96,-2.02 0,-3.28 3.63,-5.4 7.85,-5.4 4.84,0 8.18,3.25 8.18,6.73 0,2.72 -2.21,5.44 -6.06,6.24 3.66,1.33 4.99,3.93 4.99,6.06 0,2.75 -3.18,4.81 -7.03,4.81 -3.88,0 -6.83,-1.89 -6.83,-4.67 0,-1.19 0.76,-1.84 1.81,-1.84 1.08,0 1.77,0.79 1.77,1.76 0,1.02 -0.69,1.75 -1.77,1.81 1.22,1.55 3.61,1.93 4.91,1.93 1.56,0 3.76,-0.77 3.76,-3.8 0,-1.47 -0.48,-3.06 -1.39,-4.14 -1.16,-1.33 -2.12,-1.41 -3.87,-1.5 -0.88,-0.08 -0.94,-0.08 -1.11,-0.11 -0.08,0 -0.36,-0.06 -0.36,-0.45 0,-0.49 0.31,-0.49 0.9,-0.49 z"
           inkscape:connector-curvature="0"
           style="fill:#4e7719;fill-opacity:1;stroke:#64a01e;stroke-width:0" /></g>
    </g>
    <path
       sodipodi:nodetypes="cc"
       style="fill:none;stroke:#65728f;stroke-width:1px;stroke-linecap:butt;stroke-linejoin:miter;stroke-opacity:1"
       d="m 509.16947,621.46768 64.55238,-15.4641"
       id="path4491"
       inkscape:connector-curvature="0" />
    <circle
       r="3.1294594"
       cy="-512.69775"
       cx="447.17227"
       id="path4188-8"
       style="fill:#ffc874;fill-opacity:1;stroke:#000000;stroke-width:1;stroke-miterlimit:4;stroke-dasharray:none;stroke-dashoffset:0;stroke-opacity:1"
       transform="scale(1,-1)" />
    <circle
       r="3.1294594"
       cy="-534.1889"
       cx="504.59451"
       id="path4188-8-7"
       style="fill:#ffd597;fill-opacity:1;stroke:#000000;stroke-width:1;stroke-miterlimit:4;stroke-dasharray:none;stroke-dashoffset:0;stroke-opacity:1"
       transform="scale(1,-1)" />
    <circle
       r="3.1294594"
       cy="-556.09814"
       cx="544.77222"
       id="path4188-6-3"
       style="fill:#82d5f0;fill-opacity:1;stroke:#000000;stroke-width:1;stroke-miterlimit:4;stroke-dasharray:none;stroke-dashoffset:0;stroke-opacity:1"
       transform="scale(1,-1)" />
    <circle
       r="3.1294594"
       cy="-474.27591"
       cx="408.63617"
       id="path4188"
       style="fill:#d39b9b;fill-opacity:1;stroke:#000000;stroke-width:1;stroke-miterlimit:4;stroke-dasharray:none;stroke-dashoffset:0;stroke-opacity:1"
       transform="scale(1,-1)" />
    <path
       style="fill:none;stroke:#a782f0;stroke-width:1.4;stroke-linecap:butt;stroke-linejoin:miter;stroke-miterlimit:4;stroke-dasharray:none;stroke-opacity:1;marker-end:url(#marker3190gE5-6T)"
       d="m 588.22394,630.36602 4.88425,20.9821"
       id="path4524-0-5"
       inkscape:connector-curvature="0"
       sodipodi:nodetypes="cc" />
    <circle
       r="3.1294594"
       cy="-656.79895"
       cx="594.46533"
       id="path4188-6"
       style="fill:#f082d9;fill-opacity:1;stroke:#000000;stroke-width:1;stroke-miterlimit:4;stroke-dasharray:none;stroke-dashoffset:0;stroke-opacity:1"
       transform="scale(1,-1)" />
    <circle
       r="3.1294594"
       cy="-629.3913"
       cx="587.7196"
       id="path4188-6-35"
       style="fill:#a782f0;fill-opacity:1;stroke:#000000;stroke-width:1;stroke-miterlimit:4;stroke-dasharray:none;stroke-dashoffset:0;stroke-opacity:1"
       transform="scale(1,-1)" />
    <g
       style="fill:#5d1bdf;fill-opacity:1;stroke-width:0.980392"
       transform="matrix(0.816,0,0,0.816,530.53599,602.92028)"
       id="g8329">
      <g
         style="font-style:normal;font-variant:normal;font-weight:normal;font-stretch:normal;letter-spacing:normal;word-spacing:normal;text-anchor:start;fill:#5d1bdf;fill-opacity:1;fill-rule:evenodd;stroke:#000000;stroke-width:1.1534;stroke-linecap:butt;stroke-linejoin:miter;stroke-miterlimit:10.433;stroke-dasharray:none;stroke-dashoffset:0;stroke-opacity:1"
         word-spacing="normal"
         letter-spacing="normal"
         font-size-adjust="none"
         font-stretch="normal"
         font-weight="normal"
         font-variant="normal"
         font-style="normal"
         stroke-miterlimit="10.433"
         xml:space="preserve"
         transform="matrix(0.30006703,0,0,-0.30006703,-52.51173,168.8187)"
         id="g8331"><path
           style="fill:#5d1bdf;fill-opacity:1;stroke-width:0"
           inkscape:connector-curvature="0"
           id="path8333"
           d="m 477.54,440.98 -0.04,0.06 -0.03,0.06 -0.03,0.05 -0.02,0.05 -0.03,0.05 -0.03,0.05 -0.03,0.05 -0.02,0.04 -0.03,0.04 -0.03,0.04 -0.02,0.04 -0.03,0.03 -0.03,0.04 -0.03,0.03 -0.03,0.03 -0.03,0.03 -0.03,0.02 -0.04,0.03 -0.04,0.02 -0.03,0.02 -0.05,0.02 -0.04,0.01 -0.05,0.02 -0.04,0.01 -0.06,0.01 -0.05,0.01 -0.06,0.01 -0.06,0.01 h -0.07 l -0.07,0.01 h -0.07 -0.04 -0.04 c -0.85,0 -0.94,-0.25 -1.28,-0.89 l -0.32,-4.09 13.41,-26.91 h -26.86 l 13.45,26.91 0.32,4.09 -16.85,-33.78 c -0.25,-0.45 -0.25,-0.55 -0.25,-0.59 0,-0.41 0.3,-0.41 1.1,-0.41 h 34.58 c 0.79,0 1.09,0 1.09,0.41 0,0.04 0,0.14 -0.25,0.59 z" /><path
           style="fill:#5d1bdf;fill-opacity:1;stroke-width:0"
           inkscape:connector-curvature="0"
           id="path8335"
           d="m 503.66,410.34 0.25,0.27 0.24,0.25 0.24,0.25 0.23,0.24 0.22,0.23 0.22,0.22 0.21,0.22 0.2,0.21 0.2,0.2 0.2,0.19 0.19,0.19 0.19,0.19 0.18,0.17 0.19,0.18 0.35,0.33 0.34,0.32 0.33,0.3 0.33,0.29 0.32,0.29 0.65,0.56 0.33,0.29 0.33,0.28 c 0,0.05 3.08,2.69 4.88,4.49 4.73,4.64 5.82,7.03 5.82,7.21 0,0.5 -0.45,0.5 -0.54,0.5 -0.35,0 -0.5,-0.09 -0.75,-0.54 -1.49,-2.39 -2.53,-3.19 -3.74,-3.19 -1.2,0 -1.79,0.75 -2.54,1.59 -0.94,1.16 -1.78,2.14 -3.44,2.14 -3.74,0 -6.02,-4.62 -6.02,-5.67 0,-0.25 0.14,-0.54 0.6,-0.54 0.45,0 0.54,0.25 0.64,0.54 0.95,2.3 3.84,2.35 4.23,2.35 1.05,0 2,-0.36 3.14,-0.75 2,-0.75 2.55,-0.75 3.85,-0.75 -1.8,-2.14 -5.99,-5.74 -6.93,-6.53 l -4.48,-4.18 c -3.39,-3.34 -5.14,-6.18 -5.14,-6.53 0,-0.5 0.5,-0.5 0.59,-0.5 0.41,0 0.5,0.1 0.8,0.64 1.16,1.75 2.64,3.1 4.23,3.1 1.16,0 1.66,-0.46 2.9,-1.89 0.85,-1.05 1.75,-1.85 3.18,-1.85 4.94,0 7.83,6.33 7.83,7.67 0,0.25 -0.2,0.5 -0.59,0.5 -0.46,0 -0.55,-0.29 -0.71,-0.65 -1.14,-3.24 -4.32,-4.17 -5.98,-4.17 -0.98,0 -1.89,0.29 -2.94,0.64 -1.69,0.64 -2.44,0.84 -3.48,0.84 -0.1,0 -0.89,0 -1.35,-0.14 z" /><path
           style="fill:#5d1bdf;fill-opacity:1;stroke-width:0"
           inkscape:connector-curvature="0"
           id="path8337"
           d="m 549.26,418.76 0.07,0.25 0.07,0.24 0.05,0.12 0.04,0.11 0.05,0.12 0.05,0.11 0.06,0.11 0.06,0.11 0.06,0.1 0.08,0.1 0.07,0.1 0.09,0.09 0.09,0.1 0.09,0.08 0.1,0.09 0.12,0.08 0.11,0.08 0.13,0.07 0.14,0.07 0.14,0.06 0.15,0.06 0.17,0.05 0.17,0.05 0.19,0.05 0.19,0.04 0.21,0.03 0.21,0.03 0.12,0.01 0.11,0.01 0.12,0.01 0.12,0.01 h 0.13 l 0.13,0.01 c 0.17,0 0.7,0.03 0.7,0.76 0,0.21 -0.17,0.49 -0.53,0.49 -1.14,0 -2.44,-0.14 -3.62,-0.14 -0.83,0 -2.85,0.14 -3.69,0.14 -0.17,0 -0.71,0 -0.71,-0.77 0,-0.45 0.46,-0.48 0.79,-0.48 1.62,-0.03 2.21,-0.56 2.21,-1.44 0,-0.26 -0.03,-0.45 -0.13,-0.83 l -3.8,-15.18 -8.85,18.1 c -0.28,0.6 -0.34,0.6 -1.18,0.6 h -4.77 c -0.67,0 -1.12,0 -1.12,-0.77 0,-0.48 0.42,-0.48 1.15,-0.48 0.74,0 1.5,-0.03 2.22,-0.17 l -4.65,-18.64 c -0.32,-1.33 -0.91,-2.38 -3.63,-2.49 -0.25,0 -0.74,-0.03 -0.74,-0.73 0,-0.38 0.29,-0.52 0.52,-0.52 1.16,0 2.44,0.14 3.63,0.14 0.84,0 2.85,-0.14 3.7,-0.14 0.34,0 0.69,0.17 0.69,0.74 0,0.48 -0.42,0.51 -0.8,0.51 -2.2,0.08 -2.2,0.99 -2.2,1.47 0,0.14 0,0.31 0.14,0.88 l 4.47,17.82 10.17,-20.82 c 0.28,-0.57 0.42,-0.6 0.76,-0.6 0.57,0 0.57,0.11 0.74,0.74 z" /><path
           style="fill:#5d1bdf;fill-opacity:1;stroke-width:0"
           inkscape:connector-curvature="0"
           id="path8339"
           d="m 581.4,406.64 h 0.06 0.05 0.11 0.12 l 0.06,0.01 h 0.06 l 0.06,0.01 h 0.05 l 0.06,0.01 0.06,0.01 0.06,0.01 0.05,0.02 0.06,0.01 0.05,0.02 0.05,0.02 0.05,0.03 0.05,0.02 0.04,0.03 0.04,0.04 0.04,0.03 0.04,0.04 0.02,0.02 0.01,0.02 0.02,0.03 0.02,0.02 0.01,0.02 0.01,0.03 0.02,0.03 0.01,0.02 0.01,0.03 0.01,0.03 v 0.03 l 0.01,0.03 0.01,0.04 v 0.03 l 0.01,0.04 v 0.03 0.04 0.04 c 0,0.86 -0.79,0.86 -1.39,0.86 h -20.76 c -0.57,0 -1.39,0 -1.39,-0.83 0,-0.87 0.79,-0.87 1.39,-0.87 z" /><path
           style="fill:#5d1bdf;fill-opacity:1;stroke-width:0"
           inkscape:connector-curvature="0"
           id="path8341"
           d="m 598.23,420.92 v 0.04 0.04 0.05 0.04 0.03 0.04 0.04 0.03 l -0.01,0.04 v 0.03 0.03 0.03 0.03 l -0.01,0.03 v 0.03 l -0.01,0.02 v 0.03 0.02 l -0.01,0.03 v 0.02 l -0.02,0.04 -0.01,0.04 -0.02,0.03 -0.02,0.03 -0.02,0.03 -0.02,0.03 -0.03,0.02 -0.03,0.02 -0.04,0.02 -0.03,0.01 -0.04,0.01 -0.05,0.02 h -0.02 -0.03 l -0.02,0.01 h -0.03 l -0.02,0.01 h -0.03 -0.03 -0.03 -0.04 l -0.03,0.01 h -0.03 -0.04 -0.04 -0.03 -0.04 -0.04 -0.04 -0.05 -0.04 -0.05 c -2.23,-2.2 -5.39,-2.23 -6.83,-2.23 v -1.25 c 0.85,0 3.15,0 5.05,0.97 v -17.77 c 0,-1.16 0,-1.61 -3.48,-1.61 h -1.32 v -1.25 c 0.63,0.03 4.91,0.14 6.21,0.14 1.08,0 5.47,-0.11 6.23,-0.14 v 1.25 h -1.32 c -3.49,0 -3.49,0.45 -3.49,1.61 z" /></g>
    </g>
    <g
       transform="matrix(1.08,0,0,1.08,475.64486,611.50134)"
       id="g8545"
       style="stroke-width:0.925925">
      <g
         style="font-style:normal;font-variant:normal;font-weight:normal;font-stretch:normal;letter-spacing:normal;word-spacing:normal;text-anchor:start;fill:none;fill-opacity:1;fill-rule:evenodd;stroke:#000000;stroke-width:1.02881;stroke-linecap:butt;stroke-linejoin:miter;stroke-miterlimit:10.433;stroke-dasharray:none;stroke-dashoffset:0;stroke-opacity:1"
         id="g8547"
         transform="matrix(0.30006703,0,0,-0.30006703,-52.51173,168.8187)"
         xml:space="preserve"
         stroke-miterlimit="10.433"
         font-style="normal"
         font-variant="normal"
         font-weight="normal"
         font-stretch="normal"
         font-size-adjust="none"
         letter-spacing="normal"
         word-spacing="normal"><path
           style="fill:#000000;stroke-width:0"
           inkscape:connector-curvature="0"
           d="m 462.14,410.34 0.25,0.27 0.24,0.25 0.24,0.25 0.23,0.24 0.22,0.23 0.22,0.22 0.21,0.22 0.2,0.21 0.2,0.2 0.2,0.19 0.19,0.19 0.19,0.19 0.18,0.17 0.19,0.18 0.35,0.33 0.34,0.32 0.33,0.3 0.33,0.29 0.32,0.29 0.65,0.56 0.33,0.29 0.33,0.28 c 0,0.05 3.08,2.69 4.88,4.49 4.73,4.64 5.83,7.03 5.83,7.21 0,0.5 -0.46,0.5 -0.55,0.5 -0.35,0 -0.5,-0.09 -0.75,-0.54 -1.49,-2.39 -2.53,-3.19 -3.74,-3.19 -1.2,0 -1.79,0.75 -2.54,1.59 -0.94,1.16 -1.78,2.14 -3.44,2.14 -3.73,0 -6.02,-4.62 -6.02,-5.67 0,-0.25 0.14,-0.54 0.6,-0.54 0.45,0 0.54,0.25 0.64,0.54 0.95,2.3 3.84,2.35 4.23,2.35 1.05,0 2,-0.36 3.14,-0.75 2,-0.75 2.55,-0.75 3.85,-0.75 -1.8,-2.14 -5.99,-5.74 -6.92,-6.53 l -4.49,-4.18 c -3.39,-3.34 -5.14,-6.18 -5.14,-6.53 0,-0.5 0.5,-0.5 0.59,-0.5 0.41,0 0.5,0.1 0.8,0.64 1.16,1.75 2.64,3.1 4.24,3.1 1.15,0 1.65,-0.46 2.89,-1.89 0.86,-1.05 1.75,-1.85 3.18,-1.85 4.94,0 7.83,6.33 7.83,7.67 0,0.25 -0.2,0.5 -0.59,0.5 -0.46,0 -0.55,-0.29 -0.71,-0.65 -1.14,-3.24 -4.32,-4.17 -5.98,-4.17 -0.98,0 -1.89,0.29 -2.94,0.64 -1.68,0.64 -2.43,0.84 -3.48,0.84 -0.1,0 -0.89,0 -1.35,-0.14 z"
           id="path8549" /><path
           style="fill:#000000;stroke-width:0"
           inkscape:connector-curvature="0"
           d="m 507.74,418.76 0.07,0.25 0.08,0.24 0.04,0.12 0.04,0.11 0.05,0.12 0.05,0.11 0.06,0.11 0.06,0.11 0.07,0.1 0.07,0.1 0.07,0.1 0.09,0.09 0.09,0.1 0.09,0.08 0.1,0.09 0.12,0.08 0.11,0.08 0.13,0.07 0.14,0.07 0.14,0.06 0.15,0.06 0.17,0.05 0.17,0.05 0.19,0.05 0.19,0.04 0.21,0.03 0.21,0.03 0.12,0.01 0.11,0.01 0.12,0.01 0.13,0.01 h 0.12 l 0.13,0.01 c 0.17,0 0.7,0.03 0.7,0.76 0,0.21 -0.17,0.49 -0.53,0.49 -1.14,0 -2.44,-0.14 -3.62,-0.14 -0.83,0 -2.85,0.14 -3.69,0.14 -0.17,0 -0.7,0 -0.7,-0.77 0,-0.45 0.45,-0.48 0.78,-0.48 1.62,-0.03 2.22,-0.56 2.22,-1.44 0,-0.26 -0.04,-0.45 -0.14,-0.83 l -3.8,-15.18 -8.85,18.1 c -0.28,0.6 -0.34,0.6 -1.18,0.6 h -4.77 c -0.67,0 -1.12,0 -1.12,-0.77 0,-0.48 0.42,-0.48 1.15,-0.48 0.74,0 1.5,-0.03 2.22,-0.17 l -4.65,-18.64 c -0.32,-1.33 -0.91,-2.38 -3.63,-2.49 -0.25,0 -0.73,-0.03 -0.73,-0.73 0,-0.38 0.28,-0.52 0.51,-0.52 1.16,0 2.44,0.14 3.63,0.14 0.84,0 2.86,-0.14 3.7,-0.14 0.34,0 0.69,0.17 0.69,0.74 0,0.48 -0.42,0.51 -0.8,0.51 -2.2,0.08 -2.2,0.99 -2.2,1.47 0,0.14 0,0.31 0.14,0.88 l 4.47,17.82 10.17,-20.82 c 0.28,-0.57 0.42,-0.6 0.76,-0.6 0.57,0 0.57,0.11 0.74,0.74 z"
           id="path8551" /></g>
    </g>
    <g
       id="g8788"
       transform="matrix(1.08,0,0,1.08,352.86984,583.89016)"
       style="stroke-width:0.925925">
      <g
         word-spacing="normal"
         letter-spacing="normal"
         font-size-adjust="none"
         font-stretch="normal"
         font-weight="normal"
         font-variant="normal"
         font-style="normal"
         stroke-miterlimit="10.433"
         xml:space="preserve"
         transform="matrix(0.29767137,0,0,-0.29767137,-52.09249,162.9682)"
         id="g8790"
         style="font-style:normal;font-variant:normal;font-weight:normal;font-stretch:normal;letter-spacing:normal;word-spacing:normal;text-anchor:start;fill:none;fill-opacity:1;fill-rule:evenodd;stroke:#000000;stroke-width:1.02881;stroke-linecap:butt;stroke-linejoin:miter;stroke-miterlimit:10.433;stroke-dasharray:none;stroke-dashoffset:0;stroke-opacity:1"><path
           id="path8792"
           d="m 458.32,423.23 0.02,-0.96 0.07,-0.94 0.11,-0.93 0.16,-0.91 0.2,-0.89 0.24,-0.87 0.28,-0.85 0.32,-0.83 0.36,-0.81 0.39,-0.78 0.43,-0.76 0.46,-0.74 0.49,-0.7 0.52,-0.68 0.55,-0.66 0.59,-0.62 0.6,-0.59 0.64,-0.56 0.66,-0.53 0.68,-0.5 0.7,-0.46 0.73,-0.43 0.74,-0.39 0.77,-0.35 0.78,-0.32 0.79,-0.28 0.82,-0.23 0.82,-0.2 0.84,-0.15 0.84,-0.11 0.86,-0.07 0.86,-0.02 c 8.13,0 13,6.92 13,12.7 0,0.5 0,0.84 -0.64,0.84 -0.54,0 -0.54,-0.29 -0.59,-0.79 -0.41,-7.13 -5.73,-11.21 -11.17,-11.21 -3.03,0 -12.8,1.69 -12.8,16.53 0,14.91 9.72,16.6 12.75,16.6 5.44,0 9.88,-4.53 10.86,-11.82 0.11,-0.68 0.11,-0.84 0.8,-0.84 0.79,0 0.79,0.16 0.79,1.2 v 11.8 c 0,0.86 0,1.2 -0.54,1.2 -0.19,0 -0.39,0 -0.8,-0.59 l -2.48,-3.69 c -1.85,1.8 -4.39,4.28 -9.18,4.28 -9.31,0 -17.32,-7.92 -17.32,-18.09 z"
           inkscape:connector-curvature="0"
           style="fill:#000000;stroke-width:0" /><path
           id="path8794"
           d="m 514.99,416.86 -0.02,0.59 -0.04,0.59 -0.07,0.58 -0.1,0.57 -0.12,0.56 -0.15,0.55 -0.18,0.54 -0.2,0.53 -0.22,0.51 -0.24,0.5 -0.27,0.49 -0.29,0.47 -0.31,0.46 -0.32,0.44 -0.35,0.43 -0.37,0.4 -0.38,0.39 -0.4,0.37 -0.42,0.35 -0.43,0.32 -0.45,0.31 -0.46,0.28 -0.47,0.26 -0.49,0.24 -0.5,0.21 -0.51,0.18 -0.52,0.16 -0.53,0.13 -0.54,0.11 -0.55,0.07 -0.55,0.05 -0.57,0.01 -0.04,-1.09 c 2.18,0 4.32,-1.1 5.62,-3.24 1.3,-2.14 1.3,-5.03 1.3,-6.92 0,-1.8 0,-4.48 -1.1,-6.67 -1.09,-2.25 -3.28,-3.69 -5.78,-3.69 v 0 c -2.14,0 -4.33,1.05 -5.67,3.33 -1.25,2.2 -1.25,5.23 -1.25,7.03 0,1.94 0,4.63 1.19,6.83 1.36,2.28 3.69,3.33 5.69,3.33 l 0.04,1.09 c -6.22,0 -11.06,-5.42 -11.06,-11.65 0,-6.43 5.19,-11.21 11.02,-11.21 6.03,0 11.06,4.88 11.06,11.21 z"
           inkscape:connector-curvature="0"
           style="fill:#000000;stroke-width:0" /><path
           id="path8796"
           d="m 521.96,423.34 v -13.36 c 0,-2.23 -0.55,-2.23 -3.89,-2.23 v -1.55 c 1.75,0.05 4.28,0.16 5.63,0.16 1.29,0 3.89,-0.11 5.57,-0.16 v 1.55 c -3.32,0 -3.87,0 -3.87,2.23 v 9.17 c 0,5.19 3.53,7.97 6.72,7.97 3.14,0 3.68,-2.69 3.68,-5.53 v -11.61 c 0,-2.23 -0.54,-2.23 -3.89,-2.23 v -1.55 c 1.75,0.05 4.3,0.16 5.64,0.16 1.3,0 3.88,-0.11 5.58,-0.16 v 1.55 c -2.59,0 -3.84,0 -3.89,1.5 v 9.51 c 0,4.28 0,5.83 -1.54,7.61 -0.69,0.86 -2.35,1.84 -5.22,1.84 -3.64,0 -5.99,-2.14 -7.38,-5.21 v 5.21 l -7.03,-0.54 v -1.55 c 3.48,0 3.89,-0.34 3.89,-2.78 z"
           inkscape:connector-curvature="0"
           style="fill:#000000;stroke-width:0" /><path
           id="path8798"
           d="m 551.38,426.12 h 7.12 v 1.55 h -7.12 v 9.17 h -1.25 c -0.05,-4.08 -1.55,-9.42 -6.42,-9.61 v -1.11 h 4.23 v -13.75 c 0,-6.12 4.63,-6.72 6.42,-6.72 3.54,0 4.94,3.53 4.94,6.72 v 2.84 h -1.25 v -2.73 c 0,-3.69 -1.5,-5.58 -3.34,-5.58 -3.33,0 -3.33,4.53 -3.33,5.38 z"
           inkscape:connector-curvature="0"
           style="fill:#000000;stroke-width:0" /><path
           id="path8800"
           d="m 585.54,416.86 -0.02,0.59 -0.04,0.59 -0.07,0.58 -0.1,0.57 -0.12,0.56 -0.15,0.55 -0.18,0.54 -0.19,0.53 -0.23,0.51 -0.24,0.5 -0.27,0.49 -0.29,0.47 -0.3,0.46 -0.33,0.44 -0.35,0.43 -0.37,0.4 -0.38,0.39 -0.4,0.37 -0.42,0.35 -0.43,0.32 -0.45,0.31 -0.46,0.28 -0.47,0.26 -0.49,0.24 -0.5,0.21 -0.51,0.18 -0.52,0.16 -0.53,0.13 -0.54,0.11 -0.55,0.07 -0.55,0.05 -0.57,0.01 -0.04,-1.09 c 2.18,0 4.32,-1.1 5.62,-3.24 1.3,-2.14 1.3,-5.03 1.3,-6.92 0,-1.8 0,-4.48 -1.1,-6.67 -1.09,-2.25 -3.28,-3.69 -5.78,-3.69 v 0 c -2.14,0 -4.32,1.05 -5.67,3.33 -1.25,2.2 -1.25,5.23 -1.25,7.03 0,1.94 0,4.63 1.19,6.83 1.36,2.28 3.69,3.33 5.69,3.33 l 0.04,1.09 c -6.22,0 -11.06,-5.42 -11.06,-11.65 0,-6.43 5.19,-11.21 11.02,-11.21 6.03,0 11.06,4.88 11.06,11.21 z"
           inkscape:connector-curvature="0"
           style="fill:#000000;stroke-width:0" /><path
           id="path8802"
           d="m 606.51,410.14 v -4.49 l 7.17,0.55 v 1.55 c -3.48,0 -3.89,0.34 -3.89,2.78 v 17.68 l -7.32,-0.54 v -1.55 c 3.5,0 3.88,-0.34 3.88,-2.78 v -8.88 c 0,-4.32 -2.38,-7.71 -6.03,-7.71 -4.17,0 -4.37,2.34 -4.37,4.93 v 16.53 l -7.33,-0.54 v -1.55 c 3.89,0 3.89,-0.14 3.89,-4.58 v -7.47 c 0,-3.89 0,-8.42 7.56,-8.42 2.8,0 4.99,1.39 6.44,4.49 z"
           inkscape:connector-curvature="0"
           style="fill:#000000;stroke-width:0" /><path
           id="path8804"
           d="m 623.06,422.75 v 5.46 l -6.92,-0.54 v -1.55 c 3.48,0 3.89,-0.34 3.89,-2.78 v -13.36 c 0,-2.23 -0.55,-2.23 -3.89,-2.23 v -1.55 c 1.95,0.05 4.28,0.16 5.68,0.16 1.99,0 4.33,0 6.33,-0.16 v 1.55 h -1.05 c -3.68,0 -3.79,0.54 -3.79,2.34 v 7.67 c 0,4.92 2.09,9.36 5.89,9.36 0.34,0 0.44,0 0.55,-0.05 -0.16,-0.04 -1.16,-0.64 -1.16,-1.93 0,-1.41 1.05,-2.14 2.16,-2.14 0.89,0 2.14,0.59 2.14,2.18 0,1.6 -1.55,3.03 -3.69,3.03 -3.64,0 -5.44,-3.32 -6.14,-5.46 z"
           inkscape:connector-curvature="0"
           style="fill:#000000;stroke-width:0" /></g>
    </g>
    <g
       id="g1910"
       transform="matrix(1.6822692,0,0,1.6822692,454.02327,350.51818)"
       inkscape:label=""
       style="stroke-width:0.594435">
      <g
         id="g231"
         style="stroke-width:0.594435">
        <g
           style="fill:#000000;fill-opacity:1;stroke-width:0.594435"
           id="g3909">
          <use
             xlink:href="#symbol4981"
             x="95.012001"
             y="80.369003"
             id="use6304"
             width="100%"
             height="100%"
             style="stroke-width:0.594435" />
        </g>
        <g
           style="fill:#000000;fill-opacity:1;stroke-width:0.594435"
           id="g3035">
          <use
             xlink:href="#symbol9878"
             x="99.644997"
             y="81.862999"
             id="use1986"
             width="100%"
             height="100%"
             style="stroke-width:0.594435" />
        </g>
        <g
           style="fill:#000000;fill-opacity:1;stroke-width:0.594435"
           id="g3189">
          <use
             xlink:href="#symbol2312"
             x="106.882"
             y="80.369003"
             id="use6612"
             width="100%"
             height="100%"
             style="stroke-width:0.594435" />
        </g>
        <g
           style="fill:#000000;fill-opacity:1;stroke-width:0.594435"
           id="g3782">
          <use
             xlink:href="#symbol4981"
             x="117.398"
             y="80.369003"
             id="use242"
             width="100%"
             height="100%"
             style="stroke-width:0.594435" />
        </g>
        <g
           style="fill:#000000;fill-opacity:1;stroke-width:0.594435"
           id="g6877">
          <use
             xlink:href="#symbol5186"
             x="122.031"
             y="81.862999"
             id="use2015"
             width="100%"
             height="100%"
             style="stroke-width:0.594435" />
        </g>
        <g
           style="fill:#000000;fill-opacity:1;stroke-width:0.594435"
           id="g787">
          <use
             xlink:href="#symbol9284"
             x="128.715"
             y="80.369003"
             id="use2054"
             width="100%"
             height="100%"
             style="stroke-width:0.594435" />
        </g>
        <g
           style="fill:#000000;fill-opacity:1;stroke-width:0.594435"
           id="g6581">
          <use
             xlink:href="#symbol5396"
             x="138.67561"
             y="80.369003"
             id="use5298"
             width="100%"
             height="100%"
             style="stroke-width:0.594435" />
        </g>
        <g
           style="fill:#000000;fill-opacity:1;stroke-width:0.594435"
           id="g2795">
          <use
             xlink:href="#symbol4981"
             x="146.979"
             y="80.369003"
             id="use7585"
             width="100%"
             height="100%"
             style="stroke-width:0.594435" />
        </g>
        <g
           style="fill:#000000;fill-opacity:1;stroke-width:0.594435"
           id="g5538">
          <use
             xlink:href="#symbol5186"
             x="151.612"
             y="81.862999"
             id="use9781"
             width="100%"
             height="100%"
             style="stroke-width:0.594435" />
        </g>
        <g
           style="fill:#000000;fill-opacity:1;stroke-width:0.594435"
           id="g207">
          <use
             xlink:href="#symbol6023"
             x="156.082"
             y="80.369003"
             id="use6068"
             width="100%"
             height="100%"
             style="stroke-width:0.594435" />
        </g>
        <g
           style="fill:#000000;fill-opacity:1;stroke-width:0.594435"
           id="g3165">
          <use
             xlink:href="#symbol4981"
             x="95.012001"
             y="95.313004"
             id="use3477"
             width="100%"
             height="100%"
             style="stroke-width:0.594435" />
        </g>
        <g
           style="fill:#000000;fill-opacity:1;stroke-width:0.594435"
           id="g1701">
          <use
             xlink:href="#symbol8893"
             x="99.644997"
             y="96.806999"
             id="use7266"
             width="100%"
             height="100%"
             style="stroke-width:0.594435" />
        </g>
        <g
           style="fill:#000000;fill-opacity:1;stroke-width:0.594435"
           id="g2041">
          <use
             xlink:href="#symbol2312"
             x="106.882"
             y="95.313004"
             id="use9380"
             width="100%"
             height="100%"
             style="stroke-width:0.594435" />
        </g>
        <g
           style="fill:#000000;fill-opacity:1;stroke-width:0.594435"
           id="g2981">
          <use
             xlink:href="#symbol4981"
             x="117.398"
             y="95.313004"
             id="use5830"
             width="100%"
             height="100%"
             style="stroke-width:0.594435" />
        </g>
        <g
           style="fill:#000000;fill-opacity:1;stroke-width:0.594435"
           id="g732">
          <use
             xlink:href="#symbol9878"
             x="122.031"
             y="96.806999"
             id="use8887"
             width="100%"
             height="100%"
             style="stroke-width:0.594435" />
        </g>
        <g
           style="fill:#000000;fill-opacity:1;stroke-width:0.594435"
           id="g8383">
          <use
             xlink:href="#symbol9284"
             x="128.715"
             y="95.313004"
             id="use7868"
             width="100%"
             height="100%"
             style="stroke-width:0.594435" />
        </g>
        <g
           style="fill:#000000;fill-opacity:1;stroke-width:0.594435"
           id="g871">
          <use
             xlink:href="#symbol5396"
             x="138.67561"
             y="95.313004"
             id="use3628"
             width="100%"
             height="100%"
             style="stroke-width:0.594435" />
        </g>
        <g
           style="fill:#000000;fill-opacity:1;stroke-width:0.594435"
           id="g7751">
          <use
             xlink:href="#symbol4981"
             x="146.979"
             y="95.313004"
             id="use5627"
             width="100%"
             height="100%"
             style="stroke-width:0.594435" />
        </g>
        <g
           style="fill:#000000;fill-opacity:1;stroke-width:0.594435"
           id="g9168">
          <use
             xlink:href="#symbol9878"
             x="151.612"
             y="96.806999"
             id="use6540"
             width="100%"
             height="100%"
             style="stroke-width:0.594435" />
        </g>
        <g
           style="fill:#000000;fill-opacity:1;stroke-width:0.594435"
           id="g6107">
          <use
             xlink:href="#symbol6023"
             x="156.082"
             y="95.313004"
             id="use4945"
             width="100%"
             height="100%"
             style="stroke-width:0.594435" />
        </g>
        <g
           style="fill:#000000;fill-opacity:1;stroke-width:0.594435"
           id="g4112">
          <use
             xlink:href="#symbol4981"
             x="95.012001"
             y="110.257"
             id="use3987"
             width="100%"
             height="100%"
             style="stroke-width:0.594435" />
        </g>
        <g
           style="fill:#000000;fill-opacity:1;stroke-width:0.594435"
           id="g5029">
          <use
             xlink:href="#symbol8878"
             x="99.644997"
             y="111.751"
             id="use5599"
             width="100%"
             height="100%"
             style="stroke-width:0.594435" />
        </g>
        <g
           style="fill:#000000;fill-opacity:1;stroke-width:0.594435"
           id="g6497">
          <use
             xlink:href="#symbol2312"
             x="106.882"
             y="110.257"
             id="use8818"
             width="100%"
             height="100%"
             style="stroke-width:0.594435" />
        </g>
        <g
           style="fill:#000000;fill-opacity:1;stroke-width:0.594435"
           id="g1123">
          <use
             xlink:href="#symbol4981"
             x="117.398"
             y="110.257"
             id="use2304"
             width="100%"
             height="100%"
             style="stroke-width:0.594435" />
        </g>
        <g
           style="fill:#000000;fill-opacity:1;stroke-width:0.594435"
           id="g455">
          <use
             xlink:href="#symbol8893"
             x="122.031"
             y="111.751"
             id="use3340"
             width="100%"
             height="100%"
             style="stroke-width:0.594435" />
        </g>
        <g
           style="fill:#000000;fill-opacity:1;stroke-width:0.594435"
           id="g8607">
          <use
             xlink:href="#symbol9284"
             x="128.715"
             y="110.257"
             id="use562"
             width="100%"
             height="100%"
             style="stroke-width:0.594435" />
        </g>
        <g
           style="fill:#000000;fill-opacity:1;stroke-width:0.594435"
           id="g84">
          <use
             xlink:href="#symbol5396"
             x="138.67561"
             y="110.257"
             id="use2957"
             width="100%"
             height="100%"
             style="stroke-width:0.594435" />
        </g>
        <g
           style="fill:#000000;fill-opacity:1;stroke-width:0.594435"
           id="g4196">
          <use
             xlink:href="#symbol4981"
             x="146.979"
             y="110.257"
             id="use5273"
             width="100%"
             height="100%"
             style="stroke-width:0.594435" />
        </g>
        <g
           style="fill:#000000;fill-opacity:1;stroke-width:0.594435"
           id="g8701">
          <use
             xlink:href="#symbol8893"
             x="151.612"
             y="111.751"
             id="use7577"
             width="100%"
             height="100%"
             style="stroke-width:0.594435" />
        </g>
        <g
           style="fill:#000000;fill-opacity:1;stroke-width:0.594435"
           id="g2658">
          <use
             xlink:href="#symbol6023"
             x="156.082"
             y="110.257"
             id="use9891"
             width="100%"
             height="100%"
             style="stroke-width:0.594435" />
        </g>
        <g
           style="fill:#000000;fill-opacity:1;stroke-width:0.594435"
           id="g5711">
          <use
             xlink:href="#symbol3978"
             x="101.347"
             y="123.861"
             id="use4481"
             width="100%"
             height="100%"
             style="stroke-width:0.594435" />
        </g>
        <g
           style="fill:#000000;fill-opacity:1;stroke-width:0.594435"
           id="g4354">
          <use
             xlink:href="#symbol3978"
             x="101.347"
             y="127.846"
             id="use524"
             width="100%"
             height="100%"
             style="stroke-width:0.594435" />
        </g>
        <g
           style="fill:#000000;fill-opacity:1;stroke-width:0.594435"
           id="g9388">
          <use
             xlink:href="#symbol3978"
             x="101.347"
             y="131.83099"
             id="use9945"
             width="100%"
             height="100%"
             style="stroke-width:0.594435" />
        </g>
        <g
           style="fill:#000000;fill-opacity:1;stroke-width:0.594435"
           id="g597">
          <use
             xlink:href="#symbol2312"
             x="106.88422"
             y="131.83099"
             id="use8191"
             width="100%"
             height="100%"
             style="stroke-width:0.594435" />
        </g>
        <g
           style="fill:#000000;fill-opacity:1;stroke-width:0.594435"
           id="g4058">
          <use
             xlink:href="#symbol3978"
             x="117.398"
             y="123.861"
             id="use1192"
             width="100%"
             height="100%"
             style="stroke-width:0.594435" />
        </g>
        <g
           style="fill:#000000;fill-opacity:1;stroke-width:0.594435"
           id="g5780">
          <use
             xlink:href="#symbol3978"
             x="117.398"
             y="127.846"
             id="use2605"
             width="100%"
             height="100%"
             style="stroke-width:0.594435" />
        </g>
        <g
           style="fill:#000000;fill-opacity:1;stroke-width:0.594435"
           id="g2776">
          <use
             xlink:href="#symbol3978"
             x="117.398"
             y="131.83099"
             id="use7179"
             width="100%"
             height="100%"
             style="stroke-width:0.594435" />
        </g>
        <g
           style="fill:#000000;fill-opacity:1;stroke-width:0.594435"
           id="g1624">
          <use
             xlink:href="#symbol4981"
             x="91.925003"
             y="146.77499"
             id="use7677"
             width="100%"
             height="100%"
             style="stroke-width:0.594435" />
        </g>
        <g
           style="fill:#000000;fill-opacity:1;stroke-width:0.594435"
           id="g2275">
          <use
             xlink:href="#symbol9290"
             x="96.557999"
             y="148.27"
             id="use9149"
             width="100%"
             height="100%"
             style="stroke-width:0.594435" />
        </g>
        <g
           style="fill:#000000;fill-opacity:1;stroke-width:0.594435"
           id="g723">
          <use
             xlink:href="#symbol2312"
             x="106.882"
             y="146.77499"
             id="use9132"
             width="100%"
             height="100%"
             style="stroke-width:0.594435" />
        </g>
        <g
           style="fill:#000000;fill-opacity:1;stroke-width:0.594435"
           id="g1417">
          <use
             xlink:href="#symbol4981"
             x="117.398"
             y="146.77499"
             id="use8797"
             width="100%"
             height="100%"
             style="stroke-width:0.594435" />
        </g>
        <g
           style="fill:#000000;fill-opacity:1;stroke-width:0.594435"
           id="g804">
          <use
             xlink:href="#symbol9290"
             x="122.031"
             y="148.27"
             id="use3370"
             width="100%"
             height="100%"
             style="stroke-width:0.594435" />
        </g>
        <g
           style="fill:#000000;fill-opacity:1;stroke-width:0.594435"
           id="g2246">
          <use
             xlink:href="#symbol2650"
             x="129.089"
             y="148.27"
             id="use6518"
             width="100%"
             height="100%"
             style="stroke-width:0.594435" />
        </g>
        <g
           style="fill:#000000;fill-opacity:1;stroke-width:0.594435"
           id="g8636">
          <use
             xlink:href="#symbol5186"
             x="135.31599"
             y="148.27"
             id="use6152"
             width="100%"
             height="100%"
             style="stroke-width:0.594435" />
        </g>
        <g
           style="fill:#000000;fill-opacity:1;stroke-width:0.594435"
           id="g3621">
          <use
             xlink:href="#symbol9284"
             x="141.99899"
             y="146.77499"
             id="use3991"
             width="100%"
             height="100%"
             style="stroke-width:0.594435" />
        </g>
        <g
           style="fill:#000000;fill-opacity:1;stroke-width:0.594435"
           id="g6536">
          <use
             xlink:href="#symbol5396"
             x="151.95961"
             y="146.77499"
             id="use3426"
             width="100%"
             height="100%"
             style="stroke-width:0.594435" />
        </g>
        <g
           style="fill:#000000;fill-opacity:1;stroke-width:0.594435"
           id="g1608">
          <use
             xlink:href="#symbol4981"
             x="160.26401"
             y="146.77499"
             id="use8771"
             width="100%"
             height="100%"
             style="stroke-width:0.594435" />
        </g>
        <g
           style="fill:#000000;fill-opacity:1;stroke-width:0.594435"
           id="g5137">
          <use
             xlink:href="#symbol9290"
             x="164.897"
             y="148.27"
             id="use6223"
             width="100%"
             height="100%"
             style="stroke-width:0.594435" />
        </g>
        <g
           style="fill:#000000;fill-opacity:1;stroke-width:0.594435"
           id="g9981">
          <use
             xlink:href="#symbol2650"
             x="171.95599"
             y="148.27"
             id="use5594"
             width="100%"
             height="100%"
             style="stroke-width:0.594435" />
        </g>
        <g
           style="fill:#000000;fill-opacity:1;stroke-width:0.594435"
           id="g7885">
          <use
             xlink:href="#symbol5186"
             x="178.18201"
             y="148.27"
             id="use4564"
             width="100%"
             height="100%"
             style="stroke-width:0.594435" />
        </g>
        <g
           style="fill:#000000;fill-opacity:1;stroke-width:0.594435"
           id="g4747">
          <use
             xlink:href="#symbol7751"
             x="182.65199"
             y="146.77499"
             id="use411"
             width="100%"
             height="100%"
             style="stroke-width:0.594435" />
        </g>
      </g>
    </g>
  </g>
</svg>
