<?xml version="1.0" encoding="UTF-8" standalone="no"?>
<svg
   xmlns:dc="http://purl.org/dc/elements/1.1/"
   xmlns:cc="http://creativecommons.org/ns#"
   xmlns:rdf="http://www.w3.org/1999/02/22-rdf-syntax-ns#"
   xmlns:svg="http://www.w3.org/2000/svg"
   xmlns="http://www.w3.org/2000/svg"
   xmlns:xlink="http://www.w3.org/1999/xlink"
   xmlns:sodipodi="http://sodipodi.sourceforge.net/DTD/sodipodi-0.dtd"
   xmlns:inkscape="http://www.inkscape.org/namespaces/inkscape"
   width="229.59999"
   height="168"
   id="svg2"
   version="1.1"
   inkscape:version="1.0 (4035a4fb49, 2020-05-01)"
   sodipodi:docname="complex_derivative.svg"
   inkscape:export-filename="/home/cyd/jupyter/MH2801/img/complex_derivative.png"
   inkscape:export-xdpi="200"
   inkscape:export-ydpi="200">
  <sodipodi:namedview
     inkscape:document-rotation="0"
     fit-margin-bottom="0"
     fit-margin-right="0"
     fit-margin-left="0"
     fit-margin-top="0"
     inkscape:window-maximized="1"
     inkscape:window-y="0"
     inkscape:window-x="0"
     inkscape:window-height="1026"
     inkscape:window-width="1920"
     showgrid="false"
     inkscape:current-layer="layer1"
     inkscape:document-units="px"
     inkscape:cy="41.435646"
     inkscape:cx="140.47097"
     inkscape:zoom="1"
     inkscape:pageshadow="2"
     inkscape:pageopacity="0.0"
     borderopacity="1.0"
     bordercolor="#666666"
     pagecolor="#ffffff"
     id="base" />
  <defs
     id="defs4">
    <marker
       style="overflow:visible"
       id="Arrow2Mstart"
       refX="0.0"
       refY="0.0"
       orient="auto"
       inkscape:stockid="Arrow2Mstart">
      <path
         transform="scale(0.6) translate(0,0)"
         d="M 8.7185878,4.0337352 L -2.2072895,0.016013256 L 8.7185884,-4.0017078 C 6.9730900,-1.6296469 6.9831476,1.6157441 8.7185878,4.0337352 z "
         style="fill-rule:evenodd;stroke-width:0.62500000;stroke-linejoin:round"
         id="path4369" />
    </marker>
    <marker
       style="overflow:visible"
       id="Arrow2Mend"
       refX="0"
       refY="0"
       orient="auto"
       inkscape:stockid="Arrow2Mend">
      <path
         transform="scale(-0.6,-0.6)"
         d="M 8.7185878,4.0337352 -2.2072895,0.01601326 8.7185884,-4.0017078 c -1.7454984,2.3720609 -1.7354408,5.6174519 -6e-7,8.035443 z"
         style="fill-rule:evenodd;stroke-width:0.625;stroke-linejoin:round"
         id="path3788"
         inkscape:connector-curvature="0" />
    </marker>
    <marker
       style="overflow:visible"
       id="Arrow2MendI"
       refX="0"
       refY="0"
       orient="auto"
       inkscape:stockid="Arrow2MendI">
      <path
         transform="scale(-0.6,-0.6)"
         d="M 8.7185878,4.0337352 -2.2072895,0.01601326 8.7185884,-4.0017078 c -1.7454984,2.3720609 -1.7354408,5.6174519 -6e-7,8.035443 z"
         style="fill:#843f26;fill-rule:evenodd;stroke:#843f26;stroke-width:0.625;stroke-linejoin:round"
         id="path4206"
         inkscape:connector-curvature="0" />
    </marker>
    <marker
       style="overflow:visible"
       id="Arrow2MendI-9"
       refX="0"
       refY="0"
       orient="auto"
       inkscape:stockid="Arrow2MendI">
      <path
         inkscape:connector-curvature="0"
         transform="scale(-0.6,-0.6)"
         d="M 8.7185878,4.0337352 -2.2072895,0.01601326 8.7185884,-4.0017078 c -1.7454984,2.3720609 -1.7354408,5.6174519 -6e-7,8.035443 z"
         style="fill:#843f26;fill-rule:evenodd;stroke:#843f26;stroke-width:0.625;stroke-linejoin:round"
         id="path4206-0" />
    </marker>
    <marker
       style="overflow:visible"
       id="Arrow2MendI-2"
       refX="0"
       refY="0"
       orient="auto"
       inkscape:stockid="Arrow2MendI">
      <path
         inkscape:connector-curvature="0"
         transform="scale(-0.6,-0.6)"
         d="M 8.7185878,4.0337352 -2.2072895,0.01601326 8.7185884,-4.0017078 c -1.7454984,2.3720609 -1.7354408,5.6174519 -6e-7,8.035443 z"
         style="fill:#843f26;fill-rule:evenodd;stroke:#843f26;stroke-width:0.625;stroke-linejoin:round"
         id="path4206-4" />
    </marker>
    <marker
       style="overflow:visible"
       id="Arrow2MendIk"
       refX="0"
       refY="0"
       orient="auto"
       inkscape:stockid="Arrow2MendIk">
      <path
         transform="scale(-0.6,-0.6)"
         d="M 8.7185878,4.0337352 -2.2072895,0.01601326 8.7185884,-4.0017078 c -1.7454984,2.3720609 -1.7354408,5.6174519 -6e-7,8.035443 z"
         style="fill:#3b8426;fill-rule:evenodd;stroke:#3b8426;stroke-width:0.625;stroke-linejoin:round"
         id="path4282"
         inkscape:connector-curvature="0" />
    </marker>
    <marker
       style="overflow:visible"
       id="Arrow2MendIL"
       refX="0"
       refY="0"
       orient="auto"
       inkscape:stockid="Arrow2MendIL">
      <path
         transform="scale(-0.6,-0.6)"
         d="M 8.7185878,4.0337352 -2.2072895,0.01601326 8.7185884,-4.0017078 c -1.7454984,2.3720609 -1.7354408,5.6174519 -6e-7,8.035443 z"
         style="fill:#752684;fill-rule:evenodd;stroke:#752684;stroke-width:0.625;stroke-linejoin:round"
         id="path4321"
         inkscape:connector-curvature="0" />
    </marker>
    <g
       id="g4059">
      <symbol
         id="symbol1356"
         overflow="visible">
        <path
           id="path5122"
           d=""
           style="stroke:none;" />
      </symbol>
      <symbol
         id="symbol3531"
         overflow="visible">
        <path
           id="path6180"
           d="M 1.328125 -0.828125 C 1.859375 -1.40625 2.15625 -1.65625 2.515625 -1.96875 C 2.515625 -1.96875 3.125 -2.5 3.484375 -2.859375 C 4.4375 -3.78125 4.65625 -4.265625 4.65625 -4.3125 C 4.65625 -4.40625 4.5625 -4.40625 4.546875 -4.40625 C 4.46875 -4.40625 4.453125 -4.390625 4.390625 -4.296875 C 4.09375 -3.8125 3.890625 -3.65625 3.65625 -3.65625 C 3.40625 -3.65625 3.296875 -3.8125 3.140625 -3.984375 C 2.953125 -4.203125 2.78125 -4.40625 2.453125 -4.40625 C 1.703125 -4.40625 1.25 -3.484375 1.25 -3.265625 C 1.25 -3.21875 1.28125 -3.15625 1.359375 -3.15625 C 1.453125 -3.15625 1.46875 -3.203125 1.5 -3.265625 C 1.6875 -3.734375 2.265625 -3.734375 2.34375 -3.734375 C 2.546875 -3.734375 2.734375 -3.671875 2.96875 -3.59375 C 3.375 -3.4375 3.484375 -3.4375 3.734375 -3.4375 C 3.375 -3.015625 2.546875 -2.296875 2.359375 -2.140625 L 1.453125 -1.296875 C 0.78125 -0.625 0.421875 -0.0625 0.421875 0.015625 C 0.421875 0.109375 0.53125 0.109375 0.546875 0.109375 C 0.625 0.109375 0.640625 0.09375 0.703125 -0.015625 C 0.9375 -0.375 1.234375 -0.640625 1.5625 -0.640625 C 1.78125 -0.640625 1.890625 -0.546875 2.140625 -0.265625 C 2.296875 -0.046875 2.484375 0.109375 2.765625 0.109375 C 3.765625 0.109375 4.34375 -1.15625 4.34375 -1.421875 C 4.34375 -1.46875 4.296875 -1.53125 4.21875 -1.53125 C 4.125 -1.53125 4.109375 -1.46875 4.078125 -1.390625 C 3.84375 -0.75 3.203125 -0.5625 2.875 -0.5625 C 2.6875 -0.5625 2.5 -0.625 2.296875 -0.6875 C 1.953125 -0.8125 1.796875 -0.859375 1.59375 -0.859375 C 1.578125 -0.859375 1.421875 -0.859375 1.328125 -0.828125 Z M 1.328125 -0.828125 "
           style="stroke:none;" />
      </symbol>
    </g>
    <g
       id="g9670">
      <symbol
         id="symbol3486"
         overflow="visible">
        <path
           id="path8008"
           d=""
           style="stroke:none;" />
      </symbol>
      <symbol
         id="symbol9315"
         overflow="visible">
        <path
           id="path5658"
           d="M 1.328125 -0.828125 C 1.859375 -1.40625 2.15625 -1.65625 2.515625 -1.96875 C 2.515625 -1.96875 3.125 -2.5 3.484375 -2.859375 C 4.4375 -3.78125 4.65625 -4.265625 4.65625 -4.3125 C 4.65625 -4.40625 4.5625 -4.40625 4.546875 -4.40625 C 4.46875 -4.40625 4.453125 -4.390625 4.390625 -4.296875 C 4.09375 -3.8125 3.890625 -3.65625 3.65625 -3.65625 C 3.40625 -3.65625 3.296875 -3.8125 3.140625 -3.984375 C 2.953125 -4.203125 2.78125 -4.40625 2.453125 -4.40625 C 1.703125 -4.40625 1.25 -3.484375 1.25 -3.265625 C 1.25 -3.21875 1.28125 -3.15625 1.359375 -3.15625 C 1.453125 -3.15625 1.46875 -3.203125 1.5 -3.265625 C 1.6875 -3.734375 2.265625 -3.734375 2.34375 -3.734375 C 2.546875 -3.734375 2.734375 -3.671875 2.96875 -3.59375 C 3.375 -3.4375 3.484375 -3.4375 3.734375 -3.4375 C 3.375 -3.015625 2.546875 -2.296875 2.359375 -2.140625 L 1.453125 -1.296875 C 0.78125 -0.625 0.421875 -0.0625 0.421875 0.015625 C 0.421875 0.109375 0.53125 0.109375 0.546875 0.109375 C 0.625 0.109375 0.640625 0.09375 0.703125 -0.015625 C 0.9375 -0.375 1.234375 -0.640625 1.5625 -0.640625 C 1.78125 -0.640625 1.890625 -0.546875 2.140625 -0.265625 C 2.296875 -0.046875 2.484375 0.109375 2.765625 0.109375 C 3.765625 0.109375 4.34375 -1.15625 4.34375 -1.421875 C 4.34375 -1.46875 4.296875 -1.53125 4.21875 -1.53125 C 4.125 -1.53125 4.109375 -1.46875 4.078125 -1.390625 C 3.84375 -0.75 3.203125 -0.5625 2.875 -0.5625 C 2.6875 -0.5625 2.5 -0.625 2.296875 -0.6875 C 1.953125 -0.8125 1.796875 -0.859375 1.59375 -0.859375 C 1.578125 -0.859375 1.421875 -0.859375 1.328125 -0.828125 Z M 1.328125 -0.828125 "
           style="stroke:none;" />
      </symbol>
      <symbol
         id="symbol2359"
         overflow="visible">
        <path
           id="path2606"
           d="M 2.625 -4.359375 C 1.390625 -4.0625 0.421875 -2.765625 0.421875 -1.5625 C 0.421875 -0.59375 1.0625 0.125 2 0.125 C 3.15625 0.125 3.984375 -1.453125 3.984375 -2.828125 C 3.984375 -3.734375 3.59375 -4.234375 3.25 -4.671875 C 2.890625 -5.125 2.296875 -5.875 2.296875 -6.3125 C 2.296875 -6.53125 2.5 -6.765625 2.84375 -6.765625 C 3.15625 -6.765625 3.34375 -6.640625 3.5625 -6.5 C 3.765625 -6.375 3.953125 -6.25 4.109375 -6.25 C 4.359375 -6.25 4.5 -6.484375 4.5 -6.65625 C 4.5 -6.875 4.34375 -6.890625 3.984375 -6.984375 C 3.46875 -7.09375 3.328125 -7.09375 3.171875 -7.09375 C 2.390625 -7.09375 2.03125 -6.65625 2.03125 -6.0625 C 2.03125 -5.515625 2.328125 -4.96875 2.625 -4.359375 Z M 2.75 -4.140625 C 3 -3.671875 3.296875 -3.140625 3.296875 -2.421875 C 3.296875 -1.765625 2.921875 -0.09375 2 -0.09375 C 1.453125 -0.09375 1.03125 -0.515625 1.03125 -1.28125 C 1.03125 -1.90625 1.40625 -3.78125 2.75 -4.140625 Z M 2.75 -4.140625 "
           style="stroke:none;" />
      </symbol>
      <symbol
         id="symbol4335"
         overflow="visible">
        <path
           id="path5200"
           d=""
           style="stroke:none;" />
      </symbol>
      <symbol
         id="symbol7987"
         overflow="visible">
        <path
           id="path8629"
           d="M 4.078125 -2.296875 L 6.859375 -2.296875 C 7 -2.296875 7.1875 -2.296875 7.1875 -2.5 C 7.1875 -2.6875 7 -2.6875 6.859375 -2.6875 L 4.078125 -2.6875 L 4.078125 -5.484375 C 4.078125 -5.625 4.078125 -5.8125 3.875 -5.8125 C 3.671875 -5.8125 3.671875 -5.625 3.671875 -5.484375 L 3.671875 -2.6875 L 0.890625 -2.6875 C 0.75 -2.6875 0.5625 -2.6875 0.5625 -2.5 C 0.5625 -2.296875 0.75 -2.296875 0.890625 -2.296875 L 3.671875 -2.296875 L 3.671875 0.5 C 3.671875 0.640625 3.671875 0.828125 3.875 0.828125 C 4.078125 0.828125 4.078125 0.640625 4.078125 0.5 Z M 4.078125 -2.296875 "
           style="stroke:none;" />
      </symbol>
      <symbol
         id="symbol7972"
         overflow="visible">
        <path
           id="path2520"
           d=""
           style="stroke:none;" />
      </symbol>
      <symbol
         id="symbol1476"
         overflow="visible">
        <path
           id="path1783"
           d="M 2.328125 -4.4375 C 2.328125 -4.625 2.328125 -4.625 2.125 -4.625 C 1.671875 -4.1875 1.046875 -4.1875 0.765625 -4.1875 L 0.765625 -3.9375 C 0.921875 -3.9375 1.390625 -3.9375 1.765625 -4.125 L 1.765625 -0.578125 C 1.765625 -0.34375 1.765625 -0.25 1.078125 -0.25 L 0.8125 -0.25 L 0.8125 0 C 0.9375 0 1.796875 -0.03125 2.046875 -0.03125 C 2.265625 -0.03125 3.140625 0 3.296875 0 L 3.296875 -0.25 L 3.03125 -0.25 C 2.328125 -0.25 2.328125 -0.34375 2.328125 -0.578125 Z M 2.328125 -4.4375 "
           style="stroke:none;" />
      </symbol>
    </g>
    <g
       id="g1242">
      <symbol
         id="symbol6458"
         overflow="visible">
        <path
           id="path6038"
           d=""
           style="stroke:none;" />
      </symbol>
      <symbol
         id="symbol863"
         overflow="visible">
        <path
           id="path6605"
           d="M 1.328125 -0.828125 C 1.859375 -1.40625 2.15625 -1.65625 2.515625 -1.96875 C 2.515625 -1.96875 3.125 -2.5 3.484375 -2.859375 C 4.4375 -3.78125 4.65625 -4.265625 4.65625 -4.3125 C 4.65625 -4.40625 4.5625 -4.40625 4.546875 -4.40625 C 4.46875 -4.40625 4.453125 -4.390625 4.390625 -4.296875 C 4.09375 -3.8125 3.890625 -3.65625 3.65625 -3.65625 C 3.40625 -3.65625 3.296875 -3.8125 3.140625 -3.984375 C 2.953125 -4.203125 2.78125 -4.40625 2.453125 -4.40625 C 1.703125 -4.40625 1.25 -3.484375 1.25 -3.265625 C 1.25 -3.21875 1.28125 -3.15625 1.359375 -3.15625 C 1.453125 -3.15625 1.46875 -3.203125 1.5 -3.265625 C 1.6875 -3.734375 2.265625 -3.734375 2.34375 -3.734375 C 2.546875 -3.734375 2.734375 -3.671875 2.96875 -3.59375 C 3.375 -3.4375 3.484375 -3.4375 3.734375 -3.4375 C 3.375 -3.015625 2.546875 -2.296875 2.359375 -2.140625 L 1.453125 -1.296875 C 0.78125 -0.625 0.421875 -0.0625 0.421875 0.015625 C 0.421875 0.109375 0.53125 0.109375 0.546875 0.109375 C 0.625 0.109375 0.640625 0.09375 0.703125 -0.015625 C 0.9375 -0.375 1.234375 -0.640625 1.5625 -0.640625 C 1.78125 -0.640625 1.890625 -0.546875 2.140625 -0.265625 C 2.296875 -0.046875 2.484375 0.109375 2.765625 0.109375 C 3.765625 0.109375 4.34375 -1.15625 4.34375 -1.421875 C 4.34375 -1.46875 4.296875 -1.53125 4.21875 -1.53125 C 4.125 -1.53125 4.109375 -1.46875 4.078125 -1.390625 C 3.84375 -0.75 3.203125 -0.5625 2.875 -0.5625 C 2.6875 -0.5625 2.5 -0.625 2.296875 -0.6875 C 1.953125 -0.8125 1.796875 -0.859375 1.59375 -0.859375 C 1.578125 -0.859375 1.421875 -0.859375 1.328125 -0.828125 Z M 1.328125 -0.828125 "
           style="stroke:none;" />
      </symbol>
      <symbol
         id="symbol9291"
         overflow="visible">
        <path
           id="path5734"
           d="M 2.625 -4.359375 C 1.390625 -4.0625 0.421875 -2.765625 0.421875 -1.5625 C 0.421875 -0.59375 1.0625 0.125 2 0.125 C 3.15625 0.125 3.984375 -1.453125 3.984375 -2.828125 C 3.984375 -3.734375 3.59375 -4.234375 3.25 -4.671875 C 2.890625 -5.125 2.296875 -5.875 2.296875 -6.3125 C 2.296875 -6.53125 2.5 -6.765625 2.84375 -6.765625 C 3.15625 -6.765625 3.34375 -6.640625 3.5625 -6.5 C 3.765625 -6.375 3.953125 -6.25 4.109375 -6.25 C 4.359375 -6.25 4.5 -6.484375 4.5 -6.65625 C 4.5 -6.875 4.34375 -6.890625 3.984375 -6.984375 C 3.46875 -7.09375 3.328125 -7.09375 3.171875 -7.09375 C 2.390625 -7.09375 2.03125 -6.65625 2.03125 -6.0625 C 2.03125 -5.515625 2.328125 -4.96875 2.625 -4.359375 Z M 2.75 -4.140625 C 3 -3.671875 3.296875 -3.140625 3.296875 -2.421875 C 3.296875 -1.765625 2.921875 -0.09375 2 -0.09375 C 1.453125 -0.09375 1.03125 -0.515625 1.03125 -1.28125 C 1.03125 -1.90625 1.40625 -3.78125 2.75 -4.140625 Z M 2.75 -4.140625 "
           style="stroke:none;" />
      </symbol>
      <symbol
         id="symbol6453"
         overflow="visible">
        <path
           id="path3921"
           d=""
           style="stroke:none;" />
      </symbol>
      <symbol
         id="symbol1606"
         overflow="visible">
        <path
           id="path5798"
           d="M 4.078125 -2.296875 L 6.859375 -2.296875 C 7 -2.296875 7.1875 -2.296875 7.1875 -2.5 C 7.1875 -2.6875 7 -2.6875 6.859375 -2.6875 L 4.078125 -2.6875 L 4.078125 -5.484375 C 4.078125 -5.625 4.078125 -5.8125 3.875 -5.8125 C 3.671875 -5.8125 3.671875 -5.625 3.671875 -5.484375 L 3.671875 -2.6875 L 0.890625 -2.6875 C 0.75 -2.6875 0.5625 -2.6875 0.5625 -2.5 C 0.5625 -2.296875 0.75 -2.296875 0.890625 -2.296875 L 3.671875 -2.296875 L 3.671875 0.5 C 3.671875 0.640625 3.671875 0.828125 3.875 0.828125 C 4.078125 0.828125 4.078125 0.640625 4.078125 0.5 Z M 4.078125 -2.296875 "
           style="stroke:none;" />
      </symbol>
      <symbol
         id="symbol6175"
         overflow="visible">
        <path
           id="path7390"
           d=""
           style="stroke:none;" />
      </symbol>
      <symbol
         id="symbol2483"
         overflow="visible">
        <path
           id="path3489"
           d="M 3.515625 -1.265625 L 3.28125 -1.265625 C 3.265625 -1.109375 3.1875 -0.703125 3.09375 -0.640625 C 3.046875 -0.59375 2.515625 -0.59375 2.40625 -0.59375 L 1.125 -0.59375 C 1.859375 -1.234375 2.109375 -1.4375 2.515625 -1.765625 C 3.03125 -2.171875 3.515625 -2.609375 3.515625 -3.265625 C 3.515625 -4.109375 2.78125 -4.625 1.890625 -4.625 C 1.03125 -4.625 0.4375 -4.015625 0.4375 -3.375 C 0.4375 -3.03125 0.734375 -2.984375 0.8125 -2.984375 C 0.96875 -2.984375 1.171875 -3.109375 1.171875 -3.359375 C 1.171875 -3.484375 1.125 -3.734375 0.765625 -3.734375 C 0.984375 -4.21875 1.453125 -4.375 1.78125 -4.375 C 2.484375 -4.375 2.84375 -3.828125 2.84375 -3.265625 C 2.84375 -2.65625 2.40625 -2.1875 2.1875 -1.9375 L 0.515625 -0.265625 C 0.4375 -0.203125 0.4375 -0.1875 0.4375 0 L 3.3125 0 Z M 3.515625 -1.265625 "
           style="stroke:none;" />
      </symbol>
    </g>
  </defs>
  <metadata
     id="metadata7">
    <rdf:RDF>
      <cc:Work
         rdf:about="">
        <dc:format>image/svg+xml</dc:format>
        <dc:type
           rdf:resource="http://purl.org/dc/dcmitype/StillImage" />
        <dc:title />
      </cc:Work>
    </rdf:RDF>
  </metadata>
  <g
     id="layer1"
     inkscape:groupmode="layer"
     inkscape:label="Layer 1"
     transform="translate(-275.69999,-465.37501)">
    <g
       transform="matrix(1.16,0,0,1.16,391.15993,535.51649)"
       id="g4858">
      <g
         style="font-style:normal;font-variant:normal;font-weight:normal;font-stretch:normal;letter-spacing:normal;word-spacing:normal;text-anchor:start;fill:none;stroke:#000000;stroke-linecap:butt;stroke-linejoin:miter;stroke-miterlimit:10.43299961;stroke-opacity:1;stroke-dasharray:none;stroke-dashoffset:0"
         word-spacing="normal"
         letter-spacing="normal"
         font-size-adjust="none"
         font-stretch="normal"
         font-weight="normal"
         font-variant="normal"
         font-style="normal"
         stroke-miterlimit="10.433"
         xml:space="preserve"
         transform="matrix(0.24,0,0,-0.24,-42,172.19999)"
         id="content"><path
           style="fill:#000000;stroke-width:0"
           inkscape:connector-curvature="0"
           id="path4861"
           d="m 477.19,423.14 0.45,0.12 0.44,0.12 0.44,0.14 0.43,0.15 0.42,0.16 0.42,0.17 0.4,0.18 0.4,0.19 0.39,0.19 0.37,0.21 0.37,0.22 0.35,0.22 0.34,0.23 0.33,0.24 0.32,0.25 0.3,0.26 0.29,0.27 0.27,0.27 0.26,0.28 0.24,0.29 0.23,0.29 0.21,0.31 0.19,0.3 0.18,0.32 0.15,0.32 0.14,0.33 0.12,0.33 0.09,0.35 0.08,0.34 0.06,0.35 0.03,0.36 0.01,0.36 c 0,4.78 -5.67,8.97 -13,8.97 h -15.64 v -1.55 h 1.19 c 3.84,0 3.93,-0.54 3.93,-2.34 v -26.25 c 0,-1.8 -0.09,-2.34 -3.93,-2.34 h -1.19 v -1.55 c 1.78,0.16 5.33,0.16 7.27,0.16 1.93,0 5.48,0 7.28,-0.16 v 1.55 h -1.21 c -3.82,0 -3.93,0.54 -3.93,2.34 v 12.59 1.11 12.89 c 0,1.16 0,1.75 1.09,1.91 0.5,0.09 1.95,0.09 2.95,0.09 4.47,0 10.07,-0.2 10.07,-7.42 0,-3.44 -1.21,-7.47 -8.58,-7.47 h -5.53 v -1.11 h 5.73 c 0.8,0 2.89,0 4.63,-1.68 1.9,-1.8 1.9,-3.35 1.9,-6.68 0,-3.25 0,-5.23 2.03,-7.12 2.05,-1.8 4.78,-2.09 6.28,-2.09 3.89,0 4.74,4.07 4.74,5.48 0,0.3 0,0.84 -0.64,0.84 -0.55,0 -0.55,-0.45 -0.61,-0.79 -0.3,-3.55 -2.03,-4.44 -3.28,-4.44 -2.44,0 -2.85,2.55 -3.55,7.17 l -0.64,3.99 c -0.89,3.18 -3.34,4.84 -6.08,5.78 z" /><path
           style="fill:#000000;stroke-width:0"
           inkscape:connector-curvature="0"
           id="path4863"
           d="m 497.77,417.71 0.05,1.05 c 0.29,7.42 4.48,8.66 6.18,8.66 5.13,0 5.63,-6.72 5.63,-8.66 h -11.81 l -0.05,-1.05 h 13.91 c 1.09,0 1.23,0 1.23,1.05 0,4.92 -2.69,9.75 -8.91,9.75 -5.78,0 -10.37,-5.12 -10.37,-11.36 0,-6.67 5.23,-11.5 10.97,-11.5 6.08,0 8.31,5.53 8.31,6.47 0,0.5 -0.39,0.61 -0.64,0.61 -0.45,0 -0.55,-0.3 -0.66,-0.7 -1.73,-5.13 -6.22,-5.13 -6.72,-5.13 -2.5,0 -4.48,1.49 -5.62,3.33 -1.5,2.39 -1.5,5.69 -1.5,7.48 z" /><path
           style="fill:#000000;stroke-width:0"
           inkscape:connector-curvature="0"
           id="path4865"
           d="m 530.8,394.25 0,0.02 0,0.03 0,0.01 0,0.02 -0.01,0.01 0,0.02 -0.01,0.01 0,0.02 -0.01,0.02 -0.01,0.02 -0.02,0.02 -0.01,0.03 -0.02,0.02 -0.01,0.03 -0.03,0.03 -0.02,0.03 -0.03,0.03 -0.03,0.04 -0.01,0.02 -0.02,0.02 -0.01,0.02 -0.02,0.02 -0.02,0.02 -0.02,0.03 -0.02,0.02 -0.03,0.02 -0.02,0.03 -0.02,0.02 -0.03,0.03 -0.02,0.03 -0.03,0.03 -0.03,0.03 -0.02,0.03 -0.03,0.03 -0.04,0.03 -0.03,0.03 -0.03,0.04 -0.03,0.03 -0.04,0.04 -0.04,0.03 -0.03,0.04 -0.04,0.04 c -6.22,6.28 -7.81,15.69 -7.81,23.31 0,8.67 1.88,17.35 8.01,23.56 0.64,0.61 0.64,0.71 0.64,0.86 0,0.35 -0.19,0.49 -0.48,0.49 -0.5,0 -4.99,-3.38 -7.92,-9.7 -2.55,-5.49 -3.15,-11.02 -3.15,-15.21 0,-3.89 0.55,-9.9 3.28,-15.54 2.99,-6.13 7.29,-9.36 7.79,-9.36 0.29,0 0.48,0.14 0.48,0.5 z" /><path
           style="fill:#000000;stroke-width:0"
           inkscape:connector-curvature="0"
           id="path4867"
           d="m 540.26,410.34 0.25,0.27 0.24,0.25 0.23,0.25 0.23,0.24 0.22,0.23 0.22,0.22 0.21,0.22 0.21,0.21 0.2,0.2 0.19,0.19 0.2,0.19 0.18,0.19 0.19,0.17 0.18,0.18 0.35,0.33 0.34,0.32 0.34,0.3 0.32,0.29 0.33,0.29 0.64,0.56 0.33,0.29 0.34,0.28 c 0,0.05 3.07,2.69 4.87,4.49 4.73,4.64 5.83,7.03 5.83,7.21 0,0.5 -0.45,0.5 -0.55,0.5 -0.34,0 -0.5,-0.09 -0.75,-0.54 -1.48,-2.39 -2.53,-3.19 -3.73,-3.19 -1.21,0 -1.8,0.75 -2.55,1.59 -0.94,1.16 -1.78,2.14 -3.44,2.14 -3.73,0 -6.01,-4.62 -6.01,-5.67 0,-0.25 0.14,-0.54 0.59,-0.54 0.45,0 0.55,0.25 0.64,0.54 0.95,2.3 3.85,2.35 4.24,2.35 1.04,0 2,-0.36 3.14,-0.75 2,-0.75 2.54,-0.75 3.84,-0.75 -1.8,-2.14 -5.98,-5.74 -6.92,-6.53 l -4.49,-4.18 c -3.39,-3.34 -5.14,-6.18 -5.14,-6.53 0,-0.5 0.5,-0.5 0.6,-0.5 0.4,0 0.5,0.1 0.79,0.64 1.16,1.75 2.64,3.1 4.24,3.1 1.15,0 1.65,-0.46 2.89,-1.89 0.86,-1.05 1.75,-1.85 3.19,-1.85 4.93,0 7.82,6.33 7.82,7.67 0,0.25 -0.2,0.5 -0.59,0.5 -0.45,0 -0.55,-0.29 -0.7,-0.65 -1.14,-3.24 -4.33,-4.17 -5.99,-4.17 -0.98,0 -1.89,0.29 -2.93,0.64 -1.69,0.64 -2.44,0.84 -3.49,0.84 -0.09,0 -0.89,0 -1.34,-0.14 z" /><path
           style="fill:#000000;stroke-width:0"
           inkscape:connector-curvature="0"
           id="path4869"
           d="m 573.34,418.65 0,0.37 -0.01,0.39 -0.01,0.39 -0.01,0.41 -0.04,0.84 -0.06,0.88 -0.08,0.92 -0.11,0.95 -0.13,0.97 -0.17,1.01 -0.19,1.02 -0.23,1.03 -0.27,1.05 -0.3,1.06 -0.35,1.07 -0.4,1.07 -0.21,0.53 -0.22,0.53 -0.24,0.53 -0.25,0.53 c -2.99,6.12 -7.27,9.36 -7.77,9.36 -0.29,0 -0.5,-0.19 -0.5,-0.49 0,-0.15 0,-0.25 0.94,-1.15 4.89,-4.92 7.74,-12.85 7.74,-23.27 0,-8.51 -1.85,-17.28 -8.04,-23.56 -0.64,-0.59 -0.64,-0.7 -0.64,-0.84 0,-0.3 0.21,-0.5 0.5,-0.5 0.5,0 4.97,3.39 7.93,9.71 2.53,5.47 3.12,11 3.12,15.19 z" /></g>
    </g>
    <circle
       r="3.6248209"
       cy="591.80798"
       cx="357.56116"
       id="path2985"
       style="opacity:0.97;fill:#000000;fill-opacity:1;stroke:#000000;stroke-width:2.25672;stroke-miterlimit:4;stroke-dasharray:none;stroke-dashoffset:0;stroke-opacity:1" />
    <path
       sodipodi:nodetypes="cc"
       inkscape:connector-curvature="0"
       id="path3755"
       d="m 364.89957,590.17799 86.72672,-26.95217"
       style="fill:none;stroke:#843f26;stroke-width:2.4000001;stroke-linecap:butt;stroke-linejoin:miter;stroke-miterlimit:4;stroke-opacity:1;stroke-dasharray:none;marker-end:url(#Arrow2MendI)" />
    <path
       inkscape:connector-curvature="0"
       id="path3755-5"
       d="m 359.14143,584.37331 24.35811,-75.8242"
       style="fill:none;stroke:#3b8426;stroke-width:2.4;stroke-linecap:butt;stroke-linejoin:miter;stroke-miterlimit:4;stroke-dasharray:none;stroke-opacity:1;marker-end:url(#Arrow2MendIk)"
       sodipodi:nodetypes="cc" />
    <path
       r="3.9294226"
       cy="498.98724"
       cx="386.59558"
       id="path2985-5-4"
       style="opacity:0.97;fill:#3b8426;fill-opacity:1;stroke:#000000;stroke-width:0.959998;stroke-miterlimit:4;stroke-dasharray:none;stroke-dashoffset:0;stroke-opacity:1" />
    <path
       r="3.9294226"
       cy="560.77856"
       cx="461.21954"
       id="path2985-5-43"
       style="opacity:0.97;fill:#843f26;fill-opacity:1;stroke:#000000;stroke-width:0.959998;stroke-miterlimit:4;stroke-dasharray:none;stroke-dashoffset:0;stroke-opacity:1" />
    <path
       sodipodi:nodetypes="ccc"
       transform="translate(275.69999,465.37501)"
       inkscape:connector-curvature="0"
       id="path3151"
       d="m 4.9497475,23.750216 0,138.946484 191.6675725,0"
       style="fill:none;stroke:#000000;stroke-width:1.5;stroke-linecap:butt;stroke-linejoin:miter;stroke-miterlimit:4;stroke-opacity:1;stroke-dasharray:none;marker-start:url(#Arrow2Mstart);marker-end:url(#Arrow2Mend)" />
    <g
       transform="matrix(1.16,0,0,1.16,201.12848,392.36201)"
       id="g5005">
      <g
         style="font-style:normal;font-variant:normal;font-weight:normal;font-stretch:normal;letter-spacing:normal;word-spacing:normal;text-anchor:start;fill:none;stroke:#000000;stroke-linecap:butt;stroke-linejoin:miter;stroke-miterlimit:10.43299961;stroke-opacity:1;stroke-dasharray:none;stroke-dashoffset:0"
         id="g5007"
         transform="matrix(0.24,0,0,-0.24,-42,172.19999)"
         xml:space="preserve"
         stroke-miterlimit="10.433"
         font-style="normal"
         font-variant="normal"
         font-weight="normal"
         font-stretch="normal"
         font-size-adjust="none"
         letter-spacing="normal"
         word-spacing="normal"><path
           style="fill:#000000;stroke-width:0"
           inkscape:connector-curvature="0"
           d="m 466.72,436.34 0,0.16 0.01,0.16 0,0.15 0.01,0.15 0.01,0.13 0.01,0.13 0.02,0.13 0.03,0.11 0.03,0.12 0.04,0.1 0.05,0.1 0.05,0.09 0.06,0.09 0.08,0.08 0.08,0.08 0.09,0.07 0.11,0.06 0.12,0.06 0.06,0.03 0.07,0.03 0.07,0.02 0.07,0.03 0.08,0.02 0.08,0.02 0.08,0.02 0.09,0.02 0.09,0.02 0.1,0.02 0.1,0.02 0.11,0.01 0.1,0.01 0.12,0.02 0.11,0.01 0.13,0.01 0.12,0.01 0.13,0.01 0.14,0.01 0.14,0.01 0.15,0 0.15,0.01 0.15,0 0.16,0.01 0.17,0 0.17,0 0.17,0 0.19,0 h 1.29 v 1.55 c -1.75,-0.16 -5.68,-0.16 -7.57,-0.16 -1.94,0 -5.88,0 -7.63,0.16 v -1.55 h 1.3 c 3.93,0 4.09,-0.54 4.09,-2.34 v -26.25 c 0,-1.8 -0.16,-2.34 -4.09,-2.34 h -1.3 v -1.55 c 1.75,0.16 5.69,0.16 7.58,0.16 1.94,0 5.87,0 7.62,-0.16 v 1.55 h -1.29 c -3.94,0 -4.1,0.54 -4.1,2.34 z"
           id="path5009" /><path
           style="fill:#000000;stroke-width:0"
           inkscape:connector-curvature="0"
           d="m 479,423.34 v -13.36 c 0,-2.23 -0.54,-2.23 -3.89,-2.23 v -1.55 c 1.75,0.05 4.28,0.16 5.63,0.16 1.3,0 3.89,-0.11 5.58,-0.16 v 1.55 c -3.33,0 -3.88,0 -3.88,2.23 v 9.17 c 0,5.19 3.53,7.97 6.72,7.97 3.14,0 3.69,-2.69 3.69,-5.53 v -11.61 c 0,-2.23 -0.55,-2.23 -3.89,-2.23 v -1.55 c 1.75,0.05 4.29,0.16 5.64,0.16 1.29,0 3.87,-0.11 5.58,-0.16 v 1.55 c -3.35,0 -3.89,0 -3.89,2.23 v 9.17 c 0,5.19 3.54,7.97 6.73,7.97 3.14,0 3.69,-2.69 3.69,-5.53 v -11.61 c 0,-2.23 -0.55,-2.23 -3.89,-2.23 v -1.55 c 1.73,0.05 4.28,0.16 5.62,0.16 1.3,0 3.89,-0.11 5.58,-0.16 v 1.55 c -2.58,0 -3.83,0 -3.88,1.5 v 9.51 c 0,4.28 0,5.83 -1.54,7.61 -0.71,0.86 -2.35,1.84 -5.24,1.84 -4.18,0 -6.37,-2.98 -7.22,-4.87 -0.7,4.33 -4.39,4.87 -6.62,4.87 -3.64,0 -5.98,-2.14 -7.38,-5.21 v 5.21 l -7.03,-0.54 v -1.55 c 3.49,0 3.89,-0.34 3.89,-2.78 z"
           id="path5011" /><path
           style="fill:#000000;stroke-width:0"
           inkscape:connector-curvature="0"
           d="m 531.52,394.25 0,0.02 0,0.03 0,0.01 0,0.02 -0.01,0.01 0,0.02 -0.01,0.01 0,0.02 -0.01,0.02 -0.01,0.02 -0.01,0.02 -0.02,0.03 -0.01,0.02 -0.02,0.03 -0.02,0.03 -0.03,0.03 -0.02,0.03 -0.03,0.04 -0.02,0.02 -0.02,0.02 -0.01,0.02 -0.02,0.02 -0.02,0.02 -0.02,0.03 -0.02,0.02 -0.02,0.02 -0.03,0.03 -0.02,0.02 -0.02,0.03 -0.03,0.03 -0.03,0.03 -0.02,0.03 -0.03,0.03 -0.03,0.03 -0.03,0.03 -0.03,0.03 -0.04,0.04 -0.03,0.03 -0.04,0.04 -0.03,0.03 -0.04,0.04 -0.04,0.04 c -6.22,6.28 -7.81,15.69 -7.81,23.31 0,8.67 1.89,17.35 8.01,23.56 0.64,0.61 0.64,0.71 0.64,0.86 0,0.35 -0.18,0.49 -0.48,0.49 -0.5,0 -4.99,-3.38 -7.92,-9.7 -2.55,-5.49 -3.14,-11.02 -3.14,-15.21 0,-3.89 0.54,-9.9 3.28,-15.54 2.98,-6.13 7.28,-9.36 7.78,-9.36 0.3,0 0.48,0.14 0.48,0.5 z"
           id="path5013" /><path
           style="fill:#000000;stroke-width:0"
           inkscape:connector-curvature="0"
           d="m 540.98,410.34 0.25,0.27 0.24,0.25 0.23,0.25 0.23,0.24 0.23,0.23 0.21,0.22 0.21,0.22 0.21,0.21 0.2,0.2 0.2,0.19 0.19,0.19 0.19,0.19 0.18,0.17 0.18,0.18 0.35,0.33 0.34,0.32 0.34,0.3 0.33,0.29 0.32,0.29 0.65,0.56 0.32,0.29 0.34,0.28 c 0,0.05 3.08,2.69 4.87,4.49 4.74,4.64 5.83,7.03 5.83,7.21 0,0.5 -0.45,0.5 -0.55,0.5 -0.34,0 -0.5,-0.09 -0.75,-0.54 -1.48,-2.39 -2.53,-3.19 -3.73,-3.19 -1.2,0 -1.8,0.75 -2.55,1.59 -0.94,1.16 -1.78,2.14 -3.44,2.14 -3.73,0 -6.01,-4.62 -6.01,-5.67 0,-0.25 0.14,-0.54 0.59,-0.54 0.46,0 0.55,0.25 0.64,0.54 0.96,2.3 3.85,2.35 4.24,2.35 1.04,0 2,-0.36 3.14,-0.75 2,-0.75 2.55,-0.75 3.84,-0.75 -1.79,-2.14 -5.98,-5.74 -6.92,-6.53 l -4.48,-4.18 c -3.39,-3.34 -5.14,-6.18 -5.14,-6.53 0,-0.5 0.5,-0.5 0.59,-0.5 0.41,0 0.5,0.1 0.8,0.64 1.15,1.75 2.64,3.1 4.23,3.1 1.16,0 1.66,-0.46 2.89,-1.89 0.86,-1.05 1.75,-1.85 3.19,-1.85 4.94,0 7.83,6.33 7.83,7.67 0,0.25 -0.21,0.5 -0.6,0.5 -0.45,0 -0.54,-0.29 -0.7,-0.65 -1.14,-3.24 -4.33,-4.17 -5.98,-4.17 -0.99,0 -1.9,0.29 -2.94,0.64 -1.69,0.64 -2.44,0.84 -3.49,0.84 -0.09,0 -0.89,0 -1.34,-0.14 z"
           id="path5015" /><path
           style="fill:#000000;stroke-width:0"
           inkscape:connector-curvature="0"
           d="m 574.06,418.65 0,0.37 0,0.39 -0.01,0.39 -0.02,0.41 -0.04,0.84 -0.06,0.88 -0.08,0.92 -0.1,0.95 -0.14,0.97 -0.16,1.01 -0.2,1.02 -0.23,1.03 -0.27,1.05 -0.3,1.06 -0.35,1.07 -0.39,1.07 -0.22,0.53 -0.22,0.53 -0.24,0.53 -0.25,0.53 c -2.98,6.12 -7.26,9.36 -7.76,9.36 -0.3,0 -0.5,-0.19 -0.5,-0.49 0,-0.15 0,-0.25 0.93,-1.15 4.89,-4.92 7.74,-12.85 7.74,-23.27 0,-8.51 -1.85,-17.28 -8.03,-23.56 -0.64,-0.59 -0.64,-0.7 -0.64,-0.84 0,-0.3 0.2,-0.5 0.5,-0.5 0.5,0 4.96,3.39 7.92,9.71 2.53,5.47 3.12,11 3.12,15.19 z"
           id="path5017" /></g>
    </g>
    <path
       d="m 398.80589,588.96664 -0.16932,0.0438 -0.16932,0.0525 -0.16348,0.0613 -0.16057,0.0701 -0.15764,0.0759 -0.15472,0.0817 -0.15181,0.0905 -0.14597,0.0963 -0.14304,0.10218 -0.14013,0.11093 -0.13721,0.11386 -0.12845,0.11969 -0.12845,0.12261 -0.11969,0.13137 -0.11677,0.13429 -0.11094,0.13721 -0.10801,0.14305 -0.0993,0.14596 -0.0963,0.14889 -0.0876,0.1518 -0.0817,0.15473 -0.0788,0.15472 -0.0701,0.16056 -0.0642,0.16057 -0.0555,0.16348 -0.0496,0.16348 -0.0438,0.1664 -0.035,0.16349 -0.0263,0.1664 -0.0204,0.1664 -0.0117,0.1664 -0.006,0.1664 c 0,1.39544 0.93126,2.43764 2.30043,2.43764 v -0.31821 c -0.80282,0 -1.39544,-0.61014 -1.39544,-1.71364 0,-0.91667 0.53715,-3.64916 2.49894,-4.17464 v 0 c 0.36492,0.66561 0.79698,1.45383 0.79698,2.49895 0,0.96337 -0.55176,3.38933 -1.90048,3.38933 v 0.31821 c 1.70196,0 2.90472,-2.27999 2.90472,-4.28557 0,-1.32829 -0.57802,-2.05229 -1.07723,-2.70622 -0.51964,-0.65684 -1.375,-1.74575 -1.375,-2.38509 0,-0.32404 0.28609,-0.67144 0.79698,-0.67144 0.4379,0 0.72399,0.18684 1.03052,0.39411 0.29193,0.17224 0.58386,0.36491 0.80281,0.36491 0.362,0 0.58095,-0.35323 0.58095,-0.58386 0,-0.32113 -0.23355,-0.362 -0.75903,-0.47877 -0.75318,-0.16056 -0.95753,-0.16056 -1.19108,-0.16056 -1.13562,0 -1.65818,0.62473 -1.65818,1.49469 0,0.79114 0.4233,1.60271 0.8758,2.49311 z"
       id="path5609"
       inkscape:connector-curvature="0"
       style="font-style:normal;font-variant:normal;font-weight:normal;font-stretch:normal;letter-spacing:normal;word-spacing:normal;text-anchor:start;fill:#652f1f;stroke:#823c28;stroke-width:0;stroke-linecap:butt;stroke-linejoin:miter;stroke-miterlimit:10.433;stroke-dasharray:none;stroke-dashoffset:0;stroke-opacity:1;fill-opacity:1" />
    <path
       d="m 403.90303,594.11049 0.073,-0.0788 0.0701,-0.073 0.0701,-0.073 0.0672,-0.0701 0.0642,-0.0672 0.0642,-0.0642 0.0613,-0.0642 0.0584,-0.0613 0.0584,-0.0584 0.0584,-0.0555 0.0555,-0.0555 0.0555,-0.0555 0.0525,-0.0496 0.0555,-0.0525 0.10218,-0.0963 0.0993,-0.0934 0.0963,-0.0876 0.0963,-0.0847 0.0934,-0.0847 0.18976,-0.16348 0.0963,-0.0847 0.0963,-0.0817 c 0,-0.0146 0.89916,-0.7853 1.42463,-1.31078 1.38085,-1.35456 1.70197,-2.05228 1.70197,-2.10483 0,-0.14597 -0.13429,-0.14597 -0.16056,-0.14597 -0.10218,0 -0.14597,0.0263 -0.21895,0.15765 -0.43498,0.69772 -0.73859,0.93126 -1.09183,0.93126 -0.35032,0 -0.52256,-0.21895 -0.74151,-0.46417 -0.27441,-0.33864 -0.51964,-0.62474 -1.00425,-0.62474 -1.0889,0 -1.75743,1.34873 -1.75743,1.65526 0,0.073 0.0409,0.15764 0.17516,0.15764 0.13137,0 0.15764,-0.073 0.18684,-0.15764 0.27733,-0.67144 1.12102,-0.68604 1.23487,-0.68604 0.30653,0 0.58387,0.10509 0.91667,0.21895 0.58387,0.21895 0.74443,0.21895 1.12394,0.21895 -0.52548,0.62473 -1.74868,1.67569 -2.02017,1.90632 l -1.31078,1.22028 c -0.98965,0.97505 -1.50053,1.80414 -1.50053,1.90632 0,0.14596 0.14596,0.14596 0.17224,0.14596 0.11969,0 0.14596,-0.0292 0.23354,-0.18683 0.33864,-0.51089 0.7707,-0.905 1.2378,-0.905 0.33572,0 0.48169,0.13429 0.84368,0.55176 0.25106,0.30653 0.51088,0.54007 0.92835,0.54007 1.44214,0 2.28583,-1.84793 2.28583,-2.23912 0,-0.073 -0.0584,-0.14597 -0.17224,-0.14597 -0.13429,0 -0.16056,0.0847 -0.20727,0.18976 -0.33281,0.94586 -1.26115,1.21736 -1.74576,1.21736 -0.28609,0 -0.55175,-0.0847 -0.85828,-0.18684 -0.49045,-0.18684 -0.7094,-0.24522 -1.01593,-0.24522 -0.0292,0 -0.25982,0 -0.39411,0.0409 z"
       id="path5611"
       inkscape:connector-curvature="0"
       style="font-style:normal;font-variant:normal;font-weight:normal;font-stretch:normal;letter-spacing:normal;word-spacing:normal;text-anchor:start;fill:#652f1f;stroke:#823c28;stroke-width:0;stroke-linecap:butt;stroke-linejoin:miter;stroke-miterlimit:10.433;stroke-dasharray:none;stroke-dashoffset:0;stroke-opacity:1;fill-opacity:1" />
    <path
       d="m 412.13845,591.02184 v -0.0117 -0.0117 -0.0146 -0.0117 -0.009 -0.0117 -0.0117 -0.009 -0.0117 l -0.003,-0.009 v -0.009 -0.009 -0.009 l -0.003,-0.009 v -0.009 -0.006 l -0.003,-0.009 v -0.006 l -0.003,-0.009 v -0.006 l -0.006,-0.0117 -0.003,-0.0117 -0.006,-0.009 -0.006,-0.009 -0.006,-0.009 -0.006,-0.009 -0.009,-0.006 -0.009,-0.006 -0.009,-0.006 -0.0117,-0.003 -0.0117,-0.003 -0.0146,-0.006 h -0.006 -0.006 l -0.009,-0.003 h -0.009 l -0.006,-0.003 h -0.009 -0.009 -0.009 -0.009 l -0.0117,-0.003 h -0.009 -0.0117 -0.009 -0.0117 -0.0117 -0.0117 -0.0117 -0.0146 -0.0117 -0.0146 c -0.65101,0.64225 -1.57351,0.65101 -1.99098,0.65101 v 0.36491 c 0.24523,0 0.91667,0 1.47134,-0.28317 v 5.18764 c 0,0.33864 0,0.47001 -1.01592,0.47001 h -0.38243 v 0.36492 c 0.18099,-0.009 1.43047,-0.0409 1.80998,-0.0409 0.31529,0 1.59687,0.0321 1.81874,0.0409 v -0.36492 h -0.38535 c -1.01885,0 -1.01885,-0.13137 -1.01885,-0.47001 z"
       id="path5613"
       inkscape:connector-curvature="0"
       style="font-style:normal;font-variant:normal;font-weight:normal;font-stretch:normal;letter-spacing:normal;word-spacing:normal;text-anchor:start;fill:#652f1f;stroke:#823c28;stroke-width:0;stroke-linecap:butt;stroke-linejoin:miter;stroke-miterlimit:10.433;stroke-dasharray:none;stroke-dashoffset:0;stroke-opacity:1;fill-opacity:1" />
    <path
       id="path5763"
       d="m 348.71843,542.6017 -0.16679,0.0431 -0.16678,0.0518 -0.16104,0.0604 -0.15816,0.069 -0.15528,0.0748 -0.15241,0.0805 -0.14953,0.0891 -0.14378,0.0949 -0.14091,0.10064 -0.13803,0.10928 -0.13515,0.11215 -0.12653,0.1179 -0.12653,0.12077 -0.1179,0.12941 -0.11502,0.13228 -0.10927,0.13515 -0.1064,0.14091 -0.0978,0.14378 -0.0949,0.14665 -0.0863,0.14954 -0.0805,0.1524 -0.0776,0.15241 -0.069,0.15816 -0.0633,0.15816 -0.0546,0.16103 -0.0489,0.16104 -0.0431,0.16391 -0.0345,0.16103 -0.0259,0.16392 -0.0201,0.16391 -0.0115,0.16391 -0.006,0.16391 c 0,1.37454 0.91732,2.40114 2.26599,2.40114 v -0.31344 c -0.7908,0 -1.37455,-0.60101 -1.37455,-1.68799 0,-0.90295 0.52911,-3.59453 2.46153,-4.11214 v 0 c 0.35945,0.65564 0.78505,1.43206 0.78505,2.46153 0,0.94896 -0.5435,3.3386 -1.87203,3.3386 v 0.31344 c 1.67648,0 2.86124,-2.24586 2.86124,-4.22141 0,-1.30841 -0.56937,-2.02156 -1.0611,-2.6657 -0.51186,-0.64702 -1.35442,-1.71963 -1.35442,-2.34939 0,-0.31919 0.28181,-0.66139 0.78504,-0.66139 0.43135,0 0.71316,0.18404 1.0151,0.38821 0.28756,0.16966 0.57512,0.35945 0.79079,0.35945 0.35658,0 0.57225,-0.34795 0.57225,-0.57512 0,-0.31632 -0.23005,-0.35658 -0.74766,-0.47161 -0.74191,-0.15816 -0.9432,-0.15816 -1.17325,-0.15816 -1.11862,0 -1.63336,0.61539 -1.63336,1.47232 0,0.7793 0.41697,1.57872 0.86269,2.45579 z"
       inkscape:connector-curvature="0"
       style="font-style:normal;font-variant:normal;font-weight:normal;font-stretch:normal;letter-spacing:normal;word-spacing:normal;text-anchor:start;fill:#2f651f;stroke:#3c8228;stroke-width:0;stroke-linecap:butt;stroke-linejoin:miter;stroke-miterlimit:10.433;stroke-dasharray:none;stroke-dashoffset:0;stroke-opacity:1;fill-opacity:1" />
    <path
       id="path5765"
       d="m 353.73927,547.66854 0.0719,-0.0776 0.069,-0.0719 0.069,-0.0719 0.0661,-0.069 0.0633,-0.0661 0.0633,-0.0633 0.0604,-0.0633 0.0575,-0.0604 0.0575,-0.0575 0.0575,-0.0546 0.0546,-0.0546 0.0546,-0.0546 0.0518,-0.0489 0.0546,-0.0518 0.10065,-0.0949 0.0978,-0.092 0.0949,-0.0863 0.0949,-0.0834 0.092,-0.0834 0.18692,-0.16104 0.0949,-0.0834 0.0949,-0.0805 c 0,-0.0144 0.88569,-0.77354 1.4033,-1.29115 1.36017,-1.33429 1.67649,-2.02156 1.67649,-2.07332 0,-0.14379 -0.13228,-0.14379 -0.15816,-0.14379 -0.10065,0 -0.14378,0.0259 -0.21567,0.15529 -0.42847,0.68727 -0.72753,0.91732 -1.07549,0.91732 -0.34507,0 -0.51473,-0.21567 -0.7304,-0.45722 -0.27031,-0.33357 -0.51186,-0.61539 -0.98922,-0.61539 -1.0726,0 -1.73112,1.32854 -1.73112,1.63048 0,0.0719 0.0403,0.15529 0.17254,0.15529 0.1294,0 0.15528,-0.0719 0.18403,-0.15529 0.27319,-0.66139 1.10424,-0.67577 1.21639,-0.67577 0.30194,0 0.57513,0.10352 0.90295,0.21567 0.57512,0.21567 0.73328,0.21567 1.10711,0.21567 -0.51761,0.61539 -1.72249,1.65061 -1.98993,1.87779 l -1.29115,1.20201 c -0.97484,0.96045 -1.47807,1.77713 -1.47807,1.87778 0,0.14378 0.14378,0.14378 0.16966,0.14378 0.1179,0 0.14378,-0.0288 0.23005,-0.18404 0.33357,-0.50323 0.75916,-0.89144 1.21926,-0.89144 0.3307,0 0.47448,0.13228 0.83106,0.54349 0.2473,0.30194 0.50323,0.53199 0.91445,0.53199 1.42055,0 2.25161,-1.82027 2.25161,-2.2056 0,-0.0719 -0.0575,-0.14378 -0.16966,-0.14378 -0.13228,0 -0.15816,0.0834 -0.20417,0.18691 -0.32782,0.9317 -1.24227,1.19914 -1.71962,1.19914 -0.28182,0 -0.5435,-0.0834 -0.84544,-0.18404 -0.4831,-0.18404 -0.69877,-0.24156 -1.00071,-0.24156 -0.0288,0 -0.25593,0 -0.38821,0.0403 z"
       inkscape:connector-curvature="0"
       style="font-style:normal;font-variant:normal;font-weight:normal;font-stretch:normal;letter-spacing:normal;word-spacing:normal;text-anchor:start;fill:#2f651f;stroke:#3c8228;stroke-width:0;stroke-linecap:butt;stroke-linejoin:miter;stroke-miterlimit:10.433;stroke-dasharray:none;stroke-dashoffset:0;stroke-opacity:1;fill-opacity:1" />
    <path
       id="path5767"
       d="m 363.55377,549.17249 h -0.33933 c -0.0288,0.22143 -0.13228,0.8138 -0.26168,0.91445 -0.0776,0.0575 -0.84831,0.0575 -0.98921,0.0575 h -1.84615 c 1.05248,-0.92882 1.4033,-1.20776 2.00431,-1.67936 0.74191,-0.59525 1.43206,-1.21351 1.43206,-2.16822 0,-1.21064 -1.05823,-1.95255 -2.34364,-1.95255 -1.24226,0 -2.08482,0.87132 -2.08482,1.79152 0,0.51186 0.43134,0.56362 0.53486,0.56362 0.23581,0 0.52912,-0.17254 0.52912,-0.53199 0,-0.17829 -0.0719,-0.52912 -0.59238,-0.52912 0.31057,-0.71028 0.99209,-0.9317 1.46369,-0.9317 1.00359,0 1.52408,0.77929 1.52408,1.59022 0,0.87419 -0.62113,1.56434 -0.9432,1.92379 l -2.41265,2.38677 c -0.10352,0.0891 -0.10352,0.11215 -0.10352,0.39108 h 4.12939 z"
       inkscape:connector-curvature="0"
       style="font-style:normal;font-variant:normal;font-weight:normal;font-stretch:normal;letter-spacing:normal;word-spacing:normal;text-anchor:start;fill:#2f651f;stroke:#3c8228;stroke-width:0;stroke-linecap:butt;stroke-linejoin:miter;stroke-miterlimit:10.433;stroke-dasharray:none;stroke-dashoffset:0;stroke-opacity:1;fill-opacity:1" />
    <g
       style="stroke-width:0.734623"
       inkscape:label=""
       transform="matrix(1.3612422,0,0,1.3612422,216.01376,490.58612)"
       id="g10707">
      <g
         style="stroke-width:0.734623"
         id="g5273">
        <g
           id="g9240"
           style="fill:#000000;fill-opacity:1;stroke-width:0.734623">
          <use
             style="stroke-width:0.734623"
             height="100%"
             width="100%"
             id="use2198"
             y="81.962997"
             x="91.925003"
             xlink:href="#symbol3531" />
        </g>
      </g>
    </g>
    <g
       style="stroke-width:0.734623;fill:#652f1f;fill-opacity:1"
       inkscape:label=""
       transform="matrix(1.3612422,0,0,1.3612422,330.72177,467.32168)"
       id="g10825">
      <g
         style="stroke-width:0.734623;fill:#652f1f;fill-opacity:1"
         id="g5651">
        <g
           id="g3292"
           style="fill:#652f1f;fill-opacity:1;stroke-width:0.734623">
          <use
             style="stroke-width:0.734623;fill:#652f1f;fill-opacity:1"
             height="100%"
             width="100%"
             id="use9966"
             y="81.962997"
             x="91.925003"
             xlink:href="#symbol9315" />
        </g>
        <g
           id="g1959"
           style="fill:#652f1f;fill-opacity:1;stroke-width:0.734623">
          <use
             style="stroke-width:0.734623;fill:#652f1f;fill-opacity:1"
             height="100%"
             width="100%"
             id="use4135"
             y="81.962997"
             x="99.209999"
             xlink:href="#symbol7987" />
        </g>
        <g
           id="g6541"
           style="fill:#652f1f;fill-opacity:1;stroke-width:0.734623">
          <use
             style="stroke-width:0.734623;fill:#652f1f;fill-opacity:1"
             height="100%"
             width="100%"
             id="use8030"
             y="81.962997"
             x="109.173"
             xlink:href="#symbol2359" />
        </g>
        <g
           id="g8039"
           style="fill:#652f1f;fill-opacity:1;stroke-width:0.734623">
          <use
             style="stroke-width:0.734623;fill:#652f1f;fill-opacity:1"
             height="100%"
             width="100%"
             id="use6728"
             y="81.962997"
             x="113.97896"
             xlink:href="#symbol9315" />
        </g>
        <g
           id="g430"
           style="fill:#652f1f;fill-opacity:1;stroke-width:0.734623">
          <use
             style="stroke-width:0.734623;fill:#652f1f;fill-opacity:1"
             height="100%"
             width="100%"
             id="use8811"
             y="83.457001"
             x="118.611"
             xlink:href="#symbol1476" />
        </g>
      </g>
    </g>
    <g
       style="stroke-width:0.734623;fill:#2f651f;fill-opacity:1"
       inkscape:label=""
       transform="matrix(1.3612422,0,0,1.3612422,214.58138,379.34603)"
       id="g10988">
      <g
         style="stroke-width:0.734623;fill:#2f651f;fill-opacity:1"
         id="g1812">
        <g
           id="g5414"
           style="fill:#2f651f;fill-opacity:1;stroke-width:0.734623">
          <use
             style="stroke-width:0.734623;fill:#2f651f;fill-opacity:1"
             height="100%"
             width="100%"
             id="use9929"
             y="81.962997"
             x="91.925003"
             xlink:href="#symbol863" />
        </g>
        <g
           id="g2481"
           style="fill:#2f651f;fill-opacity:1;stroke-width:0.734623">
          <use
             style="stroke-width:0.734623;fill:#2f651f;fill-opacity:1"
             height="100%"
             width="100%"
             id="use5730"
             y="81.962997"
             x="99.209999"
             xlink:href="#symbol1606" />
        </g>
        <g
           id="g862"
           style="fill:#2f651f;fill-opacity:1;stroke-width:0.734623">
          <use
             style="stroke-width:0.734623;fill:#2f651f;fill-opacity:1"
             height="100%"
             width="100%"
             id="use9788"
             y="81.962997"
             x="109.173"
             xlink:href="#symbol9291" />
        </g>
        <g
           id="g1945"
           style="fill:#2f651f;fill-opacity:1;stroke-width:0.734623">
          <use
             style="stroke-width:0.734623;fill:#2f651f;fill-opacity:1"
             height="100%"
             width="100%"
             id="use2130"
             y="81.962997"
             x="113.97896"
             xlink:href="#symbol863" />
        </g>
        <g
           id="g572"
           style="fill:#2f651f;fill-opacity:1;stroke-width:0.734623">
          <use
             style="stroke-width:0.734623;fill:#2f651f;fill-opacity:1"
             height="100%"
             width="100%"
             id="use2189"
             y="83.457001"
             x="118.611"
             xlink:href="#symbol2483" />
        </g>
      </g>
    </g>
  </g>
</svg>
