<?xml version="1.0" encoding="UTF-8" standalone="no"?>
<svg
   xmlns:dc="http://purl.org/dc/elements/1.1/"
   xmlns:cc="http://creativecommons.org/ns#"
   xmlns:rdf="http://www.w3.org/1999/02/22-rdf-syntax-ns#"
   xmlns:svg="http://www.w3.org/2000/svg"
   xmlns="http://www.w3.org/2000/svg"
   xmlns:sodipodi="http://sodipodi.sourceforge.net/DTD/sodipodi-0.dtd"
   xmlns:inkscape="http://www.inkscape.org/namespaces/inkscape"
   inkscape:version="1.0 (4035a4fb49, 2020-05-01)"
   sodipodi:docname="exponential.svg"
   viewBox="0 0 332.08836 246.13066"
   height="246.13066"
   width="332.08835"
   xml:space="preserve"
   id="svg2746"
   version="1.1"><metadata
     id="metadata2752"><rdf:RDF><cc:Work
         rdf:about=""><dc:format>image/svg+xml</dc:format><dc:type
           rdf:resource="http://purl.org/dc/dcmitype/StillImage" /><dc:title></dc:title></cc:Work></rdf:RDF></metadata><defs
     id="defs2750" /><sodipodi:namedview
     fit-margin-bottom="0"
     fit-margin-right="0"
     fit-margin-left="0"
     fit-margin-top="0"
     inkscape:current-layer="g2754"
     inkscape:window-maximized="1"
     inkscape:window-y="0"
     inkscape:window-x="0"
     inkscape:cy="182.7691"
     inkscape:cx="264.86981"
     inkscape:zoom="1"
     showgrid="false"
     id="namedview2748"
     inkscape:window-height="1026"
     inkscape:window-width="1920"
     inkscape:pageshadow="2"
     inkscape:pageopacity="0"
     guidetolerance="10"
     gridtolerance="10"
     objecttolerance="10"
     borderopacity="1"
     bordercolor="#666666"
     pagecolor="#ffffff" /><g
     transform="matrix(1.3333333,0,0,-1.3333333,5.3370991e-6,246.12933)"
     inkscape:label="exponential"
     inkscape:groupmode="layer"
     id="g2754"><path
       d="m 57.832,15.488 v 2.008"
       style="fill:none;stroke:#000000;stroke-width:0.9;stroke-linecap:butt;stroke-linejoin:miter;stroke-miterlimit:10;stroke-dasharray:none;stroke-opacity:1"
       id="path2758" /><path
       d="m 108.051,15.488 v 2.008"
       style="fill:none;stroke:#000000;stroke-width:0.9;stroke-linecap:butt;stroke-linejoin:miter;stroke-miterlimit:10;stroke-dasharray:none;stroke-opacity:1"
       id="path2760" /><path
       d="m 108.051,176.722 v -2.008"
       style="fill:none;stroke:#000000;stroke-width:0.9;stroke-linecap:butt;stroke-linejoin:miter;stroke-miterlimit:10;stroke-dasharray:none;stroke-opacity:1"
       id="path2762" /><path
       d="m 158.273,15.488 v 2.008"
       style="fill:none;stroke:#000000;stroke-width:0.9;stroke-linecap:butt;stroke-linejoin:miter;stroke-miterlimit:10;stroke-dasharray:none;stroke-opacity:1"
       id="path2764" /><path
       d="m 208.492,15.488 v 2.008"
       style="fill:none;stroke:#000000;stroke-width:0.9;stroke-linecap:butt;stroke-linejoin:miter;stroke-miterlimit:10;stroke-dasharray:none;stroke-opacity:1"
       id="path2766" /><path
       d="m 105.211,44.695 h 2.012"
       style="fill:none;stroke:#000000;stroke-width:0.9;stroke-linecap:butt;stroke-linejoin:miter;stroke-miterlimit:10;stroke-dasharray:none;stroke-opacity:1"
       id="path2768" /><path
       d="m 105.211,71.097 h 2.012"
       style="fill:none;stroke:#000000;stroke-width:0.9;stroke-linecap:butt;stroke-linejoin:miter;stroke-miterlimit:10;stroke-dasharray:none;stroke-opacity:1"
       id="path2770" /><path
       d="m 105.211,97.503 h 2.012"
       style="fill:none;stroke:#000000;stroke-width:0.9;stroke-linecap:butt;stroke-linejoin:miter;stroke-miterlimit:10;stroke-dasharray:none;stroke-opacity:1"
       id="path2772" /><path
       d="m 105.211,123.91 h 2.012"
       style="fill:none;stroke:#000000;stroke-width:0.9;stroke-linecap:butt;stroke-linejoin:miter;stroke-miterlimit:10;stroke-dasharray:none;stroke-opacity:1"
       id="path2774" /><path
       d="m 105.211,150.316 h 2.012"
       style="fill:none;stroke:#000000;stroke-width:0.9;stroke-linecap:butt;stroke-linejoin:miter;stroke-miterlimit:10;stroke-dasharray:none;stroke-opacity:1"
       id="path2776" /><text
       y="-4.1019192"
       x="-0.54687899"
       transform="scale(1,-1)"
       style="font-variant:normal;font-weight:normal;font-size:11.2px;font-family:'DejaVu Sans';-inkscape-font-specification:DejaVuSans;writing-mode:lr-tb;fill:#000000;fill-opacity:1;fill-rule:nonzero;stroke:none"
       id="text2784"><tspan
         x="-0.54687899 3.485121 50.245121 54.277122"
         y="-4.1019192"
         sodipodi:role="line"
         id="tspan2778">-4-2</tspan><tspan
         x="96.76194"
         y="-4.3650417"
         id="tspan2780">0</tspan><tspan
         x="154.65312 203.45152"
         y="-4.1019192"
         sodipodi:role="line"
         id="tspan2782">24</tspan></text><path
       d="M 107.852,-0.001 V 182.902"
       style="fill:none;stroke:#000000;stroke-width:1.28;stroke-linecap:butt;stroke-linejoin:miter;stroke-miterlimit:4;stroke-dasharray:none;stroke-opacity:1"
       id="path2786" /><path
       d="m 110.949,176.207 -3.082,8.39 -3.086,-8.39 c 1.821,1.339 4.313,1.332 6.168,0 z"
       style="fill:#000000;fill-opacity:1;fill-rule:evenodd;stroke:none"
       id="path2788" /><text
       y="-144.77406"
       x="86.856644"
       transform="scale(1,-1)"
       style="font-variant:normal;font-weight:normal;font-size:11.2px;font-family:'DejaVu Sans';-inkscape-font-specification:DejaVuSans;writing-mode:lr-tb;fill:#000000;fill-opacity:1;fill-rule:nonzero;stroke:none"
       id="text2800"><tspan
         x="86.856644 93.979843"
         y="-144.77406"
         sodipodi:role="line"
         id="tspan2790">50</tspan><tspan
         x="86.856644 93.979843"
         y="-118.75255"
         sodipodi:role="line"
         id="tspan2792">40</tspan><tspan
         x="86.856644 93.979843"
         y="-92.165329"
         sodipodi:role="line"
         id="tspan2794">30</tspan><tspan
         x="86.856644 93.979843"
         y="-66.143791"
         sodipodi:role="line"
         id="tspan2796">20</tspan><tspan
         x="86.856644 93.979843"
         y="-40.122238"
         sodipodi:role="line"
         id="tspan2798">10</tspan></text><path
       sodipodi:nodetypes="cc"
       d="M 6.254,18.183 H 236.76116"
       style="fill:none;stroke:#000000;stroke-width:1.28;stroke-linecap:butt;stroke-linejoin:miter;stroke-miterlimit:4;stroke-dasharray:none;stroke-opacity:1"
       id="path2802" /><path
       d="m 234.79656,15.085 8.391,3.086 -8.391,3.082 c 1.34,-1.82 1.332,-4.312 0,-6.168 z"
       style="fill:#000000;fill-opacity:1;fill-rule:evenodd;stroke:none"
       id="path2804" /><path
       d="m 7.613,18.335 h 0.805 l 0.199,0.004 h 1.809 l 0.203,0.004 h 1.609 l 0.2,0.004 h 1.406 l 0.203,0.004 h 1.207 l 0.199,0.004 h 1.207 l 0.203,0.004 h 1.207 l 0.2,0.004 h 1.207 l 0.199,0.004 h 1.008 l 0.199,0.004 h 1.008 l 0.199,0.003 h 0.805 l 0.199,0.004 h 1.008 l 0.199,0.004 h 0.804 l 0.204,0.004 h 0.804 l 0.199,0.004 h 0.602 l 0.203,0.004 h 0.805 l 0.199,0.004 h 0.606 l 0.199,0.004 h 0.804 l 0.204,0.004 h 0.601 l 0.203,0.004 h 0.801 l 0.203,0.004 h 0.602 l 0.203,0.003 h 0.601 l 0.204,0.004 h 0.804 l 0.199,0.004 h 0.606 l 0.199,0.004 h 0.606 l 0.199,0.004 h 0.805 l 0.199,0.004 h 0.605 l 0.199,0.004 h 0.403 l 0.203,0.004 h 0.199 l 0.203,0.004 h 0.199 l 0.204,0.004 h 0.402 l 0.199,0.004 h 0.199 l 0.204,0.003 h 0.199 l 0.203,0.004 h 0.199 l 0.203,0.004 h 0.199 l 0.204,0.004 0.199,0.004 h 0.203 l 0.199,0.004 h 0.203 l 0.199,0.004 h 0.204 l 0.199,0.004 h 0.203 l 0.199,0.004 h 0.203 l 0.199,0.004 h 0.2 l 0.203,0.003 h 0.199 l 0.203,0.004 h 0.199 l 0.203,0.004 h 0.2 l 0.203,0.004 h 0.199 l 0.203,0.004 h 0.199 l 0.204,0.004 h 0.199 l 0.203,0.004 h 0.199 l 0.203,0.004 h 0.199 l 0.204,0.004 h 0.199 l 0.203,0.004 h 0.199 l 0.203,0.004 h 0.199 l 0.204,0.003 h 0.199 l 0.203,0.004 h 0.199 l 0.199,0.004 h 0.204 l 0.199,0.004 h 0.203 l 0.199,0.004 0.203,0.004 h 0.199 l 0.204,0.004 h 0.199 l 0.203,0.004 h 0.199 l 0.203,0.004 h 0.199 l 0.204,0.004 0.199,0.004 0.203,0.003 h 0.199 l 0.203,0.004 0.199,0.004 h 0.2 l 0.203,0.004 0.199,0.004 0.203,0.004 0.199,0.004 h 0.203 l 0.2,0.004 0.203,0.004 0.199,0.004 h 0.203 l 0.199,0.003 0.204,0.004 0.199,0.004 h 0.203 l 0.199,0.004 0.203,0.004 0.199,0.004 0.204,0.004 h 0.199 l 0.199,0.004 0.203,0.004 0.199,0.004 h 0.203 l 0.2,0.004 0.203,0.003 0.199,0.004 h 0.203 l 0.199,0.004 0.204,0.004 0.199,0.004 0.203,0.004 0.199,0.004 h 0.203 l 0.199,0.004 0.204,0.004 0.199,0.004 0.203,0.004 0.199,0.003 0.203,0.004 0.199,0.004 0.204,0.004 0.199,0.004 0.203,0.004 0.398,0.008 0.203,0.004 0.2,0.004 0.203,0.003 0.199,0.004 0.203,0.004 0.199,0.004 0.203,0.004 0.2,0.004 0.203,0.004 0.199,0.004 0.203,0.004 0.199,0.004 0.204,0.004 0.199,0.003 0.203,0.004 0.199,0.004 0.203,0.004 0.199,0.008 0.204,0.004 0.398,0.008 0.203,0.004 0.199,0.004 0.203,0.003 0.2,0.004 0.203,0.004 0.199,0.008 0.203,0.004 0.199,0.004 0.204,0.004 0.199,0.004 0.203,0.004 0.199,0.007 0.203,0.004 0.199,0.004 0.204,0.004 0.199,0.008 0.203,0.004 0.199,0.004 0.203,0.004 0.199,0.004 0.2,0.007 0.203,0.004 0.199,0.004 0.203,0.004 0.199,0.008 0.203,0.004 0.2,0.004 0.203,0.004 0.199,0.004 0.203,0.007 0.199,0.004 0.203,0.004 0.2,0.008 0.203,0.004 0.199,0.004 0.203,0.004 0.199,0.007 0.204,0.004 0.199,0.004 0.203,0.004 0.199,0.008 0.199,0.004 0.203,0.004 0.2,0.008 0.203,0.004 0.199,0.003 0.203,0.004 0.199,0.008 0.203,0.004 0.2,0.008 0.203,0.004 0.199,0.008 0.203,0.004 0.199,0.007 0.204,0.004 0.199,0.008 0.203,0.004 0.199,0.008 0.203,0.004 0.199,0.007 0.204,0.004 0.199,0.008 0.203,0.008 0.199,0.004 0.199,0.008 0.203,0.004 0.2,0.007 0.203,0.004 0.199,0.008 0.203,0.008 0.199,0.008 0.203,0.008 0.2,0.004 0.203,0.007 0.199,0.008 0.203,0.008 0.199,0.008 0.203,0.004 0.2,0.007 0.203,0.008 0.199,0.008 0.203,0.008 0.199,0.008 0.204,0.008 0.398,0.015 0.203,0.008 0.199,0.008 0.203,0.008 0.2,0.007 0.203,0.008 0.199,0.008 0.203,0.008 0.199,0.008 0.203,0.011 0.2,0.008 0.203,0.008 0.199,0.008 0.203,0.012 0.199,0.007 0.204,0.008 0.199,0.012 0.203,0.008 0.398,0.015 0.203,0.012 0.2,0.008 0.203,0.008 0.199,0.011 0.203,0.008 0.199,0.012 0.203,0.008 0.2,0.011 0.203,0.008 0.199,0.012 0.203,0.012 0.199,0.008 0.203,0.011 0.2,0.008 0.203,0.012 0.199,0.011 0.203,0.012 0.199,0.008 0.203,0.012 0.2,0.011 0.203,0.008 0.199,0.012 0.203,0.012 0.199,0.011 0.204,0.012 0.398,0.024 0.203,0.011 0.199,0.012 0.203,0.012 0.2,0.011 0.203,0.012 0.199,0.012 0.203,0.012 0.199,0.011 0.203,0.012 0.2,0.012 0.203,0.011 0.199,0.016 0.203,0.012 0.199,0.012 0.204,0.011 0.199,0.016 0.203,0.012 0.199,0.011 0.199,0.016 0.203,0.012 0.2,0.015 0.203,0.012 0.199,0.016 0.203,0.011 0.199,0.016 0.203,0.016 0.2,0.011 0.203,0.016 0.199,0.012 0.203,0.015 0.199,0.016 0.203,0.016 0.2,0.011 0.203,0.016 0.199,0.016 0.203,0.015 0.399,0.031 0.203,0.016 0.199,0.016 0.203,0.015 0.199,0.016 0.203,0.016 0.2,0.015 0.203,0.02 0.199,0.015 0.203,0.016 0.199,0.016 0.203,0.019 0.2,0.016 0.203,0.015 0.199,0.02 0.203,0.015 0.199,0.02 0.203,0.016 0.2,0.019 0.203,0.02 0.199,0.015 0.203,0.02 0.199,0.019 0.2,0.016 0.203,0.02 0.199,0.019 0.203,0.02 0.199,0.019 0.203,0.02 0.2,0.019 0.203,0.02 0.199,0.019 0.203,0.02 0.199,0.019 0.203,0.02 0.2,0.023 0.203,0.02 0.199,0.019 0.203,0.024 0.199,0.019 0.203,0.024 0.2,0.019 0.203,0.024 0.199,0.019 0.203,0.024 0.199,0.019 0.2,0.024 0.203,0.023 0.199,0.024 0.203,0.023 0.199,0.023 0.203,0.024 0.2,0.019 0.203,0.028 0.199,0.023 0.203,0.024 0.199,0.023 0.203,0.023 0.2,0.028 0.203,0.023 0.199,0.024 0.203,0.027 0.199,0.023 0.203,0.028 0.2,0.023 0.199,0.028 0.203,0.027 0.199,0.027 0.203,0.024 0.2,0.027 0.203,0.027 0.199,0.028 0.203,0.027 0.199,0.027 0.203,0.032 0.2,0.027 0.203,0.027 0.199,0.028 0.203,0.031 0.199,0.027 0.203,0.032 0.2,0.027 0.203,0.031 0.199,0.031 0.203,0.028 0.399,0.062 0.203,0.032 0.199,0.031 0.203,0.031 0.199,0.031 0.203,0.035 0.2,0.032 0.203,0.031 0.199,0.035 0.203,0.031 0.199,0.035 0.203,0.032 0.2,0.035 0.203,0.035 0.199,0.031 0.203,0.035 0.199,0.036 0.203,0.035 0.2,0.035 0.203,0.039 0.199,0.035 0.203,0.035 0.199,0.039 0.203,0.036 0.2,0.039 0.199,0.035 0.203,0.039 0.199,0.039 0.203,0.039 0.2,0.039 0.203,0.039 0.199,0.039 0.203,0.039 0.199,0.039 0.203,0.043 0.2,0.039 0.203,0.043 0.199,0.039 0.203,0.043 0.199,0.043 0.203,0.039 0.2,0.043 0.203,0.047 0.398,0.086 0.203,0.043 0.2,0.047 0.203,0.043 0.199,0.047 0.203,0.043 0.199,0.047 0.203,0.046 0.2,0.047 0.203,0.047 0.199,0.047 0.203,0.047 0.199,0.051 0.203,0.047 0.2,0.05 0.203,0.047 0.199,0.051 0.203,0.051 0.199,0.051 0.203,0.05 0.399,0.102 0.203,0.055 0.199,0.05 0.203,0.055 0.2,0.055 0.203,0.051 0.199,0.054 0.203,0.055 0.199,0.059 0.203,0.054 0.2,0.055 0.203,0.059 0.199,0.054 0.203,0.059 0.199,0.058 0.203,0.059 0.2,0.059 0.203,0.058 0.199,0.063 0.203,0.058 0.199,0.063 0.203,0.058 0.2,0.063 0.203,0.062 0.398,0.125 0.203,0.067 0.2,0.062 0.203,0.067 0.199,0.062 0.203,0.067 0.199,0.066 0.203,0.07 0.2,0.067 0.203,0.066 0.199,0.07 0.203,0.071 0.199,0.066 0.203,0.07 0.2,0.075 0.203,0.07 0.199,0.07 0.203,0.075 0.199,0.074 0.203,0.07 0.2,0.074 0.199,0.078 0.203,0.075 0.199,0.074 0.203,0.078 0.2,0.078 0.203,0.078 0.199,0.078 0.203,0.078 0.199,0.083 0.203,0.078 0.2,0.082 0.203,0.082 0.199,0.082 0.203,0.086 0.199,0.082 0.203,0.086 0.2,0.082 0.203,0.086 0.199,0.089 0.199,0.086 0.203,0.086 0.2,0.09 0.203,0.09 0.199,0.09 0.203,0.09 0.199,0.093 0.203,0.09 0.2,0.094 0.203,0.094 0.199,0.094 0.203,0.097 0.199,0.094 0.203,0.098 0.2,0.097 0.203,0.098 0.199,0.101 0.203,0.098 0.199,0.102 0.203,0.101 0.2,0.102 0.199,0.105 0.203,0.102 0.199,0.105 0.203,0.106 0.2,0.109 0.203,0.106 0.199,0.109 0.203,0.109 0.199,0.11 0.203,0.109 0.2,0.113 0.203,0.114 0.199,0.113 0.203,0.113 0.199,0.117 0.203,0.118 0.2,0.117 0.203,0.117 0.199,0.121 0.203,0.117 0.199,0.121 0.203,0.125 0.2,0.121 0.203,0.125 0.398,0.25 0.203,0.129 0.2,0.129 0.203,0.129 0.199,0.129 0.203,0.133 0.199,0.133 0.203,0.133 0.2,0.132 0.203,0.137 0.199,0.137 0.203,0.137 0.199,0.14 0.203,0.137 0.2,0.144 0.203,0.141 0.199,0.145 0.203,0.144 0.199,0.145 0.199,0.148 0.204,0.145 0.199,0.152 0.203,0.148 0.199,0.153 0.203,0.152 0.2,0.156 0.203,0.153 0.199,0.156 0.203,0.16 0.199,0.156 0.203,0.164 0.2,0.161 0.203,0.164 0.199,0.164 0.203,0.164 0.199,0.168 0.203,0.168 0.2,0.168 0.199,0.171 0.203,0.172 0.199,0.176 0.203,0.176 0.2,0.176 0.203,0.175 0.199,0.18 0.203,0.18 0.199,0.183 0.203,0.184 0.2,0.188 0.203,0.183 0.199,0.192 0.203,0.187 0.199,0.191 0.203,0.196 0.2,0.191 0.203,0.195 0.199,0.2 0.203,0.199 0.402,0.402 0.2,0.203 0.203,0.207 0.199,0.207 0.203,0.207 0.199,0.211 0.199,0.215 0.204,0.211 0.199,0.219 0.203,0.215 0.199,0.219 0.203,0.222 0.2,0.223 0.203,0.223 0.199,0.226 0.203,0.231 0.199,0.23 0.203,0.23 0.2,0.235 0.203,0.234 0.199,0.239 0.203,0.238 0.199,0.242 0.203,0.242 0.399,0.492 0.203,0.25 0.199,0.25 0.203,0.254 0.2,0.254 0.203,0.258 0.199,0.262 0.203,0.261 0.199,0.262 0.203,0.266 0.2,0.269 0.203,0.27 0.199,0.269 0.203,0.274 0.199,0.277 0.203,0.281 0.2,0.278 0.203,0.285 0.199,0.285 0.199,0.289 0.203,0.289 0.199,0.293 0.204,0.293 0.199,0.297 0.203,0.301 0.199,0.301 0.203,0.304 0.199,0.309 0.204,0.308 0.199,0.313 0.203,0.312 0.199,0.317 0.203,0.32 0.2,0.32 0.203,0.325 0.199,0.328 0.203,0.332 0.199,0.332 0.203,0.332 0.2,0.34 0.203,0.34 0.199,0.343 0.203,0.344 0.398,0.703 0.204,0.352 0.199,0.359 0.203,0.36 0.199,0.363 0.203,0.367 0.2,0.367 0.203,0.371 0.199,0.375 0.203,0.379 0.199,0.379 0.203,0.387 0.2,0.387 0.203,0.39 0.199,0.391 0.203,0.398 0.199,0.399 0.203,0.402 0.2,0.406 0.203,0.41 0.199,0.411 0.199,0.418 0.203,0.417 0.199,0.422 0.204,0.43 0.199,0.426 0.203,0.433 0.199,0.438 0.203,0.441 0.199,0.442 0.204,0.449 0.199,0.449 0.203,0.453 0.199,0.457 0.203,0.461 0.2,0.469 0.203,0.469 0.199,0.472 0.203,0.477 0.199,0.48 0.203,0.485 0.2,0.488 0.199,0.492 0.203,0.492 0.199,0.5 0.203,0.504 0.199,0.512 0.204,0.512 0.199,0.515 0.203,0.52 0.199,0.523 0.203,0.532 0.2,0.531 0.203,0.539 0.199,0.543 0.203,0.543 0.199,0.551 0.203,0.554 0.2,0.559 0.203,0.566 0.199,0.567 0.199,0.574 0.203,0.578 0.199,0.582 0.204,0.586 0.199,0.59 0.203,0.598 0.199,0.601 0.203,0.606 0.199,0.613 0.204,0.613 0.199,0.621 0.203,0.625 0.199,0.633 0.203,0.633 0.199,0.644 0.204,0.645 0.199,0.652 0.203,0.657 0.199,0.66 0.203,0.668 0.2,0.672 0.203,0.679 0.199,0.684 0.203,0.687 0.199,0.696 0.203,0.699 0.2,0.703 0.199,0.711 0.203,0.719 0.199,0.722 0.203,0.727 0.199,0.734 0.204,0.742 0.199,0.747 0.203,0.753 0.199,0.758 0.203,0.762 0.2,0.773 0.203,0.774 0.199,0.785 0.203,0.789 0.199,0.797 0.203,0.801 0.2,0.808 0.203,0.813 0.199,0.824 0.199,0.828 0.203,0.832 0.199,0.844 0.204,0.848 0.199,0.855 0.203,0.863 0.199,0.868 0.203,0.875 0.199,0.882 0.204,0.891 0.199,0.898 0.203,0.903 0.199,0.914 0.203,0.918 0.199,0.926 0.204,0.933 0.199,0.942 0.203,0.949 0.199,0.957 0.199,0.965 0.204,0.968 0.199,0.981 0.203,0.988 0.199,0.996 0.203,1.004 0.199,1.012 0.204,1.019 0.199,1.028 0.203,1.035 0.199,1.047 0.203,1.051 0.199,1.062 0.204,1.07 0.199,1.079 0.203,1.085 0.199,1.098 0.203,1.106 0.2,1.113 0.203,1.121 0.199,1.133 0.203,1.14 0.199,1.149"
       style="fill:none;stroke:#1f77b4;stroke-width:1.6;stroke-linecap:butt;stroke-linejoin:miter;stroke-miterlimit:10;stroke-dasharray:none;stroke-opacity:1"
       id="path2806" /><path
       d="m 7.531,15.488 v 2.008"
       style="fill:none;stroke:#000000;stroke-width:0.9;stroke-linecap:butt;stroke-linejoin:miter;stroke-miterlimit:10;stroke-dasharray:none;stroke-opacity:1"
       id="path2808" /><path
       d="m 246.10227,9.8408604 0.007,0.043 0.016,0.047 0.012,0.047 0.011,0.054 0.02,0.059 0.016,0.066 0.019,0.067 0.047,0.14 0.027,0.075 0.032,0.078 0.031,0.074 0.035,0.074 0.035,0.078 0.039,0.078 0.043,0.078 0.094,0.149 0.051,0.07 0.058,0.067 0.055,0.07 0.125,0.117 0.07,0.059 0.071,0.047 0.078,0.043 0.035,0.023 0.039,0.02 0.043,0.011 0.129,0.047 0.047,0.008 0.043,0.008 0.047,0.008 0.101,0.007 h 0.047 c 0.078,0 0.445,0 0.766,-0.195 -0.43,-0.078 -0.739,-0.465 -0.739,-0.832 0,-0.242 0.172,-0.539 0.586,-0.539 0.34,0 0.828,0.273 0.828,0.891 0,0.804 -0.906,1.011 -1.429,1.011 -0.891,0 -1.43,-0.812 -1.614,-1.164 -0.382,1.012 -1.214,1.164 -1.656,1.164 -1.601,0 -2.48,-1.98 -2.48,-2.3669976 0,-0.152 0.152,-0.152 0.187,-0.152 0.121,0 0.172,0.035 0.199,0.168 0.52,1.6289976 1.54,2.0149976 2.059,2.0149976 0.293,0 0.828,-0.136 0.828,-1.027 0,-0.477 -0.258,-1.5079976 -0.828,-3.6599976 -0.246,-0.953 -0.781,-1.598 -1.461,-1.598 -0.094,0 -0.445,0 -0.766,0.199 0.387,0.075 0.723,0.399 0.723,0.832 0,0.415 -0.336,0.536 -0.566,0.536 -0.465,0 -0.852,-0.399 -0.852,-0.895 0,-0.703 0.774,-1.012 1.445,-1.012 1.02,0 1.567,1.079 1.618,1.168 0.183,-0.57 0.738,-1.168 1.656,-1.168 1.586,0 2.465,1.981 2.465,2.368 0,0.156 -0.137,0.156 -0.188,0.156 -0.136,0 -0.168,-0.063 -0.195,-0.168 -0.508,-1.645 -1.555,-2.016 -2.047,-2.016 -0.601,0 -0.848,0.492 -0.848,1.016 0,0.34 0.09,0.676 0.266,1.351 z"
       style="fill:#000000;fill-opacity:1;fill-rule:nonzero;stroke:none"
       id="path2810" /><path
       d="m 56.75,174.753 0.016,0.325 c 0.089,2.289 1.382,2.671 1.91,2.671 1.582,0 1.734,-2.074 1.734,-2.671 h -3.644 l -0.016,-0.325 h 4.293 c 0.336,0 0.379,0 0.379,0.325 0,1.515 -0.828,3.007 -2.746,3.007 -1.785,0 -3.203,-1.578 -3.203,-3.503 0,-2.059 1.617,-3.551 3.386,-3.551 1.875,0 2.563,1.707 2.563,1.996 0,0.156 -0.117,0.187 -0.195,0.187 -0.141,0 -0.172,-0.09 -0.204,-0.215 -0.535,-1.582 -1.918,-1.582 -2.07,-1.582 -0.773,0 -1.387,0.461 -1.738,1.028 -0.465,0.738 -0.465,1.754 -0.465,2.308 z"
       style="fill:#000000;fill-opacity:1;fill-rule:nonzero;stroke:none"
       id="path2812" /><path
       d="m 66.27,174.812 0.089,0.109 0.18,0.235 0.098,0.117 0.187,0.242 0.094,0.117 0.094,0.121 0.187,0.227 0.086,0.109 0.09,0.106 0.039,0.047 0.043,0.05 0.039,0.051 0.039,0.047 0.039,0.043 0.035,0.043 0.075,0.074 c 0.476,0.551 1.109,0.782 1.832,0.797 v 0.481 c -0.403,-0.032 -0.864,-0.043 -1.262,-0.043 -0.461,0 -1.277,0.027 -1.477,0.043 v -0.481 c 0.321,-0.027 0.45,-0.223 0.45,-0.473 0,-0.246 -0.157,-0.445 -0.235,-0.539 l -0.957,-1.199 -1.191,1.551 c -0.141,0.156 -0.141,0.187 -0.141,0.281 0,0.231 0.231,0.364 0.535,0.379 v 0.481 c -0.394,-0.016 -1.414,-0.043 -1.656,-0.043 -0.324,0 -1.047,0.011 -1.465,0.043 v -0.481 c 1.078,0 1.098,-0.015 1.817,-0.933 l 1.519,-1.981 -1.445,-1.836 c -0.735,-0.89 -1.645,-0.918 -1.969,-0.918 v -0.476 c 0.402,0.027 0.883,0.046 1.281,0.046 0.442,0 1.086,-0.031 1.461,-0.046 v 0.476 c -0.34,0.043 -0.449,0.242 -0.449,0.477 0,0.34 0.449,0.843 1.383,1.953 l 1.172,-1.539 c 0.121,-0.168 0.324,-0.414 0.324,-0.504 0,-0.145 -0.141,-0.375 -0.559,-0.387 v -0.476 c 0.461,0.015 1.325,0.046 1.66,0.046 0.415,0 1.02,-0.019 1.477,-0.046 v 0.476 c -0.828,0 -1.105,0.028 -1.461,0.477 z"
       style="fill:#000000;fill-opacity:1;fill-rule:nonzero;stroke:none"
       id="path2814" /><path
       d="m 72.609,176.98 v 1.012 l -2.211,-0.164 v -0.481 c 1.09,0 1.2,-0.09 1.2,-0.765 v -7.196 c 0,-0.695 -0.168,-0.695 -1.2,-0.695 v -0.473 c 0.524,0.016 1.321,0.047 1.719,0.047 0.414,0 1.199,-0.031 1.738,-0.047 v 0.473 c -1.031,0 -1.199,0 -1.199,0.695 v 2.723 l 0.219,0.199 c -0.219,0.324 -0.219,0.34 -0.219,0.645 v 3.433 c 0.446,0.781 1.199,1.227 1.985,1.227 1.121,0 2.062,-1.356 2.062,-3.09 0,-1.863 -1.082,-3.152 -2.219,-3.152 -0.613,0 -1.195,0.308 -1.609,0.937 l -0.219,-0.199 c 0.078,-0.246 0.727,-1.078 1.891,-1.078 1.832,0 3.43,1.508 3.43,3.492 0,1.953 -1.493,3.469 -3.215,3.469 -1.2,0 -1.844,-0.672 -2.153,-1.012 z"
       style="fill:#000000;fill-opacity:1;fill-rule:nonzero;stroke:none"
       id="path2816" /><path
       d="m 83.645,167.515 v 0.016 l -0.004,0.008 v 0.007 l -0.004,0.004 v 0.008 l -0.004,0.004 -0.004,0.008 -0.004,0.004 -0.004,0.011 -0.004,0.004 -0.008,0.012 -0.004,0.008 -0.007,0.008 -0.008,0.011 -0.012,0.012 v 0.008 l -0.008,0.004 -0.011,0.012 -0.004,0.007 -0.02,0.02 -0.008,0.012 -0.007,0.004 -0.008,0.011 -0.016,0.016 -0.008,0.012 -0.011,0.007 -0.008,0.012 -0.008,0.008 -0.012,0.008 -0.008,0.011 -0.023,0.024 -0.012,0.008 -0.011,0.015 -0.012,0.012 c -1.918,1.938 -2.41,4.84 -2.41,7.191 0,2.676 0.582,5.356 2.472,7.27 0.2,0.187 0.2,0.219 0.2,0.266 0,0.109 -0.059,0.152 -0.149,0.152 -0.152,0 -1.539,-1.043 -2.445,-2.992 -0.785,-1.696 -0.969,-3.403 -0.969,-4.696 0,-1.199 0.168,-3.054 1.012,-4.793 0.922,-1.894 2.25,-2.89 2.402,-2.89 0.09,0 0.149,0.043 0.149,0.156 z"
       style="fill:#000000;fill-opacity:1;fill-rule:nonzero;stroke:none"
       id="path2818" /><path
       d="m 89.652,175.843 0.008,0.043 0.016,0.047 0.012,0.047 0.015,0.055 0.016,0.058 0.015,0.067 0.02,0.066 0.023,0.07 0.028,0.071 0.023,0.074 0.031,0.078 0.032,0.074 0.035,0.074 0.035,0.079 0.039,0.078 0.043,0.078 0.094,0.148 0.051,0.071 0.058,0.066 0.055,0.07 0.125,0.117 0.07,0.059 0.074,0.047 0.075,0.043 0.039,0.023 0.039,0.02 0.039,0.012 0.086,0.031 0.047,0.015 0.043,0.008 0.046,0.008 0.043,0.008 0.102,0.008 h 0.047 c 0.078,0 0.445,0 0.765,-0.196 -0.429,-0.078 -0.738,-0.464 -0.738,-0.832 0,-0.242 0.172,-0.539 0.586,-0.539 0.34,0 0.828,0.274 0.828,0.891 0,0.805 -0.906,1.012 -1.426,1.012 -0.89,0 -1.429,-0.813 -1.617,-1.164 -0.383,1.011 -1.215,1.164 -1.656,1.164 -1.602,0 -2.477,-1.981 -2.477,-2.368 0,-0.152 0.153,-0.152 0.184,-0.152 0.125,0 0.172,0.035 0.199,0.168 0.52,1.629 1.539,2.016 2.059,2.016 0.293,0 0.828,-0.137 0.828,-1.028 0,-0.476 -0.258,-1.507 -0.828,-3.66 -0.246,-0.953 -0.778,-1.597 -1.461,-1.597 -0.09,0 -0.442,0 -0.766,0.199 0.387,0.074 0.723,0.398 0.723,0.832 0,0.414 -0.336,0.535 -0.567,0.535 -0.464,0 -0.851,-0.398 -0.851,-0.895 0,-0.703 0.773,-1.011 1.449,-1.011 1.016,0 1.563,1.078 1.613,1.168 0.184,-0.571 0.739,-1.168 1.661,-1.168 1.586,0 2.461,1.98 2.461,2.367 0,0.156 -0.137,0.156 -0.188,0.156 -0.137,0 -0.168,-0.062 -0.195,-0.168 -0.508,-1.644 -1.555,-2.015 -2.043,-2.015 -0.606,0 -0.852,0.492 -0.852,1.015 0,0.34 0.09,0.676 0.266,1.352 z"
       style="fill:#000000;fill-opacity:1;fill-rule:nonzero;stroke:none"
       id="path2820" /><path
       d="m 97.734,175.042 v 0.114 l -0.007,0.242 v 0.125 l -0.016,0.262 -0.016,0.269 -0.027,0.285 -0.031,0.293 -0.043,0.301 -0.051,0.309 -0.059,0.316 -0.07,0.316 -0.086,0.325 -0.094,0.328 -0.105,0.328 -0.121,0.332 -0.133,0.328 -0.074,0.164 -0.078,0.16 c -0.922,1.891 -2.243,2.891 -2.399,2.891 -0.09,0 -0.152,-0.059 -0.152,-0.152 0,-0.047 0,-0.079 0.289,-0.356 1.508,-1.515 2.383,-3.965 2.383,-7.18 0,-2.625 -0.567,-5.332 -2.477,-7.269 -0.195,-0.184 -0.195,-0.215 -0.195,-0.258 0,-0.094 0.062,-0.156 0.152,-0.156 0.156,0 1.535,1.047 2.446,2.996 0.781,1.687 0.964,3.394 0.964,4.687 z"
       style="fill:#000000;fill-opacity:1;fill-rule:nonzero;stroke:none"
       id="path2822" /></g></svg>
