<?xml version="1.0" encoding="UTF-8" standalone="no"?>
<svg
   xmlns:dc="http://purl.org/dc/elements/1.1/"
   xmlns:cc="http://creativecommons.org/ns#"
   xmlns:rdf="http://www.w3.org/1999/02/22-rdf-syntax-ns#"
   xmlns:svg="http://www.w3.org/2000/svg"
   xmlns="http://www.w3.org/2000/svg"
   xmlns:xlink="http://www.w3.org/1999/xlink"
   xmlns:sodipodi="http://sodipodi.sourceforge.net/DTD/sodipodi-0.dtd"
   xmlns:inkscape="http://www.inkscape.org/namespaces/inkscape"
   inkscape:version="1.0 (4035a4fb49, 2020-05-01)"
   sodipodi:docname="gaussian.svg"
   viewBox="0 0 298.66666 245.33333"
   height="245.33333"
   width="298.66666"
   xml:space="preserve"
   id="svg1721"
   version="1.1"><metadata
     id="metadata1727"><rdf:RDF><cc:Work
         rdf:about=""><dc:format>image/svg+xml</dc:format><dc:type
           rdf:resource="http://purl.org/dc/dcmitype/StillImage" /><dc:title /></cc:Work></rdf:RDF></metadata><defs
     id="defs1725"><g
   id="g3999">
      <symbol
   id="symbol4964"
   overflow="visible">
        <path
   id="path9001"
   d=""
   style="stroke:none;" />
      </symbol>
      <symbol
   id="symbol8313"
   overflow="visible">
        <path
   id="path3259"
   d="M 1.109375 -2.515625 C 1.171875 -4 2.015625 -4.25 2.359375 -4.25 C 3.375 -4.25 3.484375 -2.90625 3.484375 -2.515625 Z M 1.109375 -2.296875 L 3.890625 -2.296875 C 4.109375 -2.296875 4.140625 -2.296875 4.140625 -2.515625 C 4.140625 -3.5 3.59375 -4.46875 2.359375 -4.46875 C 1.203125 -4.46875 0.28125 -3.4375 0.28125 -2.1875 C 0.28125 -0.859375 1.328125 0.109375 2.46875 0.109375 C 3.6875 0.109375 4.140625 -1 4.140625 -1.1875 C 4.140625 -1.28125 4.0625 -1.3125 4 -1.3125 C 3.921875 -1.3125 3.890625 -1.25 3.875 -1.171875 C 3.53125 -0.140625 2.625 -0.140625 2.53125 -0.140625 C 2.03125 -0.140625 1.640625 -0.4375 1.40625 -0.8125 C 1.109375 -1.28125 1.109375 -1.9375 1.109375 -2.296875 Z M 1.109375 -2.296875 "
   style="stroke:none;" />
      </symbol>
      <symbol
   id="symbol5479"
   overflow="visible">
        <path
   id="path1121"
   d="M 2.859375 -2.34375 C 3.15625 -2.71875 3.53125 -3.203125 3.78125 -3.46875 C 4.09375 -3.828125 4.5 -3.984375 4.96875 -3.984375 L 4.96875 -4.296875 C 4.703125 -4.28125 4.40625 -4.265625 4.140625 -4.265625 C 3.84375 -4.265625 3.3125 -4.28125 3.1875 -4.296875 L 3.1875 -3.984375 C 3.40625 -3.96875 3.484375 -3.84375 3.484375 -3.671875 C 3.484375 -3.515625 3.375 -3.390625 3.328125 -3.328125 L 2.71875 -2.546875 L 1.9375 -3.5625 C 1.84375 -3.65625 1.84375 -3.671875 1.84375 -3.734375 C 1.84375 -3.890625 2 -3.984375 2.1875 -3.984375 L 2.1875 -4.296875 C 1.9375 -4.28125 1.28125 -4.265625 1.109375 -4.265625 C 0.90625 -4.265625 0.4375 -4.28125 0.171875 -4.296875 L 0.171875 -3.984375 C 0.875 -3.984375 0.875 -3.984375 1.34375 -3.375 L 2.328125 -2.09375 L 1.390625 -0.90625 C 0.921875 -0.328125 0.328125 -0.3125 0.125 -0.3125 L 0.125 0 C 0.375 -0.015625 0.6875 -0.03125 0.953125 -0.03125 C 1.234375 -0.03125 1.65625 -0.015625 1.890625 0 L 1.890625 -0.3125 C 1.671875 -0.34375 1.609375 -0.46875 1.609375 -0.625 C 1.609375 -0.84375 1.890625 -1.171875 2.5 -1.890625 L 3.265625 -0.890625 C 3.34375 -0.78125 3.46875 -0.625 3.46875 -0.5625 C 3.46875 -0.46875 3.375 -0.3125 3.109375 -0.3125 L 3.109375 0 C 3.40625 -0.015625 3.96875 -0.03125 4.1875 -0.03125 C 4.453125 -0.03125 4.84375 -0.015625 5.140625 0 L 5.140625 -0.3125 C 4.609375 -0.3125 4.421875 -0.328125 4.203125 -0.625 Z M 2.859375 -2.34375 "
   style="stroke:none;" />
      </symbol>
      <symbol
   id="symbol7148"
   overflow="visible">
        <path
   id="path5809"
   d="M 1.71875 -3.75 L 1.71875 -4.40625 L 0.28125 -4.296875 L 0.28125 -3.984375 C 0.984375 -3.984375 1.0625 -3.921875 1.0625 -3.484375 L 1.0625 1.171875 C 1.0625 1.625 0.953125 1.625 0.28125 1.625 L 0.28125 1.9375 C 0.625 1.921875 1.140625 1.90625 1.390625 1.90625 C 1.671875 1.90625 2.171875 1.921875 2.515625 1.9375 L 2.515625 1.625 C 1.859375 1.625 1.75 1.625 1.75 1.171875 L 1.75 -0.59375 C 1.796875 -0.421875 2.21875 0.109375 2.96875 0.109375 C 4.15625 0.109375 5.1875 -0.875 5.1875 -2.15625 C 5.1875 -3.421875 4.234375 -4.40625 3.109375 -4.40625 C 2.328125 -4.40625 1.90625 -3.96875 1.71875 -3.75 Z M 1.75 -1.140625 L 1.75 -3.359375 C 2.03125 -3.875 2.515625 -4.15625 3.03125 -4.15625 C 3.765625 -4.15625 4.359375 -3.28125 4.359375 -2.15625 C 4.359375 -0.953125 3.671875 -0.109375 2.9375 -0.109375 C 2.53125 -0.109375 2.15625 -0.3125 1.890625 -0.71875 C 1.75 -0.921875 1.75 -0.9375 1.75 -1.140625 Z M 1.75 -1.140625 "
   style="stroke:none;" />
      </symbol>
      <symbol
   id="symbol970"
   overflow="visible">
        <path
   id="path5119"
   d=""
   style="stroke:none;" />
      </symbol>
      <symbol
   id="symbol19"
   overflow="visible">
        <path
   id="path4797"
   d="M 4.109375 11.453125 C 4.109375 11.421875 4.09375 11.390625 4.078125 11.359375 C 3.625 10.875 2.9375 10.0625 2.515625 8.4375 C 2.296875 7.53125 2.203125 6.515625 2.203125 5.578125 C 2.203125 2.953125 2.828125 1.125 4.03125 -0.171875 C 4.109375 -0.265625 4.109375 -0.28125 4.109375 -0.296875 C 4.109375 -0.40625 4.03125 -0.40625 4 -0.40625 C 3.84375 -0.40625 3.3125 0.203125 3.1875 0.34375 C 2.15625 1.5625 1.515625 3.34375 1.515625 5.578125 C 1.515625 6.984375 1.765625 8.984375 3.078125 10.671875 C 3.171875 10.796875 3.8125 11.546875 4 11.546875 C 4.03125 11.546875 4.109375 11.546875 4.109375 11.453125 Z M 4.109375 11.453125 "
   style="stroke:none;" />
      </symbol>
      <symbol
   id="symbol6396"
   overflow="visible">
        <path
   id="path1118"
   d="M 3.046875 5.578125 C 3.046875 4.171875 2.796875 2.15625 1.484375 0.484375 C 1.390625 0.359375 0.734375 -0.40625 0.5625 -0.40625 C 0.515625 -0.40625 0.4375 -0.375 0.4375 -0.296875 C 0.4375 -0.265625 0.453125 -0.234375 0.5 -0.203125 C 0.984375 0.3125 1.625 1.125 2.03125 2.71875 C 2.265625 3.625 2.359375 4.640625 2.359375 5.578125 C 2.359375 6.578125 2.265625 7.59375 2 8.578125 C 1.625 9.96875 1.03125 10.765625 0.53125 11.328125 C 0.4375 11.421875 0.4375 11.4375 0.4375 11.453125 C 0.4375 11.53125 0.515625 11.546875 0.5625 11.546875 C 0.703125 11.546875 1.25 10.953125 1.375 10.8125 C 2.390625 9.59375 3.046875 7.8125 3.046875 5.578125 Z M 3.046875 5.578125 "
   style="stroke:none;" />
      </symbol>
      <symbol
   id="symbol2387"
   overflow="visible">
        <path
   id="path1415"
   d=""
   style="stroke:none;" />
      </symbol>
      <symbol
   id="symbol3234"
   overflow="visible">
        <path
   id="path8446"
   d="M 6.5625 -2.296875 C 6.734375 -2.296875 6.921875 -2.296875 6.921875 -2.5 C 6.921875 -2.6875 6.734375 -2.6875 6.5625 -2.6875 L 1.171875 -2.6875 C 1 -2.6875 0.828125 -2.6875 0.828125 -2.5 C 0.828125 -2.296875 1 -2.296875 1.171875 -2.296875 Z M 6.5625 -2.296875 "
   style="stroke:none;" />
      </symbol>
      <symbol
   id="symbol2711"
   overflow="visible">
        <path
   id="path209"
   d=""
   style="stroke:none;" />
      </symbol>
      <symbol
   id="symbol6522"
   overflow="visible">
        <path
   id="path9831"
   d="M 0.40625 -2.53125 C 0.796875 -3.671875 1.890625 -3.6875 2 -3.6875 C 3.5 -3.6875 3.609375 -1.9375 3.609375 -1.15625 C 3.609375 -0.546875 3.5625 -0.375 3.484375 -0.171875 C 3.265625 0.546875 2.96875 1.703125 2.96875 1.96875 C 2.96875 2.078125 3.015625 2.140625 3.09375 2.140625 C 3.234375 2.140625 3.3125 1.921875 3.421875 1.546875 C 3.65625 0.703125 3.75 0.140625 3.78125 -0.171875 C 3.8125 -0.296875 3.828125 -0.421875 3.875 -0.5625 C 4.1875 -1.546875 4.828125 -3.03125 5.21875 -3.8125 C 5.296875 -3.9375 5.40625 -4.15625 5.40625 -4.203125 C 5.40625 -4.296875 5.3125 -4.296875 5.296875 -4.296875 C 5.265625 -4.296875 5.203125 -4.296875 5.171875 -4.234375 C 4.65625 -3.28125 4.25 -2.28125 3.859375 -1.28125 C 3.84375 -1.578125 3.84375 -2.34375 3.453125 -3.3125 C 3.203125 -3.921875 2.8125 -4.40625 2.125 -4.40625 C 0.875 -4.40625 0.171875 -2.890625 0.171875 -2.578125 C 0.171875 -2.484375 0.265625 -2.484375 0.375 -2.484375 Z M 0.40625 -2.53125 "
   style="stroke:none;" />
      </symbol>
      <symbol
   id="symbol8619"
   overflow="visible">
        <path
   id="path9065"
   d="M 3.328125 -3.015625 C 3.390625 -3.265625 3.625 -4.1875 4.3125 -4.1875 C 4.359375 -4.1875 4.609375 -4.1875 4.8125 -4.0625 C 4.53125 -4 4.34375 -3.765625 4.34375 -3.515625 C 4.34375 -3.359375 4.453125 -3.171875 4.71875 -3.171875 C 4.9375 -3.171875 5.25 -3.34375 5.25 -3.75 C 5.25 -4.265625 4.671875 -4.40625 4.328125 -4.40625 C 3.75 -4.40625 3.40625 -3.875 3.28125 -3.65625 C 3.03125 -4.3125 2.5 -4.40625 2.203125 -4.40625 C 1.171875 -4.40625 0.59375 -3.125 0.59375 -2.875 C 0.59375 -2.765625 0.703125 -2.765625 0.71875 -2.765625 C 0.796875 -2.765625 0.828125 -2.796875 0.84375 -2.875 C 1.1875 -3.9375 1.84375 -4.1875 2.1875 -4.1875 C 2.375 -4.1875 2.71875 -4.09375 2.71875 -3.515625 C 2.71875 -3.203125 2.546875 -2.546875 2.1875 -1.140625 C 2.03125 -0.53125 1.671875 -0.109375 1.234375 -0.109375 C 1.171875 -0.109375 0.953125 -0.109375 0.734375 -0.234375 C 0.984375 -0.296875 1.203125 -0.5 1.203125 -0.78125 C 1.203125 -1.046875 0.984375 -1.125 0.84375 -1.125 C 0.53125 -1.125 0.296875 -0.875 0.296875 -0.546875 C 0.296875 -0.09375 0.78125 0.109375 1.21875 0.109375 C 1.890625 0.109375 2.25 -0.59375 2.265625 -0.640625 C 2.390625 -0.28125 2.75 0.109375 3.34375 0.109375 C 4.375 0.109375 4.9375 -1.171875 4.9375 -1.421875 C 4.9375 -1.53125 4.859375 -1.53125 4.828125 -1.53125 C 4.734375 -1.53125 4.71875 -1.484375 4.6875 -1.421875 C 4.359375 -0.34375 3.6875 -0.109375 3.375 -0.109375 C 2.984375 -0.109375 2.828125 -0.421875 2.828125 -0.765625 C 2.828125 -0.984375 2.875 -1.203125 2.984375 -1.640625 Z M 3.328125 -3.015625 "
   style="stroke:none;" />
      </symbol>
      <symbol
   id="symbol1031"
   overflow="visible">
        <path
   id="path3906"
   d=""
   style="stroke:none;" />
      </symbol>
      <symbol
   id="symbol2959"
   overflow="visible">
        <path
   id="path2114"
   d="M 3.515625 -1.265625 L 3.28125 -1.265625 C 3.265625 -1.109375 3.1875 -0.703125 3.09375 -0.640625 C 3.046875 -0.59375 2.515625 -0.59375 2.40625 -0.59375 L 1.125 -0.59375 C 1.859375 -1.234375 2.109375 -1.4375 2.515625 -1.765625 C 3.03125 -2.171875 3.515625 -2.609375 3.515625 -3.265625 C 3.515625 -4.109375 2.78125 -4.625 1.890625 -4.625 C 1.03125 -4.625 0.4375 -4.015625 0.4375 -3.375 C 0.4375 -3.03125 0.734375 -2.984375 0.8125 -2.984375 C 0.96875 -2.984375 1.171875 -3.109375 1.171875 -3.359375 C 1.171875 -3.484375 1.125 -3.734375 0.765625 -3.734375 C 0.984375 -4.21875 1.453125 -4.375 1.78125 -4.375 C 2.484375 -4.375 2.84375 -3.828125 2.84375 -3.265625 C 2.84375 -2.65625 2.40625 -2.1875 2.1875 -1.9375 L 0.515625 -0.265625 C 0.4375 -0.203125 0.4375 -0.1875 0.4375 0 L 3.3125 0 Z M 3.515625 -1.265625 "
   style="stroke:none;" />
      </symbol>
    </g>
  <g
   id="g4409">
      <symbol
   id="symbol1144"
   overflow="visible">
        <path
   id="path8532"
   d=""
   style="stroke:none;" />
      </symbol>
      <symbol
   id="symbol8473"
   overflow="visible">
        <path
   id="path9598"
   d="M 0.40625 -2.53125 C 0.796875 -3.671875 1.890625 -3.6875 2 -3.6875 C 3.5 -3.6875 3.609375 -1.9375 3.609375 -1.15625 C 3.609375 -0.546875 3.5625 -0.375 3.484375 -0.171875 C 3.265625 0.546875 2.96875 1.703125 2.96875 1.96875 C 2.96875 2.078125 3.015625 2.140625 3.09375 2.140625 C 3.234375 2.140625 3.3125 1.921875 3.421875 1.546875 C 3.65625 0.703125 3.75 0.140625 3.78125 -0.171875 C 3.8125 -0.296875 3.828125 -0.421875 3.875 -0.5625 C 4.1875 -1.546875 4.828125 -3.03125 5.21875 -3.8125 C 5.296875 -3.9375 5.40625 -4.15625 5.40625 -4.203125 C 5.40625 -4.296875 5.3125 -4.296875 5.296875 -4.296875 C 5.265625 -4.296875 5.203125 -4.296875 5.171875 -4.234375 C 4.65625 -3.28125 4.25 -2.28125 3.859375 -1.28125 C 3.84375 -1.578125 3.84375 -2.34375 3.453125 -3.3125 C 3.203125 -3.921875 2.8125 -4.40625 2.125 -4.40625 C 0.875 -4.40625 0.171875 -2.890625 0.171875 -2.578125 C 0.171875 -2.484375 0.265625 -2.484375 0.375 -2.484375 Z M 0.40625 -2.53125 "
   style="stroke:none;" />
      </symbol>
      <symbol
   id="symbol6558"
   overflow="visible">
        <path
   id="path7432"
   d=""
   style="stroke:none;" />
      </symbol>
      <symbol
   id="symbol3477"
   overflow="visible">
        <path
   id="path9360"
   d="M 6.84375 -3.265625 C 7 -3.265625 7.1875 -3.265625 7.1875 -3.453125 C 7.1875 -3.65625 7 -3.65625 6.859375 -3.65625 L 0.890625 -3.65625 C 0.75 -3.65625 0.5625 -3.65625 0.5625 -3.453125 C 0.5625 -3.265625 0.75 -3.265625 0.890625 -3.265625 Z M 6.859375 -1.328125 C 7 -1.328125 7.1875 -1.328125 7.1875 -1.53125 C 7.1875 -1.71875 7 -1.71875 6.84375 -1.71875 L 0.890625 -1.71875 C 0.75 -1.71875 0.5625 -1.71875 0.5625 -1.53125 C 0.5625 -1.328125 0.75 -1.328125 0.890625 -1.328125 Z M 6.859375 -1.328125 "
   style="stroke:none;" />
      </symbol>
      <symbol
   id="symbol1832"
   overflow="visible">
        <path
   id="path8758"
   d="M 2.9375 -6.375 C 2.9375 -6.625 2.9375 -6.640625 2.703125 -6.640625 C 2.078125 -6 1.203125 -6 0.890625 -6 L 0.890625 -5.6875 C 1.09375 -5.6875 1.671875 -5.6875 2.1875 -5.953125 L 2.1875 -0.78125 C 2.1875 -0.421875 2.15625 -0.3125 1.265625 -0.3125 L 0.953125 -0.3125 L 0.953125 0 C 1.296875 -0.03125 2.15625 -0.03125 2.5625 -0.03125 C 2.953125 -0.03125 3.828125 -0.03125 4.171875 0 L 4.171875 -0.3125 L 3.859375 -0.3125 C 2.953125 -0.3125 2.9375 -0.421875 2.9375 -0.78125 Z M 2.9375 -6.375 "
   style="stroke:none;" />
      </symbol>
    </g>
  <g
   id="g7621">
      <symbol
   id="symbol6205"
   overflow="visible">
        <path
   id="path4688"
   d=""
   style="stroke:none;" />
      </symbol>
      <symbol
   id="symbol6646"
   overflow="visible">
        <path
   id="path2778"
   d="M 0.40625 -2.53125 C 0.796875 -3.671875 1.890625 -3.6875 2 -3.6875 C 3.5 -3.6875 3.609375 -1.9375 3.609375 -1.15625 C 3.609375 -0.546875 3.5625 -0.375 3.484375 -0.171875 C 3.265625 0.546875 2.96875 1.703125 2.96875 1.96875 C 2.96875 2.078125 3.015625 2.140625 3.09375 2.140625 C 3.234375 2.140625 3.3125 1.921875 3.421875 1.546875 C 3.65625 0.703125 3.75 0.140625 3.78125 -0.171875 C 3.8125 -0.296875 3.828125 -0.421875 3.875 -0.5625 C 4.1875 -1.546875 4.828125 -3.03125 5.21875 -3.8125 C 5.296875 -3.9375 5.40625 -4.15625 5.40625 -4.203125 C 5.40625 -4.296875 5.3125 -4.296875 5.296875 -4.296875 C 5.265625 -4.296875 5.203125 -4.296875 5.171875 -4.234375 C 4.65625 -3.28125 4.25 -2.28125 3.859375 -1.28125 C 3.84375 -1.578125 3.84375 -2.34375 3.453125 -3.3125 C 3.203125 -3.921875 2.8125 -4.40625 2.125 -4.40625 C 0.875 -4.40625 0.171875 -2.890625 0.171875 -2.578125 C 0.171875 -2.484375 0.265625 -2.484375 0.375 -2.484375 Z M 0.40625 -2.53125 "
   style="stroke:none;" />
      </symbol>
      <symbol
   id="symbol5936"
   overflow="visible">
        <path
   id="path9424"
   d=""
   style="stroke:none;" />
      </symbol>
      <symbol
   id="symbol7318"
   overflow="visible">
        <path
   id="path6423"
   d="M 6.84375 -3.265625 C 7 -3.265625 7.1875 -3.265625 7.1875 -3.453125 C 7.1875 -3.65625 7 -3.65625 6.859375 -3.65625 L 0.890625 -3.65625 C 0.75 -3.65625 0.5625 -3.65625 0.5625 -3.453125 C 0.5625 -3.265625 0.75 -3.265625 0.890625 -3.265625 Z M 6.859375 -1.328125 C 7 -1.328125 7.1875 -1.328125 7.1875 -1.53125 C 7.1875 -1.71875 7 -1.71875 6.84375 -1.71875 L 0.890625 -1.71875 C 0.75 -1.71875 0.5625 -1.71875 0.5625 -1.53125 C 0.5625 -1.328125 0.75 -1.328125 0.890625 -1.328125 Z M 6.859375 -1.328125 "
   style="stroke:none;" />
      </symbol>
      <symbol
   id="symbol4024"
   overflow="visible">
        <path
   id="path2202"
   d="M 1.265625 -0.765625 L 2.328125 -1.796875 C 3.875 -3.171875 4.46875 -3.703125 4.46875 -4.703125 C 4.46875 -5.84375 3.578125 -6.640625 2.359375 -6.640625 C 1.234375 -6.640625 0.5 -5.71875 0.5 -4.828125 C 0.5 -4.28125 1 -4.28125 1.03125 -4.28125 C 1.203125 -4.28125 1.546875 -4.390625 1.546875 -4.8125 C 1.546875 -5.0625 1.359375 -5.328125 1.015625 -5.328125 C 0.9375 -5.328125 0.921875 -5.328125 0.890625 -5.3125 C 1.109375 -5.96875 1.65625 -6.328125 2.234375 -6.328125 C 3.140625 -6.328125 3.5625 -5.515625 3.5625 -4.703125 C 3.5625 -3.90625 3.078125 -3.125 2.515625 -2.5 L 0.609375 -0.375 C 0.5 -0.265625 0.5 -0.234375 0.5 0 L 4.203125 0 L 4.46875 -1.734375 L 4.234375 -1.734375 C 4.171875 -1.4375 4.109375 -1 4 -0.84375 C 3.9375 -0.765625 3.28125 -0.765625 3.0625 -0.765625 Z M 1.265625 -0.765625 "
   style="stroke:none;" />
      </symbol>
    </g>
  <g
   id="g4339">
      <symbol
   id="symbol1988"
   overflow="visible">
        <path
   id="path3053"
   d=""
   style="stroke:none;" />
      </symbol>
      <symbol
   id="symbol5673"
   overflow="visible">
        <path
   id="path9560"
   d="M 0.40625 -2.53125 C 0.796875 -3.671875 1.890625 -3.6875 2 -3.6875 C 3.5 -3.6875 3.609375 -1.9375 3.609375 -1.15625 C 3.609375 -0.546875 3.5625 -0.375 3.484375 -0.171875 C 3.265625 0.546875 2.96875 1.703125 2.96875 1.96875 C 2.96875 2.078125 3.015625 2.140625 3.09375 2.140625 C 3.234375 2.140625 3.3125 1.921875 3.421875 1.546875 C 3.65625 0.703125 3.75 0.140625 3.78125 -0.171875 C 3.8125 -0.296875 3.828125 -0.421875 3.875 -0.5625 C 4.1875 -1.546875 4.828125 -3.03125 5.21875 -3.8125 C 5.296875 -3.9375 5.40625 -4.15625 5.40625 -4.203125 C 5.40625 -4.296875 5.3125 -4.296875 5.296875 -4.296875 C 5.265625 -4.296875 5.203125 -4.296875 5.171875 -4.234375 C 4.65625 -3.28125 4.25 -2.28125 3.859375 -1.28125 C 3.84375 -1.578125 3.84375 -2.34375 3.453125 -3.3125 C 3.203125 -3.921875 2.8125 -4.40625 2.125 -4.40625 C 0.875 -4.40625 0.171875 -2.890625 0.171875 -2.578125 C 0.171875 -2.484375 0.265625 -2.484375 0.375 -2.484375 Z M 0.40625 -2.53125 "
   style="stroke:none;" />
      </symbol>
      <symbol
   id="symbol7796"
   overflow="visible">
        <path
   id="path3091"
   d=""
   style="stroke:none;" />
      </symbol>
      <symbol
   id="symbol380"
   overflow="visible">
        <path
   id="path5634"
   d="M 6.84375 -3.265625 C 7 -3.265625 7.1875 -3.265625 7.1875 -3.453125 C 7.1875 -3.65625 7 -3.65625 6.859375 -3.65625 L 0.890625 -3.65625 C 0.75 -3.65625 0.5625 -3.65625 0.5625 -3.453125 C 0.5625 -3.265625 0.75 -3.265625 0.890625 -3.265625 Z M 6.859375 -1.328125 C 7 -1.328125 7.1875 -1.328125 7.1875 -1.53125 C 7.1875 -1.71875 7 -1.71875 6.84375 -1.71875 L 0.890625 -1.71875 C 0.75 -1.71875 0.5625 -1.71875 0.5625 -1.53125 C 0.5625 -1.328125 0.75 -1.328125 0.890625 -1.328125 Z M 6.859375 -1.328125 "
   style="stroke:none;" />
      </symbol>
      <symbol
   id="symbol5656"
   overflow="visible">
        <path
   id="path1462"
   d="M 2.890625 -3.515625 C 3.703125 -3.78125 4.28125 -4.46875 4.28125 -5.265625 C 4.28125 -6.078125 3.40625 -6.640625 2.453125 -6.640625 C 1.453125 -6.640625 0.6875 -6.046875 0.6875 -5.28125 C 0.6875 -4.953125 0.90625 -4.765625 1.203125 -4.765625 C 1.5 -4.765625 1.703125 -4.984375 1.703125 -5.28125 C 1.703125 -5.765625 1.234375 -5.765625 1.09375 -5.765625 C 1.390625 -6.265625 2.046875 -6.390625 2.40625 -6.390625 C 2.828125 -6.390625 3.375 -6.171875 3.375 -5.28125 C 3.375 -5.15625 3.34375 -4.578125 3.09375 -4.140625 C 2.796875 -3.65625 2.453125 -3.625 2.203125 -3.625 C 2.125 -3.609375 1.890625 -3.59375 1.8125 -3.59375 C 1.734375 -3.578125 1.671875 -3.5625 1.671875 -3.46875 C 1.671875 -3.359375 1.734375 -3.359375 1.90625 -3.359375 L 2.34375 -3.359375 C 3.15625 -3.359375 3.53125 -2.6875 3.53125 -1.703125 C 3.53125 -0.34375 2.84375 -0.0625 2.40625 -0.0625 C 1.96875 -0.0625 1.21875 -0.234375 0.875 -0.8125 C 1.21875 -0.765625 1.53125 -0.984375 1.53125 -1.359375 C 1.53125 -1.71875 1.265625 -1.921875 0.984375 -1.921875 C 0.734375 -1.921875 0.421875 -1.78125 0.421875 -1.34375 C 0.421875 -0.4375 1.34375 0.21875 2.4375 0.21875 C 3.65625 0.21875 4.5625 -0.6875 4.5625 -1.703125 C 4.5625 -2.515625 3.921875 -3.296875 2.890625 -3.515625 Z M 2.890625 -3.515625 "
   style="stroke:none;" />
      </symbol>
    </g>
  </defs><sodipodi:namedview
     inkscape:document-rotation="0"
     inkscape:current-layer="g1729"
     inkscape:window-maximized="1"
     inkscape:window-y="0"
     inkscape:window-x="0"
     inkscape:cy="135.15622"
     inkscape:cx="185.59673"
     inkscape:zoom="1"
     showgrid="false"
     id="namedview1723"
     inkscape:window-height="1026"
     inkscape:window-width="1920"
     inkscape:pageshadow="2"
     inkscape:pageopacity="0"
     guidetolerance="10"
     gridtolerance="10"
     objecttolerance="10"
     borderopacity="1"
     bordercolor="#666666"
     pagecolor="#ffffff" /><g
     transform="matrix(1.3333333,0,0,-1.3333333,0,245.33333)"
     inkscape:label="gaussian"
     inkscape:groupmode="layer"
     id="g1729"><path
       id="path1753-6"
       style="fill:none;stroke:#000000;stroke-width:0.75;stroke-linecap:butt;stroke-linejoin:miter;stroke-miterlimit:10;stroke-dasharray:none;stroke-opacity:1"
       d="m 205.24301,11.637 v 2.179" /><path
       id="path1743"
       style="fill:#000000;fill-opacity:1;fill-rule:evenodd;stroke:#000000;stroke-width:0.366262;stroke-linecap:butt;stroke-linejoin:round;stroke-miterlimit:4;stroke-dasharray:none;stroke-opacity:1"
       d="m 112.668,175.031 -2.352,6.403 -2.355,-6.403 c 1.391,1.02 3.293,1.016 4.707,0 z" /><path
       d="m 110.28675,11.637 v 2.179"
       style="fill:none;stroke:#000000;stroke-width:0.75;stroke-linecap:butt;stroke-linejoin:miter;stroke-miterlimit:10;stroke-dasharray:none;stroke-opacity:1"
       id="path1745" /><path
       d="m 47.127438,11.637 v 2.179"
       style="fill:none;stroke:#000000;stroke-width:0.75;stroke-linecap:butt;stroke-linejoin:miter;stroke-miterlimit:10;stroke-dasharray:none;stroke-opacity:1"
       id="path1749" /><path
       d="m 110.34766,11.637 v 2.179"
       style="fill:none;stroke:#000000;stroke-width:0.75;stroke-linecap:butt;stroke-linejoin:miter;stroke-miterlimit:10;stroke-dasharray:none;stroke-opacity:1"
       id="path1751" /><path
       d="m 173.56788,11.637 v 2.179"
       style="fill:none;stroke:#000000;stroke-width:0.75;stroke-linecap:butt;stroke-linejoin:miter;stroke-miterlimit:10;stroke-dasharray:none;stroke-opacity:1"
       id="path1753" /><path
       d="m 108.938,85.426 h 3.55"
       style="fill:none;stroke:#000000;stroke-width:0.976699;stroke-linecap:butt;stroke-linejoin:miter;stroke-miterlimit:10;stroke-dasharray:none;stroke-opacity:1"
       id="path1757" /><path
       d="m 220.15029,7.0612916 0.007,0.025771 0.009,0.029096 0.007,0.029096 0.007,0.035747 0.0133,0.039072 0.0125,0.042397 0.01,0.042397 0.0166,0.041566 0.0125,0.045723 0.0391,0.097264 0.0191,0.045723 0.0233,0.049048 0.0224,0.051542 0.0524,0.097264 0.0291,0.045723 0.0291,0.049048 0.0358,0.044891 0.0357,0.042397 0.0324,0.045723 0.0424,0.039072 0.0391,0.035747 0.0449,0.035747 0.0457,0.032421 0.049,0.025771 0.0224,0.013301 0.0258,0.01247 0.0524,0.019952 0.0291,0.00914 0.0258,0.00998 0.0291,0.00333 0.0291,0.00665 0.0299,0.00333 0.0324,0.00582 h 0.0615 c 0.0515,0 0.28597,0 0.49048,-0.1263604 -0.276,-0.048217 -0.47136,-0.2917929 -0.47136,-0.5262248 0,-0.1554567 0.10724,-0.344166 0.37077,-0.344166 0.21697,0 0.52872,0.172083 0.52872,0.568622 0,0.5095985 -0.57777,0.6426095 -0.90863,0.6426095 -0.56863,0 -0.91279,-0.5195743 -1.03001,-0.743199 -0.2469,0.6459347 -0.77229,0.743199 -1.05494,0.743199 -1.02003,0 -1.582,-1.2627733 -1.582,-1.5063497 0,-0.1005896 0.0981,-0.1005896 0.12054,-0.1005896 0.0781,0 0.10724,0.022446 0.12636,0.1097341 0.3317,1.0391485 0.98096,1.2827249 1.31182,1.2827249 0.18871,0 0.52955,-0.083963 0.52955,-0.6525852 0,-0.3050941 -0.16543,-0.9643299 -0.52955,-2.3343433 -0.15546,-0.6076941 -0.49962,-1.016703 -0.93191,-1.016703 -0.0582,0 -0.28265,0 -0.48715,0.1263605 0.2469,0.045723 0.46138,0.250227 0.46138,0.5295501 0,0.2635281 -0.21448,0.3408407 -0.36328,0.3408407 -0.29595,0 -0.53953,-0.2527209 -0.53953,-0.5677907 0,-0.4480809 0.49048,-0.6467661 0.91944,-0.6467661 0.64926,0 1.00007,0.685838 1.0325,0.7440304 0.11306,-0.3641177 0.4672,-0.7440304 1.05494,-0.7440304 1.01005,0 1.57202,1.2636046 1.57202,1.5071811 0,0.1005895 -0.0906,0.1005895 -0.12054,0.1005895 -0.0873,0 -0.10973,-0.039072 -0.12636,-0.1072401 -0.32172,-1.0491244 -0.9901,-1.282725 -1.30517,-1.282725 -0.38324,0 -0.53952,0.3117446 -0.53952,0.6459348 0,0.2144802 0.059,0.4289605 0.16875,0.8612463 z"
       style="fill:#000000;fill-opacity:1;fill-rule:evenodd;stroke:none;stroke-width:1"
       id="path1773" /><text
       transform="scale(1,-1)"
       id="text2462"
       y="-5.7448735"
       x="12.043858"
       style="font-size:21px;line-height:1.25;font-family:Arial;-inkscape-font-specification:Arial;letter-spacing:0px;word-spacing:0px;stroke-width:0.750001"
       xml:space="preserve"><tspan
         style="font-size:6.3px;stroke-width:0.750001"
         y="-5.7448735"
         x="12.043858"
         id="tspan2460"
         sodipodi:role="line">-3</tspan></text><text
       transform="scale(1,-1)"
       xml:space="preserve"
       style="font-size:21px;line-height:1.25;font-family:Arial;-inkscape-font-specification:Arial;letter-spacing:0px;word-spacing:0px;stroke-width:0.750001"
       x="43.72356"
       y="-5.7488308"
       id="text2462-3"><tspan
         sodipodi:role="line"
         id="tspan2460-6"
         x="43.72356"
         y="-5.7488308"
         style="font-size:6.3px;stroke-width:0.750001">-2</tspan></text><text
       transform="scale(1,-1)"
       id="text2462-3-7"
       y="-5.7323513"
       x="108.52847"
       style="font-size:21px;line-height:1.25;font-family:Arial;-inkscape-font-specification:Arial;letter-spacing:0px;word-spacing:0px;stroke-width:0.750001"
       xml:space="preserve"><tspan
         style="font-size:6.3px;stroke-width:0.750001"
         y="-5.7323513"
         x="108.52847"
         id="tspan2460-6-5"
         sodipodi:role="line">0</tspan></text><text
       transform="scale(1,-1)"
       xml:space="preserve"
       style="font-size:21px;line-height:1.25;font-family:Arial;-inkscape-font-specification:Arial;letter-spacing:0px;word-spacing:0px;stroke-width:0.750001"
       x="171.84065"
       y="-5.7488308"
       id="text2462-3-7-3"><tspan
         sodipodi:role="line"
         id="tspan2460-6-5-5"
         x="171.84065"
         y="-5.7488308"
         style="font-size:6.3px;stroke-width:0.750001">2</tspan></text><text
       transform="scale(1,-1)"
       id="text2462-3-7-3-6"
       y="-5.7448759"
       x="203.5054"
       style="font-size:21px;line-height:1.25;font-family:Arial;-inkscape-font-specification:Arial;letter-spacing:0px;word-spacing:0px;stroke-width:0.750001"
       xml:space="preserve"><tspan
         style="font-size:6.3px;stroke-width:0.750001"
         y="-5.7448759"
         x="203.5054"
         id="tspan2460-6-5-5-2"
         sodipodi:role="line">3</tspan></text><text
       transform="scale(1,-1)"
       xml:space="preserve"
       style="font-size:21px;line-height:1.25;font-family:Arial;-inkscape-font-specification:Arial;letter-spacing:0px;word-spacing:0px;stroke-width:0.750001"
       x="98.670395"
       y="-83.65667"
       id="text2462-3-7-9"><tspan
         sodipodi:role="line"
         id="tspan2460-6-5-1"
         x="98.670395"
         y="-83.65667"
         style="font-size:6.3px;stroke-width:0.750001">0.5</tspan></text><text
       transform="scale(1,-1)"
       xml:space="preserve"
       style="font-size:21px;line-height:1.25;font-family:Arial;-inkscape-font-specification:Arial;letter-spacing:0px;word-spacing:0px;stroke-width:0.750001"
       x="95.330742"
       y="-154.92775"
       id="text2462-3-7-2"><tspan
         sodipodi:role="line"
         id="tspan2460-6-5-7"
         x="95.330742"
         y="-154.92775"
         style="font-size:6.3px;stroke-width:0.750001">1.0</tspan></text><g
       style="stroke-width:1.03999"
       inkscape:label=""
       transform="matrix(0.96154593,0,0,-0.96154593,-30.376287,253.73572)"
       id="g2701"><g
   style="stroke-width:1.03999"
   id="g4069">
    <g
   id="g3545"
   style="fill:#000000;fill-opacity:1;stroke-width:1.03999">
      <use
   style="stroke-width:1.03999"
   height="100%"
   width="100%"
   id="use7049"
   y="81.962997"
   x="91.925003"
   xlink:href="#symbol8313" />
      <use
   style="stroke-width:1.03999"
   height="100%"
   width="100%"
   id="use2198"
   y="81.962997"
   x="96.352379"
   xlink:href="#symbol5479" />
      <use
   style="stroke-width:1.03999"
   height="100%"
   width="100%"
   id="use6629"
   y="81.962997"
   x="101.61064"
   xlink:href="#symbol7148" />
    </g>
    <g
   id="g1794"
   style="fill:#000000;fill-opacity:1;stroke-width:1.03999">
      <use
   style="stroke-width:1.03999"
   height="100%"
   width="100%"
   id="use1921"
   y="73.892998"
   x="108.806"
   xlink:href="#symbol19" />
    </g>
    <g
   id="g6656"
   style="fill:#000000;fill-opacity:1;stroke-width:1.03999">
      <use
   style="stroke-width:1.03999"
   height="100%"
   width="100%"
   id="use6057"
   y="81.962997"
   x="113.373"
   xlink:href="#symbol3234" />
    </g>
    <g
   id="g834"
   style="fill:#000000;fill-opacity:1;stroke-width:1.03999">
      <use
   style="stroke-width:1.03999"
   height="100%"
   width="100%"
   id="use840"
   y="81.962997"
   x="121.121"
   xlink:href="#symbol6522" />
    </g>
    <g
   id="g1149"
   style="fill:#000000;fill-opacity:1;stroke-width:1.03999">
      <use
   style="stroke-width:1.03999"
   height="100%"
   width="100%"
   id="use1947"
   y="81.962997"
   x="126.83654"
   xlink:href="#symbol8619" />
    </g>
    <g
   id="g9620"
   style="fill:#000000;fill-opacity:1;stroke-width:1.03999">
      <use
   style="stroke-width:1.03999"
   height="100%"
   width="100%"
   id="use5000"
   y="78.348"
   x="132.52699"
   xlink:href="#symbol2959" />
    </g>
    <g
   id="g6745"
   style="fill:#000000;fill-opacity:1;stroke-width:1.03999">
      <use
   style="stroke-width:1.03999"
   height="100%"
   width="100%"
   id="use462"
   y="73.892998"
   x="136.996"
   xlink:href="#symbol6396" />
    </g>
  </g>
</g><g
       style="fill:#005c99;fill-opacity:1;stroke-width:1.03999"
       inkscape:label=""
       transform="matrix(0.96154593,0,0,-0.96154593,56.673393,166.17946)"
       id="g2861"><g
   style="fill:#005c99;fill-opacity:1;stroke-width:1.03999"
   id="g932">
    <g
   id="g1033"
   style="fill:#005c99;fill-opacity:1;stroke-width:1.03999">
      <use
   style="fill:#005c99;fill-opacity:1;stroke-width:1.03999"
   height="100%"
   width="100%"
   id="use538"
   y="81.962997"
   x="91.925003"
   xlink:href="#symbol8473" />
    </g>
    <g
   id="g8351"
   style="fill:#005c99;fill-opacity:1;stroke-width:1.03999">
      <use
   style="fill:#005c99;fill-opacity:1;stroke-width:1.03999"
   height="100%"
   width="100%"
   id="use4392"
   y="81.962997"
   x="100.404"
   xlink:href="#symbol3477" />
    </g>
    <g
   id="g5343"
   style="fill:#005c99;fill-opacity:1;stroke-width:1.03999">
      <use
   style="fill:#005c99;fill-opacity:1;stroke-width:1.03999"
   height="100%"
   width="100%"
   id="use5219"
   y="81.962997"
   x="110.92252"
   xlink:href="#symbol1832" />
    </g>
  </g>
</g><g
       style="fill:#8a340f;fill-opacity:1;stroke-width:1.03999"
       inkscape:label=""
       transform="matrix(0.96154593,0,0,-0.96154593,62.056488,152.88959)"
       id="g3012"><g
   style="fill:#8a340f;fill-opacity:1;stroke-width:1.03999"
   id="g5885">
    <g
   id="g6642"
   style="fill:#8a340f;fill-opacity:1;stroke-width:1.03999">
      <use
   style="fill:#8a340f;fill-opacity:1;stroke-width:1.03999"
   height="100%"
   width="100%"
   id="use5626"
   y="81.962997"
   x="91.925003"
   xlink:href="#symbol6646" />
    </g>
    <g
   id="g7854"
   style="fill:#8a340f;fill-opacity:1;stroke-width:1.03999">
      <use
   style="fill:#8a340f;fill-opacity:1;stroke-width:1.03999"
   height="100%"
   width="100%"
   id="use7238"
   y="81.962997"
   x="100.404"
   xlink:href="#symbol7318" />
    </g>
    <g
   id="g881"
   style="fill:#8a340f;fill-opacity:1;stroke-width:1.03999">
      <use
   style="fill:#8a340f;fill-opacity:1;stroke-width:1.03999"
   height="100%"
   width="100%"
   id="use5990"
   y="81.962997"
   x="110.92252"
   xlink:href="#symbol4024" />
    </g>
  </g>
</g><g
       style="fill:#8d680c;fill-opacity:1;stroke-width:1.03999"
       inkscape:label=""
       transform="matrix(0.96154593,0,0,-0.96154593,68.054005,138.12858)"
       id="g3183"><g
   style="fill:#8d680c;fill-opacity:1;stroke-width:1.03999"
   id="g67">
    <g
   id="g7554"
   style="fill:#8d680c;fill-opacity:1;stroke-width:1.03999">
      <use
   style="fill:#8d680c;fill-opacity:1;stroke-width:1.03999"
   height="100%"
   width="100%"
   id="use6211"
   y="81.962997"
   x="91.925003"
   xlink:href="#symbol5673" />
    </g>
    <g
   id="g6075"
   style="fill:#8d680c;fill-opacity:1;stroke-width:1.03999">
      <use
   style="fill:#8d680c;fill-opacity:1;stroke-width:1.03999"
   height="100%"
   width="100%"
   id="use6253"
   y="81.962997"
   x="100.404"
   xlink:href="#symbol380" />
    </g>
    <g
   id="g4577"
   style="fill:#8d680c;fill-opacity:1;stroke-width:1.03999">
      <use
   style="fill:#8d680c;fill-opacity:1;stroke-width:1.03999"
   height="100%"
   width="100%"
   id="use5762"
   y="81.962997"
   x="110.92252"
   xlink:href="#symbol5656" />
    </g>
  </g>
</g><path
       sodipodi:nodetypes="cccccccccccccccccccccccccccccccccccccccccccccccccccccccccccccccccccccccccccccccccccccccccccccccccccccccccccccccccccccccccccccccccccccccccccccccccccccccccccccccccccccccccccccccccccccccccccccccccccccccccccccccccccccccccccccccccccccccccccccccc"
       d="m 113.697,384.474 1.493,-0.002 1.493,-10e-4 1.493,-0.002 1.493,-0.002 1.493,-0.002 1.493,-0.003 1.493,-0.003 1.493,-0.004 1.493,-0.005 1.493,-0.005 1.493,-0.006 1.493,-0.007 1.493,-0.008 1.493,-0.01 1.493,-0.011 1.493,-0.013 1.493,-0.015 1.493,-0.017 1.493,-0.02 1.493,-0.023 1.493,-0.026 1.493,-0.03 1.493,-0.034 1.493,-0.039 1.493,-0.045 1.493,-0.051 1.493,-0.058 1.493,-0.066 1.493,-0.075 1.493,-0.085 1.493,-0.096 1.493,-0.108 1.493,-0.123 1.493,-0.137 1.493,-0.155 1.493,-0.174 1.493,-0.194 1.493,-0.218 1.492,-0.243 1.493,-0.271 1.493,-0.302 1.493,-0.336 1.493,-0.372 1.493,-0.414 1.493,-0.457 1.493,-0.504 1.493,-0.557 1.493,-0.614 1.493,-0.674 1.493,-0.74 1.493,-0.812 1.493,-0.887 1.493,-0.97 1.493,-1.057 1.493,-1.152 1.493,-1.252 1.493,-1.358 1.493,-1.472 1.493,-1.592 1.493,-1.719 1.493,-1.853 1.493,-1.995 1.493,-2.143 1.493,-2.299 1.493,-2.461 1.493,-2.631 1.493,-2.808 1.493,-2.99 1.493,-3.18 1.493,-3.376 1.493,-3.576 1.493,-3.784 1.493,-3.994 1.493,-4.21 1.493,-4.428 1.493,-4.65 1.493,-4.873 1.493,-5.098 1.493,-5.323 1.493,-5.547 1.492,-5.769 1.493,-5.989 1.493,-6.203 1.493,-6.414 1.493,-6.617 1.493,-6.813 1.493,-6.999 1.493,-7.176 1.493,-7.34 1.493,-7.491 1.493,-7.628 1.493,-7.749 1.493,-7.854 1.493,-7.939 1.493,-8.005 1.493,-8.052 1.493,-8.075 1.493,-8.078 1.493,-8.055 1.493,-8.009 1.493,-7.938 1.493,-7.842 1.493,-7.719 1.493,-7.57 1.493,-7.395 1.493,-7.194 1.493,-6.9674 1.493,-6.7138 1.493,-6.4355 1.493,-6.1324 1.493,-5.8054 1.493,-5.4557 1.493,-5.0841 1.493,-4.6918 1.493,-4.2805 1.493,-3.8515 1.493,-3.4064 1.493,-2.9471 1.493,-2.4753 1.493,-1.993 1.493,-1.5023 1.493,-1.0051 1.492,-0.5037 h 1.493 l 1.493,0.5037 1.493,1.0051 1.493,1.5023 1.493,1.993 1.493,2.4753 1.493,2.9471 1.493,3.4064 1.493,3.8515 1.493,4.2805 1.493,4.6918 1.493,5.0841 1.493,5.4557 1.493,5.8054 1.493,6.1324 1.493,6.4355 1.493,6.7138 1.493,6.9674 1.493,7.194 1.493,7.395 1.493,7.57 1.493,7.719 1.493,7.842 1.493,7.938 1.493,8.009 1.493,8.055 1.493,8.078 1.493,8.075 1.493,8.052 1.493,8.005 1.493,7.939 1.493,7.854 1.493,7.749 1.493,7.628 1.493,7.491 1.493,7.34 1.493,7.176 1.493,6.999 1.493,6.813 1.493,6.617 1.493,6.414 1.493,6.203 1.492,5.989 1.493,5.769 1.493,5.547 1.493,5.323 1.493,5.098 1.493,4.873 1.493,4.65 1.493,4.428 1.493,4.21 1.493,3.994 1.493,3.784 1.493,3.576 1.493,3.376 1.493,3.18 1.493,2.99 1.493,2.808 1.493,2.631 1.493,2.461 1.493,2.299 1.493,2.143 1.493,1.995 1.493,1.853 1.493,1.719 1.493,1.592 1.493,1.472 1.493,1.358 1.493,1.252 1.493,1.152 1.493,1.057 1.493,0.97 1.493,0.887 1.493,0.812 1.493,0.74 1.493,0.674 1.493,0.614 1.493,0.557 1.493,0.504 1.493,0.457 1.493,0.414 1.493,0.372 1.493,0.336 1.493,0.302 1.493,0.271 1.492,0.243 1.493,0.218 1.493,0.194 1.493,0.174 1.493,0.155 1.493,0.137 1.493,0.123 1.493,0.108 1.493,0.096 1.493,0.085 1.493,0.075 1.493,0.066 1.493,0.058 1.493,0.051 1.493,0.045 1.493,0.039 1.493,0.034 1.493,0.03 1.493,0.026 1.493,0.023 1.493,0.02 1.493,0.017 1.493,0.015 1.493,0.013 1.493,0.011 1.493,0.01 1.493,0.008 1.493,0.007 1.493,0.006 1.493,0.005 1.493,0.005"
       transform="matrix(0.56689604,0,0,-0.40670005,-58.691523,170.17936)"
       style="fill:none;stroke:#0071bc;stroke-width:1.56197;stroke-linecap:butt;stroke-linejoin:round;stroke-miterlimit:4;stroke-dasharray:none"
       id="polyline1283" /><path
       sodipodi:nodetypes="ccccccccccccccccccccccccccccccccccccccccccccccccccccccccccccccccccccccccccccccccccccccccccccccccccccccccccccccccccccccccccccccccccccccccccccccccccccccccccccccccccccccccccccccccccccccccccccccccccccccccccccccccccccccccccccccccccccccccccccccc"
       d="m 122.655,384.48 h 1.493 1.493 1.493 1.493 1.493 1.493 1.493 1.493 1.493 1.493 1.493 1.493 1.493 1.493 1.493 1.493 1.493 1.493 1.493 1.493 l 1.493,-0.001 h 1.493 1.493 1.493 l 1.493,-10e-4 h 1.493 l 1.493,-0.001 1.493,-10e-4 1.493,-10e-4 1.493,-0.001 1.493,-0.002 1.493,-0.002 1.492,-0.003 1.493,-0.003 1.493,-0.005 1.493,-0.005 1.493,-0.007 1.493,-0.008 1.493,-0.011 1.493,-0.013 1.493,-0.016 1.493,-0.02 1.493,-0.024 1.493,-0.029 1.493,-0.036 1.493,-0.043 1.493,-0.053 1.493,-0.063 1.493,-0.077 1.493,-0.091 1.493,-0.109 1.493,-0.131 1.493,-0.155 1.493,-0.183 1.493,-0.216 1.493,-0.255 1.493,-0.299 1.493,-0.35 1.493,-0.407 1.493,-0.474 1.493,-0.549 1.493,-0.634 1.493,-0.73 1.493,-0.837 1.493,-0.959 1.493,-1.092 1.493,-1.242 1.493,-1.407 1.493,-1.588 1.493,-1.788 1.493,-2.006 1.493,-2.242 1.493,-2.499 1.493,-2.775 1.492,-3.072 1.493,-3.389 1.493,-3.725 1.493,-4.082 1.493,-4.455 1.493,-4.848 1.493,-5.254 1.493,-5.676 1.493,-6.108 1.493,-6.55 1.493,-6.997 1.493,-7.447 1.493,-7.895 1.493,-8.337 1.493,-8.769 1.493,-9.187 1.493,-9.584 1.493,-9.957 1.493,-10.299 1.493,-10.605 1.493,-10.871 1.493,-11.09 1.493,-11.258 1.493,-11.369 1.493,-11.422 1.493,-11.409 1.493,-11.328 1.493,-11.178 1.493,-10.955 1.493,-10.658 1.493,-10.286 1.493,-9.8414 1.493,-9.323 1.493,-8.7341 1.493,-8.0773 1.493,-7.3568 1.493,-6.5769 1.493,-5.7432 1.493,-4.862 1.493,-3.94 1.493,-2.9848 1.493,-2.0041 1.492,-1.0064 h 1.493 l 1.493,1.0064 1.493,2.0041 1.493,2.9848 1.493,3.94 1.493,4.862 1.493,5.7432 1.493,6.5769 1.493,7.3568 1.493,8.0773 1.493,8.7341 1.493,9.323 1.493,9.8414 1.493,10.286 1.493,10.658 1.493,10.955 1.493,11.178 1.493,11.328 1.493,11.409 1.493,11.422 1.493,11.369 1.493,11.258 1.493,11.09 1.493,10.871 1.493,10.605 1.493,10.299 1.493,9.957 1.493,9.584 1.493,9.187 1.493,8.769 1.493,8.337 1.493,7.895 1.493,7.447 1.493,6.997 1.493,6.55 1.493,6.108 1.493,5.676 1.493,5.254 1.493,4.848 1.493,4.455 1.493,4.082 1.493,3.725 1.492,3.389 1.493,3.072 1.493,2.775 1.493,2.499 1.493,2.242 1.493,2.006 1.493,1.788 1.493,1.588 1.493,1.407 1.493,1.242 1.493,1.092 1.493,0.959 1.493,0.837 1.493,0.73 1.493,0.634 1.493,0.549 1.493,0.474 1.493,0.407 1.493,0.35 1.493,0.299 1.493,0.255 1.493,0.216 1.493,0.183 1.493,0.155 1.493,0.131 1.493,0.109 1.493,0.091 1.493,0.077 1.493,0.063 1.493,0.053 1.493,0.043 1.493,0.036 1.493,0.029 1.493,0.024 1.493,0.02 1.493,0.016 1.493,0.013 1.493,0.011 1.493,0.008 1.493,0.007 1.493,0.005 1.493,0.005 1.493,0.003 1.492,0.003 1.493,0.002 1.493,0.002 1.493,0.001 1.493,10e-4 1.493,10e-4 1.493,0.001 h 1.493 l 1.493,10e-4 h 1.493 1.493 1.493 l 1.493,0.001 h 1.493 1.493 1.493 1.493 1.493 1.493 1.493 1.493 1.493 1.493 1.493 1.493 1.493 1.493 1.493 1.493 1.493 1.493 1.493 1.493 1.493 1.493 1.493"
       transform="matrix(0.56689604,0,0,-0.40670005,-58.691523,170.17936)"
       style="fill:none;stroke:#d85218;stroke-width:1.56197;stroke-linecap:butt;stroke-linejoin:round;stroke-miterlimit:4;stroke-dasharray:none"
       id="polyline1285" /><path
       sodipodi:nodetypes="ccccccccccccccccccccccccccccccccccccccccccccccccccccccccccccccccccccccccccccccccccccccccccccccccccccccccccccccccccccccccccccccccccccccccccccccccccccccccccccccccccccccccccccccccccccccccccccccccccccccccccccccccccccccccccccccccccccccccccccccccc"
       d="m 113.697,384.48 h 1.493 1.493 1.493 1.493 1.493 1.493 1.493 1.493 1.493 1.493 1.493 1.493 1.493 1.493 1.493 1.493 1.493 1.493 1.493 1.493 1.493 1.493 1.493 1.493 1.493 1.493 1.493 1.493 1.493 1.493 1.493 1.493 1.493 1.493 1.493 1.493 1.493 1.493 1.492 1.493 1.493 1.493 1.493 1.493 l 1.493,-0.001 h 1.493 1.493 l 1.493,-10e-4 h 1.493 l 1.493,-0.001 1.493,-10e-4 1.493,-0.002 1.493,-0.002 1.493,-0.003 1.493,-0.004 1.493,-0.005 1.493,-0.006 1.493,-0.009 1.493,-0.011 1.493,-0.015 1.493,-0.019 1.493,-0.024 1.493,-0.032 1.493,-0.04 1.493,-0.05 1.493,-0.064 1.493,-0.081 1.493,-0.101 1.493,-0.125 1.493,-0.156 1.493,-0.193 1.493,-0.237 1.493,-0.289 1.493,-0.353 1.493,-0.428 1.493,-0.515 1.493,-0.62 1.493,-0.74 1.493,-0.88 1.493,-1.042 1.492,-1.227 1.493,-1.439 1.493,-1.678 1.493,-1.948 1.493,-2.251 1.493,-2.587 1.493,-2.959 1.493,-3.368 1.493,-3.814 1.493,-4.296 1.493,-4.814 1.493,-5.368 1.493,-5.953 1.493,-6.568 1.493,-7.205 1.493,-7.863 1.493,-8.532 1.493,-9.207 1.493,-9.876 1.493,-10.534 1.493,-11.166 1.493,-11.764 1.493,-12.315 1.493,-12.808 1.493,-13.23 1.493,-13.57 1.493,-13.816 1.493,-13.959 1.493,-13.986 1.493,-13.892 1.493,-13.671 1.493,-13.314 1.493,-12.822 1.493,-12.1947 1.493,-11.4319 1.493,-10.5394 1.493,-9.5238 1.493,-8.3942 1.493,-7.1624 1.493,-5.8417 1.493,-4.4476 1.493,-2.9971 1.492,-1.5082 h 1.493 l 1.493,1.5082 1.493,2.9971 1.493,4.4476 1.493,5.8417 1.493,7.1624 1.493,8.3942 1.493,9.5238 1.493,10.5394 1.493,11.4319 1.493,12.1947 1.493,12.822 1.493,13.314 1.493,13.671 1.493,13.892 1.493,13.986 1.493,13.959 1.493,13.816 1.493,13.57 1.493,13.23 1.493,12.808 1.493,12.315 1.493,11.764 1.493,11.166 1.493,10.534 1.493,9.876 1.493,9.207 1.493,8.532 1.493,7.863 1.493,7.205 1.493,6.568 1.493,5.953 1.493,5.368 1.493,4.814 1.493,4.296 1.493,3.814 1.493,3.368 1.493,2.959 1.493,2.587 1.493,2.251 1.493,1.948 1.493,1.678 1.492,1.439 1.493,1.227 1.493,1.042 1.493,0.88 1.493,0.74 1.493,0.62 1.493,0.515 1.493,0.428 1.493,0.353 1.493,0.289 1.493,0.237 1.493,0.193 1.493,0.156 1.493,0.125 1.493,0.101 1.493,0.081 1.493,0.064 1.493,0.05 1.493,0.04 1.493,0.032 1.493,0.024 1.493,0.019 1.493,0.015 1.493,0.011 1.493,0.009 1.493,0.006 1.493,0.005 1.493,0.004 1.493,0.003 1.493,0.002 1.493,0.002 1.493,10e-4 1.493,0.001 h 1.493 l 1.493,10e-4 h 1.493 1.493 l 1.493,0.001 h 1.493 1.493 1.493 1.493 1.493 1.492 1.493 1.493 1.493 1.493 1.493 1.493 1.493 1.493 1.493 1.493 1.493 1.493 1.493 1.493 1.493 1.493 1.493 1.493 1.493 1.493 1.493 1.493 1.493 1.493 1.493 1.493 1.493 1.493 1.493 1.493 1.493"
       transform="matrix(0.56689604,0,0,-0.40670005,-58.691523,170.17936)"
       style="fill:none;stroke:#ecb01f;stroke-width:1.87436;stroke-linecap:butt;stroke-linejoin:round;stroke-miterlimit:4;stroke-dasharray:none"
       id="polyline1287" /><path
       id="path1753-0"
       style="fill:none;stroke:#000000;stroke-width:0.75;stroke-linecap:butt;stroke-linejoin:miter;stroke-miterlimit:10;stroke-dasharray:none;stroke-opacity:1"
       d="m 141.97672,11.637 v 2.179" /><path
       d="m 78.454862,11.637 v 2.179"
       style="fill:none;stroke:#000000;stroke-width:0.75;stroke-linecap:butt;stroke-linejoin:miter;stroke-miterlimit:10;stroke-dasharray:none;stroke-opacity:1"
       id="path1753-0-9" /><path
       id="path1749-3"
       style="fill:none;stroke:#000000;stroke-width:0.75;stroke-linecap:butt;stroke-linejoin:miter;stroke-miterlimit:10;stroke-dasharray:none;stroke-opacity:1"
       d="m 15.309522,11.637 v 2.179" /><text
       transform="scale(1,-1)"
       id="text2462-3-0"
       y="-5.7488327"
       x="75.957016"
       style="font-size:21px;line-height:1.25;font-family:Arial;-inkscape-font-specification:Arial;letter-spacing:0px;word-spacing:0px;stroke-width:0.75"
       xml:space="preserve"><tspan
         style="font-size:6.3px;stroke-width:0.75"
         y="-5.7488327"
         x="75.957016"
         id="tspan2460-6-6"
         sodipodi:role="line">-1</tspan></text><text
       transform="scale(1,-1)"
       xml:space="preserve"
       style="font-size:21px;line-height:1.25;font-family:Arial;-inkscape-font-specification:Arial;letter-spacing:0px;word-spacing:0px;stroke-width:0.75"
       x="139.48584"
       y="-5.744873"
       id="text2462-3-7-3-6-2"><tspan
         sodipodi:role="line"
         id="tspan2460-6-5-5-2-6"
         x="139.48584"
         y="-5.744873"
         style="font-size:6.3px;stroke-width:0.75">1</tspan></text><path
       id="path1737"
       style="fill:#000000;fill-opacity:1;fill-rule:evenodd;stroke:#000000;stroke-width:0.366262;stroke-linecap:butt;stroke-linejoin:round;stroke-miterlimit:4;stroke-dasharray:none;stroke-opacity:1"
       d="m 215.21196,11.352 6.403,2.355 -6.403,2.355 c 1.024,-1.39 1.016,-3.292 0,-4.71 z" /><path
       d="m 1.34,13.715 h 218"
       style="fill:none;stroke:#000000;stroke-width:0.75000002;stroke-linecap:butt;stroke-linejoin:miter;stroke-miterlimit:10;stroke-dasharray:none;stroke-opacity:1"
       id="path1733" /><path
       d="M 110.305,13.715 V 180.141"
       style="fill:none;stroke:#000000;stroke-width:0.75000002;stroke-linecap:butt;stroke-linejoin:miter;stroke-miterlimit:10;stroke-dasharray:none;stroke-opacity:1"
       id="path1739" /><path
       d="m 107.957,157 h 4.531"
       style="fill:none;stroke:#000000;stroke-width:0.976699;stroke-linecap:butt;stroke-linejoin:miter;stroke-miterlimit:10;stroke-dasharray:none;stroke-opacity:1"
       id="path1759" /><path
       id="path3334"
       d="m 145.38978,86.863992 -6.91483,-4.856453"
       style="fill:none;stroke:#0071bc;stroke-width:0.525;stroke-linecap:butt;stroke-linejoin:miter;stroke-miterlimit:4;stroke-dasharray:none;stroke-opacity:1" /><path
       sodipodi:nodetypes="cc"
       style="fill:none;stroke:#8a340f;stroke-width:0.525;stroke-linecap:butt;stroke-linejoin:miter;stroke-miterlimit:4;stroke-dasharray:none;stroke-opacity:1"
       d="M 149.70878,74.257814 134.17322,63.773596"
       id="path3334-1" /><path
       id="path3334-1-8"
       d="M 154.61368,60.416101 133.84638,46.629677"
       style="fill:none;fill-opacity:1;stroke:#bc8a10;stroke-width:0.6;stroke-linecap:butt;stroke-linejoin:miter;stroke-miterlimit:4;stroke-dasharray:none;stroke-opacity:1"
       sodipodi:nodetypes="cc" /></g></svg>
