<?xml version="1.0" encoding="UTF-8" standalone="no"?>
<svg
   xmlns:dc="http://purl.org/dc/elements/1.1/"
   xmlns:cc="http://creativecommons.org/ns#"
   xmlns:rdf="http://www.w3.org/1999/02/22-rdf-syntax-ns#"
   xmlns:svg="http://www.w3.org/2000/svg"
   xmlns="http://www.w3.org/2000/svg"
   xmlns:sodipodi="http://sodipodi.sourceforge.net/DTD/sodipodi-0.dtd"
   xmlns:inkscape="http://www.inkscape.org/namespaces/inkscape"
   inkscape:version="1.0 (4035a4fb49, 2020-05-01)"
   sodipodi:docname="overdamped.svg"
   viewBox="0 0 384.17199 234.9895"
   height="234.9895"
   width="384.172"
   xml:space="preserve"
   id="svg6097"
   version="1.1"><metadata
     id="metadata6103"><rdf:RDF><cc:Work
         rdf:about=""><dc:format>image/svg+xml</dc:format><dc:type
           rdf:resource="http://purl.org/dc/dcmitype/StillImage" /><dc:title></dc:title></cc:Work></rdf:RDF></metadata><defs
     id="defs6101"><clipPath
       id="clipPath6115"
       clipPathUnits="userSpaceOnUse"><path
         id="path6113"
         d="m 41.109,226.59 h 245.52 V 36.512 H 41.109 Z" /></clipPath><clipPath
       id="clipPath6125"
       clipPathUnits="userSpaceOnUse"><path
         id="path6123"
         d="m 40,131 h 248 v 56 H 40 Z" /></clipPath><clipPath
       id="clipPath6141"
       clipPathUnits="userSpaceOnUse"><path
         id="path6139"
         d="m 40,131 h 244 v 79 H 40 Z" /></clipPath><clipPath
       id="clipPath6157"
       clipPathUnits="userSpaceOnUse"><path
         id="path6155"
         d="m 40,54 h 244 v 78 H 40 Z" /></clipPath></defs><sodipodi:namedview
     fit-margin-bottom="0"
     fit-margin-right="0"
     fit-margin-left="0"
     fit-margin-top="0"
     inkscape:current-layer="g6105"
     inkscape:window-maximized="1"
     inkscape:window-y="0"
     inkscape:window-x="0"
     inkscape:cy="144.74427"
     inkscape:cx="79.739083"
     inkscape:zoom="1"
     showgrid="false"
     id="namedview6099"
     inkscape:window-height="1026"
     inkscape:window-width="1920"
     inkscape:pageshadow="2"
     inkscape:pageopacity="0"
     guidetolerance="10"
     gridtolerance="10"
     objecttolerance="10"
     borderopacity="1"
     bordercolor="#666666"
     pagecolor="#ffffff" /><g
     transform="matrix(1.3333333,0,0,-1.3333333,-6.3799998,308.05199)"
     inkscape:label="overdamped"
     inkscape:groupmode="layer"
     id="g6105"><path
       sodipodi:nodetypes="cc"
       id="path7205"
       d="M 41.014381,131.55061 H 284.42972"
       style="fill:none;stroke:#5f5f5f;stroke-width:0.75;stroke-linecap:butt;stroke-linejoin:miter;stroke-miterlimit:4;stroke-dasharray:1.5, 3;stroke-dashoffset:0;stroke-opacity:1" /><g
       id="g6107" /><path
       d="m 41.109,147.39062 0.739,6.606 0.738,5.644 0.734,4.805 0.739,4.074 0.738,3.434 0.734,2.879 0.739,2.398 0.738,1.977 0.738,1.613 0.734,1.293 0.739,1.019 0.738,0.778 0.738,0.574 0.735,0.391 0.738,0.238 0.738,0.101 0.739,-0.011 0.98,-0.168 0.984,-0.313 1.231,-0.554 1.226,-0.692 1.477,-0.969 1.965,-1.449 2.703,-2.156 10.078,-8.203 3.684,-2.774 3.441,-2.429 3.441,-2.285 3.442,-2.133 3.441,-1.992 3.684,-1.993 3.687,-1.843 3.688,-1.715 3.933,-1.692 3.93,-1.562 4.18,-1.527 4.422,-1.481 4.426,-1.355 4.667,-1.305 4.918,-1.242 5.161,-1.18 5.406,-1.109 5.652,-1.039 6.145,-0.997 6.39,-0.914 6.879,-0.863 7.375,-0.797 7.864,-0.726 8.601,-0.676 9.586,-0.625 10.566,-0.559 11.797,-0.5 13.274,-0.433 15.238,-0.375 17.938,-0.317 15.484,-0.191"
       style="fill:none;stroke:#1f77b4;stroke-width:1.5;stroke-linecap:square;stroke-linejoin:round;stroke-miterlimit:4;stroke-dasharray:none;stroke-opacity:1"
       id="path6131" /><path
       d="m 41.109,208.76962 2.703,-4.137 2.704,-3.914 2.703,-3.707 2.703,-3.504 2.703,-3.32 2.949,-3.418 2.949,-3.219 2.95,-3.031 2.949,-2.855 2.949,-2.688 2.949,-2.531 3.196,-2.574 3.195,-2.414 3.195,-2.262 3.196,-2.121 3.441,-2.133 3.441,-1.988 3.438,-1.856 3.687,-1.847 3.688,-1.715 3.933,-1.692 3.93,-1.562 4.18,-1.527 4.422,-1.481 4.426,-1.355 4.667,-1.305 4.918,-1.242 5.161,-1.18 5.406,-1.109 5.652,-1.039 6.145,-0.997 6.39,-0.914 6.879,-0.863 7.375,-0.797 7.864,-0.726 8.601,-0.676 9.586,-0.625 10.566,-0.559 11.797,-0.5 13.274,-0.433 15.238,-0.375 17.938,-0.317 15.484,-0.191"
       style="fill:none;stroke:#ff3e0e;stroke-width:1.1;stroke-linecap:butt;stroke-linejoin:round;stroke-miterlimit:4;stroke-dasharray:3.3, 3.3;stroke-dashoffset:0;stroke-opacity:1"
       id="path6147" /><path
       id="path6173"
       style="fill:none;stroke:#000000;stroke-width:0.275;stroke-linecap:butt;stroke-linejoin:round;stroke-miterlimit:4;stroke-dasharray:none;stroke-opacity:1"
       d="m 41.109,226.58962 v -2.199" /><path
       d="m 41.543,76.709785 c -0.52,0 -0.91,-0.258 -1.172,-0.77 -0.262,-0.511 -0.391,-1.277 -0.391,-2.304 0,-1.024 0.129,-1.789 0.391,-2.301 0.262,-0.512 0.652,-0.766 1.172,-0.766 0.523,0 0.918,0.254 1.176,0.766 0.261,0.512 0.394,1.277 0.394,2.301 0,1.027 -0.133,1.793 -0.394,2.304 -0.258,0.512 -0.653,0.77 -1.176,0.77 m 0,0.797 c 0.836,0 1.477,-0.332 1.918,-0.992 0.441,-0.661 0.66,-1.621 0.66,-2.879 0,-1.254 -0.219,-2.215 -0.66,-2.875 -0.441,-0.66 -1.082,-0.992 -1.918,-0.992 -0.836,0 -1.473,0.332 -1.914,0.992 -0.441,0.66 -0.66,1.621 -0.66,2.875 0,1.258 0.219,2.218 0.66,2.879 0.441,0.66 1.078,0.992 1.914,0.992"
       style="fill:#000000;fill-opacity:1;fill-rule:nonzero;stroke:none"
       id="path6175" /><path
       id="path6179"
       style="fill:none;stroke:#000000;stroke-width:0.618751;stroke-linecap:butt;stroke-linejoin:round;stroke-miterlimit:4;stroke-dasharray:none;stroke-opacity:1"
       d="m 90.215,83.252553 v 2.19931" /><path
       id="path6183"
       style="fill:none;stroke:#000000;stroke-width:0.618751;stroke-linecap:butt;stroke-linejoin:round;stroke-miterlimit:4;stroke-dasharray:none;stroke-opacity:1"
       d="m 90.215,226.59012 v -2.19931" /><path
       d="m 85.477,70.764785 h 1.648 v 5.691 l -1.793,-0.363 v 0.922 l 1.781,0.359 h 1.012 v -6.609 h 1.648 v -0.852 h -4.296 z"
       style="fill:#000000;fill-opacity:1;fill-rule:nonzero;stroke:none"
       id="path6185" /><path
       d="m 93.969,76.709785 c -0.52,0 -0.91,-0.258 -1.172,-0.77 -0.262,-0.511 -0.395,-1.277 -0.395,-2.304 0,-1.024 0.133,-1.789 0.395,-2.301 0.262,-0.512 0.652,-0.766 1.172,-0.766 0.523,0 0.914,0.254 1.176,0.766 0.261,0.512 0.39,1.277 0.39,2.301 0,1.027 -0.129,1.793 -0.39,2.304 -0.262,0.512 -0.653,0.77 -1.176,0.77 m 0,0.797 c 0.836,0 1.472,-0.332 1.914,-0.992 0.441,-0.661 0.664,-1.621 0.664,-2.879 0,-1.254 -0.223,-2.215 -0.664,-2.875 -0.442,-0.66 -1.078,-0.992 -1.914,-0.992 -0.836,0 -1.477,0.332 -1.918,0.992 -0.442,0.66 -0.66,1.621 -0.66,2.875 0,1.258 0.218,2.218 0.66,2.879 0.441,0.66 1.082,0.992 1.918,0.992"
       style="fill:#000000;fill-opacity:1;fill-rule:nonzero;stroke:none"
       id="path6187" /><path
       id="path6191"
       style="fill:none;stroke:#000000;stroke-width:0.618751;stroke-linecap:butt;stroke-linejoin:round;stroke-miterlimit:4;stroke-dasharray:none;stroke-opacity:1"
       d="m 139.316,83.252553 v 2.19931" /><path
       id="path6195"
       style="fill:none;stroke:#000000;stroke-width:0.618751;stroke-linecap:butt;stroke-linejoin:round;stroke-miterlimit:4;stroke-dasharray:none;stroke-opacity:1"
       d="m 139.316,226.59012 v -2.19931" /><path
       d="m 135.219,70.764785 h 3.523 v -0.852 h -4.734 v 0.852 c 0.383,0.394 0.902,0.925 1.562,1.593 0.664,0.668 1.078,1.102 1.25,1.293 0.321,0.364 0.547,0.668 0.676,0.922 0.129,0.25 0.192,0.5 0.192,0.742 0,0.395 -0.137,0.719 -0.418,0.969 -0.278,0.25 -0.641,0.375 -1.086,0.375 -0.317,0 -0.649,-0.055 -1.004,-0.164 -0.348,-0.109 -0.723,-0.277 -1.125,-0.5 v 1.02 c 0.406,0.16 0.785,0.285 1.14,0.367 0.352,0.086 0.676,0.125 0.969,0.125 0.774,0 1.391,-0.192 1.848,-0.578 0.461,-0.387 0.691,-0.903 0.691,-1.547 0,-0.309 -0.058,-0.602 -0.176,-0.875 -0.113,-0.274 -0.32,-0.598 -0.625,-0.969 -0.082,-0.098 -0.347,-0.379 -0.793,-0.84 -0.445,-0.461 -1.078,-1.105 -1.89,-1.933"
       style="fill:#000000;fill-opacity:1;fill-rule:nonzero;stroke:none"
       id="path6197" /><path
       d="m 143.016,76.709785 c -0.52,0 -0.907,-0.258 -1.172,-0.77 -0.258,-0.511 -0.391,-1.277 -0.391,-2.304 0,-1.024 0.133,-1.789 0.391,-2.301 0.265,-0.512 0.652,-0.766 1.172,-0.766 0.523,0 0.918,0.254 1.179,0.766 0.262,0.512 0.391,1.277 0.391,2.301 0,1.027 -0.129,1.793 -0.391,2.304 -0.261,0.512 -0.656,0.77 -1.179,0.77 m 0,0.797 c 0.836,0 1.476,-0.332 1.918,-0.992 0.441,-0.661 0.66,-1.621 0.66,-2.879 0,-1.254 -0.219,-2.215 -0.66,-2.875 -0.442,-0.66 -1.082,-0.992 -1.918,-0.992 -0.836,0 -1.473,0.332 -1.914,0.992 -0.442,0.66 -0.661,1.621 -0.661,2.875 0,1.258 0.219,2.218 0.661,2.879 0.441,0.66 1.078,0.992 1.914,0.992"
       style="fill:#000000;fill-opacity:1;fill-rule:nonzero;stroke:none"
       id="path6199" /><path
       id="path6203"
       style="fill:none;stroke:#000000;stroke-width:0.618751;stroke-linecap:butt;stroke-linejoin:round;stroke-miterlimit:4;stroke-dasharray:none;stroke-opacity:1"
       d="m 188.422,83.252553 v 2.19931" /><path
       id="path6207"
       style="fill:none;stroke:#000000;stroke-width:0.618751;stroke-linecap:butt;stroke-linejoin:round;stroke-miterlimit:4;stroke-dasharray:none;stroke-opacity:1"
       d="m 188.422,226.59012 v -2.19931" /><path
       d="m 186.516,73.936785 c 0.484,-0.102 0.859,-0.321 1.132,-0.645 0.27,-0.328 0.407,-0.73 0.407,-1.211 0,-0.734 -0.254,-1.305 -0.758,-1.707 -0.508,-0.402 -1.227,-0.605 -2.16,-0.605 -0.313,0 -0.633,0.031 -0.965,0.093 -0.332,0.063 -0.672,0.157 -1.027,0.278 v 0.972 c 0.281,-0.16 0.585,-0.285 0.917,-0.367 0.336,-0.082 0.684,-0.125 1.047,-0.125 0.633,0 1.114,0.125 1.446,0.375 0.332,0.25 0.496,0.609 0.496,1.086 0,0.441 -0.153,0.785 -0.461,1.031 -0.309,0.25 -0.738,0.375 -1.285,0.375 h -0.871 v 0.828 h 0.91 c 0.496,0 0.875,0.098 1.136,0.297 0.266,0.2 0.395,0.485 0.395,0.856 0,0.383 -0.133,0.679 -0.406,0.883 -0.27,0.207 -0.66,0.308 -1.164,0.308 -0.278,0 -0.575,-0.031 -0.891,-0.09 -0.316,-0.062 -0.664,-0.152 -1.043,-0.281 v 0.899 c 0.383,0.109 0.742,0.187 1.074,0.242 0.336,0.05 0.653,0.078 0.95,0.078 0.765,0 1.371,-0.172 1.816,-0.524 0.445,-0.347 0.668,-0.816 0.668,-1.41 0,-0.41 -0.117,-0.761 -0.356,-1.047 -0.234,-0.281 -0.57,-0.48 -1.007,-0.589"
       style="fill:#000000;fill-opacity:1;fill-rule:nonzero;stroke:none"
       id="path6209" /><path
       d="m 192.125,76.709785 c -0.52,0 -0.91,-0.258 -1.172,-0.77 -0.262,-0.511 -0.391,-1.277 -0.391,-2.304 0,-1.024 0.129,-1.789 0.391,-2.301 0.262,-0.512 0.652,-0.766 1.172,-0.766 0.523,0 0.914,0.254 1.176,0.766 0.261,0.512 0.394,1.277 0.394,2.301 0,1.027 -0.133,1.793 -0.394,2.304 -0.262,0.512 -0.653,0.77 -1.176,0.77 m 0,0.797 c 0.836,0 1.477,-0.332 1.918,-0.992 0.441,-0.661 0.66,-1.621 0.66,-2.879 0,-1.254 -0.219,-2.215 -0.66,-2.875 -0.441,-0.66 -1.082,-0.992 -1.918,-0.992 -0.836,0 -1.473,0.332 -1.914,0.992 -0.441,0.66 -0.664,1.621 -0.664,2.875 0,1.258 0.223,2.218 0.664,2.879 0.441,0.66 1.078,0.992 1.914,0.992"
       style="fill:#000000;fill-opacity:1;fill-rule:nonzero;stroke:none"
       id="path6211" /><path
       id="path6215"
       style="fill:none;stroke:#000000;stroke-width:0.618751;stroke-linecap:butt;stroke-linejoin:round;stroke-miterlimit:4;stroke-dasharray:none;stroke-opacity:1"
       d="m 237.523,83.252553 v 2.19931" /><path
       id="path6219"
       style="fill:none;stroke:#000000;stroke-width:0.618751;stroke-linecap:butt;stroke-linejoin:round;stroke-miterlimit:4;stroke-dasharray:none;stroke-opacity:1"
       d="m 237.523,226.59012 v -2.19931" /><path
       d="m 235.297,76.494785 -2.551,-3.984 h 2.551 z m -0.266,0.879 h 1.27 v -4.863 h 1.062 v -0.836 h -1.062 v -1.762 h -1.004 v 1.762 h -3.367 v 0.972 z"
       style="fill:#000000;fill-opacity:1;fill-rule:nonzero;stroke:none"
       id="path6221" /><path
       d="m 241.188,76.709785 c -0.52,0 -0.911,-0.258 -1.172,-0.77 -0.258,-0.511 -0.391,-1.277 -0.391,-2.304 0,-1.024 0.133,-1.789 0.391,-2.301 0.261,-0.512 0.652,-0.766 1.172,-0.766 0.523,0 0.917,0.254 1.175,0.766 0.266,0.512 0.395,1.277 0.395,2.301 0,1.027 -0.129,1.793 -0.395,2.304 -0.258,0.512 -0.652,0.77 -1.175,0.77 m 0,0.797 c 0.835,0 1.476,-0.332 1.917,-0.992 0.442,-0.661 0.661,-1.621 0.661,-2.879 0,-1.254 -0.219,-2.215 -0.661,-2.875 -0.441,-0.66 -1.082,-0.992 -1.917,-0.992 -0.836,0 -1.473,0.332 -1.915,0.992 -0.441,0.66 -0.66,1.621 -0.66,2.875 0,1.258 0.219,2.218 0.66,2.879 0.442,0.66 1.079,0.992 1.915,0.992"
       style="fill:#000000;fill-opacity:1;fill-rule:nonzero;stroke:none"
       id="path6223" /><path
       id="path6231"
       style="fill:none;stroke:#000000;stroke-width:0.275;stroke-linecap:butt;stroke-linejoin:round;stroke-miterlimit:4;stroke-dasharray:none;stroke-opacity:1"
       d="m 286.629,226.58962 v -2.199" /><path
       d="m 281.68,77.373785 h 3.961 v -0.852 h -3.039 v -1.828 c 0.148,0.051 0.293,0.09 0.441,0.114 0.145,0.023 0.293,0.035 0.441,0.035 0.832,0 1.489,-0.227 1.977,-0.684 0.484,-0.453 0.73,-1.074 0.73,-1.851 0,-0.801 -0.25,-1.426 -0.75,-1.871 -0.5,-0.446 -1.203,-0.668 -2.113,-0.668 -0.312,0 -0.633,0.027 -0.957,0.082 -0.324,0.05 -0.66,0.132 -1.008,0.238 v 1.015 c 0.301,-0.164 0.61,-0.285 0.93,-0.363 0.32,-0.082 0.656,-0.121 1.012,-0.121 0.578,0 1.035,0.152 1.371,0.453 0.336,0.305 0.504,0.715 0.504,1.235 0,0.519 -0.168,0.929 -0.504,1.234 -0.336,0.301 -0.793,0.453 -1.371,0.453 -0.27,0 -0.535,-0.027 -0.805,-0.09 -0.27,-0.058 -0.543,-0.152 -0.82,-0.277 z"
       style="fill:#000000;fill-opacity:1;fill-rule:nonzero;stroke:none"
       id="path6233" /><path
       d="m 290.336,76.709785 c -0.52,0 -0.91,-0.258 -1.172,-0.77 -0.262,-0.511 -0.394,-1.277 -0.394,-2.304 0,-1.024 0.132,-1.789 0.394,-2.301 0.262,-0.512 0.652,-0.766 1.172,-0.766 0.523,0 0.914,0.254 1.176,0.766 0.261,0.512 0.394,1.277 0.394,2.301 0,1.027 -0.133,1.793 -0.394,2.304 -0.262,0.512 -0.653,0.77 -1.176,0.77 m 0,0.797 c 0.836,0 1.473,-0.332 1.914,-0.992 0.441,-0.661 0.664,-1.621 0.664,-2.879 0,-1.254 -0.223,-2.215 -0.664,-2.875 -0.441,-0.66 -1.078,-0.992 -1.914,-0.992 -0.836,0 -1.477,0.332 -1.918,0.992 -0.438,0.66 -0.66,1.621 -0.66,2.875 0,1.258 0.222,2.218 0.66,2.879 0.441,0.66 1.082,0.992 1.918,0.992"
       style="fill:#000000;fill-opacity:1;fill-rule:nonzero;stroke:none"
       id="path6235" /><path
       id="path6255"
       style="fill:none;stroke:#000000;stroke-width:0.660687;stroke-linecap:butt;stroke-linejoin:round;stroke-miterlimit:4;stroke-dasharray:none;stroke-opacity:1"
       d="m 286.62896,68.19162 h -2.19924" /><path
       id="path6263"
       style="fill:none;stroke:#000000;stroke-width:0.660687;stroke-linecap:butt;stroke-linejoin:round;stroke-miterlimit:4;stroke-dasharray:none;stroke-opacity:1"
       d="m 41.109453,99.87162 h 2.199062" /><path
       id="path6267"
       style="fill:none;stroke:#000000;stroke-width:0.660687;stroke-linecap:butt;stroke-linejoin:round;stroke-miterlimit:4;stroke-dasharray:none;stroke-opacity:1"
       d="m 286.62896,99.87162 h -2.19924" /><path
       d="m 22.539,100.332 h 6.402 v -0.848 h -6.402 z"
       style="fill:#000000;fill-opacity:1;fill-rule:nonzero;stroke:none"
       id="path6269" /><path
       d="m 31.988,97.551 h 3.52 v -0.848 h -4.735 v 0.848 c 0.383,0.395 0.907,0.93 1.567,1.594 0.66,0.668 1.078,1.101 1.246,1.293 0.324,0.363 0.551,0.672 0.676,0.922 0.129,0.25 0.195,0.5 0.195,0.742 0,0.394 -0.141,0.719 -0.418,0.969 -0.277,0.25 -0.641,0.375 -1.086,0.375 -0.316,0 -0.652,-0.055 -1.004,-0.165 -0.351,-0.109 -0.726,-0.277 -1.125,-0.5 v 1.02 c 0.406,0.164 0.785,0.285 1.137,0.367 0.355,0.086 0.68,0.125 0.973,0.125 0.773,0 1.386,-0.191 1.847,-0.578 0.457,-0.387 0.688,-0.902 0.688,-1.547 0,-0.308 -0.059,-0.597 -0.172,-0.875 -0.113,-0.273 -0.324,-0.597 -0.625,-0.969 -0.086,-0.097 -0.348,-0.375 -0.797,-0.839 -0.445,-0.461 -1.074,-1.106 -1.887,-1.934"
       style="fill:#000000;fill-opacity:1;fill-rule:nonzero;stroke:none"
       id="path6271" /><path
       id="path6275"
       style="fill:none;stroke:#000000;stroke-width:0.660687;stroke-linecap:butt;stroke-linejoin:round;stroke-miterlimit:4;stroke-dasharray:none;stroke-opacity:1"
       d="m 41.109453,131.55062 h 2.199062" /><path
       id="path6279"
       style="fill:none;stroke:#000000;stroke-width:0.660687;stroke-linecap:butt;stroke-linejoin:round;stroke-miterlimit:4;stroke-dasharray:none;stroke-opacity:1"
       d="m 286.62896,131.55062 h -2.19924" /><path
       d="m 31.281,135.199 c -0.519,0 -0.91,-0.253 -1.172,-0.765 -0.261,-0.512 -0.39,-1.278 -0.39,-2.305 0,-1.023 0.129,-1.789 0.39,-2.301 0.262,-0.511 0.653,-0.765 1.172,-0.765 0.524,0 0.914,0.254 1.176,0.765 0.262,0.512 0.395,1.278 0.395,2.301 0,1.027 -0.133,1.793 -0.395,2.305 -0.262,0.512 -0.652,0.765 -1.176,0.765 m 0,0.801 c 0.836,0 1.477,-0.332 1.918,-0.992 0.438,-0.66 0.66,-1.621 0.66,-2.879 0,-1.254 -0.222,-2.215 -0.66,-2.875 -0.441,-0.66 -1.082,-0.992 -1.918,-0.992 -0.836,0 -1.472,0.332 -1.914,0.992 -0.441,0.66 -0.664,1.621 -0.664,2.875 0,1.258 0.223,2.219 0.664,2.879 0.442,0.66 1.078,0.992 1.914,0.992"
       style="fill:#000000;fill-opacity:1;fill-rule:nonzero;stroke:none"
       id="path6281" /><path
       id="path6285"
       style="fill:none;stroke:#000000;stroke-width:0.660687;stroke-linecap:butt;stroke-linejoin:round;stroke-miterlimit:4;stroke-dasharray:none;stroke-opacity:1"
       d="m 41.109453,163.23062 h 2.199062" /><path
       id="path6289"
       style="fill:none;stroke:#000000;stroke-width:0.660687;stroke-linecap:butt;stroke-linejoin:round;stroke-miterlimit:4;stroke-dasharray:none;stroke-opacity:1"
       d="m 286.62896,163.23062 h -2.19924" /><path
       d="m 30.312,160.91 h 3.52 v -0.847 h -4.734 v 0.847 c 0.382,0.399 0.906,0.93 1.566,1.594 0.66,0.672 1.078,1.102 1.246,1.293 0.324,0.363 0.547,0.672 0.676,0.922 0.129,0.254 0.195,0.5 0.195,0.742 0,0.399 -0.14,0.719 -0.418,0.969 -0.277,0.25 -0.64,0.375 -1.086,0.375 -0.316,0 -0.652,-0.055 -1.004,-0.164 -0.351,-0.11 -0.726,-0.278 -1.125,-0.5 v 1.019 c 0.407,0.164 0.786,0.286 1.137,0.371 0.356,0.082 0.68,0.122 0.973,0.122 0.769,0 1.387,-0.192 1.847,-0.579 0.457,-0.386 0.688,-0.902 0.688,-1.546 0,-0.309 -0.059,-0.598 -0.172,-0.875 -0.113,-0.274 -0.324,-0.594 -0.629,-0.969 -0.082,-0.098 -0.347,-0.375 -0.793,-0.836 -0.445,-0.465 -1.074,-1.11 -1.887,-1.938"
       style="fill:#000000;fill-opacity:1;fill-rule:nonzero;stroke:none"
       id="path6291" /><path
       id="path6295"
       style="fill:none;stroke:#000000;stroke-width:0.660687;stroke-linecap:butt;stroke-linejoin:round;stroke-miterlimit:4;stroke-dasharray:none;stroke-opacity:1"
       d="m 41.109453,194.91062 h 2.199062" /><path
       id="path6299"
       style="fill:none;stroke:#000000;stroke-width:0.660687;stroke-linecap:butt;stroke-linejoin:round;stroke-miterlimit:4;stroke-dasharray:none;stroke-opacity:1"
       d="m 286.62896,194.91062 h -2.19924" /><path
       d="m 31.727,198.344 -2.547,-3.981 h 2.547 z m -0.266,0.879 h 1.269 v -4.86 h 1.067 v -0.839 H 32.73 v -1.758 h -1.003 v 1.758 h -3.364 v 0.972 z"
       style="fill:#000000;fill-opacity:1;fill-rule:nonzero;stroke:none"
       id="path6301" /><path
       id="path6305"
       style="fill:none;stroke:#000000;stroke-width:0.275;stroke-linecap:butt;stroke-linejoin:round;stroke-miterlimit:4;stroke-dasharray:none;stroke-opacity:1"
       d="m 41.109,226.58962 h 2.2" /><path
       id="path6309"
       style="fill:none;stroke:#000000;stroke-width:0.275;stroke-linecap:butt;stroke-linejoin:round;stroke-miterlimit:4;stroke-dasharray:none;stroke-opacity:1"
       d="M 286.629,226.58962 H 284.43" /><path
       d="m 31.398,227.578 c -0.453,0 -0.812,-0.156 -1.078,-0.465 -0.265,-0.308 -0.398,-0.734 -0.398,-1.273 0,-0.535 0.133,-0.961 0.398,-1.273 0.266,-0.309 0.625,-0.465 1.078,-0.465 0.454,0 0.809,0.156 1.075,0.465 0.265,0.312 0.394,0.738 0.394,1.273 0,0.539 -0.129,0.965 -0.394,1.273 -0.266,0.309 -0.621,0.465 -1.075,0.465 m 2,3.164 v -0.921 c -0.253,0.121 -0.507,0.21 -0.765,0.273 -0.258,0.066 -0.516,0.098 -0.766,0.098 -0.668,0 -1.176,-0.227 -1.527,-0.676 -0.352,-0.449 -0.551,-1.129 -0.602,-2.035 0.196,0.289 0.442,0.511 0.739,0.664 0.296,0.156 0.625,0.234 0.98,0.234 0.75,0 1.34,-0.23 1.773,-0.683 0.438,-0.454 0.653,-1.075 0.653,-1.856 0,-0.766 -0.227,-1.379 -0.68,-1.844 -0.453,-0.461 -1.055,-0.695 -1.805,-0.695 -0.863,0 -1.523,0.332 -1.98,0.992 -0.457,0.66 -0.684,1.621 -0.684,2.875 0,1.18 0.278,2.121 0.84,2.82 0.559,0.704 1.309,1.051 2.25,1.051 0.254,0 0.512,-0.023 0.77,-0.074 0.258,-0.051 0.527,-0.125 0.804,-0.223"
       style="fill:#000000;fill-opacity:1;fill-rule:nonzero;stroke:none"
       id="path6311" /><path
       d="m 41.109,226.59 h 245.52"
       style="fill:none;stroke:#000000;stroke-width:0.96;stroke-linecap:butt;stroke-linejoin:round;stroke-miterlimit:4;stroke-dasharray:none;stroke-opacity:1"
       id="path6313" /><path
       sodipodi:nodetypes="cc"
       d="M 286.629,83.252785 V 226.59"
       style="fill:none;stroke:#000000;stroke-width:0.96;stroke-linecap:butt;stroke-linejoin:round;stroke-miterlimit:4;stroke-dasharray:none;stroke-opacity:1"
       id="path6315" /><path
       d="m 41.109,83.252785 h 245.52"
       style="fill:none;stroke:#000000;stroke-width:0.96;stroke-linecap:butt;stroke-linejoin:round;stroke-miterlimit:4;stroke-dasharray:none;stroke-opacity:1"
       id="path6317" /><path
       sodipodi:nodetypes="cc"
       d="M 41.109,83.252785 V 226.59"
       style="fill:none;stroke:#000000;stroke-width:0.96;stroke-linecap:butt;stroke-linejoin:round;stroke-miterlimit:4;stroke-dasharray:none;stroke-opacity:1"
       id="path6319" /><path
       d="m 166.012,61.757871 h 1.59 c 0.336,0 0.507,0 0.507,0.34 0,0.187 -0.171,0.187 -0.472,0.187 h -1.492 c 0.605,2.41 0.691,2.75 0.691,2.848 0,0.289 -0.199,0.461 -0.484,0.461 -0.055,0 -0.528,-0.02 -0.68,-0.614 l -0.66,-2.695 h -1.598 c -0.34,0 -0.508,0 -0.508,-0.32 0,-0.207 0.137,-0.207 0.477,-0.207 h 1.488 c -1.219,-4.809 -1.285,-5.094 -1.285,-5.407 0,-0.914 0.641,-1.554 1.559,-1.554 1.726,0 2.691,2.472 2.691,2.609 0,0.168 -0.133,0.168 -0.199,0.168 -0.157,0 -0.172,-0.051 -0.254,-0.238 -0.731,-1.758 -1.629,-2.168 -2.203,-2.168 -0.356,0 -0.528,0.223 -0.528,0.781 0,0.402 0.032,0.527 0.102,0.813 z"
       style="fill:#000000;fill-opacity:1;fill-rule:nonzero;stroke:none"
       id="path6321" /><path
       d="m 9.957,154.41648 0.008,0.043 0.015,0.055 0.012,0.051 0.016,0.062 0.019,0.067 0.02,0.07 0.047,0.148 0.027,0.078 0.027,0.083 0.036,0.085 0.035,0.082 0.035,0.086 0.043,0.082 0.043,0.086 0.047,0.086 0.051,0.082 0.054,0.082 0.055,0.079 0.125,0.148 0.066,0.07 0.071,0.063 0.078,0.062 0.078,0.055 0.082,0.047 0.043,0.023 0.043,0.02 0.047,0.019 0.14,0.047 0.051,0.008 0.051,0.012 0.051,0.008 0.109,0.007 h 0.055 c 0.086,0 0.488,0 0.843,-0.214 -0.472,-0.086 -0.812,-0.512 -0.812,-0.918 0,-0.266 0.187,-0.594 0.641,-0.594 0.375,0 0.918,0.301 0.918,0.984 0,0.883 -1,1.113 -1.579,1.113 -0.98,0 -1.578,-0.898 -1.777,-1.285 -0.426,1.117 -1.34,1.285 -1.828,1.285 -1.766,0 -2.734,-2.183 -2.734,-2.609 0,-0.168 0.171,-0.168 0.207,-0.168 0.132,0 0.187,0.035 0.218,0.188 0.575,1.793 1.7,2.218 2.274,2.218 0.324,0 0.91,-0.148 0.91,-1.132 0,-0.524 -0.285,-1.661 -0.91,-4.032 -0.274,-1.054 -0.863,-1.765 -1.613,-1.765 -0.102,0 -0.489,0 -0.844,0.222 0.426,0.082 0.797,0.438 0.797,0.914 0,0.457 -0.371,0.59 -0.625,0.59 -0.512,0 -0.938,-0.437 -0.938,-0.984 0,-0.774 0.852,-1.113 1.594,-1.113 1.121,0 1.726,1.187 1.781,1.285 0.199,-0.625 0.813,-1.285 1.828,-1.285 1.746,0 2.715,2.183 2.715,2.609 0,0.168 -0.152,0.168 -0.207,0.168 -0.148,0 -0.187,-0.066 -0.215,-0.184 -0.558,-1.812 -1.711,-2.222 -2.258,-2.222 -0.664,0 -0.933,0.543 -0.933,1.121 0,0.375 0.101,0.746 0.293,1.488 z"
       style="fill:#000000;fill-opacity:1;fill-rule:nonzero;stroke:none"
       id="path6323" /><path
       d="m 167.84,181.332 0.008,0.043 0.011,0.047 0.016,0.055 0.012,0.054 0.019,0.063 0.02,0.066 0.039,0.141 0.027,0.074 0.028,0.078 0.031,0.078 0.07,0.157 0.035,0.082 0.043,0.078 0.047,0.082 0.047,0.074 0.047,0.078 0.055,0.074 0.117,0.141 0.062,0.063 0.067,0.062 0.07,0.059 0.074,0.05 0.082,0.043 0.035,0.024 0.043,0.019 0.086,0.032 0.047,0.015 0.043,0.012 0.047,0.012 0.051,0.008 0.047,0.007 0.05,0.008 h 0.102 c 0.082,0 0.461,0 0.793,-0.203 -0.441,-0.082 -0.762,-0.48 -0.762,-0.859 0,-0.254 0.176,-0.563 0.602,-0.563 0.355,0 0.863,0.285 0.863,0.926 0,0.832 -0.941,1.051 -1.48,1.051 -0.926,0 -1.489,-0.848 -1.676,-1.211 -0.399,1.051 -1.262,1.211 -1.719,1.211 -1.66,0 -2.574,-2.055 -2.574,-2.457 0,-0.16 0.16,-0.16 0.195,-0.16 0.125,0 0.176,0.035 0.207,0.175 0.539,1.692 1.598,2.09 2.137,2.09 0.305,0 0.859,-0.14 0.859,-1.062 0,-0.496 -0.269,-1.567 -0.859,-3.797 -0.254,-0.989 -0.813,-1.656 -1.516,-1.656 -0.097,0 -0.461,0 -0.793,0.207 0.399,0.074 0.746,0.41 0.746,0.859 0,0.43 -0.347,0.555 -0.586,0.555 -0.48,0 -0.882,-0.414 -0.882,-0.926 0,-0.731 0.8,-1.051 1.5,-1.051 1.054,0 1.625,1.117 1.675,1.211 0.188,-0.59 0.766,-1.211 1.719,-1.211 1.645,0 2.555,2.055 2.555,2.457 0,0.16 -0.141,0.16 -0.192,0.16 -0.144,0 -0.179,-0.066 -0.207,-0.172 -0.523,-1.707 -1.609,-2.089 -2.121,-2.089 -0.625,0 -0.879,0.507 -0.879,1.05 0,0.352 0.094,0.703 0.274,1.403 z"
       style="fill:#000000;fill-opacity:1;fill-rule:nonzero;stroke:none"
       id="path6325" /><path
       d="m 177.371,177.692 -0.004,0.226 -0.004,0.219 -0.011,0.211 -0.012,0.207 -0.02,0.195 -0.023,0.192 -0.027,0.183 -0.036,0.18 -0.043,0.176 -0.046,0.172 -0.055,0.16 -0.063,0.16 -0.066,0.156 -0.074,0.156 -0.129,0.223 -0.051,0.074 c -0.344,0.516 -1.031,0.961 -1.93,0.961 v -0.316 c 0.606,0 1.188,-0.364 1.387,-1.012 0.18,-0.602 0.191,-1.406 0.191,-2.379 0,-0.824 0,-1.648 -0.144,-2.348 -0.227,-1.015 -0.981,-1.261 -1.434,-1.261 -0.507,0 -1.187,0.301 -1.414,1.215 -0.152,0.656 -0.152,1.57 -0.152,2.394 0,0.817 0,1.668 0.164,2.277 0.234,0.879 0.949,1.114 1.402,1.114 v 0.316 c -2.582,0 -2.582,-3.043 -2.582,-3.851 0,-0.801 0,-3.778 2.582,-3.778 2.594,0 2.594,2.977 2.594,3.778 z"
       style="fill:#000000;fill-opacity:1;fill-rule:nonzero;stroke:none"
       id="path6327" /><path
       d="m 194.164,181.735 h 0.141 l 0.019,0.003 h 0.028 l 0.023,0.004 h 0.02 l 0.07,0.012 0.019,0.004 0.039,0.016 0.02,0.004 0.019,0.011 0.02,0.008 0.016,0.016 0.015,0.008 0.016,0.015 0.016,0.012 0.011,0.015 0.004,0.012 0.008,0.008 0.004,0.008 0.008,0.008 v 0.011 l 0.008,0.012 0.007,0.024 v 0.007 l 0.004,0.016 v 0.012 l 0.004,0.011 v 0.016 l 0.004,0.012 v 0.027 c 0,0.32 -0.305,0.32 -0.523,0.32 h -9.551 c -0.227,0 -0.524,0 -0.524,-0.32 0,-0.312 0.297,-0.312 0.536,-0.312 z"
       style="fill:#000000;fill-opacity:1;fill-rule:nonzero;stroke:none"
       id="path6329" /><path
       d="m 194.184,178.637 h 0.039 l 0.047,0.004 h 0.089 l 0.02,0.004 h 0.023 l 0.02,0.004 0.023,0.007 0.039,0.008 0.024,0.008 0.019,0.004 0.02,0.008 0.019,0.012 0.016,0.007 0.016,0.012 0.015,0.016 0.016,0.011 0.016,0.016 0.003,0.008 0.008,0.008 0.004,0.007 0.008,0.008 0.004,0.012 0.008,0.008 v 0.012 l 0.008,0.007 0.007,0.024 v 0.011 l 0.004,0.012 v 0.016 l 0.004,0.012 v 0.011 l 0.004,0.012 v 0.031 c 0,0.321 -0.305,0.321 -0.543,0.321 h -9.519 c -0.239,0 -0.536,0 -0.536,-0.321 0,-0.32 0.297,-0.32 0.524,-0.32 z"
       style="fill:#000000;fill-opacity:1;fill-rule:nonzero;stroke:none"
       id="path6331" /><path
       d="m 204.719,186.723 v 0.129 l -0.004,0.011 v 0.063 l -0.004,0.012 v 0.008 l -0.004,0.023 -0.004,0.019 -0.004,0.016 v 0.016 l -0.015,0.031 -0.004,0.012 -0.008,0.008 -0.008,0.011 -0.012,0.008 -0.011,0.012 -0.012,0.004 -0.031,0.015 h -0.02 l -0.004,0.004 h -0.012 l -0.007,0.004 h -0.016 l -0.008,0.004 h -0.023 l -0.012,0.004 h -0.066 l -0.012,0.004 h -0.066 c -0.993,-1.024 -2.391,-1.024 -2.899,-1.024 v -0.496 c 0.32,0 1.258,0 2.082,0.418 v -8.261 c 0,-0.575 -0.043,-0.766 -1.476,-0.766 h -0.512 v -0.496 c 0.558,0.055 1.945,0.055 2.578,0.055 0.641,0 2.027,0 2.586,-0.055 v 0.496 h -0.508 c -1.437,0 -1.484,0.176 -1.484,0.766 z"
       style="fill:#000000;fill-opacity:1;fill-rule:nonzero;stroke:none"
       id="path6333" /><path
       d="m 211.25,176.535 v 0.192 l -0.008,0.094 -0.008,0.085 -0.007,0.09 -0.012,0.082 -0.016,0.082 -0.019,0.078 -0.02,0.075 -0.015,0.074 -0.024,0.07 -0.027,0.071 -0.024,0.062 -0.031,0.063 -0.031,0.058 -0.031,0.055 -0.032,0.051 -0.039,0.05 -0.035,0.047 -0.043,0.039 -0.039,0.043 -0.043,0.035 -0.043,0.032 -0.047,0.031 -0.047,0.027 -0.05,0.024 -0.051,0.019 -0.055,0.016 -0.051,0.012 -0.054,0.007 -0.055,0.004 -0.059,0.004 c -0.523,0 -0.843,-0.398 -0.843,-0.844 0,-0.429 0.32,-0.847 0.843,-0.847 0.188,0 0.399,0.066 0.559,0.207 0.047,0.035 0.066,0.051 0.082,0.051 0.012,0 0.027,-0.016 0.027,-0.239 0,-1.183 -0.554,-2.14 -1.086,-2.664 -0.175,-0.172 -0.175,-0.207 -0.175,-0.254 0,-0.113 0.082,-0.175 0.16,-0.175 0.176,0 1.449,1.226 1.449,3.093 z"
       style="fill:#000000;fill-opacity:1;fill-rule:nonzero;stroke:none"
       id="path6335" /><path
       d="m 222.543,182.449 v 0.118 l -0.004,0.035 -0.004,0.039 -0.008,0.07 v 0.031 l -0.011,0.067 -0.012,0.062 -0.012,0.055 -0.015,0.059 -0.02,0.05 -0.016,0.051 -0.023,0.051 -0.02,0.039 -0.023,0.043 -0.047,0.078 -0.055,0.063 -0.054,0.054 -0.028,0.024 -0.031,0.019 -0.027,0.02 -0.031,0.015 -0.028,0.02 -0.031,0.012 -0.027,0.007 -0.032,0.012 -0.027,0.008 -0.031,0.004 -0.028,0.008 h -0.054 c -0.399,0 -0.782,-0.414 -0.782,-0.766 0,-0.207 0.083,-0.297 0.258,-0.473 0.332,-0.32 0.539,-0.738 0.539,-1.308 0,-0.676 -0.972,-4.32 -2.836,-4.32 -0.816,0 -1.179,0.558 -1.179,1.378 0,0.899 0.429,2.063 0.926,3.383 0.109,0.278 0.187,0.496 0.187,0.801 0,0.715 -0.508,1.305 -1.309,1.305 -1.492,0 -2.105,-2.309 -2.105,-2.457 0,-0.16 0.16,-0.16 0.195,-0.16 0.16,0 0.176,0.035 0.258,0.292 0.457,1.61 1.145,1.973 1.609,1.973 0.125,0 0.399,0 0.399,-0.508 0,-0.398 -0.16,-0.832 -0.274,-1.117 -0.703,-1.848 -0.906,-2.586 -0.906,-3.269 0,-1.719 1.399,-1.977 2.133,-1.977 2.684,0 3.586,5.277 3.586,6.109 z"
       style="fill:#000000;fill-opacity:1;fill-rule:nonzero;stroke:none"
       id="path6337" /><path
       d="m 228.562,177.692 -0.003,0.226 -0.008,0.219 -0.008,0.211 -0.012,0.207 -0.019,0.195 -0.024,0.192 -0.027,0.183 -0.035,0.18 -0.043,0.176 -0.047,0.172 -0.055,0.16 -0.062,0.16 -0.067,0.156 -0.078,0.156 -0.082,0.149 -0.094,0.148 c -0.343,0.516 -1.031,0.961 -1.929,0.961 v -0.316 c 0.605,0 1.187,-0.364 1.386,-1.012 0.18,-0.602 0.188,-1.406 0.188,-2.379 0,-0.824 0,-1.648 -0.145,-2.348 -0.222,-1.015 -0.976,-1.261 -1.429,-1.261 -0.508,0 -1.192,0.301 -1.414,1.215 -0.153,0.656 -0.153,1.57 -0.153,2.394 0,0.817 0,1.668 0.16,2.277 0.239,0.879 0.954,1.114 1.407,1.114 v 0.316 c -2.586,0 -2.586,-3.043 -2.586,-3.851 0,-0.801 0,-3.778 2.586,-3.778 2.593,0 2.593,2.977 2.593,3.778 z"
       style="fill:#000000;fill-opacity:1;fill-rule:nonzero;stroke:none"
       id="path6339" /><path
       d="m 245.359,181.735 h 0.133 l 0.028,0.003 h 0.023 l 0.019,0.004 h 0.024 l 0.047,0.008 0.019,0.004 0.024,0.004 0.039,0.016 0.019,0.004 0.02,0.011 0.019,0.008 0.016,0.016 0.016,0.008 0.027,0.027 0.012,0.015 0.008,0.012 0.007,0.008 0.008,0.016 0.004,0.011 0.008,0.012 v 0.012 l 0.004,0.012 0.004,0.007 0.004,0.016 0.004,0.012 v 0.011 l 0.003,0.016 v 0.039 c 0,0.32 -0.304,0.32 -0.527,0.32 h -9.547 c -0.226,0 -0.527,0 -0.527,-0.32 0,-0.312 0.301,-0.312 0.543,-0.312 z"
       style="fill:#000000;fill-opacity:1;fill-rule:nonzero;stroke:none"
       id="path6341" /><path
       d="m 245.371,178.637 h 0.043 l 0.043,0.004 h 0.09 l 0.023,0.004 h 0.024 l 0.019,0.004 0.02,0.007 0.023,0.004 0.02,0.004 0.023,0.008 0.02,0.004 0.019,0.008 0.02,0.012 0.015,0.007 0.016,0.012 0.016,0.016 0.015,0.011 0.012,0.016 0.008,0.008 0.004,0.008 0.015,0.015 0.004,0.012 0.004,0.008 0.004,0.012 0.008,0.007 v 0.012 l 0.012,0.035 0.004,0.016 v 0.012 l 0.003,0.011 v 0.043 c 0,0.321 -0.304,0.321 -0.539,0.321 h -9.519 c -0.242,0 -0.543,0 -0.543,-0.321 0,-0.32 0.301,-0.32 0.527,-0.32 z"
       style="fill:#000000;fill-opacity:1;fill-rule:nonzero;stroke:none"
       id="path6343" /><path
       d="m 255.848,182.129 0.121,0.039 0.117,0.051 0.117,0.047 0.113,0.055 0.114,0.058 0.109,0.059 0.106,0.062 0.101,0.074 0.098,0.071 0.101,0.07 0.09,0.078 0.09,0.082 0.086,0.082 0.086,0.086 0.078,0.086 0.078,0.094 0.07,0.094 0.067,0.093 0.066,0.098 0.117,0.203 0.051,0.102 0.043,0.105 0.047,0.11 0.07,0.218 0.028,0.114 0.023,0.113 0.02,0.117 0.011,0.113 0.008,0.118 0.004,0.117 c 0,1.304 -1.406,2.203 -2.937,2.203 -1.61,0 -2.817,-0.961 -2.817,-2.172 0,-0.527 0.348,-0.832 0.813,-0.832 0.488,0 0.808,0.351 0.808,0.816 0,0.793 -0.75,0.793 -0.984,0.793 0.492,0.782 1.543,0.992 2.121,0.992 0.648,0 1.527,-0.351 1.527,-1.785 0,-0.195 -0.035,-1.117 -0.445,-1.82 -0.476,-0.766 -1.023,-0.809 -1.418,-0.828 -0.129,-0.016 -0.508,-0.047 -0.625,-0.047 -0.125,-0.016 -0.238,-0.031 -0.238,-0.191 0,-0.172 0.113,-0.172 0.383,-0.172 h 0.699 c 1.312,0 1.902,-1.086 1.902,-2.653 0,-2.164 -1.101,-2.629 -1.805,-2.629 -0.683,0 -1.882,0.27 -2.437,1.211 0.555,-0.078 1.051,0.274 1.051,0.879 0,0.575 -0.43,0.891 -0.895,0.891 -0.379,0 -0.89,-0.223 -0.89,-0.926 0,-1.449 1.48,-2.5 3.222,-2.5 1.942,0 3.391,1.449 3.391,3.074 0,1.313 -1.004,2.551 -2.656,2.887 z"
       style="fill:#000000;fill-opacity:1;fill-rule:nonzero;stroke:none"
       id="path6345" /><path
       d="m 156.445,201.594 0.055,0.148 0.062,0.141 0.032,0.066 0.035,0.067 0.031,0.062 0.035,0.059 0.039,0.059 0.036,0.058 0.039,0.055 0.039,0.051 0.082,0.097 0.082,0.094 0.086,0.082 0.09,0.078 0.089,0.07 0.094,0.063 0.09,0.059 0.094,0.054 0.179,0.086 0.09,0.039 0.086,0.031 0.086,0.028 0.086,0.023 0.156,0.039 0.074,0.016 0.067,0.008 0.062,0.011 0.063,0.004 0.055,0.008 h 0.046 l 0.04,0.004 0.035,0.004 h 0.047 c 2.16,0 2.32,-2.512 2.32,-3.645 0,-0.878 -0.074,-1.121 -0.172,-1.406 -0.316,-1.047 -0.746,-2.711 -0.746,-3.082 0,-0.156 0.07,-0.262 0.187,-0.262 0.184,0 0.301,0.321 0.457,0.864 0.329,1.207 0.473,2.023 0.536,2.465 0.023,0.191 0.05,0.375 0.109,0.566 0.457,1.414 1.379,3.551 1.953,4.684 0.098,0.168 0.27,0.488 0.27,0.543 0,0.144 -0.141,0.144 -0.172,0.144 -0.039,0 -0.129,0 -0.172,-0.101 -0.742,-1.36 -1.317,-2.793 -1.891,-4.243 -0.015,0.446 -0.027,1.532 -0.59,2.93 -0.339,0.871 -0.918,1.57 -1.906,1.57 -1.789,0 -2.797,-2.175 -2.797,-2.621 0,-0.14 0.129,-0.14 0.274,-0.14 z"
       style="fill:#000000;fill-opacity:1;fill-rule:nonzero;stroke:none"
       id="path6347" /><path
       d="m 177.934,202.641 h 0.125 l 0.019,0.004 h 0.02 l 0.023,0.004 h 0.02 l 0.039,0.007 0.023,0.004 0.016,0.004 0.019,0.008 0.02,0.004 0.047,0.023 0.019,0.012 0.012,0.008 0.012,0.016 0.015,0.011 0.012,0.012 0.004,0.012 0.004,0.008 0.004,0.003 0.008,0.012 0.003,0.008 v 0.012 l 0.004,0.008 0.008,0.011 v 0.02 l 0.008,0.023 v 0.012 l 0.004,0.012 v 0.023 c 0,0.289 -0.274,0.289 -0.473,0.289 h -8.594 c -0.199,0 -0.468,0 -0.468,-0.289 0,-0.281 0.269,-0.281 0.484,-0.281 z"
       style="fill:#000000;fill-opacity:1;fill-rule:nonzero;stroke:none"
       id="path6349" /><path
       d="m 177.949,199.856 h 0.035 l 0.043,0.004 h 0.078 l 0.02,0.003 h 0.02 l 0.058,0.012 0.02,0.008 0.015,0.004 0.02,0.008 0.019,0.004 0.012,0.007 0.02,0.008 0.015,0.012 0.012,0.012 0.016,0.011 0.011,0.016 0.004,0.004 0.008,0.012 0.004,0.004 0.004,0.007 0.004,0.012 0.008,0.008 0.003,0.008 v 0.008 l 0.004,0.011 0.008,0.008 v 0.024 l 0.008,0.023 v 0.012 l 0.004,0.011 v 0.028 c 0,0.285 -0.274,0.285 -0.488,0.285 h -8.563 c -0.215,0 -0.484,0 -0.484,-0.285 0,-0.289 0.269,-0.289 0.468,-0.289 z"
       style="fill:#000000;fill-opacity:1;fill-rule:nonzero;stroke:none"
       id="path6351" /><path
       d="m 189.805,202.539 v 0.211 l -0.004,0.215 -0.008,0.219 -0.008,0.211 -0.012,0.215 -0.015,0.214 -0.024,0.215 -0.027,0.207 -0.035,0.211 -0.039,0.211 -0.047,0.207 -0.055,0.207 -0.062,0.207 -0.071,0.203 -0.078,0.2 -0.043,0.101 -0.047,0.098 c -0.656,1.383 -1.835,1.613 -2.437,1.613 -0.859,0 -1.91,-0.375 -2.496,-1.711 -0.461,-0.988 -0.531,-2.109 -0.531,-3.254 0,-1.078 0.058,-2.367 0.648,-3.453 0.613,-1.16 1.66,-1.449 2.363,-1.449 v 0.312 c -0.558,0 -1.406,0.36 -1.664,1.739 -0.156,0.855 -0.156,2.175 -0.156,3.027 0,0.914 0,1.859 0.117,2.633 0.27,1.707 1.344,1.836 1.703,1.836 0.473,0 1.422,-0.258 1.692,-1.68 0.144,-0.801 0.144,-1.894 0.144,-2.789 0,-1.082 0,-2.055 -0.156,-2.973 -0.215,-1.359 -1.035,-1.793 -1.68,-1.793 v -0.312 c 0.774,0 1.864,0.301 2.496,1.664 0.461,0.984 0.532,2.102 0.532,3.238 z"
       style="fill:#000000;fill-opacity:1;fill-rule:nonzero;stroke:none"
       id="path6353" /><path
       d="m 193.141,198.711 v 0.078 l -0.008,0.035 -0.004,0.039 -0.024,0.071 -0.007,0.035 -0.012,0.035 -0.02,0.035 -0.015,0.032 -0.039,0.062 -0.02,0.027 -0.023,0.032 -0.047,0.054 -0.055,0.047 -0.031,0.024 -0.027,0.019 -0.032,0.024 -0.031,0.019 -0.031,0.016 -0.035,0.015 -0.071,0.024 -0.039,0.012 -0.035,0.011 -0.039,0.004 -0.035,0.008 h -0.078 c -0.414,0 -0.762,-0.344 -0.762,-0.758 0,-0.414 0.348,-0.762 0.762,-0.762 0.418,0 0.758,0.348 0.758,0.762 z"
       style="fill:#000000;fill-opacity:1;fill-rule:nonzero;stroke:none"
       id="path6355" /><path
       d="m 200.957,202.539 v 0.426 l -0.008,0.219 -0.011,0.211 -0.012,0.215 -0.016,0.214 -0.023,0.215 -0.028,0.207 -0.031,0.211 -0.043,0.211 -0.047,0.207 -0.054,0.207 -0.063,0.207 -0.066,0.203 -0.082,0.2 -0.043,0.101 -0.047,0.098 c -0.656,1.383 -1.836,1.613 -2.438,1.613 -0.859,0 -1.906,-0.375 -2.496,-1.711 -0.457,-0.988 -0.527,-2.109 -0.527,-3.254 0,-1.078 0.055,-2.367 0.644,-3.453 0.618,-1.16 1.664,-1.449 2.368,-1.449 v 0.312 c -0.559,0 -1.411,0.36 -1.668,1.739 -0.153,0.855 -0.153,2.175 -0.153,3.027 0,0.914 0,1.859 0.114,2.633 0.269,1.707 1.347,1.836 1.707,1.836 0.468,0 1.418,-0.258 1.691,-1.68 0.141,-0.801 0.141,-1.894 0.141,-2.789 0,-1.082 0,-2.055 -0.157,-2.973 -0.214,-1.359 -1.035,-1.793 -1.675,-1.793 v -0.312 c 0.773,0 1.859,0.301 2.496,1.664 0.457,0.984 0.527,2.102 0.527,3.238 z"
       style="fill:#000000;fill-opacity:1;fill-rule:nonzero;stroke:none"
       id="path6357" /><path
       d="m 207.984,200.832 -0.004,0.16 -0.023,0.313 -0.055,0.305 -0.035,0.144 -0.043,0.145 -0.047,0.144 -0.054,0.137 -0.059,0.137 -0.066,0.132 -0.067,0.125 -0.078,0.125 -0.078,0.118 -0.086,0.117 -0.086,0.109 -0.094,0.102 -0.097,0.101 -0.211,0.18 -0.11,0.086 -0.113,0.074 -0.121,0.07 -0.117,0.063 -0.125,0.059 -0.129,0.05 -0.129,0.043 -0.137,0.035 -0.136,0.028 -0.141,0.019 -0.141,0.016 -0.144,0.004 c -0.688,0 -1.305,-0.231 -1.82,-0.731 v 2.793 c 0.285,-0.082 0.757,-0.183 1.218,-0.183 1.762,0 2.766,1.301 2.766,1.492 0,0.086 -0.039,0.16 -0.145,0.16 -0.011,0 -0.039,0 -0.109,-0.047 -0.289,-0.129 -0.992,-0.414 -1.953,-0.414 -0.57,0 -1.235,0.102 -1.906,0.399 -0.114,0.039 -0.145,0.039 -0.172,0.039 -0.145,0 -0.145,-0.11 -0.145,-0.336 v -4.246 c 0,-0.258 0,-0.375 0.203,-0.375 0.098,0 0.125,0.047 0.184,0.129 0.16,0.23 0.687,1.003 1.848,1.003 0.75,0 1.109,-0.66 1.222,-0.918 0.231,-0.527 0.258,-1.085 0.258,-1.804 0,-0.504 0,-1.367 -0.348,-1.969 -0.339,-0.559 -0.871,-0.93 -1.531,-0.93 -1.051,0 -1.863,0.762 -2.109,1.606 0.043,-0.012 0.09,-0.028 0.246,-0.028 0.473,0 0.715,0.36 0.715,0.704 0,0.343 -0.242,0.703 -0.715,0.703 -0.203,0 -0.707,-0.102 -0.707,-0.766 0,-1.23 0.992,-2.617 2.601,-2.617 1.661,0 3.125,1.375 3.125,3.195 z"
       style="fill:#000000;fill-opacity:1;fill-rule:nonzero;stroke:none"
       id="path6359" /><path
       d="m 211.637,197.965 v 0.086 l -0.004,0.086 -0.004,0.082 -0.008,0.082 -0.012,0.078 -0.007,0.074 -0.016,0.075 -0.012,0.07 -0.019,0.07 -0.016,0.067 -0.019,0.062 -0.047,0.117 -0.055,0.11 -0.027,0.05 -0.036,0.043 -0.031,0.047 -0.031,0.039 -0.035,0.039 -0.039,0.039 -0.035,0.032 -0.043,0.027 -0.039,0.027 -0.043,0.024 -0.047,0.023 -0.043,0.016 -0.051,0.016 -0.047,0.011 -0.051,0.008 -0.047,0.004 h -0.05 c -0.477,0 -0.766,-0.359 -0.766,-0.758 0,-0.387 0.289,-0.762 0.766,-0.762 0.168,0 0.359,0.059 0.504,0.184 0.035,0.031 0.054,0.047 0.07,0.047 0.012,0 0.027,-0.016 0.027,-0.215 0,-1.062 -0.504,-1.922 -0.976,-2.394 -0.16,-0.157 -0.16,-0.188 -0.16,-0.227 0,-0.106 0.074,-0.16 0.144,-0.16 0.16,0 1.305,1.101 1.305,2.781 z"
       style="fill:#000000;fill-opacity:1;fill-rule:nonzero;stroke:none"
       id="path6361" /><path
       d="m 223.758,203.281 v 0.063 l -0.004,0.059 -0.008,0.109 -0.008,0.055 -0.008,0.05 -0.007,0.047 -0.012,0.047 -0.008,0.047 -0.015,0.047 -0.016,0.039 -0.012,0.039 -0.015,0.039 -0.02,0.039 -0.02,0.031 -0.015,0.036 -0.02,0.031 -0.019,0.027 -0.047,0.055 -0.02,0.023 -0.027,0.02 -0.023,0.019 -0.028,0.02 -0.023,0.012 -0.028,0.015 -0.027,0.012 -0.055,0.016 -0.031,0.003 -0.027,0.004 h -0.027 c -0.376,0 -0.762,-0.339 -0.762,-0.675 0,-0.137 0.066,-0.293 0.211,-0.426 0.246,-0.215 0.504,-0.602 0.504,-1.203 0,-0.578 -0.274,-1.391 -0.715,-2.055 -0.43,-0.613 -0.965,-1.098 -1.637,-1.098 -0.82,0 -1.262,0.512 -1.391,1.285 0.161,0.372 0.489,1.29 0.489,1.696 0,0.172 -0.075,0.316 -0.258,0.316 -0.117,0 -0.274,-0.035 -0.387,-0.242 -0.156,-0.289 -0.332,-1.223 -0.332,-1.738 -0.472,-0.676 -1.047,-1.317 -1.949,-1.317 -0.949,0 -1.25,0.844 -1.25,1.645 0,1.793 1.465,3.301 1.465,3.484 0,0.156 -0.114,0.278 -0.274,0.278 -0.187,0 -0.285,-0.192 -0.371,-0.321 -0.734,-1.062 -1.277,-2.765 -1.277,-4.07 0,-0.988 0.332,-2.051 1.504,-2.051 1.019,0 1.691,0.715 2.211,1.508 0.129,-0.832 0.687,-1.508 1.574,-1.508 1.125,0 1.812,0.871 2.324,1.949 0.344,0.704 0.891,2.653 0.891,3.539 z"
       style="fill:#000000;fill-opacity:1;fill-rule:nonzero;stroke:none"
       id="path6363" /><path
       d="m 229.176,199.008 -0.004,0.203 -0.004,0.195 -0.008,0.192 -0.012,0.183 -0.039,0.352 -0.027,0.164 -0.031,0.16 -0.035,0.156 -0.043,0.157 -0.051,0.144 -0.055,0.145 -0.058,0.14 -0.071,0.137 -0.074,0.137 -0.039,0.066 -0.047,0.067 c -0.308,0.465 -0.93,0.863 -1.734,0.863 v -0.281 c 0.543,0 1.07,-0.328 1.246,-0.914 0.16,-0.539 0.172,-1.262 0.172,-2.137 0,-0.742 0,-1.484 -0.129,-2.113 -0.203,-0.914 -0.883,-1.133 -1.289,-1.133 -0.457,0 -1.071,0.269 -1.27,1.094 -0.14,0.589 -0.14,1.41 -0.14,2.152 0,0.734 0,1.5 0.148,2.047 0.211,0.789 0.856,1.004 1.262,1.004 v 0.281 c -2.324,0 -2.324,-2.738 -2.324,-3.461 0,-0.723 0,-3.402 2.324,-3.402 2.332,0 2.332,2.679 2.332,3.402 z"
       style="fill:#000000;fill-opacity:1;fill-rule:nonzero;stroke:none"
       id="path6365" /><path
       d="m 244.246,202.641 h 0.125 l 0.02,0.004 h 0.023 l 0.02,0.004 h 0.019 l 0.078,0.015 0.02,0.008 0.015,0.004 0.02,0.008 0.016,0.008 0.019,0.007 0.012,0.012 0.015,0.008 0.04,0.039 0.003,0.012 0.008,0.008 v 0.003 l 0.008,0.012 v 0.008 l 0.004,0.012 0.008,0.008 v 0.011 l 0.004,0.008 0.004,0.012 v 0.011 l 0.003,0.012 v 0.047 c 0,0.289 -0.273,0.289 -0.468,0.289 h -8.59 c -0.203,0 -0.473,0 -0.473,-0.289 0,-0.281 0.27,-0.281 0.485,-0.281 z"
       style="fill:#000000;fill-opacity:1;fill-rule:nonzero;stroke:none"
       id="path6367" /><path
       d="m 244.262,199.856 h 0.035 l 0.039,0.004 h 0.082 l 0.02,0.003 h 0.019 l 0.059,0.012 0.019,0.008 0.02,0.004 0.015,0.008 0.02,0.004 0.012,0.007 0.019,0.008 0.012,0.012 0.031,0.023 0.012,0.016 0.004,0.004 0.008,0.012 0.011,0.011 v 0.012 l 0.008,0.008 v 0.008 l 0.004,0.008 0.008,0.011 v 0.008 l 0.008,0.024 v 0.011 l 0.003,0.012 v 0.051 c 0,0.285 -0.273,0.285 -0.484,0.285 h -8.562 c -0.215,0 -0.485,0 -0.485,-0.285 0,-0.289 0.27,-0.289 0.473,-0.289 z"
       style="fill:#000000;fill-opacity:1;fill-rule:nonzero;stroke:none"
       id="path6369" /><path
       d="m 253.734,207.129 v 0.113 l -0.004,0.012 v 0.074 l -0.003,0.024 -0.008,0.031 v 0.012 l -0.008,0.015 -0.004,0.012 -0.008,0.012 -0.004,0.008 -0.019,0.019 -0.012,0.008 -0.012,0.004 -0.011,0.008 h -0.008 l -0.004,0.004 h -0.008 l -0.012,0.003 -0.004,0.004 h -0.027 l -0.012,0.004 h -0.019 l -0.012,0.004 h -0.058 l -0.012,0.004 h -0.059 c -0.89,-0.918 -2.148,-0.918 -2.605,-0.918 v -0.449 c 0.285,0 1.129,0 1.871,0.375 v -7.426 c 0,-0.519 -0.039,-0.691 -1.332,-0.691 h -0.457 v -0.446 c 0.504,0.047 1.75,0.047 2.32,0.047 0.574,0 1.82,0 2.324,-0.047 v 0.446 h -0.457 c -1.293,0 -1.336,0.156 -1.336,0.691 z"
       style="fill:#000000;fill-opacity:1;fill-rule:nonzero;stroke:none"
       id="path6371" /><path
       d="m 259.457,198.711 -0.004,0.035 -0.004,0.043 v 0.035 l -0.011,0.039 -0.016,0.071 -0.012,0.035 -0.015,0.035 -0.012,0.035 -0.059,0.094 -0.019,0.027 -0.024,0.032 -0.023,0.027 -0.051,0.051 -0.031,0.023 -0.028,0.024 -0.027,0.019 -0.031,0.024 -0.035,0.019 -0.032,0.016 -0.035,0.015 -0.031,0.012 -0.035,0.012 -0.039,0.012 -0.035,0.011 -0.036,0.004 -0.039,0.008 h -0.078 c -0.414,0 -0.757,-0.344 -0.757,-0.758 0,-0.414 0.343,-0.762 0.757,-0.762 0.418,0 0.762,0.348 0.762,0.762 z"
       style="fill:#000000;fill-opacity:1;fill-rule:nonzero;stroke:none"
       id="path6373" /><path
       d="m 267.27,202.539 v 0.211 l -0.004,0.215 -0.004,0.219 -0.008,0.211 -0.031,0.429 -0.024,0.215 -0.027,0.207 -0.035,0.211 -0.039,0.211 -0.047,0.207 -0.055,0.207 -0.058,0.207 -0.075,0.203 -0.078,0.2 -0.043,0.101 -0.047,0.098 c -0.656,1.383 -1.832,1.613 -2.437,1.613 -0.86,0 -1.906,-0.375 -2.496,-1.711 -0.457,-0.988 -0.532,-2.109 -0.532,-3.254 0,-1.078 0.059,-2.367 0.649,-3.453 0.617,-1.16 1.664,-1.449 2.367,-1.449 v 0.312 c -0.558,0 -1.406,0.36 -1.664,1.739 -0.16,0.855 -0.16,2.175 -0.16,3.027 0,0.914 0,1.859 0.121,2.633 0.266,1.707 1.344,1.836 1.703,1.836 0.473,0 1.418,-0.258 1.688,-1.68 0.144,-0.801 0.144,-1.894 0.144,-2.789 0,-1.082 0,-2.055 -0.156,-2.973 -0.215,-1.359 -1.035,-1.793 -1.676,-1.793 v -0.312 c 0.77,0 1.863,0.301 2.496,1.664 0.457,0.984 0.528,2.102 0.528,3.238 z"
       style="fill:#000000;fill-opacity:1;fill-rule:nonzero;stroke:none"
       id="path6375" /></g></svg>
