<?xml version="1.0" encoding="UTF-8" standalone="no"?>
<svg
   xmlns:dc="http://purl.org/dc/elements/1.1/"
   xmlns:cc="http://creativecommons.org/ns#"
   xmlns:rdf="http://www.w3.org/1999/02/22-rdf-syntax-ns#"
   xmlns:svg="http://www.w3.org/2000/svg"
   xmlns="http://www.w3.org/2000/svg"
   xmlns:sodipodi="http://sodipodi.sourceforge.net/DTD/sodipodi-0.dtd"
   xmlns:inkscape="http://www.inkscape.org/namespaces/inkscape"
   width="449.87521"
   height="118.15598"
   id="svg2"
   version="1.1"
   inkscape:version="1.0 (4035a4fb49, 2020-05-01)"
   sodipodi:docname="periodicity.svg"
   inkscape:export-filename="/home/cyd/jupyter/MH2801/img/periodicity.png"
   inkscape:export-xdpi="109.89714"
   inkscape:export-ydpi="109.89714">
  <sodipodi:namedview
     id="base"
     pagecolor="#ffffff"
     bordercolor="#666666"
     borderopacity="1.0"
     inkscape:pageopacity="0.0"
     inkscape:pageshadow="2"
     inkscape:zoom="1"
     inkscape:cx="131.35536"
     inkscape:cy="31.178664"
     inkscape:document-units="px"
     inkscape:current-layer="layer1"
     showgrid="false"
     inkscape:window-width="1920"
     inkscape:window-height="1026"
     inkscape:window-x="0"
     inkscape:window-y="0"
     inkscape:window-maximized="1"
     fit-margin-top="0"
     fit-margin-left="0"
     fit-margin-right="0"
     fit-margin-bottom="0"
     inkscape:document-rotation="0" />
  <defs
     id="defs4">
    <marker
       inkscape:isstock="true"
       style="overflow:visible"
       id="marker4843"
       refX="0"
       refY="0"
       orient="auto"
       inkscape:stockid="Arrow2Mend">
      <path
         transform="scale(-0.6)"
         d="M 8.7185878,4.0337352 -2.2072895,0.01601326 8.7185884,-4.0017078 c -1.7454984,2.3720609 -1.7354408,5.6174519 -6e-7,8.035443 z"
         style="fill:#000000;fill-opacity:1;fill-rule:evenodd;stroke:#000000;stroke-width:0.625;stroke-linejoin:round;stroke-opacity:1"
         id="path4614"
         inkscape:connector-curvature="0" />
    </marker>
    <marker
       style="overflow:visible"
       id="Arrow2Mend"
       refX="0"
       refY="0"
       orient="auto"
       inkscape:stockid="Arrow2Mend">
      <path
         transform="scale(-0.6)"
         d="M 8.7185878,4.0337352 -2.2072895,0.01601326 8.7185884,-4.0017078 c -1.7454984,2.3720609 -1.7354408,5.6174519 -6e-7,8.035443 z"
         style="fill-rule:evenodd;stroke-width:0.625;stroke-linejoin:round"
         id="path4980"
         inkscape:connector-curvature="0" />
    </marker>
    <marker
       style="overflow:visible"
       id="Arrow2MendE"
       refX="0"
       refY="0"
       orient="auto"
       inkscape:stockid="Arrow2MendE">
      <path
         transform="scale(-0.6)"
         d="M 8.7185878,4.0337352 -2.2072895,0.01601326 8.7185884,-4.0017078 c -1.7454984,2.3720609 -1.7354408,5.6174519 -6e-7,8.035443 z"
         style="fill:#175217;fill-rule:evenodd;stroke:#175217;stroke-width:0.625;stroke-linejoin:round"
         id="path5398"
         inkscape:connector-curvature="0" />
    </marker>
    <marker
       style="overflow:visible"
       id="Arrow2MendU"
       refX="0"
       refY="0"
       orient="auto"
       inkscape:stockid="Arrow2MendU">
      <path
         transform="scale(-0.6)"
         d="M 8.7185878,4.0337352 -2.2072895,0.01601326 8.7185884,-4.0017078 c -1.7454984,2.3720609 -1.7354408,5.6174519 -6e-7,8.035443 z"
         style="fill:#175217;fill-rule:evenodd;stroke:#175217;stroke-width:0.625;stroke-linejoin:round"
         id="path5781"
         inkscape:connector-curvature="0" />
    </marker>
    <marker
       style="overflow:visible"
       id="Arrow2MendE6"
       refX="0"
       refY="0"
       orient="auto"
       inkscape:stockid="Arrow2MendE6">
      <path
         transform="scale(-0.6)"
         d="M 8.7185878,4.0337352 -2.2072895,0.01601326 8.7185884,-4.0017078 c -1.7454984,2.3720609 -1.7354408,5.6174519 -6e-7,8.035443 z"
         style="fill:#294029;fill-rule:evenodd;stroke:#294029;stroke-width:0.625;stroke-linejoin:round"
         id="path4217"
         inkscape:connector-curvature="0" />
    </marker>
    <marker
       style="overflow:visible"
       id="Arrow2MendE6-5"
       refX="0"
       refY="0"
       orient="auto"
       inkscape:stockid="Arrow2MendE6">
      <path
         transform="scale(-0.6)"
         d="M 8.7185878,4.0337352 -2.2072895,0.01601326 8.7185884,-4.0017078 c -1.7454984,2.3720609 -1.7354408,5.6174519 -6e-7,8.035443 z"
         style="fill:#294029;fill-rule:evenodd;stroke:#294029;stroke-width:0.625;stroke-linejoin:round"
         id="path4217-5"
         inkscape:connector-curvature="0" />
    </marker>
    <marker
       style="overflow:visible"
       id="Arrow2MendE6s"
       refX="0"
       refY="0"
       orient="auto"
       inkscape:stockid="Arrow2MendE6s">
      <path
         transform="scale(-0.6)"
         d="M 8.7185878,4.0337352 -2.2072895,0.01601326 8.7185884,-4.0017078 c -1.7454984,2.3720609 -1.7354408,5.6174519 -6e-7,8.035443 z"
         style="fill:#3a5b3a;fill-rule:evenodd;stroke:#3a5b3a;stroke-width:0.625;stroke-linejoin:round"
         id="path7331"
         inkscape:connector-curvature="0" />
    </marker>
    <marker
       style="overflow:visible"
       id="Arrow2MendE6p"
       refX="0"
       refY="0"
       orient="auto"
       inkscape:stockid="Arrow2MendE6p">
      <path
         transform="scale(-0.6)"
         d="M 8.7185878,4.0337352 -2.2072895,0.01601326 8.7185884,-4.0017078 c -1.7454984,2.3720609 -1.7354408,5.6174519 -6e-7,8.035443 z"
         style="fill:#3a5b3a;fill-rule:evenodd;stroke:#3a5b3a;stroke-width:0.625;stroke-linejoin:round"
         id="path7462"
         inkscape:connector-curvature="0" />
    </marker>
    <marker
       style="overflow:visible"
       id="Arrow2MendE6p5"
       refX="0"
       refY="0"
       orient="auto"
       inkscape:stockid="Arrow2MendE6p5">
      <path
         transform="scale(-0.6)"
         d="M 8.7185878,4.0337352 -2.2072895,0.01601326 8.7185884,-4.0017078 c -1.7454984,2.3720609 -1.7354408,5.6174519 -6e-7,8.035443 z"
         style="fill:#000000;fill-rule:evenodd;stroke:#000000;stroke-width:0.625;stroke-linejoin:round"
         id="path4866"
         inkscape:connector-curvature="0" />
    </marker>
    <marker
       style="overflow:visible"
       id="Arrow2MendE6p5-3"
       refX="0"
       refY="0"
       orient="auto"
       inkscape:stockid="Arrow2MendE6p5">
      <path
         transform="scale(-0.6)"
         d="M 8.7185878,4.0337352 -2.2072895,0.01601326 8.7185884,-4.0017078 c -1.7454984,2.3720609 -1.7354408,5.6174519 -6e-7,8.035443 z"
         style="fill:#000000;fill-rule:evenodd;stroke:#000000;stroke-width:0.625;stroke-linejoin:round"
         id="path4866-6"
         inkscape:connector-curvature="0" />
    </marker>
    <marker
       style="overflow:visible"
       id="Arrow2MendE6p5-3-5"
       refX="0"
       refY="0"
       orient="auto"
       inkscape:stockid="Arrow2MendE6p5">
      <path
         transform="scale(-0.6)"
         d="M 8.7185878,4.0337352 -2.2072895,0.01601326 8.7185884,-4.0017078 c -1.7454984,2.3720609 -1.7354408,5.6174519 -6e-7,8.035443 z"
         style="fill:#000000;fill-rule:evenodd;stroke:#000000;stroke-width:0.625;stroke-linejoin:round"
         id="path4866-6-3"
         inkscape:connector-curvature="0" />
    </marker>
  </defs>
  <metadata
     id="metadata7">
    <rdf:RDF>
      <cc:Work
         rdf:about="">
        <dc:format>image/svg+xml</dc:format>
        <dc:type
           rdf:resource="http://purl.org/dc/dcmitype/StillImage" />
        <dc:title></dc:title>
      </cc:Work>
    </rdf:RDF>
  </metadata>
  <g
     id="layer1"
     inkscape:groupmode="layer"
     inkscape:label="Layer 1"
     transform="translate(-168.15312,-354.94227)">
    <path
       sodipodi:nodetypes="cc"
       inkscape:connector-curvature="0"
       id="path4171"
       d="M 177.335,454.43039 H 615.08212"
       style="fill:none;stroke:#000000;stroke-width:1.5;stroke-linecap:butt;stroke-linejoin:miter;stroke-miterlimit:3.925;stroke-dasharray:none;stroke-opacity:1;marker-end:url(#Arrow2MendE6p5)"
       inkscape:export-filename="/home/cyd/jupyter/MH2801/img/path4171-7-5.png"
       inkscape:export-xdpi="140.10046"
       inkscape:export-ydpi="140.10046" />
    <path
       style="fill:none;stroke:#555555;stroke-width:0.784049;stroke-linecap:butt;stroke-linejoin:miter;stroke-miterlimit:4;stroke-dasharray:2.35215, 2.35215;stroke-dashoffset:0;stroke-opacity:1"
       d="m 324.3391,360.43301 v 94.98893"
       id="path5418"
       inkscape:connector-curvature="0"
       sodipodi:nodetypes="cc"
       inkscape:export-filename="/home/cyd/jupyter/MH2801/img/path4171-7-5.png"
       inkscape:export-xdpi="140.10046"
       inkscape:export-ydpi="140.10046" />
    <path
       style="fill:none;stroke:#000000;stroke-width:1.5;stroke-linecap:butt;stroke-linejoin:miter;stroke-miterlimit:3.925;stroke-dasharray:none;stroke-dashoffset:0;stroke-opacity:1;marker-end:url(#marker4843)"
       d="M 178.10568,454.83123 V 378.62895"
       id="path5418-8"
       inkscape:connector-curvature="0"
       sodipodi:nodetypes="cc"
       inkscape:export-filename="/home/cyd/jupyter/MH2801/img/path4171-7-5.png"
       inkscape:export-xdpi="140.10046"
       inkscape:export-ydpi="140.10046" />
    <g
       transform="matrix(0.33530112,0,0,0.33530112,506.82961,351.34692)"
       id="g5453"
       inkscape:export-filename="/home/cyd/jupyter/MH2801/img/path4171-7-5.png"
       inkscape:export-xdpi="140.10046"
       inkscape:export-ydpi="140.10046"
       style="stroke-width:1.00208">
      <g
         style="font-style:normal;font-variant:normal;font-weight:normal;font-stretch:normal;letter-spacing:normal;word-spacing:normal;text-anchor:start;fill:none;stroke:#000000;stroke-width:1.11343;stroke-linecap:butt;stroke-linejoin:miter;stroke-miterlimit:10.433;stroke-dasharray:none;stroke-dashoffset:0;stroke-opacity:1"
         id="content"
         transform="matrix(1.0629921,0,0,-1.0629921,-186.02362,789.27165)"
         xml:space="preserve"
         stroke-miterlimit="10.433"
         font-style="normal"
         font-variant="normal"
         font-weight="normal"
         font-stretch="normal"
         font-size-adjust="none"
         letter-spacing="normal"
         word-spacing="normal"><path
           style="fill:#000000;stroke-width:0"
           inkscape:connector-curvature="0"
           d="m 472.16,421.25 0.03,0.13 0.04,0.15 0.04,0.16 0.04,0.18 0.06,0.19 0.06,0.21 0.06,0.22 0.07,0.22 0.08,0.23 0.09,0.24 0.1,0.25 0.1,0.24 0.11,0.25 0.12,0.25 0.13,0.25 0.14,0.25 0.15,0.24 0.15,0.24 0.17,0.23 0.18,0.22 0.18,0.22 0.2,0.2 0.21,0.19 0.22,0.18 0.23,0.16 0.25,0.14 0.12,0.07 0.13,0.06 0.14,0.05 0.13,0.05 0.14,0.05 0.14,0.04 0.15,0.03 0.15,0.03 0.15,0.02 0.16,0.02 0.16,0.01 h 0.16 c 0.25,0 1.44,0 2.48,-0.64 -1.39,-0.25 -2.39,-1.5 -2.39,-2.69 0,-0.79 0.55,-1.75 1.89,-1.75 1.1,0 2.69,0.89 2.69,2.89 0,2.6 -2.94,3.28 -4.63,3.28 -2.89,0 -4.64,-2.64 -5.23,-3.78 -1.25,3.28 -3.94,3.78 -5.37,3.78 -5.19,0 -8.04,-6.42 -8.04,-7.67 0,-0.5 0.5,-0.5 0.61,-0.5 0.39,0 0.55,0.11 0.64,0.55 1.69,5.28 4.99,6.53 6.68,6.53 0.95,0 2.68,-0.44 2.68,-3.33 0,-1.54 -0.84,-4.89 -2.68,-11.86 -0.8,-3.09 -2.54,-5.18 -4.74,-5.18 -0.3,0 -1.44,0 -2.48,0.65 1.25,0.24 2.34,1.28 2.34,2.69 0,1.34 -1.09,1.73 -1.84,1.73 -1.5,0 -2.75,-1.29 -2.75,-2.89 0,-2.28 2.5,-3.28 4.68,-3.28 3.3,0 5.08,3.49 5.24,3.78 0.59,-1.84 2.39,-3.78 5.37,-3.78 5.14,0 7.99,6.42 7.99,7.67 0,0.5 -0.45,0.5 -0.61,0.5 -0.44,0 -0.55,-0.2 -0.64,-0.54 -1.64,-5.33 -5.03,-6.53 -6.63,-6.53 -1.95,0 -2.75,1.59 -2.75,3.29 0,1.1 0.3,2.19 0.86,4.38 z"
           id="path5456" /></g>
    </g>
    <path
       id="path3226"
       style="fill:none;stroke:#12486d;stroke-width:1;stroke-linecap:round;stroke-linejoin:round;stroke-miterlimit:10;stroke-dasharray:none;stroke-opacity:1"
       d="m 180.71929,404.27477 0.72038,-1.16983 0.72051,-0.79134 0.72055,-0.23143 0.72037,0.42 0.72052,1.04871 0.72055,1.53823 0.72037,1.78769 0.72053,1.73157 0.7205,1.35127 0.72041,0.68343 0.72053,-0.18514 0.72059,-1.12485 0.72038,-1.98338 0.72041,-2.60654 0.72041,-2.86149 0.7204,-2.65912 0.72072,-1.9686 0.72041,-0.82677 0.7204,0.66383 0.72041,2.34549 0.72072,4.0239 0.7204,5.49422 0.72043,6.56534 0.7204,7.09063 0.72039,6.98406 0.72074,6.23527 0.7204,4.91495 0.72041,3.16194 0.7204,1.17174 0.72041,-0.83107 0.72072,-2.6216 0.72042,-4.00272 0.7204,-4.83037 0.72039,-5.0321 0.72072,-4.61608 0.72042,-3.66767 0.72041,-2.33754 0.7204,-0.81989 0.72039,0.67495 0.72076,1.94822 0.72038,2.8411 0.72043,3.25426 0.72038,3.16037 0.72074,2.60651 0.72041,1.7033 0.7204,0.60964 0.72041,-0.49353 0.7204,-1.43115 0.72072,-2.0577 0.72042,-2.28119 0.7204,-2.07438 0.7204,-1.47928 0.7204,-0.59932 0.72073,0.41631 0.72041,1.39754 0.7204,2.17698 0.7204,2.61974 0.72073,2.64249 0.7204,2.22726 0.72041,1.4269 0.7204,0.356 0.72041,-0.8244 0.72072,-1.93155 0.72042,-2.78796 0.72041,-3.25106 0.7204,-3.23573 0.72041,-2.72847 0.72073,-1.79375 0.72041,-0.56784 0.72039,0.76199 0.7204,1.97914 0.72074,2.87391 0.7204,3.2712 0.72041,3.06088 0.72039,2.21747 0.72042,0.80669 0.72074,-1.01802 0.72038,-3.03285 0.72041,-4.97209 0.7204,-6.56351 0.72074,-7.56539 0.72041,-7.80287 0.7204,-7.19355 0.72039,-5.76291 0.72042,-3.64726 0.72072,-1.07887 0.72041,1.64247 0.7204,4.18286 0.72041,6.22181 0.72041,7.48975 0.72072,7.80896 0.7204,7.11656 0.72041,5.47644 0.7204,3.07548 0.72072,0.20102 0.72041,-2.79298 0.7204,-5.52938 0.72041,-7.65559 0.7204,-8.88727 0.72074,-9.04784 0.72041,-8.08881 0.72038,-6.09829 0.72043,-3.29284 0.72038,0.009 0.72076,3.43196 0.72039,6.57569 0.7204,9.07719 0.72041,10.64958 0.72073,11.11559 0.72041,10.42978 0.72039,8.68125 0.72042,6.08135 0.7204,2.93614 0.72074,-0.39424 0.72039,-3.53742 0.7204,-6.15621 0.72041,-7.98723 0.7204,-8.86904 0.72074,-8.75876 0.72039,-7.72964 0.72042,-5.95914 0.72041,-3.69831 0.72072,-1.23858 0.7204,1.12776 0.72041,3.14553 0.72041,4.62508 0.7204,5.46247 0.72073,5.64705 0.72039,5.25482 0.72042,4.4307 0.7204,3.36187 0.7204,2.24922 0.72073,1.27374 0.7204,0.57342 0.72041,0.22322 0.7204,0.22878 0.72072,0.53004 0.72041,1.01326 0.7204,1.5364 0.72043,1.95003 0.72038,2.12731 0.72074,1.98442 0.72039,1.49463 0.72042,0.6964 0.72041,-0.31448 0.72072,-1.397 0.7204,-2.38807 0.72042,-3.12651 0.72041,-3.48063 0.7204,-3.36984 0.72072,-2.77817 0.72041,-1.76252 0.72042,-0.44434 0.72039,1.00291 0.72042,2.37909 0.72072,3.48194 0.72039,4.13893 0.72042,4.22972 0.72039,3.7065 0.72072,2.60124 0.72043,1.02489 0.7204,-0.84609 0.7204,-2.79273 0.72039,-4.5801 0.72074,-5.98853 0.72041,-6.84258 0.7204,-7.03374 0.7204,-6.53414 0.72075,-5.40082 0.72038,-3.76788 0.72043,-1.82734 0.72038,0.19335 0.72041,2.06299 0.72074,3.57531 0.72038,4.57349 0.72043,4.97 0.72038,4.75442 0.72043,3.99163 0.72073,2.81046 0.7204,1.38486 0.7204,-0.0931 0.72038,-1.43828 0.72043,-2.49651 0.72073,-3.1643 0.7204,-3.40026 0.7204,-3.2246 0.72041,-2.71445 0.72072,-1.98628 0.72041,-1.17962 0.72041,-0.42926 0.7204,0.14979 0.7204,0.48242 0.72073,0.54221 0.72043,0.35281 0.72038,-0.0189 0.7204,-0.47582 0.72075,-0.90826 0.7204,-1.21291 0.72041,-1.31263"
       inkscape:connector-curvature="0"
       inkscape:export-filename="/home/cyd/jupyter/MH2801/img/path4171-7-5.png"
       inkscape:export-xdpi="140.10046"
       inkscape:export-ydpi="140.10046" />
    <path
       style="fill:none;stroke:#555555;stroke-width:0.784049;stroke-linecap:butt;stroke-linejoin:miter;stroke-miterlimit:4;stroke-dasharray:2.35215, 2.35215;stroke-dashoffset:0;stroke-opacity:1"
       d="m 468.00936,360.43301 v 94.98893"
       id="path5418-3"
       inkscape:connector-curvature="0"
       sodipodi:nodetypes="cc"
       inkscape:export-filename="/home/cyd/jupyter/MH2801/img/path4171-7-5.png"
       inkscape:export-xdpi="140.10046"
       inkscape:export-ydpi="140.10046" />
    <path
       id="path3226-7"
       style="fill:none;stroke:#1f77b4;stroke-width:1.8;stroke-linecap:round;stroke-linejoin:round;stroke-miterlimit:10;stroke-dasharray:none;stroke-opacity:1"
       d="m 324.12311,404.27477 0.72037,-1.16983 0.72055,-0.79134 0.72054,-0.23143 0.72035,0.42 0.72055,1.04871 0.72053,1.53823 0.72037,1.78769 0.72054,1.73157 0.7205,1.35127 0.7204,0.68343 0.72051,-0.18514 0.72058,-1.12485 0.72042,-1.98338 0.72039,-2.60654 0.7204,-2.86149 0.72043,-2.65912 0.72072,-1.9686 0.7204,-0.82677 0.72041,0.66383 0.7204,2.34549 0.72072,4.0239 0.72041,5.49422 0.7204,6.56534 0.72043,7.09063 0.72038,6.98406 0.72074,6.23527 0.72041,4.91495 0.7204,3.16194 0.72041,1.17174 0.7204,-0.83107 0.72072,-2.6216 0.72041,-4.00272 0.7204,-4.83037 0.72041,-5.0321 0.72073,-4.61608 0.72041,-3.66767 0.72038,-2.33754 0.72043,-0.81989 0.7204,0.67495 0.72073,1.94822 0.7204,2.8411 0.7204,3.25426 0.72041,3.16037 0.72072,2.60651 0.72041,1.7033 0.7204,0.60964 0.7204,-0.49353 0.72041,-1.43115 0.72075,-2.0577 0.72038,-2.28119 0.7204,-2.07438 0.72041,-1.47928 0.7204,-0.59932 0.72075,0.41631 0.72038,1.39754 0.7204,2.17698 0.72043,2.61974 0.72072,2.64249 0.72041,2.22726 0.72038,1.4269 0.72043,0.356 0.72041,-0.8244 0.72071,-1.93155 0.72042,-2.78796 0.7204,-3.25106 0.72041,-3.23573 0.7204,-2.72847 0.72072,-1.79375 0.72041,-0.56784 0.7204,0.76199 0.72043,1.97914 0.72072,2.87391 0.72041,3.2712 0.7204,3.06088 0.72041,2.21747 0.7204,0.80669 0.72072,-1.01802 0.72041,-3.03285 0.72041,-4.97209 0.7204,-6.56351 0.72072,-7.56539 0.72041,-7.80287 0.7204,-7.19355 0.72041,-5.76291 0.7204,-3.64726 0.72072,-1.07887 0.72041,1.64247 0.7204,4.18286 0.72043,6.22181 0.72038,7.48975 0.72072,7.80896 0.72043,7.11656 0.72042,5.47644 0.72039,3.07548 0.72072,0.20102 0.7204,-2.79298 0.72042,-5.52938 0.72041,-7.65559 0.72039,-8.88727 0.72073,-9.04784 0.72041,-8.08881 0.7204,-6.09829 0.72041,-3.29284 0.72039,0.009 0.72073,3.43196 0.72041,6.57569 0.72042,9.07719 0.72039,10.64958 0.72072,11.11559 0.7204,10.42978 0.72043,8.68125 0.7204,6.08135 0.72039,2.93614 0.72075,-0.39424 0.72039,-3.53742 0.72042,-6.15621 0.72039,-7.98723 0.72042,-8.86904 0.72072,-8.75876 0.7204,-7.72964 0.72041,-5.95914 0.7204,-3.69831 0.72072,-1.23858 0.72043,1.12776 0.72038,3.14553 0.72041,4.62508 0.7204,5.46247 0.72074,5.64705 0.72041,5.25482 0.72038,4.4307 0.72041,3.36187 0.72042,2.24922 0.72072,1.27374 0.72041,0.57342 0.7204,0.22322 0.72041,0.22878 0.72073,0.53004 0.72041,1.01326 0.72039,1.5364 0.72042,1.95003 0.72039,2.12731 0.72073,1.98442 0.72041,1.49463 0.7204,0.6964 0.72041,-0.31448 0.72074,-1.397 0.7204,-2.38807 0.72039,-3.12651 0.7204,-3.48063 0.72043,-3.36984 0.72072,-2.77817 0.7204,-1.76252 0.72041,-0.44434 0.7204,1.00291 0.72041,2.37909 0.72072,3.48194 0.7204,4.13893 0.72041,4.22972 0.7204,3.7065 0.72072,2.60124 0.72043,1.02489 0.72038,-0.84609 0.72043,-2.79273 0.72039,-4.5801 0.72074,-5.98853 0.7204,-6.84258 0.72039,-7.03374 0.72042,-6.53414 0.72074,-5.40082 0.72039,-3.76788 0.72042,-1.82734 0.72037,0.19335 0.72044,2.06299 0.72072,3.57531 0.72039,4.57349 0.72042,4.97 0.7204,4.75442 0.72041,3.99163 0.72072,2.81046 0.72039,1.38486 0.72044,-0.0931 0.72038,-1.43828 0.72041,-2.49651 0.72074,-3.1643 0.72038,-3.40026 0.72043,-3.2246 0.7204,-2.71445 0.7207,-1.98628 0.72043,-1.17962 0.7204,-0.42926 0.72042,0.14979 0.72039,0.48242 0.72072,0.54221 0.72042,0.35281 0.72039,-0.0189 0.72042,-0.47582 0.72072,-0.90826 0.72039,-1.21291 0.72042,-1.31263"
       inkscape:connector-curvature="0"
       inkscape:export-filename="/home/cyd/jupyter/MH2801/img/path4171-7-5.png"
       inkscape:export-xdpi="140.10046"
       inkscape:export-ydpi="140.10046" />
    <path
       id="path3226-7-5"
       style="fill:none;stroke:#12486d;stroke-width:1;stroke-linecap:round;stroke-linejoin:round;stroke-miterlimit:10;stroke-dasharray:none;stroke-opacity:1"
       d="m 467.51454,404.27477 0.72037,-1.16983 0.72053,-0.79134 0.72054,-0.23143 0.72034,0.42 0.72056,1.04871 0.72052,1.53823 0.72037,1.78769 0.72055,1.73157 0.72048,1.35127 0.72041,0.68343 0.72052,-0.18514 0.72058,-1.12485 0.72041,-1.98338 0.72039,-2.60654 0.72042,-2.86149 0.72041,-2.65912 0.72072,-1.9686 0.7204,-0.82677 0.72042,0.66383 0.72039,2.34549 0.72072,4.0239 0.72041,5.49422 0.72041,6.56534 0.72041,7.09063 0.72039,6.98406 0.72073,6.23527 0.72043,4.91495 0.72039,3.16194 0.7204,1.17174 0.72041,-0.83107 0.72072,-2.6216 0.7204,-4.00272 0.72041,-4.83037 0.72042,-5.0321 0.72072,-4.61608 0.72039,-3.66767 0.72042,-2.33754 0.72042,-0.81989 0.72039,0.67495 0.72072,1.94822 0.72041,2.8411 0.7204,3.25426 0.72041,3.16037 0.72073,2.60651 0.72039,1.7033 0.72041,0.60964 0.7204,-0.49353 0.72042,-1.43115 0.72072,-2.0577 0.7204,-2.28119 0.72043,-2.07438 0.7204,-1.47928 0.72039,-0.59932 0.72072,0.41631 0.7204,1.39754 0.72043,2.17698 0.7204,2.61974 0.72072,2.64249 0.72041,2.22726 0.7204,1.4269 0.72042,0.356 0.72041,-0.8244 0.7207,-1.93155 0.72044,-2.78796 0.72039,-3.25106 0.7204,-3.23573 0.72041,-2.72847 0.72072,-1.79375 0.72042,-0.56784 0.72041,0.76199 0.7204,1.97914 0.72073,2.87391 0.7204,3.2712 0.72041,3.06088 0.7204,2.21747 0.72041,0.80669 0.72072,-1.01802 0.7204,-3.03285 0.72041,-4.97209 0.7204,-6.56351 0.72072,-7.56539 0.72041,-7.80287 0.72042,-7.19355 0.72039,-5.76291 0.7204,-3.64726 0.72072,-1.07887 0.72043,1.64247 0.7204,4.18286 0.72041,6.22181 0.7204,7.48975 0.72072,7.80896 0.72042,7.11656 0.72039,5.47644 0.72041,3.07548 0.72073,0.20102 0.72041,-2.79298 0.7204,-5.52938 0.72041,-7.65559 0.7204,-8.88727 0.72072,-9.04784 0.72043,-8.08881 0.72038,-6.09829 0.72041,-3.29284 0.7204,0.009 0.72074,3.43196 0.72041,6.57569 0.72038,9.07719 0.72041,10.64958 0.72074,11.11559 0.7204,10.42978 0.72041,8.68125 0.7204,6.08135 0.72041,2.93614 0.72073,-0.39424 0.7204,-3.53742 0.72041,-6.15621 0.7204,-7.98723 0.72041,-8.86904 0.72074,-8.75876 0.72038,-7.72964 0.72041,-5.95914 0.72042,-3.69831 0.72072,-1.23858 0.72041,1.12776 0.72038,3.14553 0.72043,4.62508 0.7204,5.46247 0.72072,5.64705 0.72041,5.25482 0.7204,4.4307 0.72041,3.36187 0.7204,2.24922 0.72074,1.27374 0.7204,0.57342 0.72041,0.22322 0.7204,0.22878 0.72072,0.53004 0.72041,1.01326 0.7204,1.5364 0.72041,1.95003 0.7204,2.12731 0.72072,1.98442 0.72041,1.49463 0.7204,0.6964 0.72043,-0.31448 0.72072,-1.397 0.72038,-2.38807 0.72043,-3.12651 0.7204,-3.48063 0.72041,-3.36984 0.72072,-2.77817 0.7204,-1.76252 0.72041,-0.44434 0.7204,1.00291 0.72041,2.37909 0.72075,3.48194 0.72037,4.13893 0.72044,4.22972 0.72038,3.7065 0.72072,2.60124 0.72043,1.02489 0.72038,-0.84609 0.72043,-2.79273 0.72038,-4.5801 0.72072,-5.98853 0.72044,-6.84258 0.72039,-7.03374 0.72041,-6.53414 0.72073,-5.40082 0.72039,-3.76788 0.72042,-1.82734 0.72039,0.19335 0.72042,2.06299 0.72072,3.57531 0.72039,4.57349 0.72042,4.97 0.7204,4.75442 0.72041,3.99163 0.72074,2.81046 0.72038,1.38486 0.72043,-0.0931 0.72038,-1.43828 0.72043,-2.49651 0.72073,-3.1643 0.7204,-3.40026 0.7204,-3.2246 0.72038,-2.71445 0.72072,-1.98628 0.72044,-1.17962 0.7204,-0.42926 0.72041,0.14979 0.7204,0.48242 0.72072,0.54221 0.72041,0.35281 0.7204,-0.0189 0.72041,-0.47582 0.72074,-0.90826 0.72038,-1.21291 0.72043,-1.31263"
       inkscape:connector-curvature="0"
       inkscape:export-filename="/home/cyd/jupyter/MH2801/img/path4171-7-5.png"
       inkscape:export-xdpi="140.10046"
       inkscape:export-ydpi="140.10046" />
    <g
       id="g4966"
       transform="matrix(1.9479052,0,0,1.9479053,85.068713,-167.81011)"
       inkscape:export-filename="/home/cyd/jupyter/MH2801/img/path4171-7-5.png"
       inkscape:export-xdpi="140.10046"
       inkscape:export-ydpi="140.10046"
       style="stroke-width:0.801667">
      <g
         id="g4968"
         transform="matrix(0.15394191,0,0,-0.15394191,-26.939835,338.40843)"
         xml:space="preserve"
         stroke-miterlimit="10.433"
         font-style="normal"
         font-variant="normal"
         font-weight="normal"
         font-stretch="normal"
         font-size-adjust="none"
         letter-spacing="normal"
         word-spacing="normal"
         style="font-style:normal;font-variant:normal;font-weight:normal;font-stretch:normal;letter-spacing:normal;word-spacing:normal;text-anchor:start;fill:none;fill-opacity:1;fill-rule:evenodd;stroke:#000000;stroke-width:0.890743;stroke-linecap:butt;stroke-linejoin:miter;stroke-miterlimit:10.433;stroke-dasharray:none;stroke-dashoffset:0;stroke-opacity:1"><path
           d="m 473.8,426.12 h 4.28 c 1,0 1.5,0 1.5,1 0,0.55 -0.5,0.55 -1.34,0.55 h -4.14 l 1.04,5.69 c 0.21,1.04 0.91,4.57 1.21,5.17 0.45,0.95 1.29,1.7 2.34,1.7 0.19,0 1.49,0 2.44,-0.91 -2.19,-0.18 -2.69,-1.93 -2.69,-2.68 0,-1.14 0.89,-1.74 1.85,-1.74 1.29,0 2.73,1.1 2.73,2.99 0,2.29 -2.3,3.43 -4.33,3.43 -1.7,0 -4.84,-0.89 -6.33,-5.82 -0.29,-1.05 -0.45,-1.55 -1.64,-7.83 h -3.43 c -0.96,0 -1.5,0 -1.5,-0.94 0,-0.61 0.45,-0.61 1.39,-0.61 h 3.29 l -3.75,-19.67 c -0.89,-4.83 -1.73,-9.38 -4.33,-9.38 -0.2,0 -1.43,0 -2.39,0.91 2.3,0.14 2.74,1.94 2.74,2.69 0,1.14 -0.89,1.75 -1.85,1.75 -1.29,0 -2.73,-1.1 -2.73,-3 0,-2.24 2.19,-3.44 4.23,-3.44 2.74,0 4.74,2.94 5.63,4.84 1.59,3.14 2.75,9.16 2.8,9.52 z"
           id="path4970"
           inkscape:connector-curvature="0"
           style="fill:#000000;stroke-width:0" /><path
           d="m 501.77,394.25 v 0.02 l -0.01,0.03 v 0.01 0.02 0.01 l -0.01,0.02 v 0.01 l -0.01,0.02 -0.01,0.02 -0.01,0.02 -0.01,0.02 -0.01,0.03 -0.02,0.02 -0.02,0.03 -0.02,0.03 -0.02,0.03 -0.03,0.03 -0.03,0.04 -0.02,0.02 -0.01,0.02 -0.02,0.02 -0.02,0.02 -0.02,0.02 -0.02,0.03 -0.02,0.02 -0.02,0.02 -0.02,0.03 -0.03,0.02 -0.02,0.03 -0.03,0.03 -0.02,0.03 -0.03,0.03 -0.03,0.03 -0.03,0.03 -0.03,0.03 -0.03,0.03 -0.04,0.04 -0.03,0.03 -0.03,0.04 -0.04,0.03 -0.04,0.04 -0.04,0.04 c -6.22,6.28 -7.81,15.69 -7.81,23.31 0,8.67 1.89,17.35 8.01,23.56 0.65,0.61 0.65,0.71 0.65,0.86 0,0.35 -0.19,0.49 -0.49,0.49 -0.5,0 -4.98,-3.38 -7.92,-9.7 -2.55,-5.49 -3.14,-11.02 -3.14,-15.21 0,-3.89 0.55,-9.9 3.28,-15.54 2.98,-6.13 7.28,-9.36 7.78,-9.36 0.3,0 0.49,0.14 0.49,0.5 z"
           id="path4972"
           inkscape:connector-curvature="0"
           style="fill:#000000;stroke-width:0" /><path
           d="m 521.24,421.25 0.03,0.13 0.03,0.15 0.05,0.16 0.04,0.18 0.05,0.19 0.06,0.21 0.07,0.22 0.07,0.22 0.08,0.23 0.09,0.24 0.09,0.25 0.11,0.24 0.11,0.25 0.12,0.25 0.13,0.25 0.14,0.25 0.14,0.24 0.16,0.24 0.17,0.23 0.17,0.22 0.19,0.22 0.2,0.2 0.21,0.19 0.22,0.18 0.23,0.16 0.25,0.14 0.12,0.07 0.13,0.06 0.14,0.05 0.13,0.05 0.14,0.05 0.14,0.04 0.15,0.03 0.15,0.03 0.15,0.02 0.15,0.02 0.16,0.01 h 0.17 c 0.25,0 1.43,0 2.48,-0.64 -1.39,-0.25 -2.39,-1.5 -2.39,-2.69 0,-0.79 0.55,-1.75 1.89,-1.75 1.09,0 2.69,0.89 2.69,2.89 0,2.6 -2.94,3.28 -4.63,3.28 -2.89,0 -4.64,-2.64 -5.23,-3.78 -1.25,3.28 -3.94,3.78 -5.38,3.78 -5.18,0 -8.03,-6.42 -8.03,-7.67 0,-0.5 0.5,-0.5 0.61,-0.5 0.39,0 0.55,0.11 0.64,0.55 1.69,5.28 4.99,6.53 6.67,6.53 0.96,0 2.69,-0.44 2.69,-3.33 0,-1.54 -0.84,-4.89 -2.69,-11.86 -0.79,-3.09 -2.53,-5.18 -4.73,-5.18 -0.3,0 -1.44,0 -2.48,0.65 1.25,0.24 2.34,1.28 2.34,2.69 0,1.34 -1.09,1.73 -1.84,1.73 -1.5,0 -2.75,-1.29 -2.75,-2.89 0,-2.28 2.5,-3.28 4.68,-3.28 3.3,0 5.08,3.49 5.24,3.78 0.59,-1.84 2.39,-3.78 5.37,-3.78 5.14,0 7.99,6.42 7.99,7.67 0,0.5 -0.46,0.5 -0.61,0.5 -0.44,0 -0.55,-0.2 -0.64,-0.54 -1.64,-5.33 -5.04,-6.53 -6.63,-6.53 -1.95,0 -2.75,1.59 -2.75,3.29 0,1.1 0.3,2.19 0.86,4.38 z"
           id="path4974"
           inkscape:connector-curvature="0"
           style="fill:#000000;stroke-width:0" /><path
           d="m 547.43,418.65 -0.01,0.37 v 0.39 l -0.01,0.39 -0.01,0.41 -0.04,0.84 -0.06,0.88 -0.08,0.92 -0.11,0.95 -0.14,0.97 -0.16,1.01 -0.2,1.02 -0.23,1.03 -0.26,1.05 -0.31,1.06 -0.35,1.07 -0.39,1.07 -0.21,0.53 -0.23,0.53 -0.24,0.53 -0.24,0.53 c -2.99,6.12 -7.27,9.36 -7.77,9.36 -0.3,0 -0.5,-0.19 -0.5,-0.49 0,-0.15 0,-0.25 0.94,-1.15 4.89,-4.92 7.73,-12.85 7.73,-23.27 0,-8.51 -1.84,-17.28 -8.03,-23.56 -0.64,-0.59 -0.64,-0.7 -0.64,-0.84 0,-0.3 0.2,-0.5 0.5,-0.5 0.5,0 4.97,3.39 7.92,9.71 2.53,5.47 3.13,11 3.13,15.19 z"
           id="path4976"
           inkscape:connector-curvature="0"
           style="fill:#000000;stroke-width:0" /></g>
    </g>
    <g
       id="g5054"
       transform="matrix(1.8396882,0,0,1.8396882,290.69265,-142.11425)"
       inkscape:export-filename="/home/cyd/jupyter/MH2801/img/path4171-7-5.png"
       inkscape:export-xdpi="140.10046"
       inkscape:export-ydpi="140.10046"
       style="stroke-width:0.848823">
      <g
         word-spacing="normal"
         letter-spacing="normal"
         font-size-adjust="none"
         font-stretch="normal"
         font-weight="normal"
         font-variant="normal"
         font-style="normal"
         stroke-miterlimit="10.433"
         xml:space="preserve"
         transform="matrix(0.15394191,0,0,-0.15394191,-26.939835,338.40843)"
         id="g5056"
         style="font-style:normal;font-variant:normal;font-weight:normal;font-stretch:normal;letter-spacing:normal;word-spacing:normal;text-anchor:start;fill:none;fill-opacity:1;fill-rule:evenodd;stroke:#000000;stroke-width:0.998615;stroke-linecap:butt;stroke-linejoin:miter;stroke-miterlimit:10.433;stroke-dasharray:none;stroke-dashoffset:0;stroke-opacity:1"><path
           id="path5058"
           d="m 466.83,421.95 -0.15,1.28 v 13.45 c 0,1.66 0.11,2 2.43,2 h 4.44 c 7.92,0 7.92,-5.28 7.92,-7.72 0,-2.34 0,-7.73 -7.92,-7.73 h -6.87 l 0.15,-1.28 h 8.42 c 5.97,0 11.36,4.03 11.36,9.01 0,4.88 -4.93,9.27 -11.76,9.27 h -17.58 v -1.55 h 1.19 c 3.84,0 3.93,-0.54 3.93,-2.34 v -26.25 c 0,-1.8 -0.09,-2.34 -3.93,-2.34 h -1.19 v -1.55 c 1.73,0.16 5.42,0.16 7.31,0.16 1.89,0 5.64,0 7.38,-0.16 v 1.55 h -1.19 c -3.84,0 -3.94,0.54 -3.94,2.34 z"
           inkscape:connector-curvature="0"
           style="fill:#000000;stroke-width:0" /><path
           id="path5060"
           d="m 493.57,417.71 0.04,1.05 c 0.3,7.42 4.49,8.66 6.19,8.66 5.13,0 5.63,-6.72 5.63,-8.66 h -11.82 l -0.04,-1.05 h 13.9 c 1.1,0 1.24,0 1.24,1.05 0,4.92 -2.69,9.75 -8.91,9.75 -5.78,0 -10.37,-5.12 -10.37,-11.36 0,-6.67 5.23,-11.5 10.96,-11.5 6.08,0 8.32,5.53 8.32,6.47 0,0.5 -0.39,0.61 -0.64,0.61 -0.46,0 -0.55,-0.3 -0.66,-0.7 -1.73,-5.13 -6.22,-5.13 -6.72,-5.13 -2.5,0 -4.48,1.49 -5.62,3.33 -1.5,2.39 -1.5,5.69 -1.5,7.48 z"
           inkscape:connector-curvature="0"
           style="fill:#000000;stroke-width:0" /><path
           id="path5062"
           d="m 518.43,422.75 v 5.46 l -6.93,-0.54 v -1.55 c 3.49,0 3.9,-0.34 3.9,-2.78 v -13.36 c 0,-2.23 -0.55,-2.23 -3.9,-2.23 v -1.55 c 1.96,0.05 4.28,0.16 5.69,0.16 1.99,0 4.33,0 6.33,-0.16 v 1.55 h -1.05 c -3.69,0 -3.79,0.54 -3.79,2.34 v 7.67 c 0,4.92 2.09,9.36 5.89,9.36 0.34,0 0.43,0 0.54,-0.05 -0.15,-0.04 -1.15,-0.64 -1.15,-1.93 0,-1.41 1.04,-2.14 2.15,-2.14 0.89,0 2.14,0.59 2.14,2.18 0,1.6 -1.54,3.03 -3.68,3.03 -3.64,0 -5.44,-3.32 -6.14,-5.46 z"
           inkscape:connector-curvature="0"
           style="fill:#000000;stroke-width:0" /><path
           id="path5064"
           d="m 538.48,428.21 -6.96,-0.54 v -1.55 c 3.23,0 3.68,-0.3 3.68,-2.73 v -13.41 c 0,-2.23 -0.54,-2.23 -3.89,-2.23 v -1.55 c 1.6,0.05 4.28,0.16 5.49,0.16 1.75,0 3.48,-0.11 5.18,-0.16 v 1.55 c -3.29,0 -3.5,0.25 -3.5,2.18 z"
           inkscape:connector-curvature="0"
           style="fill:#000000;stroke-width:0" /><path
           id="path5066"
           d="m 538.69,436.89 -0.01,0.14 -0.01,0.15 -0.01,0.14 -0.03,0.14 -0.03,0.13 -0.04,0.13 -0.04,0.13 -0.05,0.12 -0.05,0.12 -0.06,0.12 -0.07,0.11 -0.07,0.1 -0.08,0.1 -0.08,0.1 -0.08,0.1 -0.09,0.08 -0.09,0.09 -0.1,0.08 -0.1,0.07 -0.11,0.07 -0.1,0.07 -0.11,0.06 -0.12,0.05 -0.11,0.05 -0.12,0.04 -0.12,0.04 -0.13,0.03 -0.12,0.03 -0.13,0.02 -0.12,0.01 -0.13,0.01 -0.13,0.01 c -1.55,0 -2.64,-1.35 -2.64,-2.64 0,-1.35 1.09,-2.64 2.64,-2.64 1.39,0 2.64,1.04 2.64,2.64 z"
           inkscape:connector-curvature="0"
           style="fill:#000000;stroke-width:0" /><path
           id="path5068"
           d="m 566.94,416.86 -0.02,0.59 -0.04,0.59 -0.07,0.58 -0.1,0.57 -0.12,0.56 -0.15,0.55 -0.18,0.54 -0.2,0.53 -0.22,0.51 -0.24,0.5 -0.27,0.49 -0.29,0.47 -0.31,0.46 -0.32,0.44 -0.35,0.43 -0.37,0.4 -0.38,0.39 -0.4,0.37 -0.42,0.35 -0.43,0.32 -0.45,0.31 -0.46,0.28 -0.48,0.26 -0.48,0.24 -0.5,0.21 -0.51,0.18 -0.52,0.16 -0.53,0.13 -0.54,0.11 -0.55,0.07 -0.56,0.05 -0.56,0.01 -0.04,-1.09 c 2.18,0 4.32,-1.1 5.62,-3.24 1.3,-2.14 1.3,-5.03 1.3,-6.92 0,-1.8 0,-4.48 -1.1,-6.67 -1.09,-2.25 -3.28,-3.69 -5.78,-3.69 v 0 c -2.14,0 -4.33,1.05 -5.67,3.33 -1.25,2.2 -1.25,5.23 -1.25,7.03 0,1.94 0,4.63 1.19,6.83 1.36,2.28 3.69,3.33 5.69,3.33 l 0.04,1.09 c -6.22,0 -11.06,-5.42 -11.06,-11.65 0,-6.43 5.19,-11.21 11.02,-11.21 6.03,0 11.06,4.88 11.06,11.21 z"
           inkscape:connector-curvature="0"
           style="fill:#000000;stroke-width:0" /><path
           id="path5070"
           d="m 588.8,408.93 v -3.28 l 7.32,0.55 v 1.55 c -3.49,0 -3.88,0.34 -3.88,2.78 v 30.25 l -7.17,-0.55 v -1.55 c 3.48,0 3.88,-0.34 3.88,-2.79 v -10.75 c -1.44,1.78 -3.58,3.07 -6.29,3.07 l 0.21,-1.09 c 1.75,0 3.84,-0.75 5.39,-2.98 0.54,-0.85 0.54,-0.96 0.54,-1.85 v 0 -10.22 c 0,-0.89 0,-1 -0.54,-1.84 -1.5,-2.39 -3.75,-3.48 -5.89,-3.48 -2.24,0 -4.03,1.29 -5.22,3.18 -1.3,2.05 -1.45,4.89 -1.45,6.93 0,1.84 0.09,4.84 1.54,7.07 1.05,1.55 2.94,3.19 5.63,3.19 l -0.21,1.09 c -5.87,0 -11.11,-4.87 -11.11,-11.29 0,-6.33 4.9,-11.27 10.57,-11.27 3.18,0 5.43,1.69 6.68,3.28 z"
           inkscape:connector-curvature="0"
           style="fill:#000000;stroke-width:0" /><path
           id="path5072"
           d="m 632.72,425.03 -0.08,0.17 -0.09,0.17 -0.09,0.16 -0.1,0.16 -0.1,0.16 -0.1,0.16 -0.1,0.15 -0.11,0.14 -0.12,0.15 -0.11,0.13 -0.12,0.14 -0.13,0.13 -0.13,0.12 -0.13,0.12 -0.13,0.11 -0.14,0.11 -0.15,0.11 -0.14,0.09 -0.15,0.1 -0.16,0.08 -0.16,0.08 -0.16,0.08 -0.17,0.06 -0.17,0.07 -0.18,0.05 -0.18,0.05 -0.18,0.04 -0.19,0.03 -0.2,0.03 -0.2,0.02 -0.2,0.01 h -0.2 l 0.04,-1.09 c 3.24,0 3.94,-4.08 3.94,-4.37 0,-0.32 -0.1,-0.61 -0.14,-0.86 l -2.5,-9.77 c -0.25,-0.89 -0.25,-0.98 -1,-1.84 -2.19,-2.74 -4.24,-3.53 -5.63,-3.53 -2.48,0 -3.18,2.73 -3.18,4.68 0,2.49 1.59,8.61 2.73,10.91 1.55,2.94 3.8,4.78 5.78,4.78 l -0.04,1.09 c -5.83,0 -12,-7.31 -12,-14.59 0,-4.69 2.73,-7.97 6.62,-7.97 0.98,0 3.48,0.21 6.47,3.74 0.41,-2.1 2.14,-3.74 4.53,-3.74 1.75,0 2.89,1.14 3.69,2.74 0.84,1.79 1.5,4.84 1.5,4.93 0,0.5 -0.46,0.5 -0.6,0.5 -0.5,0 -0.54,-0.2 -0.7,-0.9 -0.84,-3.24 -1.75,-6.17 -3.78,-6.17 -1.35,0 -1.5,1.29 -1.5,2.29 0,1.1 0.09,1.49 0.64,3.69 0.56,2.09 0.66,2.59 1.11,4.48 l 1.78,6.97 c 0.36,1.39 0.36,1.5 0.36,1.69 0,0.86 -0.61,1.36 -1.45,1.36 -1.19,0 -1.94,-1.11 -2.1,-2.2 z"
           inkscape:connector-curvature="0"
           style="fill:#000000;stroke-width:0" /></g>
    </g>
    <path
       sodipodi:nodetypes="cc"
       inkscape:connector-curvature="0"
       id="path4171-7"
       d="m 436.05392,361.61 h 29.11787"
       style="fill:none;stroke:#000000;stroke-width:0.88774;stroke-linecap:butt;stroke-linejoin:miter;stroke-miterlimit:3.85;stroke-dasharray:none;stroke-opacity:1;marker-end:url(#Arrow2MendE6p5-3)"
       inkscape:export-filename="/home/cyd/jupyter/MH2801/img/path4171-7-5.png"
       inkscape:export-xdpi="140.10046"
       inkscape:export-ydpi="140.10046" />
    <path
       sodipodi:nodetypes="cc"
       inkscape:connector-curvature="0"
       id="path4171-7-5"
       d="M 356.12513,361.58314 H 326.93766"
       style="fill:none;stroke:#000000;stroke-width:0.88774;stroke-linecap:butt;stroke-linejoin:miter;stroke-miterlimit:3.85;stroke-dasharray:none;stroke-opacity:1;marker-end:url(#Arrow2MendE6p5-3-5)"
       inkscape:export-filename="/home/cyd/jupyter/MH2801/img/path4171-7-5.png"
       inkscape:export-xdpi="140.10046"
       inkscape:export-ydpi="140.10046" />
  </g>
</svg>
