<?xml version="1.0" encoding="UTF-8" standalone="no"?>
<svg
   xmlns:dc="http://purl.org/dc/elements/1.1/"
   xmlns:cc="http://creativecommons.org/ns#"
   xmlns:rdf="http://www.w3.org/1999/02/22-rdf-syntax-ns#"
   xmlns:svg="http://www.w3.org/2000/svg"
   xmlns="http://www.w3.org/2000/svg"
   xmlns:sodipodi="http://sodipodi.sourceforge.net/DTD/sodipodi-0.dtd"
   xmlns:inkscape="http://www.inkscape.org/namespaces/inkscape"
   width="345.93646"
   height="107.75771"
   id="svg2"
   version="1.1"
   inkscape:version="1.0 (4035a4fb49, 2020-05-01)"
   sodipodi:docname="periodic_ring.svg"
   inkscape:export-filename="/home/cyd/jupyter/MH2801/img/periodic_ring.png"
   inkscape:export-xdpi="110"
   inkscape:export-ydpi="110">
  <sodipodi:namedview
     id="base"
     pagecolor="#ffffff"
     bordercolor="#666666"
     borderopacity="1.0"
     inkscape:pageopacity="0.0"
     inkscape:pageshadow="2"
     inkscape:zoom="1"
     inkscape:cx="228.33404"
     inkscape:cy="43.934917"
     inkscape:document-units="px"
     inkscape:current-layer="layer1"
     showgrid="false"
     inkscape:window-width="1920"
     inkscape:window-height="1026"
     inkscape:window-x="0"
     inkscape:window-y="0"
     inkscape:window-maximized="1"
     fit-margin-top="0"
     fit-margin-left="0"
     fit-margin-right="0"
     fit-margin-bottom="0"
     inkscape:document-rotation="0" />
  <defs
     id="defs4">
    <marker
       inkscape:stockid="Arrow2Mend"
       orient="auto"
       refY="0"
       refX="0"
       id="Arrow2Mend"
       style="overflow:visible">
      <path
         inkscape:connector-curvature="0"
         id="path4980"
         style="fill-rule:evenodd;stroke-width:0.625;stroke-linejoin:round"
         d="M 8.7185878,4.0337352 -2.2072895,0.01601326 8.7185884,-4.0017078 c -1.7454984,2.3720609 -1.7354408,5.6174519 -6e-7,8.035443 z"
         transform="scale(-0.6)" />
    </marker>
    <marker
       inkscape:stockid="Arrow2MendE"
       orient="auto"
       refY="0"
       refX="0"
       id="Arrow2MendE"
       style="overflow:visible">
      <path
         inkscape:connector-curvature="0"
         id="path5398"
         style="fill:#175217;fill-rule:evenodd;stroke:#175217;stroke-width:0.625;stroke-linejoin:round"
         d="M 8.7185878,4.0337352 -2.2072895,0.01601326 8.7185884,-4.0017078 c -1.7454984,2.3720609 -1.7354408,5.6174519 -6e-7,8.035443 z"
         transform="scale(-0.6)" />
    </marker>
    <marker
       inkscape:stockid="Arrow2MendU"
       orient="auto"
       refY="0"
       refX="0"
       id="Arrow2MendU"
       style="overflow:visible">
      <path
         inkscape:connector-curvature="0"
         id="path5781"
         style="fill:#175217;fill-rule:evenodd;stroke:#175217;stroke-width:0.625;stroke-linejoin:round"
         d="M 8.7185878,4.0337352 -2.2072895,0.01601326 8.7185884,-4.0017078 c -1.7454984,2.3720609 -1.7354408,5.6174519 -6e-7,8.035443 z"
         transform="scale(-0.6)" />
    </marker>
    <marker
       inkscape:stockid="Arrow2MendE6"
       orient="auto"
       refY="0"
       refX="0"
       id="Arrow2MendE6"
       style="overflow:visible">
      <path
         inkscape:connector-curvature="0"
         id="path4217"
         style="fill:#294029;fill-rule:evenodd;stroke:#294029;stroke-width:0.625;stroke-linejoin:round"
         d="M 8.7185878,4.0337352 -2.2072895,0.01601326 8.7185884,-4.0017078 c -1.7454984,2.3720609 -1.7354408,5.6174519 -6e-7,8.035443 z"
         transform="scale(-0.6)" />
    </marker>
    <marker
       inkscape:stockid="Arrow2MendE6"
       orient="auto"
       refY="0"
       refX="0"
       id="Arrow2MendE6-5"
       style="overflow:visible">
      <path
         inkscape:connector-curvature="0"
         id="path4217-5"
         style="fill:#294029;fill-rule:evenodd;stroke:#294029;stroke-width:0.625;stroke-linejoin:round"
         d="M 8.7185878,4.0337352 -2.2072895,0.01601326 8.7185884,-4.0017078 c -1.7454984,2.3720609 -1.7354408,5.6174519 -6e-7,8.035443 z"
         transform="scale(-0.6)" />
    </marker>
    <marker
       inkscape:stockid="Arrow2MendE6s"
       orient="auto"
       refY="0"
       refX="0"
       id="Arrow2MendE6s"
       style="overflow:visible">
      <path
         inkscape:connector-curvature="0"
         id="path7331"
         style="fill:#3a5b3a;fill-rule:evenodd;stroke:#3a5b3a;stroke-width:0.625;stroke-linejoin:round"
         d="M 8.7185878,4.0337352 -2.2072895,0.01601326 8.7185884,-4.0017078 c -1.7454984,2.3720609 -1.7354408,5.6174519 -6e-7,8.035443 z"
         transform="scale(-0.6)" />
    </marker>
    <marker
       inkscape:stockid="Arrow2MendE6p"
       orient="auto"
       refY="0"
       refX="0"
       id="Arrow2MendE6p"
       style="overflow:visible">
      <path
         inkscape:connector-curvature="0"
         id="path7462"
         style="fill:#3a5b3a;fill-rule:evenodd;stroke:#3a5b3a;stroke-width:0.625;stroke-linejoin:round"
         d="M 8.7185878,4.0337352 -2.2072895,0.01601326 8.7185884,-4.0017078 c -1.7454984,2.3720609 -1.7354408,5.6174519 -6e-7,8.035443 z"
         transform="scale(-0.6)" />
    </marker>
    <marker
       inkscape:stockid="Arrow2MendE6p3036"
       orient="auto"
       refY="0"
       refX="0"
       style="overflow:visible"
       id="Arrow2MendE6p3036">
      <path
         inkscape:connector-curvature="0"
         id="path2906"
         style="fill:#000000;fill-rule:evenodd;stroke:#000000;stroke-width:0.625;stroke-linejoin:round;stroke-opacity:1.0;fill-opacity:1.0"
         d="M 8.7185878,4.0337352 -2.2072895,0.01601326 8.7185884,-4.0017078 c -1.7454984,2.3720609 -1.7354408,5.6174519 -6e-7,8.035443 z"
         transform="scale(-0.6)" />
    </marker>
    <marker
       inkscape:stockid="Arrow2MendE6s3920"
       orient="auto"
       refY="0"
       refX="0"
       style="overflow:visible"
       id="Arrow2MendE6s3920">
      <path
         inkscape:connector-curvature="0"
         id="path3042"
         style="fill:#000000;fill-rule:evenodd;stroke:#000000;stroke-width:0.625;stroke-linejoin:round;stroke-opacity:1.0;fill-opacity:1.0"
         d="M 8.7185878,4.0337352 -2.2072895,0.01601326 8.7185884,-4.0017078 c -1.7454984,2.3720609 -1.7354408,5.6174519 -6e-7,8.035443 z"
         transform="scale(-0.6)" />
    </marker>
  </defs>
  <metadata
     id="metadata7">
    <rdf:RDF>
      <cc:Work
         rdf:about="">
        <dc:format>image/svg+xml</dc:format>
        <dc:type
           rdf:resource="http://purl.org/dc/dcmitype/StillImage" />
        <dc:title></dc:title>
      </cc:Work>
    </rdf:RDF>
  </metadata>
  <g
     transform="translate(-297.05833,-364.60268)"
     inkscape:label="Layer 1"
     inkscape:groupmode="layer"
     id="layer1">
    <path
       style="fill:none;stroke:#4f4f4f;stroke-width:1.004;stroke-linecap:butt;stroke-linejoin:miter;stroke-miterlimit:10;stroke-dasharray:1.004, 2.00800000000000001;stroke-dashoffset:0;stroke-opacity:1"
       d="m 568.95539,443.98085 c 0.01,-7.58461 3.45815,-12.6084 6.31571,-15.98951 7.96389,-8.43841 17.04958,-11.0346 25.89061,-12.12774 10.23957,-0.71304 20.71846,0.87661 30.43789,7.96547 4.16407,3.5256 9.23507,7.82872 10.69883,17.45396"
       id="path4603-7"
       inkscape:connector-curvature="0" />
    <path
       style="fill:none;stroke:#000000;stroke-width:1.2;stroke-linecap:butt;stroke-linejoin:miter;stroke-miterlimit:3.85;stroke-dasharray:none;stroke-opacity:1;marker-end:url(#Arrow2MendE6p3036)"
       d="m 310.52865,439.49901 191.56268,0"
       id="path4171"
       inkscape:connector-curvature="0"
       sodipodi:nodetypes="cc" />
    <path
       sodipodi:nodetypes="cc"
       inkscape:connector-curvature="0"
       id="path5418"
       d="m 478.58306,392.06795 v 48.01254"
       style="fill:none;stroke:#000000;stroke-width:1;stroke-linecap:butt;stroke-linejoin:miter;stroke-miterlimit:4;stroke-dasharray:3, 3;stroke-dashoffset:0;stroke-opacity:1" />
    <g
       id="g5546"
       transform="matrix(0.24192,0,0,0.24192,225.40168,369.86124)"
       style="stroke-width:1.38889">
      <g
         word-spacing="normal"
         letter-spacing="normal"
         font-size-adjust="none"
         font-stretch="normal"
         font-weight="normal"
         font-variant="normal"
         font-style="normal"
         stroke-miterlimit="10.433"
         xml:space="preserve"
         transform="matrix(1.0629921,0,0,-1.0629921,-186.02362,789.27165)"
         id="g5548"
         style="font-style:normal;font-variant:normal;font-weight:normal;font-stretch:normal;letter-spacing:normal;word-spacing:normal;text-anchor:start;fill:none;stroke:#000000;stroke-width:1.73611;stroke-linecap:butt;stroke-linejoin:miter;stroke-miterlimit:10.433;stroke-dasharray:none;stroke-dashoffset:0;stroke-opacity:1"><path
           id="path5550"
           d="m 488.35,417.65 h 0.16 0.16 l 0.15,0.01 h 0.08 l 0.08,0.01 h 0.07 l 0.08,0.01 0.07,0.01 0.07,0.01 0.07,0.02 0.07,0.02 0.07,0.02 0.06,0.02 0.06,0.02 0.06,0.03 0.05,0.03 0.06,0.04 0.05,0.03 0.04,0.05 0.04,0.04 0.04,0.05 0.02,0.03 0.02,0.03 0.01,0.03 0.02,0.03 0.01,0.03 0.02,0.03 0.01,0.04 0.01,0.03 0.01,0.04 v 0.04 l 0.01,0.04 0.01,0.04 v 0.04 l 0.01,0.04 v 0.05 0.04 c 0,1 -0.91,1 -1.75,1 h -26.96 c -0.84,0 -1.73,0 -1.73,-1 0,-1 0.89,-1 1.73,-1 z"
           inkscape:connector-curvature="0"
           style="fill:#000000;stroke-width:0" /><path
           id="path5552"
           d="m 512.85,425.03 -0.08,0.17 -0.09,0.17 -0.09,0.16 -0.1,0.16 -0.09,0.16 -0.11,0.16 -0.1,0.15 -0.11,0.14 -0.11,0.15 -0.12,0.13 -0.12,0.14 -0.13,0.13 -0.12,0.12 -0.13,0.12 -0.14,0.11 -0.14,0.11 -0.14,0.11 -0.15,0.09 -0.15,0.1 -0.16,0.08 -0.16,0.08 -0.16,0.08 -0.17,0.06 -0.17,0.07 -0.18,0.05 -0.18,0.05 -0.18,0.04 -0.19,0.03 -0.19,0.03 -0.2,0.02 -0.21,0.01 h -0.2 l 0.04,-1.09 c 3.24,0 3.94,-4.08 3.94,-4.37 0,-0.32 -0.09,-0.61 -0.14,-0.86 l -2.5,-9.77 c -0.25,-0.89 -0.25,-0.98 -1,-1.84 -2.19,-2.74 -4.23,-3.53 -5.62,-3.53 -2.49,0 -3.19,2.73 -3.19,4.68 0,2.49 1.59,8.61 2.73,10.91 1.55,2.94 3.8,4.78 5.78,4.78 l -0.04,1.09 c -5.83,0 -12,-7.31 -12,-14.59 0,-4.69 2.73,-7.97 6.62,-7.97 0.99,0 3.49,0.21 6.47,3.74 0.41,-2.1 2.14,-3.74 4.53,-3.74 1.75,0 2.89,1.14 3.69,2.74 0.84,1.79 1.5,4.84 1.5,4.93 0,0.5 -0.45,0.5 -0.59,0.5 -0.5,0 -0.55,-0.2 -0.71,-0.9 -0.84,-3.24 -1.75,-6.17 -3.78,-6.17 -1.34,0 -1.5,1.29 -1.5,2.29 0,1.1 0.09,1.49 0.64,3.69 0.57,2.09 0.66,2.59 1.11,4.48 l 1.78,6.97 c 0.36,1.39 0.36,1.5 0.36,1.69 0,0.86 -0.61,1.36 -1.45,1.36 -1.19,0 -1.94,-1.11 -2.1,-2.2 z"
           inkscape:connector-curvature="0"
           style="fill:#000000;stroke-width:0" /><path
           id="path5554"
           d="m 542.43,441.67 0.01,0.03 0.01,0.03 0.01,0.03 0.01,0.03 0.01,0.02 0.01,0.03 0.01,0.03 0.01,0.02 0.02,0.05 0.02,0.05 0.01,0.04 0.01,0.05 0.02,0.04 0.01,0.04 0.01,0.03 0.01,0.04 0.01,0.03 0.01,0.03 v 0.03 l 0.01,0.02 v 0.03 l 0.01,0.02 v 0.02 l 0.01,0.02 v 0.02 0.02 0.01 l 0.01,0.02 v 0.01 0.01 0.01 0.01 0.01 0.01 0.01 0 c 0,0.55 -0.45,0.99 -1,0.99 -0.34,0 -0.7,-0.14 -0.84,-0.44 l -17.3,-47.48 c -0.25,-0.64 -0.25,-0.85 -0.25,-0.89 0,-0.55 0.45,-1 1,-1 0.66,0 0.8,0.34 1.09,1.18 z"
           inkscape:connector-curvature="0"
           style="fill:#000000;stroke-width:0" /><path
           id="path5556"
           d="m 551.84,410.04 5.28,5.13 c 7.77,6.87 10.77,9.56 10.77,14.54 0,5.69 -4.49,9.68 -10.57,9.68 -5.64,0 -9.32,-4.6 -9.32,-9.03 0,-2.79 2.5,-2.79 2.64,-2.79 0.86,0 2.59,0.6 2.59,2.64 0,1.3 -0.89,2.6 -2.64,2.6 -0.39,0 -0.5,0 -0.64,-0.05 1.14,3.24 3.83,5.08 6.72,5.08 4.53,0 6.68,-4.05 6.68,-8.13 0,-3.98 -2.5,-7.92 -5.23,-11.01 l -9.56,-10.66 C 548,407.5 548,407.4 548,406.2 h 18.48 l 1.41,8.67 h -1.25 c -0.25,-1.5 -0.6,-3.69 -1.1,-4.44 -0.36,-0.39 -3.64,-0.39 -4.73,-0.39 z"
           inkscape:connector-curvature="0"
           style="fill:#000000;stroke-width:0" /></g>
    </g>
    <path
       sodipodi:nodetypes="cc"
       inkscape:connector-curvature="0"
       id="path5418-8"
       d="m 313.73845,392.06795 v 48.01254"
       style="fill:none;stroke:#000000;stroke-width:1;stroke-linecap:butt;stroke-linejoin:miter;stroke-miterlimit:4;stroke-dasharray:3, 3;stroke-dashoffset:0;stroke-opacity:1" />
    <g
       id="g5453"
       transform="matrix(0.28441495,0,0,0.28441495,416.55325,349.75086)"
       style="stroke-width:1.18137">
      <g
         word-spacing="normal"
         letter-spacing="normal"
         font-size-adjust="none"
         font-stretch="normal"
         font-weight="normal"
         font-variant="normal"
         font-style="normal"
         stroke-miterlimit="10.433"
         xml:space="preserve"
         transform="matrix(1.0629921,0,0,-1.0629921,-186.02362,789.27165)"
         id="content"
         style="font-style:normal;font-variant:normal;font-weight:normal;font-stretch:normal;letter-spacing:normal;word-spacing:normal;text-anchor:start;fill:none;stroke:#000000;stroke-width:1.47672;stroke-linecap:butt;stroke-linejoin:miter;stroke-miterlimit:10.433;stroke-dasharray:none;stroke-dashoffset:0;stroke-opacity:1"><path
           id="path5456"
           d="m 472.16,421.25 0.03,0.13 0.04,0.15 0.04,0.16 0.04,0.18 0.06,0.19 0.06,0.21 0.06,0.22 0.07,0.22 0.08,0.23 0.09,0.24 0.1,0.25 0.1,0.24 0.11,0.25 0.12,0.25 0.13,0.25 0.14,0.25 0.15,0.24 0.15,0.24 0.17,0.23 0.18,0.22 0.18,0.22 0.2,0.2 0.21,0.19 0.22,0.18 0.23,0.16 0.25,0.14 0.12,0.07 0.13,0.06 0.14,0.05 0.13,0.05 0.14,0.05 0.14,0.04 0.15,0.03 0.15,0.03 0.15,0.02 0.16,0.02 0.16,0.01 h 0.16 c 0.25,0 1.44,0 2.48,-0.64 -1.39,-0.25 -2.39,-1.5 -2.39,-2.69 0,-0.79 0.55,-1.75 1.89,-1.75 1.1,0 2.69,0.89 2.69,2.89 0,2.6 -2.94,3.28 -4.63,3.28 -2.89,0 -4.64,-2.64 -5.23,-3.78 -1.25,3.28 -3.94,3.78 -5.37,3.78 -5.19,0 -8.04,-6.42 -8.04,-7.67 0,-0.5 0.5,-0.5 0.61,-0.5 0.39,0 0.55,0.11 0.64,0.55 1.69,5.28 4.99,6.53 6.68,6.53 0.95,0 2.68,-0.44 2.68,-3.33 0,-1.54 -0.84,-4.89 -2.68,-11.86 -0.8,-3.09 -2.54,-5.18 -4.74,-5.18 -0.3,0 -1.44,0 -2.48,0.65 1.25,0.24 2.34,1.28 2.34,2.69 0,1.34 -1.09,1.73 -1.84,1.73 -1.5,0 -2.75,-1.29 -2.75,-2.89 0,-2.28 2.5,-3.28 4.68,-3.28 3.3,0 5.08,3.49 5.24,3.78 0.59,-1.84 2.39,-3.78 5.37,-3.78 5.14,0 7.99,6.42 7.99,7.67 0,0.5 -0.45,0.5 -0.61,0.5 -0.44,0 -0.55,-0.2 -0.64,-0.54 -1.64,-5.33 -5.03,-6.53 -6.63,-6.53 -1.95,0 -2.75,1.59 -2.75,3.29 0,1.1 0.3,2.19 0.86,4.38 z"
           inkscape:connector-curvature="0"
           style="fill:#000000;stroke-width:0" /></g>
    </g>
    <g
       id="g5492"
       transform="matrix(0.24192,0,0,0.24192,394.13709,370.14408)"
       style="stroke-width:1.38889">
      <g
         id="g5494"
         transform="matrix(1.0629921,0,0,-1.0629921,-186.02362,789.27165)"
         xml:space="preserve"
         stroke-miterlimit="10.433"
         font-style="normal"
         font-variant="normal"
         font-weight="normal"
         font-stretch="normal"
         font-size-adjust="none"
         letter-spacing="normal"
         word-spacing="normal"
         style="font-style:normal;font-variant:normal;font-weight:normal;font-stretch:normal;letter-spacing:normal;word-spacing:normal;text-anchor:start;fill:none;stroke:#000000;stroke-width:1.73611;stroke-linecap:butt;stroke-linejoin:miter;stroke-miterlimit:10.433;stroke-dasharray:none;stroke-dashoffset:0;stroke-opacity:1"><path
           d="m 474.1,425.03 -0.09,0.17 -0.09,0.17 -0.09,0.16 -0.09,0.16 -0.1,0.16 -0.1,0.16 -0.11,0.15 -0.11,0.14 -0.11,0.15 -0.12,0.13 -0.12,0.14 -0.12,0.13 -0.13,0.12 -0.13,0.12 -0.14,0.11 -0.14,0.11 -0.14,0.11 -0.15,0.09 -0.15,0.1 -0.15,0.08 -0.16,0.08 -0.17,0.08 -0.17,0.06 -0.17,0.07 -0.17,0.05 -0.18,0.05 -0.19,0.04 -0.19,0.03 -0.19,0.03 -0.2,0.02 -0.2,0.01 h -0.21 l 0.05,-1.09 c 3.23,0 3.93,-4.08 3.93,-4.37 0,-0.32 -0.09,-0.61 -0.14,-0.86 l -2.5,-9.77 c -0.25,-0.89 -0.25,-0.98 -1,-1.84 -2.18,-2.74 -4.23,-3.53 -5.62,-3.53 -2.49,0 -3.19,2.73 -3.19,4.68 0,2.49 1.59,8.61 2.74,10.91 1.54,2.94 3.79,4.78 5.78,4.78 l -0.05,1.09 c -5.83,0 -12,-7.31 -12,-14.59 0,-4.69 2.73,-7.97 6.62,-7.97 0.99,0 3.49,0.21 6.47,3.74 0.41,-2.1 2.14,-3.74 4.53,-3.74 1.75,0 2.9,1.14 3.69,2.74 0.85,1.79 1.5,4.84 1.5,4.93 0,0.5 -0.45,0.5 -0.59,0.5 -0.5,0 -0.55,-0.2 -0.7,-0.9 -0.85,-3.24 -1.75,-6.17 -3.79,-6.17 -1.34,0 -1.5,1.29 -1.5,2.29 0,1.1 0.1,1.49 0.64,3.69 0.57,2.09 0.66,2.59 1.11,4.48 l 1.79,6.97 c 0.35,1.39 0.35,1.5 0.35,1.69 0,0.86 -0.6,1.36 -1.45,1.36 -1.19,0 -1.94,-1.11 -2.09,-2.2 z"
           id="path5496"
           inkscape:connector-curvature="0"
           style="fill:#000000;stroke-width:0" /><path
           d="m 503.67,441.67 0.01,0.03 0.01,0.03 0.02,0.03 0.01,0.03 0.01,0.02 0.01,0.03 0.01,0.03 v 0.02 l 0.02,0.05 0.02,0.05 0.01,0.04 0.02,0.05 0.01,0.04 0.01,0.04 0.01,0.03 0.01,0.04 0.01,0.03 0.01,0.03 v 0.03 l 0.01,0.02 0.01,0.03 v 0.02 l 0.01,0.02 v 0.02 0.02 0.02 l 0.01,0.01 v 0.02 0.01 0.01 0.01 0.01 0.01 0.01 0.01 0 c 0,0.55 -0.45,0.99 -1,0.99 -0.34,0 -0.7,-0.14 -0.84,-0.44 l -17.3,-47.48 c -0.25,-0.64 -0.25,-0.85 -0.25,-0.89 0,-0.55 0.45,-1 1,-1 0.66,0 0.8,0.34 1.09,1.18 z"
           id="path5498"
           inkscape:connector-curvature="0"
           style="fill:#000000;stroke-width:0" /><path
           d="m 513.08,410.04 5.28,5.13 c 7.77,6.87 10.77,9.56 10.77,14.54 0,5.69 -4.48,9.68 -10.56,9.68 -5.64,0 -9.33,-4.6 -9.33,-9.03 0,-2.79 2.5,-2.79 2.64,-2.79 0.86,0 2.59,0.6 2.59,2.64 0,1.3 -0.89,2.6 -2.64,2.6 -0.39,0 -0.5,0 -0.64,-0.05 1.14,3.24 3.83,5.08 6.72,5.08 4.53,0 6.69,-4.05 6.69,-8.13 0,-3.98 -2.5,-7.92 -5.24,-11.01 l -9.56,-10.66 c -0.56,-0.54 -0.56,-0.64 -0.56,-1.84 h 18.48 l 1.41,8.67 h -1.25 c -0.25,-1.5 -0.6,-3.69 -1.1,-4.44 -0.35,-0.39 -3.63,-0.39 -4.73,-0.39 z"
           id="path5500"
           inkscape:connector-curvature="0"
           style="fill:#000000;stroke-width:0" /></g>
    </g>
    <path
       sodipodi:nodetypes="ccccccccccc"
       inkscape:connector-curvature="0"
       id="path5880"
       d="m 519.1529,417.95971 7.82283,6.75048 v -2.99946 h 10.15969 v 2.99946 l 7.82372,-6.75048 -7.68278,-6.75184 v 3.00082 h -10.30498 v -3.00082 z"
       style="fill:#d8bdd8;fill-opacity:1;stroke:#000000;stroke-width:0.377085px;stroke-linecap:butt;stroke-linejoin:miter;stroke-opacity:1" />
    <path
       inkscape:connector-curvature="0"
       d="m 313.66347,407.91019 0.82722,-0.73579 0.82739,-0.49774 0.82739,-0.14556 0.8272,0.26417 0.8274,0.65961 0.8274,0.96752 0.82721,1.1244 0.82739,1.08912 0.82736,0.84992 0.82724,0.42986 0.82739,-0.11645 0.82743,-0.70751 0.82725,-1.2475 0.82725,-1.63944 0.82724,-1.7998 0.82725,-1.67253 0.82761,-1.23819 0.82725,-0.52003 0.82725,0.41754 0.82725,1.47525 0.82761,2.53094 0.82724,3.45572 0.82726,4.12944 0.82725,4.45983 0.82723,4.39279 0.82762,3.92184 0.82725,3.09139 0.82725,1.98878 0.82724,0.73699 0.82725,-0.52272 0.8276,-1.64892 0.82726,-2.51762 0.82724,-3.03817 0.82725,-3.16507 0.82761,-2.90341 0.82725,-2.30687 0.82725,-1.47025 0.82724,-0.5157 0.82724,0.42453 0.82763,1.22538 0.82724,1.78699 0.82725,2.04685 0.82724,1.98779 0.82762,1.63943 0.82724,1.07134 0.82725,0.38344 0.82724,-0.31042 0.82726,-0.90015 0.8276,-1.29424 0.82725,-1.43482 0.82725,-1.30474 0.82725,-0.93042 0.82724,-0.37696 0.82761,0.26184 0.82725,0.87902 0.82725,1.36928 0.82724,1.64775 0.82762,1.66206 0.82723,1.40089 0.82726,0.89748 0.82725,0.22392 0.82724,-0.51854 0.82761,-1.21489 0.82726,-1.75355 0.82724,-2.04485 0.82725,-2.03519 0.82724,-1.71613 0.82762,-1.12823 0.82725,-0.35716 0.82724,0.47928 0.82725,1.24483 0.82762,1.80762 0.82724,2.0575 0.82724,1.92522 0.82725,1.39473 0.82725,0.50738 0.82762,-0.6403 0.82723,-1.90759 0.82725,-3.12732 0.82724,-4.12829 0.82763,-4.75844 0.82724,-4.90782 0.82724,-4.52456 0.82725,-3.62472 0.82725,-2.29404 0.82761,-0.67857 0.82725,1.03306 0.82724,2.63093 0.82726,3.91335 0.82724,4.71087 0.82761,4.91164 0.82725,4.47614 0.82725,3.44455 0.82724,1.9344 0.82762,0.12643 0.82724,-1.75671 0.82725,-3.47785 0.82725,-4.81517 0.82724,-5.58987 0.82762,-5.69087 0.82724,-5.08766 0.82725,-3.83567 0.82725,-2.07112 0.82723,0.006 0.82763,2.15862 0.82724,4.13594 0.82725,5.70933 0.82724,6.69832 0.82762,6.99143 0.82724,6.56007 0.82725,5.46029 0.82725,3.82502 0.82724,1.84676 0.82763,-0.24797 0.82723,-2.22496 0.82725,-3.87209 0.82725,-5.02377 0.82725,-5.57841 0.82761,-5.50904 0.82724,-4.86175 0.82725,-3.74816 0.82726,-2.32614 0.8276,-0.77904 0.82726,0.70933 0.82723,1.97847 0.82725,2.90906 0.82725,3.43575 0.82761,3.55186 0.82724,3.30515 0.82725,2.7868 0.82725,2.11454 0.82725,1.4147 0.82761,0.80116 0.82725,0.36066 0.82724,0.1404 0.82725,0.1439 0.82762,0.33338 0.82724,0.63731 0.82724,0.96636 0.82725,1.22653 0.82724,1.33801 0.82763,1.24816 0.82723,0.94008 0.82725,0.43802 0.82725,-0.1978 0.82762,-0.87868 0.82724,-1.50204 0.82725,-1.9665 0.82724,-2.18922 0.82726,-2.11955 0.82761,-1.7474 0.82724,-1.10859 0.82726,-0.27947 0.82723,0.63081 0.82726,1.49638 0.82762,2.19006 0.82722,2.60329 0.82727,2.66038 0.82723,2.3313 0.82761,1.63611 0.82727,0.64463 0.82722,-0.53217 0.82727,-1.75656 0.82723,-2.88076 0.82762,-3.76664 0.82726,-4.3038 0.82722,-4.42406 0.82726,-4.10982 0.82763,-3.39697 0.82722,-2.36991 0.82727,-1.14935 0.82722,0.12161 0.82726,1.29757 0.82762,2.24879 0.82723,2.87662 0.82726,3.126 0.82724,2.99041 0.82725,2.51063 0.82762,1.76771 0.82723,0.87104 0.82727,-0.0585 0.82723,-0.90464 0.82725,-1.57024 0.82762,-1.99027 0.82723,-2.13867 0.82726,-2.0282 0.82724,-1.70732 0.8276,-1.24933 0.82727,-0.74195 0.82723,-0.26999 0.82726,0.0942 0.82723,0.30344 0.82762,0.34103 0.82726,0.22191 0.82723,-0.0119 0.82725,-0.29927 0.82763,-0.57127 0.82723,-0.7629 0.82726,-0.82562"
       style="fill:none;stroke:#1f77b4;stroke-width:1.4;stroke-linecap:round;stroke-linejoin:round;stroke-miterlimit:10;stroke-dasharray:none;stroke-opacity:1"
       id="path3226" />
    <path
       style="fill:none;stroke:#1f77b4;stroke-width:1.39121;stroke-linecap:round;stroke-linejoin:round;stroke-miterlimit:10;stroke-dasharray:none;stroke-opacity:1"
       d="m 569.67251,429.45881 c 0.41671,-3.1812 0.45711,-6.53546 1.47862,-9.5299 0.78445,-0.97701 1.1504,1.34464 1.38474,2.07021 1.34089,5.54637 1.83062,11.43427 3.777,16.73877 0.42381,1.26083 1.61885,2.52749 2.67359,1.44734 1.79541,-1.46954 3.19267,-4.56266 5.66543,-4.09918 2.60792,0.73763 4.71046,3.70651 7.56939,3.17071 2.45627,-0.35679 5.01141,-1.95946 7.44054,-0.52187 2.57323,1.17693 4.62064,4.51857 7.58244,4.02768 3.27493,-0.98507 4.69357,-5.41966 7.52983,-7.28524 1.38141,-1.06563 2.94769,0.24183 3.71347,1.71444 2.78785,4.84417 3.76392,10.9034 6.51698,15.77826 0.55392,0.77209 1.57139,1.62677 2.30304,0.71825 1.65959,-1.75582 2.21757,-4.57387 3.02623,-6.99474 1.19276,-3.72563 1.87994,-7.80094 3.72691,-11.14002 0.54519,-1.29383 1.92459,-1.15088 2.56915,-0.0543 0.65327,0.67521 1.44711,2.49021 2.40344,1.61384 1.25324,-1.85446 1.38639,-4.47955 1.89043,-6.74935 0.39321,-1.72634 0.41971,-3.7206 1.18886,-5.24881"
       id="path4399"
       inkscape:connector-curvature="0" />
    <path
       style="fill:none;stroke:#000000;stroke-width:1;stroke-linecap:butt;stroke-linejoin:miter;stroke-miterlimit:10;stroke-dasharray:none;stroke-opacity:1"
       d="m 568.95539,443.98085 c 0.077,7.57909 4.23155,14.0801 9.09474,18.24015 8.05012,6.87084 18.03375,9.53486 27.71242,9.58289 9.6469,-0.0738 19.59245,-2.7487 27.60975,-9.60837 4.27926,-3.72243 7.99387,-9.06606 8.87656,-15.60328 l 0.0996,-0.88269 0.0632,-0.88509 0.0269,-0.88578"
       id="path4603"
       inkscape:connector-curvature="0"
       sodipodi:nodetypes="cccccccc" />
    <path
       id="path4619"
       style="fill:none;stroke:#3a5b3a;stroke-width:0.701937;stroke-linecap:butt;stroke-linejoin:miter;stroke-miterlimit:10;stroke-dasharray:none;stroke-opacity:1"
       d="m 574.02718,429.50889 -0.0675,0.085"
       inkscape:connector-curvature="0" />
    <path
       id="path4649"
       style="fill:none;stroke:#555555;stroke-width:1.07569;stroke-linecap:butt;stroke-linejoin:miter;stroke-miterlimit:10;stroke-dasharray:3.22706, 3.22706;stroke-dashoffset:0;stroke-opacity:1"
       d="m 594.86644,470.56025 c 0,-16.56726 0,-34.98235 0,-50.54708"
       inkscape:connector-curvature="0"
       sodipodi:nodetypes="cc" />
    <path
       id="path4701"
       style="fill:none;stroke:#3a5b3a;stroke-width:0.701937;stroke-linecap:butt;stroke-linejoin:miter;stroke-miterlimit:10;stroke-dasharray:none;stroke-opacity:1"
       d="M 580.57635,423.25659 Z"
       inkscape:connector-curvature="0"
       sodipodi:nodetypes="cc" />
    <path
       id="path5089"
       style="fill:none;stroke:#3a5b3a;stroke-width:0.701937;stroke-linecap:butt;stroke-linejoin:miter;stroke-miterlimit:10;stroke-dasharray:none;stroke-opacity:1"
       d="m 642.3816,442.16676 -0.0832,-0.88373"
       inkscape:connector-curvature="0" />
    <path
       id="path5091"
       style="fill:none;stroke:#3a5b3a;stroke-width:0.701937;stroke-linecap:butt;stroke-linejoin:miter;stroke-miterlimit:10;stroke-dasharray:none;stroke-opacity:1"
       d="m 642.42831,443.05255 -0.0467,-0.88579"
       inkscape:connector-curvature="0" />
    <path
       id="path5093"
       style="fill:none;stroke:#3a5b3a;stroke-width:0.701937;stroke-linecap:butt;stroke-linejoin:miter;stroke-miterlimit:10;stroke-dasharray:none;stroke-opacity:1"
       d="m 642.43842,443.93868 -0.01,-0.88613"
       inkscape:connector-curvature="0" />
    <path
       style="fill:none;stroke:#000000;stroke-width:1;stroke-linecap:butt;stroke-linejoin:miter;stroke-miterlimit:10;stroke-dasharray:none;stroke-opacity:1"
       d="m 636.31778,408.69855 0.13803,-0.15699 h 2e-5 l 0.0655,-0.0745 m -0.20359,0.23149 -0.13215,0.15021 m -13.96386,9.40929 c 4.81326,-1.9053 9.63311,-4.56896 13.96386,-9.40929 m -14.00294,9.42438 0.039,-0.0151 m -0.20624,0.0809 0.15488,-0.061 h 10e-6 l 0.0122,-0.005 m -0.16715,0.0659 -0.0541,0.0213 m -0.0838,0.0301 0.0838,-0.0301 m -0.18915,0.0685 0.10534,-0.0383 m -0.17433,0.0632 0.0689,-0.0247 m -0.099,0.0357 0.0301,-0.011 m -0.0301,0.011 c -0.25337,0.0918 -0.50674,0.18358 -0.76013,0.27536 m -26.04665,1.27331 c 8.6568,1.97849 17.44856,1.64738 26.04665,-1.2731 m 15.60826,-10.27321 c 2.83511,-3.39189 6.02368,-8.49619 5.90692,-15.962 -0.37709,-7.34846 -3.63676,-12.02465 -6.53569,-15.30049 -7.19252,-7.57606 -15.32996,-10.25881 -23.30411,-11.58484 -10.78863,-1.35476 -21.8591,0.048 -32.16527,7.19728 -3.97662,3.05339 -8.25899,6.82427 -10.64386,14.45761 -1.95294,6.12552 -0.10701,13.77101 2.50205,17.58521 5.11885,8.02682 11.54289,11.31019 17.75775,13.72212 1.60157,0.5778 3.21231,1.04481 4.82731,1.43162"
       id="path5349"
       inkscape:connector-curvature="0" />
    <path
       style="fill:none;stroke:#73a9ce;stroke-width:1.29847;stroke-linecap:round;stroke-linejoin:round;stroke-miterlimit:10;stroke-dasharray:none;stroke-opacity:1"
       d="m 642.02264,419.97065 c -0.31836,-3.28381 -0.38432,-6.67884 -1.31914,-9.80917 -0.8559,-1.30194 -1.50865,1.00384 -2.17882,1.56186 -1.16391,0.8602 -1.71331,-1.36585 -2.02264,-2.38879 -1.51501,-5.65487 -2.0371,-11.62547 -3.28258,-17.37374 -0.67302,-3.20375 -1.08507,-6.65902 -2.5368,-9.47568 -0.69554,-1.56823 -1.93609,-0.28405 -2.3919,0.84351 -1.9351,4.47944 -2.63621,9.70597 -4.97439,13.90522 -0.69618,1.339 -2.1095,0.89649 -2.58373,-0.44361 -1.9382,-3.85104 -2.67294,-8.42472 -3.80758,-12.70173 -1.02453,-3.9266 -1.76688,-8.09258 -3.53773,-11.62046 -0.39196,-1.15514 -1.79041,-2.02719 -2.43349,-0.72916 -1.67898,2.2899 -2.17175,5.50291 -3.01531,8.34157 -1.70124,6.78988 -2.77544,13.85473 -5.05532,20.39988 -0.4309,1.24139 -1.03993,2.68001 -2.02161,3.24681 -1.34243,0.28238 -2.06915,-1.51655 -2.6006,-2.75994 -2.551,-6.12118 -3.40956,-13.16696 -6.303,-19.07917 -0.57756,-1.14366 -1.86774,-2.0823 -2.73116,-0.82598 -1.91443,2.49176 -2.64438,6.01571 -3.70804,9.13131 -1.57117,4.69525 -2.63675,10.08479 -5.92506,13.4737 -3.01754,2.22215 -4.32853,6.37494 -5.63408,10.16684 -0.56115,1.1839 -0.85627,3.05054 -2.07926,3.39432 -1.11512,-0.45859 -1.07034,-2.65173 -2.10107,-2.96844 -0.84865,3.29173 -0.60936,6.86506 -0.78452,10.28646 0.01,2.8667 -0.19359,5.79572 0.15535,8.63094"
       id="path5375"
       inkscape:connector-curvature="0" />
    <path
       id="path4649-8"
       style="fill:none;stroke:#000000;stroke-width:1;stroke-linecap:round;stroke-linejoin:miter;stroke-miterlimit:10;stroke-dasharray:none;stroke-dashoffset:0;stroke-opacity:1"
       d="m 568.9575,443.94792 c 0,-16.56726 0,-34.98235 0,-50.54709"
       inkscape:connector-curvature="0"
       sodipodi:nodetypes="cc" />
    <path
       id="path4649-8-1"
       style="fill:none;stroke:#000000;stroke-width:1;stroke-linecap:butt;stroke-linejoin:miter;stroke-miterlimit:10;stroke-dasharray:none;stroke-dashoffset:0;stroke-opacity:1"
       d="m 642.4259,443.94792 c 0,-16.56726 0,-34.98235 0,-50.54709"
       inkscape:connector-curvature="0"
       sodipodi:nodetypes="cc" />
    <path
       style="fill:none;stroke:#000000;stroke-width:1.11296;stroke-linecap:butt;stroke-linejoin:miter;stroke-miterlimit:3.85;stroke-dasharray:none;stroke-opacity:1;marker-end:url(#Arrow2MendE6s3920)"
       d="m 592.18949,469.78552 1.96539,0.63008"
       id="path4171-1"
       inkscape:connector-curvature="0"
       sodipodi:nodetypes="cc" />
  </g>
</svg>
