<?xml version="1.0" encoding="UTF-8" standalone="no"?>
<svg
   xmlns:dc="http://purl.org/dc/elements/1.1/"
   xmlns:cc="http://creativecommons.org/ns#"
   xmlns:rdf="http://www.w3.org/1999/02/22-rdf-syntax-ns#"
   xmlns:svg="http://www.w3.org/2000/svg"
   xmlns="http://www.w3.org/2000/svg"
   xmlns:sodipodi="http://sodipodi.sourceforge.net/DTD/sodipodi-0.dtd"
   xmlns:inkscape="http://www.inkscape.org/namespaces/inkscape"
   inkscape:version="1.0 (4035a4fb49, 2020-05-01)"
   sodipodi:docname="roots_of_unity.svg"
   viewBox="0 0 955.73933 205.35666"
   height="205.35666"
   width="955.73932"
   xml:space="preserve"
   id="svg1027"
   version="1.1"><metadata
     id="metadata1033"><rdf:RDF><cc:Work
         rdf:about=""><dc:format>image/svg+xml</dc:format><dc:type
           rdf:resource="http://purl.org/dc/dcmitype/StillImage" /><dc:title></dc:title></cc:Work></rdf:RDF></metadata><defs
     id="defs1031"><clipPath
       id="clipPath1097"
       clipPathUnits="userSpaceOnUse"><path
         id="path1095"
         d="m 11,168.57931 h 126 v 126 H 11 Z" /></clipPath><mask
       id="mask1099"
       height="1"
       width="1"
       y="0"
       x="0"
       maskUnits="userSpaceOnUse"><g
         id="g1105"><g
           id="g1103"
           clip-path="url(#clipPath1097)"><path
             id="path1101"
             style="fill:#000000;fill-opacity:0.97;fill-rule:nonzero;stroke:none"
             d="m 11,168.57931 h 126 v 126 H 11 Z" /></g></g></mask><clipPath
       id="clipPath1113"
       clipPathUnits="userSpaceOnUse"><path
         id="path1111"
         d="m 11,168.57931 h 126 v 126 H 11 Z" /></clipPath><clipPath
       id="clipPath1117"
       clipPathUnits="userSpaceOnUse"><path
         id="path1115"
         d="M 11,169 H 137 V 295 H 11 Z" /></clipPath><clipPath
       id="clipPath1173"
       clipPathUnits="userSpaceOnUse"><path
         id="path1171"
         d="M 11,7.579315 H 137 V 133.57931 H 11 Z" /></clipPath><mask
       id="mask1175"
       height="1"
       width="1"
       y="0"
       x="0"
       maskUnits="userSpaceOnUse"><g
         id="g1181"><g
           id="g1179"
           clip-path="url(#clipPath1173)"><path
             id="path1177"
             style="fill:#000000;fill-opacity:0.97;fill-rule:nonzero;stroke:none"
             d="M 11,7.579315 H 137 V 133.57931 H 11 Z" /></g></g></mask><clipPath
       id="clipPath1189"
       clipPathUnits="userSpaceOnUse"><path
         id="path1187"
         d="M 11,7.579315 H 137 V 133.57931 H 11 Z" /></clipPath><clipPath
       id="clipPath1193"
       clipPathUnits="userSpaceOnUse"><path
         id="path1191"
         d="M 11,8 H 137 V 134 H 11 Z" /></clipPath><clipPath
       id="clipPath1249"
       clipPathUnits="userSpaceOnUse"><path
         id="path1247"
         d="m 189,168.57931 h 127 v 126 H 189 Z" /></clipPath><mask
       id="mask1251"
       height="1"
       width="1"
       y="0"
       x="0"
       maskUnits="userSpaceOnUse"><g
         id="g1257"><g
           id="g1255"
           clip-path="url(#clipPath1249)"><path
             id="path1253"
             style="fill:#000000;fill-opacity:0.97;fill-rule:nonzero;stroke:none"
             d="m 189,168.57931 h 127 v 126 H 189 Z" /></g></g></mask><clipPath
       id="clipPath1265"
       clipPathUnits="userSpaceOnUse"><path
         id="path1263"
         d="m 189,168.57931 h 127 v 126 H 189 Z" /></clipPath><clipPath
       id="clipPath1269"
       clipPathUnits="userSpaceOnUse"><path
         id="path1267"
         d="M 189,169 H 316 V 295 H 189 Z" /></clipPath><clipPath
       id="clipPath1325"
       clipPathUnits="userSpaceOnUse"><path
         id="path1323"
         d="M 189,7.579315 H 316 V 133.57931 H 189 Z" /></clipPath><mask
       id="mask1327"
       height="1"
       width="1"
       y="0"
       x="0"
       maskUnits="userSpaceOnUse"><g
         id="g1333"><g
           id="g1331"
           clip-path="url(#clipPath1325)"><path
             id="path1329"
             style="fill:#000000;fill-opacity:0.97;fill-rule:nonzero;stroke:none"
             d="M 189,7.579315 H 316 V 133.57931 H 189 Z" /></g></g></mask><clipPath
       id="clipPath1341"
       clipPathUnits="userSpaceOnUse"><path
         id="path1339"
         d="M 189,7.579315 H 316 V 133.57931 H 189 Z" /></clipPath><clipPath
       id="clipPath1345"
       clipPathUnits="userSpaceOnUse"><path
         id="path1343"
         d="M 189,8 H 316 V 134 H 189 Z" /></clipPath></defs><sodipodi:namedview
     inkscape:current-layer="g1035"
     inkscape:window-maximized="1"
     inkscape:window-y="0"
     inkscape:window-x="0"
     inkscape:cy="59.5387"
     inkscape:cx="821.95708"
     inkscape:zoom="1"
     fit-margin-bottom="0"
     fit-margin-right="0"
     fit-margin-left="0"
     fit-margin-top="0"
     showgrid="false"
     id="namedview1029"
     inkscape:window-height="1026"
     inkscape:window-width="1920"
     inkscape:pageshadow="2"
     inkscape:pageopacity="0"
     guidetolerance="10"
     gridtolerance="10"
     objecttolerance="10"
     borderopacity="1"
     bordercolor="#666666"
     pagecolor="#ffffff" /><g
     transform="matrix(1.3333333,0,0,-1.3333333,0,423.33998)"
     inkscape:label="roots_of_unity"
     inkscape:groupmode="layer"
     id="g1035"><path
       id="path1041"
       style="fill:none;stroke:#000000;stroke-width:1.296;stroke-linecap:butt;stroke-linejoin:miter;stroke-miterlimit:4;stroke-dasharray:none;stroke-opacity:1"
       d="M 0,231.18431 H 166.637" /><path
       d="m 159.859,234.322 8.496,-3.122 -8.496,-3.125 c 1.356,1.844 1.348,4.368 0,6.247 z"
       style="fill:#000000;fill-opacity:1;fill-rule:evenodd;stroke:none"
       id="path1043" /><path
       id="path1047"
       style="fill:none;stroke:#000000;stroke-width:1.296;stroke-linecap:butt;stroke-linejoin:miter;stroke-miterlimit:4;stroke-dasharray:none;stroke-opacity:1"
       d="m 74.078,278.55931 v 32.305" /><path
       d="m 70.941,304.083 3.125,8.496 3.125,-8.496 c -1.843,1.356 -4.367,1.348 -6.25,0 z"
       style="fill:#000000;fill-opacity:1;fill-rule:evenodd;stroke:none"
       id="path1049" /><path
       d="m 69.359,223.29 v 0.203 l -0.007,0.414 -0.012,0.204 -0.012,0.207 -0.016,0.203 -0.019,0.207 -0.027,0.199 -0.032,0.203 -0.039,0.199 -0.043,0.2 -0.054,0.199 -0.059,0.195 -0.066,0.195 -0.078,0.192 -0.043,0.097 -0.043,0.094 c -0.629,1.321 -1.754,1.543 -2.332,1.543 -0.825,0 -1.825,-0.359 -2.391,-1.637 -0.438,-0.949 -0.508,-2.019 -0.508,-3.117 0,-1.031 0.055,-2.265 0.621,-3.304 0.59,-1.114 1.594,-1.387 2.266,-1.387 v 0.301 c -0.535,0 -1.348,0.343 -1.598,1.66 -0.148,0.82 -0.148,2.082 -0.148,2.898 0,0.875 0,1.781 0.113,2.524 0.258,1.632 1.289,1.757 1.633,1.757 0.449,0 1.359,-0.246 1.617,-1.609 0.137,-0.766 0.137,-1.812 0.137,-2.672 0,-1.031 0,-1.965 -0.153,-2.844 -0.207,-1.3 -0.988,-1.714 -1.601,-1.714 v -0.301 c 0.738,0 1.777,0.285 2.387,1.594 0.441,0.945 0.507,2.011 0.507,3.097 z"
       style="fill:#000000;fill-opacity:1;fill-rule:nonzero;stroke:none"
       id="path1051" /><path
       d="m 99.016,219.548 v 0.184 l -0.004,0.007 -0.004,0.02 v 0.02 l -0.004,0.011 -0.004,0.016 -0.004,0.012 -0.008,0.011 -0.004,0.012 -0.023,0.023 -0.012,0.008 -0.008,0.008 -0.011,0.004 -0.016,0.008 h -0.012 l -0.007,0.004 h -0.012 l -0.008,0.004 h -0.039 l -0.008,0.004 h -0.055 l -0.015,0.003 h -0.055 c -0.851,-0.878 -2.058,-0.878 -2.496,-0.878 v -0.43 c 0.273,0 1.082,0 1.793,0.359 v -7.109 c 0,-0.496 -0.039,-0.66 -1.273,-0.66 h -0.442 v -0.426 c 0.485,0.043 1.676,0.043 2.227,0.043 0.55,0 1.738,0 2.222,-0.043 v 0.426 h -0.437 c -1.235,0 -1.281,0.148 -1.281,0.66 z"
       style="fill:#000000;fill-opacity:1;fill-rule:nonzero;stroke:none"
       id="path1053" /><path
       id="path1057"
       style="fill:none;stroke:#4e2929;stroke-width:0.648;stroke-linecap:butt;stroke-linejoin:miter;stroke-miterlimit:4;stroke-dasharray:1.944, 0.648;stroke-dashoffset:0;stroke-opacity:1"
       d="m 93.324,218.58731 -16.953,10.996" /><path
       id="path1061"
       style="fill:#4e2929;fill-opacity:1;fill-rule:evenodd;stroke:#4e2929;stroke-width:0.243001;stroke-linecap:butt;stroke-linejoin:round;stroke-miterlimit:4;stroke-dasharray:none;stroke-opacity:1"
       d="m 78.363396,226.42274 -2.714919,3.62078 4.414028,-0.99914 c -1.070703,-0.40656 -1.754325,-1.46486 -1.699109,-2.62164 z" /><path
       id="path1065"
       style="fill:none;stroke:#4e2929;stroke-width:0.648;stroke-linecap:butt;stroke-linejoin:miter;stroke-miterlimit:4;stroke-dasharray:1.944, 0.648;stroke-dashoffset:1.2312;stroke-opacity:1"
       d="m 124.484,197.50931 -21.539,14.777" /><path
       id="path1069"
       style="fill:#4e2929;fill-opacity:1;fill-rule:evenodd;stroke:#4e2929;stroke-width:0.243001;stroke-linecap:butt;stroke-linejoin:round;stroke-miterlimit:4;stroke-dasharray:none;stroke-opacity:1"
       d="m 122.57396,200.72047 2.6219,-3.69202 -4.38716,1.11296 c 1.07818,0.37949 1.78948,1.42255 1.76526,2.57906 z" /><g
       transform="translate(2.6415053,-3.659094)"
       id="g1829"><path
         id="path1071"
         style="fill:#000000;fill-opacity:1;fill-rule:nonzero;stroke:none"
         d="m 145.086,219.302 0.137,0.039 0.136,0.035 0.137,0.043 0.133,0.047 0.133,0.051 0.129,0.051 0.125,0.058 0.242,0.117 0.117,0.067 0.113,0.066 0.11,0.071 0.105,0.07 0.102,0.074 0.097,0.078 0.094,0.078 0.09,0.086 0.086,0.082 0.078,0.086 0.148,0.18 0.063,0.098 0.059,0.093 0.058,0.098 0.047,0.102 0.043,0.101 0.035,0.102 0.027,0.109 0.028,0.105 0.015,0.106 0.012,0.113 0.004,0.114 c 0,1.48 -1.758,2.777 -4.031,2.777 h -4.848 v -0.481 h 0.367 c 1.192,0 1.219,-0.164 1.219,-0.722 v -8.137 c 0,-0.559 -0.027,-0.727 -1.219,-0.727 h -0.367 v -0.48 c 0.551,0.051 1.652,0.051 2.254,0.051 0.598,0 1.699,0 2.258,-0.051 v 0.48 h -0.375 c -1.188,0 -1.219,0.168 -1.219,0.727 v 8.242 c 0,0.36 0,0.543 0.336,0.59 0.156,0.027 0.606,0.027 0.914,0.027 1.387,0 3.121,-0.058 3.121,-2.296 0,-1.067 -0.375,-2.317 -2.656,-2.317 h -1.715 v -0.344 h 1.774 c 0.25,0 0.898,0 1.437,-0.523 0.59,-0.555 0.59,-1.035 0.59,-2.07 0,-1.008 0,-1.621 0.629,-2.207 0.633,-0.555 1.48,-0.645 1.945,-0.645 1.207,0 1.469,1.258 1.469,1.695 0,0.094 0,0.262 -0.199,0.262 -0.168,0 -0.168,-0.141 -0.188,-0.246 -0.094,-1.098 -0.629,-1.375 -1.015,-1.375 -0.758,0 -0.887,0.789 -1.102,2.223 l -0.199,1.238 c -0.274,0.984 -1.035,1.5 -1.883,1.789 z" /><path
         id="path1073"
         style="fill:#000000;fill-opacity:1;fill-rule:nonzero;stroke:none"
         d="m 151.465,217.618 0.015,0.329 c 0.09,2.296 1.387,2.683 1.915,2.683 1.589,0 1.746,-2.082 1.746,-2.683 h -3.661 l -0.015,-0.329 h 4.312 c 0.336,0 0.379,0 0.379,0.329 0,1.523 -0.832,3.019 -2.761,3.019 -1.793,0 -3.215,-1.586 -3.215,-3.519 0,-2.067 1.621,-3.567 3.402,-3.567 1.883,0 2.574,1.715 2.574,2.008 0,0.152 -0.121,0.187 -0.199,0.187 -0.137,0 -0.168,-0.093 -0.203,-0.214 -0.535,-1.59 -1.93,-1.59 -2.082,-1.59 -0.777,0 -1.391,0.461 -1.742,1.031 -0.465,0.738 -0.465,1.762 -0.465,2.316 z" /><path
         id="path1075"
         style="fill:#000000;fill-opacity:1;fill-rule:nonzero;stroke:none"
         d="m 161.703,210.349 v 0.023 l -0.004,0.004 v 0.008 h -0.004 v 0.008 l -0.004,0.004 v 0.008 l -0.007,0.007 -0.012,0.024 -0.012,0.008 -0.004,0.011 -0.011,0.008 -0.008,0.012 -0.004,0.008 -0.004,0.004 -0.004,0.007 -0.012,0.012 -0.008,0.012 -0.003,0.004 -0.012,0.008 -0.004,0.007 -0.016,0.016 -0.008,0.012 -0.007,0.008 -0.012,0.007 -0.004,0.012 -0.023,0.016 -0.008,0.011 -0.02,0.02 -0.011,0.016 -0.012,0.007 -0.024,0.024 c -1.925,1.949 -2.421,4.863 -2.421,7.226 0,2.688 0.585,5.379 2.484,7.301 0.199,0.192 0.199,0.223 0.199,0.27 0,0.109 -0.058,0.152 -0.148,0.152 -0.157,0 -1.547,-1.051 -2.457,-3.008 -0.789,-1.703 -0.977,-3.418 -0.977,-4.715 0,-1.207 0.172,-3.07 1.016,-4.816 0.929,-1.902 2.261,-2.902 2.418,-2.902 0.09,0 0.148,0.043 0.148,0.156 z" /><path
         id="path1077"
         style="fill:#000000;fill-opacity:1;fill-rule:nonzero;stroke:none"
         d="m 164.633,215.337 0.078,0.082 0.148,0.156 0.071,0.075 0.066,0.07 0.07,0.066 0.063,0.071 0.066,0.066 0.063,0.059 0.121,0.121 0.055,0.058 0.058,0.051 0.055,0.055 0.109,0.105 0.106,0.098 0.105,0.094 0.203,0.179 0.2,0.172 0.101,0.09 0.106,0.086 c 0,0.016 0.949,0.836 1.507,1.395 1.469,1.437 1.809,2.179 1.809,2.234 0,0.156 -0.141,0.156 -0.172,0.156 -0.105,0 -0.152,-0.031 -0.23,-0.168 -0.461,-0.742 -0.786,-0.988 -1.157,-0.988 -0.375,0 -0.558,0.23 -0.793,0.492 -0.289,0.36 -0.55,0.664 -1.066,0.664 -1.156,0 -1.863,-1.433 -1.863,-1.758 0,-0.078 0.047,-0.168 0.183,-0.168 0.141,0 0.172,0.079 0.2,0.168 0.293,0.711 1.195,0.727 1.316,0.727 0.32,0 0.617,-0.109 0.973,-0.231 0.617,-0.234 0.785,-0.234 1.187,-0.234 -0.555,-0.664 -1.851,-1.777 -2.144,-2.023 l -1.391,-1.297 c -1.051,-1.035 -1.594,-1.914 -1.594,-2.024 0,-0.156 0.156,-0.156 0.188,-0.156 0.121,0 0.152,0.031 0.242,0.199 0.359,0.543 0.82,0.961 1.316,0.961 0.356,0 0.512,-0.14 0.895,-0.586 0.265,-0.324 0.543,-0.574 0.988,-0.574 1.531,0 2.426,1.965 2.426,2.379 0,0.078 -0.063,0.156 -0.184,0.156 -0.14,0 -0.172,-0.09 -0.218,-0.203 -0.352,-1.004 -1.34,-1.293 -1.856,-1.293 -0.305,0 -0.586,0.09 -0.906,0.199 -0.524,0.2 -0.758,0.262 -1.082,0.262 -0.028,0 -0.278,0 -0.418,-0.043 z" /><path
         id="path1079"
         style="fill:#000000;fill-opacity:1;fill-rule:nonzero;stroke:none"
         d="m 174.887,217.911 v 0.235 l -0.004,0.121 -0.004,0.129 -0.012,0.258 -0.019,0.273 -0.024,0.285 -0.035,0.297 -0.039,0.301 -0.055,0.312 -0.058,0.317 -0.071,0.316 -0.086,0.328 -0.089,0.328 -0.11,0.332 -0.125,0.332 -0.133,0.329 -0.074,0.164 -0.078,0.164 c -0.926,1.898 -2.254,2.902 -2.406,2.902 -0.09,0 -0.156,-0.059 -0.156,-0.152 0,-0.047 0,-0.078 0.289,-0.36 1.515,-1.523 2.402,-3.98 2.402,-7.211 0,-2.636 -0.574,-5.355 -2.492,-7.304 -0.199,-0.18 -0.199,-0.215 -0.199,-0.258 0,-0.094 0.066,-0.156 0.156,-0.156 0.152,0 1.539,1.05 2.457,3.011 0.785,1.696 0.965,3.407 0.965,4.707 z" /></g><g
       transform="translate(-1.1326847,0.92599294)"
       id="g1857"><path
         id="path1081"
         style="fill:#000000;fill-opacity:1;fill-rule:nonzero;stroke:none"
         d="m 34.043,314.341 v 0.051 l 0.004,0.047 v 0.047 l 0.004,0.046 0.004,0.043 0.007,0.079 0.012,0.035 0.008,0.035 0.012,0.031 0.015,0.031 0.016,0.028 0.02,0.031 0.046,0.047 0.032,0.023 0.031,0.02 0.039,0.015 0.019,0.012 0.02,0.008 0.023,0.008 0.02,0.008 0.027,0.007 0.024,0.004 0.023,0.008 0.028,0.004 0.062,0.016 0.027,0.004 0.036,0.003 0.031,0.004 0.039,0.004 0.031,0.004 0.043,0.004 0.035,0.004 0.043,0.004 h 0.043 l 0.043,0.004 h 0.047 l 0.047,0.004 h 0.043 l 0.051,0.004 h 0.617 v 0.48 c -0.543,-0.051 -1.762,-0.051 -2.348,-0.051 -0.601,0 -1.82,0 -2.363,0.051 v -0.48 h 0.402 c 1.219,0 1.27,-0.168 1.27,-0.727 v -8.137 c 0,-0.558 -0.051,-0.726 -1.27,-0.726 h -0.402 v -0.481 c 0.543,0.051 1.762,0.051 2.348,0.051 0.601,0 1.82,0 2.363,-0.051 v 0.481 h -0.399 c -1.222,0 -1.273,0.168 -1.273,0.726 z" /><path
         id="path1083"
         style="fill:#000000;fill-opacity:1;fill-rule:nonzero;stroke:none"
         d="m 37.852,310.314 v -4.145 c 0,-0.691 -0.168,-0.691 -1.207,-0.691 v -0.481 c 0.543,0.016 1.328,0.051 1.746,0.051 0.402,0 1.207,-0.035 1.73,-0.051 v 0.481 c -1.035,0 -1.203,0 -1.203,0.691 v 2.844 c 0,1.609 1.094,2.469 2.082,2.469 0.973,0 1.145,-0.832 1.145,-1.711 v -3.602 c 0,-0.691 -0.172,-0.691 -1.207,-0.691 v -0.481 c 0.542,0.016 1.332,0.051 1.75,0.051 0.398,0 1.199,-0.035 1.73,-0.051 v 0.481 c -1.039,0 -1.207,0 -1.207,0.691 v 2.844 c 0,1.609 1.098,2.469 2.086,2.469 0.973,0 1.144,-0.832 1.144,-1.711 v -3.602 c 0,-0.691 -0.171,-0.691 -1.207,-0.691 v -0.481 c 0.536,0.016 1.328,0.051 1.743,0.051 0.402,0 1.207,-0.035 1.73,-0.051 v 0.481 c -0.801,0 -1.187,0 -1.203,0.465 v 2.949 c 0,1.328 0,1.808 -0.477,2.359 -0.222,0.266 -0.73,0.571 -1.625,0.571 -1.297,0 -1.976,-0.926 -2.238,-1.508 -0.219,1.34 -1.359,1.508 -2.051,1.508 -1.129,0 -1.855,-0.665 -2.289,-1.614 v 1.614 l -2.179,-0.168 v -0.481 c 1.082,0 1.207,-0.105 1.207,-0.859 z" /><path
         id="path1085"
         style="fill:#000000;fill-opacity:1;fill-rule:nonzero;stroke:none"
         d="m 54.129,301.294 v 0.035 l -0.004,0.004 v 0.004 l -0.004,0.008 -0.004,0.004 -0.012,0.023 -0.007,0.008 -0.004,0.012 -0.012,0.008 -0.004,0.011 -0.008,0.012 -0.008,0.004 -0.007,0.008 v 0.004 l -0.016,0.015 -0.004,0.008 -0.027,0.027 -0.008,0.012 -0.008,0.008 -0.012,0.008 -0.003,0.012 -0.012,0.007 -0.008,0.008 -0.008,0.012 -0.011,0.008 -0.012,0.011 -0.008,0.012 -0.016,0.012 -0.019,0.019 -0.012,0.016 c -1.93,1.945 -2.422,4.863 -2.422,7.223 0,2.687 0.586,5.379 2.485,7.304 0.195,0.188 0.195,0.219 0.195,0.266 0,0.109 -0.055,0.152 -0.149,0.152 -0.152,0 -1.546,-1.047 -2.453,-3.007 -0.793,-1.7 -0.972,-3.415 -0.972,-4.715 0,-1.203 0.168,-3.067 1.015,-4.817 0.922,-1.898 2.258,-2.902 2.41,-2.902 0.094,0 0.149,0.047 0.149,0.156 z" /><path
         id="path1087"
         style="fill:#000000;fill-opacity:1;fill-rule:nonzero;stroke:none"
         d="m 57.062,306.282 0.079,0.082 0.074,0.079 0.07,0.078 0.07,0.074 0.075,0.07 0.062,0.071 0.254,0.253 0.063,0.059 0.058,0.059 0.055,0.05 0.055,0.059 0.109,0.102 0.105,0.097 0.106,0.094 0.101,0.09 0.098,0.09 0.203,0.175 0.098,0.09 0.105,0.086 c 0,0.016 0.957,0.832 1.512,1.391 1.469,1.437 1.805,2.18 1.805,2.234 0,0.157 -0.137,0.157 -0.168,0.157 -0.106,0 -0.156,-0.028 -0.235,-0.168 -0.457,-0.743 -0.781,-0.989 -1.156,-0.989 -0.371,0 -0.555,0.231 -0.789,0.492 -0.293,0.36 -0.551,0.665 -1.066,0.665 -1.157,0 -1.864,-1.434 -1.864,-1.758 0,-0.078 0.043,-0.168 0.184,-0.168 0.141,0 0.172,0.078 0.199,0.168 0.297,0.715 1.192,0.726 1.313,0.726 0.324,0 0.621,-0.109 0.972,-0.23 0.621,-0.235 0.793,-0.235 1.192,-0.235 -0.555,-0.66 -1.852,-1.777 -2.145,-2.023 l -1.39,-1.293 c -1.051,-1.035 -1.59,-1.918 -1.59,-2.027 0,-0.153 0.152,-0.153 0.179,-0.153 0.129,0 0.157,0.032 0.25,0.2 0.356,0.539 0.817,0.96 1.313,0.96 0.359,0 0.512,-0.144 0.894,-0.585 0.266,-0.329 0.543,-0.575 0.989,-0.575 1.531,0 2.426,1.961 2.426,2.375 0,0.078 -0.063,0.157 -0.184,0.157 -0.141,0 -0.168,-0.09 -0.219,-0.204 -0.351,-1.003 -1.34,-1.289 -1.851,-1.289 -0.309,0 -0.59,0.09 -0.914,0.196 -0.524,0.199 -0.754,0.261 -1.082,0.261 -0.028,0 -0.274,0 -0.415,-0.043 z" /><path
         id="path1089"
         style="fill:#000000;fill-opacity:1;fill-rule:nonzero;stroke:none"
         d="m 67.316,308.857 v 0.238 l -0.004,0.121 -0.003,0.125 -0.016,0.262 -0.016,0.273 -0.027,0.285 -0.031,0.293 -0.043,0.301 -0.047,0.313 -0.063,0.316 -0.07,0.32 -0.086,0.325 -0.094,0.328 -0.105,0.332 -0.121,0.332 -0.07,0.164 -0.067,0.164 -0.074,0.164 -0.078,0.164 c -0.926,1.898 -2.25,2.902 -2.406,2.902 -0.094,0 -0.157,-0.058 -0.157,-0.152 0,-0.047 0,-0.078 0.289,-0.355 1.516,-1.528 2.399,-3.985 2.399,-7.215 0,-2.637 -0.574,-5.356 -2.488,-7.301 -0.2,-0.184 -0.2,-0.219 -0.2,-0.262 0,-0.094 0.063,-0.156 0.157,-0.156 0.156,0 1.539,1.051 2.453,3.012 0.785,1.695 0.968,3.41 0.968,4.707 z" /></g><g
       id="g1109" /><g
       id="g1133"><g
         clip-path="url(#clipPath1113)"
         id="g1131"><g
           transform="translate(0,-0.420685)"
           id="g1129"><g
             id="g1127"><g
               clip-path="url(#clipPath1117)"
               id="g1125"><g
                 id="g1123"><g
                   transform="matrix(1,0,0,-1,0,317)"
                   id="g1121"><path
                     d="m 136.477,85.027 c 0,34.532 -27.993,62.528 -62.524,62.532 -34.535,0.003 -62.531,-27.985 -62.539,-62.52 -0.008,-34.531 27.981,-62.535 62.512,-62.543 34.535,-0.012 62.539,27.973 62.551,62.508 l -62.532,0.023 z"
                     style="fill:none;stroke:#000000;stroke-width:0.648;stroke-linecap:butt;stroke-linejoin:miter;stroke-miterlimit:4;stroke-dasharray:none;stroke-opacity:1"
                     id="path1119" /></g></g></g></g></g></g></g><path
       id="path1141"
       style="fill:none;stroke:#000000;stroke-width:1.296;stroke-linecap:butt;stroke-linejoin:miter;stroke-miterlimit:4;stroke-dasharray:none;stroke-opacity:1"
       d="m 363.10446,230.81731 h 166.637" /><path
       d="m 522.96346,233.954 8.496,-3.125 -8.496,-3.125 c 1.356,1.84799 1.348,4.37099 0,6.25 z"
       style="fill:#000000;fill-opacity:1;fill-rule:evenodd;stroke:none"
       id="path1143" /><path
       d="m 432.46346,222.923 v 0.203 l -0.007,0.414 -0.012,0.20299 -0.012,0.20701 -0.016,0.203 -0.019,0.203 -0.027,0.204 -0.032,0.199 -0.039,0.203 -0.043,0.195 -0.054,0.19899 -0.059,0.20001 -0.066,0.191 -0.078,0.195 -0.086,0.18799 c -0.629,1.32401 -1.754,1.54301 -2.332,1.54301 -0.825,0 -1.825,-0.356 -2.391,-1.637 -0.438,-0.945 -0.508,-2.019 -0.508,-3.113 0,-1.031 0.055,-2.266 0.621,-3.309 0.59,-1.109 1.594,-1.387 2.266,-1.387 v 0.301 c -0.535,0 -1.348,0.348 -1.598,1.664 -0.148,0.821 -0.148,2.082 -0.148,2.899 0,0.875 0,1.777 0.113,2.519 0.258,1.637 1.289,1.758 1.633,1.758 0.449,0 1.359,-0.246 1.617,-1.605 0.137,-0.766 0.137,-1.813 0.137,-2.672 0,-1.035 0,-1.965 -0.153,-2.844 -0.207,-1.305 -0.988,-1.719 -1.601,-1.719 v -0.301 c 0.738,0 1.777,0.29 2.387,1.594 0.441,0.946 0.507,2.016 0.507,3.102 z"
       style="fill:#000000;fill-opacity:1;fill-rule:nonzero;stroke:none"
       id="path1145" /><g
       transform="translate(2.6415053,-3.659094)"
       id="g1843"><path
         id="path1147"
         style="fill:#000000;fill-opacity:1;fill-rule:nonzero;stroke:none"
         d="m 508.19046,218.935 0.137,0.035 0.136,0.039 0.137,0.043 0.133,0.047 0.133,0.05 0.129,0.051 0.125,0.055 0.121,0.058 0.121,0.063 0.117,0.062 0.113,0.071 0.11,0.066 0.105,0.07 0.102,0.075 0.097,0.078 0.094,0.082 0.09,0.082 0.086,0.086 0.078,0.086 0.148,0.17899 0.063,0.098 0.059,0.09 0.058,0.101 0.047,0.098 0.043,0.102 0.035,0.105 0.055,0.211 0.015,0.10901 0.012,0.114 0.004,0.10899 c 0,1.481 -1.758,2.781 -4.031,2.781 h -4.848 V 223.751 h 0.367 c 1.192,0 1.219,-0.16801 1.219,-0.727 v -8.136 c 0,-0.559 -0.027,-0.72301 -1.219,-0.72301 h -0.367 V 213.685 c 0.551,0.046 1.652,0.046 2.254,0.046 0.598,0 1.699,0 2.258,-0.046 v 0.47999 h -0.375 c -1.188,0 -1.219,0.16401 -1.219,0.72301 v 8.24199 c 0,0.35901 0,0.54301 0.336,0.594 0.156,0.027 0.606,0.027 0.914,0.027 1.387,0 3.121,-0.063 3.121,-2.30101 0,-1.066 -0.375,-2.316 -2.656,-2.316 h -1.715 v -0.344 h 1.774 c 0.25,0 0.898,0 1.437,-0.52 0.59,-0.558 0.59,-1.039 0.59,-2.07 0,-1.008 0,-1.621 0.629,-2.207 0.633,-0.55799 1.48,-0.648 1.945,-0.648 1.207,0 1.469,1.261 1.469,1.699 0,0.094 0,0.262 -0.199,0.262 -0.168,0 -0.168,-0.141 -0.188,-0.246 -0.094,-1.102 -0.629,-1.375 -1.015,-1.375 -0.758,0 -0.887,0.789 -1.102,2.222 l -0.199,1.235 c -0.274,0.988 -1.035,1.5 -1.883,1.79301 z" /><path
         id="path1149"
         style="fill:#000000;fill-opacity:1;fill-rule:nonzero;stroke:none"
         d="m 514.56946,217.251 0.015,0.32399 c 0.09,2.30101 1.387,2.684 1.915,2.684 1.589,0 1.746,-2.082 1.746,-2.684 h -3.661 l -0.015,-0.32399 h 4.312 c 0.336,0 0.379,0 0.379,0.32399 0,1.52701 -0.832,3.024 -2.761,3.024 -1.793,0 -3.215,-1.58599 -3.215,-3.51999 0,-2.07001 1.621,-3.56601 3.402,-3.56601 1.883,0 2.574,1.714 2.574,2.004 0,0.15601 -0.121,0.191 -0.199,0.191 -0.137,0 -0.168,-0.094 -0.203,-0.219 -0.535,-1.58999 -1.93,-1.58999 -2.082,-1.58999 -0.777,0 -1.391,0.46099 -1.742,1.03199 -0.465,0.742 -0.465,1.765 -0.465,2.32001 z" /><path
         id="path1151"
         style="fill:#000000;fill-opacity:1;fill-rule:nonzero;stroke:none"
         d="m 524.80746,209.977 v 0.028 l -0.004,0.004 v 0.004 l -0.004,0.004 v 0.003 l -0.004,0.008 v 0.008 l -0.007,0.004 -0.004,0.012 -0.004,0.004 -0.004,0.011 -0.012,0.008 -0.004,0.008 -0.011,0.012 -0.008,0.011 -0.004,0.008 -0.004,0.004 -0.004,0.008 -0.008,0.004 -0.004,0.008 -0.008,0.007 -0.003,0.008 -0.012,0.004 -0.004,0.012 -0.008,0.004 -0.008,0.012 -0.008,0.007 -0.007,0.012 -0.012,0.008 -0.004,0.008 -0.012,0.011 -0.011,0.008 -0.008,0.008 -0.012,0.016 -0.055,0.054 c -1.925,1.946 -2.421,4.864 -2.421,7.227 0,2.68699 0.585,5.375 2.484,7.301 0.199,0.191 0.199,0.218 0.199,0.265 0,0.11 -0.058,0.153 -0.148,0.153 -0.157,0 -1.547,-1.047 -2.457,-3.004 -0.789,-1.703 -0.977,-3.418 -0.977,-4.715 0,-1.207 0.172,-3.07 1.016,-4.82 0.929,-1.899 2.261,-2.899 2.418,-2.899 0.09,0 0.148,0.043 0.148,0.152 z" /><path
         id="path1153"
         style="fill:#000000;fill-opacity:1;fill-rule:nonzero;stroke:none"
         d="m 527.73746,214.966 0.078,0.086 0.074,0.074 0.074,0.078 0.071,0.074 0.066,0.074 0.07,0.067 0.063,0.066 0.187,0.188 0.063,0.058 0.055,0.059 0.058,0.055 0.055,0.054 0.109,0.102 0.106,0.101 0.105,0.09 0.203,0.18 0.2,0.176 0.101,0.09 0.106,0.086 c 0,0.015 0.949,0.83601 1.507,1.39001 1.469,1.442 1.809,2.18 1.809,2.23499 0,0.156 -0.141,0.156 -0.172,0.156 -0.105,0 -0.152,-0.028 -0.23,-0.168 -0.461,-0.738 -0.786,-0.988 -1.157,-0.988 -0.375,0 -0.558,0.234 -0.793,0.49201 -0.289,0.35899 -0.55,0.66399 -1.066,0.66399 -1.156,0 -1.863,-1.43 -1.863,-1.75799 0,-0.078 0.047,-0.168 0.183,-0.168 0.141,0 0.172,0.078 0.2,0.168 0.293,0.71499 1.195,0.73 1.316,0.73 0.32,0 0.617,-0.113 0.973,-0.23401 0.617,-0.22999 0.785,-0.22999 1.187,-0.22999 -0.555,-0.66401 -1.851,-1.78201 -2.144,-2.024 l -1.391,-1.297 c -1.051,-1.035 -1.594,-1.918 -1.594,-2.02301 0,-0.15599 0.156,-0.15599 0.188,-0.15599 0.121,0 0.152,0.031 0.242,0.19899 0.359,0.543 0.82,0.96101 1.316,0.96101 0.356,0 0.512,-0.14501 0.895,-0.58601 0.265,-0.328 0.543,-0.57399 0.988,-0.57399 1.531,0 2.426,1.96099 2.426,2.37899 0,0.074 -0.063,0.152 -0.184,0.152 -0.14,0 -0.172,-0.09 -0.218,-0.199 -0.352,-1.00399 -1.34,-1.293 -1.856,-1.293 -0.305,0 -0.586,0.09 -0.906,0.19901 -0.524,0.19499 -0.758,0.258 -1.082,0.258 -0.028,0 -0.278,0 -0.418,-0.043 z" /><path
         id="path1155"
         style="fill:#000000;fill-opacity:1;fill-rule:nonzero;stroke:none"
         d="m 537.99146,217.54399 v 0.234 l -0.004,0.12101 -0.004,0.125 -0.012,0.262 -0.019,0.274 -0.024,0.28499 -0.035,0.29301 -0.039,0.29999 -0.055,0.31301 -0.058,0.316 -0.071,0.321 -0.086,0.32399 -0.089,0.328 -0.11,0.33201 -0.125,0.332 -0.133,0.328 -0.074,0.16399 -0.078,0.16401 c -0.926,1.899 -2.254,2.903 -2.406,2.903 -0.09,0 -0.156,-0.059 -0.156,-0.153 0,-0.047 0,-0.074 0.289,-0.35501 1.515,-1.524 2.402,-3.985 2.402,-7.211 0,-2.641 -0.574,-5.35899 -2.492,-7.30499 -0.199,-0.18301 -0.199,-0.21901 -0.199,-0.262 0,-0.089 0.066,-0.15201 0.156,-0.15201 0.152,0 1.539,1.05101 2.457,3.008 0.785,1.695 0.965,3.41 0.965,4.711 z" /></g><g
       transform="translate(-1.1326847)"
       id="g1871"><path
         id="path1157"
         style="fill:#000000;fill-opacity:1;fill-rule:nonzero;stroke:none"
         d="m 397.14746,315.26699 v 0.05 l 0.004,0.051 v 0.047 l 0.004,0.047 0.008,0.078 0.003,0.043 0.012,0.031 0.008,0.039 0.012,0.032 0.015,0.031 0.016,0.027 0.02,0.027 0.023,0.024 0.023,0.027 0.063,0.039 0.039,0.02 0.019,0.008 0.02,0.011 0.023,0.004 0.02,0.012 0.027,0.004 0.024,0.008 0.023,0.004 0.028,0.007 0.031,0.004 0.031,0.008 0.027,0.008 h 0.036 l 0.031,0.004 0.039,0.008 0.031,0.004 h 0.043 l 0.035,0.003 0.129,0.012 h 0.137 l 0.051,0.004 h 0.617 v 0.481 c -0.543,-0.051 -1.762,-0.051 -2.348,-0.051 -0.601,0 -1.82,0 -2.363,0.051 v -0.481 h 0.402 c 1.219,0 1.27,-0.168 1.27,-0.726 v -8.137 c 0,-0.555 -0.051,-0.723 -1.27,-0.723 h -0.402 v -0.48 c 0.543,0.047 1.762,0.047 2.348,0.047 0.601,0 1.82,0 2.363,-0.047 v 0.48 h -0.399 c -1.222,0 -1.273,0.168 -1.273,0.723 z" /><path
         id="path1159"
         style="fill:#000000;fill-opacity:1;fill-rule:nonzero;stroke:none"
         d="m 400.95646,311.239 v -4.14 c 0,-0.692 -0.168,-0.692 -1.207,-0.692 v -0.48 c 0.543,0.015 1.328,0.047 1.746,0.047 0.402,0 1.207,-0.032 1.73,-0.047 v 0.48 c -1.035,0 -1.203,0 -1.203,0.692 v 2.83899 c 0,1.61001 1.094,2.47301 2.082,2.47301 0.973,0 1.145,-0.836 1.145,-1.715 v -3.597 c 0,-0.692 -0.172,-0.692 -1.207,-0.692 v -0.48 c 0.542,0.015 1.332,0.047 1.75,0.047 0.398,0 1.199,-0.032 1.73,-0.047 v 0.48 c -1.039,0 -1.207,0 -1.207,0.692 v 2.83899 c 0,1.61001 1.098,2.47301 2.086,2.47301 0.973,0 1.144,-0.836 1.144,-1.715 v -3.597 c 0,-0.692 -0.171,-0.692 -1.207,-0.692 v -0.48 c 0.536,0.015 1.328,0.047 1.743,0.047 0.402,0 1.207,-0.032 1.73,-0.047 v 0.48 c -0.801,0 -1.187,0 -1.203,0.465 v 2.945 c 0,1.32799 0,1.80899 -0.477,2.36 -0.222,0.269 -0.73,0.57 -1.625,0.57 -1.297,0 -1.976,-0.922 -2.238,-1.508 -0.219,1.34 -1.359,1.508 -2.051,1.508 -1.129,0 -1.855,-0.66001 -2.289,-1.613 v 1.613 l -2.179,-0.168 v -0.48 c 1.082,0 1.207,-0.102 1.207,-0.86 z" /><path
         id="path1161"
         style="fill:#000000;fill-opacity:1;fill-rule:nonzero;stroke:none"
         d="m 417.23346,302.22399 v 0.031 l -0.004,0.004 v 0.008 l -0.004,0.003 -0.004,0.008 -0.004,0.004 -0.004,0.012 -0.004,0.004 -0.007,0.012 -0.004,0.007 -0.012,0.012 -0.004,0.008 -0.008,0.012 -0.008,0.007 -0.007,0.004 v 0.008 l -0.008,0.004 -0.008,0.008 -0.004,0.008 -0.008,0.007 -0.004,0.008 -0.011,0.008 -0.004,0.008 -0.028,0.027 -0.003,0.008 -0.012,0.008 -0.008,0.012 -0.039,0.039 -0.016,0.011 -0.007,0.012 -0.024,0.024 c -1.93,1.94499 -2.422,4.863 -2.422,7.226 0,2.688 0.586,5.375 2.485,7.30099 0.195,0.19101 0.195,0.22301 0.195,0.269 0,0.106 -0.055,0.149 -0.149,0.149 -0.152,0 -1.546,-1.04699 -2.453,-3.00399 -0.793,-1.703 -0.972,-3.418 -0.972,-4.715 0,-1.207 0.168,-3.07 1.015,-4.816 0.922,-1.903 2.258,-2.903 2.41,-2.903 0.094,0 0.149,0.043 0.149,0.15699 z" /><path
         id="path1163"
         style="fill:#000000;fill-opacity:1;fill-rule:nonzero;stroke:none"
         d="m 420.16646,307.20799 0.079,0.086 0.074,0.078 0.14,0.14799 0.075,0.075 0.062,0.066 0.067,0.07 0.066,0.063 0.121,0.121 0.063,0.059 0.168,0.168 0.109,0.101 0.105,0.10201 0.106,0.093 0.101,0.09 0.098,0.09 0.203,0.172 0.098,0.09 0.105,0.086 c 0,0.015 0.957,0.836 1.512,1.394 1.469,1.438 1.805,2.176 1.805,2.235 0,0.152 -0.137,0.152 -0.168,0.152 -0.106,0 -0.156,-0.027 -0.235,-0.168 -0.457,-0.738 -0.781,-0.988 -1.156,-0.988 -0.371,0 -0.555,0.234 -0.789,0.49599 -0.293,0.35901 -0.551,0.66001 -1.066,0.66001 -1.157,0 -1.864,-1.43 -1.864,-1.758 0,-0.074 0.043,-0.164 0.184,-0.164 0.141,0 0.172,0.074 0.199,0.164 0.297,0.715 1.192,0.731 1.313,0.731 0.324,0 0.621,-0.11401 0.972,-0.235 0.621,-0.23001 0.793,-0.23001 1.192,-0.23001 -0.555,-0.66399 -1.852,-1.781 -2.145,-2.024 l -1.39,-1.29599 c -1.051,-1.036 -1.59,-1.91501 -1.59,-2.024 0,-0.15601 0.152,-0.15601 0.179,-0.15601 0.129,0 0.157,0.031 0.25,0.19901 0.356,0.543 0.817,0.961 1.313,0.961 0.359,0 0.512,-0.14501 0.894,-0.586 0.266,-0.32401 0.543,-0.57401 0.989,-0.57401 1.531,0 2.426,1.96101 2.426,2.37901 0,0.078 -0.063,0.15199 -0.184,0.15199 -0.141,0 -0.168,-0.09 -0.219,-0.199 -0.351,-1.004 -1.34,-1.293 -1.851,-1.293 -0.309,0 -0.59,0.09 -0.914,0.199 -0.524,0.19901 -0.754,0.258 -1.082,0.258 -0.028,0 -0.274,0 -0.415,-0.043 z" /><path
         id="path1165"
         style="fill:#000000;fill-opacity:1;fill-rule:nonzero;stroke:none"
         d="m 430.42046,309.786 v 0.23399 l -0.004,0.12201 -0.003,0.12799 -0.016,0.25801 -0.016,0.274 -0.027,0.28499 -0.031,0.293 -0.043,0.30101 -0.047,0.316 -0.063,0.313 -0.07,0.31999 -0.086,0.32401 -0.094,0.332 -0.105,0.33199 -0.121,0.32801 -0.07,0.164 -0.067,0.168 -0.074,0.164 -0.078,0.16399 c -0.926,1.895 -2.25,2.899 -2.406,2.899 -0.094,0 -0.157,-0.059 -0.157,-0.149 0,-0.046 0,-0.078 0.289,-0.359 1.516,-1.523 2.399,-3.98 2.399,-7.211 0,-2.641 -0.574,-5.355 -2.488,-7.305 -0.2,-0.183 -0.2,-0.214 -0.2,-0.257 0,-0.094 0.063,-0.157 0.157,-0.157 0.156,0 1.539,1.051 2.453,3.008 0.785,1.695 0.968,3.41 0.968,4.71101 z" /></g><g
       id="g1185" /><g
       transform="translate(363.10446,160.48799)"
       id="g1209"><g
         clip-path="url(#clipPath1189)"
         id="g1207"><g
           transform="translate(0,-0.420685)"
           id="g1205"><g
             id="g1203"><g
               clip-path="url(#clipPath1193)"
               id="g1201"><g
                 id="g1199"><g
                   transform="matrix(1,0,0,-1,0,317)"
                   id="g1197"><path
                     d="m 136.477,245.883 c 0,34.535 -27.993,62.531 -62.524,62.535 -34.535,0 -62.531,-27.988 -62.539,-62.52 -0.008,-34.535 27.981,-62.535 62.512,-62.546 34.535,-0.012 62.539,27.972 62.551,62.507 l -62.532,0.024 z"
                     style="fill:none;stroke:#000000;stroke-width:0.648;stroke-linecap:butt;stroke-linejoin:miter;stroke-miterlimit:4;stroke-dasharray:none;stroke-opacity:1"
                     id="path1195" /></g></g></g></g></g></g></g><path
       id="path1217"
       style="fill:none;stroke:#000000;stroke-width:1.296;stroke-linecap:butt;stroke-linejoin:miter;stroke-miterlimit:4;stroke-dasharray:none;stroke-opacity:1"
       d="M 178.699,231.18431 H 345.336" /><path
       d="m 338.559,234.322 8.496,-3.122 -8.496,-3.125 c 1.355,1.844 1.347,4.368 0,6.247 z"
       style="fill:#000000;fill-opacity:1;fill-rule:evenodd;stroke:none"
       id="path1219" /><path
       d="m 248.059,223.29 v 0.41 l -0.008,0.207 -0.012,0.204 -0.008,0.207 -0.019,0.203 -0.02,0.207 -0.027,0.199 -0.031,0.203 -0.039,0.199 -0.043,0.2 -0.055,0.199 -0.055,0.195 -0.07,0.195 -0.078,0.192 -0.039,0.097 -0.047,0.094 c -0.629,1.321 -1.754,1.543 -2.332,1.543 -0.821,0 -1.824,-0.359 -2.391,-1.637 -0.437,-0.949 -0.504,-2.019 -0.504,-3.117 0,-1.031 0.055,-2.265 0.617,-3.304 0.59,-1.114 1.594,-1.387 2.266,-1.387 v 0.301 c -0.535,0 -1.348,0.343 -1.594,1.66 -0.148,0.82 -0.148,2.082 -0.148,2.898 0,0.875 0,1.781 0.109,2.524 0.258,1.632 1.289,1.757 1.633,1.757 0.453,0 1.359,-0.246 1.617,-1.609 0.137,-0.766 0.137,-1.812 0.137,-2.672 0,-1.031 0,-1.965 -0.148,-2.844 -0.208,-1.3 -0.993,-1.714 -1.606,-1.714 v -0.301 c 0.738,0 1.781,0.285 2.391,1.594 0.437,0.945 0.504,2.011 0.504,3.097 z"
       style="fill:#000000;fill-opacity:1;fill-rule:nonzero;stroke:none"
       id="path1221" /><g
       transform="translate(2.6415053,-3.659094)"
       id="g1836"><path
         id="path1223"
         style="fill:#000000;fill-opacity:1;fill-rule:nonzero;stroke:none"
         d="m 323.785,219.302 0.141,0.039 0.136,0.035 0.133,0.043 0.137,0.047 0.258,0.102 0.25,0.117 0.121,0.058 0.227,0.133 0.109,0.071 0.105,0.07 0.102,0.074 0.101,0.078 0.09,0.078 0.09,0.086 0.086,0.082 0.082,0.086 0.074,0.09 0.071,0.09 0.066,0.098 0.059,0.093 0.054,0.098 0.047,0.102 0.043,0.101 0.035,0.102 0.032,0.109 0.023,0.105 0.02,0.106 0.007,0.113 0.004,0.114 c 0,1.48 -1.758,2.777 -4.031,2.777 h -4.848 v -0.481 h 0.371 c 1.188,0 1.215,-0.164 1.215,-0.722 v -8.137 c 0,-0.559 -0.027,-0.727 -1.215,-0.727 h -0.371 v -0.48 c 0.551,0.051 1.653,0.051 2.254,0.051 0.598,0 1.699,0 2.258,-0.051 v 0.48 h -0.375 c -1.184,0 -1.219,0.168 -1.219,0.727 v 8.242 c 0,0.36 0,0.543 0.336,0.59 0.157,0.027 0.606,0.027 0.914,0.027 1.387,0 3.125,-0.058 3.125,-2.296 0,-1.067 -0.375,-2.317 -2.66,-2.317 h -1.715 v -0.344 h 1.778 c 0.246,0 0.894,0 1.433,-0.523 0.59,-0.555 0.59,-1.035 0.59,-2.07 0,-1.008 0,-1.621 0.629,-2.207 0.637,-0.555 1.481,-0.645 1.945,-0.645 1.207,0 1.469,1.258 1.469,1.695 0,0.094 0,0.262 -0.195,0.262 -0.172,0 -0.172,-0.141 -0.192,-0.246 -0.093,-1.098 -0.629,-1.375 -1.015,-1.375 -0.758,0 -0.883,0.789 -1.102,2.223 l -0.199,1.238 c -0.273,0.984 -1.035,1.5 -1.883,1.789 z" /><path
         id="path1225"
         style="fill:#000000;fill-opacity:1;fill-rule:nonzero;stroke:none"
         d="m 330.164,217.618 0.016,0.329 c 0.09,2.296 1.386,2.683 1.914,2.683 1.59,0 1.746,-2.082 1.746,-2.683 h -3.66 l -0.016,-0.329 h 4.313 c 0.335,0 0.378,0 0.378,0.329 0,1.523 -0.832,3.019 -2.761,3.019 -1.789,0 -3.215,-1.586 -3.215,-3.519 0,-2.067 1.621,-3.567 3.402,-3.567 1.883,0 2.574,1.715 2.574,2.008 0,0.152 -0.121,0.187 -0.195,0.187 -0.14,0 -0.172,-0.093 -0.207,-0.214 -0.535,-1.59 -1.926,-1.59 -2.082,-1.59 -0.773,0 -1.391,0.461 -1.742,1.031 -0.465,0.738 -0.465,1.762 -0.465,2.316 z" /><path
         id="path1227"
         style="fill:#000000;fill-opacity:1;fill-rule:nonzero;stroke:none"
         d="m 340.402,210.349 v 0.023 l -0.004,0.004 v 0.008 h -0.003 v 0.012 l -0.004,0.008 -0.008,0.007 -0.012,0.024 -0.008,0.008 -0.008,0.011 -0.019,0.02 -0.004,0.008 -0.004,0.004 -0.008,0.015 -0.008,0.004 -0.007,0.012 -0.004,0.004 -0.012,0.008 -0.004,0.007 -0.015,0.016 -0.008,0.012 -0.008,0.008 -0.012,0.007 -0.004,0.012 -0.008,0.008 -0.015,0.008 -0.016,0.023 -0.011,0.008 -0.012,0.016 -0.012,0.007 -0.023,0.024 c -1.926,1.949 -2.418,4.863 -2.418,7.226 0,2.688 0.582,5.379 2.48,7.301 0.199,0.192 0.199,0.223 0.199,0.27 0,0.109 -0.058,0.152 -0.148,0.152 -0.156,0 -1.547,-1.051 -2.457,-3.008 -0.789,-1.703 -0.977,-3.418 -0.977,-4.715 0,-1.207 0.172,-3.07 1.02,-4.816 0.926,-1.902 2.258,-2.902 2.414,-2.902 0.09,0 0.148,0.043 0.148,0.156 z" /><path
         id="path1229"
         style="fill:#000000;fill-opacity:1;fill-rule:nonzero;stroke:none"
         d="m 343.336,215.337 0.074,0.082 0.149,0.156 0.07,0.075 0.066,0.07 0.071,0.066 0.066,0.071 0.063,0.066 0.062,0.059 0.121,0.121 0.055,0.058 0.058,0.051 0.059,0.055 0.105,0.105 0.106,0.098 0.105,0.094 0.204,0.179 0.199,0.172 0.101,0.09 0.106,0.086 c 0,0.016 0.953,0.836 1.508,1.395 1.468,1.437 1.808,2.179 1.808,2.234 0,0.156 -0.14,0.156 -0.172,0.156 -0.105,0 -0.152,-0.031 -0.23,-0.168 -0.461,-0.742 -0.785,-0.988 -1.156,-0.988 -0.375,0 -0.559,0.23 -0.789,0.492 -0.293,0.36 -0.555,0.664 -1.067,0.664 -1.156,0 -1.863,-1.433 -1.863,-1.758 0,-0.078 0.043,-0.168 0.18,-0.168 0.14,0 0.171,0.079 0.199,0.168 0.297,0.711 1.195,0.727 1.316,0.727 0.32,0 0.617,-0.109 0.973,-0.231 0.621,-0.234 0.785,-0.234 1.191,-0.234 -0.558,-0.664 -1.855,-1.777 -2.148,-2.023 l -1.391,-1.297 c -1.051,-1.035 -1.594,-1.914 -1.594,-2.024 0,-0.156 0.157,-0.156 0.188,-0.156 0.125,0 0.156,0.031 0.246,0.199 0.359,0.543 0.816,0.961 1.313,0.961 0.355,0 0.511,-0.14 0.894,-0.586 0.27,-0.324 0.543,-0.574 0.992,-0.574 1.528,0 2.422,1.965 2.422,2.379 0,0.078 -0.062,0.156 -0.184,0.156 -0.136,0 -0.167,-0.09 -0.214,-0.203 -0.356,-1.004 -1.344,-1.293 -1.86,-1.293 -0.3,0 -0.586,0.09 -0.906,0.199 -0.523,0.2 -0.758,0.262 -1.082,0.262 -0.027,0 -0.277,0 -0.414,-0.043 z" /><path
         id="path1231"
         style="fill:#000000;fill-opacity:1;fill-rule:nonzero;stroke:none"
         d="m 353.59,217.911 v 0.114 l -0.008,0.242 -0.004,0.129 -0.012,0.258 -0.019,0.273 -0.024,0.285 -0.035,0.297 -0.039,0.301 -0.054,0.312 -0.059,0.317 -0.07,0.316 -0.082,0.328 -0.094,0.328 -0.11,0.332 -0.125,0.332 -0.062,0.164 -0.07,0.165 -0.075,0.164 -0.078,0.164 c -0.925,1.898 -2.254,2.902 -2.406,2.902 -0.09,0 -0.156,-0.059 -0.156,-0.152 0,-0.047 0,-0.078 0.293,-0.36 1.515,-1.523 2.398,-3.98 2.398,-7.211 0,-2.636 -0.574,-5.355 -2.492,-7.304 -0.199,-0.18 -0.199,-0.215 -0.199,-0.258 0,-0.094 0.066,-0.156 0.156,-0.156 0.152,0 1.539,1.05 2.457,3.011 0.785,1.696 0.969,3.407 0.969,4.707 z" /></g><g
       transform="translate(-1.1326847,0.92599294)"
       id="g1864"><path
         id="path1233"
         style="fill:#000000;fill-opacity:1;fill-rule:nonzero;stroke:none"
         d="m 212.746,314.341 v 0.145 l 0.004,0.046 0.004,0.043 0.008,0.079 0.011,0.035 0.008,0.035 0.012,0.031 0.016,0.031 0.015,0.028 0.02,0.031 0.023,0.023 0.055,0.047 0.035,0.02 0.035,0.015 0.02,0.012 0.019,0.008 0.071,0.023 0.023,0.004 0.027,0.008 0.028,0.004 0.027,0.008 0.031,0.008 0.094,0.011 0.039,0.004 0.035,0.004 0.039,0.004 0.035,0.004 0.043,0.004 h 0.043 l 0.043,0.004 h 0.047 l 0.047,0.004 h 0.047 l 0.047,0.004 h 0.617 v 0.48 c -0.543,-0.051 -1.758,-0.051 -2.344,-0.051 -0.601,0 -1.824,0 -2.367,0.051 v -0.48 h 0.402 c 1.219,0 1.27,-0.168 1.27,-0.727 v -8.137 c 0,-0.558 -0.051,-0.726 -1.27,-0.726 h -0.402 v -0.481 c 0.543,0.051 1.766,0.051 2.352,0.051 0.601,0 1.816,0 2.359,-0.051 v 0.481 h -0.398 c -1.223,0 -1.27,0.168 -1.27,0.726 z" /><path
         id="path1235"
         style="fill:#000000;fill-opacity:1;fill-rule:nonzero;stroke:none"
         d="m 216.551,310.314 v -4.145 c 0,-0.691 -0.168,-0.691 -1.207,-0.691 v -0.481 c 0.543,0.016 1.328,0.051 1.746,0.051 0.402,0 1.207,-0.035 1.73,-0.051 v 0.481 c -1.031,0 -1.203,0 -1.203,0.691 v 2.844 c 0,1.609 1.094,2.469 2.082,2.469 0.973,0 1.145,-0.832 1.145,-1.711 v -3.602 c 0,-0.691 -0.172,-0.691 -1.207,-0.691 v -0.481 c 0.543,0.016 1.332,0.051 1.75,0.051 0.398,0 1.199,-0.035 1.73,-0.051 v 0.481 c -1.039,0 -1.207,0 -1.207,0.691 v 2.844 c 0,1.609 1.098,2.469 2.086,2.469 0.973,0 1.145,-0.832 1.145,-1.711 v -3.602 c 0,-0.691 -0.172,-0.691 -1.207,-0.691 v -0.481 c 0.535,0.016 1.328,0.051 1.742,0.051 0.402,0 1.207,-0.035 1.73,-0.051 v 0.481 c -0.801,0 -1.187,0 -1.203,0.465 v 2.949 c 0,1.328 0,1.808 -0.476,2.359 -0.219,0.266 -0.731,0.571 -1.625,0.571 -1.297,0 -1.973,-0.926 -2.239,-1.508 -0.215,1.34 -1.359,1.508 -2.051,1.508 -1.128,0 -1.855,-0.665 -2.289,-1.614 v 1.614 l -2.179,-0.168 v -0.481 c 1.082,0 1.207,-0.105 1.207,-0.859 z" /><path
         id="path1237"
         style="fill:#000000;fill-opacity:1;fill-rule:nonzero;stroke:none"
         d="m 232.832,301.294 v 0.028 h -0.004 v 0.007 l -0.004,0.004 v 0.004 l -0.004,0.008 -0.004,0.004 v 0.008 l -0.007,0.007 -0.008,0.016 -0.008,0.012 -0.008,0.008 -0.015,0.023 -0.008,0.004 -0.004,0.008 -0.012,0.012 -0.004,0.007 -0.035,0.035 -0.008,0.012 -0.015,0.016 -0.008,0.012 -0.008,0.007 -0.012,0.008 -0.008,0.012 -0.011,0.008 -0.012,0.011 -0.008,0.012 -0.012,0.012 -0.011,0.008 -0.012,0.011 -0.012,0.016 c -1.929,1.945 -2.422,4.863 -2.422,7.223 0,2.687 0.586,5.379 2.485,7.304 0.199,0.188 0.199,0.219 0.199,0.266 0,0.109 -0.059,0.152 -0.148,0.152 -0.157,0 -1.547,-1.047 -2.457,-3.007 -0.789,-1.7 -0.973,-3.415 -0.973,-4.715 0,-1.203 0.168,-3.067 1.016,-4.817 0.925,-1.898 2.257,-2.902 2.414,-2.902 0.089,0 0.148,0.047 0.148,0.156 z" /><path
         id="path1239"
         style="fill:#000000;fill-opacity:1;fill-rule:nonzero;stroke:none"
         d="m 235.762,306.282 0.078,0.082 0.074,0.079 0.07,0.078 0.145,0.144 0.066,0.071 0.063,0.066 0.129,0.129 0.062,0.058 0.117,0.118 0.055,0.05 0.055,0.059 0.109,0.102 0.106,0.097 0.105,0.094 0.203,0.18 0.199,0.175 0.102,0.09 0.105,0.086 c 0,0.016 0.954,0.832 1.508,1.391 1.469,1.437 1.809,2.18 1.809,2.234 0,0.157 -0.141,0.157 -0.172,0.157 -0.105,0 -0.156,-0.028 -0.23,-0.168 -0.461,-0.743 -0.786,-0.989 -1.157,-0.989 -0.375,0 -0.558,0.231 -0.793,0.492 -0.289,0.36 -0.55,0.665 -1.066,0.665 -1.156,0 -1.863,-1.434 -1.863,-1.758 0,-0.078 0.043,-0.168 0.183,-0.168 0.145,0 0.172,0.078 0.199,0.168 0.297,0.715 1.192,0.726 1.313,0.726 0.324,0 0.621,-0.109 0.976,-0.23 0.618,-0.235 0.79,-0.235 1.188,-0.235 -0.555,-0.66 -1.852,-1.777 -2.145,-2.023 l -1.386,-1.293 c -1.051,-1.035 -1.594,-1.918 -1.594,-2.027 0,-0.153 0.152,-0.153 0.184,-0.153 0.125,0 0.152,0.032 0.246,0.2 0.355,0.539 0.82,0.96 1.312,0.96 0.36,0 0.512,-0.144 0.895,-0.585 0.265,-0.329 0.543,-0.575 0.988,-0.575 1.531,0 2.43,1.961 2.43,2.375 0,0.078 -0.067,0.157 -0.188,0.157 -0.14,0 -0.168,-0.09 -0.219,-0.204 -0.351,-1.003 -1.339,-1.289 -1.851,-1.289 -0.309,0 -0.59,0.09 -0.91,0.196 -0.528,0.199 -0.758,0.261 -1.082,0.261 -0.032,0 -0.278,0 -0.418,-0.043 z" /><path
         id="path1241"
         style="fill:#000000;fill-opacity:1;fill-rule:nonzero;stroke:none"
         d="m 246.016,308.857 v 0.238 l -0.004,0.121 -0.004,0.125 -0.012,0.262 -0.019,0.273 -0.024,0.285 -0.031,0.293 -0.043,0.301 -0.051,0.313 -0.062,0.316 -0.071,0.32 -0.086,0.325 -0.093,0.328 -0.106,0.332 -0.121,0.332 -0.07,0.164 -0.067,0.164 -0.074,0.164 -0.078,0.164 c -0.926,1.898 -2.25,2.902 -2.406,2.902 -0.094,0 -0.153,-0.058 -0.153,-0.152 0,-0.047 0,-0.078 0.286,-0.355 1.515,-1.528 2.398,-3.985 2.398,-7.215 0,-2.637 -0.57,-5.356 -2.488,-7.301 -0.196,-0.184 -0.196,-0.219 -0.196,-0.262 0,-0.094 0.059,-0.156 0.153,-0.156 0.156,0 1.539,1.051 2.457,3.012 0.781,1.695 0.965,3.41 0.965,4.707 z" /></g><g
       id="g1261" /><g
       id="g1285"><g
         clip-path="url(#clipPath1265)"
         id="g1283"><g
           transform="translate(0,-0.420685)"
           id="g1281"><g
             id="g1279"><g
               clip-path="url(#clipPath1269)"
               id="g1277"><g
                 id="g1275"><g
                   transform="matrix(1,0,0,-1,0,317)"
                   id="g1273"><path
                     d="m 315.176,85.027 c 0,34.532 -27.992,62.528 -62.524,62.532 -34.535,0.003 -62.531,-27.985 -62.539,-62.52 -0.008,-34.531 27.981,-62.535 62.512,-62.543 34.535,-0.012 62.539,27.973 62.551,62.508 l -62.531,0.023 z"
                     style="fill:none;stroke:#000000;stroke-width:0.648;stroke-linecap:butt;stroke-linejoin:miter;stroke-miterlimit:4;stroke-dasharray:none;stroke-opacity:1"
                     id="path1271" /></g></g></g></g></g></g></g><path
       id="path1293"
       style="fill:none;stroke:#000000;stroke-width:1.296;stroke-linecap:butt;stroke-linejoin:miter;stroke-miterlimit:4;stroke-dasharray:none;stroke-opacity:1"
       d="m 541.80346,230.81731 h 166.637" /><path
       d="m 701.66346,233.954 8.496,-3.125 -8.496,-3.125 c 1.355,1.84799 1.347,4.37099 0,6.25 z"
       style="fill:#000000;fill-opacity:1;fill-rule:evenodd;stroke:none"
       id="path1295" /><path
       d="m 611.16346,222.923 v 0.40999 l -0.008,0.207 -0.012,0.203 -0.008,0.207 -0.039,0.406 -0.027,0.20401 -0.031,0.199 -0.039,0.20299 -0.043,0.195 -0.11,0.399 -0.07,0.19101 -0.078,0.195 -0.039,0.094 -0.047,0.094 c -0.629,1.324 -1.754,1.54301 -2.332,1.54301 -0.821,0 -1.824,-0.356 -2.391,-1.637 -0.437,-0.945 -0.504,-2.01901 -0.504,-3.113 0,-1.03101 0.055,-2.26601 0.617,-3.30901 0.59,-1.109 1.594,-1.387 2.266,-1.387 v 0.301 c -0.535,0 -1.348,0.348 -1.594,1.66401 -0.148,0.82099 -0.148,2.082 -0.148,2.899 0,0.875 0,1.77699 0.109,2.519 0.258,1.637 1.289,1.75799 1.633,1.75799 0.453,0 1.359,-0.24599 1.617,-1.605 0.137,-0.766 0.137,-1.813 0.137,-2.67199 0,-1.03501 0,-1.96501 -0.148,-2.84401 -0.208,-1.30499 -0.993,-1.719 -1.606,-1.719 v -0.301 c 0.738,0 1.781,0.29 2.391,1.594 0.437,0.946 0.504,2.016 0.504,3.10201 z"
       style="fill:#000000;fill-opacity:1;fill-rule:nonzero;stroke:none"
       id="path1297" /><g
       transform="translate(0.11004924,-3.659094)"
       id="g1850"><path
         id="path1299"
         style="fill:#000000;fill-opacity:1;fill-rule:nonzero;stroke:none"
         d="m 686.88946,218.935 0.141,0.035 0.136,0.039 0.133,0.043 0.137,0.047 0.258,0.101 0.125,0.055 0.125,0.058 0.121,0.063 0.113,0.062 0.114,0.071 0.109,0.066 0.105,0.07 0.102,0.075 0.101,0.078 0.18,0.16399 0.086,0.086 0.082,0.086 0.074,0.09 0.071,0.089 0.066,0.098 0.059,0.09 0.054,0.101 0.047,0.098 0.043,0.102 0.035,0.105 0.032,0.10601 0.023,0.10499 0.02,0.10901 0.007,0.114 0.004,0.10899 c 0,1.481 -1.758,2.781 -4.031,2.781 h -4.848 V 223.751 h 0.371 c 1.188,0 1.215,-0.16801 1.215,-0.727 v -8.136 c 0,-0.559 -0.027,-0.72301 -1.215,-0.72301 h -0.371 V 213.685 c 0.551,0.046 1.653,0.046 2.254,0.046 0.598,0 1.699,0 2.258,-0.046 v 0.47999 h -0.375 c -1.184,0 -1.219,0.16401 -1.219,0.72301 v 8.24199 c 0,0.35901 0,0.54301 0.336,0.594 0.157,0.027 0.606,0.027 0.914,0.027 1.387,0 3.125,-0.063 3.125,-2.30101 0,-1.066 -0.375,-2.316 -2.66,-2.316 h -1.715 v -0.344 h 1.778 c 0.246,0 0.894,0 1.433,-0.52 0.59,-0.558 0.59,-1.039 0.59,-2.07 0,-1.008 0,-1.621 0.629,-2.207 0.637,-0.55799 1.481,-0.648 1.945,-0.648 1.207,0 1.469,1.261 1.469,1.699 0,0.094 0,0.262 -0.195,0.262 -0.172,0 -0.172,-0.141 -0.192,-0.246 -0.093,-1.102 -0.629,-1.375 -1.015,-1.375 -0.758,0 -0.883,0.789 -1.102,2.222 l -0.199,1.235 c -0.273,0.988 -1.035,1.5 -1.883,1.79301 z" /><path
         id="path1301"
         style="fill:#000000;fill-opacity:1;fill-rule:nonzero;stroke:none"
         d="m 693.26846,217.251 0.016,0.32399 c 0.09,2.30101 1.386,2.684 1.914,2.684 1.59,0 1.746,-2.082 1.746,-2.684 h -3.66 l -0.016,-0.32399 h 4.313 c 0.335,0 0.378,0 0.378,0.32399 0,1.52701 -0.832,3.024 -2.761,3.024 -1.789,0 -3.215,-1.58599 -3.215,-3.51999 0,-2.07001 1.621,-3.56601 3.402,-3.56601 1.883,0 2.574,1.714 2.574,2.004 0,0.15601 -0.121,0.191 -0.195,0.191 -0.14,0 -0.172,-0.094 -0.207,-0.219 -0.535,-1.58999 -1.926,-1.58999 -2.082,-1.58999 -0.773,0 -1.391,0.46099 -1.742,1.03199 -0.465,0.742 -0.465,1.765 -0.465,2.32001 z" /><path
         id="path1303"
         style="fill:#000000;fill-opacity:1;fill-rule:nonzero;stroke:none"
         d="m 703.50646,209.977 v 0.028 l -0.004,0.004 v 0.004 l -0.003,0.004 v 0.011 l -0.004,0.008 -0.008,0.004 -0.004,0.012 -0.004,0.004 -0.004,0.011 -0.016,0.016 -0.007,0.012 -0.012,0.011 -0.004,0.008 -0.004,0.004 -0.004,0.008 -0.019,0.019 -0.004,0.008 -0.012,0.004 -0.004,0.012 -0.008,0.004 -0.007,0.012 -0.008,0.007 -0.008,0.012 -0.012,0.008 -0.004,0.008 -0.008,0.011 -0.015,0.008 -0.008,0.008 -0.008,0.016 -0.011,0.007 -0.047,0.047 c -1.926,1.946 -2.418,4.86399 -2.418,7.22699 0,2.687 0.582,5.375 2.48,7.301 0.199,0.19101 0.199,0.218 0.199,0.26501 0,0.10999 -0.058,0.153 -0.148,0.153 -0.156,0 -1.547,-1.047 -2.457,-3.004 -0.789,-1.703 -0.977,-3.418 -0.977,-4.715 0,-1.207 0.172,-3.07 1.02,-4.82 0.926,-1.899 2.258,-2.899 2.414,-2.899 0.09,0 0.148,0.043 0.148,0.152 z" /><path
         id="path1305"
         style="fill:#000000;fill-opacity:1;fill-rule:nonzero;stroke:none"
         d="m 706.44046,214.966 0.074,0.086 0.074,0.074 0.075,0.078 0.07,0.074 0.066,0.074 0.071,0.067 0.066,0.066 0.063,0.067 0.121,0.12101 0.062,0.058 0.055,0.059 0.117,0.10901 0.211,0.203 0.105,0.09 0.204,0.18 0.199,0.176 0.101,0.09 0.106,0.086 c 0,0.015 0.953,0.836 1.508,1.39 1.468,1.442 1.808,2.18 1.808,2.235 0,0.15599 -0.14,0.15599 -0.172,0.15599 -0.105,0 -0.152,-0.028 -0.23,-0.16799 -0.461,-0.738 -0.785,-0.988 -1.156,-0.988 -0.375,0 -0.559,0.234 -0.789,0.492 -0.293,0.359 -0.555,0.66399 -1.067,0.66399 -1.156,0 -1.863,-1.42999 -1.863,-1.75799 0,-0.078 0.043,-0.168 0.18,-0.168 0.14,0 0.171,0.078 0.199,0.168 0.297,0.715 1.195,0.73 1.316,0.73 0.32,0 0.617,-0.113 0.973,-0.23401 0.621,-0.22999 0.785,-0.22999 1.191,-0.22999 -0.558,-0.66401 -1.855,-1.78201 -2.148,-2.024 l -1.391,-1.297 c -1.051,-1.035 -1.594,-1.918 -1.594,-2.023 0,-0.156 0.157,-0.156 0.188,-0.156 0.125,0 0.156,0.031 0.246,0.19899 0.359,0.543 0.816,0.96101 1.313,0.96101 0.355,0 0.511,-0.14501 0.894,-0.58601 0.27,-0.32799 0.543,-0.57399 0.992,-0.57399 1.528,0 2.422,1.96099 2.422,2.37899 0,0.074 -0.062,0.15201 -0.184,0.15201 -0.136,0 -0.167,-0.09 -0.214,-0.19901 -0.356,-1.00399 -1.344,-1.29299 -1.86,-1.29299 -0.3,0 -0.586,0.09 -0.906,0.199 -0.523,0.19499 -0.758,0.258 -1.082,0.258 -0.027,0 -0.277,0 -0.414,-0.043 z" /><path
         id="path1307"
         style="fill:#000000;fill-opacity:1;fill-rule:nonzero;stroke:none"
         d="m 716.69446,217.54399 v 0.113 l -0.008,0.24201 -0.004,0.125 -0.012,0.262 -0.019,0.274 -0.024,0.28499 -0.035,0.293 -0.039,0.3 -0.054,0.313 -0.059,0.31601 -0.07,0.32099 -0.082,0.324 -0.094,0.328 -0.11,0.332 -0.125,0.33201 -0.062,0.16399 -0.07,0.164 -0.075,0.164 -0.078,0.16401 c -0.925,1.899 -2.254,2.903 -2.406,2.903 -0.09,0 -0.156,-0.059 -0.156,-0.153 0,-0.047 0,-0.074 0.293,-0.35501 1.515,-1.524 2.398,-3.985 2.398,-7.211 0,-2.641 -0.574,-5.35899 -2.492,-7.30499 -0.199,-0.18301 -0.199,-0.21901 -0.199,-0.262 0,-0.089 0.066,-0.15201 0.156,-0.15201 0.152,0 1.539,1.05101 2.457,3.008 0.785,1.695 0.969,3.41 0.969,4.711 z" /></g><g
       transform="translate(-1.1326847)"
       id="g1878"><path
         id="path1309"
         style="fill:#000000;fill-opacity:1;fill-rule:nonzero;stroke:none"
         d="m 575.85046,315.26699 v 0.148 l 0.004,0.047 0.008,0.078 0.004,0.043 0.011,0.031 0.008,0.039 0.012,0.032 0.016,0.031 0.015,0.027 0.02,0.027 0.051,0.051 0.027,0.02 0.07,0.039 0.02,0.008 0.019,0.011 0.024,0.004 0.023,0.012 0.024,0.004 0.023,0.008 0.027,0.004 0.028,0.007 0.027,0.004 0.063,0.016 h 0.031 l 0.031,0.004 0.039,0.008 0.035,0.004 h 0.039 l 0.035,0.003 0.129,0.012 h 0.141 l 0.047,0.004 h 0.617 v 0.481 c -0.543,-0.051 -1.758,-0.051 -2.344,-0.051 -0.601,0 -1.824,0 -2.367,0.051 v -0.481 h 0.402 c 1.219,0 1.27,-0.168 1.27,-0.726 v -8.137 c 0,-0.555 -0.051,-0.723 -1.27,-0.723 h -0.402 v -0.48 c 0.543,0.047 1.766,0.047 2.352,0.047 0.601,0 1.816,0 2.359,-0.047 v 0.48 h -0.398 c -1.223,0 -1.27,0.168 -1.27,0.723 z" /><path
         id="path1311"
         style="fill:#000000;fill-opacity:1;fill-rule:nonzero;stroke:none"
         d="m 579.65546,311.239 v -4.14 c 0,-0.692 -0.168,-0.692 -1.207,-0.692 v -0.48 c 0.543,0.015 1.328,0.047 1.746,0.047 0.402,0 1.207,-0.032 1.73,-0.047 v 0.48 c -1.031,0 -1.203,0 -1.203,0.692 v 2.83899 c 0,1.61001 1.094,2.47301 2.082,2.47301 0.973,0 1.145,-0.836 1.145,-1.715 v -3.597 c 0,-0.692 -0.172,-0.692 -1.207,-0.692 v -0.48 c 0.543,0.015 1.332,0.047 1.75,0.047 0.398,0 1.199,-0.032 1.73,-0.047 v 0.48 c -1.039,0 -1.207,0 -1.207,0.692 v 2.83899 c 0,1.61001 1.098,2.47301 2.086,2.47301 0.973,0 1.145,-0.836 1.145,-1.715 v -3.597 c 0,-0.692 -0.172,-0.692 -1.207,-0.692 v -0.48 c 0.535,0.015 1.328,0.047 1.742,0.047 0.402,0 1.207,-0.032 1.73,-0.047 v 0.48 c -0.801,0 -1.187,0 -1.203,0.465 v 2.945 c 0,1.32799 0,1.80899 -0.476,2.36 -0.219,0.269 -0.731,0.57 -1.625,0.57 -1.297,0 -1.973,-0.922 -2.239,-1.508 -0.215,1.34 -1.359,1.508 -2.051,1.508 -1.128,0 -1.855,-0.66001 -2.289,-1.613 v 1.613 l -2.179,-0.168 v -0.48 c 1.082,0 1.207,-0.102 1.207,-0.86 z" /><path
         id="path1313"
         style="fill:#000000;fill-opacity:1;fill-rule:nonzero;stroke:none"
         d="m 595.93646,302.22399 v 0.023 l -0.004,0.004 v 0.004 l -0.004,0.004 v 0.008 l -0.004,0.003 -0.004,0.008 v 0.004 l -0.007,0.012 -0.004,0.004 -0.004,0.012 -0.008,0.007 -0.008,0.012 -0.008,0.008 -0.007,0.012 -0.012,0.011 -0.004,0.008 -0.008,0.004 -0.004,0.008 -0.015,0.015 -0.004,0.008 -0.012,0.008 -0.004,0.008 -0.016,0.016 -0.007,0.011 -0.114,0.114 c -1.929,1.945 -2.422,4.86301 -2.422,7.226 0,2.688 0.586,5.375 2.485,7.301 0.199,0.191 0.199,0.223 0.199,0.269 0,0.106 -0.059,0.149 -0.148,0.149 -0.157,0 -1.547,-1.047 -2.457,-3.004 -0.789,-1.70299 -0.973,-3.418 -0.973,-4.715 0,-1.207 0.168,-3.06999 1.016,-4.816 0.925,-1.90299 2.257,-2.90299 2.414,-2.90299 0.089,0 0.148,0.043 0.148,0.15699 z" /><path
         id="path1315"
         style="fill:#000000;fill-opacity:1;fill-rule:nonzero;stroke:none"
         d="m 598.86646,307.20799 0.078,0.086 0.074,0.078 0.07,0.074 0.075,0.074 0.07,0.075 0.066,0.066 0.063,0.07 0.066,0.063 0.063,0.062 0.062,0.059 0.227,0.227 0.109,0.101 0.106,0.102 0.105,0.093 0.203,0.18001 0.199,0.172 0.102,0.09 0.105,0.086 c 0,0.015 0.954,0.836 1.508,1.394 1.469,1.438 1.809,2.176 1.809,2.235 0,0.152 -0.141,0.152 -0.172,0.152 -0.105,0 -0.156,-0.027 -0.23,-0.168 -0.461,-0.738 -0.786,-0.988 -1.157,-0.988 -0.375,0 -0.558,0.234 -0.793,0.496 -0.289,0.359 -0.55,0.66 -1.066,0.66 -1.156,0 -1.863,-1.43 -1.863,-1.758 0,-0.074 0.043,-0.164 0.183,-0.164 0.145,0 0.172,0.074 0.199,0.164 0.297,0.715 1.192,0.731 1.313,0.731 0.324,0 0.621,-0.11401 0.976,-0.235 0.618,-0.23001 0.79,-0.23001 1.188,-0.23001 -0.555,-0.66399 -1.852,-1.78099 -2.145,-2.024 l -1.386,-1.29599 c -1.051,-1.036 -1.594,-1.915 -1.594,-2.024 0,-0.15601 0.152,-0.15601 0.184,-0.15601 0.125,0 0.152,0.031 0.246,0.19901 0.355,0.543 0.82,0.961 1.312,0.961 0.36,0 0.512,-0.145 0.895,-0.586 0.265,-0.32401 0.543,-0.57401 0.988,-0.57401 1.531,0 2.43,1.96101 2.43,2.37901 0,0.078 -0.067,0.152 -0.188,0.152 -0.14,0 -0.168,-0.09 -0.219,-0.19901 -0.351,-1.004 -1.339,-1.293 -1.851,-1.293 -0.309,0 -0.59,0.09 -0.91,0.199 -0.528,0.19901 -0.758,0.258 -1.082,0.258 -0.032,0 -0.278,0 -0.418,-0.043 z" /><path
         id="path1317"
         style="fill:#000000;fill-opacity:1;fill-rule:nonzero;stroke:none"
         d="m 609.12046,309.786 v 0.23399 l -0.004,0.12201 -0.004,0.12799 -0.012,0.25801 -0.019,0.274 -0.024,0.28499 -0.031,0.293 -0.043,0.30101 -0.051,0.316 -0.062,0.313 -0.071,0.31999 -0.086,0.32401 -0.093,0.332 -0.106,0.33199 -0.121,0.32801 -0.07,0.164 -0.067,0.168 -0.074,0.164 -0.078,0.16399 c -0.926,1.895 -2.25,2.899 -2.406,2.899 -0.094,0 -0.153,-0.059 -0.153,-0.149 0,-0.046 0,-0.078 0.286,-0.359 1.515,-1.523 2.398,-3.98 2.398,-7.211 0,-2.641 -0.57,-5.355 -2.488,-7.305 -0.196,-0.183 -0.196,-0.214 -0.196,-0.257 0,-0.094 0.059,-0.157 0.153,-0.157 0.156,0 1.539,1.051 2.457,3.008 0.781,1.695 0.965,3.41 0.965,4.71101 z" /></g><g
       id="g1337" /><g
       transform="translate(363.10446,160.48799)"
       id="g1361"><g
         clip-path="url(#clipPath1341)"
         id="g1359"><g
           transform="translate(0,-0.420685)"
           id="g1357"><g
             id="g1355"><g
               clip-path="url(#clipPath1345)"
               id="g1353"><g
                 id="g1351"><g
                   transform="matrix(1,0,0,-1,0,317)"
                   id="g1349"><path
                     d="m 315.176,245.883 c 0,34.535 -27.992,62.531 -62.524,62.535 -34.535,0 -62.531,-27.988 -62.539,-62.52 -0.008,-34.535 27.981,-62.535 62.512,-62.546 34.535,-0.012 62.539,27.972 62.551,62.507 l -62.531,0.024 z"
                     style="fill:none;stroke:#000000;stroke-width:0.648;stroke-linecap:butt;stroke-linejoin:miter;stroke-miterlimit:4;stroke-dasharray:none;stroke-opacity:1"
                     id="path1347" /></g></g></g></g></g></g></g><path
       id="path1369"
       style="fill:#6da4bf;fill-opacity:1;fill-rule:nonzero;stroke:#000000;stroke-width:0.7776;stroke-linecap:butt;stroke-linejoin:miter;stroke-miterlimit:4;stroke-dasharray:none;stroke-opacity:1"
       d="m 15.949,231.22731 c 0,-2.578 -2.09,-4.664 -4.664,-4.664 -2.578,0 -4.668,2.086 -4.668,4.664 0,2.579 2.09,4.668 4.668,4.668 2.574,0 4.664,-2.089 4.664,-4.668 z" /><path
       id="path1373"
       style="fill:#38c873;fill-opacity:1;fill-rule:nonzero;stroke:#000000;stroke-width:0.7776;stroke-linecap:butt;stroke-linejoin:miter;stroke-miterlimit:4;stroke-dasharray:none;stroke-opacity:1"
       d="m 219.29298,289.62681 c 2.23457,1.2888 5.086,0.52307 6.37507,-1.70735 1.28907,-2.23042 0.52307,-5.086 -1.70709,-6.37092 -2.234,-1.2898 -5.08569,-0.52822 -6.37449,1.70636 -1.28907,2.23042 -0.52392,5.08284 1.70651,6.37191 z" /><path
       id="path1377"
       style="fill:#38c873;fill-opacity:1;fill-rule:nonzero;stroke:#000000;stroke-width:0.7776;stroke-linecap:butt;stroke-linejoin:miter;stroke-miterlimit:4;stroke-dasharray:none;stroke-opacity:1"
       d="m 219.02791,173.63422 c -2.23531,1.28522 -2.99615,4.14049 -1.71124,6.37064 1.28907,2.23043 4.14465,2.99642 6.37508,1.70736 2.23042,-1.28907 2.99615,-4.1405 1.70708,-6.37092 -1.2888,-2.23458 -4.14049,-2.99615 -6.37092,-1.70708 z" /><path
       id="path1381"
       style="fill:#c05e78;fill-opacity:1;fill-rule:nonzero;stroke:#000000;stroke-width:0.7776;stroke-linecap:butt;stroke-linejoin:miter;stroke-miterlimit:4;stroke-dasharray:none;stroke-opacity:1"
       d="m 379.20246,230.8603 c 0,-2.578 -2.086,-4.668 -4.664,-4.668 -2.579,0 -4.664,2.09 -4.664,4.668 0,2.574 2.085,4.66401 4.664,4.66401 2.578,0 4.664,-2.09001 4.664,-4.66401 z" /><path
       id="path1385"
       style="fill:#c175c2;fill-opacity:1;fill-rule:nonzero;stroke:#000000;stroke-width:0.777601;stroke-linecap:butt;stroke-linejoin:miter;stroke-miterlimit:4;stroke-dasharray:none;stroke-opacity:1"
       d="m 636.7063,295.37233 c 2.453,-0.79704 3.79306,-3.43033 2.99633,-5.879 -0.79705,-2.44967 -3.43032,-3.79305 -5.879,-2.99632 -2.44967,0.79705 -3.79338,3.42931 -2.99633,5.87898 0.79703,2.45301 3.429,3.79239 5.879,2.99634 z" /><path
       id="path1389"
       style="fill:#c175c2;fill-opacity:1;fill-rule:nonzero;stroke:#000000;stroke-width:0.777601;stroke-linecap:butt;stroke-linejoin:miter;stroke-miterlimit:4;stroke-dasharray:none;stroke-opacity:1"
       d="m 635.63226,167.25144 c -2.44968,-0.79705 -5.08194,0.54666 -5.87867,2.99533 -0.79706,2.44968 0.54665,5.08195 2.99533,5.87867 2.44967,0.79706 5.08164,-0.54233 5.87867,-2.99533 0.79705,-2.44967 -0.54666,-5.08194 -2.99533,-5.87867 z" /><path
       id="path1393"
       style="fill:#c175c2;fill-opacity:1;fill-rule:nonzero;stroke:#000000;stroke-width:0.777601;stroke-linecap:butt;stroke-linejoin:miter;stroke-miterlimit:4;stroke-dasharray:none;stroke-opacity:1"
       d="m 561.87415,270.68085 c 1.51094,2.08173 4.42979,2.54314 6.51525,1.03103 2.086,-1.51556 2.54641,-4.4337 1.03084,-6.5197 -1.51093,-2.08173 -4.42924,-2.5466 -6.51524,-1.03103 -2.086,1.51558 -2.54642,4.4337 -1.03085,6.5197 z" /><path
       id="path1397"
       style="fill:#c175c2;fill-opacity:1;fill-rule:nonzero;stroke:#000000;stroke-width:0.777601;stroke-linecap:butt;stroke-linejoin:miter;stroke-miterlimit:4;stroke-dasharray:none;stroke-opacity:1"
       d="m 561.49148,192.21167 c -1.51557,2.086 -1.0507,5.00431 1.03102,6.51525 2.086,1.51557 5.00413,1.05515 6.5197,-1.03085 1.51212,-2.08545 1.0507,-5.00431 -1.03102,-6.51525 -2.086,-1.51556 -5.00413,-1.05515 -6.5197,1.03085 z" /><path
       sodipodi:nodetypes="cc"
       id="path1401"
       style="fill:none;stroke:#000000;stroke-width:1.296;stroke-linecap:butt;stroke-linejoin:miter;stroke-miterlimit:4;stroke-dasharray:none;stroke-opacity:1"
       d="m 74.078,164.87324 v 88.31907" /><path
       id="path1405"
       style="fill:none;stroke:#000000;stroke-width:1.296;stroke-linecap:butt;stroke-linejoin:miter;stroke-miterlimit:4;stroke-dasharray:none;stroke-opacity:1"
       d="m 252.797,278.55931 v 32.305" /><path
       d="m 249.66,304.083 3.125,8.496 3.125,-8.496 c -1.844,1.356 -4.367,1.348 -6.25,0 z"
       style="fill:#000000;fill-opacity:1;fill-rule:evenodd;stroke:none"
       id="path1407" /><path
       sodipodi:nodetypes="cc"
       id="path1411"
       style="fill:none;stroke:#000000;stroke-width:1.296;stroke-linecap:butt;stroke-linejoin:miter;stroke-miterlimit:4;stroke-dasharray:none;stroke-opacity:1"
       d="m 252.797,164.87324 v 88.31907" /><path
       id="path1415"
       style="fill:none;stroke:#000000;stroke-width:1.296;stroke-linecap:butt;stroke-linejoin:miter;stroke-miterlimit:4;stroke-dasharray:none;stroke-opacity:1"
       d="m 437.18246,278.4223 v 32.305" /><path
       d="m 434.04546,303.946 3.125,8.496 3.125,-8.496 c -1.843,1.36 -4.367,1.352 -6.25,0 z"
       style="fill:#000000;fill-opacity:1;fill-rule:evenodd;stroke:none"
       id="path1417" /><path
       sodipodi:nodetypes="cc"
       id="path1421"
       style="fill:none;stroke:#000000;stroke-width:1.296;stroke-linecap:butt;stroke-linejoin:miter;stroke-miterlimit:4;stroke-dasharray:none;stroke-opacity:1"
       d="m 437.18246,164.87324 v 88.18207" /><path
       id="path1425"
       style="fill:none;stroke:#000000;stroke-width:1.296;stroke-linecap:butt;stroke-linejoin:miter;stroke-miterlimit:4;stroke-dasharray:none;stroke-opacity:1"
       d="m 615.90146,278.4223 v 32.305" /><path
       d="m 612.76446,303.946 3.125,8.496 3.125,-8.496 c -1.844,1.36 -4.367,1.352 -6.25,0 z"
       style="fill:#000000;fill-opacity:1;fill-rule:evenodd;stroke:none"
       id="path1427" /><path
       sodipodi:nodetypes="cc"
       id="path1431"
       style="fill:none;stroke:#000000;stroke-width:1.296;stroke-linecap:butt;stroke-linejoin:miter;stroke-miterlimit:4;stroke-dasharray:none;stroke-opacity:1"
       d="m 615.90146,164.87324 v 88.18207" /><path
       id="path1435"
       style="fill:#c05e78;fill-opacity:1;fill-rule:nonzero;stroke:#000000;stroke-width:0.7776;stroke-linecap:butt;stroke-linejoin:miter;stroke-miterlimit:4;stroke-dasharray:none;stroke-opacity:1"
       d="m 441.97946,293.40331 c 0,-2.57401 -2.09,-4.664 -4.668,-4.664 -2.574,0 -4.664,2.09 -4.664,4.664 0,2.578 2.09,4.668 4.664,4.668 2.578,0 4.668,-2.09 4.668,-4.668 z" /><path
       id="path1439"
       style="fill:#c05e78;fill-opacity:1;fill-rule:nonzero;stroke:#000000;stroke-width:0.7776;stroke-linecap:butt;stroke-linejoin:miter;stroke-miterlimit:4;stroke-dasharray:none;stroke-opacity:1"
       d="m 441.97946,168.5443 c 0,-2.579 -2.09,-4.668 -4.668,-4.668 -2.574,0 -4.664,2.089 -4.664,4.668 0,2.57401 2.09,4.66401 4.664,4.66401 2.578,0 4.668,-2.09 4.668,-4.66401 z" /><path
       id="path1443"
       style="fill:none;stroke:#315b70;stroke-width:1.296;stroke-linecap:round;stroke-linejoin:round;stroke-miterlimit:4;stroke-dasharray:none;stroke-opacity:1"
       d="m 48.08155,276.91181 h 52.4079 v -21.681 h -52.4079 z" /><path
       id="path1447"
       style="fill:none;stroke:#31b165;stroke-width:1.296;stroke-linecap:round;stroke-linejoin:round;stroke-miterlimit:4;stroke-dasharray:none;stroke-opacity:1"
       d="m 226.93235,276.91181 h 52.4043 v -21.681 h -52.4043 z" /><path
       id="path1451"
       style="fill:none;stroke:#a95b70;stroke-width:1.296;stroke-linecap:round;stroke-linejoin:round;stroke-miterlimit:4;stroke-dasharray:none;stroke-opacity:1"
       d="m 411.18601,276.69281 h 52.4079 V 255.0118 h -52.4079 z" /><path
       id="path1455"
       style="fill:none;stroke:#974398;stroke-width:1.296;stroke-linecap:round;stroke-linejoin:round;stroke-miterlimit:4;stroke-dasharray:none;stroke-opacity:1"
       d="m 590.03681,276.69281 h 52.4043 V 255.0118 h -52.4043 z" /><g
       transform="translate(0.32227708)"
       id="g1902"><path
         id="path1457"
         style="fill:#000000;fill-opacity:1;fill-rule:evenodd;stroke:none"
         d="m 58.293,262.232 0.238,0.097 0.242,0.11 0.235,0.117 0.238,0.133 0.231,0.14 0.23,0.149 0.227,0.16 0.226,0.168 0.215,0.18 0.215,0.187 0.211,0.195 0.203,0.204 0.199,0.214 0.192,0.219 0.183,0.227 0.18,0.23 0.172,0.242 0.16,0.243 0.156,0.253 0.145,0.254 0.136,0.262 0.125,0.266 0.118,0.273 0.105,0.277 0.098,0.278 0.082,0.285 0.07,0.289 0.063,0.289 0.046,0.293 0.036,0.297 0.019,0.297 0.008,0.297 c 0,2.672 -1.758,4.457 -4.231,4.457 L 58.969,273.4 c 1.656,0 2.867,-1.289 2.867,-3.512 0,-1.656 -0.844,-5.535 -3.625,-7.09 -0.086,0.574 -0.25,1.785 -1.461,1.785 v -0.363 c 0.695,0 1.012,-0.398 1.012,-1.406 0,-0.25 -0.02,-0.266 -0.188,-0.332 -0.426,-0.184 -0.926,-0.297 -1.386,-0.297 -0.235,0 -0.766,0 -0.766,0.715 0,0.656 0.629,1.32 1.328,1.32 v 0.363 c -0.879,0 -1.691,-0.832 -1.691,-1.683 0,-0.336 0.101,-0.516 0.101,-0.536 -1.293,0.512 -1.855,1.805 -1.855,3.297 0,1.145 0.429,3.496 1.687,5.286 1.211,1.695 2.77,2.453 3.977,2.453 l 0.097,0.414 c -3.574,0 -7.222,-3.762 -7.222,-7.621 0,-2.75 1.855,-4.422 4.242,-4.422 0.414,0 0.98,0.066 1.625,0.25 -0.07,-1.032 -0.07,-1.063 -0.07,-1.282 0,-0.527 0,-1.824 1.379,-1.824 1.972,0 2.765,3.035 2.765,3.219 0,0.113 -0.117,0.164 -0.183,0.164 -0.129,0 -0.164,-0.082 -0.196,-0.184 -0.394,-1.175 -1.355,-1.589 -1.937,-1.589 -0.766,0 -1.016,0.449 -1.176,1.707 z" /><path
         id="path1459"
         style="fill:#000000;fill-opacity:1;fill-rule:evenodd;stroke:none"
         d="m 81.059,267.556 h 0.14 l 0.024,0.004 h 0.05 l 0.094,0.015 0.02,0.004 0.023,0.008 0.059,0.024 0.039,0.023 0.015,0.012 0.028,0.027 0.015,0.02 0.008,0.007 0.004,0.012 0.004,0.004 0.008,0.012 0.004,0.008 v 0.015 l 0.008,0.008 0.003,0.016 0.004,0.007 0.004,0.016 v 0.012 l 0.004,0.015 v 0.055 c 0,0.332 -0.312,0.332 -0.543,0.332 h -9.926 c -0.234,0 -0.55,0 -0.55,-0.332 0,-0.324 0.316,-0.324 0.562,-0.324 z" /><path
         id="path1461"
         style="fill:#000000;fill-opacity:1;fill-rule:evenodd;stroke:none"
         d="m 81.074,264.333 h 0.043 l 0.047,0.004 h 0.07 l 0.047,0.008 h 0.02 l 0.023,0.004 0.024,0.008 h 0.023 l 0.02,0.007 0.023,0.008 0.02,0.004 0.019,0.008 0.016,0.012 0.019,0.008 0.02,0.015 0.015,0.012 0.016,0.016 0.012,0.015 0.008,0.004 0.007,0.012 0.008,0.008 0.004,0.007 0.004,0.012 0.008,0.008 0.004,0.012 v 0.007 l 0.011,0.024 0.004,0.016 0.004,0.011 v 0.016 l 0.004,0.012 v 0.058 c 0,0.332 -0.312,0.332 -0.558,0.332 H 71.16 c -0.246,0 -0.562,0 -0.562,-0.332 0,-0.336 0.316,-0.336 0.55,-0.336 z" /><path
         id="path1463"
         style="fill:#000000;fill-opacity:1;fill-rule:evenodd;stroke:none"
         d="m 90.176,263.411 1.758,1.707 c 2.582,2.282 3.578,3.18 3.578,4.836 0,1.891 -1.489,3.219 -3.512,3.219 -1.875,0 -3.102,-1.531 -3.102,-3.004 0,-0.93 0.829,-0.93 0.875,-0.93 0.289,0 0.868,0.2 0.868,0.879 0,0.434 -0.297,0.868 -0.879,0.868 -0.129,0 -0.168,0 -0.215,-0.02 0.379,1.078 1.277,1.691 2.234,1.691 1.508,0 2.223,-1.347 2.223,-2.703 0,-1.324 -0.828,-2.636 -1.738,-3.664 l -3.18,-3.547 c -0.188,-0.179 -0.188,-0.211 -0.188,-0.609 h 6.149 l 0.465,2.883 h -0.414 c -0.086,-0.5 -0.2,-1.227 -0.364,-1.477 -0.121,-0.129 -1.211,-0.129 -1.574,-0.129 z" /></g><g
       transform="translate(1.3705502)"
       id="g1896"><path
         id="path1465"
         style="fill:#000000;fill-opacity:1;fill-rule:evenodd;stroke:none"
         d="m 236.293,262.232 0.238,0.097 0.242,0.11 0.235,0.117 0.238,0.133 0.231,0.14 0.23,0.149 0.227,0.16 0.226,0.168 0.215,0.18 0.215,0.187 0.211,0.195 0.203,0.204 0.199,0.214 0.192,0.219 0.183,0.227 0.18,0.23 0.172,0.242 0.16,0.243 0.156,0.253 0.145,0.254 0.136,0.262 0.125,0.266 0.118,0.273 0.105,0.277 0.098,0.278 0.082,0.285 0.07,0.289 0.063,0.289 0.046,0.293 0.036,0.297 0.019,0.297 0.008,0.297 c 0,2.672 -1.758,4.457 -4.231,4.457 l -0.097,-0.414 c 1.656,0 2.867,-1.289 2.867,-3.512 0,-1.656 -0.844,-5.535 -3.625,-7.09 -0.086,0.574 -0.25,1.785 -1.461,1.785 v -0.363 c 0.695,0 1.012,-0.398 1.012,-1.406 0,-0.25 -0.02,-0.266 -0.188,-0.332 -0.426,-0.184 -0.926,-0.297 -1.386,-0.297 -0.235,0 -0.766,0 -0.766,0.715 0,0.656 0.629,1.32 1.328,1.32 v 0.363 c -0.879,0 -1.691,-0.832 -1.691,-1.683 0,-0.336 0.101,-0.516 0.101,-0.536 -1.293,0.512 -1.855,1.805 -1.855,3.297 0,1.145 0.429,3.496 1.687,5.286 1.211,1.695 2.77,2.453 3.977,2.453 l 0.097,0.414 c -3.574,0 -7.222,-3.762 -7.222,-7.621 0,-2.75 1.855,-4.422 4.242,-4.422 0.414,0 0.98,0.066 1.625,0.25 -0.07,-1.032 -0.07,-1.063 -0.07,-1.282 0,-0.527 0,-1.824 1.379,-1.824 1.972,0 2.765,3.035 2.765,3.219 0,0.113 -0.117,0.164 -0.183,0.164 -0.129,0 -0.164,-0.082 -0.196,-0.184 -0.394,-1.175 -1.355,-1.589 -1.937,-1.589 -0.766,0 -1.016,0.449 -1.176,1.707 z" /><path
         id="path1467"
         style="fill:#000000;fill-opacity:1;fill-rule:evenodd;stroke:none"
         d="m 259.059,267.556 h 0.14 l 0.024,0.004 h 0.05 l 0.094,0.015 0.02,0.004 0.023,0.008 0.059,0.024 0.039,0.023 0.015,0.012 0.028,0.027 0.015,0.02 0.008,0.007 0.004,0.012 0.004,0.004 0.008,0.012 0.004,0.008 v 0.015 l 0.008,0.008 0.003,0.016 0.004,0.007 0.004,0.016 v 0.012 l 0.004,0.015 v 0.055 c 0,0.332 -0.312,0.332 -0.543,0.332 h -9.926 c -0.234,0 -0.55,0 -0.55,-0.332 0,-0.324 0.316,-0.324 0.562,-0.324 z" /><path
         id="path1469"
         style="fill:#000000;fill-opacity:1;fill-rule:evenodd;stroke:none"
         d="m 259.074,264.333 h 0.043 l 0.047,0.004 h 0.07 l 0.047,0.008 h 0.02 l 0.023,0.004 0.024,0.008 h 0.023 l 0.02,0.007 0.023,0.008 0.02,0.004 0.019,0.008 0.016,0.012 0.019,0.008 0.02,0.015 0.015,0.012 0.016,0.016 0.012,0.015 0.008,0.004 0.007,0.012 0.008,0.008 0.004,0.007 0.004,0.012 0.008,0.008 0.004,0.012 v 0.007 l 0.011,0.024 0.004,0.016 0.004,0.011 v 0.016 l 0.004,0.012 v 0.058 c 0,0.332 -0.312,0.332 -0.558,0.332 h -9.899 c -0.246,0 -0.562,0 -0.562,-0.332 0,-0.336 0.316,-0.336 0.55,-0.336 z" /><path
         id="path1471"
         style="fill:#000000;fill-opacity:1;fill-rule:evenodd;stroke:none"
         d="m 270.879,267.962 0.125,0.043 0.125,0.051 0.121,0.051 0.117,0.054 0.117,0.063 0.114,0.062 0.109,0.067 0.105,0.074 0.102,0.07 0.106,0.078 0.093,0.079 0.094,0.085 0.09,0.086 0.172,0.18 0.078,0.098 0.074,0.094 0.07,0.101 0.067,0.098 0.062,0.109 0.059,0.106 0.055,0.105 0.046,0.109 0.047,0.114 0.035,0.113 0.04,0.113 0.027,0.117 0.023,0.122 0.02,0.117 0.016,0.121 0.003,0.117 0.004,0.125 c 0,1.355 -1.461,2.289 -3.05,2.289 -1.672,0 -2.93,-1 -2.93,-2.254 0,-0.551 0.363,-0.867 0.847,-0.867 0.512,0 0.844,0.367 0.844,0.848 0,0.824 -0.781,0.824 -1.023,0.824 0.508,0.812 1.605,1.031 2.199,1.031 0.676,0 1.59,-0.363 1.59,-1.855 0,-0.203 -0.035,-1.161 -0.465,-1.891 -0.496,-0.797 -1.062,-0.844 -1.469,-0.863 -0.136,-0.016 -0.535,-0.047 -0.652,-0.047 -0.129,-0.016 -0.25,-0.031 -0.25,-0.199 0,-0.18 0.121,-0.18 0.402,-0.18 h 0.727 c 1.363,0 1.973,-1.125 1.973,-2.758 0,-2.246 -1.145,-2.73 -1.876,-2.73 -0.71,0 -1.957,0.281 -2.531,1.257 0.574,-0.078 1.09,0.286 1.09,0.915 0,0.597 -0.445,0.925 -0.93,0.925 -0.39,0 -0.925,-0.23 -0.925,-0.961 0,-1.507 1.543,-2.597 3.347,-2.597 2.024,0 3.532,1.508 3.532,3.191 0,1.363 -1.047,2.652 -2.766,3 z" /></g><g
       transform="translate(1.702614,0.70717051)"
       id="g1884"><path
         id="path1473"
         style="fill:#000000;fill-opacity:1;fill-rule:evenodd;stroke:none"
         d="m 419.79546,261.51999 0.243,0.098 0.238,0.109 0.234,0.118 0.239,0.132 0.234,0.137 0.226,0.153 0.227,0.16001 0.227,0.168 0.214,0.179 0.219,0.18799 0.207,0.195 0.203,0.20301 0.2,0.211 0.191,0.22299 0.187,0.226 0.18,0.231 0.168,0.238 0.164,0.24601 0.153,0.25 0.144,0.25799 0.137,0.262 0.129,0.265 0.113,0.274 0.109,0.277 0.094,0.278 0.086,0.28501 0.07,0.289 0.059,0.28899 0.051,0.293 0.031,0.29701 0.02,0.293 0.007,0.29999 c 0,2.67201 -1.757,4.457 -4.226,4.457 l -0.102,-0.414 c 1.656,0 2.867,-1.28899 2.867,-3.51499 0,-1.65601 -0.843,-5.535 -3.625,-7.08601 -0.082,0.57401 -0.25,1.78501 -1.461,1.78501 v -0.363 c 0.696,0 1.012,-0.399 1.012,-1.40701 0,-0.25 -0.019,-0.265 -0.187,-0.332 -0.426,-0.183 -0.922,-0.296 -1.387,-0.296 -0.231,0 -0.762,0 -0.762,0.71101 0,0.66 0.625,1.324 1.324,1.324 v 0.363 c -0.875,0 -1.687,-0.832 -1.687,-1.687 0,-0.33301 0.098,-0.51601 0.098,-0.532 -1.293,0.508 -1.856,1.805 -1.856,3.29699 0,1.14501 0.43,3.49601 1.692,5.28501 1.21,1.692 2.765,2.45299 3.972,2.45299 l 0.102,0.414 c -3.578,0 -7.227,-3.76099 -7.227,-7.625 0,-2.746 1.856,-4.41699 4.246,-4.41699 0.41,0 0.977,0.066 1.621,0.25 -0.07,-1.032 -0.07,-1.063 -0.07,-1.282 0,-0.531 0,-1.824 1.383,-1.824 1.969,0 2.762,3.035 2.762,3.219 0,0.10899 -0.114,0.16399 -0.18,0.16399 -0.133,0 -0.168,-0.082 -0.199,-0.18399 -0.395,-1.17601 -1.356,-1.59001 -1.938,-1.59001 -0.765,0 -1.015,0.44601 -1.176,1.707 z" /><path
         id="path1475"
         style="fill:#000000;fill-opacity:1;fill-rule:evenodd;stroke:none"
         d="m 442.56146,266.841 h 0.145 l 0.023,0.004 h 0.023 l 0.118,0.019 0.019,0.004 0.024,0.008 0.019,0.008 0.02,0.004 0.023,0.011 0.02,0.008 0.015,0.016 0.016,0.008 0.016,0.019 0.015,0.012 0.012,0.015 0.008,0.012 0.007,0.008 v 0.008 l 0.008,0.012 0.004,0.007 0.004,0.016 0.008,0.008 v 0.015 l 0.004,0.008 0.004,0.016 v 0.012 l 0.004,0.011 v 0.016 l 0.004,0.012 v 0.031 c 0,0.332 -0.317,0.332 -0.547,0.332 h -9.926 c -0.235,0 -0.547,0 -0.547,-0.332 0,-0.32799 0.312,-0.32799 0.562,-0.32799 z" /><path
         id="path1477"
         style="fill:#000000;fill-opacity:1;fill-rule:evenodd;stroke:none"
         d="m 442.57746,263.622 h 0.043 l 0.046,0.004 h 0.071 l 0.047,0.008 h 0.019 l 0.071,0.011 0.019,0.008 0.023,0.008 0.02,0.004 0.02,0.008 0.019,0.012 0.02,0.007 0.015,0.012 0.016,0.016 0.016,0.011 0.015,0.02 0.008,0.004 0.004,0.012 0.015,0.015 v 0.012 l 0.008,0.008 0.004,0.011 0.012,0.024 v 0.008 l 0.004,0.015 0.004,0.012 v 0.012 l 0.004,0.015 v 0.012 l 0.004,0.016 v 0.027 c 0,0.33599 -0.317,0.33599 -0.563,0.33599 h -9.895 c -0.25,0 -0.562,0 -0.562,-0.33599 0,-0.332 0.312,-0.332 0.547,-0.332 z" /><path
         id="path1479"
         style="fill:#000000;fill-opacity:1;fill-rule:evenodd;stroke:none"
         d="m 454.44446,264.153 v -1.437 c 0,-0.602 -0.028,-0.77801 -1.258,-0.77801 h -0.348 V 261.423 c 0.684,0.051 1.543,0.051 2.243,0.051 0.695,0 1.574,0 2.25,-0.051 v 0.51499 h -0.348 c -1.227,0 -1.262,0.17601 -1.262,0.77801 v 1.437 h 1.66 v 0.51599 h -1.66 v 7.543 c 0,0.332 0,0.43001 -0.262,0.43001 -0.152,0 -0.199,0 -0.332,-0.204 l -5.089,-7.769 h 0.468 l 4.043,6.18 v -6.18001 h -4.511 V 264.153 Z" /></g><g
       transform="translate(1.4351807,0.67198802)"
       id="g1890"><path
         id="path1481"
         style="fill:#000000;fill-opacity:1;fill-rule:evenodd;stroke:none"
         d="m 599.39746,261.51999 0.238,0.098 0.242,0.109 0.235,0.118 0.238,0.132 0.231,0.137 0.23,0.153 0.227,0.16001 0.226,0.168 0.215,0.179 0.215,0.18799 0.211,0.195 0.203,0.20301 0.199,0.211 0.192,0.22299 0.183,0.226 0.18,0.231 0.172,0.238 0.16,0.24601 0.156,0.25 0.145,0.25799 0.136,0.262 0.125,0.265 0.118,0.274 0.105,0.277 0.098,0.278 0.082,0.28501 0.07,0.289 0.063,0.28899 0.046,0.293 0.036,0.29701 0.019,0.293 0.008,0.29999 c 0,2.67201 -1.758,4.457 -4.231,4.457 l -0.097,-0.414 c 1.656,0 2.867,-1.28899 2.867,-3.51499 0,-1.65601 -0.844,-5.53501 -3.625,-7.08601 -0.086,0.57401 -0.25,1.785 -1.461,1.785 V 263.509 c 0.695,0 1.012,-0.399 1.012,-1.40701 0,-0.25 -0.02,-0.265 -0.188,-0.332 -0.426,-0.183 -0.926,-0.296 -1.386,-0.296 -0.235,0 -0.766,0 -0.766,0.71101 0,0.65999 0.629,1.324 1.328,1.324 v 0.36299 c -0.879,0 -1.691,-0.832 -1.691,-1.68699 0,-0.33301 0.101,-0.51601 0.101,-0.532 -1.293,0.508 -1.855,1.80499 -1.855,3.29699 0,1.145 0.429,3.496 1.687,5.28501 1.211,1.69199 2.77,2.45299 3.977,2.45299 l 0.097,0.414 c -3.574,0 -7.222,-3.76099 -7.222,-7.625 0,-2.746 1.855,-4.41699 4.242,-4.41699 0.414,0 0.98,0.066 1.625,0.25 -0.07,-1.032 -0.07,-1.06301 -0.07,-1.282 0,-0.53101 0,-1.824 1.379,-1.824 1.972,0 2.765,3.03499 2.765,3.219 0,0.10899 -0.117,0.16399 -0.183,0.16399 -0.129,0 -0.164,-0.082 -0.196,-0.18399 -0.394,-1.17601 -1.355,-1.59001 -1.937,-1.59001 -0.766,0 -1.016,0.44601 -1.176,1.707 z" /><path
         id="path1483"
         style="fill:#000000;fill-opacity:1;fill-rule:evenodd;stroke:none"
         d="m 622.16346,266.841 h 0.14 l 0.024,0.004 h 0.027 l 0.117,0.019 0.02,0.004 0.023,0.008 0.02,0.008 0.019,0.004 0.02,0.011 0.019,0.008 0.02,0.016 0.015,0.008 0.016,0.019 0.027,0.027 0.008,0.012 0.008,0.016 0.008,0.012 0.004,0.007 v 0.016 l 0.008,0.008 0.003,0.015 0.004,0.008 0.004,0.016 v 0.012 l 0.004,0.011 v 0.059 c 0,0.332 -0.312,0.332 -0.543,0.332 h -9.926 c -0.234,0 -0.55,0 -0.55,-0.332 0,-0.32799 0.316,-0.32799 0.562,-0.32799 z" /><path
         id="path1485"
         style="fill:#000000;fill-opacity:1;fill-rule:evenodd;stroke:none"
         d="m 622.17846,263.622 h 0.043 l 0.047,0.004 h 0.07 l 0.047,0.008 h 0.02 l 0.07,0.011 0.02,0.008 0.023,0.008 0.02,0.004 0.019,0.008 0.016,0.012 0.019,0.007 0.02,0.012 0.015,0.016 0.016,0.011 0.012,0.02 0.008,0.004 0.007,0.012 0.008,0.007 0.004,0.008 0.004,0.012 0.008,0.008 0.004,0.011 v 0.008 l 0.011,0.024 0.004,0.015 0.004,0.012 v 0.012 l 0.004,0.015 v 0.055 c 0,0.33599 -0.312,0.33599 -0.558,0.33599 h -9.899 c -0.246,0 -0.562,0 -0.562,-0.33599 0,-0.332 0.316,-0.332 0.55,-0.332 z" /><path
         id="path1487"
         style="fill:#000000;fill-opacity:1;fill-rule:evenodd;stroke:none"
         d="m 636.61646,264.75099 -0.004,0.187 -0.008,0.18 -0.02,0.18001 -0.027,0.176 -0.039,0.175 -0.039,0.168 -0.047,0.168 -0.055,0.164 -0.062,0.161 -0.066,0.156 -0.075,0.152 -0.082,0.149 -0.086,0.14 -0.093,0.137 -0.094,0.133 -0.106,0.129 -0.109,0.117 -0.113,0.117 -0.117,0.109 -0.125,0.102 -0.125,0.098 -0.133,0.086 -0.137,0.082 -0.141,0.074 -0.144,0.066 -0.149,0.055 -0.148,0.051 -0.152,0.043 -0.161,0.031 -0.16,0.023 -0.164,0.016 -0.168,0.004 c -0.793,0 -1.508,-0.266 -2.101,-0.844 v 3.227 c 0.332,-0.094 0.875,-0.211 1.406,-0.211 2.039,0 3.195,1.508 3.195,1.726 0,0.098 -0.047,0.184 -0.164,0.184 -0.019,0 -0.047,0 -0.133,-0.055 -0.332,-0.148 -1.144,-0.48 -2.254,-0.48 -0.66,0 -1.421,0.117 -2.207,0.465 -0.128,0.046 -0.164,0.046 -0.195,0.046 -0.164,0 -0.164,-0.132 -0.164,-0.394 v -4.906 c 0,-0.297 0,-0.43 0.231,-0.43 0.117,0 0.148,0.051 0.214,0.148 0.184,0.266 0.797,1.161 2.137,1.161 0.863,0 1.277,-0.766 1.406,-1.063 0.27,-0.609 0.305,-1.254 0.305,-2.086 0,-0.578 0,-1.578 -0.402,-2.273 -0.395,-0.645 -1.008,-1.075 -1.774,-1.075 -1.207,0 -2.148,0.879 -2.433,1.852 0.05,-0.012 0.101,-0.027 0.285,-0.027 0.547,0 0.824,0.414 0.824,0.808 0,0.403 -0.277,0.813 -0.824,0.813 -0.235,0 -0.817,-0.117 -0.817,-0.879 0,-1.426 1.141,-3.027 3.004,-3.027 1.918,0 3.61,1.589 3.61,3.69099 z" /></g><path
       id="path1137"
       style="fill:#6da4bf;fill-opacity:1;fill-rule:nonzero;stroke:#000000;stroke-width:0.7776;stroke-linecap:butt;stroke-linejoin:miter;stroke-miterlimit:4;stroke-dasharray:none;stroke-opacity:1"
       d="m 141.012,231.22731 c 0,-2.578 -2.086,-4.664 -4.664,-4.664 -2.578,0 -4.664,2.086 -4.664,4.664 0,2.579 2.086,4.668 4.664,4.668 2.578,0 4.664,-2.089 4.664,-4.668 z" /><path
       id="path1289"
       style="fill:#38c873;fill-opacity:1;fill-rule:nonzero;stroke:#000000;stroke-width:0.7776;stroke-linecap:butt;stroke-linejoin:miter;stroke-miterlimit:4;stroke-dasharray:none;stroke-opacity:1"
       d="m 319.715,231.22731 c 0,-2.578 -2.09,-4.664 -4.668,-4.664 -2.578,0 -4.664,2.086 -4.664,4.664 0,2.579 2.086,4.668 4.664,4.668 2.578,0 4.668,-2.089 4.668,-4.668 z" /><path
       id="path1213"
       style="fill:#c05e78;fill-opacity:1;fill-rule:nonzero;stroke:#000000;stroke-width:0.7776;stroke-linecap:butt;stroke-linejoin:miter;stroke-miterlimit:4;stroke-dasharray:none;stroke-opacity:1"
       d="m 504.11646,230.8603 c 0,-2.578 -2.086,-4.668 -4.664,-4.668 -2.578,0 -4.664,2.09 -4.664,4.668 0,2.574 2.086,4.66401 4.664,4.66401 2.578,0 4.664,-2.09001 4.664,-4.66401 z" /><path
       id="path1365"
       style="fill:#c175c2;fill-opacity:1;fill-rule:nonzero;stroke:#000000;stroke-width:0.7776;stroke-linecap:butt;stroke-linejoin:miter;stroke-miterlimit:4;stroke-dasharray:none;stroke-opacity:1"
       d="m 682.81946,230.8603 c 0,-2.578 -2.09,-4.668 -4.668,-4.668 -2.578,0 -4.664,2.09 -4.664,4.668 0,2.574 2.086,4.66401 4.664,4.66401 2.578,0 4.668,-2.09001 4.668,-4.66401 z" /></g></svg>
