<?xml version="1.0" encoding="UTF-8" standalone="no"?>
<svg
   xmlns:dc="http://purl.org/dc/elements/1.1/"
   xmlns:cc="http://creativecommons.org/ns#"
   xmlns:rdf="http://www.w3.org/1999/02/22-rdf-syntax-ns#"
   xmlns:svg="http://www.w3.org/2000/svg"
   xmlns="http://www.w3.org/2000/svg"
   xmlns:xlink="http://www.w3.org/1999/xlink"
   xmlns:sodipodi="http://sodipodi.sourceforge.net/DTD/sodipodi-0.dtd"
   xmlns:inkscape="http://www.inkscape.org/namespaces/inkscape"
   width="286.12549"
   height="183.55771"
   id="svg2"
   version="1.1"
   inkscape:version="1.0 (4035a4fb49, 2020-05-01)"
   sodipodi:docname="spacetime_diagram.svg"
   inkscape:export-filename="/home/cyd/jupyter/MH2801/img/spacetime_diagram.png"
   inkscape:export-xdpi="110.02"
   inkscape:export-ydpi="110.02">
  <sodipodi:namedview
     inkscape:document-rotation="0"
     inkscape:window-maximized="1"
     inkscape:window-y="0"
     inkscape:window-x="0"
     inkscape:window-height="1026"
     inkscape:window-width="1920"
     fit-margin-bottom="0"
     fit-margin-right="0"
     fit-margin-left="0"
     fit-margin-top="0"
     showgrid="false"
     inkscape:current-layer="layer1"
     inkscape:document-units="px"
     inkscape:cy="12.521668"
     inkscape:cx="159.95975"
     inkscape:zoom="1"
     inkscape:pageshadow="2"
     inkscape:pageopacity="0.0"
     borderopacity="1.0"
     bordercolor="#666666"
     pagecolor="#ffffff"
     id="base" />
  <defs
     id="defs4">
    <marker
       style="overflow:visible"
       id="Arrow2Mstart"
       refX="0"
       refY="0"
       orient="auto"
       inkscape:stockid="Arrow2Mstart">
      <path
         transform="scale(0.6)"
         d="M 8.7185878,4.0337352 -2.2072895,0.01601326 8.7185884,-4.0017078 c -1.7454984,2.3720609 -1.7354408,5.6174519 -6e-7,8.035443 z"
         style="fill-rule:evenodd;stroke-width:0.625;stroke-linejoin:round"
         id="path3973"
         inkscape:connector-curvature="0" />
    </marker>
    <marker
       style="overflow:visible"
       id="marker6400G"
       refX="0"
       refY="0"
       orient="auto"
       inkscape:stockid="marker6400G">
      <path
         transform="scale(-0.6)"
         d="M 8.7185878,4.0337352 -2.2072895,0.01601326 8.7185884,-4.0017078 c -1.7454984,2.3720609 -1.7354408,5.6174519 -6e-7,8.035443 z"
         style="fill:#754280;fill-rule:evenodd;stroke:#754280;stroke-width:0.625;stroke-linejoin:round"
         id="path4762"
         inkscape:connector-curvature="0" />
    </marker>
    <marker
       style="overflow:visible"
       id="marker3495"
       refX="0"
       refY="0"
       orient="auto"
       inkscape:stockid="marker6400G">
      <path
         transform="scale(-0.6)"
         d="M 8.7185878,4.0337352 -2.2072895,0.01601326 8.7185884,-4.0017078 c -1.7454984,2.3720609 -1.7354408,5.6174519 -6e-7,8.035443 z"
         style="fill:#754280;fill-rule:evenodd;stroke:#754280;stroke-width:0.625;stroke-linejoin:round"
         id="path3497"
         inkscape:connector-curvature="0" />
    </marker>
    <marker
       style="overflow:visible"
       id="marker3499"
       refX="0"
       refY="0"
       orient="auto"
       inkscape:stockid="marker6400G">
      <path
         transform="scale(-0.6)"
         d="M 8.7185878,4.0337352 -2.2072895,0.01601326 8.7185884,-4.0017078 c -1.7454984,2.3720609 -1.7354408,5.6174519 -6e-7,8.035443 z"
         style="fill:#754280;fill-rule:evenodd;stroke:#754280;stroke-width:0.625;stroke-linejoin:round"
         id="path3501"
         inkscape:connector-curvature="0" />
    </marker>
    <marker
       style="overflow:visible"
       id="Arrow2Mstarts"
       refX="0"
       refY="0"
       orient="auto"
       inkscape:stockid="Arrow2Mstarts">
      <path
         transform="scale(0.6)"
         d="M 8.7185878,4.0337352 -2.2072895,0.01601326 8.7185884,-4.0017078 c -1.7454984,2.3720609 -1.7354408,5.6174519 -6e-7,8.035443 z"
         style="fill:#4e2929;fill-rule:evenodd;stroke:#4e2929;stroke-width:0.625;stroke-linejoin:round"
         id="path5309"
         inkscape:connector-curvature="0" />
    </marker>
    <marker
       style="overflow:visible"
       id="Arrow2MendC"
       refX="0"
       refY="0"
       orient="auto"
       inkscape:stockid="Arrow2MendC">
      <path
         transform="scale(-0.6)"
         d="M 8.7185878,4.0337352 -2.2072895,0.01601326 8.7185884,-4.0017078 c -1.7454984,2.3720609 -1.7354408,5.6174519 -6e-7,8.035443 z"
         style="fill:#4e2929;fill-rule:evenodd;stroke:#4e2929;stroke-width:0.625;stroke-linejoin:round"
         id="path5312"
         inkscape:connector-curvature="0" />
    </marker>
    <marker
       style="overflow:visible"
       id="Arrow2Mend"
       refX="0"
       refY="0"
       orient="auto"
       inkscape:stockid="Arrow2Mend">
      <path
         transform="scale(-0.6)"
         d="M 8.7185878,4.0337352 -2.2072895,0.01601326 8.7185884,-4.0017078 c -1.7454984,2.3720609 -1.7354408,5.6174519 -6e-7,8.035443 z"
         style="fill-rule:evenodd;stroke-width:0.625;stroke-linejoin:round"
         id="path3805"
         inkscape:connector-curvature="0" />
    </marker>
    <marker
       style="overflow:visible"
       id="marker3509"
       refX="0"
       refY="0"
       orient="auto"
       inkscape:stockid="Arrow2Mend">
      <path
         transform="scale(-0.6)"
         d="M 8.7185878,4.0337352 -2.2072895,0.01601326 8.7185884,-4.0017078 c -1.7454984,2.3720609 -1.7354408,5.6174519 -6e-7,8.035443 z"
         style="fill-rule:evenodd;stroke-width:0.625;stroke-linejoin:round"
         id="path3511"
         inkscape:connector-curvature="0" />
    </marker>
    <marker
       style="overflow:visible"
       id="marker6400G-3"
       refX="0"
       refY="0"
       orient="auto"
       inkscape:stockid="marker6400G">
      <path
         transform="scale(-0.6)"
         d="M 8.7185878,4.0337352 -2.2072895,0.01601326 8.7185884,-4.0017078 c -1.7454984,2.3720609 -1.7354408,5.6174519 -6e-7,8.035443 z"
         style="fill:#754280;fill-rule:evenodd;stroke:#754280;stroke-width:0.625;stroke-linejoin:round"
         id="path4762-5"
         inkscape:connector-curvature="0" />
    </marker>
    <marker
       style="overflow:visible"
       id="marker6400GO"
       refX="0"
       refY="0"
       orient="auto"
       inkscape:stockid="marker6400GO">
      <path
         transform="scale(-0.6)"
         d="M 8.7185878,4.0337352 -2.2072895,0.01601326 8.7185884,-4.0017078 c -1.7454984,2.3720609 -1.7354408,5.6174519 -6e-7,8.035443 z"
         style="fill:#d3000c;fill-rule:evenodd;stroke:#d3000c;stroke-width:0.625;stroke-linejoin:round"
         id="path4524"
         inkscape:connector-curvature="0" />
    </marker>
    <marker
       style="overflow:visible"
       id="marker6400Gv"
       refX="0"
       refY="0"
       orient="auto"
       inkscape:stockid="marker6400Gv">
      <path
         transform="scale(-0.6)"
         d="M 8.7185878,4.0337352 -2.2072895,0.01601326 8.7185884,-4.0017078 c -1.7454984,2.3720609 -1.7354408,5.6174519 -6e-7,8.035443 z"
         style="fill:#d3000c;fill-rule:evenodd;stroke:#d3000c;stroke-width:0.625;stroke-linejoin:round"
         id="path4527"
         inkscape:connector-curvature="0" />
    </marker>
    <marker
       style="overflow:visible"
       id="marker6400Gy"
       refX="0"
       refY="0"
       orient="auto"
       inkscape:stockid="marker6400Gy">
      <path
         transform="scale(-0.6)"
         d="M 8.7185878,4.0337352 -2.2072895,0.01601326 8.7185884,-4.0017078 c -1.7454984,2.3720609 -1.7354408,5.6174519 -6e-7,8.035443 z"
         style="fill:#d3000c;fill-rule:evenodd;stroke:#d3000c;stroke-width:0.625;stroke-linejoin:round"
         id="path4530"
         inkscape:connector-curvature="0" />
    </marker>
    <marker
       style="overflow:visible"
       id="marker6400Gc"
       refX="0"
       refY="0"
       orient="auto"
       inkscape:stockid="marker6400Gc">
      <path
         transform="scale(-0.6)"
         d="M 8.7185878,4.0337352 -2.2072895,0.01601326 8.7185884,-4.0017078 c -1.7454984,2.3720609 -1.7354408,5.6174519 -6e-7,8.035443 z"
         style="fill:#d3000c;fill-rule:evenodd;stroke:#d3000c;stroke-width:0.625;stroke-linejoin:round"
         id="path4533"
         inkscape:connector-curvature="0" />
    </marker>
    <marker
       style="overflow:visible"
       id="marker6400Gv-5"
       refX="0"
       refY="0"
       orient="auto"
       inkscape:stockid="marker6400Gv">
      <path
         transform="scale(-0.6)"
         d="M 8.7185878,4.0337352 -2.2072895,0.01601326 8.7185884,-4.0017078 c -1.7454984,2.3720609 -1.7354408,5.6174519 -6e-7,8.035443 z"
         style="fill:#d3000c;fill-rule:evenodd;stroke:#d3000c;stroke-width:0.625;stroke-linejoin:round"
         id="path4527-7"
         inkscape:connector-curvature="0" />
    </marker>
    <marker
       style="overflow:visible"
       id="marker6400Gv-1"
       refX="0"
       refY="0"
       orient="auto"
       inkscape:stockid="marker6400Gv">
      <path
         transform="scale(-0.6)"
         d="M 8.7185878,4.0337352 -2.2072895,0.01601326 8.7185884,-4.0017078 c -1.7454984,2.3720609 -1.7354408,5.6174519 -6e-7,8.035443 z"
         style="fill:#d3000c;fill-rule:evenodd;stroke:#d3000c;stroke-width:0.625;stroke-linejoin:round"
         id="path4527-4"
         inkscape:connector-curvature="0" />
    </marker>
    <marker
       style="overflow:visible"
       id="marker6400Gvd"
       refX="0"
       refY="0"
       orient="auto"
       inkscape:stockid="marker6400Gvd">
      <path
         transform="scale(-0.6)"
         d="M 8.7185878,4.0337352 -2.2072895,0.01601326 8.7185884,-4.0017078 c -1.7454984,2.3720609 -1.7354408,5.6174519 -6e-7,8.035443 z"
         style="fill:#203fbd;fill-rule:evenodd;stroke:#203fbd;stroke-width:0.625;stroke-linejoin:round"
         id="path4686"
         inkscape:connector-curvature="0" />
    </marker>
    <marker
       style="overflow:visible"
       id="marker6400Gvdc"
       refX="0"
       refY="0"
       orient="auto"
       inkscape:stockid="marker6400Gvdc">
      <path
         transform="scale(-0.6)"
         d="M 8.7185878,4.0337352 -2.2072895,0.01601326 8.7185884,-4.0017078 c -1.7454984,2.3720609 -1.7354408,5.6174519 -6e-7,8.035443 z"
         style="fill:#203fbd;fill-rule:evenodd;stroke:#203fbd;stroke-width:0.625;stroke-linejoin:round"
         id="path4689"
         inkscape:connector-curvature="0" />
    </marker>
    <marker
       style="overflow:visible"
       id="Arrow2MstartD"
       refX="0"
       refY="0"
       orient="auto"
       inkscape:stockid="Arrow2MstartD">
      <path
         transform="scale(0.6)"
         d="M 8.7185878,4.0337352 -2.2072895,0.01601326 8.7185884,-4.0017078 c -1.7454984,2.3720609 -1.7354408,5.6174519 -6e-7,8.035443 z"
         style="fill:#595959;fill-rule:evenodd;stroke:#595959;stroke-width:0.625;stroke-linejoin:round"
         id="path4673"
         inkscape:connector-curvature="0" />
    </marker>
    <marker
       style="overflow:visible"
       id="marker3509y"
       refX="0"
       refY="0"
       orient="auto"
       inkscape:stockid="marker3509y">
      <path
         transform="scale(-0.6)"
         d="M 8.7185878,4.0337352 -2.2072895,0.01601326 8.7185884,-4.0017078 c -1.7454984,2.3720609 -1.7354408,5.6174519 -6e-7,8.035443 z"
         style="fill:#595959;fill-rule:evenodd;stroke:#595959;stroke-width:0.625;stroke-linejoin:round"
         id="path4676"
         inkscape:connector-curvature="0" />
    </marker>
    <marker
       style="overflow:visible"
       id="marker6400GvI"
       refX="0"
       refY="0"
       orient="auto"
       inkscape:stockid="marker6400GvI">
      <path
         transform="scale(-0.6)"
         d="M 8.7185878,4.0337352 -2.2072895,0.01601326 8.7185884,-4.0017078 c -1.7454984,2.3720609 -1.7354408,5.6174519 -6e-7,8.035443 z"
         style="fill:#a730b4;fill-rule:evenodd;stroke:#a730b4;stroke-width:0.625;stroke-linejoin:round"
         id="path4224"
         inkscape:connector-curvature="0" />
    </marker>
    <marker
       style="overflow:visible"
       id="marker6400GyA"
       refX="0"
       refY="0"
       orient="auto"
       inkscape:stockid="marker6400GyA">
      <path
         transform="scale(-0.6)"
         d="M 8.7185878,4.0337352 -2.2072895,0.01601326 8.7185884,-4.0017078 c -1.7454984,2.3720609 -1.7354408,5.6174519 -6e-7,8.035443 z"
         style="fill:#a730b4;fill-rule:evenodd;stroke:#a730b4;stroke-width:0.625;stroke-linejoin:round"
         id="path4227"
         inkscape:connector-curvature="0" />
    </marker>
    <marker
       style="overflow:visible"
       id="marker6400Gvdv"
       refX="0"
       refY="0"
       orient="auto"
       inkscape:stockid="marker6400Gvdv">
      <path
         transform="scale(-0.6)"
         d="M 8.7185878,4.0337352 -2.2072895,0.01601326 8.7185884,-4.0017078 c -1.7454984,2.3720609 -1.7354408,5.6174519 -6e-7,8.035443 z"
         style="fill:#2b45b2;fill-rule:evenodd;stroke:#2b45b2;stroke-width:0.625;stroke-linejoin:round"
         id="path4404"
         inkscape:connector-curvature="0" />
    </marker>
    <marker
       style="overflow:visible"
       id="marker6400GvdcE"
       refX="0"
       refY="0"
       orient="auto"
       inkscape:stockid="marker6400GvdcE">
      <path
         transform="scale(-0.6)"
         d="M 8.7185878,4.0337352 -2.2072895,0.01601326 8.7185884,-4.0017078 c -1.7454984,2.3720609 -1.7354408,5.6174519 -6e-7,8.035443 z"
         style="fill:#2b45b2;fill-rule:evenodd;stroke:#2b45b2;stroke-width:0.625;stroke-linejoin:round"
         id="path4407"
         inkscape:connector-curvature="0" />
    </marker>
    <marker
       style="overflow:visible"
       id="marker6400GvdcE-9"
       refX="0"
       refY="0"
       orient="auto"
       inkscape:stockid="marker6400GvdcE">
      <path
         transform="scale(-0.6)"
         d="M 8.7185878,4.0337352 -2.2072895,0.01601326 8.7185884,-4.0017078 c -1.7454984,2.3720609 -1.7354408,5.6174519 -6e-7,8.035443 z"
         style="fill:#2b45b2;fill-rule:evenodd;stroke:#2b45b2;stroke-width:0.625;stroke-linejoin:round"
         id="path4407-5"
         inkscape:connector-curvature="0" />
    </marker>
    <marker
       style="overflow:visible"
       id="marker6400Gvdv-3"
       refX="0"
       refY="0"
       orient="auto"
       inkscape:stockid="marker6400Gvdv">
      <path
         transform="scale(-0.6)"
         d="M 8.7185878,4.0337352 -2.2072895,0.01601326 8.7185884,-4.0017078 c -1.7454984,2.3720609 -1.7354408,5.6174519 -6e-7,8.035443 z"
         style="fill:#2b45b2;fill-rule:evenodd;stroke:#2b45b2;stroke-width:0.625;stroke-linejoin:round"
         id="path4404-7"
         inkscape:connector-curvature="0" />
    </marker>
    <marker
       style="overflow:visible"
       id="marker6400GvI-1"
       refX="0"
       refY="0"
       orient="auto"
       inkscape:stockid="marker6400GvI">
      <path
         transform="scale(-0.6)"
         d="M 8.7185878,4.0337352 -2.2072895,0.01601326 8.7185884,-4.0017078 c -1.7454984,2.3720609 -1.7354408,5.6174519 -6e-7,8.035443 z"
         style="fill:#a730b4;fill-rule:evenodd;stroke:#a730b4;stroke-width:0.625;stroke-linejoin:round"
         id="path4224-7"
         inkscape:connector-curvature="0" />
    </marker>
    <marker
       style="overflow:visible"
       id="marker6400GyA-4"
       refX="0"
       refY="0"
       orient="auto"
       inkscape:stockid="marker6400GyA">
      <path
         transform="scale(-0.6)"
         d="M 8.7185878,4.0337352 -2.2072895,0.01601326 8.7185884,-4.0017078 c -1.7454984,2.3720609 -1.7354408,5.6174519 -6e-7,8.035443 z"
         style="fill:#a730b4;fill-rule:evenodd;stroke:#a730b4;stroke-width:0.625;stroke-linejoin:round"
         id="path4227-6"
         inkscape:connector-curvature="0" />
    </marker>
    <marker
       style="overflow:visible"
       id="Arrow2Mend-4"
       refX="0"
       refY="0"
       orient="auto"
       inkscape:stockid="Arrow2Mend">
      <path
         transform="scale(-0.6)"
         d="M 8.7185878,4.0337352 -2.2072895,0.01601326 8.7185884,-4.0017078 c -1.7454984,2.3720609 -1.7354408,5.6174519 -6e-7,8.035443 z"
         style="fill-rule:evenodd;stroke-width:0.625;stroke-linejoin:round"
         id="path3805-8"
         inkscape:connector-curvature="0" />
    </marker>
    <marker
       style="overflow:visible"
       id="marker3116"
       refX="0"
       refY="0"
       orient="auto"
       inkscape:stockid="Arrow2Mend">
      <path
         transform="scale(-0.6)"
         d="M 8.7185878,4.0337352 -2.2072895,0.01601326 8.7185884,-4.0017078 c -1.7454984,2.3720609 -1.7354408,5.6174519 -6e-7,8.035443 z"
         style="fill-rule:evenodd;stroke-width:0.625;stroke-linejoin:round"
         id="path3118"
         inkscape:connector-curvature="0" />
    </marker>
    <marker
       style="overflow:visible"
       id="Arrow2Mend-8"
       refX="0"
       refY="0"
       orient="auto"
       inkscape:stockid="Arrow2Mend">
      <path
         transform="scale(-0.6)"
         d="M 8.7185878,4.0337352 -2.2072895,0.01601326 8.7185884,-4.0017078 c -1.7454984,2.3720609 -1.7354408,5.6174519 -6e-7,8.035443 z"
         style="fill-rule:evenodd;stroke-width:0.625;stroke-linejoin:round"
         id="path3805-6"
         inkscape:connector-curvature="0" />
    </marker>
    <marker
       style="overflow:visible"
       id="marker3239"
       refX="0"
       refY="0"
       orient="auto"
       inkscape:stockid="Arrow2Mend">
      <path
         transform="scale(-0.6)"
         d="M 8.7185878,4.0337352 -2.2072895,0.01601326 8.7185884,-4.0017078 c -1.7454984,2.3720609 -1.7354408,5.6174519 -6e-7,8.035443 z"
         style="fill-rule:evenodd;stroke-width:0.625;stroke-linejoin:round"
         id="path3241"
         inkscape:connector-curvature="0" />
    </marker>
    <marker
       style="overflow:visible"
       id="marker6400GyA-8"
       refX="0"
       refY="0"
       orient="auto"
       inkscape:stockid="marker6400GyA">
      <path
         transform="scale(-0.6)"
         d="M 8.7185878,4.0337352 -2.2072895,0.01601326 8.7185884,-4.0017078 c -1.7454984,2.3720609 -1.7354408,5.6174519 -6e-7,8.035443 z"
         style="fill:#a730b4;fill-rule:evenodd;stroke:#a730b4;stroke-width:0.625;stroke-linejoin:round"
         id="path4227-4"
         inkscape:connector-curvature="0" />
    </marker>
    <marker
       style="overflow:visible"
       id="marker6400GvI-6"
       refX="0"
       refY="0"
       orient="auto"
       inkscape:stockid="marker6400GvI">
      <path
         transform="scale(-0.6)"
         d="M 8.7185878,4.0337352 -2.2072895,0.01601326 8.7185884,-4.0017078 c -1.7454984,2.3720609 -1.7354408,5.6174519 -6e-7,8.035443 z"
         style="fill:#a730b4;fill-rule:evenodd;stroke:#a730b4;stroke-width:0.625;stroke-linejoin:round"
         id="path4224-3"
         inkscape:connector-curvature="0" />
    </marker>
    <marker
       style="overflow:visible"
       id="marker6400Gvdv-6"
       refX="0"
       refY="0"
       orient="auto"
       inkscape:stockid="marker6400Gvdv">
      <path
         transform="scale(-0.6)"
         d="M 8.7185878,4.0337352 -2.2072895,0.01601326 8.7185884,-4.0017078 c -1.7454984,2.3720609 -1.7354408,5.6174519 -6e-7,8.035443 z"
         style="fill:#2b45b2;fill-rule:evenodd;stroke:#2b45b2;stroke-width:0.625;stroke-linejoin:round"
         id="path4404-0"
         inkscape:connector-curvature="0" />
    </marker>
    <marker
       style="overflow:visible"
       id="marker6400GvdcE-7"
       refX="0"
       refY="0"
       orient="auto"
       inkscape:stockid="marker6400GvdcE">
      <path
         transform="scale(-0.6)"
         d="M 8.7185878,4.0337352 -2.2072895,0.01601326 8.7185884,-4.0017078 c -1.7454984,2.3720609 -1.7354408,5.6174519 -6e-7,8.035443 z"
         style="fill:#2b45b2;fill-rule:evenodd;stroke:#2b45b2;stroke-width:0.625;stroke-linejoin:round"
         id="path4407-6"
         inkscape:connector-curvature="0" />
    </marker>
    <g
       id="g1092">
      <symbol
         id="symbol3833"
         overflow="visible">
        <path
           id="path1245"
           d=""
           style="stroke:none" />
      </symbol>
      <symbol
         id="symbol4171"
         overflow="visible">
        <path
           id="path1070"
           d="m 5.515625,-6.78125 h -5.1875 v 0.3125 H 0.5625 c 0.765625,0 0.796875,0.109375 0.796875,0.46875 v 5.21875 c 0,0.359375 -0.03125,0.46875 -0.796875,0.46875 H 0.328125 V 0 c 0.34375,-0.03125 1.125,-0.03125 1.515625,-0.03125 0.40625,0 1.3125,0 1.671875,0.03125 V -0.3125 H 3.1875 C 2.25,-0.3125 2.25,-0.4375 2.25,-0.78125 v -5.296875 c 0,-0.328125 0.015625,-0.390625 0.484375,-0.390625 h 1.03125 c 1.421875,0 1.625,0.59375 1.78125,1.9375 h 0.25 z m 0,0"
           style="stroke:none" />
      </symbol>
    </g>
    <marker
       style="overflow:visible"
       refX="0"
       refY="0"
       orient="auto"
       inkscape:stockid="marker6400GvI2418"
       id="marker6400GvI2418">
      <path
         transform="scale(-0.6)"
         d="M 8.7185878,4.0337352 -2.2072895,0.01601326 8.7185884,-4.0017078 c -1.7454984,2.3720609 -1.7354408,5.6174519 -6e-7,8.035443 z"
         style="fill:#1f77b4;fill-opacity:1;fill-rule:evenodd;stroke:#1f77b4;stroke-width:0.625;stroke-linejoin:round;stroke-opacity:1"
         id="path25245"
         inkscape:connector-curvature="0" />
    </marker>
    <marker
       style="overflow:visible"
       refX="0"
       refY="0"
       orient="auto"
       inkscape:stockid="marker6400GyA7604"
       id="marker6400GyA7604">
      <path
         transform="scale(-0.6)"
         d="M 8.7185878,4.0337352 -2.2072895,0.01601326 8.7185884,-4.0017078 c -1.7454984,2.3720609 -1.7354408,5.6174519 -6e-7,8.035443 z"
         style="fill:#1f77b4;fill-opacity:1;fill-rule:evenodd;stroke:#1f77b4;stroke-width:0.625;stroke-linejoin:round;stroke-opacity:1"
         id="path25248"
         inkscape:connector-curvature="0" />
    </marker>
    <marker
       style="overflow:visible"
       refX="0"
       refY="0"
       orient="auto"
       inkscape:stockid="marker6400GvI2620"
       id="marker6400GvI2620">
      <path
         transform="scale(-0.6)"
         d="M 8.7185878,4.0337352 -2.2072895,0.01601326 8.7185884,-4.0017078 c -1.7454984,2.3720609 -1.7354408,5.6174519 -6e-7,8.035443 z"
         style="fill:#1f77b4;fill-opacity:1;fill-rule:evenodd;stroke:#1f77b4;stroke-width:0.625;stroke-linejoin:round;stroke-opacity:1"
         id="path25251"
         inkscape:connector-curvature="0" />
    </marker>
    <marker
       style="overflow:visible"
       refX="0"
       refY="0"
       orient="auto"
       inkscape:stockid="marker6400GvI6991"
       id="marker6400GvI6991">
      <path
         transform="scale(-0.6)"
         d="M 8.7185878,4.0337352 -2.2072895,0.01601326 8.7185884,-4.0017078 c -1.7454984,2.3720609 -1.7354408,5.6174519 -6e-7,8.035443 z"
         style="fill:#1f77b4;fill-opacity:1;fill-rule:evenodd;stroke:#1f77b4;stroke-width:0.625;stroke-linejoin:round;stroke-opacity:1"
         id="path25254"
         inkscape:connector-curvature="0" />
    </marker>
    <marker
       style="overflow:visible"
       refX="0"
       refY="0"
       orient="auto"
       inkscape:stockid="marker6400GyA7789"
       id="marker6400GyA7789">
      <path
         transform="scale(-0.6)"
         d="M 8.7185878,4.0337352 -2.2072895,0.01601326 8.7185884,-4.0017078 c -1.7454984,2.3720609 -1.7354408,5.6174519 -6e-7,8.035443 z"
         style="fill:#1f77b4;fill-opacity:1;fill-rule:evenodd;stroke:#1f77b4;stroke-width:0.625;stroke-linejoin:round;stroke-opacity:1"
         id="path25257"
         inkscape:connector-curvature="0" />
    </marker>
    <marker
       style="overflow:visible"
       refX="0"
       refY="0"
       orient="auto"
       inkscape:stockid="marker6400GyA112"
       id="marker6400GyA112">
      <path
         transform="scale(-0.6)"
         d="M 8.7185878,4.0337352 -2.2072895,0.01601326 8.7185884,-4.0017078 c -1.7454984,2.3720609 -1.7354408,5.6174519 -6e-7,8.035443 z"
         style="fill:#1f77b4;fill-opacity:1;fill-rule:evenodd;stroke:#1f77b4;stroke-width:0.625;stroke-linejoin:round;stroke-opacity:1"
         id="path25260"
         inkscape:connector-curvature="0" />
    </marker>
    <marker
       style="overflow:visible"
       refX="0"
       refY="0"
       orient="auto"
       inkscape:stockid="marker6400Gvdv5981"
       id="marker6400Gvdv5981">
      <path
         transform="scale(-0.6)"
         d="M 8.7185878,4.0337352 -2.2072895,0.01601326 8.7185884,-4.0017078 c -1.7454984,2.3720609 -1.7354408,5.6174519 -6e-7,8.035443 z"
         style="fill:#b140bf;fill-opacity:1;fill-rule:evenodd;stroke:#b140bf;stroke-width:0.625;stroke-linejoin:round;stroke-opacity:1"
         id="path25818"
         inkscape:connector-curvature="0" />
    </marker>
    <marker
       style="overflow:visible"
       refX="0"
       refY="0"
       orient="auto"
       inkscape:stockid="marker6400GvdcE9632"
       id="marker6400GvdcE9632">
      <path
         transform="scale(-0.6)"
         d="M 8.7185878,4.0337352 -2.2072895,0.01601326 8.7185884,-4.0017078 c -1.7454984,2.3720609 -1.7354408,5.6174519 -6e-7,8.035443 z"
         style="fill:#b140bf;fill-opacity:1;fill-rule:evenodd;stroke:#b140bf;stroke-width:0.625;stroke-linejoin:round;stroke-opacity:1"
         id="path25821"
         inkscape:connector-curvature="0" />
    </marker>
    <marker
       style="overflow:visible"
       refX="0"
       refY="0"
       orient="auto"
       inkscape:stockid="marker6400GvdcE4143"
       id="marker6400GvdcE4143">
      <path
         transform="scale(-0.6)"
         d="M 8.7185878,4.0337352 -2.2072895,0.01601326 8.7185884,-4.0017078 c -1.7454984,2.3720609 -1.7354408,5.6174519 -6e-7,8.035443 z"
         style="fill:#b140bf;fill-opacity:1;fill-rule:evenodd;stroke:#b140bf;stroke-width:0.625;stroke-linejoin:round;stroke-opacity:1"
         id="path25824"
         inkscape:connector-curvature="0" />
    </marker>
    <marker
       style="overflow:visible"
       refX="0"
       refY="0"
       orient="auto"
       inkscape:stockid="marker6400Gvdv7714"
       id="marker6400Gvdv7714">
      <path
         transform="scale(-0.6)"
         d="M 8.7185878,4.0337352 -2.2072895,0.01601326 8.7185884,-4.0017078 c -1.7454984,2.3720609 -1.7354408,5.6174519 -6e-7,8.035443 z"
         style="fill:#b140bf;fill-opacity:1;fill-rule:evenodd;stroke:#b140bf;stroke-width:0.625;stroke-linejoin:round;stroke-opacity:1"
         id="path25827"
         inkscape:connector-curvature="0" />
    </marker>
    <g
       id="g1595">
      <symbol
         id="symbol3329"
         overflow="visible">
        <path
           id="path664"
           d=""
           style="stroke:none" />
      </symbol>
      <symbol
         id="symbol2436"
         overflow="visible">
        <path
           id="path23"
           d="M 3.328125,-3.015625 C 3.390625,-3.265625 3.625,-4.1875 4.3125,-4.1875 c 0.046875,0 0.296875,0 0.5,0.125 C 4.53125,-4 4.34375,-3.765625 4.34375,-3.515625 c 0,0.15625 0.109375,0.34375 0.375,0.34375 0.21875,0 0.53125,-0.171875 0.53125,-0.578125 0,-0.515625 -0.578125,-0.65625 -0.921875,-0.65625 -0.578125,0 -0.921875,0.53125 -1.046875,0.75 -0.25,-0.65625 -0.78125,-0.75 -1.078125,-0.75 -1.03125,0 -1.609375,1.28125 -1.609375,1.53125 0,0.109375 0.109375,0.109375 0.125,0.109375 0.078125,0 0.109375,-0.03125 0.125,-0.109375 0.34375,-1.0625 1,-1.3125 1.34375,-1.3125 0.1875,0 0.53125,0.09375 0.53125,0.671875 0,0.3125 -0.171875,0.96875 -0.53125,2.375 -0.15625,0.609375 -0.515625,1.03125 -0.953125,1.03125 -0.0625,0 -0.28125,0 -0.5,-0.125 0.25,-0.0625 0.46875,-0.265625 0.46875,-0.546875 0,-0.265625 -0.21875,-0.34375 -0.359375,-0.34375 -0.3125,0 -0.546875,0.25 -0.546875,0.578125 0,0.453125 0.484375,0.65625 0.921875,0.65625 0.671875,0 1.03125,-0.703125 1.046875,-0.75 0.125,0.359375 0.484375,0.75 1.078125,0.75 1.03125,0 1.59375,-1.28125 1.59375,-1.53125 0,-0.109375 -0.078125,-0.109375 -0.109375,-0.109375 -0.09375,0 -0.109375,0.046875 -0.140625,0.109375 -0.328125,1.078125 -1,1.3125 -1.3125,1.3125 -0.390625,0 -0.546875,-0.3125 -0.546875,-0.65625 0,-0.21875 0.046875,-0.4375 0.15625,-0.875 z m 0,0"
           style="stroke:none" />
      </symbol>
    </g>
    <g
       id="g6961">
      <symbol
         id="symbol7675"
         overflow="visible">
        <path
           id="path8445"
           d=""
           style="stroke:none" />
      </symbol>
      <symbol
         id="symbol640"
         overflow="visible">
        <path
           id="path8679"
           d="m 2.046875,-3.984375 h 0.9375 c 0.203125,0 0.3125,0 0.3125,-0.203125 0,-0.109375 -0.109375,-0.109375 -0.28125,-0.109375 h -0.875 C 2.5,-5.71875 2.546875,-5.90625 2.546875,-5.96875 c 0,-0.171875 -0.125,-0.265625 -0.296875,-0.265625 -0.03125,0 -0.3125,0 -0.390625,0.359375 L 1.46875,-4.296875 h -0.9375 c -0.203125,0 -0.296875,0 -0.296875,0.1875 0,0.125 0.078125,0.125 0.28125,0.125 h 0.875 C 0.671875,-1.15625 0.625,-0.984375 0.625,-0.8125 0.625,-0.265625 1,0.109375 1.546875,0.109375 2.5625,0.109375 3.125,-1.34375 3.125,-1.421875 3.125,-1.53125 3.046875,-1.53125 3.015625,-1.53125 2.921875,-1.53125 2.90625,-1.5 2.859375,-1.390625 2.4375,-0.34375 1.90625,-0.109375 1.5625,-0.109375 c -0.203125,0 -0.3125,-0.125 -0.3125,-0.453125 0,-0.25 0.03125,-0.3125 0.0625,-0.484375 z m 0,0"
           style="stroke:none" />
      </symbol>
    </g>
    <g
       id="g298">
      <symbol
         id="symbol5821"
         overflow="visible">
        <path
           id="path1942"
           d=""
           style="stroke:none" />
      </symbol>
      <symbol
         id="symbol4539"
         overflow="visible">
        <path
           id="path8873"
           d="m 2.046875,-3.984375 h 0.9375 c 0.203125,0 0.3125,0 0.3125,-0.203125 0,-0.109375 -0.109375,-0.109375 -0.28125,-0.109375 h -0.875 C 2.5,-5.71875 2.546875,-5.90625 2.546875,-5.96875 c 0,-0.171875 -0.125,-0.265625 -0.296875,-0.265625 -0.03125,0 -0.3125,0 -0.390625,0.359375 L 1.46875,-4.296875 h -0.9375 c -0.203125,0 -0.296875,0 -0.296875,0.1875 0,0.125 0.078125,0.125 0.28125,0.125 h 0.875 C 0.671875,-1.15625 0.625,-0.984375 0.625,-0.8125 0.625,-0.265625 1,0.109375 1.546875,0.109375 2.5625,0.109375 3.125,-1.34375 3.125,-1.421875 3.125,-1.53125 3.046875,-1.53125 3.015625,-1.53125 2.921875,-1.53125 2.90625,-1.5 2.859375,-1.390625 2.4375,-0.34375 1.90625,-0.109375 1.5625,-0.109375 c -0.203125,0 -0.3125,-0.125 -0.3125,-0.453125 0,-0.25 0.03125,-0.3125 0.0625,-0.484375 z m 0,0"
           style="stroke:none" />
      </symbol>
      <symbol
         id="symbol4448"
         overflow="visible">
        <path
           id="path2465"
           d=""
           style="stroke:none" />
      </symbol>
      <symbol
         id="symbol3491"
         overflow="visible">
        <path
           id="path8157"
           d="m 2.015625,-3.296875 c 0.0625,-0.109375 0.0625,-0.171875 0.0625,-0.21875 0,-0.21875 -0.1875,-0.375 -0.40625,-0.375 -0.265625,0 -0.34375,0.21875 -0.375,0.328125 L 0.375,-0.546875 c -0.015625,0.015625 -0.046875,0.09375 -0.046875,0.109375 0,0.078125 0.21875,0.15625 0.28125,0.15625 0.046875,0 0.046875,-0.015625 0.09375,-0.125 z m 0,0"
           style="stroke:none" />
      </symbol>
    </g>
    <g
       id="g9494">
      <symbol
         id="symbol6044"
         overflow="visible">
        <path
           id="path8642"
           d=""
           style="stroke:none" />
      </symbol>
      <symbol
         id="symbol7013"
         overflow="visible">
        <path
           id="path2948"
           d="M 3.328125,-3.015625 C 3.390625,-3.265625 3.625,-4.1875 4.3125,-4.1875 c 0.046875,0 0.296875,0 0.5,0.125 C 4.53125,-4 4.34375,-3.765625 4.34375,-3.515625 c 0,0.15625 0.109375,0.34375 0.375,0.34375 0.21875,0 0.53125,-0.171875 0.53125,-0.578125 0,-0.515625 -0.578125,-0.65625 -0.921875,-0.65625 -0.578125,0 -0.921875,0.53125 -1.046875,0.75 -0.25,-0.65625 -0.78125,-0.75 -1.078125,-0.75 -1.03125,0 -1.609375,1.28125 -1.609375,1.53125 0,0.109375 0.109375,0.109375 0.125,0.109375 0.078125,0 0.109375,-0.03125 0.125,-0.109375 0.34375,-1.0625 1,-1.3125 1.34375,-1.3125 0.1875,0 0.53125,0.09375 0.53125,0.671875 0,0.3125 -0.171875,0.96875 -0.53125,2.375 -0.15625,0.609375 -0.515625,1.03125 -0.953125,1.03125 -0.0625,0 -0.28125,0 -0.5,-0.125 0.25,-0.0625 0.46875,-0.265625 0.46875,-0.546875 0,-0.265625 -0.21875,-0.34375 -0.359375,-0.34375 -0.3125,0 -0.546875,0.25 -0.546875,0.578125 0,0.453125 0.484375,0.65625 0.921875,0.65625 0.671875,0 1.03125,-0.703125 1.046875,-0.75 0.125,0.359375 0.484375,0.75 1.078125,0.75 1.03125,0 1.59375,-1.28125 1.59375,-1.53125 0,-0.109375 -0.078125,-0.109375 -0.109375,-0.109375 -0.09375,0 -0.109375,0.046875 -0.140625,0.109375 -0.328125,1.078125 -1,1.3125 -1.3125,1.3125 -0.390625,0 -0.546875,-0.3125 -0.546875,-0.65625 0,-0.21875 0.046875,-0.4375 0.15625,-0.875 z m 0,0"
           style="stroke:none" />
      </symbol>
      <symbol
         id="symbol6543"
         overflow="visible">
        <path
           id="path479"
           d=""
           style="stroke:none" />
      </symbol>
      <symbol
         id="symbol961"
         overflow="visible">
        <path
           id="path2129"
           d="m 2.015625,-3.296875 c 0.0625,-0.109375 0.0625,-0.171875 0.0625,-0.21875 0,-0.21875 -0.1875,-0.375 -0.40625,-0.375 -0.265625,0 -0.34375,0.21875 -0.375,0.328125 L 0.375,-0.546875 c -0.015625,0.015625 -0.046875,0.09375 -0.046875,0.109375 0,0.078125 0.21875,0.15625 0.28125,0.15625 0.046875,0 0.046875,-0.015625 0.09375,-0.125 z m 0,0"
           style="stroke:none" />
      </symbol>
    </g>
    <g
       id="g9268">
      <symbol
         id="symbol9450"
         overflow="visible">
        <path
           id="path3703"
           d=""
           style="stroke:none;" />
      </symbol>
      <symbol
         id="symbol915"
         overflow="visible">
        <path
           id="path3911"
           d="M 7.578125 -6.921875 C 7.578125 -6.953125 7.5625 -7.03125 7.46875 -7.03125 C 7.4375 -7.03125 7.421875 -7.015625 7.3125 -6.90625 L 6.625 -6.140625 C 6.53125 -6.28125 6.078125 -7.03125 4.96875 -7.03125 C 2.734375 -7.03125 0.5 -4.828125 0.5 -2.515625 C 0.5 -0.921875 1.609375 0.21875 3.21875 0.21875 C 3.65625 0.21875 4.109375 0.125 4.46875 -0.015625 C 4.96875 -0.21875 5.15625 -0.421875 5.328125 -0.625 C 5.421875 -0.375 5.6875 -0.015625 5.78125 -0.015625 C 5.828125 -0.015625 5.859375 -0.046875 5.859375 -0.046875 C 5.875 -0.0625 5.96875 -0.453125 6.015625 -0.65625 L 6.203125 -1.421875 C 6.25 -1.59375 6.296875 -1.765625 6.34375 -1.9375 C 6.453125 -2.375 6.453125 -2.40625 7.03125 -2.40625 C 7.078125 -2.40625 7.1875 -2.421875 7.1875 -2.609375 C 7.1875 -2.6875 7.140625 -2.71875 7.0625 -2.71875 C 6.828125 -2.71875 6.234375 -2.6875 6.015625 -2.6875 C 5.703125 -2.6875 4.921875 -2.71875 4.609375 -2.71875 C 4.53125 -2.71875 4.40625 -2.71875 4.40625 -2.515625 C 4.40625 -2.40625 4.484375 -2.40625 4.703125 -2.40625 C 4.71875 -2.40625 5 -2.40625 5.234375 -2.390625 C 5.5 -2.359375 5.546875 -2.328125 5.546875 -2.203125 C 5.546875 -2.109375 5.4375 -1.671875 5.328125 -1.296875 C 5.046875 -0.203125 3.765625 -0.09375 3.40625 -0.09375 C 2.453125 -0.09375 1.40625 -0.65625 1.40625 -2.1875 C 1.40625 -2.5 1.5 -4.140625 2.546875 -5.4375 C 3.09375 -6.109375 4.0625 -6.71875 5.046875 -6.71875 C 6.0625 -6.71875 6.65625 -5.953125 6.65625 -4.796875 C 6.65625 -4.390625 6.625 -4.390625 6.625 -4.28125 C 6.625 -4.1875 6.734375 -4.1875 6.765625 -4.1875 C 6.890625 -4.1875 6.890625 -4.203125 6.953125 -4.390625 Z M 7.578125 -6.921875 "
           style="stroke:none;" />
      </symbol>
      <symbol
         id="symbol3305"
         overflow="visible">
        <path
           id="path1888"
           d=""
           style="stroke:none;" />
      </symbol>
      <symbol
         id="symbol6148"
         overflow="visible">
        <path
           id="path9630"
           d="M 6.84375 -3.265625 C 7 -3.265625 7.1875 -3.265625 7.1875 -3.453125 C 7.1875 -3.65625 7 -3.65625 6.859375 -3.65625 L 0.890625 -3.65625 C 0.75 -3.65625 0.5625 -3.65625 0.5625 -3.453125 C 0.5625 -3.265625 0.75 -3.265625 0.890625 -3.265625 Z M 6.859375 -1.328125 C 7 -1.328125 7.1875 -1.328125 7.1875 -1.53125 C 7.1875 -1.71875 7 -1.71875 6.84375 -1.71875 L 0.890625 -1.71875 C 0.75 -1.71875 0.5625 -1.71875 0.5625 -1.53125 C 0.5625 -1.328125 0.75 -1.328125 0.890625 -1.328125 Z M 6.859375 -1.328125 "
           style="stroke:none;" />
      </symbol>
      <symbol
         id="symbol9573"
         overflow="visible">
        <path
           id="path7894"
           d=""
           style="stroke:none;" />
      </symbol>
      <symbol
         id="symbol8013"
         overflow="visible">
        <path
           id="path8945"
           d="M 6.5625 -2.296875 C 6.734375 -2.296875 6.921875 -2.296875 6.921875 -2.5 C 6.921875 -2.6875 6.734375 -2.6875 6.5625 -2.6875 L 1.171875 -2.6875 C 1 -2.6875 0.828125 -2.6875 0.828125 -2.5 C 0.828125 -2.296875 1 -2.296875 1.171875 -2.296875 Z M 6.5625 -2.296875 "
           style="stroke:none;" />
      </symbol>
      <symbol
         id="symbol6325"
         overflow="visible">
        <path
           id="path7396"
           d=""
           style="stroke:none;" />
      </symbol>
      <symbol
         id="symbol7824"
         overflow="visible">
        <path
           id="path7510"
           d="M 2.328125 -4.4375 C 2.328125 -4.625 2.328125 -4.625 2.125 -4.625 C 1.671875 -4.1875 1.046875 -4.1875 0.765625 -4.1875 L 0.765625 -3.9375 C 0.921875 -3.9375 1.390625 -3.9375 1.765625 -4.125 L 1.765625 -0.578125 C 1.765625 -0.34375 1.765625 -0.25 1.078125 -0.25 L 0.8125 -0.25 L 0.8125 0 C 0.9375 0 1.796875 -0.03125 2.046875 -0.03125 C 2.265625 -0.03125 3.140625 0 3.296875 0 L 3.296875 -0.25 L 3.03125 -0.25 C 2.328125 -0.25 2.328125 -0.34375 2.328125 -0.578125 Z M 2.328125 -4.4375 "
           style="stroke:none;" />
      </symbol>
      <symbol
         id="symbol976"
         overflow="visible">
        <path
           id="path9382"
           d="M 3.515625 -1.265625 L 3.28125 -1.265625 C 3.265625 -1.109375 3.1875 -0.703125 3.09375 -0.640625 C 3.046875 -0.59375 2.515625 -0.59375 2.40625 -0.59375 L 1.125 -0.59375 C 1.859375 -1.234375 2.109375 -1.4375 2.515625 -1.765625 C 3.03125 -2.171875 3.515625 -2.609375 3.515625 -3.265625 C 3.515625 -4.109375 2.78125 -4.625 1.890625 -4.625 C 1.03125 -4.625 0.4375 -4.015625 0.4375 -3.375 C 0.4375 -3.03125 0.734375 -2.984375 0.8125 -2.984375 C 0.96875 -2.984375 1.171875 -3.109375 1.171875 -3.359375 C 1.171875 -3.484375 1.125 -3.734375 0.765625 -3.734375 C 0.984375 -4.21875 1.453125 -4.375 1.78125 -4.375 C 2.484375 -4.375 2.84375 -3.828125 2.84375 -3.265625 C 2.84375 -2.65625 2.40625 -2.1875 2.1875 -1.9375 L 0.515625 -0.265625 C 0.4375 -0.203125 0.4375 -0.1875 0.4375 0 L 3.3125 0 Z M 3.515625 -1.265625 "
           style="stroke:none;" />
      </symbol>
    </g>
    <g
       id="g6843">
      <symbol
         id="symbol9737"
         overflow="visible">
        <path
           id="path116"
           d=""
           style="stroke:none;" />
      </symbol>
      <symbol
         id="symbol5167"
         overflow="visible">
        <path
           id="path6090"
           d="M 7.578125 -6.921875 C 7.578125 -6.953125 7.5625 -7.03125 7.46875 -7.03125 C 7.4375 -7.03125 7.421875 -7.015625 7.3125 -6.90625 L 6.625 -6.140625 C 6.53125 -6.28125 6.078125 -7.03125 4.96875 -7.03125 C 2.734375 -7.03125 0.5 -4.828125 0.5 -2.515625 C 0.5 -0.921875 1.609375 0.21875 3.21875 0.21875 C 3.65625 0.21875 4.109375 0.125 4.46875 -0.015625 C 4.96875 -0.21875 5.15625 -0.421875 5.328125 -0.625 C 5.421875 -0.375 5.6875 -0.015625 5.78125 -0.015625 C 5.828125 -0.015625 5.859375 -0.046875 5.859375 -0.046875 C 5.875 -0.0625 5.96875 -0.453125 6.015625 -0.65625 L 6.203125 -1.421875 C 6.25 -1.59375 6.296875 -1.765625 6.34375 -1.9375 C 6.453125 -2.375 6.453125 -2.40625 7.03125 -2.40625 C 7.078125 -2.40625 7.1875 -2.421875 7.1875 -2.609375 C 7.1875 -2.6875 7.140625 -2.71875 7.0625 -2.71875 C 6.828125 -2.71875 6.234375 -2.6875 6.015625 -2.6875 C 5.703125 -2.6875 4.921875 -2.71875 4.609375 -2.71875 C 4.53125 -2.71875 4.40625 -2.71875 4.40625 -2.515625 C 4.40625 -2.40625 4.484375 -2.40625 4.703125 -2.40625 C 4.71875 -2.40625 5 -2.40625 5.234375 -2.390625 C 5.5 -2.359375 5.546875 -2.328125 5.546875 -2.203125 C 5.546875 -2.109375 5.4375 -1.671875 5.328125 -1.296875 C 5.046875 -0.203125 3.765625 -0.09375 3.40625 -0.09375 C 2.453125 -0.09375 1.40625 -0.65625 1.40625 -2.1875 C 1.40625 -2.5 1.5 -4.140625 2.546875 -5.4375 C 3.09375 -6.109375 4.0625 -6.71875 5.046875 -6.71875 C 6.0625 -6.71875 6.65625 -5.953125 6.65625 -4.796875 C 6.65625 -4.390625 6.625 -4.390625 6.625 -4.28125 C 6.625 -4.1875 6.734375 -4.1875 6.765625 -4.1875 C 6.890625 -4.1875 6.890625 -4.203125 6.953125 -4.390625 Z M 7.578125 -6.921875 "
           style="stroke:none;" />
      </symbol>
      <symbol
         id="symbol8613"
         overflow="visible">
        <path
           id="path5597"
           d=""
           style="stroke:none;" />
      </symbol>
      <symbol
         id="symbol548"
         overflow="visible">
        <path
           id="path1688"
           d="M 6.84375 -3.265625 C 7 -3.265625 7.1875 -3.265625 7.1875 -3.453125 C 7.1875 -3.65625 7 -3.65625 6.859375 -3.65625 L 0.890625 -3.65625 C 0.75 -3.65625 0.5625 -3.65625 0.5625 -3.453125 C 0.5625 -3.265625 0.75 -3.265625 0.890625 -3.265625 Z M 6.859375 -1.328125 C 7 -1.328125 7.1875 -1.328125 7.1875 -1.53125 C 7.1875 -1.71875 7 -1.71875 6.84375 -1.71875 L 0.890625 -1.71875 C 0.75 -1.71875 0.5625 -1.71875 0.5625 -1.53125 C 0.5625 -1.328125 0.75 -1.328125 0.890625 -1.328125 Z M 6.859375 -1.328125 "
           style="stroke:none;" />
      </symbol>
      <symbol
         id="symbol166"
         overflow="visible">
        <path
           id="path2203"
           d="M 4.578125 -3.1875 C 4.578125 -3.984375 4.53125 -4.78125 4.1875 -5.515625 C 3.734375 -6.484375 2.90625 -6.640625 2.5 -6.640625 C 1.890625 -6.640625 1.171875 -6.375 0.75 -5.453125 C 0.4375 -4.765625 0.390625 -3.984375 0.390625 -3.1875 C 0.390625 -2.4375 0.421875 -1.546875 0.84375 -0.78125 C 1.265625 0.015625 2 0.21875 2.484375 0.21875 C 3.015625 0.21875 3.78125 0.015625 4.21875 -0.9375 C 4.53125 -1.625 4.578125 -2.40625 4.578125 -3.1875 Z M 2.484375 0 C 2.09375 0 1.5 -0.25 1.328125 -1.203125 C 1.21875 -1.796875 1.21875 -2.71875 1.21875 -3.3125 C 1.21875 -3.953125 1.21875 -4.609375 1.296875 -5.140625 C 1.484375 -6.328125 2.234375 -6.421875 2.484375 -6.421875 C 2.8125 -6.421875 3.46875 -6.234375 3.65625 -5.25 C 3.765625 -4.6875 3.765625 -3.9375 3.765625 -3.3125 C 3.765625 -2.5625 3.765625 -1.890625 3.65625 -1.25 C 3.5 -0.296875 2.9375 0 2.484375 0 Z M 2.484375 0 "
           style="stroke:none;" />
      </symbol>
    </g>
  </defs>
  <metadata
     id="metadata7">
    <rdf:RDF>
      <cc:Work
         rdf:about="">
        <dc:format>image/svg+xml</dc:format>
        <dc:type
           rdf:resource="http://purl.org/dc/dcmitype/StillImage" />
        <dc:title></dc:title>
      </cc:Work>
    </rdf:RDF>
  </metadata>
  <g
     inkscape:label="Layer 1"
     inkscape:groupmode="layer"
     id="layer1"
     transform="translate(-306.2014,-410.66048)">
    <rect
       y="425.68643"
       x="322.67221"
       height="152.30128"
       width="245.50224"
       id="rect37861"
       style="fill:#e4e4dd;fill-opacity:1;stroke:none;stroke-width:1;stroke-linecap:round;stroke-linejoin:round;stroke-miterlimit:4;stroke-dasharray:1, 1;stroke-dashoffset:0;stroke-opacity:1" />
    <path
       id="path37859"
       d="M 376.55342,426.25207 H 510.18144 L 443.37759,492.9941 Z"
       style="fill:#f8f89d;fill-opacity:1;stroke:none;stroke-width:1px;stroke-linecap:butt;stroke-linejoin:miter;stroke-opacity:1" />
    <path
       inkscape:export-ydpi="115.52555"
       inkscape:export-xdpi="115.52555"
       inkscape:export-filename="/home/cyd/jupyter/MH2801/img/causality_contour.png"
       inkscape:connector-curvature="0"
       id="path4630"
       d="M 322.67221,577.98771 H 580.50086"
       style="fill:none;stroke:#000000;stroke-width:1.25;stroke-linecap:butt;stroke-linejoin:miter;stroke-miterlimit:4;stroke-dasharray:none;stroke-opacity:1;marker-end:url(#Arrow2Mend)"
       sodipodi:nodetypes="cc" />
    <path
       inkscape:export-ydpi="115.52555"
       inkscape:export-xdpi="115.52555"
       inkscape:export-filename="/home/cyd/jupyter/MH2801/img/causality_contour.png"
       sodipodi:nodetypes="cc"
       inkscape:connector-curvature="0"
       id="path4632"
       d="M 322.67221,577.98771 V 413.24823"
       style="fill:none;stroke:#000000;stroke-width:1.25;stroke-linecap:butt;stroke-linejoin:miter;stroke-miterlimit:4;stroke-dasharray:none;stroke-opacity:1;marker-end:url(#Arrow2Mend)" />
    <g
       inkscape:export-ydpi="115.52555"
       inkscape:export-xdpi="115.52555"
       inkscape:export-filename="/home/cyd/jupyter/MH2801/img/causality_contour.png"
       transform="translate(162.28101,185.26197)"
       id="g3510">
      <g
         style="font-style:normal;font-variant:normal;font-weight:normal;font-stretch:normal;letter-spacing:normal;word-spacing:normal;text-anchor:start;fill:none;stroke:#000000;stroke-linecap:butt;stroke-linejoin:miter;stroke-miterlimit:10.433;stroke-dasharray:none;stroke-dashoffset:0;stroke-opacity:1"
         id="g3512"
         transform="matrix(0.40415737,0,0,-0.40415737,-70.72754,378.42194)"
         xml:space="preserve"
         stroke-miterlimit="10.433"
         font-style="normal"
         font-variant="normal"
         font-weight="normal"
         font-stretch="normal"
         font-size-adjust="none"
         letter-spacing="normal"
         word-spacing="normal" />
    </g>
    <g
       inkscape:export-ydpi="115.52555"
       inkscape:export-xdpi="115.52555"
       inkscape:export-filename="/home/cyd/jupyter/MH2801/img/causality_contour.png"
       id="g3904"
       transform="translate(154.99242,184.40411)">
      <g
         word-spacing="normal"
         letter-spacing="normal"
         font-size-adjust="none"
         font-stretch="normal"
         font-weight="normal"
         font-variant="normal"
         font-style="normal"
         stroke-miterlimit="10.433"
         xml:space="preserve"
         transform="matrix(0.40415737,0,0,-0.40415737,-70.72754,378.42194)"
         id="g3906"
         style="font-style:normal;font-variant:normal;font-weight:normal;font-stretch:normal;letter-spacing:normal;word-spacing:normal;text-anchor:start;fill:none;stroke:#000000;stroke-linecap:butt;stroke-linejoin:miter;stroke-miterlimit:10.433;stroke-dasharray:none;stroke-dashoffset:0;stroke-opacity:1" />
    </g>
    <g
       style="stroke-width:1.11111"
       inkscape:export-ydpi="115.52555"
       inkscape:export-xdpi="115.52555"
       inkscape:export-filename="/home/cyd/jupyter/MH2801/img/causality_contour.png"
       transform="matrix(0.72,0,0,0.72,382.73566,348.15063)"
       id="g5317">
      <g
         style="font-style:normal;font-variant:normal;font-weight:normal;font-stretch:normal;letter-spacing:normal;word-spacing:normal;text-anchor:start;fill:none;stroke:#000000;stroke-width:1.23457;stroke-linecap:butt;stroke-linejoin:miter;stroke-miterlimit:10.433;stroke-dasharray:none;stroke-dashoffset:0;stroke-opacity:1"
         word-spacing="normal"
         letter-spacing="normal"
         font-size-adjust="none"
         font-stretch="normal"
         font-weight="normal"
         font-variant="normal"
         font-style="normal"
         stroke-miterlimit="10.433"
         xml:space="preserve"
         transform="matrix(0.40415737,0,0,-0.40415737,-70.72754,378.42194)"
         id="g5319"><path
           style="fill:#000000;stroke-width:0"
           inkscape:connector-curvature="0"
           id="path5321"
           d="m 463.44,441.78 v 0.16 0.17 l -0.01,0.16 v 0.08 0.08 l -0.01,0.08 -0.01,0.08 -0.01,0.07 -0.01,0.07 -0.02,0.07 -0.01,0.07 -0.02,0.07 -0.02,0.06 -0.03,0.06 -0.03,0.06 -0.03,0.06 -0.03,0.05 -0.04,0.05 -0.04,0.05 -0.05,0.04 -0.05,0.04 -0.03,0.01 -0.03,0.02 -0.03,0.02 -0.03,0.01 -0.03,0.01 -0.03,0.02 -0.03,0.01 -0.04,0.01 -0.04,0.01 -0.03,0.01 h -0.04 l -0.04,0.01 h -0.04 l -0.05,0.01 h -0.04 -0.05 c -1,0 -1,-0.89 -1,-1.78 v -46.24 c 0,-0.9 0,-1.79 1,-1.79 1,0 1,0.89 1,1.79 z" /><path
           style="fill:#000000;stroke-width:0"
           inkscape:connector-curvature="0"
           id="path5323"
           d="m 485.96,421.25 0.03,0.13 0.03,0.15 0.04,0.16 0.05,0.18 0.05,0.19 0.06,0.21 0.07,0.22 0.07,0.22 0.08,0.23 0.09,0.24 0.09,0.25 0.11,0.24 0.11,0.25 0.12,0.25 0.13,0.25 0.13,0.25 0.15,0.24 0.16,0.24 0.17,0.23 0.17,0.22 0.19,0.22 0.2,0.2 0.21,0.19 0.22,0.18 0.23,0.16 0.25,0.14 0.12,0.07 0.13,0.06 0.13,0.05 0.14,0.05 0.14,0.05 0.14,0.04 0.15,0.03 0.15,0.03 0.15,0.02 0.15,0.02 0.16,0.01 h 0.16 c 0.25,0 1.44,0 2.49,-0.64 -1.39,-0.25 -2.39,-1.5 -2.39,-2.69 0,-0.79 0.55,-1.75 1.89,-1.75 1.09,0 2.69,0.89 2.69,2.89 0,2.6 -2.94,3.28 -4.63,3.28 -2.89,0 -4.64,-2.64 -5.23,-3.78 -1.25,3.28 -3.94,3.78 -5.38,3.78 -5.19,0 -8.03,-6.42 -8.03,-7.67 0,-0.5 0.5,-0.5 0.61,-0.5 0.39,0 0.55,0.11 0.64,0.55 1.69,5.28 4.99,6.53 6.67,6.53 0.96,0 2.69,-0.44 2.69,-3.33 0,-1.54 -0.84,-4.89 -2.69,-11.86 -0.79,-3.09 -2.53,-5.18 -4.73,-5.18 -0.3,0 -1.44,0 -2.49,0.65 1.25,0.24 2.35,1.28 2.35,2.69 0,1.34 -1.1,1.73 -1.85,1.73 -1.5,0 -2.75,-1.29 -2.75,-2.89 0,-2.28 2.5,-3.28 4.69,-3.28 3.3,0 5.08,3.49 5.24,3.78 0.59,-1.84 2.39,-3.78 5.37,-3.78 5.14,0 7.99,6.42 7.99,7.67 0,0.5 -0.46,0.5 -0.61,0.5 -0.44,0 -0.55,-0.2 -0.64,-0.54 -1.65,-5.33 -5.04,-6.53 -6.63,-6.53 -1.95,0 -2.75,1.59 -2.75,3.29 0,1.1 0.3,2.19 0.86,4.38 z" /><path
           style="fill:#000000;stroke-width:0"
           inkscape:connector-curvature="0"
           id="path5325"
           d="m 541.74,417.65 h 0.16 0.16 l 0.16,0.01 h 0.07 l 0.08,0.01 h 0.08 l 0.07,0.01 0.08,0.01 0.07,0.01 0.07,0.02 0.06,0.02 0.07,0.02 0.06,0.02 0.06,0.02 0.06,0.03 0.06,0.03 0.05,0.04 0.05,0.03 0.05,0.05 0.04,0.04 0.04,0.05 0.02,0.03 0.01,0.03 0.02,0.03 0.01,0.03 0.02,0.03 0.01,0.03 0.01,0.04 0.01,0.03 0.01,0.04 0.01,0.04 0.01,0.04 v 0.04 l 0.01,0.04 v 0.04 0.05 0.04 c 0,1 -0.9,1 -1.75,1 h -26.95 c -0.84,0 -1.74,0 -1.74,-1 0,-1 0.9,-1 1.74,-1 z" /><path
           style="fill:#000000;stroke-width:0"
           inkscape:connector-curvature="0"
           id="path5327"
           d="m 575.35,421.25 0.03,0.13 0.04,0.15 0.04,0.16 0.05,0.18 0.05,0.19 0.06,0.21 0.06,0.22 0.08,0.22 0.08,0.23 0.08,0.24 0.1,0.25 0.1,0.24 0.11,0.25 0.12,0.25 0.13,0.25 0.14,0.25 0.15,0.24 0.15,0.24 0.17,0.23 0.18,0.22 0.18,0.22 0.2,0.2 0.21,0.19 0.22,0.18 0.23,0.16 0.25,0.14 0.13,0.07 0.13,0.06 0.13,0.05 0.13,0.05 0.14,0.05 0.15,0.04 0.14,0.03 0.15,0.03 0.15,0.02 0.16,0.02 0.16,0.01 h 0.16 c 0.25,0 1.44,0 2.48,-0.64 -1.39,-0.25 -2.39,-1.5 -2.39,-2.69 0,-0.79 0.55,-1.75 1.89,-1.75 1.1,0 2.69,0.89 2.69,2.89 0,2.6 -2.94,3.28 -4.62,3.28 -2.89,0 -4.64,-2.64 -5.24,-3.78 -1.25,3.28 -3.94,3.78 -5.37,3.78 -5.19,0 -8.03,-6.42 -8.03,-7.67 0,-0.5 0.5,-0.5 0.6,-0.5 0.4,0 0.55,0.11 0.65,0.55 1.68,5.28 4.98,6.53 6.67,6.53 0.95,0 2.68,-0.44 2.68,-3.33 0,-1.54 -0.84,-4.89 -2.68,-11.86 -0.8,-3.09 -2.53,-5.18 -4.74,-5.18 -0.29,0 -1.43,0 -2.48,0.65 1.25,0.24 2.34,1.28 2.34,2.69 0,1.34 -1.09,1.73 -1.84,1.73 -1.5,0 -2.75,-1.29 -2.75,-2.89 0,-2.28 2.5,-3.28 4.69,-3.28 3.29,0 5.07,3.49 5.23,3.78 0.59,-1.84 2.39,-3.78 5.38,-3.78 5.14,0 7.98,6.42 7.98,7.67 0,0.5 -0.45,0.5 -0.61,0.5 -0.44,0 -0.55,-0.2 -0.64,-0.54 -1.64,-5.33 -5.03,-6.53 -6.63,-6.53 -1.95,0 -2.75,1.59 -2.75,3.29 0,1.1 0.3,2.19 0.86,4.38 z" /><path
           style="fill:#000000;stroke-width:0"
           inkscape:connector-curvature="0"
           id="path5329"
           d="m 597.27,440.65 0.03,0.06 0.02,0.05 0.02,0.05 0.02,0.05 0.02,0.04 0.02,0.05 0.02,0.04 0.02,0.04 0.01,0.05 0.02,0.04 0.01,0.03 0.01,0.04 0.01,0.04 0.01,0.03 0.01,0.04 0.01,0.03 0.01,0.03 0.01,0.03 v 0.03 l 0.01,0.03 v 0.03 l 0.01,0.03 v 0.03 0.02 l 0.01,0.06 v 0.05 0.04 0.05 c 0,1.08 -0.98,1.92 -2.06,1.92 -1.33,0 -1.74,-1.09 -1.91,-1.64 L 589,426.95 c -0.03,-0.06 -0.17,-0.52 -0.17,-0.56 0,-0.41 1.08,-0.77 1.36,-0.77 0.25,0 0.28,0.08 0.52,0.59 z" /><path
           style="fill:#000000;stroke-width:0"
           inkscape:connector-curvature="0"
           id="path5331"
           d="m 609.12,441.78 v 0.16 0.17 l -0.01,0.16 v 0.08 0.08 l -0.01,0.08 -0.01,0.08 -0.01,0.07 -0.01,0.07 -0.02,0.07 -0.01,0.07 -0.02,0.07 -0.02,0.06 -0.03,0.06 -0.03,0.06 -0.03,0.06 -0.03,0.05 -0.04,0.05 -0.04,0.05 -0.05,0.04 -0.05,0.04 -0.03,0.01 -0.03,0.02 -0.03,0.02 -0.03,0.01 -0.03,0.01 -0.03,0.02 -0.03,0.01 -0.04,0.01 -0.04,0.01 -0.03,0.01 h -0.04 l -0.04,0.01 h -0.04 l -0.05,0.01 h -0.04 -0.05 c -1,0 -1,-0.89 -1,-1.78 v -46.24 c 0,-0.9 0,-1.79 1,-1.79 1,0 1,0.89 1,1.79 z" /><path
           style="fill:#000000;stroke-width:0"
           inkscape:connector-curvature="0"
           id="path5333"
           d="m 662.54,417.56 0.1,0.05 0.1,0.04 0.05,0.03 0.04,0.02 0.05,0.03 0.04,0.02 0.05,0.03 0.04,0.02 0.04,0.03 0.03,0.03 0.04,0.03 0.04,0.03 0.03,0.03 0.03,0.03 0.04,0.03 0.03,0.03 0.02,0.04 0.03,0.03 0.02,0.04 0.03,0.04 0.02,0.04 0.01,0.04 0.02,0.04 0.01,0.04 0.02,0.05 0.01,0.05 0.01,0.04 v 0.05 0.06 l 0.01,0.05 c 0,0.6 -0.41,0.85 -0.96,1.1 l -27.59,13.01 c -0.66,0.35 -0.75,0.35 -0.91,0.35 -0.54,0 -0.98,-0.46 -0.98,-1 0,-0.46 0.25,-0.75 0.94,-1.1 L 660.15,418.65 634,406.29 c -0.69,-0.34 -0.94,-0.64 -0.94,-1.09 0,-0.55 0.44,-1 0.98,-1 0.16,0 0.25,0 0.91,0.36 z" /><path
           style="fill:#000000;stroke-width:0"
           inkscape:connector-curvature="0"
           id="path5335"
           d="m 691.74,426.12 h 4.69 c 0.98,0 1.48,0 1.48,1 0,0.55 -0.5,0.55 -1.39,0.55 h -4.39 c 1.8,7.08 2.05,8.08 2.05,8.37 0,0.85 -0.59,1.35 -1.44,1.35 -0.15,0 -1.54,-0.05 -2,-1.8 l -1.94,-7.92 h -4.68 c -1,0 -1.5,0 -1.5,-0.94 0,-0.61 0.4,-0.61 1.4,-0.61 h 4.38 c -3.58,-14.14 -3.78,-14.98 -3.78,-15.89 0,-2.69 1.89,-4.58 4.58,-4.58 5.07,0 7.92,7.27 7.92,7.67 0,0.5 -0.39,0.5 -0.6,0.5 -0.45,0 -0.5,-0.15 -0.75,-0.7 -2.14,-5.17 -4.78,-6.37 -6.47,-6.37 -1.04,0 -1.54,0.65 -1.54,2.29 0,1.19 0.09,1.55 0.29,2.39 z" /><path
           style="fill:#000000;stroke-width:0"
           inkscape:connector-curvature="0"
           id="path5337"
           d="m 743.34,417.65 h 0.16 0.16 l 0.16,0.01 h 0.08 l 0.07,0.01 h 0.08 l 0.07,0.01 0.08,0.01 0.07,0.01 0.07,0.02 0.07,0.02 0.06,0.02 0.07,0.02 0.06,0.02 0.05,0.03 0.06,0.03 0.05,0.04 0.05,0.03 0.05,0.05 0.04,0.04 0.04,0.05 0.02,0.03 0.01,0.03 0.02,0.03 0.01,0.03 0.02,0.03 0.01,0.03 0.01,0.04 0.01,0.03 0.01,0.04 0.01,0.04 0.01,0.04 v 0.04 l 0.01,0.04 v 0.04 0.05 0.04 c 0,1 -0.9,1 -1.75,1 h -26.95 c -0.84,0 -1.73,0 -1.73,-1 0,-1 0.89,-1 1.73,-1 z" /><path
           style="fill:#000000;stroke-width:0"
           inkscape:connector-curvature="0"
           id="path5339"
           d="m 770.58,426.12 h 4.69 c 0.98,0 1.48,0 1.48,1 0,0.55 -0.5,0.55 -1.39,0.55 h -4.39 c 1.8,7.08 2.05,8.08 2.05,8.37 0,0.85 -0.6,1.35 -1.44,1.35 -0.16,0 -1.55,-0.05 -2,-1.8 l -1.94,-7.92 h -4.69 c -1,0 -1.5,0 -1.5,-0.94 0,-0.61 0.41,-0.61 1.41,-0.61 h 4.37 c -3.57,-14.14 -3.78,-14.98 -3.78,-15.89 0,-2.69 1.89,-4.58 4.58,-4.58 5.08,0 7.92,7.27 7.92,7.67 0,0.5 -0.39,0.5 -0.59,0.5 -0.45,0 -0.5,-0.15 -0.75,-0.7 -2.14,-5.17 -4.78,-6.37 -6.47,-6.37 -1.05,0 -1.55,0.65 -1.55,2.29 0,1.19 0.1,1.55 0.3,2.39 z" /><path
           style="fill:#000000;stroke-width:0"
           inkscape:connector-curvature="0"
           id="path5341"
           d="m 788.43,440.65 0.03,0.06 0.02,0.05 0.02,0.05 0.02,0.05 0.02,0.04 0.02,0.05 0.02,0.04 0.02,0.04 0.01,0.05 0.02,0.04 0.01,0.03 0.01,0.04 0.01,0.04 0.01,0.03 0.01,0.04 0.01,0.03 0.01,0.03 0.01,0.03 v 0.03 l 0.01,0.03 v 0.03 l 0.01,0.03 v 0.03 0.02 l 0.01,0.06 v 0.05 0.04 0.05 c 0,1.08 -0.98,1.92 -2.06,1.92 -1.33,0 -1.73,-1.09 -1.91,-1.64 l -4.61,-15.09 c -0.03,-0.06 -0.17,-0.52 -0.17,-0.56 0,-0.41 1.08,-0.77 1.36,-0.77 0.25,0 0.28,0.08 0.52,0.59 z" /></g>
    </g>
    <g
       style="stroke-width:1.11111"
       inkscape:export-ydpi="115.52555"
       inkscape:export-xdpi="115.52555"
       inkscape:export-filename="/home/cyd/jupyter/MH2801/img/causality_contour.png"
       transform="matrix(0.72,0,0,0.72,313.65312,285.83847)"
       id="g5741">
      <g
         style="font-style:normal;font-variant:normal;font-weight:normal;font-stretch:normal;letter-spacing:normal;word-spacing:normal;text-anchor:start;fill:none;stroke:#000000;stroke-width:1.23457;stroke-linecap:butt;stroke-linejoin:miter;stroke-miterlimit:10.433;stroke-dasharray:none;stroke-dashoffset:0;stroke-opacity:1"
         id="g5743"
         transform="matrix(0.40415737,0,0,-0.40415737,-70.72754,378.42194)"
         xml:space="preserve"
         stroke-miterlimit="10.433"
         font-style="normal"
         font-variant="normal"
         font-weight="normal"
         font-stretch="normal"
         font-size-adjust="none"
         letter-spacing="normal"
         word-spacing="normal"><path
           style="fill:#000000;stroke-width:0"
           inkscape:connector-curvature="0"
           d="m 463.44,441.78 v 0.16 0.17 l -0.01,0.16 v 0.08 0.08 l -0.01,0.08 -0.01,0.08 -0.01,0.07 -0.01,0.07 -0.02,0.07 -0.01,0.07 -0.02,0.07 -0.02,0.06 -0.03,0.06 -0.03,0.06 -0.03,0.06 -0.03,0.05 -0.04,0.05 -0.04,0.05 -0.05,0.04 -0.05,0.04 -0.03,0.01 -0.03,0.02 -0.03,0.02 -0.03,0.01 -0.03,0.01 -0.03,0.02 -0.03,0.01 -0.04,0.01 -0.04,0.01 -0.03,0.01 h -0.04 l -0.04,0.01 h -0.04 l -0.05,0.01 h -0.04 -0.05 c -1,0 -1,-0.89 -1,-1.78 v -46.24 c 0,-0.9 0,-1.79 1,-1.79 1,0 1,0.89 1,1.79 z"
           id="path5745" /><path
           style="fill:#000000;stroke-width:0"
           inkscape:connector-curvature="0"
           d="m 485.96,421.25 0.03,0.13 0.03,0.15 0.04,0.16 0.05,0.18 0.05,0.19 0.06,0.21 0.07,0.22 0.07,0.22 0.08,0.23 0.09,0.24 0.09,0.25 0.11,0.24 0.11,0.25 0.12,0.25 0.13,0.25 0.13,0.25 0.15,0.24 0.16,0.24 0.17,0.23 0.17,0.22 0.19,0.22 0.2,0.2 0.21,0.19 0.22,0.18 0.23,0.16 0.25,0.14 0.12,0.07 0.13,0.06 0.13,0.05 0.14,0.05 0.14,0.05 0.14,0.04 0.15,0.03 0.15,0.03 0.15,0.02 0.15,0.02 0.16,0.01 h 0.16 c 0.25,0 1.44,0 2.49,-0.64 -1.39,-0.25 -2.39,-1.5 -2.39,-2.69 0,-0.79 0.55,-1.75 1.89,-1.75 1.09,0 2.69,0.89 2.69,2.89 0,2.6 -2.94,3.28 -4.63,3.28 -2.89,0 -4.64,-2.64 -5.23,-3.78 -1.25,3.28 -3.94,3.78 -5.38,3.78 -5.19,0 -8.03,-6.42 -8.03,-7.67 0,-0.5 0.5,-0.5 0.61,-0.5 0.39,0 0.55,0.11 0.64,0.55 1.69,5.28 4.99,6.53 6.67,6.53 0.96,0 2.69,-0.44 2.69,-3.33 0,-1.54 -0.84,-4.89 -2.69,-11.86 -0.79,-3.09 -2.53,-5.18 -4.73,-5.18 -0.3,0 -1.44,0 -2.49,0.65 1.25,0.24 2.35,1.28 2.35,2.69 0,1.34 -1.1,1.73 -1.85,1.73 -1.5,0 -2.75,-1.29 -2.75,-2.89 0,-2.28 2.5,-3.28 4.69,-3.28 3.3,0 5.08,3.49 5.24,3.78 0.59,-1.84 2.39,-3.78 5.37,-3.78 5.14,0 7.99,6.42 7.99,7.67 0,0.5 -0.46,0.5 -0.61,0.5 -0.44,0 -0.55,-0.2 -0.64,-0.54 -1.65,-5.33 -5.04,-6.53 -6.63,-6.53 -1.95,0 -2.75,1.59 -2.75,3.29 0,1.1 0.3,2.19 0.86,4.38 z"
           id="path5747" /><path
           style="fill:#000000;stroke-width:0"
           inkscape:connector-curvature="0"
           d="m 541.74,417.65 h 0.16 0.16 l 0.16,0.01 h 0.07 l 0.08,0.01 h 0.08 l 0.07,0.01 0.08,0.01 0.07,0.01 0.07,0.02 0.06,0.02 0.07,0.02 0.06,0.02 0.06,0.02 0.06,0.03 0.06,0.03 0.05,0.04 0.05,0.03 0.05,0.05 0.04,0.04 0.04,0.05 0.02,0.03 0.01,0.03 0.02,0.03 0.01,0.03 0.02,0.03 0.01,0.03 0.01,0.04 0.01,0.03 0.01,0.04 0.01,0.04 0.01,0.04 v 0.04 l 0.01,0.04 v 0.04 0.05 0.04 c 0,1 -0.9,1 -1.75,1 h -26.95 c -0.84,0 -1.74,0 -1.74,-1 0,-1 0.9,-1 1.74,-1 z"
           id="path5749" /><path
           style="fill:#000000;stroke-width:0"
           inkscape:connector-curvature="0"
           d="m 575.35,421.25 0.03,0.13 0.04,0.15 0.04,0.16 0.05,0.18 0.05,0.19 0.06,0.21 0.06,0.22 0.08,0.22 0.08,0.23 0.08,0.24 0.1,0.25 0.1,0.24 0.11,0.25 0.12,0.25 0.13,0.25 0.14,0.25 0.15,0.24 0.15,0.24 0.17,0.23 0.18,0.22 0.18,0.22 0.2,0.2 0.21,0.19 0.22,0.18 0.23,0.16 0.25,0.14 0.13,0.07 0.13,0.06 0.13,0.05 0.13,0.05 0.14,0.05 0.15,0.04 0.14,0.03 0.15,0.03 0.15,0.02 0.16,0.02 0.16,0.01 h 0.16 c 0.25,0 1.44,0 2.48,-0.64 -1.39,-0.25 -2.39,-1.5 -2.39,-2.69 0,-0.79 0.55,-1.75 1.89,-1.75 1.1,0 2.69,0.89 2.69,2.89 0,2.6 -2.94,3.28 -4.62,3.28 -2.89,0 -4.64,-2.64 -5.24,-3.78 -1.25,3.28 -3.94,3.78 -5.37,3.78 -5.19,0 -8.03,-6.42 -8.03,-7.67 0,-0.5 0.5,-0.5 0.6,-0.5 0.4,0 0.55,0.11 0.65,0.55 1.68,5.28 4.98,6.53 6.67,6.53 0.95,0 2.68,-0.44 2.68,-3.33 0,-1.54 -0.84,-4.89 -2.68,-11.86 -0.8,-3.09 -2.53,-5.18 -4.74,-5.18 -0.29,0 -1.43,0 -2.48,0.65 1.25,0.24 2.34,1.28 2.34,2.69 0,1.34 -1.09,1.73 -1.84,1.73 -1.5,0 -2.75,-1.29 -2.75,-2.89 0,-2.28 2.5,-3.28 4.69,-3.28 3.29,0 5.07,3.49 5.23,3.78 0.59,-1.84 2.39,-3.78 5.38,-3.78 5.14,0 7.98,6.42 7.98,7.67 0,0.5 -0.45,0.5 -0.61,0.5 -0.44,0 -0.55,-0.2 -0.64,-0.54 -1.64,-5.33 -5.03,-6.53 -6.63,-6.53 -1.95,0 -2.75,1.59 -2.75,3.29 0,1.1 0.3,2.19 0.86,4.38 z"
           id="path5751" /><path
           style="fill:#000000;stroke-width:0"
           inkscape:connector-curvature="0"
           d="m 597.27,440.65 0.03,0.06 0.02,0.05 0.02,0.05 0.02,0.05 0.02,0.04 0.02,0.05 0.02,0.04 0.02,0.04 0.01,0.05 0.02,0.04 0.01,0.03 0.01,0.04 0.01,0.04 0.01,0.03 0.01,0.04 0.01,0.03 0.01,0.03 0.01,0.03 v 0.03 l 0.01,0.03 v 0.03 l 0.01,0.03 v 0.03 0.02 l 0.01,0.06 v 0.05 0.04 0.05 c 0,1.08 -0.98,1.92 -2.06,1.92 -1.33,0 -1.74,-1.09 -1.91,-1.64 L 589,426.95 c -0.03,-0.06 -0.17,-0.52 -0.17,-0.56 0,-0.41 1.08,-0.77 1.36,-0.77 0.25,0 0.28,0.08 0.52,0.59 z"
           id="path5753" /><path
           style="fill:#000000;stroke-width:0"
           inkscape:connector-curvature="0"
           d="m 609.12,441.78 v 0.16 0.17 l -0.01,0.16 v 0.08 0.08 l -0.01,0.08 -0.01,0.08 -0.01,0.07 -0.01,0.07 -0.02,0.07 -0.01,0.07 -0.02,0.07 -0.02,0.06 -0.03,0.06 -0.03,0.06 -0.03,0.06 -0.03,0.05 -0.04,0.05 -0.04,0.05 -0.05,0.04 -0.05,0.04 -0.03,0.01 -0.03,0.02 -0.03,0.02 -0.03,0.01 -0.03,0.01 -0.03,0.02 -0.03,0.01 -0.04,0.01 -0.04,0.01 -0.03,0.01 h -0.04 l -0.04,0.01 h -0.04 l -0.05,0.01 h -0.04 -0.05 c -1,0 -1,-0.89 -1,-1.78 v -46.24 c 0,-0.9 0,-1.79 1,-1.79 1,0 1,0.89 1,1.79 z"
           id="path5755" /><path
           style="fill:#000000;stroke-width:0"
           inkscape:connector-curvature="0"
           d="m 662.54,431.01 0.06,0.03 0.05,0.03 0.06,0.02 0.05,0.03 0.05,0.03 0.05,0.03 0.04,0.02 0.05,0.03 0.04,0.03 0.04,0.03 0.04,0.03 0.04,0.02 0.04,0.03 0.03,0.03 0.04,0.03 0.03,0.04 0.03,0.03 0.03,0.03 0.02,0.03 0.03,0.04 0.02,0.03 0.02,0.04 0.02,0.04 0.01,0.04 0.02,0.04 0.01,0.04 0.01,0.04 0.01,0.04 0.01,0.05 v 0.05 0.04 l 0.01,0.06 c 0,0.54 -0.46,1 -1,1 -0.15,0 -0.25,0 -0.9,-0.35 L 634,419.75 c -0.55,-0.25 -0.94,-0.5 -0.94,-1.1 0,-0.59 0.39,-0.84 0.94,-1.09 l 27.6,-13 c 0.65,-0.36 0.75,-0.36 0.9,-0.36 0.54,0 1,0.45 1,1 0,0.55 -0.35,0.8 -0.96,1.09 l -26.15,12.36 z"
           id="path5757" /><path
           style="fill:#000000;stroke-width:0"
           inkscape:connector-curvature="0"
           d="m 691.74,426.12 h 4.69 c 0.98,0 1.48,0 1.48,1 0,0.55 -0.5,0.55 -1.39,0.55 h -4.39 c 1.8,7.08 2.05,8.08 2.05,8.37 0,0.85 -0.59,1.35 -1.44,1.35 -0.15,0 -1.54,-0.05 -2,-1.8 l -1.94,-7.92 h -4.68 c -1,0 -1.5,0 -1.5,-0.94 0,-0.61 0.4,-0.61 1.4,-0.61 h 4.38 c -3.58,-14.14 -3.78,-14.98 -3.78,-15.89 0,-2.69 1.89,-4.58 4.58,-4.58 5.07,0 7.92,7.27 7.92,7.67 0,0.5 -0.39,0.5 -0.6,0.5 -0.45,0 -0.5,-0.15 -0.75,-0.7 -2.14,-5.17 -4.78,-6.37 -6.47,-6.37 -1.04,0 -1.54,0.65 -1.54,2.29 0,1.19 0.09,1.55 0.29,2.39 z"
           id="path5759" /><path
           style="fill:#000000;stroke-width:0"
           inkscape:connector-curvature="0"
           d="m 743.34,417.65 h 0.16 0.16 l 0.16,0.01 h 0.08 l 0.07,0.01 h 0.08 l 0.07,0.01 0.08,0.01 0.07,0.01 0.07,0.02 0.07,0.02 0.06,0.02 0.07,0.02 0.06,0.02 0.05,0.03 0.06,0.03 0.05,0.04 0.05,0.03 0.05,0.05 0.04,0.04 0.04,0.05 0.02,0.03 0.01,0.03 0.02,0.03 0.01,0.03 0.02,0.03 0.01,0.03 0.01,0.04 0.01,0.03 0.01,0.04 0.01,0.04 0.01,0.04 v 0.04 l 0.01,0.04 v 0.04 0.05 0.04 c 0,1 -0.9,1 -1.75,1 h -26.95 c -0.84,0 -1.73,0 -1.73,-1 0,-1 0.89,-1 1.73,-1 z"
           id="path5761" /><path
           style="fill:#000000;stroke-width:0"
           inkscape:connector-curvature="0"
           d="m 770.58,426.12 h 4.69 c 0.98,0 1.48,0 1.48,1 0,0.55 -0.5,0.55 -1.39,0.55 h -4.39 c 1.8,7.08 2.05,8.08 2.05,8.37 0,0.85 -0.6,1.35 -1.44,1.35 -0.16,0 -1.55,-0.05 -2,-1.8 l -1.94,-7.92 h -4.69 c -1,0 -1.5,0 -1.5,-0.94 0,-0.61 0.41,-0.61 1.41,-0.61 h 4.37 c -3.57,-14.14 -3.78,-14.98 -3.78,-15.89 0,-2.69 1.89,-4.58 4.58,-4.58 5.08,0 7.92,7.27 7.92,7.67 0,0.5 -0.39,0.5 -0.59,0.5 -0.45,0 -0.5,-0.15 -0.75,-0.7 -2.14,-5.17 -4.78,-6.37 -6.47,-6.37 -1.05,0 -1.55,0.65 -1.55,2.29 0,1.19 0.1,1.55 0.3,2.39 z"
           id="path5763" /><path
           style="fill:#000000;stroke-width:0"
           inkscape:connector-curvature="0"
           d="m 788.43,440.65 0.03,0.06 0.02,0.05 0.02,0.05 0.02,0.05 0.02,0.04 0.02,0.05 0.02,0.04 0.02,0.04 0.01,0.05 0.02,0.04 0.01,0.03 0.01,0.04 0.01,0.04 0.01,0.03 0.01,0.04 0.01,0.03 0.01,0.03 0.01,0.03 v 0.03 l 0.01,0.03 v 0.03 l 0.01,0.03 v 0.03 0.02 l 0.01,0.06 v 0.05 0.04 0.05 c 0,1.08 -0.98,1.92 -2.06,1.92 -1.33,0 -1.73,-1.09 -1.91,-1.64 l -4.61,-15.09 c -0.03,-0.06 -0.17,-0.52 -0.17,-0.56 0,-0.41 1.08,-0.77 1.36,-0.77 0.25,0 0.28,0.08 0.52,0.59 z"
           id="path5765" /></g>
    </g>
    <g
       style="stroke-width:0.670894"
       inkscape:label=""
       transform="matrix(1.4905483,0,0,1.4905483,447.48286,467.40451)"
       id="g26548">
      <g
         style="stroke-width:0.670894"
         id="g9940">
        <g
           id="g4669"
           style="fill:#000000;fill-opacity:1;stroke-width:0.670894">
          <use
             style="stroke-width:0.670894"
             height="100%"
             width="100%"
             id="use8778"
             y="81.962997"
             x="91.925003"
             xlink:href="#symbol2436" />
        </g>
      </g>
    </g>
    <g
       style="stroke-width:0.670894"
       inkscape:label=""
       transform="matrix(1.4905483,0,0,1.4905483,171.64276,297.78331)"
       id="g26723">
      <g
         style="stroke-width:0.670894"
         id="g2652">
        <g
           id="g9165"
           style="fill:#000000;fill-opacity:1;stroke-width:0.670894">
          <use
             style="stroke-width:0.670894"
             height="100%"
             width="100%"
             id="use584"
             y="81.962997"
             x="91.925003"
             xlink:href="#symbol640" />
        </g>
      </g>
    </g>
    <g
       style="stroke-width:0.659375"
       inkscape:label=""
       transform="matrix(1.516589,0,0,1.516589,166.4335,372.93459)"
       id="g26899">
      <g
         style="stroke-width:0.659375"
         id="g9227">
        <g
           id="g2197"
           style="fill:#000000;fill-opacity:1;stroke-width:0.659375">
          <use
             style="stroke-width:0.659375"
             height="100%"
             width="100%"
             id="use296"
             y="81.962997"
             x="91.925003"
             xlink:href="#symbol4539" />
        </g>
        <g
           id="g9495"
           style="fill:#000000;fill-opacity:1;stroke-width:0.659375">
          <use
             style="stroke-width:0.659375"
             height="100%"
             width="100%"
             id="use2574"
             y="78.348"
             x="95.523003"
             xlink:href="#symbol3491" />
        </g>
      </g>
    </g>
    <g
       style="stroke-width:0.659375"
       inkscape:label=""
       transform="matrix(1.516589,0,0,1.516589,299.50889,469.74813)"
       id="g27096">
      <g
         style="stroke-width:0.659375"
         id="g2937">
        <g
           id="g2135"
           style="fill:#000000;fill-opacity:1;stroke-width:0.659375">
          <use
             style="stroke-width:0.659375"
             height="100%"
             width="100%"
             id="use6100"
             y="81.962997"
             x="91.925003"
             xlink:href="#symbol7013" />
        </g>
        <g
           id="g4072"
           style="fill:#000000;fill-opacity:1;stroke-width:0.659375">
          <use
             style="stroke-width:0.659375"
             height="100%"
             width="100%"
             id="use9176"
             y="78.348"
             x="97.619003"
             xlink:href="#symbol961" />
        </g>
      </g>
    </g>
    <path
       id="path28178"
       d="M 436.953,492.5316 H 324.89816"
       style="fill:none;stroke:#888788;stroke-width:1.5;stroke-linecap:butt;stroke-linejoin:miter;stroke-miterlimit:4;stroke-dasharray:4.5, 4.5;stroke-dashoffset:0;stroke-opacity:1" />
    <path
       id="path28180"
       d="m 443.27889,498.72306 v 76.75829"
       style="fill:none;stroke:#888788;stroke-width:1.5;stroke-linecap:butt;stroke-linejoin:miter;stroke-miterlimit:4;stroke-dasharray:4.5, 4.5;stroke-dashoffset:0;stroke-opacity:1" />
    <path
       sodipodi:nodetypes="cc"
       id="path37838"
       d="m 443.37759,492.9941 66.80385,66.88599"
       style="fill:none;stroke:#000000;stroke-width:1;stroke-linecap:butt;stroke-linejoin:miter;stroke-miterlimit:4;stroke-dasharray:1, 1;stroke-dashoffset:0;stroke-opacity:1" />
    <path
       sodipodi:nodetypes="cc"
       id="path37840"
       d="m 443.37759,492.9941 -66.82417,66.88599"
       style="fill:none;stroke:#000000;stroke-width:1;stroke-linecap:butt;stroke-linejoin:miter;stroke-miterlimit:4;stroke-dasharray:1, 1;stroke-dashoffset:0;stroke-opacity:1" />
    <path
       id="path37842"
       d="M 443.37759,492.9941 376.55342,426.25207"
       style="fill:none;stroke:#000000;stroke-width:1px;stroke-linecap:butt;stroke-linejoin:miter;stroke-opacity:1" />
    <path
       sodipodi:nodetypes="cc"
       style="fill:none;stroke:#000000;stroke-width:1px;stroke-linecap:butt;stroke-linejoin:miter;stroke-opacity:1"
       d="m 443.37759,492.9941 66.80385,-66.74203"
       id="path37842-3" />
    <circle
       r="3.6683912"
       cy="492.6608"
       cx="443.31812"
       inkscape:export-ydpi="115.52555"
       inkscape:export-xdpi="115.52555"
       inkscape:export-filename="/home/cyd/jupyter/MH2801/img/causality_contour.png"
       id="path4188-8"
       style="fill:#ff3e0e;fill-opacity:1;stroke:none;stroke-width:0.611399;stroke-miterlimit:4;stroke-dasharray:none;stroke-dashoffset:0;stroke-opacity:1" />
    <g
       style="stroke-width:0.709882"
       inkscape:label=""
       transform="matrix(1.4086855,0,0,1.4086855,289.23152,345.66396)"
       id="g1510">
      <g
         style="stroke-width:0.709882"
         id="g8213">
        <g
           id="g3432"
           style="fill:#000000;fill-opacity:1;stroke-width:0.709882">
          <use
             style="stroke-width:0.709882"
             height="100%"
             width="100%"
             id="use9492"
             y="81.962997"
             x="91.925003"
             xlink:href="#symbol915" />
        </g>
        <g
           id="g3370"
           style="fill:#000000;fill-opacity:1;stroke-width:0.709882">
          <use
             style="stroke-width:0.709882"
             height="100%"
             width="100%"
             id="use3981"
             y="81.962997"
             x="102.526"
             xlink:href="#symbol6148" />
        </g>
        <g
           id="g5909"
           style="fill:#000000;fill-opacity:1;stroke-width:0.709882">
          <use
             style="stroke-width:0.709882"
             height="100%"
             width="100%"
             id="use1518"
             y="81.962997"
             x="113.042"
             xlink:href="#symbol8013" />
        </g>
        <g
           id="g3643"
           style="fill:#000000;fill-opacity:1;stroke-width:0.709882">
          <use
             style="stroke-width:0.709882"
             height="100%"
             width="100%"
             id="use9163"
             y="78.040001"
             x="121.986"
             xlink:href="#symbol7824" />
        </g>
        <path
           id="path3754"
           transform="matrix(1,0,0,-1,121.986,79.472)"
           d="M -0.001625,-6.5625e-4 H 3.971031"
           style="fill:none;stroke:#000000;stroke-width:0.282533;stroke-linecap:butt;stroke-linejoin:miter;stroke-miterlimit:10;stroke-opacity:1" />
        <g
           id="g1268"
           style="fill:#000000;fill-opacity:1;stroke-width:0.709882">
          <use
             style="stroke-width:0.709882"
             height="100%"
             width="100%"
             id="use5932"
             y="85.398003"
             x="121.986"
             xlink:href="#symbol976" />
        </g>
      </g>
    </g>
    <g
       style="stroke-width:0.709882"
       inkscape:label=""
       transform="matrix(1.4086855,0,0,1.4086855,370.52607,411.49025)"
       id="g1783">
      <g
         style="stroke-width:0.709882"
         id="g1047">
        <g
           id="g4056"
           style="fill:#000000;fill-opacity:1;stroke-width:0.709882">
          <use
             style="stroke-width:0.709882"
             height="100%"
             width="100%"
             id="use2102"
             y="81.962997"
             x="91.925003"
             xlink:href="#symbol5167" />
        </g>
        <g
           id="g9426"
           style="fill:#000000;fill-opacity:1;stroke-width:0.709882">
          <use
             style="stroke-width:0.709882"
             height="100%"
             width="100%"
             id="use2723"
             y="81.962997"
             x="102.526"
             xlink:href="#symbol548" />
        </g>
        <g
           id="g9021"
           style="fill:#000000;fill-opacity:1;stroke-width:0.709882">
          <use
             style="stroke-width:0.709882"
             height="100%"
             width="100%"
             id="use4017"
             y="81.962997"
             x="113.04451"
             xlink:href="#symbol166" />
        </g>
      </g>
    </g>
  </g>
</svg>
