<?xml version="1.0" encoding="UTF-8" standalone="no"?>
<svg
   xmlns:dc="http://purl.org/dc/elements/1.1/"
   xmlns:cc="http://creativecommons.org/ns#"
   xmlns:rdf="http://www.w3.org/1999/02/22-rdf-syntax-ns#"
   xmlns:svg="http://www.w3.org/2000/svg"
   xmlns="http://www.w3.org/2000/svg"
   xmlns:sodipodi="http://sodipodi.sourceforge.net/DTD/sodipodi-0.dtd"
   xmlns:inkscape="http://www.inkscape.org/namespaces/inkscape"
   inkscape:version="1.0 (4035a4fb49, 2020-05-01)"
   sodipodi:docname="square_fourier.svg"
   viewBox="0 0 483.63296 231.80954"
   height="231.80954"
   width="483.63297"
   xml:space="preserve"
   id="svg4081"
   version="1.1"><metadata
     id="metadata4087"><rdf:RDF><cc:Work
         rdf:about=""><dc:format>image/svg+xml</dc:format><dc:type
           rdf:resource="http://purl.org/dc/dcmitype/StillImage" /><dc:title></dc:title></cc:Work></rdf:RDF></metadata><defs
     id="defs4085"><marker
       inkscape:isstock="true"
       style="overflow:visible"
       id="marker6007"
       refX="0"
       refY="0"
       orient="auto"
       inkscape:stockid="Arrow2Mend"><path
         transform="scale(-0.6)"
         d="M 8.7185878,4.0337352 -2.2072895,0.01601326 8.7185884,-4.0017078 c -1.7454984,2.3720609 -1.7354408,5.6174519 -6e-7,8.035443 z"
         style="fill:#000000;fill-opacity:1;fill-rule:evenodd;stroke:#000000;stroke-width:0.625;stroke-linejoin:round;stroke-opacity:1"
         id="path6005" /></marker><marker
       inkscape:isstock="true"
       style="overflow:visible"
       id="marker5989"
       refX="0"
       refY="0"
       orient="auto"
       inkscape:stockid="Arrow2Mend"><path
         transform="scale(-0.6)"
         d="M 8.7185878,4.0337352 -2.2072895,0.01601326 8.7185884,-4.0017078 c -1.7454984,2.3720609 -1.7354408,5.6174519 -6e-7,8.035443 z"
         style="fill-rule:evenodd;stroke-width:0.625;stroke-linejoin:round"
         id="path5987" /></marker><marker
       inkscape:isstock="true"
       style="overflow:visible"
       id="Arrow2Mend"
       refX="0"
       refY="0"
       orient="auto"
       inkscape:stockid="Arrow2Mend"><path
         transform="scale(-0.6)"
         d="M 8.7185878,4.0337352 -2.2072895,0.01601326 8.7185884,-4.0017078 c -1.7454984,2.3720609 -1.7354408,5.6174519 -6e-7,8.035443 z"
         style="fill:#000000;fill-opacity:1;fill-rule:evenodd;stroke:#000000;stroke-width:0.625;stroke-linejoin:round;stroke-opacity:1"
         id="path5738" /></marker><clipPath
       id="clipPath4103"
       clipPathUnits="userSpaceOnUse"><path
         id="path4101"
         d="m 56.566,201.391 h 290.25 V 32.989 H 56.566 Z" /></clipPath><clipPath
       id="clipPath4113"
       clipPathUnits="userSpaceOnUse"><path
         id="path4111"
         d="M 55,49 H 348 V 187 H 55 Z" /></clipPath><clipPath
       id="clipPath4129"
       clipPathUnits="userSpaceOnUse"><path
         id="path4127"
         d="M 55,37 H 348 V 199 H 55 Z" /></clipPath><clipPath
       id="clipPath4145"
       clipPathUnits="userSpaceOnUse"><path
         id="path4143"
         d="M 55,38 H 348 V 199 H 55 Z" /></clipPath><marker
       inkscape:stockid="Arrow2Mend"
       orient="auto"
       refY="0"
       refX="0"
       id="marker6007-3"
       style="overflow:visible"
       inkscape:isstock="true"><path
         id="path6005-6"
         style="fill:#000000;fill-opacity:1;fill-rule:evenodd;stroke:#000000;stroke-width:0.625;stroke-linejoin:round;stroke-opacity:1"
         d="M 8.7185878,4.0337352 -2.2072895,0.01601326 8.7185884,-4.0017078 c -1.7454984,2.3720609 -1.7354408,5.6174519 -6e-7,8.035443 z"
         transform="scale(-0.6)" /></marker></defs><sodipodi:namedview
     fit-margin-bottom="0"
     fit-margin-right="0"
     fit-margin-left="0"
     fit-margin-top="0"
     inkscape:current-layer="g4089"
     inkscape:window-maximized="1"
     inkscape:window-y="0"
     inkscape:window-x="0"
     inkscape:cy="183.99824"
     inkscape:cx="133.54309"
     inkscape:zoom="1"
     showgrid="false"
     id="namedview4083"
     inkscape:window-height="1026"
     inkscape:window-width="1920"
     inkscape:pageshadow="2"
     inkscape:pageopacity="0"
     guidetolerance="10"
     gridtolerance="10"
     objecttolerance="10"
     borderopacity="1"
     bordercolor="#666666"
     pagecolor="#ffffff" /><g
     transform="matrix(1.3333333,0,0,-1.3333333,-29.818359,275.79381)"
     inkscape:label="square_fourier"
     inkscape:groupmode="layer"
     id="g4089"><g
       id="g4091"><g
         transform="matrix(1,0,0,-1,0,202.0822)"
         id="g4093"><path
           id="path4095"
           style="fill:none;stroke:#000000;stroke-width:0.692766;stroke-linecap:butt;stroke-linejoin:miter;stroke-miterlimit:4;stroke-dasharray:none;stroke-opacity:1"
           d="M 60.105,17.535 H 57.004" /></g></g><g
       style="stroke-width:0.37500001;stroke-miterlimit:4;stroke-dasharray:none;stroke:#000000;stroke-opacity:1"
       transform="translate(0,-0.917801)"
       id="g4107"><g
         style="stroke-width:0.37500001;stroke-miterlimit:4;stroke-dasharray:none;stroke:#000000;stroke-opacity:1"
         id="g4109"
         clip-path="url(#clipPath4113)"><g
           style="stroke-width:0.37500001;stroke-miterlimit:4;stroke-dasharray:none;stroke:#000000;stroke-opacity:1"
           id="g4115"><g
             style="stroke-width:0.43317909;stroke-miterlimit:4;stroke-dasharray:none;stroke:#000000;stroke-opacity:1"
             id="g4117"
             transform="matrix(1,0,0,-0.749424,0,203)"><path
               d="m 56.566,23.393 h 54.305 l 0.145,179.768 h 90.601 l 0.145,-179.768 h 90.605 l 0.145,179.768 h 54.304"
               style="fill:none;stroke:#000000;stroke-width:0.43317909;stroke-linecap:square;stroke-linejoin:round;stroke-miterlimit:4;stroke-dasharray:none;stroke-opacity:1"
               id="path4119" /></g></g></g></g><path
       d="m 56.566,181.95342 4.356,6.38284 1.016,1.16761 0.871,0.81237 0.726,0.53134 0.727,0.38296 0.582,0.19185 0.578,0.0892 0.582,-0.0112 0.582,-0.1214 0.578,-0.21884 0.727,-0.41368 0.726,-0.55907 0.871,-0.8476 1.016,-1.19907 1.164,-1.58953 1.887,-2.84781 2.031,-3.01943 1.164,-1.50035 0.871,-0.94877 0.871,-0.75392 0.727,-0.4609 0.578,-0.25031 0.582,-0.13639 0.578,-0.0157 0.582,0.10117 0.582,0.22708 0.582,0.34773 0.723,0.60479 0.726,0.78914 0.871,1.16461 1.016,1.63674 1.164,2.16358 1.598,3.30122 2.469,5.11332 1.16,2.07365 0.871,1.28527 0.726,0.84385 0.582,0.49986 0.579,0.32825 0.437,0.12141 0.434,0.007 0.437,-0.11316 0.434,-0.23832 0.437,-0.36722 0.578,-0.70296 0.582,-0.95326 0.582,-1.21482 0.727,-1.88705 0.723,-2.31197 0.871,-3.34018 0.875,-3.94497 1.015,-5.35539 1.016,-6.12954 1.16,-7.8667 1.309,-9.82045 1.597,-13.10143 2.469,-21.64112 3.191,-27.86658 1.598,-12.765689 1.309,-9.453234 1.16,-7.491992 1.016,-5.762321 1.019,-4.968681 0.867,-3.605479 0.875,-2.9917 0.723,-2.027942 0.726,-1.605266 0.583,-0.995985 0.582,-0.741929 0.578,-0.496119 0.437,-0.222579 0.434,-0.09817 0.437,0.02398 0.434,0.132648 0.437,0.242064 0.582,0.472887 0.579,0.636261 0.726,0.98849 0.871,1.426154 1.16,2.206304 1.891,3.957708 2.031,4.1638 1.16,2.078153 1.02,1.539317 0.871,1.073924 0.727,0.699213 0.722,0.519351 0.582,0.273539 0.582,0.152133 0.578,0.03522 0.582,-0.08993 0.582,-0.203093 0.579,-0.31251 0.726,-0.538836 0.727,-0.683475 0.871,-0.984743 1.164,-1.542315 1.594,-2.375674 2.613,-3.90225 1.164,-1.499598 1.016,-1.094159 0.871,-0.74193 0.726,-0.464642 0.727,-0.308763 0.578,-0.132648 0.582,-0.03148 0.582,0.07419 0.582,0.176115 0.578,0.277286 0.727,0.484128 0.726,0.621273 0.871,0.918044 1.016,1.265028 1.309,1.851827 4.21,6.187244 1.016,1.175846 0.871,0.816873 0.727,0.511856 0.722,0.35148 0.582,0.15588 0.582,0.03897 0.583,-0.08169 0.578,-0.206841 0.582,-0.328248 0.582,-0.445157 0.722,-0.726942 0.727,-0.902306 0.871,-1.292757 1.02,-1.758148 1.304,-2.562281 4.211,-8.566666 0.871,-1.402172 0.727,-0.960762 0.726,-0.734435 0.579,-0.402441 0.437,-0.183609 0.434,-0.07045 0.437,0.04272 0.434,0.16862 0.437,0.293025 0.438,0.425673 0.578,0.784647 0.582,1.039451 0.578,1.296503 0.727,2.00396 0.726,2.422138 0.871,3.472831 0.871,4.077616 1.016,5.504519 1.164,7.218452 1.305,9.191686 1.453,11.323796 1.887,15.996454 5.808,50.22265 1.453,10.88239 1.305,8.70681 1.164,6.73057 1.016,5.05112 0.871,3.67143 0.871,3.06289 0.726,2.08565 0.727,1.66447 0.578,1.0387 0.582,0.7854 0.582,0.53884 0.434,0.2503 0.437,0.12516 0.434,0.004 0.437,-0.10941 0.434,-0.21509 0.582,-0.44515 0.582,-0.60929 0.723,-0.96076 0.871,-1.39842 1.164,-2.18382 1.742,-3.63321 2.176,-4.49205 1.164,-2.10513 1.015,-1.57079 0.872,-1.09716 0.726,-0.72694 0.727,-0.54258 0.578,-0.29678 0.582,-0.17611 0.582,-0.051 0.578,0.0667 0.582,0.18361 0.582,0.29677 0.727,0.5156 0.722,0.66399 0.875,0.96901 1.016,1.31598 1.453,2.12537 3.191,4.75809 1.164,1.46063 0.872,0.91805 0.871,0.73068 0.722,0.45266 0.727,0.30127 0.582,0.1244 0.582,0.024 0.578,-0.0824 0.582,-0.18735 0.727,-0.37097 0.726,-0.51935 0.871,-0.80488 0.871,-0.98025 1.161,-1.52732 1.597,-2.36368 2.758,-4.12109 1.164,-1.48011 0.871,-0.93003 0.871,-0.73444 0.723,-0.44141 0.582,-0.23007 0.582,-0.11766 h 0.582 l 0.578,0.1214 0.582,0.24581 0.582,0.36722 0.723,0.62877 0.726,0.80863 0.872,1.19158 1.019,1.65998 1.16,2.18382 1.742,3.62121 2.18,4.50779 1.16,2.08939 0.871,1.30475 0.727,0.85959 0.578,0.5156 0.582,0.34399 0.438,0.13639 0.433,0.0195 0.438,-0.0974 0.433,-0.21883 0.438,-0.35148 0.433,-0.48862 0.582,-0.86709 0.578,-1.12113 0.727,-1.77689 0.727,-2.19581 0.726,-2.62074 0.871,-3.7074 0.871,-4.30844 1.016,-5.76157 1.164,-7.48824 1.305,-9.45698 1.597,-12.76569 2.032,-17.53877 4.504,-39.242841 1.597,-12.476411 1.305,-9.151966 1.16,-7.183978 1.02,-5.468547 1.015,-4.664415 0.871,-3.335686 0.727,-2.312723 0.726,-1.890047 0.723,-1.477115 0.582,-0.890315 0.582,-0.640758 0.434,-0.323751 0.437,-0.1956 0.434,-0.07045 0.437,0.04721 0.434,0.15588 0.437,0.261549 0.582,0.500616 0.723,0.843102 0.727,1.055189 0.871,1.488356 1.164,2.257265 4.644,9.387285 1.016,1.597022 0.871,1.129382 0.727,0.750174 0.726,0.565815 0.582,0.317006 0.578,0.19485 0.582,0.07419 0.582,-0.04646 0.579,-0.164124 0.582,-0.277287 0.726,-0.492371 0.727,-0.644505 0.871,-0.94952 1.015,-1.300251 1.454,-2.109628 3.339,-4.972429 1.161,-1.449386 0.871,-0.91055 0.871,-0.718697 0.726,-0.445158 0.727,-0.289278 0.582,-0.11691 0.578,-0.01574 0.582,0.08993 0.578,0.1956 0.727,0.378459 0.726,0.531341 0.871,0.816873 1.02,1.167602 1.16,1.558802 1.742,2.609494 1.453,2.210801"
       style="fill:none;stroke:#ff3e0e;stroke-width:1.12500003;stroke-linecap:square;stroke-linejoin:round;stroke-miterlimit:4;stroke-dasharray:none;stroke-opacity:1"
       id="path4135" /><path
       d="m 56.566,183.04683 0.289,0.0704 0.293,0.1956 0.434,0.49162 1.453,1.96873 0.289,0.17987 0.289,0.0547 0.293,-0.0779 0.289,-0.19934 0.438,-0.49612 1.449,-1.91028 0.293,-0.16787 0.289,-0.039 0.289,0.0862 0.293,0.20684 0.434,0.49987 1.308,1.7544 0.289,0.21433 0.289,0.0937 0.293,-0.0352 0.289,-0.15963 0.438,-0.44141 0.723,-1.03121 0.582,-0.75841 0.437,-0.34699 0.289,-0.0862 0.289,0.0465 0.293,0.17237 0.434,0.45715 1.597,2.06241 0.29,0.1364 0.292,0.008 0.29,-0.12515 0.289,-0.24206 0.437,-0.54334 1.16,-1.64049 0.438,-0.33199 0.289,-0.0667 0.293,0.0742 0.289,0.2031 0.433,0.50436 1.454,2.03918 0.289,0.18736 0.293,0.0547 0.289,-0.0862 0.289,-0.22258 0.437,-0.54333 1.453,-2.12087 0.289,-0.18735 0.289,-0.0427 0.293,0.10492 0.29,0.24656 0.433,0.58605 1.453,2.24152 0.293,0.18811 0.289,0.0307 0.289,-0.1289 0.293,-0.27729 0.434,-0.64451 1.309,-2.24977 0.289,-0.26529 0.289,-0.10567 0.293,0.0659 0.289,0.23831 0.437,0.63327 0.723,1.45688 0.582,1.07018 0.289,0.35972 0.293,0.19485 0.289,0.004 0.289,-0.18736 0.293,-0.37096 0.434,-0.81987 1.308,-2.75039 0.289,-0.30052 0.289,-0.0982 0.293,0.12515 0.289,0.34024 0.438,0.85509 1.597,3.7074 0.29,0.21434 0.144,0.012 0.145,-0.051 0.293,-0.30052 0.289,-0.53884 0.433,-1.16835 1.164,-3.48857 0.289,-0.5156 0.293,-0.23382 h 0.145 l 0.144,0.0779 0.289,0.39869 0.293,0.69472 0.434,1.48835 1.16,4.41786 0.293,0.64075 0.289,0.27354 0.145,-0.0195 0.144,-0.12141 0.293,-0.56581 0.289,-0.96901 0.438,-2.06616 1.16,-6.14827 0.289,-0.88283 0.145,-0.24656 0.148,-0.10117 0.144,0.0502 0.145,0.21509 0.289,0.92179 0.293,1.5588 0.434,3.34768 1.308,11.32829 0.289,1.1054 0.145,0.14464 0.144,-0.16412 0.149,-0.50437 0.289,-2.12087 0.289,-3.72688 0.293,-5.41384 0.433,-11.25785 0.583,-20.21496 0.871,-37.25012 1.015,-42.358943 0.582,-18.297187 0.434,-9.546913 0.293,-4.249983 0.289,-2.613242 0.289,-1.101653 0.144,-0.04272 0.149,0.257802 0.289,1.281515 0.434,3.323695 1.308,11.383002 0.289,1.445638 0.293,0.796638 0.145,0.152133 0.144,-0.0037 0.145,-0.160377 0.289,-0.726192 0.437,-1.898291 1.309,-6.851983 0.289,-0.89856 0.289,-0.487875 0.145,-0.08244 0.148,0.02398 0.145,0.125154 0.289,0.530592 0.433,1.359456 1.453,5.293181 0.293,0.492372 0.289,0.179862 0.145,-0.03148 0.289,-0.293025 0.293,-0.558321 0.434,-1.211069 1.015,-3.10936 0.438,-0.828114 0.289,-0.250307 0.144,-0.03148 0.149,0.03972 0.289,0.257802 0.289,0.480381 0.437,1.015469 1.016,2.581766 0.437,0.675981 0.29,0.191103 0.144,0.01574 0.289,-0.136396 0.293,-0.335742 0.434,-0.801134 1.308,-2.777365 0.289,-0.335742 0.289,-0.152883 0.293,0.04347 0.289,0.226326 0.293,0.386703 0.579,1.097906 0.871,1.671965 0.437,0.487875 0.289,0.121407 0.289,-0.05096 0.293,-0.218832 0.434,-0.589797 1.597,-2.613241 0.293,-0.175365 0.289,-0.01574 0.29,0.140142 0.293,0.281783 0.433,0.628767 1.16,1.8863 0.293,0.289278 0.289,0.148386 0.289,0.0037 0.293,-0.144639 0.289,-0.27279 0.438,-0.601788 1.16,-1.765642 0.289,-0.261549 0.293,-0.133398 0.289,0.01199 0.289,0.148386 0.293,0.269792 0.434,0.58605 1.164,1.671965 0.289,0.242064 0.289,0.113163 0.293,-0.01949 0.289,-0.15663 0.434,-0.445158 0.726,-1.058186 0.582,-0.79364 0.434,-0.374712 0.293,-0.101173 0.289,0.03522 0.289,0.159628 0.437,0.445158 0.727,1.043198 0.582,0.765911 0.434,0.355227 0.289,0.08618 0.293,-0.04347 0.289,-0.167871 0.437,-0.452652 1.594,-2.039183 0.293,-0.137144 0.289,-0.01124 0.289,0.11691 0.293,0.238317 0.434,0.523097 1.164,1.586531 0.433,0.323751 0.293,0.06295 0.289,-0.0667 0.289,-0.187356 0.438,-0.480381 1.449,-1.926019 0.293,-0.179862 0.289,-0.05471 0.289,0.08244 0.293,0.203093 0.434,0.499866 1.453,1.956746 0.289,0.176115 0.293,0.03897 0.289,-0.08993 0.289,-0.222579 0.437,-0.527594 1.454,-2.015201 0.289,-0.167871 0.289,-0.03148 0.293,0.109416 0.289,0.242064 0.433,0.566564 1.309,1.956746 0.289,0.23457 0.293,0.09368 0.289,-0.05471 0.289,-0.199347 0.438,-0.535088 0.726,-1.230555 0.578,-0.89781 0.438,-0.40244 0.289,-0.08993 0.293,0.07419 0.289,0.230073 0.433,0.58605 1.598,2.609494 0.293,0.164124 0.289,-0.0075 0.289,-0.179861 0.293,-0.340239 0.434,-0.745677 1.164,-2.238529 0.289,-0.335742 0.289,-0.167871 0.293,0.02698 0.289,0.218832 0.289,0.394946 0.438,0.847599 1.16,2.503826 0.293,0.367217 0.289,0.167871 0.144,0.0037 0.289,-0.160376 0.293,-0.370965 0.434,-0.890316 1.453,-3.472831 0.289,-0.296772 0.145,-0.05471 0.148,0.0075 0.289,0.20759 0.289,0.460896 0.438,1.081419 1.453,4.152558 0.289,0.335742 0.144,0.0592 0.145,-0.02398 0.144,-0.104919 0.293,-0.445908 0.29,-0.741929 0.433,-1.531074 1.02,-3.953211 0.289,-0.746427 0.289,-0.406187 0.148,-0.05471 0.145,0.05096 0.144,0.156629 0.289,0.632514 0.293,1.02746 0.434,2.124617 1.16,6.070335 0.293,0.808628 0.145,0.203094 0.144,0.05471 0.145,-0.101172 0.144,-0.266046 0.293,-1.022963 0.289,-1.65248 0.438,-3.453346 1.16,-10.339803 0.289,-1.425405 0.148,-0.343985 0.145,-0.05471 0.144,0.269793 0.145,0.613028 0.289,2.362934 0.293,3.988435 0.434,9.152715 0.437,12.824144 0.578,21.835967 2.035,83.253506 0.434,11.63706 0.437,7.88244 0.289,3.16407 0.293,1.60152 0.145,0.26604 0.144,-0.0547 0.145,-0.34399 0.289,-1.4254 0.438,-3.4496 1.16,-10.33981 0.293,-1.65248 0.289,-1.02296 0.144,-0.26605 0.145,-0.10566 0.148,0.0547 0.145,0.2031 0.289,0.80863 0.437,1.97698 1.305,6.78078 0.289,0.83636 0.293,0.42193 0.145,0.0465 0.144,-0.0547 0.289,-0.40618 0.293,-0.74568 0.434,-1.57079 1.015,-3.9135 0.293,-0.73893 0.289,-0.4489 0.145,-0.10117 0.148,-0.024 0.145,0.0547 0.289,0.33649 0.289,0.59729 0.438,1.24255 1.015,3.07788 0.289,0.57781 0.293,0.33649 0.145,0.0742 0.144,0.008 0.145,-0.0585 0.293,-0.29677 0.289,-0.50811 0.582,-1.43365 0.723,-1.86306 0.437,-0.76966 0.289,-0.2653 0.293,-0.051 0.289,0.17162 0.289,0.36347 0.438,0.83186 1.16,2.52331 0.293,0.39495 0.289,0.21433 0.289,0.0277 0.293,-0.16412 0.289,-0.33575 0.434,-0.75017 1.164,-2.23403 0.289,-0.34399 0.289,-0.17986 0.293,-0.007 0.289,0.16412 0.289,0.31626 0.437,0.69097 1.161,2.02344 0.292,0.30127 0.29,0.15213 0.289,-0.007 0.293,-0.16413 0.289,-0.30501 0.433,-0.64825 1.164,-1.86307 0.289,-0.26979 0.293,-0.1289 0.289,0.0232 0.289,0.16412 0.438,0.48038 0.726,1.15262 0.579,0.85959 0.437,0.40618 0.289,0.10942 0.289,-0.0315 0.293,-0.16787 0.434,-0.47288 0.726,-1.10166 0.582,-0.81237 0.434,-0.37472 0.293,-0.0937 0.289,0.0427 0.293,0.17162 0.434,0.46914 1.597,2.10513 0.289,0.14464 0.289,0.012 0.293,-0.11766 0.289,-0.23457 0.438,-0.53059 1.16,-1.60601 0.438,-0.3275 0.289,-0.0667 0.289,0.0622 0.293,0.18736 0.433,0.47288 1.453,1.90654 0.289,0.17986 0.293,0.0547 0.289,-0.0742 0.29,-0.19935 0.437,-0.48038 1.449,-1.89455 0.293,-0.16862 0.289,-0.0465 0.289,0.0899 0.293,0.20684 0.434,0.49987 1.453,1.90278 0.289,0.15963 0.293,0.0315 0.289,-0.0974 0.289,-0.22258 0.438,-0.52384 1.304,-1.80462 0.293,-0.21883 0.289,-0.0854 0.289,0.0465 0.293,0.17986 0.434,0.47664 0.871,1.33172 0.582,0.73069 0.289,0.21509 0.293,0.0779 0.289,-0.0585 0.289,-0.19935 0.438,-0.5156 1.597,-2.27375 0.29,-0.14464 0.289,0.004 0.293,0.15288 0.289,0.28478 0.437,0.63326 1.16,1.88256 0.289,0.28553 0.293,0.14014 0.289,-0.0195 0.289,-0.17536 0.293,-0.32075 0.434,-0.69097 1.164,-2.02345 0.289,-0.29302 0.289,-0.13715 0.293,0.0315 0.289,0.20684 0.289,0.36347 0.438,0.76966 1.16,2.21455 0.289,0.30876 0.293,0.13639 0.289,-0.0547 0.289,-0.24581 0.293,-0.42193 0.434,-0.87533 1.019,-2.23778 0.289,-0.42567 0.289,-0.23832 0.289,-0.0277 0.293,0.1956 0.289,0.40244 0.438,0.9218 1.305,3.21053 0.293,0.37546 0.289,0.13639 0.144,-0.027 0.293,-0.25031 0.289,-0.49987 0.434,-1.12114 1.308,-3.84004 0.289,-0.43317 0.145,-0.10942 0.144,-0.0315 0.149,0.051 0.289,0.33574 0.289,0.6445 0.438,1.43365 1.304,4.85927 0.293,0.53134 0.145,0.12515 0.144,0.0232 0.145,-0.0817 0.293,-0.48863 0.289,-0.89856 0.433,-1.98447 1.309,-6.76505 0.289,-0.72694 0.149,-0.15588 0.144,-0.008 0.145,0.15289 0.289,0.80038 0.293,1.44114 0.433,3.21503 1.453,12.25009 0.145,0.52384 0.144,0.25781 0.145,-0.0435 0.144,-0.37471 0.149,-0.72694 0.289,-2.6095 0.289,-4.24998 0.438,-9.55066 0.433,-13.17937 0.582,-22.18745 1.887,-78.206887 0.437,-12.461422 0.434,-8.757769 0.289,-3.726136 0.293,-2.121619 0.145,-0.503613 0.144,-0.164124 0.145,0.148386 0.148,0.425673 0.289,1.562549 0.434,3.570256 1.019,9.226908 0.434,2.554786 0.293,0.918045 0.144,0.214335 0.145,0.05471 0.144,-0.101172 0.289,-0.628767 0.293,-1.10615 0.579,-3.081631 0.726,-3.910495 0.438,-1.585781 0.289,-0.570311 0.144,-0.120658 0.145,-0.01574 0.148,0.08543 0.289,0.465392 0.289,0.792891 0.582,2.207053 0.727,2.820083 0.433,1.14437 0.293,0.394947 0.145,0.08169 0.144,-0.0037 0.145,-0.07794 0.289,-0.382956 0.293,-0.633263 0.582,-1.745409 0.723,-2.215297 0.437,-0.890316 0.289,-0.296772 0.145,-0.05471 0.148,0.01124 0.289,0.215084 0.289,0.441411 0.438,0.980247 1.16,2.898772 0.289,0.437663 0.293,0.233821 0.289,0.01574 0.289,-0.203094 0.293,-0.39045 0.434,-0.85959 1.164,-2.496331 0.289,-0.366468 0.289,-0.188106 0.293,0.0045 0.289,0.191103 0.289,0.358974 0.438,0.774155 1.16,2.210801 0.293,0.316257 0.289,0.152133 0.289,-0.01948 0.293,-0.187356 0.289,-0.335742 0.437,-0.714951 1.016,-1.80836 0.434,-0.465392 0.289,-0.128901 0.293,0.03522 0.289,0.183609 0.437,0.527594 0.727,1.230555 0.578,0.902306 0.437,0.417429 0.289,0.105669 0.293,-0.04272 0.289,-0.187356 0.434,-0.50811 1.598,-2.284993 0.293,-0.15663 0.289,-0.01949 0.289,0.125154 0.293,0.250307 0.433,0.562068 1.161,1.699694 0.437,0.347733 0.289,0.0697 0.293,-0.0622 0.289,-0.1956 0.434,-0.487875 1.453,-1.968737 0.293,-0.187356 0.289,-0.0592 0.289,0.07419 0.293,0.199347 0.433,0.488624 1.454,1.914029 0.289,0.171618 0.289,0.04721 0.293,-0.08244 0.289,-0.206841 0.437,-0.492371 1.449,-1.882553 0.293,-0.160377 0.289,-0.03522 0.29,0.09368 0.293,0.215085 0.433,0.503612 1.309,1.750655 0.289,0.206841 0.289,0.08993 0.293,-0.04347 0.289,-0.167871 0.437,-0.452652 0.871,-1.258283 0.579,-0.690969 0.293,-0.203094 0.289,-0.07869 0.289,0.05471 0.293,0.183609 0.433,0.472886 1.598,2.097638 0.289,0.136395 0.148,0.01574"
       style="fill:none;stroke:#1f77b4;stroke-width:1.20000003;stroke-linecap:square;stroke-linejoin:round;stroke-miterlimit:4;stroke-dasharray:none;stroke-opacity:1"
       id="path4151" /><g
       id="g4155"
       transform="matrix(1,0,0,-0.749424,0,284.31496)"><path
         d="m 110.988,225.632 v -2.601"
         style="fill:none;stroke:#000000;stroke-width:0.3251;stroke-linecap:butt;stroke-linejoin:round;stroke-miterlimit:4;stroke-dasharray:none;stroke-opacity:1"
         id="path4157" /></g><g
       id="g4171"
       transform="matrix(1,0,0,-0.749424,0,284.31496)"><path
         d="m 201.691,225.632 v -2.601"
         style="fill:none;stroke:#000000;stroke-width:0.3251;stroke-linecap:butt;stroke-linejoin:round;stroke-miterlimit:4;stroke-dasharray:none;stroke-opacity:1"
         id="path4173" /></g><g
       id="g4179"
       transform="matrix(1,0,0,-0.749424,0,284.31496)"><path
         d="m 292.395,225.632 v -2.601"
         style="fill:none;stroke:#000000;stroke-width:0.3251;stroke-linecap:butt;stroke-linejoin:round;stroke-miterlimit:4;stroke-dasharray:none;stroke-opacity:1"
         id="path4181" /></g><g
       style="stroke-width:0.75;stroke-miterlimit:4;stroke-dasharray:none"
       id="g4213"
       transform="matrix(1,0,0,-1,0,286.26535)"><path
         sodipodi:nodetypes="cc"
         d="M 56.566,169.094 H 374.26874"
         style="fill:none;stroke:#000000;stroke-width:0.75;stroke-linecap:butt;stroke-linejoin:round;stroke-miterlimit:4;stroke-dasharray:none;stroke-opacity:1;marker-end:url(#Arrow2Mend)"
         id="path4215" /></g><g
       style="stroke-width:1.06879"
       transform="matrix(0.93564058,0,0,0.93564058,355.04198,-50.129328)"
       id="g6153"><path
         id="path4219"
         style="fill:#000000;fill-opacity:1;fill-rule:nonzero;stroke:none;stroke-width:1.06879"
         d="m 10.559326,168.61837 h 1.488 c 0.312,0 0.473,0 0.473,0.321 0,0.171 -0.161,0.171 -0.442,0.171 h -1.398 c 0.57,2.254 0.652,2.571 0.652,2.664 0,0.27 -0.191,0.426 -0.457,0.426 -0.051,0 -0.492,-0.015 -0.637,-0.57 l -0.6170003,-2.52 h -1.492 c -0.316,0 -0.477,0 -0.477,-0.296 0,-0.196 0.129,-0.196 0.45,-0.196 h 1.39 c -1.14,-4.492 -1.203,-4.761 -1.203,-5.051 0,-0.855 0.602,-1.457 1.457,-1.457 1.6170003,0 2.5200003,2.313 2.5200003,2.442 0,0.156 -0.125,0.156 -0.188,0.156 -0.148,0 -0.16,-0.047 -0.238,-0.223 -0.68,-1.64 -1.52,-2.023 -2.0590003,-2.023 -0.336,0 -0.492,0.207 -0.492,0.727 0,0.378 0.027,0.492 0.094,0.761 z" /><path
         id="path4221"
         style="fill:#000000;fill-opacity:1;fill-rule:nonzero;stroke:none;stroke-width:1.06879"
         d="m 19.973326,173.56437 0.008,0.007 0.003,0.012 0.004,0.008 v 0.012 l 0.004,0.004 0.004,0.011 0.008,0.016 0.008,0.031 0.008,0.012 0.004,0.015 v 0.012 l 0.003,0.016 0.004,0.008 0.008,0.023 0.004,0.008 v 0.015 l 0.004,0.012 v 0.004 l 0.004,0.008 v 0.012 l 0.004,0.007 v 0.032 c 0,0.175 -0.145,0.316 -0.321,0.316 -0.105,0 -0.222,-0.047 -0.265,-0.141 l -5.504,-15.093 c -0.078,-0.203 -0.078,-0.27 -0.078,-0.285 0,-0.172 0.144,-0.317 0.316,-0.317 0.211,0 0.254,0.11 0.352,0.375 z" /><path
         id="path4223"
         style="fill:#000000;fill-opacity:1;fill-rule:nonzero;stroke:none;stroke-width:1.06879"
         d="m 27.727326,171.89637 0.004,0.023 0.007,0.02 0.008,0.039 0.012,0.035 0.016,0.07 0.011,0.031 0.008,0.032 0.012,0.027 0.008,0.027 0.011,0.024 0.004,0.023 0.02,0.039 0.011,0.02 0.008,0.019 0.024,0.032 0.007,0.015 0.024,0.024 0.008,0.011 0.015,0.012 0.012,0.008 0.012,0.012 0.012,0.003 0.015,0.012 0.016,0.004 0.012,0.008 0.046,0.012 0.02,0.007 c 0.144,0.036 0.664,0.036 1,0.036 1.598,0 2.308,-0.067 2.308,-1.305 0,-0.231 -0.058,-0.852 -0.124,-1.266 -0.012,-0.058 -0.047,-0.254 -0.047,-0.297 0,-0.097 0.047,-0.211 0.187,-0.211 0.18,0 0.211,0.129 0.238,0.368 l 0.43,2.754 c 0.02,0.066 0.031,0.222 0.031,0.273 0,0.172 -0.156,0.172 -0.425,0.172 h -8.801 c -0.379,0 -0.395,-0.02 -0.504,-0.317 l -0.949,-2.785 c -0.02,-0.035 -0.094,-0.254 -0.094,-0.289 0,-0.097 0.074,-0.176 0.187,-0.176 0.161,0 0.176,0.079 0.27,0.336 0.851,2.454 1.266,2.743 3.613,2.743 h 0.614 c 0.449,0 0.449,-0.067 0.449,-0.192 0,-0.097 -0.051,-0.285 -0.063,-0.332 l -2.121,-8.457 c -0.148,-0.59 -0.195,-0.762 -1.891,-0.762 -0.574,0 -0.667,0 -0.667,-0.304 0,-0.188 0.175,-0.188 0.269,-0.188 0.434,0 0.875,0.028 1.301,0.028 0.445,0 0.906,0.023 1.351,0.023 0.442,0 0.883,-0.023 1.317,-0.023 0.453,0 0.929,-0.028 1.375,-0.028 0.156,0 0.347,0 0.347,0.321 0,0.171 -0.121,0.171 -0.535,0.171 -0.398,0 -0.601,0 -1.015,0.032 -0.461,0.05 -0.586,0.093 -0.586,0.343 0,0.024 0,0.102 0.058,0.336 z" /></g><g
       style="stroke-width:1.10642"
       transform="matrix(0.90381267,0,0,0.90381267,16.263034,86.292121)"
       id="g6148"><path
         id="path4225"
         style="fill:#000000;fill-opacity:1;fill-rule:nonzero;stroke:none;stroke-width:1.10642"
         d="m 11.727,127.84 h 1.359 c 0.32,0 0.48,0 0.48,0.316 0,0.176 -0.16,0.176 -0.429,0.176 H 11.82 l 0.332,1.809 c 0.067,0.332 0.289,1.453 0.383,1.644 0.145,0.301 0.414,0.539 0.746,0.539 0.063,0 0.473,0 0.778,-0.289 -0.7,-0.054 -0.856,-0.613 -0.856,-0.851 0,-0.364 0.281,-0.551 0.586,-0.551 0.41,0 0.871,0.348 0.871,0.949 0,0.727 -0.734,1.09 -1.379,1.09 -0.539,0 -1.539,-0.281 -2.011,-1.852 -0.094,-0.332 -0.145,-0.492 -0.524,-2.488 H 9.6560002 c -0.308,0 -0.48,0 -0.48,-0.297 0,-0.195 0.144,-0.195 0.445,-0.195 H 10.668 l -1.1949998,-6.254 c -0.282,-1.535 -0.551,-2.98 -1.375,-2.98 -0.067,0 -0.457,0 -0.762,0.289 0.73,0.043 0.871,0.617 0.871,0.855 0,0.363 -0.281,0.555 -0.59,0.555 -0.41,0 -0.867,-0.348 -0.867,-0.953 0,-0.711 0.695,-1.094 1.348,-1.094 0.871,0 1.507,0.934 1.789,1.539 0.5079998,1 0.8749998,2.914 0.8899998,3.027 z" /><path
         id="path4227"
         style="fill:#000000;fill-opacity:1;fill-rule:nonzero;stroke:none;stroke-width:1.10642"
         d="m 20.625,117.707 v 0.008 l -0.004,0.008 v 0.015 l -0.004,0.004 v 0.004 l -0.004,0.008 v 0.004 l -0.011,0.023 -0.008,0.008 -0.004,0.008 -0.008,0.012 -0.004,0.008 -0.012,0.011 -0.007,0.012 -0.008,0.004 -0.008,0.016 -0.008,0.003 -0.008,0.008 -0.004,0.008 -0.007,0.008 -0.004,0.008 -0.008,0.008 -0.012,0.007 -0.004,0.008 -0.011,0.012 -0.004,0.008 -0.012,0.007 -0.008,0.012 -0.012,0.008 -0.007,0.012 -0.008,0.008 -0.016,0.011 -0.008,0.012 -0.047,0.047 c -1.98,1.996 -2.484,4.988 -2.484,7.41 0,2.758 0.598,5.516 2.547,7.492 0.207,0.192 0.207,0.223 0.207,0.274 0,0.109 -0.063,0.152 -0.156,0.152 -0.16,0 -1.586,-1.074 -2.52,-3.082 -0.812,-1.746 -1,-3.504 -1,-4.836 0,-1.234 0.176,-3.148 1.043,-4.941 0.949,-1.946 2.317,-2.973 2.477,-2.973 0.093,0 0.156,0.043 0.156,0.156 z" /><path
         id="path4229"
         style="fill:#000000;fill-opacity:1;fill-rule:nonzero;stroke:none;stroke-width:1.10642"
         d="m 24.789,127.84 h 1.492 c 0.313,0 0.469,0 0.469,0.316 0,0.176 -0.156,0.176 -0.438,0.176 h -1.398 c 0.57,2.25 0.652,2.571 0.652,2.66 0,0.274 -0.187,0.43 -0.461,0.43 -0.046,0 -0.488,-0.016 -0.636,-0.57 l -0.614,-2.52 h -1.492 c -0.316,0 -0.476,0 -0.476,-0.297 0,-0.195 0.129,-0.195 0.445,-0.195 h 1.395 c -1.141,-4.496 -1.204,-4.762 -1.204,-5.051 0,-0.855 0.602,-1.457 1.457,-1.457 1.618,0 2.52,2.313 2.52,2.438 0,0.16 -0.125,0.16 -0.188,0.16 -0.144,0 -0.16,-0.047 -0.238,-0.223 -0.683,-1.644 -1.523,-2.023 -2.058,-2.023 -0.332,0 -0.493,0.207 -0.493,0.726 0,0.379 0.028,0.493 0.094,0.762 z" /><path
         id="path4231"
         style="fill:#000000;fill-opacity:1;fill-rule:nonzero;stroke:none;stroke-width:1.10642"
         d="m 31.828,125.465 v 0.242 l -0.004,0.125 -0.004,0.129 -0.011,0.266 -0.02,0.281 -0.027,0.293 -0.035,0.301 -0.039,0.308 -0.055,0.321 -0.063,0.324 -0.07,0.328 -0.086,0.336 -0.102,0.336 -0.109,0.34 -0.125,0.34 -0.066,0.168 -0.074,0.167 -0.071,0.172 -0.082,0.168 c -0.949,1.946 -2.312,2.973 -2.473,2.973 -0.089,0 -0.156,-0.059 -0.156,-0.152 0,-0.051 0,-0.082 0.297,-0.368 1.555,-1.562 2.461,-4.085 2.461,-7.398 0,-2.703 -0.586,-5.492 -2.555,-7.488 -0.203,-0.188 -0.203,-0.223 -0.203,-0.27 0,-0.094 0.067,-0.156 0.156,-0.156 0.161,0 1.583,1.078 2.52,3.086 0.809,1.738 0.996,3.496 0.996,4.828 z" /></g><g
       id="g5709"><path
         id="path4233"
         style="fill:#cc2900;fill-opacity:1;fill-rule:nonzero;stroke:none"
         d="m 150.84,100.891 0.027,0.105 0.031,0.102 0.02,0.051 0.039,0.093 0.047,0.094 0.023,0.043 0.032,0.043 0.027,0.043 0.105,0.117 0.043,0.031 0.043,0.036 0.047,0.031 0.102,0.062 0.058,0.028 0.059,0.023 0.066,0.027 0.067,0.02 0.148,0.039 0.082,0.016 0.086,0.015 0.086,0.012 0.098,0.012 0.097,0.008 0.051,0.003 h 0.055 c 0.074,0 0.242,0.012 0.242,0.286 0,0.011 0,0.156 -0.183,0.156 -0.477,0 -0.973,-0.047 -1.442,-0.047 -0.484,0 -0.984,0.047 -1.461,0.047 -0.082,0 -0.254,0 -0.254,-0.285 0,-0.157 0.145,-0.157 0.254,-0.157 0.817,-0.011 0.977,-0.312 0.977,-0.625 0,-0.046 -0.032,-0.261 -0.043,-0.3 l -1.598,-6.344 -3.152,7.441 c -0.117,0.254 -0.129,0.27 -0.457,0.27 h -1.91 c -0.286,0 -0.418,0 -0.418,-0.285 0,-0.157 0.132,-0.157 0.398,-0.157 0.07,0 0.969,0 0.969,-0.128 l -1.906,-7.657 c -0.145,-0.57 -0.387,-1.027 -1.54,-1.066 -0.089,0 -0.246,-0.016 -0.246,-0.285 0,-0.102 0.071,-0.156 0.188,-0.156 0.457,0 0.953,0.042 1.426,0.042 0.484,0 0.996,-0.042 1.468,-0.042 0.071,0 0.254,0 0.254,0.285 0,0.14 -0.125,0.156 -0.281,0.156 -0.828,0.027 -0.945,0.34 -0.945,0.625 0,0.098 0.015,0.172 0.062,0.324 l 1.879,7.531 c 0.063,-0.086 0.063,-0.109 0.133,-0.254 l 3.551,-8.398 c 0.097,-0.246 0.14,-0.269 0.269,-0.269 0.157,0 0.157,0.042 0.227,0.3 z" /><path
         id="path4235"
         style="fill:#cc2900;fill-opacity:1;fill-rule:nonzero;stroke:none"
         d="m 166.828,97.313 h 0.125 l 0.02,0.004 h 0.019 l 0.024,0.003 0.019,0.004 h 0.02 l 0.058,0.012 0.02,0.008 0.015,0.004 0.02,0.008 0.031,0.015 0.016,0.012 0.015,0.008 0.012,0.015 0.012,0.012 0.012,0.016 0.007,0.008 v 0.007 l 0.008,0.004 0.004,0.012 0.004,0.008 0.004,0.012 0.004,0.007 0.004,0.012 0.004,0.008 v 0.023 l 0.004,0.012 v 0.012 l 0.003,0.011 v 0.024 c 0,0.289 -0.273,0.289 -0.468,0.289 h -8.547 c -0.203,0 -0.473,0 -0.473,-0.289 0,-0.281 0.27,-0.281 0.485,-0.281 z" /><path
         id="path4237"
         style="fill:#cc2900;fill-opacity:1;fill-rule:nonzero;stroke:none"
         d="m 166.844,94.543 h 0.035 l 0.043,0.004 h 0.055 l 0.039,0.008 h 0.043 l 0.019,0.008 0.02,0.004 0.015,0.003 0.02,0.008 0.019,0.004 0.016,0.004 0.016,0.012 0.015,0.008 0.031,0.023 0.032,0.031 0.004,0.008 0.007,0.004 v 0.012 l 0.008,0.008 0.012,0.023 0.008,0.023 0.004,0.008 v 0.024 l 0.004,0.011 v 0.012 l 0.003,0.012 v 0.027 c 0,0.285 -0.273,0.285 -0.484,0.285 h -8.519 c -0.215,0 -0.485,0 -0.485,-0.285 0,-0.289 0.27,-0.289 0.473,-0.289 z" /><path
         id="path4239"
         style="fill:#cc2900;fill-opacity:1;fill-rule:nonzero;stroke:none"
         d="m 178.516,95.516 -0.004,0.16 -0.008,0.152 -0.016,0.157 -0.023,0.152 -0.031,0.152 -0.036,0.145 -0.043,0.144 -0.046,0.141 -0.11,0.273 -0.066,0.129 -0.071,0.129 -0.074,0.121 -0.074,0.117 -0.086,0.114 -0.09,0.109 -0.093,0.106 -0.098,0.097 -0.102,0.094 -0.105,0.086 -0.11,0.086 -0.113,0.074 -0.117,0.07 -0.121,0.063 -0.125,0.058 -0.129,0.047 -0.129,0.043 -0.133,0.039 -0.133,0.024 -0.14,0.019 -0.141,0.016 -0.144,0.004 c -0.684,0 -1.297,-0.231 -1.813,-0.723 v 2.774 c 0.285,-0.082 0.758,-0.184 1.215,-0.184 1.75,0 2.75,1.297 2.75,1.484 0,0.086 -0.039,0.161 -0.141,0.161 -0.015,0 -0.043,0 -0.113,-0.047 -0.285,-0.129 -0.984,-0.414 -1.941,-0.414 -0.571,0 -1.227,0.101 -1.899,0.398 -0.113,0.039 -0.144,0.039 -0.168,0.039 -0.144,0 -0.144,-0.109 -0.144,-0.336 V 97.57 c 0,-0.257 0,-0.375 0.199,-0.375 0.098,0 0.129,0.047 0.184,0.129 0.16,0.231 0.687,1 1.839,1 0.747,0 1.102,-0.656 1.215,-0.914 0.231,-0.523 0.258,-1.078 0.258,-1.797 0,-0.496 0,-1.355 -0.344,-1.953 -0.34,-0.554 -0.867,-0.922 -1.527,-0.922 -1.043,0 -1.852,0.754 -2.098,1.594 0.047,-0.012 0.09,-0.027 0.246,-0.027 0.469,0 0.711,0.359 0.711,0.699 0,0.344 -0.242,0.695 -0.711,0.695 -0.199,0 -0.703,-0.097 -0.703,-0.757 0,-1.223 0.985,-2.602 2.586,-2.602 1.653,0 3.11,1.367 3.11,3.176 z" /></g><g
       id="g5000"><path
         id="path4241"
         style="fill:#165683;fill-opacity:1;fill-rule:nonzero;stroke:none"
         d="m 144.672,168.844 0.027,0.105 0.016,0.055 0.019,0.047 0.016,0.051 0.02,0.051 0.019,0.042 0.047,0.094 0.082,0.129 0.105,0.117 0.043,0.035 0.043,0.032 0.047,0.031 0.102,0.062 0.117,0.055 0.066,0.024 0.067,0.019 0.074,0.024 0.074,0.019 0.082,0.012 0.086,0.015 0.09,0.012 0.094,0.012 0.097,0.008 0.055,0.004 h 0.051 c 0.074,0 0.242,0.011 0.242,0.285 0,0.015 0,0.156 -0.183,0.156 -0.477,0 -0.969,-0.043 -1.442,-0.043 -0.484,0 -0.984,0.043 -1.457,0.043 -0.086,0 -0.258,0 -0.258,-0.285 0,-0.156 0.145,-0.156 0.258,-0.156 0.817,-0.012 0.973,-0.313 0.973,-0.625 0,-0.047 -0.028,-0.262 -0.043,-0.301 l -1.594,-6.344 -3.156,7.441 c -0.117,0.258 -0.129,0.27 -0.457,0.27 h -1.91 c -0.286,0 -0.418,0 -0.418,-0.285 0,-0.156 0.132,-0.156 0.398,-0.156 0.074,0 0.973,0 0.973,-0.129 l -1.91,-7.653 c -0.145,-0.574 -0.383,-1.027 -1.539,-1.07 -0.09,0 -0.247,-0.012 -0.247,-0.285 0,-0.102 0.071,-0.156 0.188,-0.156 0.457,0 0.953,0.047 1.43,0.047 0.48,0 0.996,-0.047 1.464,-0.047 0.071,0 0.254,0 0.254,0.285 0,0.144 -0.121,0.156 -0.281,0.156 -0.828,0.027 -0.945,0.34 -0.945,0.625 0,0.102 0.015,0.172 0.062,0.324 l 1.879,7.532 c 0.063,-0.086 0.063,-0.11 0.133,-0.254 l 3.551,-8.399 c 0.101,-0.246 0.14,-0.269 0.269,-0.269 0.157,0 0.157,0.047 0.227,0.3 z" /><path
         id="path4243"
         style="fill:#165683;fill-opacity:1;fill-rule:nonzero;stroke:none"
         d="m 160.66,165.27 h 0.164 l 0.024,0.004 0.039,0.007 h 0.019 l 0.02,0.004 0.019,0.008 0.02,0.004 0.015,0.004 0.02,0.008 0.016,0.008 0.019,0.007 0.012,0.012 0.015,0.008 0.016,0.016 0.008,0.011 0.012,0.016 0.007,0.008 0.008,0.015 0.008,0.008 v 0.008 l 0.004,0.012 0.004,0.007 0.004,0.012 0.004,0.008 v 0.012 l 0.004,0.011 v 0.024 l 0.004,0.012 v 0.023 c 0,0.289 -0.274,0.289 -0.469,0.289 h -8.547 c -0.199,0 -0.469,0 -0.469,-0.289 0,-0.277 0.27,-0.277 0.485,-0.277 z" /><path
         id="path4245"
         style="fill:#165683;fill-opacity:1;fill-rule:nonzero;stroke:none"
         d="m 160.676,162.5 h 0.133 l 0.019,0.004 0.024,0.004 h 0.019 l 0.078,0.016 0.016,0.007 0.019,0.004 0.032,0.016 0.019,0.008 0.012,0.011 0.031,0.024 0.008,0.012 0.008,0.007 0.004,0.008 0.007,0.008 0.008,0.016 0.008,0.008 v 0.007 l 0.008,0.024 0.004,0.008 0.004,0.011 v 0.012 l 0.004,0.012 v 0.019 l 0.004,0.012 v 0.027 c 0,0.285 -0.274,0.285 -0.485,0.285 h -8.515 c -0.215,0 -0.485,0 -0.485,-0.285 0,-0.285 0.27,-0.285 0.469,-0.285 z" /><path
         id="path4247"
         style="fill:#165683;fill-opacity:1;fill-rule:nonzero;stroke:none"
         d="m 167.754,161.703 1.516,1.469 c 2.218,1.965 3.078,2.734 3.078,4.16 0,1.629 -1.282,2.77 -3.024,2.77 -1.613,0 -2.672,-1.317 -2.672,-2.586 0,-0.797 0.719,-0.797 0.758,-0.797 0.246,0 0.746,0.172 0.746,0.754 0,0.375 -0.258,0.746 -0.761,0.746 -0.11,0 -0.141,0 -0.184,-0.016 0.328,0.926 1.098,1.453 1.926,1.453 1.297,0 1.914,-1.156 1.914,-2.324 0,-1.14 -0.715,-2.265 -1.496,-3.152 l -2.743,-3.047 c -0.16,-0.156 -0.16,-0.184 -0.16,-0.527 h 5.297 l 0.399,2.48 h -0.356 c -0.074,-0.43 -0.172,-1.055 -0.312,-1.269 -0.106,-0.114 -1.043,-0.114 -1.36,-0.114 z" /><path
         id="path4249"
         style="fill:#165683;fill-opacity:1;fill-rule:nonzero;stroke:none"
         d="m 178.324,165.137 v -0.453 c 0,-3.34 -1.484,-3.992 -2.308,-3.992 -0.246,0 -1.02,0.031 -1.403,0.511 0.629,0 0.742,0.41 0.742,0.657 0,0.437 -0.343,0.652 -0.656,0.652 -0.226,0 -0.652,-0.125 -0.652,-0.684 0,-0.953 0.769,-1.535 1.98,-1.535 1.84,0 3.582,1.934 3.582,5 0,3.836 -1.64,4.809 -2.91,4.809 -0.789,0 -1.488,-0.262 -2.097,-0.899 -0.586,-0.644 -0.914,-1.246 -0.914,-2.312 0,-1.781 1.257,-3.18 2.855,-3.18 l 0.012,0.328 c -0.227,0 -0.883,0 -1.328,0.899 -0.254,0.523 -0.254,1.242 -0.254,1.937 0,0.77 0,1.442 0.3,1.969 0.383,0.711 0.926,0.898 1.426,0.898 0.653,0 1.129,-0.488 1.367,-1.125 0.172,-0.457 0.231,-1.359 0.231,-2.011 0,-1.184 -0.488,-2.567 -1.742,-2.567 l -0.012,-0.328 c 0.867,0 1.453,0.598 1.781,1.426 z" /></g><g
       style="stroke:#1f77b4;stroke-opacity:1"
       id="g4251"
       transform="matrix(1,0,0,-1,0,202.0822)"><path
         d="M 169.961,28.438 C 176.75,14.23 198.254,12.957 198.254,12.957"
         style="fill:none;stroke:#1f77b4;stroke-width:0.692766;stroke-linecap:butt;stroke-linejoin:miter;stroke-miterlimit:4;stroke-dasharray:none;stroke-opacity:1"
         id="path4253" /></g><path
       id="path4257"
       style="fill:#1f77b4;fill-opacity:1;fill-rule:evenodd;stroke:#1f77b4;stroke-width:0.259787;stroke-linecap:butt;stroke-linejoin:round;stroke-miterlimit:4;stroke-dasharray:none;stroke-opacity:1"
       d="m 194.53542,190.58564 4.63257,-1.39775 -4.4332,-1.93814 c 0.66372,1.02772 0.58197,2.3756 -0.19937,3.33589 z" /><path
       id="path4261"
       style="fill:none;stroke:#ff3e0e;stroke-width:0.692766;stroke-linecap:butt;stroke-linejoin:miter;stroke-miterlimit:4;stroke-dasharray:none;stroke-opacity:1"
       d="m 145.91,88.1952 c -7.027,-10.176 -18.012,-15.476 -25.746,-17.172" /><path
       id="path4265"
       style="fill:#ff3e0e;fill-opacity:1;fill-rule:evenodd;stroke:#ff3e0e;stroke-width:0.259788;stroke-linecap:butt;stroke-linejoin:round;stroke-miterlimit:4;stroke-dasharray:none;stroke-opacity:1"
       d="m 124.0625,70.159939 -4.79316,0.660276 4.07871,2.601943 c -0.497,-1.117285 -0.20415,-2.433408 0.71445,-3.262219 z" /><g
       id="g4279"
       transform="matrix(1,0,0,-1,0,202.0822)"><path
         d="M 60.105,152.188 H 57.004"
         style="fill:none;stroke:#000000;stroke-width:0.692766;stroke-linecap:butt;stroke-linejoin:miter;stroke-miterlimit:4;stroke-dasharray:none;stroke-opacity:1"
         id="path4281" /></g><g
       id="g4283"
       transform="matrix(1,0,0,-1,0,202.0822)"><path
         d="m 346.254,152.188 h -3.102"
         style="fill:none;stroke:#000000;stroke-width:0.692766;stroke-linecap:butt;stroke-linejoin:miter;stroke-miterlimit:4;stroke-dasharray:none;stroke-opacity:1"
         id="path4285" /></g><path
       style="fill:none;stroke:#000000;stroke-width:0.75px;stroke-linecap:butt;stroke-linejoin:miter;stroke-opacity:1;marker-end:url(#marker6007-3)"
       d="M 56.70661,32.988203 V 204.40905"
       id="path6003" /><text
       transform="scale(1,-1)"
       id="text6106"
       y="-181.40575"
       x="47.406601"
       style="font-size:30px;line-height:1.25;font-family:Arial;-inkscape-font-specification:Arial;letter-spacing:0px;word-spacing:0px;stroke-width:0.75"
       xml:space="preserve"><tspan
         style="font-size:10px;stroke-width:0.75"
         y="-181.40575"
         x="47.406601"
         id="tspan6104"
         sodipodi:role="line">1</tspan></text><text
       transform="scale(1,-1)"
       xml:space="preserve"
       style="font-size:30px;line-height:1.25;font-family:Arial;-inkscape-font-specification:Arial;letter-spacing:0px;word-spacing:0px;stroke-width:0.75"
       x="47.406605"
       y="-113.74815"
       id="text6106-7"><tspan
         sodipodi:role="line"
         id="tspan6104-5"
         x="47.406605"
         y="-113.74815"
         style="font-size:9.99998px;stroke-width:0.75">0</tspan></text><text
       transform="scale(1,-1)"
       id="text6106-7-3"
       y="-47.829178"
       x="44.350174"
       style="font-size:30px;line-height:1.25;font-family:Arial;-inkscape-font-specification:Arial;letter-spacing:0px;word-spacing:0px;stroke-width:0.75"
       xml:space="preserve"><tspan
         style="font-size:9.99998px;stroke-width:0.75"
         y="-47.829178"
         x="44.350174"
         id="tspan6104-5-5"
         sodipodi:role="line">-1</tspan></text><text
       transform="scale(1,-1)"
       id="text6106-7-9"
       y="-105.95657"
       x="114.07805"
       style="font-size:30px;line-height:1.25;font-family:Arial;-inkscape-font-specification:Arial;letter-spacing:0px;word-spacing:0px;stroke-width:0.75"
       xml:space="preserve"><tspan
         style="font-size:9.99998px;stroke-width:0.75"
         y="-105.95657"
         x="114.07805"
         id="tspan6104-5-1"
         sodipodi:role="line">-0.5</tspan></text><text
       transform="scale(1,-1)"
       xml:space="preserve"
       style="font-size:30px;line-height:1.25;font-family:Arial;-inkscape-font-specification:Arial;letter-spacing:0px;word-spacing:0px;stroke-width:0.75"
       x="204.9684"
       y="-105.95657"
       id="text6106-7-9-2"><tspan
         sodipodi:role="line"
         id="tspan6104-5-1-7"
         x="204.9684"
         y="-105.95657"
         style="font-size:9.99998px;stroke-width:0.75">0</tspan></text><text
       transform="scale(1,-1)"
       id="text6106-7-9-2-0"
       y="-105.95657"
       x="296.1933"
       style="font-size:30px;line-height:1.25;font-family:Arial;-inkscape-font-specification:Arial;letter-spacing:0px;word-spacing:0px;stroke-width:0.75"
       xml:space="preserve"><tspan
         style="font-size:9.99998px;stroke-width:0.75"
         y="-105.95657"
         x="296.1933"
         id="tspan6104-5-1-7-9"
         sodipodi:role="line">0.5</tspan></text></g></svg>
