<?xml version="1.0" encoding="UTF-8" standalone="no"?>
<svg
   xmlns:dc="http://purl.org/dc/elements/1.1/"
   xmlns:cc="http://creativecommons.org/ns#"
   xmlns:rdf="http://www.w3.org/1999/02/22-rdf-syntax-ns#"
   xmlns:svg="http://www.w3.org/2000/svg"
   xmlns="http://www.w3.org/2000/svg"
   xmlns:sodipodi="http://sodipodi.sourceforge.net/DTD/sodipodi-0.dtd"
   xmlns:inkscape="http://www.inkscape.org/namespaces/inkscape"
   inkscape:export-ydpi="109.92857"
   inkscape:export-xdpi="109.92857"
   inkscape:export-filename="/home/cyd/jupyter/MH2801/img/trigonometry2.png"
   sodipodi:docname="trigonometry2.svg"
   inkscape:version="1.0 (4035a4fb49, 2020-05-01)"
   version="1.1"
   id="svg2"
   height="213.33333"
   width="298.66666">
  <sodipodi:namedview
     inkscape:document-rotation="0"
     fit-margin-bottom="0"
     fit-margin-right="0"
     fit-margin-left="0"
     fit-margin-top="0"
     inkscape:window-maximized="1"
     inkscape:window-y="0"
     inkscape:window-x="0"
     inkscape:window-height="1026"
     inkscape:window-width="1920"
     showgrid="false"
     inkscape:current-layer="layer1"
     inkscape:document-units="px"
     inkscape:cy="110.78899"
     inkscape:cx="57.012434"
     inkscape:zoom="1"
     inkscape:pageshadow="2"
     inkscape:pageopacity="0.0"
     borderopacity="1.0"
     bordercolor="#666666"
     pagecolor="#ffffff"
     id="base" />
  <defs
     id="defs4">
    <marker
       inkscape:stockid="Arrow2Mstart"
       orient="auto"
       refY="0.0"
       refX="0.0"
       id="Arrow2Mstart"
       style="overflow:visible"
       inkscape:isstock="true">
      <path
         id="path5181"
         style="fill-rule:evenodd;stroke-width:0.625;stroke-linejoin:round;stroke:#000000;stroke-opacity:1;fill:#000000;fill-opacity:1"
         d="M 8.7185878,4.0337352 L -2.2072895,0.016013256 L 8.7185884,-4.0017078 C 6.9730900,-1.6296469 6.9831476,1.6157441 8.7185878,4.0337352 z "
         transform="scale(0.6) translate(0,0)" />
    </marker>
    <marker
       style="overflow:visible"
       id="Arrow2Sstart"
       refX="0"
       refY="0"
       orient="auto"
       inkscape:stockid="Arrow2Sstart">
      <path
         inkscape:connector-curvature="0"
         d="M 2.0539481,1.2907953 -1.4423326,0.00512424 2.0539483,-1.2805465 c -0.5585595,0.75905949 -0.5553411,1.79758461 -2e-7,2.5713418 z"
         style="fill-rule:evenodd;stroke-width:0.2;stroke-linejoin:round"
         id="path4031" />
    </marker>
    <marker
       inkscape:stockid="Arrow2Mend"
       orient="auto"
       refY="0"
       refX="0"
       id="Arrow2Mend"
       style="overflow:visible">
      <path
         inkscape:connector-curvature="0"
         id="path4028"
         style="fill-rule:evenodd;stroke-width:0.40000001;stroke-linejoin:round"
         d="M -5.5798962,-2.5815905 1.4126653,-0.01024849 -5.5798966,2.561093 c 1.117119,-1.518119 1.1106821,-3.5951692 4e-7,-5.1426835 z" />
    </marker>
    <marker
       inkscape:stockid="Arrow2Mendc"
       orient="auto"
       refY="0"
       refX="0"
       id="Arrow2Mendc"
       style="overflow:visible">
      <path
         inkscape:connector-curvature="0"
         id="path4447"
         style="fill:#685a71;fill-rule:evenodd;stroke:#685a71;stroke-width:0.40000001;stroke-linejoin:round"
         d="M -5.5798962,-2.5815905 1.4126653,-0.01024849 -5.5798966,2.561093 c 1.117119,-1.518119 1.1106821,-3.5951692 4e-7,-5.1426835 z" />
    </marker>
    <marker
       inkscape:stockid="Arrow2MendY"
       orient="auto"
       refY="0"
       refX="0"
       id="Arrow2MendY"
       style="overflow:visible">
      <path
         inkscape:connector-curvature="0"
         id="path5157"
         style="fill:#553f5e;fill-rule:evenodd;stroke:#553f5e;stroke-width:0.40000001;stroke-linejoin:round"
         d="M -5.5798962,-2.5815905 1.4126653,-0.01024849 -5.5798966,2.561093 c 1.117119,-1.518119 1.1106821,-3.5951692 4e-7,-5.1426835 z" />
    </marker>
    <marker
       style="overflow:visible"
       id="Arrow2SstartR"
       refX="0"
       refY="0"
       orient="auto"
       inkscape:stockid="Arrow2SstartR">
      <path
         inkscape:connector-curvature="0"
         d="M 2.0539481,1.2907953 -1.4423326,0.00512424 2.0539483,-1.2805465 c -0.5585595,0.75905949 -0.5553411,1.79758461 -2e-7,2.5713418 z"
         style="fill:#553f5e;fill-rule:evenodd;stroke:#553f5e;stroke-width:0.2;stroke-linejoin:round"
         id="path5160" />
    </marker>
    <marker
       inkscape:stockid="Arrow2Mendc"
       orient="auto"
       refY="0"
       refX="0"
       id="Arrow2Mendc-2"
       style="overflow:visible">
      <path
         inkscape:connector-curvature="0"
         id="path4447-4"
         style="fill:#685a71;fill-rule:evenodd;stroke:#685a71;stroke-width:0.40000001;stroke-linejoin:round"
         d="M -5.5798962,-2.5815905 1.4126653,-0.01024849 -5.5798966,2.561093 c 1.117119,-1.518119 1.1106821,-3.5951692 4e-7,-5.1426835 z" />
    </marker>
    <marker
       inkscape:stockid="Arrow2Mendc"
       orient="auto"
       refY="0"
       refX="0"
       id="Arrow2Mendc-4"
       style="overflow:visible">
      <path
         inkscape:connector-curvature="0"
         id="path4447-8"
         style="fill:#685a71;fill-rule:evenodd;stroke:#685a71;stroke-width:0.40000001;stroke-linejoin:round"
         d="M -5.5798962,-2.5815905 1.4126653,-0.01024849 -5.5798966,2.561093 c 1.117119,-1.518119 1.1106821,-3.5951692 4e-7,-5.1426835 z" />
    </marker>
    <marker
       inkscape:stockid="Arrow2Mendc-4Q"
       orient="auto"
       refY="0"
       refX="0"
       id="Arrow2Mendc-4Q"
       style="overflow:visible">
      <path
         inkscape:connector-curvature="0"
         id="path15995"
         style="fill:#6c4883;fill-rule:evenodd;stroke:#6c4883;stroke-width:0.40000001;stroke-linejoin:round"
         d="M -5.5798962,-2.5815905 1.4126653,-0.01024849 -5.5798966,2.561093 c 1.117119,-1.518119 1.1106821,-3.5951692 4e-7,-5.1426835 z" />
    </marker>
    <marker
       inkscape:stockid="Arrow2MendcH"
       orient="auto"
       refY="0"
       refX="0"
       id="Arrow2MendcH"
       style="overflow:visible">
      <path
         inkscape:connector-curvature="0"
         id="path16324"
         style="fill:#6c4883;fill-rule:evenodd;stroke:#6c4883;stroke-width:0.40000001;stroke-linejoin:round"
         d="M -5.5798962,-2.5815905 1.4126653,-0.01024849 -5.5798966,2.561093 c 1.117119,-1.518119 1.1106821,-3.5951692 4e-7,-5.1426835 z" />
    </marker>
    <marker
       id="Arrow2MendcH1002"
       inkscape:stockid="Arrow2MendcH1002"
       orient="auto"
       refY="0"
       refX="0"
       style="overflow:visible">
      <path
         inkscape:connector-curvature="0"
         id="path4992"
         style="fill:#1f77b4;fill-rule:evenodd;stroke:#1f77b4;stroke-width:0.40000001;stroke-linejoin:round;stroke-opacity:1.0;fill-opacity:1.0"
         d="M -5.5798962,-2.5815905 1.4126653,-0.01024849 -5.5798966,2.561093 c 1.117119,-1.518119 1.1106821,-3.5951692 4e-7,-5.1426835 z" />
    </marker>
    <marker
       id="Arrow2Mendc-4Q1902"
       inkscape:stockid="Arrow2Mendc-4Q1902"
       orient="auto"
       refY="0"
       refX="0"
       style="overflow:visible">
      <path
         inkscape:connector-curvature="0"
         id="path4995"
         style="fill:#1f77b4;fill-rule:evenodd;stroke:#1f77b4;stroke-width:0.40000001;stroke-linejoin:round;stroke-opacity:1.0;fill-opacity:1.0"
         d="M -5.5798962,-2.5815905 1.4126653,-0.01024849 -5.5798966,2.561093 c 1.117119,-1.518119 1.1106821,-3.5951692 4e-7,-5.1426835 z" />
    </marker>
    <marker
       id="Arrow2MendY4229"
       inkscape:stockid="Arrow2MendY4229"
       orient="auto"
       refY="0"
       refX="0"
       style="overflow:visible">
      <path
         inkscape:connector-curvature="0"
         id="path5524"
         style="fill:#000000;fill-rule:evenodd;stroke:#000000;stroke-width:0.40000001;stroke-linejoin:round;stroke-opacity:1.0;fill-opacity:1.0"
         d="M -5.5798962,-2.5815905 1.4126653,-0.01024849 -5.5798966,2.561093 c 1.117119,-1.518119 1.1106821,-3.5951692 4e-7,-5.1426835 z" />
    </marker>
    <marker
       inkscape:isstock="true"
       style="overflow:visible"
       id="Arrow2Mstart-3"
       refX="0"
       refY="0"
       orient="auto"
       inkscape:stockid="Arrow2Mstart">
      <path
         transform="scale(0.6)"
         d="M 8.7185878,4.0337352 -2.2072895,0.01601326 8.7185884,-4.0017078 c -1.7454984,2.3720609 -1.7354408,5.6174519 -6e-7,8.035443 z"
         style="fill:#000000;fill-opacity:1;fill-rule:evenodd;stroke:#000000;stroke-width:0.625;stroke-linejoin:round;stroke-opacity:1"
         id="path5181-6" />
    </marker>
  </defs>
  <metadata
     id="metadata7">
    <rdf:RDF>
      <cc:Work
         rdf:about="">
        <dc:format>image/svg+xml</dc:format>
        <dc:type
           rdf:resource="http://purl.org/dc/dcmitype/StillImage" />
        <dc:title />
      </cc:Work>
    </rdf:RDF>
  </metadata>
  <g
     inkscape:label="Layer 1"
     inkscape:groupmode="layer"
     id="layer1"
     transform="translate(-289.66667,-383.53338)">
    <g
       style="stroke-width:1.40009"
       transform="matrix(0.3298533,0,0,0.3298533,257.23294,266.61025)"
       id="g3768">
      <g
         style="font-style:normal;font-variant:normal;font-weight:normal;font-stretch:normal;letter-spacing:normal;word-spacing:normal;text-anchor:start;fill:none;stroke:#000000;stroke-width:1.75011;stroke-linecap:butt;stroke-linejoin:miter;stroke-miterlimit:10.433;stroke-dasharray:none;stroke-dashoffset:0;stroke-opacity:1"
         id="content"
         transform="matrix(1.0629921,0,0,-1.0629921,-198.42519,841.88976)"
         xml:space="preserve"
         stroke-miterlimit="10.433"
         font-style="normal"
         font-variant="normal"
         font-weight="normal"
         font-stretch="normal"
         font-size-adjust="none"
         letter-spacing="normal"
         word-spacing="normal"><path
           style="fill:#000000;stroke-width:0"
           inkscape:connector-curvature="0"
           d="m 505.70667,453.36533 -0.096,0.18134 -0.096,0.18133 -0.096,0.17067 -0.096,0.17066 -0.10667,0.17067 -0.10667,0.17067 -0.11733,0.16 -0.11733,0.14933 -0.11734,0.16 -0.128,0.13867 -0.128,0.14933 -0.128,0.13867 -0.13866,0.128 -0.13867,0.128 -0.14933,0.11733 -0.14934,0.11733 -0.14933,0.11734 -0.16,0.096 -0.16,0.10666 -0.16,0.0853 -0.17067,0.0853 -0.18133,0.0853 -0.18133,0.064 -0.18134,0.0747 -0.18133,0.0533 -0.192,0.0533 -0.20267,0.0427 -0.20266,0.032 -0.20267,0.032 -0.21333,0.0213 -0.21334,0.0107 h -0.224 l 0.0533,-1.16266 c 3.44533,0 4.192,-4.352 4.192,-4.66134 0,-0.34133 -0.096,-0.65066 -0.14934,-0.91733 l -2.66666,-10.42133 c -0.26667,-0.94934 -0.26667,-1.04534 -1.06667,-1.96267 -2.32533,-2.92267 -4.512,-3.76533 -5.99467,-3.76533 -2.656,0 -3.40266,2.912 -3.40266,4.992 0,2.656 1.696,9.184 2.92266,11.63733 1.64267,3.136 4.04267,5.09867 6.16534,5.09867 l -0.0533,1.16266 c -6.21866,0 -12.8,-7.79733 -12.8,-15.56266 0,-5.00267 2.912,-8.50134 7.06134,-8.50134 1.056,0 3.72266,0.224 6.90133,3.98934 0.43733,-2.24 2.28267,-3.98934 4.832,-3.98934 1.86667,0 3.09333,1.216 3.936,2.92267 0.90667,1.90933 1.6,5.16267 1.6,5.25867 0,0.53333 -0.48,0.53333 -0.62933,0.53333 -0.53334,0 -0.58667,-0.21333 -0.74667,-0.96 -0.90667,-3.456 -1.86667,-6.58133 -4.04267,-6.58133 -1.42933,0 -1.6,1.376 -1.6,2.44266 0,1.17334 0.10667,1.58934 0.68267,3.936 0.608,2.22934 0.704,2.76267 1.184,4.77867 l 1.90933,7.43467 c 0.37334,1.48266 0.37334,1.6 0.37334,1.80266 0,0.91734 -0.64,1.45067 -1.54667,1.45067 -1.26933,0 -2.06933,-1.184 -2.22933,-2.34667 z"
           id="path3771" /></g>
    </g>
    <g
       style="stroke-width:1.40009"
       transform="matrix(0.3298533,0,0,0.3298533,392.81082,400.38293)"
       id="g3791">
      <g
         style="font-style:normal;font-variant:normal;font-weight:normal;font-stretch:normal;letter-spacing:normal;word-spacing:normal;text-anchor:start;fill:none;stroke:#000000;stroke-width:1.75011;stroke-linecap:butt;stroke-linejoin:miter;stroke-miterlimit:10.433;stroke-dasharray:none;stroke-dashoffset:0;stroke-opacity:1"
         word-spacing="normal"
         letter-spacing="normal"
         font-size-adjust="none"
         font-stretch="normal"
         font-weight="normal"
         font-variant="normal"
         font-style="normal"
         stroke-miterlimit="10.433"
         xml:space="preserve"
         transform="matrix(1.0629921,0,0,-1.0629921,-198.42519,841.88976)"
         id="g3793"><path
           style="fill:#000000;stroke-width:0"
           inkscape:connector-curvature="0"
           id="path3795"
           d="m 498.592,469.57867 v 0 0.0107 0 0.0107 l -0.0107,0.0213 v 0.0107 0.0213 0.0213 0.0213 l -0.0107,0.0213 v 0.0213 l -0.0107,0.0213 -0.0107,0.0213 -0.0107,0.032 -0.0107,0.0213 -0.0107,0.032 -0.0107,0.0213 -0.0213,0.032 -0.0213,0.0213 -0.0213,0.0213 -0.0213,0.032 -0.0107,0.0107 -0.0213,0.0107 -0.0107,0.0107 -0.0107,0.0107 -0.0213,0.0107 -0.0107,0.0107 -0.0213,0.0107 -0.0107,0.0107 -0.0213,0.0107 -0.0213,0.0107 H 498.24 l -0.0213,0.0107 -0.0213,0.0107 h -0.0213 l -0.0213,0.0107 -0.0213,0.0107 h -0.032 -0.0213 l -0.032,0.0107 h -0.0213 -0.032 l -0.032,0.0107 h -0.032 -0.0213 c -1.23733,0 -5.10933,-0.43733 -6.48533,-0.53333 -0.43733,-0.0533 -1.024,-0.10667 -1.024,-1.06667 0,-0.64 0.49067,-0.64 1.29067,-0.64 2.54933,0 2.64533,-0.36266 2.64533,-0.896 0,-0.384 -0.48,-2.18666 -0.74667,-3.296 l -4.352,-17.32266 c -0.62933,-2.66667 -0.85333,-3.52 -0.85333,-5.36534 0,-5.04533 2.816,-8.352 6.752,-8.352 v 1.17334 c -1.81333,0 -3.56267,1.42933 -3.56267,5.36533 0,1.01333 0,2.016 0.84267,5.36533 l 1.17333,4.896 c 0.32,1.17334 0.32,1.26934 0.8,1.856 2.60267,3.44534 5.00267,4.24534 6.37867,4.24534 1.92,0 3.34933,-1.57867 3.34933,-5.00267 0,-3.12533 -1.76,-9.22667 -2.70933,-11.264 -1.74933,-3.552 -4.20267,-5.46133 -6.272,-5.46133 v -1.17334 c 6.272,0 12.8,7.91467 12.8,15.57334 0,4.832 -2.816,8.49066 -7.06133,8.49066 -2.432,0 -4.61867,-1.52533 -6.21867,-3.17866 z" /></g>
    </g>
    <g
       style="stroke-width:1.34409"
       transform="matrix(1.0304005,0,0,1.0304005,319.92973,213.89027)"
       id="g3097">
      <g
         style="font-style:normal;font-variant:normal;font-weight:normal;font-stretch:normal;letter-spacing:normal;word-spacing:normal;text-anchor:start;fill:none;stroke:#000000;stroke-width:1.68011;stroke-linecap:butt;stroke-linejoin:miter;stroke-miterlimit:10.433;stroke-dasharray:none;stroke-dashoffset:0;stroke-opacity:1"
         id="g3099"
         transform="matrix(0.30142857,0,0,-0.30142857,-56.266667,360)"
         xml:space="preserve"
         stroke-miterlimit="10.433"
         font-style="normal"
         font-variant="normal"
         font-weight="normal"
         font-stretch="normal"
         font-size-adjust="none"
         letter-spacing="normal"
         word-spacing="normal"><path
           style="fill:#000000;stroke-width:0"
           inkscape:connector-curvature="0"
           d="m 510.06933,459.85067 v 0.33066 l -0.0107,0.36267 -0.0213,0.384 -0.0213,0.39467 -0.032,0.416 -0.0427,0.416 -0.0427,0.43733 -0.064,0.43733 -0.0747,0.448 -0.0747,0.45867 -0.096,0.448 -0.10666,0.45867 -0.128,0.448 -0.128,0.448 -0.14934,0.43733 -0.17066,0.43733 -0.18134,0.42667 -0.192,0.40533 -0.21333,0.39467 -0.23467,0.384 -0.24533,0.36267 -0.26667,0.34133 -0.29866,0.32 -0.30934,0.288 -0.33066,0.26667 -0.17067,0.128 -0.18133,0.10666 -0.18134,0.10667 -0.192,0.10667 -0.192,0.0853 -0.20266,0.0853 -0.20267,0.0747 -0.21333,0.064 -0.224,0.0533 -0.224,0.0533 -0.23467,0.032 -0.23467,0.0213 -0.24533,0.0213 h -0.24533 l -0.0533,-1.16266 c 2.60267,0 2.912,-3.40267 2.912,-6.432 0,-2.60267 -0.416,-5.32267 -1.696,-10.58134 h -11.104 c 0.90667,3.41334 1.97334,7.65867 4.08534,11.43467 1.45066,2.592 3.40266,5.57867 5.80266,5.57867 l 0.0533,1.16266 c -7.38134,0 -15.57334,-14.976 -15.57334,-27.14666 0,-5.00267 1.536,-10.90134 6.38934,-10.90134 v 1.17334 c -1.77067,0 -2.89067,1.54666 -2.89067,6.47466 0,2.24 0.32,5.32267 1.70667,10.51734 H 504.384 c -0.576,-2.432 -1.696,-6.944 -3.73333,-10.784 -1.84534,-3.616 -3.86134,-6.208 -6.144,-6.208 v -1.17334 c 7.47733,0 15.56266,15.25334 15.56266,27.15734 z"
           id="path3101" /></g>
    </g>
    <g
       style="stroke-width:1.5625"
       id="g3451"
       transform="matrix(0.87365712,0,0,0.87365712,274.45206,317.79024)">
      <g
         word-spacing="normal"
         letter-spacing="normal"
         font-size-adjust="none"
         font-stretch="normal"
         font-weight="normal"
         font-variant="normal"
         font-style="normal"
         stroke-miterlimit="10.433"
         xml:space="preserve"
         transform="matrix(0.26142857,0,0,-0.26142857,-48.8,316.8)"
         id="g3453"
         style="font-style:normal;font-variant:normal;font-weight:normal;font-stretch:normal;letter-spacing:normal;word-spacing:normal;text-anchor:start;fill:none;stroke:#000000;stroke-width:1.95312;stroke-linecap:butt;stroke-linejoin:miter;stroke-miterlimit:10.433;stroke-dasharray:none;stroke-dashoffset:0;stroke-opacity:1"><path
           id="path3455"
           d="m 501.504,467.296 v 0.0533 0.064 0.0533 0.0533 0.0533 0.0533 0.0427 0.0533 0.0427 0.0427 l -0.0107,0.0427 v 0.0427 0.0427 0.032 0.0427 l -0.0107,0.032 -0.0107,0.0747 v 0.064 l -0.0213,0.0533 -0.0107,0.0533 -0.0213,0.0533 -0.0213,0.0427 -0.0213,0.0427 -0.0213,0.032 -0.032,0.032 -0.032,0.032 -0.0427,0.032 -0.0427,0.0213 -0.0427,0.0213 -0.032,0.0107 -0.0213,0.0107 h -0.032 l -0.0213,0.0107 -0.032,0.0107 h -0.032 l -0.032,0.0107 h -0.032 l -0.0427,0.0107 h -0.032 -0.0427 l -0.032,0.0107 h -0.0427 -0.0427 -0.0533 -0.0427 -0.0427 l -0.0533,0.0107 h -0.0533 -0.0533 -0.0533 -0.0533 C 496.992,465.28 492.32,465.28 490.624,465.28 v -1.65333 c 1.06667,0 4.192,0 6.944,1.38666 v -27.53066 c 0,-1.92 -0.14933,-2.54934 -4.928,-2.54934 h -1.70667 V 433.28 c 1.86667,0.17067 6.48534,0.17067 8.608,0.17067 2.13334,0 6.74134,0 8.608,-0.17067 v 1.65333 h -1.696 c -4.77866,0 -4.94933,0.576 -4.94933,2.54934 z"
           inkscape:connector-curvature="0"
           style="fill:#000000;stroke-width:0" /></g>
    </g>
    <path
       sodipodi:nodetypes="cc"
       inkscape:connector-curvature="0"
       id="path4581"
       d="M 379.67441,594.78721 V 390.95646"
       style="fill:none;stroke:#000000;stroke-width:1.83194017;stroke-linecap:butt;stroke-linejoin:miter;stroke-miterlimit:4;stroke-dasharray:none;stroke-opacity:1;marker-end:url(#Arrow2Mend)" />
    <path
       sodipodi:open="true"
       sodipodi:end="3.5227636"
       sodipodi:start="0.048354406"
       d="m 453.41469,513.04506 a 74.376778,74.376778 0 0 1 -47.78936,65.90049 74.376778,74.376778 0 0 1 -79.53443,-17.34857 74.376778,74.376778 0 0 1 -16.00478,-79.8157"
       sodipodi:ry="74.376778"
       sodipodi:rx="74.376778"
       sodipodi:cy="509.45001"
       sodipodi:cx="379.12485"
       id="path4769"
       style="fill:none;stroke:#888788;stroke-width:2.56471658;stroke-linecap:round;stroke-linejoin:round;stroke-miterlimit:4;stroke-dasharray:5.1294328, 5.12943280000000001;stroke-dashoffset:0.80000001;stroke-opacity:1"
       sodipodi:type="arc" />
    <path
       inkscape:connector-curvature="0"
       id="path4771"
       d="M 375.91478,507.33918 351.83292,495.68675"
       style="fill:none;stroke:#000000;stroke-width:1;stroke-linecap:butt;stroke-linejoin:miter;stroke-miterlimit:4;stroke-dasharray:none;stroke-opacity:1;marker-start:url(#Arrow2Mstart)"
       sodipodi:nodetypes="cc" />
    <path
       sodipodi:type="arc"
       style="fill:#000000;fill-opacity:1;stroke:none;stroke-width:1.06666672"
       id="path5673"
       sodipodi:cx="312.49414"
       sodipodi:cy="476.05634"
       sodipodi:rx="3.997149"
       sodipodi:ry="3.997149"
       d="m 308.89159,474.32463 a 3.997149,3.997149 0 0 1 5.33406,-1.87094 3.997149,3.997149 0 0 1 1.87123,5.33396 3.997149,3.997149 0 0 1 -5.33385,1.87152 3.997149,3.997149 0 0 1 -1.87182,-5.33375"
       sodipodi:start="3.5896718"
       sodipodi:end="3.5894529"
       sodipodi:open="true" />
    <g
       style="stroke-width:1.17647"
       transform="matrix(1.226255,0,0,1.2262551,291.28532,358.60641)"
       id="g5746">
      <g
         style="font-style:normal;font-variant:normal;font-weight:normal;font-stretch:normal;letter-spacing:normal;word-spacing:normal;text-anchor:start;fill:none;stroke:#000000;stroke-width:1.38408;stroke-linecap:butt;stroke-linejoin:miter;stroke-miterlimit:10.433;stroke-dasharray:none;stroke-dashoffset:0;stroke-opacity:1"
         id="g5748"
         transform="matrix(0.2092444,0,0,-0.2092444,-39.058955,227.475)"
         xml:space="preserve"
         stroke-miterlimit="10.433"
         font-style="normal"
         font-variant="normal"
         font-weight="normal"
         font-stretch="normal"
         font-size-adjust="none"
         letter-spacing="normal"
         word-spacing="normal"><path
           style="fill:#000000;stroke-width:0"
           inkscape:connector-curvature="0"
           d="m 510.336,450.28267 v 0.78933 l -0.0107,0.8 -0.0213,0.8 -0.0427,0.78933 -0.0427,0.8 -0.064,0.78934 -0.0853,0.78933 -0.096,0.77867 -0.128,0.77866 -0.14933,0.77867 -0.17067,0.768 -0.20266,0.768 -0.224,0.768 -0.26667,0.74667 -0.29867,0.74666 -0.16,0.37334 -0.17066,0.36266 c -2.432,5.12 -6.79467,5.97334 -9.03467,5.97334 -3.17867,0 -7.06133,-1.38667 -9.248,-6.336 -1.696,-3.66934 -1.96267,-7.81867 -1.96267,-12.064 0,-3.98934 0.21334,-8.768 2.4,-12.8 2.28267,-4.29867 6.16534,-5.36534 8.768,-5.36534 V 433.28 c -2.06933,0 -5.216,1.33333 -6.176,6.432 -0.576,3.17867 -0.576,8.064 -0.576,11.22133 0,3.392 0,6.89067 0.42667,9.76 1.00267,6.336 4.992,6.80534 6.32533,6.80534 1.74934,0 5.25867,-0.94934 6.26134,-6.21867 0.53333,-2.96533 0.53333,-7.01867 0.53333,-10.34667 0,-4 0,-7.60533 -0.58667,-11.008 -0.8,-5.04533 -3.82933,-6.64533 -6.208,-6.64533 v 0 -1.16267 c 2.85867,0 6.89067,1.10934 9.248,6.16534 1.696,3.65866 1.96267,7.79733 1.96267,12 z"
           id="path5750" /></g>
    </g>
    <g
       style="stroke-width:1.31579"
       id="g4053"
       transform="matrix(0.28040008,0,0,0.28040008,411.23781,344.98011)">
      <g
         word-spacing="normal"
         letter-spacing="normal"
         font-size-adjust="none"
         font-stretch="normal"
         font-weight="normal"
         font-variant="normal"
         font-style="normal"
         stroke-miterlimit="10.433"
         xml:space="preserve"
         transform="matrix(1.0629921,0,0,-1.0629921,-198.42519,841.88976)"
         id="g4055"
         style="font-style:normal;font-variant:normal;font-weight:normal;font-stretch:normal;letter-spacing:normal;word-spacing:normal;text-anchor:start;fill:none;stroke:#000000;stroke-width:1.64474;stroke-linecap:butt;stroke-linejoin:miter;stroke-miterlimit:10.433;stroke-dasharray:none;stroke-dashoffset:0;stroke-opacity:1"><path
           id="path4057"
           d="m 495.08267,454.528 h 7.60533 v 1.65333 h -7.60533 v 9.78134 h -1.33334 c -0.0427,-4.352 -1.64266,-10.048 -6.848,-10.25067 v -1.184 h 4.52267 v -14.66667 c 0,-6.528 4.928,-7.168 6.848,-7.168 3.76533,0 5.26933,3.76534 5.26933,7.168 v 3.02934 H 502.208 v -2.912 c 0,-3.936 -1.6,-5.952 -3.57333,-5.952 -3.552,0 -3.552,4.832 -3.552,5.73866 z"
           inkscape:connector-curvature="0"
           style="fill:#000000;stroke-width:0" /><path
           id="path4059"
           d="m 524.192,437.312 0.0213,-0.20267 0.032,-0.192 0.0427,-0.20266 0.0427,-0.192 0.0533,-0.20267 0.0533,-0.192 0.0747,-0.192 0.064,-0.192 0.0853,-0.192 0.0853,-0.18133 0.096,-0.192 0.096,-0.17067 0.10666,-0.17067 0.11734,-0.17066 0.11733,-0.17067 0.128,-0.14933 0.13867,-0.14934 0.13866,-0.14933 0.14934,-0.13867 0.14933,-0.128 0.16,-0.128 0.17067,-0.10666 0.17066,-0.10667 0.18134,-0.096 0.192,-0.0853 0.192,-0.0747 0.20266,-0.064 0.20267,-0.0533 0.21333,-0.0427 0.21334,-0.032 0.224,-0.0213 0.23466,-0.0107 c 1.09867,0 4.352,0.75733 4.352,5.056 v 2.96533 H 531.36 V 438.016 c 0,-3.08267 -1.32267,-3.40267 -1.92,-3.40267 -1.74933,0 -1.96267,2.37867 -1.96267,2.64534 v 10.63466 c 0,2.24 0,4.29867 -1.89866,6.272 -2.09067,2.05867 -4.736,2.912 -7.28534,2.912 -4.37333,0 -8.032,-2.48533 -8.032,-5.99466 0,-1.58934 1.06667,-2.50667 2.44267,-2.50667 1.48267,0 2.45333,1.06667 2.45333,2.45333 0,0.62934 -0.26666,2.37867 -2.72,2.45334 1.44,1.84533 4.04267,2.432 5.73867,2.432 2.61333,0 5.632,-2.06934 5.632,-6.80534 v -1.96266 -1.12 -5.312 c 0,-5.056 -3.81867,-6.848 -6.21867,-6.848 -2.60266,0 -4.77866,1.86666 -4.77866,4.512 0,2.912 2.22933,7.33866 10.99733,7.648 v 0 1.12 c -2.69867,-0.14934 -6.42133,-0.32 -9.77067,-1.92 -3.97866,-1.80267 -5.312,-4.56534 -5.312,-6.90134 0,-4.29866 5.152,-5.632 8.50134,-5.632 3.52,0 5.952,2.12267 6.96533,4.61867 z"
           inkscape:connector-curvature="0"
           style="fill:#000000;stroke-width:0" /><path
           id="path4061"
           d="M 538.96533,451.56267 V 437.312 c 0,-2.37867 -0.58666,-2.37867 -4.14933,-2.37867 V 433.28 c 1.86667,0.0533 4.56533,0.17067 5.99467,0.17067 1.38666,0 4.14933,-0.11734 5.952,-0.17067 v 1.65333 c -3.552,0 -4.13867,0 -4.13867,2.37867 v 9.78133 c 0,5.536 3.776,8.50134 7.168,8.50134 3.34933,0 3.936,-2.86934 3.936,-5.89867 v -12.384 c 0,-2.37867 -0.58667,-2.37867 -4.14933,-2.37867 V 433.28 c 1.86666,0.0533 4.58666,0.17067 6.016,0.17067 1.38666,0 4.13866,-0.11734 5.952,-0.17067 v 1.65333 c -2.77334,0 -4.10667,0 -4.14934,1.6 v 10.144 c 0,4.56534 0,6.21867 -1.65333,8.11734 -0.736,0.91733 -2.496,1.96266 -5.568,1.96266 -3.88267,0 -6.37867,-2.28266 -7.86133,-5.55733 v 5.55733 l -7.49867,-0.576 V 454.528 c 3.712,0 4.14933,-0.36267 4.14933,-2.96533 z"
           inkscape:connector-curvature="0"
           style="fill:#000000;stroke-width:0" /><path
           id="path4063"
           d="m 580.26667,420.53333 v 0.0213 l -0.0107,0.032 v 0.0107 0.0213 0.0107 l -0.0107,0.0213 v 0.0107 l -0.0107,0.0213 -0.0107,0.0213 -0.0107,0.0213 -0.0107,0.0213 -0.0107,0.032 -0.0213,0.0213 -0.0213,0.032 -0.0213,0.032 -0.0213,0.032 -0.032,0.032 -0.032,0.0427 -0.0213,0.0213 -0.0107,0.0213 -0.0213,0.0213 -0.0213,0.0213 -0.0213,0.0213 -0.0213,0.032 -0.0213,0.0213 -0.0213,0.0213 -0.0213,0.032 -0.032,0.0213 -0.0213,0.032 -0.032,0.032 -0.0213,0.032 -0.032,0.032 -0.032,0.032 -0.032,0.032 -0.032,0.032 -0.032,0.032 -0.0427,0.0427 -0.032,0.032 -0.032,0.0427 -0.0427,0.032 -0.0427,0.0427 -0.0427,0.0427 c -6.63467,6.69867 -8.33067,16.736 -8.33067,24.864 0,9.248 2.016,18.50667 8.544,25.13067 0.69334,0.65066 0.69334,0.75733 0.69334,0.91733 0,0.37333 -0.20267,0.52267 -0.52267,0.52267 -0.53333,0 -5.312,-3.60534 -8.448,-10.34667 -2.72,-5.856 -3.34933,-11.75467 -3.34933,-16.224 0,-4.14933 0.58666,-10.56 3.49866,-16.576 3.18934,-6.53867 7.76534,-9.984 8.29867,-9.984 0.32,0 0.52267,0.14933 0.52267,0.53333 z"
           inkscape:connector-curvature="0"
           style="fill:#000000;stroke-width:0" /><path
           id="path4065"
           d="m 607.46667,459.85067 v 0.33066 l -0.0107,0.36267 -0.0213,0.384 -0.0213,0.39467 -0.032,0.416 -0.0427,0.416 -0.0427,0.43733 -0.064,0.43733 -0.0747,0.448 -0.0853,0.45867 -0.0853,0.448 -0.10667,0.45867 -0.128,0.448 -0.128,0.448 -0.14933,0.43733 -0.17067,0.43733 -0.18133,0.42667 -0.192,0.40533 -0.21334,0.39467 -0.23466,0.384 -0.24534,0.36267 -0.27733,0.34133 -0.288,0.32 -0.30933,0.288 -0.33067,0.26667 -0.17067,0.128 -0.18133,0.10666 -0.18133,0.10667 -0.192,0.10667 -0.192,0.0853 -0.20267,0.0853 -0.20267,0.0747 -0.21333,0.064 -0.224,0.0533 -0.224,0.0533 -0.23467,0.032 -0.23466,0.0213 -0.24534,0.0213 H 601.088 l -0.0533,-1.16266 c 2.60266,0 2.912,-3.40267 2.912,-6.432 0,-2.60267 -0.416,-5.32267 -1.696,-10.58134 h -11.104 c 0.90666,3.41334 1.97333,7.65867 4.08533,11.43467 1.45067,2.592 3.40267,5.57867 5.80267,5.57867 l 0.0533,1.16266 c -7.392,0 -15.57333,-14.976 -15.57333,-27.14666 0,-5.00267 1.536,-10.90134 6.38933,-10.90134 v 1.17334 c -1.77067,0 -2.89067,1.54666 -2.89067,6.47466 0,2.24 0.32,5.32267 1.70667,10.51734 h 11.06133 c -0.58666,-2.432 -1.696,-6.944 -3.73333,-10.784 -1.84533,-3.616 -3.86133,-6.208 -6.144,-6.208 v -1.17334 c 7.47733,0 15.56267,15.25334 15.56267,27.15734 z"
           inkscape:connector-curvature="0"
           style="fill:#000000;stroke-width:0" /><path
           id="path4067"
           d="m 625.13067,446.56 v 0.39467 l -0.0107,0.416 -0.0107,0.416 -0.0107,0.43733 -0.0427,0.896 -0.064,0.93867 -0.0853,0.98133 -0.11734,1.01333 -0.13866,1.03467 -0.18134,1.07733 -0.20266,1.088 -0.24534,1.09867 -0.288,1.12 -0.33066,1.13067 -0.36267,1.14133 -0.42667,1.14133 -0.224,0.56534 -0.24533,0.56533 -0.24533,0.56533 -0.26667,0.56534 c -3.18933,6.528 -7.75467,9.984 -8.288,9.984 -0.30933,0 -0.53333,-0.20267 -0.53333,-0.52267 0,-0.16 0,-0.26667 1.00266,-1.22667 5.216,-5.248 8.24534,-13.70666 8.24534,-24.82133 0,-9.07733 -1.96267,-18.432 -8.56534,-25.13067 -0.68266,-0.62933 -0.68266,-0.74666 -0.68266,-0.896 0,-0.32 0.224,-0.53333 0.53333,-0.53333 0.53333,0 5.30133,3.616 8.448,10.35733 2.70933,5.83467 3.33867,11.73334 3.33867,16.20267 z"
           inkscape:connector-curvature="0"
           style="fill:#000000;stroke-width:0" /><path
           id="path4069"
           d="m 681.74933,450.66667 h 0.14934 0.14933 0.16 l 0.0747,0.0107 h 0.0747 l 0.0747,0.0107 0.0747,0.0107 0.0747,0.0107 0.0747,0.0107 0.0747,0.0107 0.0747,0.0213 0.064,0.0213 0.0747,0.0213 0.064,0.0213 0.0533,0.032 0.064,0.032 0.0533,0.0427 0.0533,0.032 0.0533,0.0533 0.0427,0.0427 0.0427,0.0533 0.0213,0.032 0.0213,0.032 0.0213,0.0213 0.0107,0.032 0.0213,0.032 0.0107,0.0427 0.0107,0.032 0.0107,0.0427 0.0107,0.032 0.0107,0.0427 0.0107,0.0427 v 0.0427 l 0.0107,0.0427 v 0.0427 0.0427 0.0533 c 0,1.06667 -1.01333,1.06667 -1.74933,1.06667 h -31.82933 c -0.74667,0 -1.74934,0 -1.74934,-1.06667 0,-1.04533 1.00267,-1.04533 1.80267,-1.04533 z"
           inkscape:connector-curvature="0"
           style="fill:#000000;stroke-width:0" /><path
           id="path4071"
           d="m 681.792,440.34133 h 0.0747 0.0747 l 0.13867,0.0107 h 0.14933 0.0747 l 0.0747,0.0107 0.0747,0.0107 h 0.0747 l 0.0747,0.0107 0.064,0.0213 0.0747,0.0107 0.0747,0.0213 0.064,0.0213 0.064,0.0213 0.064,0.0213 0.064,0.032 0.0533,0.032 0.064,0.0427 0.0533,0.0427 0.0427,0.0427 0.0427,0.0533 0.032,0.0213 0.0107,0.032 0.0213,0.0213 0.0213,0.032 0.0213,0.032 0.0107,0.032 0.0213,0.032 0.0107,0.032 0.0107,0.0427 0.0107,0.032 0.0107,0.0427 0.0107,0.0427 0.0107,0.0427 v 0.0427 l 0.0107,0.0427 v 0.0427 0.0533 0.0427 c 0,1.06667 -1.01333,1.06667 -1.792,1.06667 H 650.016 c -0.8,0 -1.80267,0 -1.80267,-1.06667 0,-1.06667 1.00267,-1.06667 1.74934,-1.06667 z"
           inkscape:connector-curvature="0"
           style="fill:#000000;stroke-width:0" /><path
           id="path4073"
           d="m 723.392,468.34133 -0.0747,0.11734 -0.0747,0.11733 -0.0747,0.10667 -0.0853,0.10666 -0.0853,0.10667 -0.096,0.10667 -0.0853,0.096 -0.096,0.10666 -0.096,0.096 -0.10667,0.0853 -0.10666,0.096 -0.10667,0.0853 -0.10667,0.0853 -0.10666,0.0853 -0.11734,0.0747 -0.11733,0.0853 -0.128,0.064 -0.11733,0.0747 -0.128,0.064 -0.128,0.0533 -0.13867,0.064 -0.128,0.0533 -0.13867,0.0427 -0.14933,0.0427 -0.13867,0.0427 -0.14933,0.032 -0.14933,0.032 -0.16,0.0213 -0.14934,0.0213 -0.16,0.0107 -0.16,0.0107 h -0.17066 v -1.03467 c 2.60266,0 3.31733,-2.816 3.31733,-3.232 0,-0.14933 -0.0853,-0.416 -0.11733,-0.512 l -1.74934,-6.95466 c -0.24533,-1.04534 -1.06666,-1.78134 -1.888,-2.496 -0.33066,-0.288 -1.824,-1.48267 -3.424,-1.48267 -1.376,0 -2.70933,0.96 -2.70933,3.59467 0,1.984 1.06667,6.06933 1.94133,7.552 1.696,2.98666 3.59467,3.53066 4.62934,3.53066 v 1.03467 c -4.74667,0 -9.58934,-5.23733 -9.58934,-10.58133 0,-3.60534 2.42134,-6.16534 5.62134,-6.16534 2.00533,0 3.78666,1.152 5.26933,2.60267 0.71467,-2.24 2.86933,-2.60267 3.82933,-2.60267 1.33334,0 2.272,0.81067 2.93334,1.96267 0.82133,1.45067 1.30133,3.57333 1.30133,3.72267 0,0.48 -0.48,0.48 -0.58667,0.48 -0.53333,0 -0.56533,-0.14934 -0.81066,-1.152 -0.448,-1.78134 -1.16267,-3.97867 -2.72,-3.97867 -0.97067,0 -1.23734,0.81067 -1.23734,1.81333 0,0.62934 0.30934,1.984 0.576,2.95467 0.24534,0.992 0.62934,2.50667 0.81067,3.328 l 0.736,2.83733 c 0.23467,0.96 0.672,2.70934 0.672,2.90134 0,0.81066 -0.672,1.17333 -1.25867,1.17333 -0.62933,0 -1.49333,-0.448 -1.71733,-1.48267 z"
           inkscape:connector-curvature="0"
           style="fill:#000000;stroke-width:0" /><polyline
           transform="scale(1.0666667)"
           id="polyline4075"
           points="663,418 684.72,418 684.72,420.04 663,420.04 "
           style="fill:#000000;fill-rule:nonzero;stroke-width:0" /><path
           id="path4077"
           d="m 719.70133,439.65867 v 0 l 0.0107,0.0107 v 0 0.0107 0 0.0107 h 0.0107 v 0.0107 0.0107 0 l 0.0107,0.0213 v 0.0213 l 0.0107,0.0213 v 0.0213 l 0.0107,0.0213 0.0107,0.0213 v 0.0213 l 0.0107,0.0213 v 0.032 l 0.0107,0.0427 0.0213,0.0533 v 0.0213 l 0.0107,0.032 v 0.0213 l 0.0107,0.0213 v 0.0213 l 0.0107,0.0213 v 0.0107 0.0213 0.0107 h 0.0107 v 0.0107 0.0107 0 0.0107 0 0.0107 0 0 0.0107 0 c 0,0.192 -0.14934,0.53334 -0.59734,0.53334 -0.74666,0 -3.82933,-0.29867 -4.74666,-0.384 -0.29867,-0.032 -0.832,-0.0747 -0.832,-0.85334 0,-0.512 0.53333,-0.512 0.96,-0.512 1.792,0 1.792,-0.26666 1.792,-0.576 0,-0.24533 -0.37334,-1.728 -0.58667,-2.592 l -0.85333,-3.424 c -0.352,-1.25866 -2.37867,-9.39733 -2.464,-9.87733 -0.18134,-0.90667 -0.18134,-1.38667 -0.18134,-1.81333 0,-3.776 2.37867,-6.13334 5.46134,-6.13334 l 0.032,1.024 c -1.81334,0 -2.848,1.6 -2.848,3.808 0,1.36534 0.33066,2.63467 1.36533,6.82667 0.21333,0.704 0.21333,0.78933 0.93867,1.6 1.408,1.632 3.08266,2.45333 4.416,2.45333 1.45066,0 2.72,-1.088 2.72,-3.60533 0,-1.52533 -0.82134,-5.312 -1.94134,-7.47733 -0.896,-1.81334 -2.752,-3.60534 -4.65066,-3.60534 v 0 l -0.032,-1.024 c 4.65066,0 9.58933,5.04534 9.58933,10.54934 0,4.34133 -3.008,6.19733 -5.568,6.19733 -1.93067,0 -3.57333,-1.06667 -4.68267,-2.03733 z"
           inkscape:connector-curvature="0"
           style="fill:#000000;stroke-width:0" /></g>
    </g>
    <g
       style="stroke-width:1.31579"
       id="g3103"
       transform="matrix(1.0941741,0,0,1.0941741,421.47935,176.85321)">
      <g
         word-spacing="normal"
         letter-spacing="normal"
         font-size-adjust="none"
         font-stretch="normal"
         font-weight="normal"
         font-variant="normal"
         font-style="normal"
         stroke-miterlimit="10.433"
         xml:space="preserve"
         transform="matrix(0.26142857,0,0,-0.26142857,-48.8,316.8)"
         id="g3105"
         style="font-style:normal;font-variant:normal;font-weight:normal;font-stretch:normal;letter-spacing:normal;word-spacing:normal;text-anchor:start;fill:none;stroke:#000000;stroke-width:1.64474;stroke-linecap:butt;stroke-linejoin:miter;stroke-miterlimit:10.433;stroke-dasharray:none;stroke-dashoffset:0;stroke-opacity:1"><path
           id="path3107"
           d="m 496.93867,443.59467 0.11733,-0.0213 0.13867,-0.0213 0.14933,-0.032 0.17067,-0.0427 0.17066,-0.0427 0.192,-0.0427 0.20267,-0.0533 0.21333,-0.064 0.224,-0.064 0.224,-0.0747 0.224,-0.0853 0.23467,-0.0853 0.23467,-0.10666 0.23466,-0.10667 0.23467,-0.11733 0.23467,-0.128 0.23466,-0.14934 0.224,-0.14933 0.21334,-0.16 0.21333,-0.17067 0.20267,-0.192 0.192,-0.20266 0.18133,-0.21334 0.17067,-0.224 0.14933,-0.23466 0.0747,-0.128 0.064,-0.128 0.064,-0.13867 0.0533,-0.128 0.0533,-0.14933 0.0533,-0.13867 0.0427,-0.14933 0.032,-0.14934 0.032,-0.16 0.032,-0.16 0.0213,-0.17066 0.0107,-0.16 0.0107,-0.18134 0.0107,-0.17066 c 0,-2.69867 -1.86667,-4.832 -6.00534,-4.832 -4.46933,0 -6.37866,3.02933 -7.40266,7.54133 -0.14934,0.68267 -0.192,0.90667 -0.72534,0.90667 -0.704,0 -0.704,-0.37334 -0.704,-1.33334 v -7.01866 c 0,-0.896 0,-1.26934 0.58667,-1.26934 0.26667,0 0.30933,0.0533 1.33333,1.06667 0.096,0.10667 0.096,0.20267 1.06667,1.216 2.32533,-2.22933 4.72533,-2.28267 5.84533,-2.28267 6.10134,0 8.55467,3.57334 8.55467,7.38134 0,2.816 -1.6,4.416 -2.24,5.056 -1.74933,1.696 -3.82933,2.13333 -6.05867,2.54933 -2.976,0.58667 -6.53866,1.28 -6.53866,4.36267 0,1.856 1.38666,4.032 5.952,4.032 5.84533,0 6.112,-4.77867 6.21866,-6.432 0.064,-0.48 0.53334,-0.48 0.65067,-0.48 0.68267,0 0.68267,0.26666 0.68267,1.28 v 5.36533 c 0,0.90667 0,1.26933 -0.58667,1.26933 -0.26667,0 -0.36267,0 -1.06667,-0.62933 -0.14933,-0.224 -0.68266,-0.68267 -0.896,-0.85333 -2.016,1.48266 -4.20266,1.48266 -5.00266,1.48266 -6.48534,0 -8.50134,-3.552 -8.50134,-6.528 0,-1.856 0.85334,-3.34933 2.28267,-4.52266 1.696,-1.376 3.2,-1.696 7.01867,-2.432 z"
           inkscape:connector-curvature="0"
           style="fill:#000000;stroke-width:0" /><path
           id="path3109"
           d="m 516.27733,456.75733 -7.43466,-0.576 V 454.528 c 3.456,0 3.936,-0.32 3.936,-2.912 v -14.304 c 0,-2.37867 -0.58667,-2.37867 -4.14934,-2.37867 V 433.28 c 1.696,0.0533 4.56534,0.17067 5.84534,0.17067 1.86666,0 3.72266,-0.11734 5.536,-0.17067 v 1.65333 c -3.52,0 -3.73334,0.26667 -3.73334,2.32534 z"
           inkscape:connector-curvature="0"
           style="fill:#000000;stroke-width:0" /><path
           id="path3111"
           d="m 516.49067,466.016 v 0.14933 l -0.0107,0.16 -0.0213,0.14934 -0.0213,0.14933 -0.032,0.13867 -0.0427,0.13866 -0.0427,0.13867 -0.0533,0.128 -0.064,0.128 -0.064,0.128 -0.064,0.11733 -0.0747,0.10667 -0.0853,0.10667 -0.0853,0.10666 -0.0853,0.10667 -0.096,0.0853 -0.10667,0.096 -0.096,0.0853 -0.10666,0.0747 -0.11734,0.0747 -0.11733,0.0747 -0.11733,0.064 -0.11734,0.0533 -0.128,0.0533 -0.128,0.0427 -0.128,0.0427 -0.128,0.032 -0.128,0.032 -0.13866,0.0213 -0.13867,0.0107 -0.13867,0.0107 -0.13866,0.0107 c -1.64267,0 -2.816,-1.44 -2.816,-2.816 0,-1.44 1.17333,-2.816 2.816,-2.816 1.48266,0 2.816,1.10933 2.816,2.816 z"
           inkscape:connector-curvature="0"
           style="fill:#000000;stroke-width:0" /><path
           id="path3113"
           d="M 527.44533,451.56267 V 437.312 c 0,-2.37867 -0.58666,-2.37867 -4.14933,-2.37867 V 433.28 c 1.86667,0.0533 4.56533,0.17067 5.99467,0.17067 1.38666,0 4.16,-0.11734 5.952,-0.17067 v 1.65333 c -3.552,0 -4.128,0 -4.128,2.37867 v 9.78133 c 0,5.536 3.76533,8.50134 7.168,8.50134 3.34933,0 3.92533,-2.86934 3.92533,-5.89867 v -12.384 c 0,-2.37867 -0.576,-2.37867 -4.14933,-2.37867 V 433.28 c 1.86666,0.0533 4.58666,0.17067 6.016,0.17067 1.38666,0 4.13866,-0.11734 5.952,-0.17067 v 1.65333 c -2.76267,0 -4.096,0 -4.14934,1.6 v 10.144 c 0,4.56534 0,6.21867 -1.65333,8.11734 -0.72533,0.91733 -2.496,1.96266 -5.55733,1.96266 -3.88267,0 -6.38934,-2.28266 -7.872,-5.55733 v 5.55733 l -7.49867,-0.576 V 454.528 c 3.712,0 4.14933,-0.36267 4.14933,-2.96533 z"
           inkscape:connector-curvature="0"
           style="fill:#000000;stroke-width:0" /><path
           id="path3115"
           d="m 568.74667,420.53333 v 0.0213 0.032 0.0107 l -0.0107,0.0213 v 0.0107 0.0213 l -0.0107,0.0107 -0.0107,0.0213 -0.0107,0.0213 -0.0107,0.0213 -0.0107,0.0213 -0.0107,0.032 -0.0213,0.0213 -0.0213,0.032 -0.0213,0.032 -0.0213,0.032 -0.032,0.032 -0.032,0.0427 -0.0107,0.0213 -0.0213,0.0213 -0.0213,0.0213 -0.0213,0.0213 -0.0107,0.0213 -0.0213,0.032 -0.032,0.0213 -0.0213,0.0213 -0.0213,0.032 -0.0213,0.0213 -0.032,0.032 -0.0213,0.032 -0.032,0.032 -0.032,0.032 -0.032,0.032 -0.032,0.032 -0.032,0.032 -0.032,0.032 -0.032,0.0427 -0.0427,0.032 -0.032,0.0427 -0.0427,0.032 -0.0427,0.0427 -0.0427,0.0427 c -6.624,6.69867 -8.33067,16.736 -8.33067,24.864 0,9.248 2.016,18.50667 8.55467,25.13067 0.68267,0.65066 0.68267,0.75733 0.68267,0.91733 0,0.37333 -0.20267,0.52267 -0.512,0.52267 -0.53334,0 -5.32267,-3.60534 -8.45867,-10.34667 -2.70933,-5.856 -3.34933,-11.75467 -3.34933,-16.224 0,-4.14933 0.58666,-10.56 3.49866,-16.576 3.18934,-6.53867 7.776,-9.984 8.30934,-9.984 0.30933,0 0.512,0.14933 0.512,0.53333 z"
           inkscape:connector-curvature="0"
           style="fill:#000000;stroke-width:0" /><path
           id="path3117"
           d="m 595.94667,459.85067 v 0.33066 l -0.0107,0.36267 -0.0107,0.384 -0.032,0.39467 -0.032,0.416 -0.032,0.416 -0.0533,0.43733 -0.064,0.43733 -0.064,0.448 -0.0853,0.45867 -0.096,0.448 -0.10667,0.45867 -0.11733,0.448 -0.13867,0.448 -0.14933,0.43733 -0.16,0.43733 -0.18134,0.42667 -0.20266,0.40533 -0.21334,0.39467 -0.23466,0.384 -0.24534,0.36267 -0.26666,0.34133 -0.288,0.32 -0.30934,0.288 -0.33066,0.26667 -0.18134,0.128 -0.17066,0.10666 -0.192,0.10667 -0.18134,0.10667 -0.20266,0.0853 -0.20267,0.0853 -0.20267,0.0747 -0.21333,0.064 -0.224,0.0533 -0.224,0.0533 -0.224,0.032 -0.24533,0.0213 -0.24534,0.0213 H 589.568 l -0.0533,-1.16266 c 2.60266,0 2.92266,-3.40267 2.92266,-6.432 0,-2.60267 -0.416,-5.32267 -1.70666,-10.58134 h -11.09334 c 0.896,3.41334 1.96267,7.65867 4.07467,11.43467 1.45067,2.592 3.40267,5.57867 5.80267,5.57867 l 0.0533,1.16266 c -7.38133,0 -15.57333,-14.976 -15.57333,-27.14666 0,-5.00267 1.536,-10.90134 6.38933,-10.90134 v 1.17334 c -1.77067,0 -2.88,1.54666 -2.88,6.47466 0,2.24 0.30933,5.32267 1.696,10.51734 h 11.072 c -0.58667,-2.432 -1.70667,-6.944 -3.73333,-10.784 -1.856,-3.616 -3.872,-6.208 -6.15467,-6.208 v -1.17334 c 7.47733,0 15.56267,15.25334 15.56267,27.15734 z"
           inkscape:connector-curvature="0"
           style="fill:#000000;stroke-width:0" /><path
           id="path3119"
           d="m 613.61067,446.56 v 0.39467 0.416 l -0.0107,0.416 -0.0213,0.43733 -0.0427,0.896 -0.064,0.93867 -0.0853,0.98133 -0.11734,1.01333 -0.13866,1.03467 -0.17067,1.07733 -0.21333,1.088 -0.24534,1.09867 -0.288,1.12 -0.32,1.13067 -0.37333,1.14133 -0.416,1.14133 -0.23467,0.56534 -0.23466,0.56533 -0.256,0.56533 -0.26667,0.56534 c -3.17867,6.528 -7.744,9.984 -8.27733,9.984 -0.32,0 -0.53334,-0.20267 -0.53334,-0.52267 0,-0.16 0,-0.26667 0.992,-1.22667 5.216,-5.248 8.256,-13.70666 8.256,-24.82133 0,-9.07733 -1.97333,-18.432 -8.576,-25.13067 -0.672,-0.62933 -0.672,-0.74666 -0.672,-0.896 0,-0.32 0.21334,-0.53333 0.53334,-0.53333 0.53333,0 5.29066,3.616 8.448,10.35733 2.69866,5.83467 3.328,11.73334 3.328,16.20267 z"
           inkscape:connector-curvature="0"
           style="fill:#000000;stroke-width:0" /><path
           id="path3121"
           d="m 670.22933,450.66667 h 0.14934 0.14933 0.16 l 0.0747,0.0107 h 0.0747 l 0.0853,0.0107 0.0747,0.0107 0.0747,0.0107 0.0747,0.0107 0.064,0.0107 0.0747,0.0213 0.0747,0.0213 0.064,0.0213 0.064,0.0213 0.064,0.032 0.0533,0.032 0.064,0.0427 0.0533,0.032 0.0427,0.0533 0.0533,0.0427 0.0427,0.0533 0.0213,0.032 0.0107,0.032 0.0213,0.0213 0.0107,0.032 0.0213,0.032 0.0107,0.0427 0.0107,0.032 0.0107,0.0427 0.0107,0.032 0.0107,0.0427 0.0107,0.0427 0.0107,0.0427 v 0.0427 0.0427 l 0.0107,0.0427 v 0.0533 c 0,1.06667 -1.024,1.06667 -1.74933,1.06667 h -31.84 c -0.74667,0 -1.74934,0 -1.74934,-1.06667 0,-1.04533 1.00267,-1.04533 1.80267,-1.04533 z"
           inkscape:connector-curvature="0"
           style="fill:#000000;stroke-width:0" /><path
           id="path3123"
           d="m 670.28267,440.34133 h 0.064 0.0747 l 0.13867,0.0107 h 0.14933 0.0747 l 0.0747,0.0107 0.0747,0.0107 h 0.0747 l 0.0747,0.0107 0.0747,0.0213 0.064,0.0107 0.0747,0.0213 0.064,0.0213 0.064,0.0213 0.064,0.0213 0.064,0.032 0.064,0.032 0.0533,0.0427 0.0533,0.0427 0.0427,0.0427 0.0533,0.0533 0.0213,0.0213 0.0213,0.032 0.0213,0.0213 0.0107,0.032 0.0213,0.032 0.0107,0.032 0.0213,0.032 0.0107,0.032 0.0107,0.0427 0.0107,0.032 0.0107,0.0427 0.0107,0.0427 0.0107,0.0427 0.0107,0.0427 v 0.0427 0.0427 l 0.0107,0.0533 v 0.0427 c 0,1.06667 -1.024,1.06667 -1.80267,1.06667 H 638.496 c -0.8,0 -1.80267,0 -1.80267,-1.06667 0,-1.06667 1.00267,-1.06667 1.74934,-1.06667 z"
           inkscape:connector-curvature="0"
           style="fill:#000000;stroke-width:0" /><path
           id="path3125"
           d="m 709.58933,453.36533 -0.0853,0.18134 -0.096,0.18133 -0.096,0.17067 -0.10667,0.17066 -0.10666,0.17067 -0.10667,0.17067 -0.11733,0.16 -0.10667,0.14933 -0.128,0.16 -0.11733,0.13867 -0.128,0.14933 -0.13867,0.13867 -0.13867,0.128 -0.13866,0.128 -0.13867,0.11733 -0.14933,0.11733 -0.16,0.11734 -0.14934,0.096 -0.17066,0.10666 -0.16,0.0853 -0.17067,0.0853 -0.17067,0.0853 -0.18133,0.064 -0.18133,0.0747 -0.192,0.0533 -0.192,0.0533 -0.20267,0.0427 -0.192,0.032 -0.21333,0.032 -0.21334,0.0213 -0.21333,0.0107 h -0.224 l 0.0533,-1.16266 c 3.456,0 4.20267,-4.352 4.20267,-4.66134 0,-0.34133 -0.10667,-0.65066 -0.14933,-0.91733 L 706.144,439.59467 c -0.26667,-0.94934 -0.26667,-1.04534 -1.06667,-1.96267 -2.336,-2.92267 -4.52266,-3.76533 -6.00533,-3.76533 -2.64533,0 -3.392,2.912 -3.392,4.992 0,2.656 1.696,9.184 2.912,11.63733 1.65333,3.136 4.05333,5.09867 6.16533,5.09867 l -0.0533,1.16266 c -6.208,0 -12.8,-7.79733 -12.8,-15.56266 0,-5.00267 2.92267,-8.50134 7.072,-8.50134 1.04533,0 3.712,0.224 6.90133,3.98934 0.42667,-2.24 2.28267,-3.98934 4.832,-3.98934 1.86667,0 3.08267,1.216 3.936,2.92267 0.896,1.90933 1.6,5.16267 1.6,5.25867 0,0.53333 -0.49066,0.53333 -0.64,0.53333 -0.53333,0 -0.576,-0.21333 -0.74666,-0.96 -0.896,-3.456 -1.86667,-6.58133 -4.032,-6.58133 -1.44,0 -1.6,1.376 -1.6,2.44266 0,1.17334 0.096,1.58934 0.68266,3.936 0.59734,2.22934 0.704,2.76267 1.184,4.77867 l 1.89867,7.43467 c 0.384,1.48266 0.384,1.6 0.384,1.80266 0,0.91734 -0.65067,1.45067 -1.54667,1.45067 -1.26933,0 -2.06933,-1.184 -2.24,-2.34667 z"
           inkscape:connector-curvature="0"
           style="fill:#000000;stroke-width:0" /></g>
    </g>
    <g
       style="stroke-width:1.31579"
       transform="matrix(1.0941741,0,0,1.0941741,418.62454,202.94709)"
       id="g3267">
      <g
         style="font-style:normal;font-variant:normal;font-weight:normal;font-stretch:normal;letter-spacing:normal;word-spacing:normal;text-anchor:start;fill:none;stroke:#000000;stroke-width:1.64474;stroke-linecap:butt;stroke-linejoin:miter;stroke-miterlimit:10.433;stroke-dasharray:none;stroke-dashoffset:0;stroke-opacity:1"
         id="g3269"
         transform="matrix(0.26142857,0,0,-0.26142857,-48.8,316.8)"
         xml:space="preserve"
         stroke-miterlimit="10.433"
         font-style="normal"
         font-variant="normal"
         font-weight="normal"
         font-stretch="normal"
         font-size-adjust="none"
         letter-spacing="normal"
         word-spacing="normal"><path
           style="fill:#000000;stroke-width:0"
           inkscape:connector-curvature="0"
           d="m 492.10667,444.864 v 0.40533 l 0.0107,0.384 0.0107,0.384 0.0213,0.37334 0.032,0.36266 0.032,0.36267 0.0427,0.34133 0.0427,0.34134 0.0533,0.33066 0.0533,0.32 0.0533,0.30934 0.064,0.30933 0.14933,0.58667 0.16,0.544 0.18133,0.52266 0.192,0.49067 0.20267,0.45867 0.224,0.42666 0.23467,0.40534 0.24533,0.37333 0.256,0.34133 0.26667,0.32 0.27733,0.29867 0.288,0.27733 0.288,0.24534 0.288,0.224 0.29867,0.20266 0.29866,0.17067 0.29867,0.16 0.30933,0.13867 0.29867,0.128 0.29867,0.096 0.29866,0.0853 0.288,0.064 0.29867,0.0533 0.27733,0.032 0.27734,0.0213 0.26666,0.0107 c 0.46934,0 3.81867,-0.0533 5.68534,-1.97333 -2.18667,-0.16 -2.496,-1.74933 -2.496,-2.44267 0,-1.38666 0.94933,-2.45333 2.44266,-2.45333 1.36534,0 2.432,0.91733 2.432,2.496 0,3.616 -4.032,5.68533 -8.128,5.68533 -6.63466,0 -11.53066,-5.728 -11.53066,-12.32 0,-6.79466 5.25866,-12.064 11.43466,-12.064 7.11467,0 8.81067,6.38934 8.81067,6.90134 0,0.53333 -0.53333,0.53333 -0.68267,0.53333 -0.48,0 -0.58666,-0.20267 -0.704,-0.53333 -1.52533,-4.928 -4.98133,-5.568 -6.944,-5.568 -2.816,0 -7.49866,2.28266 -7.49866,10.83733 z"
           id="path3271" /><path
           style="fill:#000000;stroke-width:0"
           inkscape:connector-curvature="0"
           d="m 534.47467,444.65067 -0.0213,0.62933 -0.0427,0.62933 -0.0747,0.61867 -0.10667,0.608 -0.128,0.59733 -0.16,0.58667 -0.192,0.576 -0.21333,0.56533 -0.23467,0.544 -0.256,0.53334 -0.288,0.52266 -0.30933,0.50134 -0.33067,0.49066 -0.352,0.46934 -0.36266,0.45866 -0.39467,0.42667 -0.40533,0.416 -0.42667,0.39467 -0.448,0.37333 -0.45867,0.34133 -0.48,0.33067 -0.49066,0.29867 -0.512,0.27733 -0.512,0.256 -0.53334,0.224 -0.544,0.192 -0.55466,0.17067 -0.56534,0.13866 -0.576,0.11734 -0.58666,0.0747 -0.59734,0.0533 -0.59733,0.0107 -0.0533,-1.16266 c 2.336,0 4.61866,-1.17334 6.00533,-3.456 1.38667,-2.28267 1.38667,-5.36534 1.38667,-7.38134 0,-1.92 0,-4.77866 -1.17334,-7.11466 -1.16266,-2.4 -3.49866,-3.936 -6.16533,-3.936 v 0 c -2.28267,0 -4.61867,1.12 -6.048,3.552 -1.33333,2.34666 -1.33333,5.57866 -1.33333,7.49866 0,2.06934 0,4.93867 1.26933,7.28534 1.45067,2.432 3.92533,3.552 6.05867,3.552 l 0.0533,1.16266 c -6.63467,0 -11.79733,-5.78133 -11.79733,-12.42666 0,-6.85867 5.536,-11.95734 11.744,-11.95734 6.44266,0 11.808,5.20534 11.808,11.95734 z"
           id="path3273" /><path
           style="fill:#000000;stroke-width:0"
           inkscape:connector-curvature="0"
           d="m 547.104,443.59467 0.128,-0.0213 0.128,-0.0213 0.14933,-0.032 0.17067,-0.0427 0.18133,-0.0427 0.192,-0.0427 0.20267,-0.0533 0.21333,-0.064 0.21334,-0.064 0.224,-0.0747 0.23466,-0.0853 0.23467,-0.0853 0.23467,-0.10666 0.23466,-0.10667 0.23467,-0.11733 0.23467,-0.128 0.224,-0.14934 0.23466,-0.14933 0.21334,-0.16 0.21333,-0.17067 0.20267,-0.192 0.192,-0.20266 0.18133,-0.21334 0.17067,-0.224 0.14933,-0.23466 0.064,-0.128 0.0747,-0.128 0.064,-0.13867 0.0533,-0.128 0.0533,-0.14933 0.0427,-0.13867 0.0427,-0.14933 0.0427,-0.14934 0.032,-0.16 0.032,-0.16 0.0213,-0.17066 0.0107,-0.16 0.0107,-0.18134 v -0.17066 c 0,-2.69867 -1.86667,-4.832 -5.99467,-4.832 -4.46933,0 -6.38933,3.02933 -7.40266,7.54133 -0.14934,0.68267 -0.20267,0.90667 -0.736,0.90667 -0.69334,0 -0.69334,-0.37334 -0.69334,-1.33334 v -7.01866 c 0,-0.896 0,-1.26934 0.576,-1.26934 0.26667,0 0.32,0.0533 1.33334,1.06667 0.10666,0.10667 0.10666,0.20267 1.06666,1.216 2.336,-2.22933 4.736,-2.28267 5.856,-2.28267 6.10134,0 8.544,3.57334 8.544,7.38134 0,2.816 -1.6,4.416 -2.22933,5.056 -1.74933,1.696 -3.84,2.13333 -6.06933,2.54933 -2.96534,0.58667 -6.528,1.28 -6.528,4.36267 0,1.856 1.376,4.032 5.94133,4.032 5.856,0 6.12267,-4.77867 6.21867,-6.432 0.064,-0.48 0.53333,-0.48 0.65066,-0.48 0.68267,0 0.68267,0.26666 0.68267,1.28 v 5.36533 c 0,0.90667 0,1.26933 -0.576,1.26933 -0.26667,0 -0.37333,0 -1.06667,-0.62933 -0.16,-0.224 -0.69333,-0.68267 -0.90666,-0.85333 -2.016,1.48266 -4.20267,1.48266 -5.00267,1.48266 -6.47467,0 -8.49067,-3.552 -8.49067,-6.528 0,-1.856 0.84267,-3.34933 2.28267,-4.52266 1.696,-1.376 3.2,-1.696 7.008,-2.432 z"
           id="path3275" /><path
           style="fill:#000000;stroke-width:0"
           inkscape:connector-curvature="0"
           d="m 574.63467,420.53333 v 0.0213 0.032 0.0107 l -0.0107,0.0213 v 0.0107 0.0213 l -0.0107,0.0107 -0.0107,0.0213 -0.0107,0.0213 -0.0107,0.0213 -0.0107,0.0213 -0.0107,0.032 -0.0213,0.0213 -0.0213,0.032 -0.0213,0.032 -0.0213,0.032 -0.032,0.032 -0.032,0.0427 -0.0107,0.0213 -0.0213,0.0213 -0.0213,0.0213 -0.0213,0.0213 -0.0107,0.0213 -0.0213,0.032 -0.032,0.0213 -0.0213,0.0213 -0.0213,0.032 -0.0213,0.0213 -0.032,0.032 -0.0213,0.032 -0.032,0.032 -0.032,0.032 -0.032,0.032 -0.032,0.032 -0.032,0.032 -0.032,0.032 -0.032,0.0427 -0.0427,0.032 -0.032,0.0427 -0.0427,0.032 -0.0427,0.0427 -0.032,0.0427 c -6.63467,6.69867 -8.34134,16.736 -8.34134,24.864 0,9.248 2.016,18.50667 8.55467,25.13067 0.68267,0.65066 0.68267,0.75733 0.68267,0.91733 0,0.37333 -0.20267,0.52267 -0.52267,0.52267 -0.53333,0 -5.312,-3.60534 -8.448,-10.34667 -2.70933,-5.856 -3.34933,-11.75467 -3.34933,-16.224 0,-4.14933 0.58666,-10.56 3.49866,-16.576 3.18934,-6.53867 7.76534,-9.984 8.29867,-9.984 0.32,0 0.52267,0.14933 0.52267,0.53333 z"
           id="path3277" /><path
           style="fill:#000000;stroke-width:0"
           inkscape:connector-curvature="0"
           d="m 601.83467,459.85067 v 0.33066 l -0.0107,0.36267 -0.0107,0.384 -0.032,0.39467 -0.032,0.416 -0.032,0.416 -0.0533,0.43733 -0.064,0.43733 -0.064,0.448 -0.0853,0.45867 -0.096,0.448 -0.10667,0.45867 -0.11733,0.448 -0.13867,0.448 -0.14933,0.43733 -0.17067,0.43733 -0.17067,0.42667 -0.20266,0.40533 -0.21334,0.39467 -0.23466,0.384 -0.24534,0.36267 -0.26666,0.34133 -0.288,0.32 -0.30934,0.288 -0.33066,0.26667 -0.18134,0.128 -0.17066,0.10666 -0.192,0.10667 -0.18134,0.10667 -0.20266,0.0853 -0.20267,0.0853 -0.20267,0.0747 -0.21333,0.064 -0.224,0.0533 -0.224,0.0533 -0.23467,0.032 -0.23466,0.0213 -0.24534,0.0213 H 595.456 l -0.0533,-1.16266 c 2.60266,0 2.92266,-3.40267 2.92266,-6.432 0,-2.60267 -0.42666,-5.32267 -1.70666,-10.58134 h -11.09334 c 0.896,3.41334 1.96267,7.65867 4.07467,11.43467 1.45067,2.592 3.40267,5.57867 5.80267,5.57867 l 0.0533,1.16266 c -7.38133,0 -15.56267,-14.976 -15.56267,-27.14666 0,-5.00267 1.52534,-10.90134 6.37867,-10.90134 v 1.17334 c -1.77067,0 -2.88,1.54666 -2.88,6.47466 0,2.24 0.30933,5.32267 1.696,10.51734 h 11.072 c -0.58667,-2.432 -1.70667,-6.944 -3.73333,-10.784 -1.856,-3.616 -3.872,-6.208 -6.15467,-6.208 v -1.17334 c 7.488,0 15.56267,15.25334 15.56267,27.15734 z"
           id="path3279" /><path
           style="fill:#000000;stroke-width:0"
           inkscape:connector-curvature="0"
           d="m 619.49867,446.56 v 0.39467 l -0.0107,0.416 v 0.416 l -0.0213,0.43733 -0.0427,0.896 -0.064,0.93867 -0.0853,0.98133 -0.11734,1.01333 -0.13866,1.03467 -0.17067,1.07733 -0.21333,1.088 -0.24534,1.09867 -0.288,1.12 -0.32,1.13067 -0.37333,1.14133 -0.416,1.14133 -0.23467,0.56534 -0.23466,0.56533 -0.256,0.56533 L 616,463.14667 c -3.17867,6.528 -7.75467,9.984 -8.288,9.984 -0.30933,0 -0.53333,-0.20267 -0.53333,-0.52267 0,-0.16 0,-0.26667 1.00266,-1.22667 5.216,-5.248 8.256,-13.70666 8.256,-24.82133 0,-9.07733 -1.97333,-18.432 -8.56533,-25.13067 -0.69333,-0.62933 -0.69333,-0.74666 -0.69333,-0.896 0,-0.32 0.224,-0.53333 0.53333,-0.53333 0.53333,0 5.30133,3.616 8.45867,10.35733 2.69866,5.83467 3.328,11.73334 3.328,16.20267 z"
           id="path3281" /><path
           style="fill:#000000;stroke-width:0"
           inkscape:connector-curvature="0"
           d="m 676.11733,450.66667 h 0.14934 0.14933 0.16 l 0.0747,0.0107 h 0.0747 l 0.0747,0.0107 0.0853,0.0107 0.0747,0.0107 0.0747,0.0107 0.064,0.0107 0.0747,0.0213 0.0747,0.0213 0.064,0.0213 0.064,0.0213 0.064,0.032 0.0533,0.032 0.064,0.0427 0.0533,0.032 0.0427,0.0533 0.0533,0.0427 0.0427,0.0533 0.0213,0.032 0.0107,0.032 0.0213,0.0213 0.0107,0.032 0.0213,0.032 0.0107,0.0427 0.0107,0.032 0.0107,0.0427 0.0107,0.032 0.0107,0.0427 0.0107,0.0427 0.0107,0.0427 v 0.0427 0.0427 l 0.0107,0.0427 v 0.0533 c 0,1.06667 -1.024,1.06667 -1.74933,1.06667 h -31.84 c -0.74667,0 -1.74934,0 -1.74934,-1.06667 0,-1.04533 1.00267,-1.04533 1.80267,-1.04533 z"
           id="path3283" /><path
           style="fill:#000000;stroke-width:0"
           inkscape:connector-curvature="0"
           d="m 676.17067,440.34133 h 0.064 0.0747 l 0.13867,0.0107 h 0.14933 0.0747 l 0.0747,0.0107 0.0747,0.0107 h 0.0747 l 0.0747,0.0107 0.0747,0.0213 0.064,0.0107 0.0747,0.0213 0.064,0.0213 0.064,0.0213 0.064,0.0213 0.064,0.032 0.064,0.032 0.0533,0.0427 0.0533,0.0427 0.0427,0.0427 0.0533,0.0533 0.0213,0.0213 0.0213,0.032 0.0213,0.0213 0.0107,0.032 0.0213,0.032 0.0107,0.032 0.0213,0.032 0.0107,0.032 0.0107,0.0427 0.0107,0.032 0.0107,0.0427 0.0107,0.0427 0.0107,0.0427 0.0107,0.0427 v 0.0427 0.0427 l 0.0107,0.0533 v 0.0427 c 0,1.06667 -1.024,1.06667 -1.80267,1.06667 H 644.384 c -0.8,0 -1.80267,0 -1.80267,-1.06667 0,-1.06667 1.00267,-1.06667 1.74934,-1.06667 z"
           id="path3285" /><path
           style="fill:#000000;stroke-width:0"
           inkscape:connector-curvature="0"
           d="m 708.36267,469.57867 v 0 0.0107 0 0.0107 0.0213 0.0107 0.0213 l -0.0107,0.0213 v 0.0213 0.0213 l -0.0107,0.0213 -0.0107,0.0213 v 0.0213 l -0.0107,0.032 -0.0107,0.0213 -0.0213,0.032 -0.0107,0.0213 -0.0213,0.032 -0.0107,0.0213 -0.0213,0.0213 -0.032,0.032 -0.0107,0.0107 -0.0107,0.0107 -0.0107,0.0107 -0.0213,0.0107 -0.0107,0.0107 -0.0213,0.0107 -0.0107,0.0107 -0.0213,0.0107 -0.0213,0.0107 -0.0213,0.0107 h -0.0107 L 708,470.112 l -0.0213,0.0107 h -0.032 l -0.0213,0.0107 -0.0213,0.0107 h -0.0213 -0.032 l -0.0213,0.0107 h -0.032 -0.032 l -0.0213,0.0107 h -0.032 -0.032 c -1.23733,0 -5.09867,-0.43733 -6.48533,-0.53333 -0.42667,-0.0533 -1.01334,-0.10667 -1.01334,-1.06667 0,-0.64 0.48,-0.64 1.28,-0.64 2.54934,0 2.64534,-0.36266 2.64534,-0.896 0,-0.384 -0.48,-2.18666 -0.74667,-3.296 l -4.352,-17.32266 c -0.62933,-2.66667 -0.84267,-3.52 -0.84267,-5.36534 0,-5.04533 2.816,-8.352 6.74134,-8.352 v 1.17334 c -1.81334,0 -3.56267,1.42933 -3.56267,5.36533 0,1.01333 0,2.016 0.85333,5.36533 l 1.16267,4.896 c 0.32,1.17334 0.32,1.26934 0.8,1.856 2.60267,3.44534 5.00267,4.24534 6.38933,4.24534 1.90934,0 3.34934,-1.57867 3.34934,-5.00267 0,-3.12533 -1.77067,-9.22667 -2.72,-11.264 -1.74934,-3.552 -4.20267,-5.46133 -6.272,-5.46133 v -1.17334 c 6.272,0 12.8,7.91467 12.8,15.57334 0,4.832 -2.80534,8.49066 -7.06134,8.49066 -2.432,0 -4.61866,-1.52533 -6.21866,-3.17866 z"
           id="path3287" /></g>
    </g>
    <path
       sodipodi:open="true"
       d="m 424.14032,450.24261 a 74.376778,74.376778 0 0 1 29.31744,56.65328"
       sodipodi:end="6.2488387"
       sodipodi:start="5.3624507"
       sodipodi:ry="74.376778"
       sodipodi:rx="74.376778"
       sodipodi:cy="509.44998"
       sodipodi:cx="379.12485"
       sodipodi:type="arc"
       id="path4769-0"
       style="fill:none;stroke:#1f77b4;stroke-width:2.66666675;stroke-linecap:round;stroke-linejoin:round;stroke-miterlimit:4;stroke-dasharray:none;stroke-dashoffset:0.80000001;stroke-opacity:1" />
    <path
       sodipodi:open="true"
       d="m 316.25551,469.70893 a 74.376778,74.376778 0 0 1 93.57211,-28.00291"
       sodipodi:end="5.1379157"
       sodipodi:start="3.7052965"
       sodipodi:ry="74.376778"
       sodipodi:rx="74.376778"
       sodipodi:cy="509.44998"
       sodipodi:cx="379.12485"
       sodipodi:type="arc"
       id="path4769-0-7"
       style="fill:none;stroke:#1f77b4;stroke-width:2.66666675;stroke-linecap:round;stroke-linejoin:round;stroke-miterlimit:4;stroke-dasharray:none;stroke-dashoffset:0.80000001;stroke-opacity:1" />
    <path
       style="fill:none;stroke:#1f77b4;stroke-width:1.83194017;stroke-linecap:butt;stroke-linejoin:miter;stroke-miterlimit:4;stroke-dasharray:none;stroke-opacity:1;marker-end:url(#Arrow2MendcH1002)"
       d="m 318.30666,466.52275 c -1.74918,2.88902 0,0 -3.50206,5.23116"
       id="path3227"
       inkscape:connector-curvature="0"
       sodipodi:nodetypes="cc" />
    <path
       style="fill:none;stroke:#1f77b4;stroke-width:1.83194017;stroke-linecap:butt;stroke-linejoin:miter;stroke-miterlimit:4;stroke-dasharray:none;stroke-opacity:1;marker-end:url(#Arrow2Mendc-4Q1902)"
       d="m 452.32853,499.29443 c 0.1175,3.28902 0.8,1.4 1.09794,8.56448"
       id="path3227-4"
       inkscape:connector-curvature="0"
       sodipodi:nodetypes="cc" />
    <path
       sodipodi:nodetypes="cc"
       inkscape:connector-curvature="0"
       id="path4583"
       d="M 291.62862,509.90797 H 496.42533"
       style="fill:none;stroke:#000000;stroke-width:1.83194017;stroke-linecap:butt;stroke-linejoin:miter;stroke-miterlimit:4;stroke-dasharray:none;stroke-opacity:1;marker-end:url(#Arrow2Mend)" />
    <path
       sodipodi:nodetypes="cc"
       style="fill:none;stroke:#000000;stroke-width:1;stroke-linecap:butt;stroke-linejoin:miter;stroke-miterlimit:4;stroke-dasharray:none;stroke-opacity:1;marker-start:url(#Arrow2Mstart-3)"
       d="M 317.88792,479.37537 342.01351,490.937"
       id="path4771-7"
       inkscape:connector-curvature="0" />
  </g>
</svg>
