<?xml version="1.0" encoding="UTF-8" standalone="no"?>
<svg
   inkscape:version="1.1 (c4e8f9ed74, 2021-05-24)"
   sodipodi:docname="underdamped_guess.svg"
   viewBox="0 0 329.63467 135.36595"
   height="135.36595"
   width="329.63467"
   xml:space="preserve"
   id="svg1045"
   version="1.1"
   xmlns:inkscape="http://www.inkscape.org/namespaces/inkscape"
   xmlns:sodipodi="http://sodipodi.sourceforge.net/DTD/sodipodi-0.dtd"
   xmlns="http://www.w3.org/2000/svg"
   xmlns:svg="http://www.w3.org/2000/svg"
   xmlns:rdf="http://www.w3.org/1999/02/22-rdf-syntax-ns#"
   xmlns:cc="http://creativecommons.org/ns#"
   xmlns:dc="http://purl.org/dc/elements/1.1/"><metadata
     id="metadata1051"><rdf:RDF><cc:Work
         rdf:about=""><dc:format>image/svg+xml</dc:format><dc:type
           rdf:resource="http://purl.org/dc/dcmitype/StillImage" /></cc:Work></rdf:RDF></metadata><defs
     id="defs1049"><marker
       style="overflow:visible"
       id="marker2472"
       refX="0"
       refY="0"
       orient="auto"
       inkscape:stockid="Arrow2Mend"
       inkscape:isstock="true"><path
         transform="scale(-0.6)"
         d="M 8.7185878,4.0337352 -2.2072895,0.01601326 8.7185884,-4.0017078 c -1.7454984,2.3720609 -1.7354408,5.6174519 -6e-7,8.035443 z"
         style="fill:context-stroke;fill-rule:evenodd;stroke-width:0.625;stroke-linejoin:round"
         id="path2470" /></marker><marker
       style="overflow:visible"
       id="Arrow2Mend"
       refX="0"
       refY="0"
       orient="auto"
       inkscape:stockid="Arrow2Mend"
       inkscape:isstock="true"><path
         transform="scale(-0.6)"
         d="M 8.7185878,4.0337352 -2.2072895,0.01601326 8.7185884,-4.0017078 c -1.7454984,2.3720609 -1.7354408,5.6174519 -6e-7,8.035443 z"
         style="fill:context-stroke;fill-rule:evenodd;stroke-width:0.625;stroke-linejoin:round"
         id="path2227" /></marker><clipPath
       id="clipPath1063"
       clipPathUnits="userSpaceOnUse"><path
         id="path1061"
         d="M 35.91,224.86 H 269.012 V 34.782 H 35.91 Z" /></clipPath><clipPath
       id="clipPath1073"
       clipPathUnits="userSpaceOnUse"><path
         id="path1071"
         d="M 35,68 H 270 V 203 H 35 Z" /></clipPath><clipPath
       id="clipPath1089"
       clipPathUnits="userSpaceOnUse"><path
         id="path1087"
         d="m 35,135 h 235 v 73 H 35 Z" /></clipPath><clipPath
       id="clipPath1105"
       clipPathUnits="userSpaceOnUse"><path
         id="path1103"
         d="m 35,53 h 235 v 72 H 35 Z" /></clipPath></defs><sodipodi:namedview
     fit-margin-bottom="0"
     fit-margin-right="0"
     fit-margin-left="0"
     fit-margin-top="0"
     inkscape:current-layer="g1053"
     inkscape:window-maximized="1"
     inkscape:window-y="0"
     inkscape:window-x="0"
     inkscape:cy="22.25"
     inkscape:cx="136.25"
     inkscape:zoom="2"
     showgrid="false"
     id="namedview1047"
     inkscape:window-height="1026"
     inkscape:window-width="1920"
     inkscape:pageshadow="2"
     inkscape:pageopacity="0"
     guidetolerance="10"
     gridtolerance="10"
     objecttolerance="10"
     borderopacity="1"
     bordercolor="#666666"
     pagecolor="#ffffff"
     inkscape:pagecheckerboard="0" /><g
     transform="matrix(1.3333333,0,0,-1.3333333,-32.14573,181.74061)"
     inkscape:label="underdamped"
     inkscape:groupmode="layer"
     id="g1053"><g
       id="g1055" /><path
       d="m 35.909799,97.614174 0.934227,7.172826 0.933276,6.24991 0.699721,3.94183 0.698771,3.21672 0.469012,1.70832 0.464265,1.34286 0.465214,0.97104 0.234506,0.34325 0.234506,0.24752 0.234506,0.15127 0.229759,0.0576 0.234506,-0.0391 0.234506,-0.13223 0.234506,-0.22742 0.230708,-0.31998 0.468063,-0.91339 0.465214,-1.26458 0.469012,-1.60307 0.698771,-2.99141 0.69972,-3.6282 0.933277,-5.66866 1.167783,-8.07406 3.964766,-28.735737 0.934226,-5.524273 0.698771,-3.532995 0.703518,-2.929531 0.464265,-1.58879 0.469012,-1.280975 0.465214,-0.966814 0.464265,-0.642604 0.234506,-0.198334 0.234506,-0.117414 0.234506,-0.03544 0.230708,0.04548 0.233557,0.125876 0.234506,0.206797 0.234506,0.285073 0.465214,0.801799 0.464265,1.105384 0.469012,1.38834 0.69972,2.58628 0.698771,3.125749 0.933277,4.87162 1.168733,6.921076 3.964765,24.525231 0.933277,4.693912 0.703518,2.99353 0.698771,2.47521 0.465214,1.33862 0.468063,1.07471 0.465214,0.80339 0.469012,0.52889 0.229759,0.1592 0.234506,0.0888 0.234506,0.0206 0.234506,-0.0497 0.230708,-0.11741 0.234506,-0.18617 0.464265,-0.57438 0.469012,-0.83671 0.469012,-1.08475 0.464265,-1.32435 0.69972,-2.39217 0.698771,-2.83063 0.934227,-4.332152 1.167783,-6.049462 3.265045,-17.469818 0.934226,-4.282435 0.698771,-2.807885 0.69972,-2.392706 0.702569,-1.933627 0.465214,-1.014414 0.469012,-0.786991 0.464265,-0.549518 0.234506,-0.188286 0.234506,-0.125876 0.230708,-0.06823 0.234506,-0.0079 0.233557,0.0513 0.234506,0.109481 0.230708,0.167658 0.469012,0.508265 0.464265,0.731457 0.469012,0.944072 0.465214,1.144521 0.698771,2.065851 0.703518,2.435545 0.92948,3.719166 1.167783,5.183137 3.265994,14.912627 0.933277,3.640361 0.703518,2.381599 0.698771,2.02724 0.69972,1.63005 0.464265,0.8531 0.469012,0.65477 0.465214,0.45643 0.233557,0.15126 0.234506,0.10102 0.23451,0.0497 h 0.2307 l 0.23451,-0.0518 0.23451,-0.10102 0.46426,-0.35119 0.46901,-0.54581 0.46522,-0.72934 0.46806,-0.90652 0.69972,-1.6676 0.69877,-1.997624 0.93423,-3.088727 1.16778,-4.359125 3.73026,-14.455664 0.93328,-2.987709 0.69972,-1.92305 0.70257,-1.605186 0.46521,-0.878489 0.46901,-0.714532 0.46427,-0.549518 0.46901,-0.376042 0.46521,-0.202566 0.23451,-0.03491 0.22976,0.0058 0.2345,0.05183 0.23451,0.09308 0.46521,0.312046 0.46807,0.477061 0.46521,0.636256 0.46901,0.786991 0.69877,1.440172 0.69972,1.718897 0.93328,2.655036 1.16778,3.735032 3.50051,11.646193 0.93327,2.631765 0.69877,1.71255 0.69972,1.452337 0.69877,1.15933 0.46902,0.60135 0.46521,0.456433 0.46806,0.309931 0.46522,0.162898 0.2345,0.02486 0.23451,-0.01216 0.22976,-0.04972 0.46901,-0.204681 0.46521,-0.349069 0.46902,-0.487638 0.46426,-0.617745 0.70352,-1.156686 0.69877,-1.404736 0.93423,-2.200189 1.16398,-3.136327 3.96857,-11.191346 0.93327,-2.15682 0.69972,-1.382522 0.69877,-1.146637 0.46902,-0.623563 0.46426,-0.504563 0.46901,-0.379744 0.46522,-0.256513 0.46426,-0.127991 0.46901,-0.0021 0.46522,0.12429 0.46806,0.247521 0.46521,0.365993 0.46902,0.481291 0.46426,0.590772 0.69972,1.072063 0.70257,1.275158 0.93423,1.958486 1.16398,2.74336 3.49955,8.482892 0.93423,1.902952 0.69877,1.233375 0.70352,1.037157 0.69877,0.824542 0.46521,0.423113 0.46902,0.318393 0.46426,0.208383 0.46901,0.103663 0.46427,-0.0085 0.46901,-0.113711 0.46521,-0.218961 0.46902,-0.31998 0.46426,-0.419411 0.69972,-0.799684 0.69877,-0.985325 0.70352,-1.148752 0.93328,-1.733178 1.39849,-2.88669 2.56627,-5.367192 0.93328,-1.723129 0.93423,-1.49359 0.69877,-0.936138 0.69972,-0.757901 0.46806,-0.398785 0.46521,-0.30993 0.46902,-0.218961 0.46426,-0.125877 0.46901,-0.03332 0.46522,0.05818 0.46806,0.150734 0.46521,0.237473 0.46522,0.322095 0.46806,0.403015 0.69972,0.747853 0.69877,0.898587 0.93423,1.394687 1.16778,1.976996 3.73406,6.59475 0.93422,1.37406 0.69878,0.886422 0.69877,0.741506 0.69972,0.586541 0.46901,0.297766 0.46426,0.218961 0.46902,0.140156 0.46521,0.06453 0.46806,-0.01904 0.46522,-0.09467 0.46521,-0.171889 0.46806,-0.243291 0.46522,-0.316277 0.70257,-0.599234 0.69972,-0.733572 0.93327,-1.154571 1.16399,-1.657017 2.10201,-3.252154 1.39849,-2.086478 0.93328,-1.247655 0.93422,-1.076294 0.69877,-0.669577 0.70352,-0.538941 0.69877,-0.398784 0.46522,-0.181939 0.46806,-0.115827 0.46521,-0.0476 0.46902,0.01851 0.46426,0.08674 0.46901,0.151263 0.46522,0.21473 0.69877,0.433691 0.70352,0.555866 0.69877,0.667461 0.93422,1.028694 1.16399,1.452336 3.73406,4.803393 0.93327,0.991672 0.69972,0.638372 0.70257,0.531007 0.69972,0.41518 0.69877,0.29142 0.46522,0.12376 0.46901,0.064 0.46426,0.0085 0.46902,-0.04972 0.46521,-0.10525 0.46806,-0.161312 0.69972,-0.33849 0.69877,-0.446385 0.69972,-0.545287 0.93328,-0.853102 1.16778,-1.219095 4.19928,-4.580201 0.93422,-0.810262 0.69877,-0.509852 0.69877,-0.417295 0.70352,-0.314162 0.69972,-0.206796 0.46427,-0.07828 0.46901,-0.02697 0.46426,0.02274 0.46902,0.07034 0.69972,0.194103 0.69877,0.293535 0.69972,0.386091 0.69877,0.469127 0.93328,0.733043 1.16873,1.045619 4.19927,3.909038 0.93328,0.685972 0.69877,0.433691 0.70351,0.351184 0.69878,0.264446 0.69972,0.173477 0.69877,0.07669 0.69972,-0.01693 0.70257,-0.10948 0.69972,-0.20045 0.69877,-0.280842 0.69972,-0.359646 0.93327,-0.580194"
       style="fill:none;stroke:#1f77b4;stroke-width:1.07182;stroke-linecap:square;stroke-linejoin:round;stroke-miterlimit:4;stroke-dasharray:none;stroke-opacity:1"
       id="path1079"
       sodipodi:nodetypes="ccccccccccccccccccccccccccccccccccccccccccccccccccccccccccccccccccccccccccccccccccccccccccccccccccccccccccccccccccccccccccccccccccccccccccccccccccccccccccccccccccccccccccccccccccccccccccccccccccccccccccccccccccccccccccccccccccccccccccccccccccccccccccccccccccccccccccccccccccccccccccccccccccccc" /><path
       d="M 35.91,34.780998 H 269.012"
       style="fill:none;stroke:#000000;stroke-width:0.75;stroke-linecap:butt;stroke-linejoin:round;stroke-miterlimit:4;stroke-dasharray:none;stroke-opacity:1;marker-end:url(#marker2472)"
       id="path1255"
       transform="translate(0,50.427928)" /><path
       d="M 35.91,34.780998 V 135.31218"
       style="fill:none;stroke:#000000;stroke-width:0.75;stroke-linecap:butt;stroke-linejoin:round;stroke-miterlimit:4;stroke-dasharray:none;stroke-opacity:1;marker-end:url(#Arrow2Mend)"
       id="path1257" /><path
       d="m 143.93881,18.935548 h 1.2712 c 0.2688,0 0.4064,0 0.4064,0.2752 0,0.1464 -0.1376,0.1464 -0.3776,0.1464 h -1.1944 c 0.488,1.9288 0.5536,2.2 0.5536,2.2784 0,0.2312 -0.1592,0.3688 -0.388,0.3688 -0.0432,0 -0.4216,-0.0128 -0.5432,-0.4904 l -0.528,-2.1568 h -1.2784 c -0.272,0 -0.4064,0 -0.4064,-0.2528 0,-0.1688 0.1096,-0.1688 0.3816,-0.1688 h 1.1904 c -0.9752,-3.8464 -1.028,-4.0752 -1.028,-4.3216 0,-0.7312 0.5128,-1.2472 1.2464,-1.2472 1.3816,0 2.1536,1.9784 2.1536,2.088 0,0.1344 -0.1064,0.1344 -0.1592,0.1344 -0.1256,0 -0.1376,-0.0408 -0.2032,-0.1912 -0.5848,-1.4064 -1.3032,-1.7312 -1.7624,-1.7312 -0.2848,0 -0.4224,0.1752 -0.4224,0.6224 0,0.3248 0.0256,0.4216 0.0816,0.6496 z"
       style="fill:#000000;fill-opacity:1;fill-rule:nonzero;stroke:none;stroke-width:1.20889"
       id="path1263"
       transform="matrix(0.8272,0,0,0.8272,150.5218,61.662821)" /><path
       d="m 13.38544,85.895472 0.0056,0.0376 0.0128,0.0408 0.0096,0.0432 0.012,0.0472 0.016,0.0528 0.0152,0.0568 0.016,0.0592 0.0184,0.0592 0.0224,0.0624 0.0248,0.0656 0.028,0.0688 0.028,0.0656 0.028,0.0688 0.0344,0.0688 0.0344,0.0656 0.0376,0.0688 0.0816,0.1312 0.0464,0.0624 0.0504,0.0592 0.0464,0.06 0.0568,0.056 0.056,0.0496 0.0592,0.0504 0.0624,0.044 0.1032,0.056 0.0344,0.016 0.0376,0.0152 0.0344,0.0128 0.0408,0.012 0.0376,0.0128 0.0408,0.006 0.04,0.009 0.0408,0.006 0.044,0.006 h 0.0872 c 0.0656,0 0.3912,0 0.6752,-0.172 -0.3784,-0.0688 -0.6504,-0.4088 -0.6504,-0.7344 0,-0.212 0.1472,-0.4744 0.5128,-0.4744 0.3,0 0.7312,0.2432 0.7312,0.7872 0,0.7064 -0.8,0.8904 -1.2592,0.8904 -0.7848,0 -1.2624,-0.7184 -1.4216,-1.028 -0.3408,0.8936 -1.072,1.028 -1.4632,1.028 -1.412,0 -2.1872002,-1.7464 -2.1872002,-2.0872 0,-0.1344 0.1376,-0.1344 0.1656,-0.1344 0.1064,0 0.1504,0.028 0.1752002,0.1496 0.4592,1.4376 1.356,1.7752 1.8184,1.7752 0.2568,0 0.728,-0.1184 0.728,-0.9064 0,-0.4184 -0.228,-1.328 -0.728,-3.2248 -0.2184,-0.8408 -0.6936,-1.4096 -1.2904,-1.4096 -0.0816,0 -0.3936,0 -0.6752002,0.1752 0.3408002,0.0656 0.6376002,0.3504 0.6376002,0.7312 0,0.3656 -0.2968,0.472 -0.5032002,0.472 -0.4064,0 -0.7464,-0.3504 -0.7464,-0.7872 0,-0.6192 0.6808,-0.8912 1.2720002,-0.8912 0.8992,0 1.384,0.9504 1.428,1.028 0.1592,-0.5 0.6496,-1.028 1.4592,-1.028 1.4,0 2.1752,1.7472 2.1752,2.088 0,0.1344 -0.1224,0.1344 -0.1656,0.1344 -0.1192,0 -0.1504,-0.0536 -0.1752,-0.1472 -0.4472,-1.4496 -1.3688,-1.7752 -1.8032,-1.7752 -0.5312,0 -0.7504,0.4312 -0.7504,0.8936 0,0.3 0.0848,0.5976 0.2344,1.1944 z"
       style="fill:#000000;fill-opacity:1;fill-rule:nonzero;stroke:none;stroke-width:1.20889"
       id="path1265"
       transform="matrix(0.8272,0,0,0.8272,17.04265,63.011963)" /></g></svg>
