<?xml version="1.0" encoding="UTF-8" standalone="no"?>
<svg
   xmlns:dc="http://purl.org/dc/elements/1.1/"
   xmlns:cc="http://creativecommons.org/ns#"
   xmlns:rdf="http://www.w3.org/1999/02/22-rdf-syntax-ns#"
   xmlns:svg="http://www.w3.org/2000/svg"
   xmlns="http://www.w3.org/2000/svg"
   xmlns:xlink="http://www.w3.org/1999/xlink"
   xmlns:sodipodi="http://sodipodi.sourceforge.net/DTD/sodipodi-0.dtd"
   xmlns:inkscape="http://www.inkscape.org/namespaces/inkscape"
   inkscape:export-ydpi="109.89197"
   inkscape:export-xdpi="109.89197"
   inkscape:export-filename="/home/cyd/jupyter/MH2801/img/wave_velocity.png"
   width="110.94533mm"
   height="34.145599mm"
   viewBox="0 0 110.94533 34.1456"
   version="1.1"
   id="svg8"
   inkscape:version="1.0 (4035a4fb49, 2020-05-01)"
   sodipodi:docname="wave_velocity.svg">
  <defs
     id="defs2">
    <marker
       inkscape:isstock="true"
       style="overflow:visible"
       id="Arrow2Mend"
       refX="0"
       refY="0"
       orient="auto"
       inkscape:stockid="Arrow2Mend">
      <path
         transform="scale(-0.6)"
         d="M 8.7185878,4.0337352 -2.2072895,0.01601326 8.7185884,-4.0017078 c -1.7454984,2.3720609 -1.7354408,5.6174519 -6e-7,8.035443 z"
         style="fill:#808080;fill-opacity:1;fill-rule:evenodd;stroke:#808080;stroke-width:0.625;stroke-linejoin:round;stroke-opacity:1"
         id="path1363" />
    </marker>
    <marker
       inkscape:stockid="Arrow2Mend"
       orient="auto"
       refY="0"
       refX="0"
       id="marker1618"
       style="overflow:visible"
       inkscape:isstock="true">
      <path
         id="path1616"
         style="fill:#000000;fill-opacity:1;fill-rule:evenodd;stroke:#000000;stroke-width:0.625;stroke-linejoin:round;stroke-opacity:1"
         d="M 8.7185878,4.0337352 -2.2072895,0.01601326 8.7185884,-4.0017078 c -1.7454984,2.3720609 -1.7354408,5.6174519 -6e-7,8.035443 z"
         transform="scale(-0.6)" />
    </marker>
    <marker
       inkscape:stockid="Arrow2Mend"
       orient="auto"
       refY="0"
       refX="0"
       id="marker1608"
       style="overflow:visible"
       inkscape:isstock="true">
      <path
         id="path1606"
         style="fill:#000000;fill-opacity:1;fill-rule:evenodd;stroke:#000000;stroke-width:0.625;stroke-linejoin:round;stroke-opacity:1"
         d="M 8.7185878,4.0337352 -2.2072895,0.01601326 8.7185884,-4.0017078 c -1.7454984,2.3720609 -1.7354408,5.6174519 -6e-7,8.035443 z"
         transform="scale(-0.6)" />
    </marker>
    <clipPath
       id="cp00576432">
      <polygon
         points="0,0 0,432 576,432 576,0 "
         id="polygon1000" />
    </clipPath>
    <g
       id="g6735">
      <symbol
         id="symbol1045"
         overflow="visible">
        <path
           id="path5363"
           d=""
           style="stroke:none" />
      </symbol>
      <symbol
         id="symbol900"
         overflow="visible">
        <path
           id="path8680"
           d="m 3.65625,-3.984375 h 0.859375 c 0.203125,0 0.296875,0 0.296875,-0.203125 0,-0.109375 -0.09375,-0.109375 -0.265625,-0.109375 H 3.71875 L 3.921875,-5.4375 c 0.046875,-0.203125 0.1875,-0.90625 0.25,-1.03125 0.078125,-0.1875 0.25,-0.34375 0.46875,-0.34375 0.03125,0 0.296875,0 0.484375,0.1875 -0.4375,0.03125 -0.546875,0.390625 -0.546875,0.53125 0,0.234375 0.1875,0.359375 0.375,0.359375 C 5.21875,-5.734375 5.5,-5.96875 5.5,-6.34375 c 0,-0.453125 -0.453125,-0.6875 -0.859375,-0.6875 -0.34375,0 -0.96875,0.1875 -1.265625,1.171875 -0.0625,0.203125 -0.09375,0.3125 -0.328125,1.5625 h -0.6875 c -0.203125,0 -0.3125,0 -0.3125,0.1875 0,0.125 0.09375,0.125 0.28125,0.125 h 0.65625 L 2.25,-0.046875 c -0.1875,0.96875 -0.359375,1.875 -0.875,1.875 -0.046875,0 -0.28125,0 -0.484375,-0.1875 C 1.359375,1.609375 1.453125,1.25 1.453125,1.109375 1.453125,0.875 1.265625,0.75 1.078125,0.75 0.8125,0.75 0.53125,0.984375 0.53125,1.359375 c 0,0.4375 0.4375,0.6875 0.84375,0.6875 0.546875,0 0.953125,-0.59375 1.125,-0.96875 0.328125,-0.625 0.546875,-1.828125 0.5625,-1.90625 z m 0,0"
           style="stroke:none" />
      </symbol>
    </g>
    <g
       id="g4975">
      <symbol
         id="symbol1493"
         overflow="visible">
        <path
           id="path689"
           d=""
           style="stroke:none" />
      </symbol>
      <symbol
         id="symbol3262"
         overflow="visible">
        <path
           id="path6639"
           d="M 3.328125,-3.015625 C 3.390625,-3.265625 3.625,-4.1875 4.3125,-4.1875 c 0.046875,0 0.296875,0 0.5,0.125 C 4.53125,-4 4.34375,-3.765625 4.34375,-3.515625 c 0,0.15625 0.109375,0.34375 0.375,0.34375 0.21875,0 0.53125,-0.171875 0.53125,-0.578125 0,-0.515625 -0.578125,-0.65625 -0.921875,-0.65625 -0.578125,0 -0.921875,0.53125 -1.046875,0.75 -0.25,-0.65625 -0.78125,-0.75 -1.078125,-0.75 -1.03125,0 -1.609375,1.28125 -1.609375,1.53125 0,0.109375 0.109375,0.109375 0.125,0.109375 0.078125,0 0.109375,-0.03125 0.125,-0.109375 0.34375,-1.0625 1,-1.3125 1.34375,-1.3125 0.1875,0 0.53125,0.09375 0.53125,0.671875 0,0.3125 -0.171875,0.96875 -0.53125,2.375 -0.15625,0.609375 -0.515625,1.03125 -0.953125,1.03125 -0.0625,0 -0.28125,0 -0.5,-0.125 0.25,-0.0625 0.46875,-0.265625 0.46875,-0.546875 0,-0.265625 -0.21875,-0.34375 -0.359375,-0.34375 -0.3125,0 -0.546875,0.25 -0.546875,0.578125 0,0.453125 0.484375,0.65625 0.921875,0.65625 0.671875,0 1.03125,-0.703125 1.046875,-0.75 0.125,0.359375 0.484375,0.75 1.078125,0.75 1.03125,0 1.59375,-1.28125 1.59375,-1.53125 0,-0.109375 -0.078125,-0.109375 -0.109375,-0.109375 -0.09375,0 -0.109375,0.046875 -0.140625,0.109375 -0.328125,1.078125 -1,1.3125 -1.3125,1.3125 -0.390625,0 -0.546875,-0.3125 -0.546875,-0.65625 0,-0.21875 0.046875,-0.4375 0.15625,-0.875 z m 0,0"
           style="stroke:none" />
      </symbol>
    </g>
    <g
       id="g1818">
      <symbol
         id="symbol7260"
         overflow="visible">
        <path
           id="path9824"
           d=""
           style="stroke:none" />
      </symbol>
      <symbol
         id="symbol3402"
         overflow="visible">
        <path
           id="path3323"
           d="m 3.65625,-3.984375 h 0.859375 c 0.203125,0 0.296875,0 0.296875,-0.203125 0,-0.109375 -0.09375,-0.109375 -0.265625,-0.109375 H 3.71875 L 3.921875,-5.4375 c 0.046875,-0.203125 0.1875,-0.90625 0.25,-1.03125 0.078125,-0.1875 0.25,-0.34375 0.46875,-0.34375 0.03125,0 0.296875,0 0.484375,0.1875 -0.4375,0.03125 -0.546875,0.390625 -0.546875,0.53125 0,0.234375 0.1875,0.359375 0.375,0.359375 C 5.21875,-5.734375 5.5,-5.96875 5.5,-6.34375 c 0,-0.453125 -0.453125,-0.6875 -0.859375,-0.6875 -0.34375,0 -0.96875,0.1875 -1.265625,1.171875 -0.0625,0.203125 -0.09375,0.3125 -0.328125,1.5625 h -0.6875 c -0.203125,0 -0.3125,0 -0.3125,0.1875 0,0.125 0.09375,0.125 0.28125,0.125 h 0.65625 L 2.25,-0.046875 c -0.1875,0.96875 -0.359375,1.875 -0.875,1.875 -0.046875,0 -0.28125,0 -0.484375,-0.1875 C 1.359375,1.609375 1.453125,1.25 1.453125,1.109375 1.453125,0.875 1.265625,0.75 1.078125,0.75 0.8125,0.75 0.53125,0.984375 0.53125,1.359375 c 0,0.4375 0.4375,0.6875 0.84375,0.6875 0.546875,0 0.953125,-0.59375 1.125,-0.96875 0.328125,-0.625 0.546875,-1.828125 0.5625,-1.90625 z m 0,0"
           style="stroke:none" />
      </symbol>
      <symbol
         id="symbol9859"
         overflow="visible">
        <path
           id="path7321"
           d="M 3.328125,-3.015625 C 3.390625,-3.265625 3.625,-4.1875 4.3125,-4.1875 c 0.046875,0 0.296875,0 0.5,0.125 C 4.53125,-4 4.34375,-3.765625 4.34375,-3.515625 c 0,0.15625 0.109375,0.34375 0.375,0.34375 0.21875,0 0.53125,-0.171875 0.53125,-0.578125 0,-0.515625 -0.578125,-0.65625 -0.921875,-0.65625 -0.578125,0 -0.921875,0.53125 -1.046875,0.75 -0.25,-0.65625 -0.78125,-0.75 -1.078125,-0.75 -1.03125,0 -1.609375,1.28125 -1.609375,1.53125 0,0.109375 0.109375,0.109375 0.125,0.109375 0.078125,0 0.109375,-0.03125 0.125,-0.109375 0.34375,-1.0625 1,-1.3125 1.34375,-1.3125 0.1875,0 0.53125,0.09375 0.53125,0.671875 0,0.3125 -0.171875,0.96875 -0.53125,2.375 -0.15625,0.609375 -0.515625,1.03125 -0.953125,1.03125 -0.0625,0 -0.28125,0 -0.5,-0.125 0.25,-0.0625 0.46875,-0.265625 0.46875,-0.546875 0,-0.265625 -0.21875,-0.34375 -0.359375,-0.34375 -0.3125,0 -0.546875,0.25 -0.546875,0.578125 0,0.453125 0.484375,0.65625 0.921875,0.65625 0.671875,0 1.03125,-0.703125 1.046875,-0.75 0.125,0.359375 0.484375,0.75 1.078125,0.75 1.03125,0 1.59375,-1.28125 1.59375,-1.53125 0,-0.109375 -0.078125,-0.109375 -0.109375,-0.109375 -0.09375,0 -0.109375,0.046875 -0.140625,0.109375 -0.328125,1.078125 -1,1.3125 -1.3125,1.3125 -0.390625,0 -0.546875,-0.3125 -0.546875,-0.65625 0,-0.21875 0.046875,-0.4375 0.15625,-0.875 z m 0,0"
           style="stroke:none" />
      </symbol>
      <symbol
         id="symbol3519"
         overflow="visible">
        <path
           id="path3520"
           d="m 2.03125,-0.015625 c 0,-0.65625 -0.25,-1.046875 -0.640625,-1.046875 -0.328125,0 -0.53125,0.25 -0.53125,0.53125 C 0.859375,-0.265625 1.0625,0 1.390625,0 1.5,0 1.640625,-0.046875 1.734375,-0.125 1.765625,-0.15625 1.78125,-0.15625 1.78125,-0.15625 c 0.015625,0 0.015625,0 0.015625,0.140625 0,0.75 -0.34375,1.34375 -0.671875,1.671875 -0.109375,0.109375 -0.109375,0.125 -0.109375,0.15625 0,0.078125 0.046875,0.109375 0.09375,0.109375 0.109375,0 0.921875,-0.765625 0.921875,-1.9375 z m 0,0"
           style="stroke:none" />
      </symbol>
      <symbol
         id="symbol4618"
         overflow="visible">
        <path
           id="path3114"
           d="m 2.046875,-3.984375 h 0.9375 c 0.203125,0 0.3125,0 0.3125,-0.203125 0,-0.109375 -0.109375,-0.109375 -0.28125,-0.109375 h -0.875 C 2.5,-5.71875 2.546875,-5.90625 2.546875,-5.96875 c 0,-0.171875 -0.125,-0.265625 -0.296875,-0.265625 -0.03125,0 -0.3125,0 -0.390625,0.359375 L 1.46875,-4.296875 h -0.9375 c -0.203125,0 -0.296875,0 -0.296875,0.1875 0,0.125 0.078125,0.125 0.28125,0.125 h 0.875 C 0.671875,-1.15625 0.625,-0.984375 0.625,-0.8125 0.625,-0.265625 1,0.109375 1.546875,0.109375 2.5625,0.109375 3.125,-1.34375 3.125,-1.421875 3.125,-1.53125 3.046875,-1.53125 3.015625,-1.53125 2.921875,-1.53125 2.90625,-1.5 2.859375,-1.390625 2.4375,-0.34375 1.90625,-0.109375 1.5625,-0.109375 c -0.203125,0 -0.3125,-0.125 -0.3125,-0.453125 0,-0.25 0.03125,-0.3125 0.0625,-0.484375 z m 0,0"
           style="stroke:none" />
      </symbol>
      <symbol
         id="symbol6947"
         overflow="visible">
        <path
           id="path6411"
           d=""
           style="stroke:none" />
      </symbol>
      <symbol
         id="symbol2269"
         overflow="visible">
        <path
           id="path8224"
           d="m 3.296875,2.390625 c 0,-0.03125 0,-0.046875 -0.171875,-0.21875 C 1.890625,0.921875 1.5625,-0.96875 1.5625,-2.5 c 0,-1.734375 0.375,-3.46875 1.609375,-4.703125 0.125,-0.125 0.125,-0.140625 0.125,-0.171875 0,-0.078125 -0.03125,-0.109375 -0.09375,-0.109375 -0.109375,0 -1,0.6875 -1.59375,1.953125 -0.5,1.09375 -0.625,2.203125 -0.625,3.03125 0,0.78125 0.109375,1.984375 0.65625,3.125 C 2.25,1.84375 3.09375,2.5 3.203125,2.5 c 0.0625,0 0.09375,-0.03125 0.09375,-0.109375 z m 0,0"
           style="stroke:none" />
      </symbol>
      <symbol
         id="symbol9798"
         overflow="visible">
        <path
           id="path5157"
           d="m 2.875,-2.5 c 0,-0.765625 -0.109375,-1.96875 -0.65625,-3.109375 -0.59375,-1.21875 -1.453125,-1.875 -1.546875,-1.875 -0.0625,0 -0.109375,0.046875 -0.109375,0.109375 0,0.03125 0,0.046875 0.1875,0.234375 0.984375,0.984375 1.546875,2.5625 1.546875,4.640625 0,1.71875 -0.359375,3.46875 -1.59375,4.71875 C 0.5625,2.34375 0.5625,2.359375 0.5625,2.390625 0.5625,2.453125 0.609375,2.5 0.671875,2.5 0.765625,2.5 1.671875,1.8125 2.25,0.546875 2.765625,-0.546875 2.875,-1.65625 2.875,-2.5 Z m 0,0"
           style="stroke:none" />
      </symbol>
    </g>
    <g
       id="g8012">
      <symbol
         id="symbol3079"
         overflow="visible">
        <path
           id="path41"
           d=""
           style="stroke:none" />
      </symbol>
      <symbol
         id="symbol592"
         overflow="visible">
        <path
           id="path8990"
           d="m 3.65625,-3.984375 h 0.859375 c 0.203125,0 0.296875,0 0.296875,-0.203125 0,-0.109375 -0.09375,-0.109375 -0.265625,-0.109375 H 3.71875 L 3.921875,-5.4375 c 0.046875,-0.203125 0.1875,-0.90625 0.25,-1.03125 0.078125,-0.1875 0.25,-0.34375 0.46875,-0.34375 0.03125,0 0.296875,0 0.484375,0.1875 -0.4375,0.03125 -0.546875,0.390625 -0.546875,0.53125 0,0.234375 0.1875,0.359375 0.375,0.359375 C 5.21875,-5.734375 5.5,-5.96875 5.5,-6.34375 c 0,-0.453125 -0.453125,-0.6875 -0.859375,-0.6875 -0.34375,0 -0.96875,0.1875 -1.265625,1.171875 -0.0625,0.203125 -0.09375,0.3125 -0.328125,1.5625 h -0.6875 c -0.203125,0 -0.3125,0 -0.3125,0.1875 0,0.125 0.09375,0.125 0.28125,0.125 h 0.65625 L 2.25,-0.046875 c -0.1875,0.96875 -0.359375,1.875 -0.875,1.875 -0.046875,0 -0.28125,0 -0.484375,-0.1875 C 1.359375,1.609375 1.453125,1.25 1.453125,1.109375 1.453125,0.875 1.265625,0.75 1.078125,0.75 0.8125,0.75 0.53125,0.984375 0.53125,1.359375 c 0,0.4375 0.4375,0.6875 0.84375,0.6875 0.546875,0 0.953125,-0.59375 1.125,-0.96875 0.328125,-0.625 0.546875,-1.828125 0.5625,-1.90625 z m 0,0"
           style="stroke:none" />
      </symbol>
      <symbol
         id="symbol1676"
         overflow="visible">
        <path
           id="path5424"
           d="M 3.328125,-3.015625 C 3.390625,-3.265625 3.625,-4.1875 4.3125,-4.1875 c 0.046875,0 0.296875,0 0.5,0.125 C 4.53125,-4 4.34375,-3.765625 4.34375,-3.515625 c 0,0.15625 0.109375,0.34375 0.375,0.34375 0.21875,0 0.53125,-0.171875 0.53125,-0.578125 0,-0.515625 -0.578125,-0.65625 -0.921875,-0.65625 -0.578125,0 -0.921875,0.53125 -1.046875,0.75 -0.25,-0.65625 -0.78125,-0.75 -1.078125,-0.75 -1.03125,0 -1.609375,1.28125 -1.609375,1.53125 0,0.109375 0.109375,0.109375 0.125,0.109375 0.078125,0 0.109375,-0.03125 0.125,-0.109375 0.34375,-1.0625 1,-1.3125 1.34375,-1.3125 0.1875,0 0.53125,0.09375 0.53125,0.671875 0,0.3125 -0.171875,0.96875 -0.53125,2.375 -0.15625,0.609375 -0.515625,1.03125 -0.953125,1.03125 -0.0625,0 -0.28125,0 -0.5,-0.125 0.25,-0.0625 0.46875,-0.265625 0.46875,-0.546875 0,-0.265625 -0.21875,-0.34375 -0.359375,-0.34375 -0.3125,0 -0.546875,0.25 -0.546875,0.578125 0,0.453125 0.484375,0.65625 0.921875,0.65625 0.671875,0 1.03125,-0.703125 1.046875,-0.75 0.125,0.359375 0.484375,0.75 1.078125,0.75 1.03125,0 1.59375,-1.28125 1.59375,-1.53125 0,-0.109375 -0.078125,-0.109375 -0.109375,-0.109375 -0.09375,0 -0.109375,0.046875 -0.140625,0.109375 -0.328125,1.078125 -1,1.3125 -1.3125,1.3125 -0.390625,0 -0.546875,-0.3125 -0.546875,-0.65625 0,-0.21875 0.046875,-0.4375 0.15625,-0.875 z m 0,0"
           style="stroke:none" />
      </symbol>
      <symbol
         id="symbol9260"
         overflow="visible">
        <path
           id="path6259"
           d="m 2.03125,-0.015625 c 0,-0.65625 -0.25,-1.046875 -0.640625,-1.046875 -0.328125,0 -0.53125,0.25 -0.53125,0.53125 C 0.859375,-0.265625 1.0625,0 1.390625,0 1.5,0 1.640625,-0.046875 1.734375,-0.125 1.765625,-0.15625 1.78125,-0.15625 1.78125,-0.15625 c 0.015625,0 0.015625,0 0.015625,0.140625 0,0.75 -0.34375,1.34375 -0.671875,1.671875 -0.109375,0.109375 -0.109375,0.125 -0.109375,0.15625 0,0.078125 0.046875,0.109375 0.09375,0.109375 0.109375,0 0.921875,-0.765625 0.921875,-1.9375 z m 0,0"
           style="stroke:none" />
      </symbol>
      <symbol
         id="symbol5093"
         overflow="visible">
        <path
           id="path3975"
           d="m 2.046875,-3.984375 h 0.9375 c 0.203125,0 0.3125,0 0.3125,-0.203125 0,-0.109375 -0.109375,-0.109375 -0.28125,-0.109375 h -0.875 C 2.5,-5.71875 2.546875,-5.90625 2.546875,-5.96875 c 0,-0.171875 -0.125,-0.265625 -0.296875,-0.265625 -0.03125,0 -0.3125,0 -0.390625,0.359375 L 1.46875,-4.296875 h -0.9375 c -0.203125,0 -0.296875,0 -0.296875,0.1875 0,0.125 0.078125,0.125 0.28125,0.125 h 0.875 C 0.671875,-1.15625 0.625,-0.984375 0.625,-0.8125 0.625,-0.265625 1,0.109375 1.546875,0.109375 2.5625,0.109375 3.125,-1.34375 3.125,-1.421875 3.125,-1.53125 3.046875,-1.53125 3.015625,-1.53125 2.921875,-1.53125 2.90625,-1.5 2.859375,-1.390625 2.4375,-0.34375 1.90625,-0.109375 1.5625,-0.109375 c -0.203125,0 -0.3125,-0.125 -0.3125,-0.453125 0,-0.25 0.03125,-0.3125 0.0625,-0.484375 z m 0,0"
           style="stroke:none" />
      </symbol>
      <symbol
         id="symbol754"
         overflow="visible">
        <path
           id="path2792"
           d="M 2.625,-4.359375 C 1.390625,-4.0625 0.421875,-2.765625 0.421875,-1.5625 0.421875,-0.59375 1.0625,0.125 2,0.125 c 1.15625,0 1.984375,-1.578125 1.984375,-2.953125 0,-0.90625 -0.390625,-1.40625 -0.734375,-1.84375 C 2.890625,-5.125 2.296875,-5.875 2.296875,-6.3125 c 0,-0.21875 0.203125,-0.453125 0.546875,-0.453125 0.3125,0 0.5,0.125 0.71875,0.265625 0.203125,0.125 0.390625,0.25 0.546875,0.25 C 4.359375,-6.25 4.5,-6.484375 4.5,-6.65625 4.5,-6.875 4.34375,-6.890625 3.984375,-6.984375 3.46875,-7.09375 3.328125,-7.09375 3.171875,-7.09375 c -0.78125,0 -1.140625,0.4375 -1.140625,1.03125 0,0.546875 0.296875,1.09375 0.59375,1.703125 z m 0.125,0.21875 c 0.25,0.46875 0.546875,1 0.546875,1.71875 0,0.65625 -0.375,2.328125 -1.296875,2.328125 -0.546875,0 -0.96875,-0.421875 -0.96875,-1.1875 0,-0.625 0.375,-2.5 1.71875,-2.859375 z m 0,0"
           style="stroke:none" />
      </symbol>
      <symbol
         id="symbol3479"
         overflow="visible">
        <path
           id="path8053"
           d=""
           style="stroke:none" />
      </symbol>
      <symbol
         id="symbol135"
         overflow="visible">
        <path
           id="path2826"
           d="m 3.296875,2.390625 c 0,-0.03125 0,-0.046875 -0.171875,-0.21875 C 1.890625,0.921875 1.5625,-0.96875 1.5625,-2.5 c 0,-1.734375 0.375,-3.46875 1.609375,-4.703125 0.125,-0.125 0.125,-0.140625 0.125,-0.171875 0,-0.078125 -0.03125,-0.109375 -0.09375,-0.109375 -0.109375,0 -1,0.6875 -1.59375,1.953125 -0.5,1.09375 -0.625,2.203125 -0.625,3.03125 0,0.78125 0.109375,1.984375 0.65625,3.125 C 2.25,1.84375 3.09375,2.5 3.203125,2.5 c 0.0625,0 0.09375,-0.03125 0.09375,-0.109375 z m 0,0"
           style="stroke:none" />
      </symbol>
      <symbol
         id="symbol9416"
         overflow="visible">
        <path
           id="path9071"
           d="m 4.078125,-2.296875 h 2.78125 C 7,-2.296875 7.1875,-2.296875 7.1875,-2.5 7.1875,-2.6875 7,-2.6875 6.859375,-2.6875 h -2.78125 v -2.796875 c 0,-0.140625 0,-0.328125 -0.203125,-0.328125 -0.203125,0 -0.203125,0.1875 -0.203125,0.328125 V -2.6875 h -2.78125 c -0.140625,0 -0.328125,0 -0.328125,0.1875 0,0.203125 0.1875,0.203125 0.328125,0.203125 h 2.78125 V 0.5 c 0,0.140625 0,0.328125 0.203125,0.328125 0.203125,0 0.203125,-0.1875 0.203125,-0.328125 z m 0,0"
           style="stroke:none" />
      </symbol>
      <symbol
         id="symbol8173"
         overflow="visible">
        <path
           id="path1807"
           d="m 2.875,-2.5 c 0,-0.765625 -0.109375,-1.96875 -0.65625,-3.109375 -0.59375,-1.21875 -1.453125,-1.875 -1.546875,-1.875 -0.0625,0 -0.109375,0.046875 -0.109375,0.109375 0,0.03125 0,0.046875 0.1875,0.234375 0.984375,0.984375 1.546875,2.5625 1.546875,4.640625 0,1.71875 -0.359375,3.46875 -1.59375,4.71875 C 0.5625,2.34375 0.5625,2.359375 0.5625,2.390625 0.5625,2.453125 0.609375,2.5 0.671875,2.5 0.765625,2.5 1.671875,1.8125 2.25,0.546875 2.765625,-0.546875 2.875,-1.65625 2.875,-2.5 Z m 0,0"
           style="stroke:none" />
      </symbol>
    </g>
    <g
       id="g8089">
      <symbol
         id="symbol3169"
         overflow="visible">
        <path
           id="path5065"
           d=""
           style="stroke:none" />
      </symbol>
      <symbol
         id="symbol2062"
         overflow="visible">
        <path
           id="path2215"
           d="M 2.625,-4.359375 C 1.390625,-4.0625 0.421875,-2.765625 0.421875,-1.5625 0.421875,-0.59375 1.0625,0.125 2,0.125 c 1.15625,0 1.984375,-1.578125 1.984375,-2.953125 0,-0.90625 -0.390625,-1.40625 -0.734375,-1.84375 C 2.890625,-5.125 2.296875,-5.875 2.296875,-6.3125 c 0,-0.21875 0.203125,-0.453125 0.546875,-0.453125 0.3125,0 0.5,0.125 0.71875,0.265625 0.203125,0.125 0.390625,0.25 0.546875,0.25 C 4.359375,-6.25 4.5,-6.484375 4.5,-6.65625 4.5,-6.875 4.34375,-6.890625 3.984375,-6.984375 3.46875,-7.09375 3.328125,-7.09375 3.171875,-7.09375 c -0.78125,0 -1.140625,0.4375 -1.140625,1.03125 0,0.546875 0.296875,1.09375 0.59375,1.703125 z m 0.125,0.21875 c 0.25,0.46875 0.546875,1 0.546875,1.71875 0,0.65625 -0.375,2.328125 -1.296875,2.328125 -0.546875,0 -0.96875,-0.421875 -0.96875,-1.1875 0,-0.625 0.375,-2.5 1.71875,-2.859375 z m 0,0"
           style="stroke:none" />
      </symbol>
      <symbol
         id="symbol5218"
         overflow="visible">
        <path
           id="path3213"
           d="M 3.328125,-3.015625 C 3.390625,-3.265625 3.625,-4.1875 4.3125,-4.1875 c 0.046875,0 0.296875,0 0.5,0.125 C 4.53125,-4 4.34375,-3.765625 4.34375,-3.515625 c 0,0.15625 0.109375,0.34375 0.375,0.34375 0.21875,0 0.53125,-0.171875 0.53125,-0.578125 0,-0.515625 -0.578125,-0.65625 -0.921875,-0.65625 -0.578125,0 -0.921875,0.53125 -1.046875,0.75 -0.25,-0.65625 -0.78125,-0.75 -1.078125,-0.75 -1.03125,0 -1.609375,1.28125 -1.609375,1.53125 0,0.109375 0.109375,0.109375 0.125,0.109375 0.078125,0 0.109375,-0.03125 0.125,-0.109375 0.34375,-1.0625 1,-1.3125 1.34375,-1.3125 0.1875,0 0.53125,0.09375 0.53125,0.671875 0,0.3125 -0.171875,0.96875 -0.53125,2.375 -0.15625,0.609375 -0.515625,1.03125 -0.953125,1.03125 -0.0625,0 -0.28125,0 -0.5,-0.125 0.25,-0.0625 0.46875,-0.265625 0.46875,-0.546875 0,-0.265625 -0.21875,-0.34375 -0.359375,-0.34375 -0.3125,0 -0.546875,0.25 -0.546875,0.578125 0,0.453125 0.484375,0.65625 0.921875,0.65625 0.671875,0 1.03125,-0.703125 1.046875,-0.75 0.125,0.359375 0.484375,0.75 1.078125,0.75 1.03125,0 1.59375,-1.28125 1.59375,-1.53125 0,-0.109375 -0.078125,-0.109375 -0.109375,-0.109375 -0.09375,0 -0.109375,0.046875 -0.140625,0.109375 -0.328125,1.078125 -1,1.3125 -1.3125,1.3125 -0.390625,0 -0.546875,-0.3125 -0.546875,-0.65625 0,-0.21875 0.046875,-0.4375 0.15625,-0.875 z m 0,0"
           style="stroke:none" />
      </symbol>
    </g>
    <marker
       inkscape:stockid="Arrow2Mend"
       orient="auto"
       refY="0"
       refX="0"
       id="Arrow2Mend-3"
       style="overflow:visible"
       inkscape:isstock="true">
      <path
         id="path1363-5"
         style="fill:#808080;fill-opacity:1;fill-rule:evenodd;stroke:#808080;stroke-width:0.625;stroke-linejoin:round;stroke-opacity:1"
         d="M 8.7185878,4.0337352 -2.2072895,0.01601326 8.7185884,-4.0017078 c -1.7454984,2.3720609 -1.7354408,5.6174519 -6e-7,8.035443 z"
         transform="scale(-0.6)" />
    </marker>
  </defs>
  <sodipodi:namedview
     fit-margin-bottom="0"
     fit-margin-right="0"
     fit-margin-left="0"
     fit-margin-top="0"
     inkscape:window-maximized="1"
     inkscape:window-y="0"
     inkscape:window-x="0"
     inkscape:window-height="1026"
     inkscape:window-width="1920"
     showgrid="false"
     inkscape:document-rotation="0"
     inkscape:current-layer="layer1"
     inkscape:document-units="mm"
     inkscape:cy="22.821876"
     inkscape:cx="96.145604"
     inkscape:zoom="1"
     inkscape:pageshadow="2"
     inkscape:pageopacity="0.0"
     borderopacity="1.0"
     bordercolor="#666666"
     pagecolor="#ffffff"
     id="base" />
  <metadata
     id="metadata5">
    <rdf:RDF>
      <cc:Work
         rdf:about="">
        <dc:format>image/svg+xml</dc:format>
        <dc:type
           rdf:resource="http://purl.org/dc/dcmitype/StillImage" />
        <dc:title></dc:title>
      </cc:Work>
    </rdf:RDF>
  </metadata>
  <g
     transform="translate(-55.395441,-105.95399)"
     id="layer1"
     inkscape:groupmode="layer"
     inkscape:label="Layer 1">
    <path
       sodipodi:nodetypes="ccccccccccccccccccccccccccccccccccccccccccccccccccccccccccccccccccccccccccccccccccccccccccccccccccccccccccccccccccccccccccccccccccccccccccccccccccccccccccccccccccccccccccccccccccccccccccccccccccccccccccccccccccccccccccccccccccccccccccccccccccccccccccccccccccccccccccccccccccccccccccccccccc"
       id="polyline1101-3"
       style="fill:none;stroke:#00b5bc;stroke-width:0.330729;stroke-linecap:butt;stroke-linejoin:round;stroke-miterlimit:4;stroke-dasharray:0.992188, 0.992188;stroke-dashoffset:0;stroke-opacity:1"
       d="m 60.636651,126.64698 0.297634,-1.27855 0.297614,-1.26573 0.297634,-1.24013 0.297634,-1.20206 0.297634,-1.15188 0.297634,-1.09018 0.297614,-1.01746 0.297634,-0.93451 0.297634,-0.84216 0.297634,-0.74135 0.297614,-0.63308 0.297634,-0.51844 0.297634,-0.39859 0.297634,-0.27473 0.297634,-0.1481 0.297614,-0.02 0.297713,0.10833 0.297634,0.23556 0.297634,0.36042 0.297634,0.48164 0.297634,0.59804 0.297435,0.7084 0.297634,0.81166 0.297634,0.90673 0.297634,0.99271 0.297634,1.06865 0.297634,1.1339 0.297634,1.18778 0.297634,1.22954 0.297634,1.25912 0.297634,1.27595 0.297634,1.27994 0.297634,1.27109 0.297634,1.24948 0.297634,1.21519 0.297634,1.16878 0.297634,1.11063 0.297634,1.04116 0.297634,0.9614 0.297634,0.87185 0.297634,0.77354 0.297634,0.66752 0.297634,0.55477 0.297634,0.43636 0.297634,0.3136 0.297634,0.18773 0.297633,0.06 0.297634,-0.0684 0.297634,-0.19614 0.297634,-0.32194 0.297634,-0.44434 0.297634,-0.56239 0.297634,-0.67477 0.297634,-0.78035 0.297634,-0.87808 0.297634,-0.96699 0.297634,-1.04617 0.297634,-1.11483 0.297634,-1.17219 0.297634,-1.21787 0.297634,-1.25129 0.297634,-1.27211 0.297634,-1.28008 0.297435,-1.27522 0.297634,-1.25753 0.297634,-1.22723 0.297634,-1.18451 0.297634,-1.12991 0.297634,-1.06393 0.297634,-0.98729 0.297634,-0.9007 0.297634,-0.80504 0.297634,-0.70129 0.297634,-0.59048 0.297634,-0.47374 0.297634,-0.35223 0.297634,-0.22717 0.297634,-0.0998 0.297634,0.0285 0.297634,0.15657 0.297634,0.28305 0.297634,0.40668 0.297634,0.52622 0.297634,0.64048 0.297634,0.74829 0.297634,0.84856 0.297634,0.94032 0.297633,1.02264 0.297635,1.0946 0.297632,1.15558 0.297635,1.20497 0.297633,1.24223 0.297635,1.26695 0.297632,1.27893 0.297641,1.27812 0.297629,1.26442 0.29763,1.23803 0.297641,1.19908 0.297629,1.14812 0.297641,1.08568 0.29763,1.01223 0.297629,0.92871 0.297641,0.83574 0.29763,0.73437 0.29764,0.62562 0.29763,0.51068 0.297629,0.39046 0.29744,0.2664 0.29763,0.13958 0.29764,0.0115 0.29763,-0.11688 0.29763,-0.24392 0.29764,-0.36857 0.29763,-0.48951 0.29764,-0.6056 0.29763,-0.71545 0.29763,-0.81827 0.29764,-0.91275 0.29763,-0.99802 0.29764,-1.07336 0.29763,-1.13781 0.29763,-1.1909 0.29764,-1.23193 0.297633,-1.26065 0.29764,-1.2766 0.29763,-1.2798 0.29763,-1.27 0.29764,-1.2476 0.29763,-1.2125 0.29764,-1.1653 0.29763,-1.10627 0.29763,-1.03624 0.297643,-0.95572 0.29763,-0.86559 0.29764,-0.76677 0.29763,-0.66022 0.29763,-0.54703 0.29764,-0.42836 0.29763,-0.30535 0.29764,-0.17929 0.29763,-0.0514 0.29763,0.077 0.29764,0.20458 0.29763,0.33013 0.29764,0.45237 0.29763,0.57005 0.29763,0.682 0.29764,0.78709 0.29763,0.88426 0.29744,0.97257 0.29763,1.05103 0.29763,1.11896 0.29764,1.1756 0.29763,1.22048 0.29764,1.25303 0.29763,1.27305 0.29763,1.28016 0.29764,1.27442 0.29763,1.25594 0.29764,1.22476 0.29763,1.18125 0.29763,1.12592 0.29764,1.05915 0.29763,0.98185 0.29764,0.89462 0.29763,0.7984 0.29763,0.69413 0.29764,0.58291 0.29763,0.4658 0.29764,0.34406 0.29763,0.21876 0.29763,0.0913 0.29764,-0.037 0.29763,-0.16504 0.29764,-0.29141 0.29763,-0.41475 0.29763,-0.53396 0.29764,-0.64788 0.29763,-0.75518 0.29764,-0.85489 0.29763,-0.9461 0.29763,-1.02768 0.29764,-1.09902 0.29763,-1.15928 0.29764,-1.20779 0.29763,-1.24427 0.29763,-1.26811 0.29764,-1.27936 0.29763,-1.27762 0.29764,-1.26304 0.29763,-1.23578 0.29763,-1.19604 0.29764,-1.14442 0.29743,-1.08111 0.29764,-1.007 0.29763,-0.92277 0.29763,-0.82925 0.29764,-0.72738 0.29763,-0.6182 0.29764,-0.50281 0.29763,-0.38235 0.29763,-0.25805 0.29764,-0.13115 0.29763,-0.003 0.29764,0.12531 0.29763,0.2523 0.29763,0.37674 0.29764,0.49741 0.29763,0.61306 0.29764,0.72255 0.29763,0.82476 0.29763,0.91869 0.29764,1.00336 0.29763,1.07799 0.29764,1.14174 0.29763,1.19394 0.29763,1.23425 0.29764,1.2621 0.29763,1.27719 0.29764,1.27957 0.29763,1.26891 0.29763,1.24564 0.29764,1.20975 0.29763,1.16168 0.29764,1.10199 0.29763,1.03123 0.29763,0.95002 0.29764,0.85931 0.29763,0.7599 0.29764,0.65287 0.29763,0.53933 0.29763,0.42034 0.29764,0.29707 0.29763,0.17083 0.29764,0.0429 0.29763,-0.0855 0.29743,-0.21303 0.29764,-0.33833 0.29763,-0.46037 0.29764,-0.57768 0.29763,-0.6892 0.29763,-0.79376 0.29764,-0.89042 0.29763,-0.97808 0.29764,-1.05588 0.29763,-1.1231 0.29763,-1.17893 0.29764,-1.22302 0.29763,-1.25477 0.29764,-1.27392 0.29763,-1.28016 0.29763,-1.27362 0.29764,-1.25427 0.29763,-1.22222 0.29764,-1.17792 0.29763,-1.12179 0.29763,-1.05443 0.29764,-0.97632 0.29763,-0.8885 0.29764,-0.79171 0.29763,-0.68696 0.29763,-0.57531 0.29764,-0.45784 0.29763,-0.33581 0.29764,-0.21037 0.29763,-0.0828 0.29763,0.0456 0.29764,0.17348 0.29763,0.29965 0.29764,0.42281 0.29763,0.54173 0.29763,0.65518 0.29764,0.76206 0.29763,0.86126 0.29764,0.9518 0.29763,1.03279 0.29763,1.1033 0.29764,1.16284 0.29743,1.21062 0.29764,1.24622 0.29763,1.26935 0.29763,1.27957 0.29764,1.27704 0.29763,1.26166 0.29764,1.23353 0.29763,1.193 0.29763,1.1405 0.29764,1.07655" />
    <path
       sodipodi:nodetypes="ccccccccccccccccccccccccccccccccccccccccccccccccccccccccccccccccccccccccccccccccccccccccccccccccccccccccccccccccccccccccccccccccccccccccccccccccccccccccccccccccccccccccccccccccccccccccccccccccccccccccccccccccccccccccccccccccccccccccccccccccccccccccccccccccccccccccccccccccccccccccccccccccc"
       d="m 60.56822,115.24989 0.297634,-0.51844 0.297634,-0.39859 0.297634,-0.27473 0.297634,-0.1481 0.297614,-0.02 0.297713,0.10833 0.297634,0.23556 0.297634,0.36042 0.297634,0.48164 0.297634,0.59804 0.297435,0.7084 0.297634,0.81166 0.297634,0.90673 0.297634,0.99271 0.297634,1.06865 0.297634,1.1339 0.297634,1.18778 0.297634,1.22954 0.297634,1.25912 0.297634,1.27595 0.297634,1.27994 0.297634,1.27109 0.297634,1.24948 0.297634,1.21519 0.297634,1.16878 0.297634,1.11063 0.297634,1.04116 0.297634,0.9614 0.297634,0.87185 0.297634,0.77354 0.297634,0.66752 0.297634,0.55477 0.297634,0.43636 0.297634,0.3136 0.297634,0.18773 0.297633,0.06 0.297634,-0.0684 0.297634,-0.19614 0.297634,-0.32194 0.297634,-0.44434 0.297634,-0.56239 0.297634,-0.67477 0.297634,-0.78035 0.297634,-0.87808 0.297634,-0.96699 0.297634,-1.04617 0.297634,-1.11483 0.297634,-1.17219 0.297634,-1.21787 0.297634,-1.25129 0.297634,-1.27211 0.297634,-1.28008 0.297435,-1.27522 0.297634,-1.25753 0.297634,-1.22723 0.297634,-1.18451 0.297634,-1.12991 0.297634,-1.06393 0.297634,-0.98729 0.297634,-0.9007 0.297634,-0.80504 0.297634,-0.70129 0.297634,-0.59048 0.297634,-0.47374 0.297634,-0.35223 0.297634,-0.22717 0.297634,-0.0998 0.297634,0.0285 0.297634,0.15657 0.297634,0.28305 0.297634,0.40668 0.297634,0.52622 0.297634,0.64048 0.297634,0.74829 0.297634,0.84856 0.297634,0.94032 0.297633,1.02264 0.297634,1.0946 0.297634,1.15558 0.297634,1.20497 0.297634,1.24223 0.297634,1.26695 0.297632,1.27893 0.29764,1.27812 0.29763,1.26442 0.29763,1.23803 0.29764,1.19908 0.29763,1.14812 0.29764,1.08568 0.29763,1.01223 0.29763,0.92871 0.29764,0.83574 0.29763,0.73437 0.29764,0.62562 0.29763,0.51068 0.29763,0.39046 0.29744,0.2664 0.29763,0.13958 0.29764,0.0115 0.29763,-0.11688 0.29763,-0.24392 0.29764,-0.36857 0.29763,-0.48951 0.29764,-0.6056 0.29763,-0.71545 0.29763,-0.81827 0.29764,-0.91275 0.29763,-0.99802 0.29764,-1.07336 0.29763,-1.13781 0.29763,-1.1909 0.29764,-1.23193 0.29763,-1.26065 0.29764,-1.2766 0.29763,-1.2798 0.29763,-1.27 0.29764,-1.2476 0.29763,-1.2125 0.29764,-1.1653 0.29763,-1.10627 0.29763,-1.03624 0.29764,-0.95572 0.29763,-0.86559 0.29764,-0.76677 0.29763,-0.66022 0.29763,-0.54703 0.29764,-0.42836 0.29763,-0.30535 0.29764,-0.17929 0.29763,-0.0514 0.29763,0.077 0.29764,0.20458 0.297631,0.33013 0.29764,0.45237 0.29763,0.57005 0.29763,0.682 0.29764,0.78709 0.29763,0.88426 0.29744,0.97257 0.29763,1.05103 0.29763,1.11896 0.29764,1.1756 0.29763,1.22048 0.29764,1.25303 0.29763,1.27305 0.29763,1.28016 0.29764,1.27442 0.29763,1.25594 0.29764,1.22476 0.29763,1.18125 0.29763,1.12592 0.29764,1.05915 0.29763,0.98185 0.29764,0.89462 0.29763,0.7984 0.29763,0.69413 0.29764,0.58291 0.29763,0.4658 0.29764,0.34406 0.29763,0.21876 0.29763,0.0913 0.29764,-0.037 0.29763,-0.16504 0.29764,-0.29141 0.29763,-0.41475 0.29763,-0.53396 0.29764,-0.64788 0.29763,-0.75518 0.29764,-0.85489 0.29763,-0.9461 0.29763,-1.02768 0.29764,-1.09902 0.29763,-1.15928 0.29764,-1.20779 0.29763,-1.24427 0.29763,-1.26811 0.29764,-1.27936 0.29763,-1.27762 0.29764,-1.26304 0.29763,-1.23578 0.29763,-1.19604 0.29764,-1.14442 0.29743,-1.08111 0.29764,-1.007 0.29763,-0.92277 0.29763,-0.82925 0.29764,-0.72738 0.29763,-0.6182 0.29764,-0.50281 0.29763,-0.38235 0.29763,-0.25805 0.29764,-0.13115 0.29763,-0.003 0.29764,0.12531 0.29763,0.2523 0.29763,0.37674 0.29764,0.49741 0.29763,0.61306 0.29764,0.72255 0.29763,0.82476 0.29763,0.91869 0.29764,1.00336 0.29763,1.07799 0.29764,1.14174 0.29763,1.19394 0.29763,1.23425 0.29764,1.2621 0.29763,1.27719 0.29764,1.27957 0.29763,1.26891 0.29763,1.24564 0.29764,1.20975 0.29763,1.16168 0.29764,1.10199 0.29763,1.03123 0.29763,0.95002 0.29764,0.85931 0.29763,0.7599 0.29764,0.65287 0.29763,0.53933 0.29763,0.42034 0.29764,0.29707 0.29763,0.17083 0.29764,0.0429 0.29763,-0.0855 0.29743,-0.21303 0.29764,-0.33833 0.29763,-0.46037 0.29764,-0.57768 0.29763,-0.6892 0.29763,-0.79376 0.29764,-0.89042 0.29763,-0.97808 0.29764,-1.05588 0.29763,-1.1231 0.29763,-1.17893 0.29764,-1.22302 0.29763,-1.25477 0.29764,-1.27392 0.29763,-1.28016 0.29763,-1.27362 0.29764,-1.25427 0.29763,-1.22222 0.29764,-1.17792 0.29763,-1.12179 0.29763,-1.05443 0.29764,-0.97632 0.29763,-0.8885 0.29764,-0.79171 0.29763,-0.68696 0.29763,-0.57531 0.29764,-0.45784 0.29763,-0.33581 0.29764,-0.21037 0.29763,-0.0828 0.29763,0.0456 0.29764,0.17348 0.29763,0.29965 0.29764,0.42281 0.29763,0.54173 0.29763,0.65518 0.29764,0.76206 0.29763,0.86126 0.29764,0.9518 0.29763,1.03279 0.29763,1.1033 0.29764,1.16284 0.29743,1.21062 0.29764,1.24622 0.29763,1.26935 0.29763,1.27957 0.29764,1.27704 0.29763,1.26166 0.29764,1.23353 0.29763,1.193 0.29763,1.1405 0.29764,1.07655 0.29763,1.00172 0.29764,0.91681 0.29763,0.82276 0.29763,0.72038 0.29764,0.61068 0.29763,0.49495 0.29764,0.37422 0.29763,0.24972 0.29763,0.12261 0.29764,-0.006 0.29763,-0.13378"
       style="fill:none;stroke:#0071bc;stroke-width:0.33073;stroke-linecap:butt;stroke-linejoin:round;stroke-miterlimit:4;stroke-dasharray:none"
       id="polyline1101" />
    <path
       sodipodi:nodetypes="cc"
       id="path1332"
       d="M 57.794744,126.64698 H 163.93766"
       style="fill:none;stroke:#000000;stroke-width:0.264583px;stroke-linecap:butt;stroke-linejoin:miter;stroke-opacity:1;marker-end:url(#marker1618)" />
    <path
       sodipodi:nodetypes="cc"
       id="path1334"
       d="M 59.671158,140.09959 V 107.48206"
       style="fill:none;stroke:#000000;stroke-width:0.264583px;stroke-linecap:butt;stroke-linejoin:miter;stroke-opacity:1;marker-end:url(#marker1608)" />
    <g
       style="stroke-width:2.25471"
       inkscape:label=""
       transform="matrix(0.44351518,0,0,0.44351518,14.389689,72.720624)"
       id="g1696">
      <g
         style="stroke-width:2.25471"
         id="g7230">
        <g
           id="g81"
           style="fill:#000000;fill-opacity:1;stroke-width:2.25471">
          <use
             style="stroke-width:2.25471"
             height="100%"
             width="100%"
             id="use3420"
             y="81.962997"
             x="91.925003"
             xlink:href="#symbol900" />
        </g>
      </g>
    </g>
    <g
       style="stroke-width:2.25471"
       inkscape:label=""
       transform="matrix(0.44351518,0,0,0.44351518,122.66144,94.470314)"
       id="g1750">
      <g
         style="stroke-width:2.25471"
         id="g4890">
        <g
           id="g7705"
           style="fill:#000000;fill-opacity:1;stroke-width:2.25471">
          <use
             style="stroke-width:2.25471"
             height="100%"
             width="100%"
             id="use2730"
             y="81.962997"
             x="91.925003"
             xlink:href="#symbol3262" />
        </g>
      </g>
    </g>
    <g
       style="fill:#00538a;fill-opacity:1;stroke-width:2.25471"
       inkscape:label=""
       transform="matrix(0.44351518,0,0,0.44351518,98.865326,73.007003)"
       id="g1822">
      <g
         style="fill:#00538a;fill-opacity:1;stroke-width:2.25471"
         id="g4682">
        <g
           id="g9963"
           style="fill:#00538a;fill-opacity:1;stroke-width:2.25471">
          <use
             style="fill:#00538a;fill-opacity:1;stroke-width:2.25471"
             height="100%"
             width="100%"
             id="use7359"
             y="81.962997"
             x="91.925003"
             xlink:href="#symbol3402" />
        </g>
        <g
           id="g6490"
           style="fill:#00538a;fill-opacity:1;stroke-width:2.25471">
          <use
             style="fill:#00538a;fill-opacity:1;stroke-width:2.25471"
             height="100%"
             width="100%"
             id="use1247"
             y="81.962997"
             x="97.875"
             xlink:href="#symbol2269" />
        </g>
        <g
           id="g1679"
           style="fill:#00538a;fill-opacity:1;stroke-width:2.25471">
          <use
             style="fill:#00538a;fill-opacity:1;stroke-width:2.25471"
             height="100%"
             width="100%"
             id="use6801"
             y="81.962997"
             x="101.75"
             xlink:href="#symbol9859" />
          <use
             style="fill:#00538a;fill-opacity:1;stroke-width:2.25471"
             height="100%"
             width="100%"
             id="use4350"
             y="81.962997"
             x="107.44363"
             xlink:href="#symbol3519" />
        </g>
        <g
           id="g1980"
           style="fill:#00538a;fill-opacity:1;stroke-width:2.25471">
          <use
             style="fill:#00538a;fill-opacity:1;stroke-width:2.25471"
             height="100%"
             width="100%"
             id="use1542"
             y="81.962997"
             x="111.87499"
             xlink:href="#symbol4618" />
        </g>
        <g
           id="g2341"
           style="fill:#00538a;fill-opacity:1;stroke-width:2.25471">
          <use
             style="fill:#00538a;fill-opacity:1;stroke-width:2.25471"
             height="100%"
             width="100%"
             id="use4288"
             y="81.962997"
             x="115.469"
             xlink:href="#symbol9798" />
        </g>
      </g>
    </g>
    <g
       style="fill:#00898f;fill-opacity:1;stroke-width:2.25471"
       inkscape:label=""
       transform="matrix(0.44351518,0,0,0.44351518,104.72631,79.451428)"
       id="g1955">
      <g
         style="fill:#00898f;fill-opacity:1;stroke-width:2.25471"
         id="g2581">
        <g
           id="g7342"
           style="fill:#00898f;fill-opacity:1;stroke-width:2.25471">
          <use
             style="fill:#00898f;fill-opacity:1;stroke-width:2.25471"
             height="100%"
             width="100%"
             id="use2949"
             y="81.962997"
             x="91.925003"
             xlink:href="#symbol592" />
        </g>
        <g
           id="g1473"
           style="fill:#00898f;fill-opacity:1;stroke-width:2.25471">
          <use
             style="fill:#00898f;fill-opacity:1;stroke-width:2.25471"
             height="100%"
             width="100%"
             id="use616"
             y="81.962997"
             x="97.875"
             xlink:href="#symbol135" />
        </g>
        <g
           id="g249"
           style="fill:#00898f;fill-opacity:1;stroke-width:2.25471">
          <use
             style="fill:#00898f;fill-opacity:1;stroke-width:2.25471"
             height="100%"
             width="100%"
             id="use7584"
             y="81.962997"
             x="101.75"
             xlink:href="#symbol1676" />
          <use
             style="fill:#00898f;fill-opacity:1;stroke-width:2.25471"
             height="100%"
             width="100%"
             id="use4529"
             y="81.962997"
             x="107.44363"
             xlink:href="#symbol9260" />
        </g>
        <g
           id="g7131"
           style="fill:#00898f;fill-opacity:1;stroke-width:2.25471">
          <use
             style="fill:#00898f;fill-opacity:1;stroke-width:2.25471"
             height="100%"
             width="100%"
             id="use1263"
             y="81.962997"
             x="111.87499"
             xlink:href="#symbol5093" />
        </g>
        <g
           id="g28"
           style="fill:#00898f;fill-opacity:1;stroke-width:2.25471">
          <use
             style="fill:#00898f;fill-opacity:1;stroke-width:2.25471"
             height="100%"
             width="100%"
             id="use9328"
             y="81.962997"
             x="117.683"
             xlink:href="#symbol9416" />
        </g>
        <g
           id="g7125"
           style="fill:#00898f;fill-opacity:1;stroke-width:2.25471">
          <use
             style="fill:#00898f;fill-opacity:1;stroke-width:2.25471"
             height="100%"
             width="100%"
             id="use8591"
             y="81.962997"
             x="127.645"
             xlink:href="#symbol754" />
        </g>
        <g
           id="g3001"
           style="fill:#00898f;fill-opacity:1;stroke-width:2.25471">
          <use
             style="fill:#00898f;fill-opacity:1;stroke-width:2.25471"
             height="100%"
             width="100%"
             id="use5198"
             y="81.962997"
             x="132.45096"
             xlink:href="#symbol5093" />
        </g>
        <g
           id="g8912"
           style="fill:#00898f;fill-opacity:1;stroke-width:2.25471">
          <use
             style="fill:#00898f;fill-opacity:1;stroke-width:2.25471"
             height="100%"
             width="100%"
             id="use7141"
             y="81.962997"
             x="136.048"
             xlink:href="#symbol8173" />
        </g>
      </g>
    </g>
    <g
       style="stroke-width:2.25471"
       inkscape:label=""
       transform="matrix(0.44351518,0,0,0.44351518,42.056177,73.081739)"
       id="g2111">
      <g
         style="stroke-width:2.25471"
         id="g6162">
        <g
           id="g9753"
           style="fill:#000000;fill-opacity:1;stroke-width:2.25471">
          <use
             style="stroke-width:2.25471"
             height="100%"
             width="100%"
             id="use7037"
             y="81.962997"
             x="91.925003"
             xlink:href="#symbol2062" />
        </g>
        <g
           id="g2640"
           style="fill:#000000;fill-opacity:1;stroke-width:2.25471">
          <use
             style="stroke-width:2.25471"
             height="100%"
             width="100%"
             id="use1129"
             y="81.962997"
             x="96.730957"
             xlink:href="#symbol5218" />
        </g>
      </g>
    </g>
    <path
       id="path2128"
       d="m 139.41577,110.29231 -2.10379,3.38415"
       style="fill:none;stroke:#00538a;stroke-width:0.211667;stroke-linecap:butt;stroke-linejoin:miter;stroke-miterlimit:4;stroke-dasharray:none;stroke-opacity:1" />
    <path
       style="fill:none;stroke:#00898f;stroke-width:0.211667;stroke-linecap:butt;stroke-linejoin:miter;stroke-miterlimit:4;stroke-dasharray:none;stroke-opacity:1"
       d="m 145.3821,116.5323 -2.10379,3.38415"
       id="path2128-6" />
    <circle
       r="0.69419611"
       cy="119.38991"
       cx="83.487473"
       id="path3791"
       style="fill:#ff3e0e;fill-opacity:1;stroke:none;stroke-width:0.330729;stroke-linecap:round;stroke-linejoin:round;stroke-miterlimit:4;stroke-dasharray:0.992188, 0.992188;stroke-dashoffset:0;stroke-opacity:1" />
    <circle
       style="fill:#ffffff;fill-opacity:1;stroke:#ff3e0e;stroke-width:0.396875;stroke-linecap:round;stroke-linejoin:round;stroke-miterlimit:4;stroke-dasharray:none;stroke-dashoffset:0;stroke-opacity:1"
       id="path3791-7"
       cx="86.833473"
       cy="119.47295"
       r="0.61115754" />
    <path
       sodipodi:nodetypes="cc"
       id="path3808"
       d="m 83.526851,118.3508 v -7.65196"
       style="fill:none;stroke:#808080;stroke-width:0.264583px;stroke-linecap:butt;stroke-linejoin:miter;stroke-opacity:1" />
    <path
       sodipodi:nodetypes="cc"
       style="fill:none;stroke:#808080;stroke-width:0.264583px;stroke-linecap:butt;stroke-linejoin:miter;stroke-opacity:1"
       d="m 86.848357,118.3508 v -7.65196"
       id="path3808-5" />
    <path
       id="path3825"
       d="m 83.417994,112.34736 c 0.208669,0 3.075115,0 3.075115,0"
       style="fill:none;stroke:#808080;stroke-width:0.264583;stroke-linecap:butt;stroke-linejoin:miter;stroke-miterlimit:4;stroke-dasharray:none;stroke-opacity:1;marker-end:url(#Arrow2Mend)" />
  </g>
</svg>
