<?xml version="1.0" encoding="UTF-8" standalone="no"?>
<!-- Created with Inkscape (http://www.inkscape.org/) -->

<svg
   width="600"
   height="153.17622"
   viewBox="0 0 158.74999 40.527876"
   version="1.1"
   id="svg8"
   inkscape:version="1.4.3 (0d15f75042, 2025-12-25)"
   sodipodi:docname="scattering1d.svg"
   inkscape:export-filename="../fig/scattering1d.png"
   inkscape:export-xdpi="96"
   inkscape:export-ydpi="96"
   xmlns:inkscape="http://www.inkscape.org/namespaces/inkscape"
   xmlns:sodipodi="http://sodipodi.sourceforge.net/DTD/sodipodi-0.dtd"
   xmlns="http://www.w3.org/2000/svg"
   xmlns:svg="http://www.w3.org/2000/svg"
   xmlns:rdf="http://www.w3.org/1999/02/22-rdf-syntax-ns#"
   xmlns:cc="http://creativecommons.org/ns#"
   xmlns:dc="http://purl.org/dc/elements/1.1/"
   xmlns:ns17="http://www.iki.fi/pav/software/textext/">
  <sodipodi:namedview
     id="base"
     pagecolor="#ffffff"
     bordercolor="#666666"
     borderopacity="1.0"
     inkscape:pageopacity="0.0"
     inkscape:pageshadow="2"
     inkscape:zoom="1"
     inkscape:cx="227"
     inkscape:cy="25"
     inkscape:document-units="mm"
     inkscape:current-layer="layer1"
     showgrid="false"
     inkscape:window-width="1536"
     inkscape:window-height="795"
     inkscape:window-x="0"
     inkscape:window-y="0"
     inkscape:window-maximized="1"
     fit-margin-top="0"
     fit-margin-left="0"
     fit-margin-right="0"
     fit-margin-bottom="0"
     inkscape:showpageshadow="2"
     inkscape:pagecheckerboard="0"
     inkscape:deskcolor="#d1d1d1" />
  <defs
     id="defs2">
    <marker
       inkscape:stockid="Arrow2Mend"
       orient="auto"
       refY="0"
       refX="0"
       id="Arrow2Mend"
       style="overflow:visible"
       inkscape:isstock="true">
      <path
         id="path844"
         style="fill:#000000;fill-opacity:1;fill-rule:evenodd;stroke:#000000;stroke-width:0.625;stroke-linejoin:round;stroke-opacity:1"
         d="M 8.7185878,4.0337352 -2.2072895,0.01601326 8.7185884,-4.0017078 c -1.7454984,2.3720609 -1.7354408,5.6174519 -6e-7,8.035443 z"
         transform="scale(-0.6)"
         inkscape:connector-curvature="0" />
    </marker>
    <marker
       inkscape:stockid="Arrow2Mend"
       orient="auto"
       refY="0"
       refX="0"
       id="Arrow2Mend-3"
       style="overflow:visible"
       inkscape:isstock="true">
      <path
         inkscape:connector-curvature="0"
         id="path844-6"
         style="fill:#000000;fill-opacity:1;fill-rule:evenodd;stroke:#000000;stroke-width:0.625;stroke-linejoin:round;stroke-opacity:1"
         d="M 8.7185878,4.0337352 -2.2072895,0.01601326 8.7185884,-4.0017078 c -1.7454984,2.3720609 -1.7354408,5.6174519 -6e-7,8.035443 z"
         transform="scale(-0.6)" />
    </marker>
  </defs>
  <metadata
     id="metadata5">
    <rdf:RDF>
      <cc:Work
         rdf:about="">
        <dc:format>image/svg+xml</dc:format>
        <dc:type
           rdf:resource="http://purl.org/dc/dcmitype/StillImage" />
      </cc:Work>
    </rdf:RDF>
  </metadata>
  <g
     inkscape:label="Layer 1"
     inkscape:groupmode="layer"
     id="layer1"
     transform="translate(56.6786, -104.515)">
    <path
       d="m 20.628317,137.62432 h 0.281609 l 0.002,-6.8e-4 h 0.06742 l 0.002,-6.4e-4 h 0.01795 l 0.002,-6.5e-4 h 0.01 l 0.002,-6.3e-4 h 0.0081 l 0.002,-6.7e-4 h 0.004 l 0.002,-6.5e-4 h 0.004 l 0.002,-6.5e-4 h 0.004 l 0.002,-6.3e-4 h 0.002 l 0.002,-6.7e-4 h 0.002 l 0.002,-6.5e-4 h 0.002 l 0.002,-6.5e-4 h 0.002 l 0.002,-6.6e-4 0.002,-6.4e-4 h 0.002 l 0.0043,-0.001 0.002,-6.6e-4 0.002,-6.4e-4 0.002,-6.5e-4 0.002,-6.5e-4 0.002,-6.6e-4 0.0038,-0.001 0.002,-6.4e-4 0.002,-6.4e-4 0.002,-0.001 0.002,-6.4e-4 0.002,-0.001 0.002,-6.4e-4 0.002,-0.001 0.002,-6.3e-4 0.002,-0.001 0.0038,-0.003 0.002,-0.001 0.002,-0.001 0.002,-0.003 0.002,-0.001 0.002,-0.003 0.002,-0.001 0.002,-0.003 0.004,-0.005 0.002,-0.003 0.002,-0.003 0.002,-0.003 0.002,-0.003 0.002,-0.003 0.002,-0.003 0.002,-0.003 0.002,-0.003 0.002,-0.005 0.004,-0.008 0.002,-0.005 0.002,-0.005 0.002,-0.005 0.002,-0.005 0.002,-0.005 0.004,-0.0135 0.002,-0.005 0.002,-0.005 0.002,-0.008 0.002,-0.008 0.002,-0.008 0.002,-0.008 0.002,-0.008 0.002,-0.008 0.002,-0.008 0.002,-0.008 0.002,-0.0108 0.002,-0.0108 0.002,-0.0108 0.002,-0.0108 0.002,-0.0108 0.002,-0.0108 0.002,-0.0135 0.002,-0.0135 0.0038,-0.0271 0.002,-0.0135 0.002,-0.016 0.002,-0.016 0.002,-0.016 0.002,-0.016 0.002,-0.016 0.002,-0.0187 0.002,-0.0187 0.002,-0.0187 0.0038,-0.0412 0.002,-0.0214 0.002,-0.0214 0.002,-0.0241 0.002,-0.0241 0.002,-0.0241 0.004,-0.052 0.002,-0.0279 0.002,-0.0287 0.002,-0.0295 0.002,-0.0295 0.002,-0.0325 0.002,-0.0322 0.002,-0.0333 0.002,-0.0349 0.002,-0.0357 0.004,-0.0753 0.002,-0.0393 0.002,-0.0412 0.002,-0.0423 0.002,-0.0428 0.002,-0.0447 0.002,-0.0469 0.002,-0.0474 0.002,-0.0482 0.002,-0.0512 0.002,-0.052 0.002,-0.0536 0.002,-0.0547 0.002,-0.0566 0.002,-0.0593 0.002,-0.0601 0.002,-0.0619 0.002,-0.0636 0.002,-0.0653 0.002,-0.0672 0.002,-0.0691 0.002,-0.0707 0.002,-0.0737 0.002,-0.0742 0.002,-0.0772 0.002,-0.0791 0.002,-0.0815 0.002,-0.0834 0.002,-0.0852 0.002,-0.088 0.002,-0.0897 0.002,-0.0915 0.002,-0.094 0.002,-0.0967 0.002,-0.0997 0.002,-0.10128 0.002,-0.10317 0.002,-0.1064 0.002,-0.10855 0.002,-0.11098 0.002,-0.11421 0.002,-0.11556 0.002,-0.11919 0.002,-0.12081 0.002,-0.12459 0.002,-0.12646 0.002,-0.12916 0.002,-0.13267 0.002,-0.13455 0.002,-0.13801 0.002,-0.14069 0.002,-0.14283 0.002,-0.14603 0.002,-0.149 0.002,-0.15248 0.002,-0.15409 0.002,-0.15757 0.002,-0.16051 0.002,-0.1632 0.002,-0.16694 0.002,-0.1683 0.002,-0.17203 0.002,-0.17579 0.002,-0.1774 0.002,-0.18115 0.002,-0.18383 0.002,-0.18651 0.002,-0.19 0.002,-0.19267 0.002,-0.19535 0.002,-0.19884 0.002,-0.20071 0.002,-0.20446 0.002,-0.20687 0.002,-0.20984 0.002,-0.2133 0.002,-0.21518 0.002,-0.21867 0.002,-0.22136 0.002,-0.22401 0.002,-0.22591 0.002,-0.22939 0.002,-0.23206 0.002,-0.23421 0.002,-0.23661 0.002,-0.24012 0.002,-0.24197 0.002,-0.24359 0.002,-0.24654 0.002,-0.24921 0.002,-0.25109 0.002,-0.25352 0.002,-0.25564 0.002,-0.25726 0.002,-0.25992 0.002,-0.26156 0.002,-0.26368 0.002,-0.26422 0.002,-0.26717 0.002,-0.26894 0.002,-0.26985 0.002,-0.27145 0.002,-0.27261 0.002,-0.27419 0.002,-0.27605 0.002,-0.27606 0.002,-0.27786 0.002,-0.2779 0.002,-0.27971 0.002,-0.28065 0.002,-0.28041 0.002,-0.28063 0.002,-0.28225 0.002,-0.28153 0.002,-0.28225 0.002,-0.28248 0.002,-0.28222 0.002,-0.28247 0.002,-0.28133 0.002,-0.28156 0.002,-0.28156 0.002,-0.28042 0.002,-0.27971 0.002,-0.27879 0.002,-0.27789 0.002,-0.27695 0.002,-0.27513 0.002,-0.27422 0.002,-0.27352 0.002,-0.27051 0.002,-0.26986 0.002,-0.26717 0.002,-0.26609 0.002,-0.2637 0.002,-0.261 0.002,-0.25913 0.002,-0.25645 0.002,-0.2535 0.002,-0.2511 0.002,-0.24841 0.002,-0.24546 0.002,-0.24199 0.002,-0.2385 0.002,-0.23554 0.002,-0.23233 0.002,-0.22752 0.002,-0.2251 0.002,-0.22054 0.002,-0.21679 0.002,-0.2125 0.002,-0.20795 0.002,-0.20446 0.002,-0.19884 0.002,-0.19535 0.002,-0.19026 0.002,-0.18544 0.002,-0.18007 0.002,-0.17581 0.002,-0.17123 0.002,-0.16507 0.002,-0.16025 0.002,-0.15436 0.002,-0.14952 0.002,-0.14337 0.002,-0.13827 0.002,-0.13266 0.002,-0.12647 0.002,-0.12081 0.002,-0.11461 0.002,-0.10856 0.002,-0.1029 0.002,-0.0967 0.002,-0.0904 0.002,-0.0842 0.002,-0.078 0.002,-0.0718 0.002,-0.0646 0.002,-0.0593 0.002,-0.052 0.002,-0.0469 0.002,-0.0383 0.002,-0.0333 0.002,-0.0268 0.002,-0.0187 0.002,-0.0135 0.002,-0.008 h 0.002 l 0.002,0.008 0.002,0.0135 0.002,0.0187 0.002,0.0268 0.002,0.0333 0.002,0.0383 0.002,0.0469 0.002,0.052 0.002,0.0593 0.002,0.0646 0.002,0.0718 0.002,0.078 0.002,0.0842 0.002,0.0904 0.002,0.0967 0.002,0.1029 0.002,0.10856 0.002,0.11461 0.002,0.12081 0.002,0.12647 0.002,0.13266 0.002,0.13827 0.002,0.14337 0.002,0.14952 0.002,0.15436 0.002,0.16025 0.002,0.16507 0.002,0.17123 0.002,0.17581 0.002,0.18007 0.002,0.18544 0.002,0.19026 0.002,0.19535 0.002,0.19884 0.002,0.20446 0.002,0.20795 0.002,0.2125 0.002,0.21679 0.002,0.22054 0.002,0.2251 0.002,0.22752 0.002,0.23233 0.002,0.23554 0.002,0.2385 0.002,0.24199 0.002,0.24546 0.002,0.24841 0.002,0.2511 0.002,0.2535 0.002,0.25645 0.002,0.25913 0.002,0.261 0.002,0.2637 0.002,0.26609 0.002,0.26717 0.002,0.26986 0.002,0.27051 0.002,0.27352 0.002,0.27422 0.002,0.27513 0.002,0.27695 0.002,0.27789 0.002,0.27879 0.002,0.27971 0.002,0.28042 0.002,0.28156 0.002,0.28156 0.002,0.28133 0.002,0.28247 0.002,0.28222 0.002,0.28248 0.002,0.28225 0.002,0.28153 0.002,0.28225 0.002,0.28063 0.002,0.28041 0.002,0.28065 0.002,0.27971 0.002,0.2779 0.002,0.27786 0.002,0.27606 0.002,0.27605 0.002,0.27419 0.002,0.27261 0.002,0.27145 0.002,0.26985 0.002,0.26894 0.002,0.26717 0.002,0.26422 0.002,0.26368 0.002,0.26156 0.002,0.25992 0.002,0.25726 0.002,0.25564 0.002,0.25352 0.002,0.25109 0.002,0.24921 0.002,0.24654 0.002,0.24359 0.002,0.24197 0.002,0.24012 0.002,0.23661 0.002,0.23421 0.002,0.23206 0.002,0.22939 0.002,0.22591 0.002,0.22401 0.002,0.22136 0.002,0.21867 0.002,0.21518 0.002,0.2133 0.002,0.20984 0.002,0.20687 0.002,0.20446 0.002,0.20071 0.002,0.19884 0.002,0.19535 0.002,0.19267 0.002,0.19 0.002,0.18651 0.002,0.18383 0.002,0.18115 0.002,0.1774 0.002,0.17579 0.002,0.17203 0.002,0.1683 0.002,0.16694 0.002,0.1632 0.002,0.16051 0.002,0.15757 0.002,0.15409 0.002,0.15248 0.002,0.149 0.002,0.14603 0.002,0.14283 0.002,0.14069 0.002,0.13801 0.002,0.13455 0.002,0.13267 0.002,0.12916 0.002,0.12646 0.002,0.12459 0.002,0.12081 0.002,0.11919 0.002,0.11556 0.002,0.11421 0.002,0.11098 0.002,0.10855 0.002,0.1064 0.002,0.10317 0.002,0.10128 0.002,0.0997 0.002,0.0967 0.002,0.094 0.002,0.0915 0.002,0.0897 0.002,0.088 0.002,0.0852 0.002,0.0834 0.002,0.0815 0.002,0.0791 0.002,0.0772 0.002,0.0742 0.002,0.0737 0.002,0.0707 0.002,0.0691 0.002,0.0672 0.002,0.0653 0.002,0.0636 0.002,0.0619 0.002,0.0601 0.002,0.0593 0.002,0.0566 0.002,0.0547 0.002,0.0536 0.002,0.052 0.002,0.0512 0.002,0.0482 0.002,0.0474 0.002,0.0469 0.002,0.0447 0.002,0.0428 0.004,0.0836 0.002,0.0393 0.002,0.0376 0.002,0.0376 0.002,0.036 0.002,0.0349 0.002,0.0333 0.002,0.0322 0.002,0.0325 0.002,0.0295 0.002,0.0295 0.002,0.0287 0.002,0.0279 0.002,0.0268 0.002,0.0268 0.002,0.0241 0.004,0.0466 0.002,0.0214 0.002,0.0214 0.002,0.0214 0.002,0.0214 0.002,0.0187 0.002,0.0187 0.002,0.0187 0.002,0.016 0.002,0.016 0.002,0.016 0.002,0.016 0.002,0.016 0.002,0.0135 0.002,0.0135 0.002,0.0135 0.002,0.0135 0.002,0.0135 0.002,0.0108 0.002,0.0108 0.002,0.0108 0.002,0.0108 0.002,0.0108 0.002,0.0108 0.002,0.008 0.002,0.008 0.002,0.008 0.002,0.008 0.002,0.008 0.002,0.008 0.002,0.008 0.002,0.008 0.002,0.005 0.002,0.005 0.002,0.005 0.002,0.005 0.002,0.005 0.0043,0.0108 0.002,0.005 0.002,0.005 0.002,0.005 0.002,0.005 0.002,0.005 0.004,0.008 0.002,0.003 0.002,0.003 0.002,0.003 0.002,0.003 0.002,0.003 0.002,0.003 0.002,0.003 0.002,0.003 0.002,0.003 0.002,10e-4 0.002,0.003 0.002,0.001 0.002,0.003 0.002,0.001 0.002,0.001 0.002,0.001 0.002,0.001 0.002,10e-4 0.002,6.5e-4 0.002,0.001 0.002,6.5e-4 0.002,0.001 0.002,6.4e-4 0.002,0.001 0.002,6.5e-4 0.002,6.4e-4 0.002,6.8e-4 0.004,0.001 0.002,6.5e-4 0.002,6.3e-4 0.002,6.5e-4 0.002,6.7e-4 0.002,6.5e-4 0.002,6.3e-4 h 0.002 l 0.004,0.001 h 0.002 l 0.002,6.3e-4 h 0.002 l 0.002,6.7e-4 h 0.002 l 0.002,6.5e-4 h 0.002 l 0.002,6.5e-4 h 0.004 l 0.002,6.3e-4 h 0.004 l 0.002,6.7e-4 h 0.004 l 0.002,6.5e-4 h 0.0081 l 0.002,6.5e-4 h 0.01 l 0.002,6.3e-4 h 0.01795 l 0.002,6.7e-4 h 0.0674 l 0.002,6.5e-4 h 0.281606"
       style="fill:#e3c2b7;fill-opacity:1;stroke:#6f4227;stroke-width:0.49631;stroke-linecap:butt;stroke-linejoin:miter;stroke-miterlimit:10;stroke-dasharray:none;stroke-opacity:1"
       id="path6924"
       inkscape:connector-curvature="0" />
    <path
       style="fill:none;fill-rule:evenodd;stroke:#000000;stroke-width:0.396875;stroke-linecap:butt;stroke-linejoin:miter;stroke-miterlimit:4;stroke-dasharray:none;stroke-opacity:1;marker-end:url(#Arrow2Mend)"
       d="M -50.206715,137.52112 H 94.527677"
       id="path815"
       inkscape:connector-curvature="0"
       sodipodi:nodetypes="cc" />
    <path
       sodipodi:nodetypes="cccccccc"
       inkscape:connector-curvature="0"
       id="path18791"
       d="m -14.663333,130.6435 v -5.9249 h 5.9253747 v -3.48087 l 4.972084,6.31427 -4.972084,6.86231 v -3.77081 z"
       style="fill:#8fb4f1;fill-opacity:1;fill-rule:evenodd;stroke:#1c67e3;stroke-width:0.234393px;stroke-linecap:butt;stroke-linejoin:miter;stroke-opacity:1" />
    <path
       sodipodi:nodetypes="cccccccc"
       inkscape:connector-curvature="0"
       id="path18791-3"
       d="m -31.596677,130.6435 v -5.9249 h 5.925376 v -3.48087 l 4.972086,6.31427 -4.972086,6.86231 v -3.77081 z"
       style="fill:#8fb4f1;fill-opacity:1;fill-rule:evenodd;stroke:#1c67e3;stroke-width:0.234393px;stroke-linecap:butt;stroke-linejoin:miter;stroke-opacity:1" />
    <path
       sodipodi:nodetypes="cccccccc"
       inkscape:connector-curvature="0"
       id="path18791-3-0"
       d="m -49.059188,130.6435 v -5.9249 h 5.925376 v -3.48087 l 4.972086,6.31427 -4.972086,6.86231 v -3.77081 z"
       style="fill:#8fb4f1;fill-opacity:1;fill-rule:evenodd;stroke:#1c67e3;stroke-width:0.234393px;stroke-linecap:butt;stroke-linejoin:miter;stroke-opacity:1" />
    <g
       transform="matrix(0.564445,0,0,0.564445,-48.3648,112.86233)"
       ns17:version="1.10.2"
       ns17:texconverter="pdflatex"
       ns17:pdfconverter="inkscape"
       ns17:text="Incident particle"
       ns17:preamble="/usr/share/inkscape/extensions/textext/default_packages.tex"
       ns17:scale="1.6"
       ns17:alignment="middle center"
       ns17:stroke-to-path="0"
       ns17:inkscapeversion="1.4.3"
       ns17:jacobian_sqrt="0.564445"
       id="g17">
      <defs
         id="id-5d15ea90-a79c-4650-8cef-8d29a0f8695b">
        <g
           id="id-88fc5930-b8c6-4f6a-b400-421f99ee6d3c">
          <g
             id="id-2a033a9a-2e1d-4e41-8fd2-ca1833447b3b">
            <path
               d="M 2.25,-6.03125 C 2.25,-6.390625 2.265625,-6.5 3.0625,-6.5 h 0.25 v -0.3125 c -0.34375,0.03125 -1.125,0.03125 -1.515625,0.03125 -0.375,0 -1.171875,0 -1.515625,-0.03125 V -6.5 h 0.25 c 0.796875,0 0.828125,0.109375 0.828125,0.46875 v 5.25 c 0,0.359375 -0.03125,0.46875 -0.828125,0.46875 h -0.25 V 0 c 0.34375,-0.03125 1.140625,-0.03125 1.515625,-0.03125 0.390625,0 1.171875,0 1.515625,0.03125 v -0.3125 h -0.25 C 2.265625,-0.3125 2.25,-0.421875 2.25,-0.78125 Z m 0,0"
               id="id-3043b00a-2adf-4877-aa88-9dd821aa6dd5" />
          </g>
          <g
             id="id-76920a56-00f8-4d9d-b596-4bb6f0c923e6">
            <path
               d="M 1.09375,-3.421875 V -0.75 c 0,0.4375 -0.109375,0.4375 -0.78125,0.4375 V 0 c 0.359375,-0.015625 0.859375,-0.03125 1.140625,-0.03125 0.25,0 0.765625,0.015625 1.109375,0.03125 v -0.3125 c -0.671875,0 -0.78125,0 -0.78125,-0.4375 V -2.59375 C 1.78125,-3.625 2.5,-4.1875 3.125,-4.1875 c 0.640625,0 0.75,0.53125 0.75,1.109375 V -0.75 c 0,0.4375 -0.109375,0.4375 -0.78125,0.4375 V 0 c 0.34375,-0.015625 0.859375,-0.03125 1.125,-0.03125 0.25,0 0.78125,0.015625 1.109375,0.03125 v -0.3125 c -0.515625,0 -0.765625,0 -0.765625,-0.296875 v -1.90625 c 0,-0.859375 0,-1.15625 -0.3125,-1.515625 -0.140625,-0.171875 -0.46875,-0.375 -1.046875,-0.375 C 2.46875,-4.40625 2,-3.984375 1.71875,-3.359375 V -4.40625 L 0.3125,-4.296875 v 0.3125 c 0.703125,0 0.78125,0.0625 0.78125,0.5625 z m 0,0"
               id="id-26982eca-a6ed-441d-96fc-b86163e02ac1" />
          </g>
          <g
             id="id-e9f976c3-6e5c-4fbf-a8b1-2ae9ed3ab6e1">
            <path
               d="m 1.171875,-2.171875 c 0,-1.625 0.8125,-2.046875 1.34375,-2.046875 0.09375,0 0.71875,0.015625 1.0625,0.375 -0.40625,0.03125 -0.46875,0.328125 -0.46875,0.453125 0,0.265625 0.1875,0.453125 0.453125,0.453125 0.265625,0 0.46875,-0.15625 0.46875,-0.46875 0,-0.671875 -0.765625,-1.0625 -1.53125,-1.0625 -1.25,0 -2.15625,1.078125 -2.15625,2.3125 0,1.28125 0.984375,2.265625 2.140625,2.265625 1.328125,0 1.65625,-1.203125 1.65625,-1.296875 0,-0.09375 -0.109375,-0.09375 -0.140625,-0.09375 -0.078125,0 -0.109375,0.03125 -0.125,0.09375 -0.28125,0.921875 -0.9375,1.046875 -1.296875,1.046875 -0.53125,0 -1.40625,-0.421875 -1.40625,-2.03125 z m 0,0"
               id="id-f44bea5d-5eba-40f5-b756-193942628f21" />
          </g>
          <g
             id="id-eeb82ac9-2fff-4ea8-a0ba-48cad92e981f">
            <path
               d="M 1.765625,-4.40625 0.375,-4.296875 v 0.3125 c 0.640625,0 0.734375,0.0625 0.734375,0.546875 V -0.75 c 0,0.4375 -0.109375,0.4375 -0.78125,0.4375 V 0 C 0.640625,-0.015625 1.1875,-0.03125 1.421875,-0.03125 1.78125,-0.03125 2.125,-0.015625 2.46875,0 v -0.3125 c -0.671875,0 -0.703125,-0.046875 -0.703125,-0.4375 z m 0.03125,-1.734375 c 0,-0.3125 -0.234375,-0.53125 -0.515625,-0.53125 -0.3125,0 -0.53125,0.265625 -0.53125,0.53125 0,0.265625 0.21875,0.53125 0.53125,0.53125 0.28125,0 0.515625,-0.21875 0.515625,-0.53125 z m 0,0"
               id="id-a998d7c5-13bc-4c15-9e4f-7be3499993b2" />
          </g>
          <g
             id="id-f47830a5-ef50-44f4-b8f3-d8ae8e78721b">
            <path
               d="m 3.78125,-0.546875 v 0.65625 L 5.25,0 v -0.3125 c -0.6875,0 -0.78125,-0.0625 -0.78125,-0.5625 V -6.921875 L 3.046875,-6.8125 V -6.5 c 0.6875,0 0.765625,0.0625 0.765625,0.5625 v 2.15625 c -0.28125,-0.359375 -0.71875,-0.625 -1.25,-0.625 -1.171875,0 -2.21875,0.984375 -2.21875,2.265625 0,1.265625 0.96875,2.25 2.109375,2.25 0.640625,0 1.078125,-0.34375 1.328125,-0.65625 z m 0,-2.671875 v 2.046875 c 0,0.171875 0,0.1875 -0.109375,0.359375 C 3.375,-0.328125 2.9375,-0.109375 2.5,-0.109375 2.046875,-0.109375 1.6875,-0.375 1.453125,-0.75 1.203125,-1.15625 1.171875,-1.71875 1.171875,-2.140625 1.171875,-2.5 1.1875,-3.09375 1.46875,-3.546875 1.6875,-3.859375 2.0625,-4.1875 2.609375,-4.1875 c 0.34375,0 0.765625,0.15625 1.0625,0.59375 0.109375,0.171875 0.109375,0.1875 0.109375,0.375 z m 0,0"
               id="id-174da685-774c-4277-a410-9b0e474e1186" />
          </g>
          <g
             id="id-650aeb8a-4fe2-43c1-9577-7046e33152b0">
            <path
               d="M 1.109375,-2.515625 C 1.171875,-4 2.015625,-4.25 2.359375,-4.25 c 1.015625,0 1.125,1.34375 1.125,1.734375 z m 0,0.21875 h 2.78125 c 0.21875,0 0.25,0 0.25,-0.21875 0,-0.984375 -0.546875,-1.953125 -1.78125,-1.953125 -1.15625,0 -2.078125,1.03125 -2.078125,2.28125 0,1.328125 1.046875,2.296875 2.1875,2.296875 C 3.6875,0.109375 4.140625,-1 4.140625,-1.1875 4.140625,-1.28125 4.0625,-1.3125 4,-1.3125 c -0.078125,0 -0.109375,0.0625 -0.125,0.140625 -0.34375,1.03125 -1.25,1.03125 -1.34375,1.03125 -0.5,0 -0.890625,-0.296875 -1.125,-0.671875 -0.296875,-0.46875 -0.296875,-1.125 -0.296875,-1.484375 z m 0,0"
               id="id-ebdef9a7-70b2-43de-9cf5-6f8f35d50bcc" />
          </g>
          <g
             id="id-a5bd6d98-0eb1-4ce0-b032-e3eebe458d36">
            <path
               d="m 1.71875,-3.984375 h 1.4375 v -0.3125 H 1.71875 V -6.125 h -0.25 c 0,0.8125 -0.296875,1.875 -1.28125,1.921875 v 0.21875 h 0.84375 v 2.75 c 0,1.21875 0.9375,1.34375 1.296875,1.34375 0.703125,0 0.984375,-0.703125 0.984375,-1.34375 v -0.5625 h -0.25 V -1.25 c 0,0.734375 -0.296875,1.109375 -0.671875,1.109375 -0.671875,0 -0.671875,-0.90625 -0.671875,-1.078125 z m 0,0"
               id="id-a1220582-18af-4e00-a609-260aeb97cb1c" />
          </g>
          <g
             id="id-0651e801-1566-4700-9697-9daabc73d162">
            <path
               d="m 1.71875,-3.75 v -0.65625 l -1.4375,0.109375 v 0.3125 c 0.703125,0 0.78125,0.0625 0.78125,0.5 v 4.65625 C 1.0625,1.625 0.953125,1.625 0.28125,1.625 V 1.9375 C 0.625,1.921875 1.140625,1.90625 1.390625,1.90625 c 0.28125,0 0.78125,0.015625 1.125,0.03125 V 1.625 C 1.859375,1.625 1.75,1.625 1.75,1.171875 V -0.59375 c 0.046875,0.171875 0.46875,0.703125 1.21875,0.703125 1.1875,0 2.21875,-0.984375 2.21875,-2.265625 0,-1.265625 -0.953125,-2.25 -2.078125,-2.25 -0.78125,0 -1.203125,0.4375 -1.390625,0.65625 z M 1.75,-1.140625 v -2.21875 C 2.03125,-3.875 2.515625,-4.15625 3.03125,-4.15625 c 0.734375,0 1.328125,0.875 1.328125,2 0,1.203125 -0.6875,2.046875 -1.421875,2.046875 -0.40625,0 -0.78125,-0.203125 -1.046875,-0.609375 C 1.75,-0.921875 1.75,-0.9375 1.75,-1.140625 Z m 0,0"
               id="id-9d1ce2db-2010-4798-b90c-c5dbddff8cd4" />
          </g>
          <g
             id="id-063087df-33fa-4109-9987-829f0c786d5d">
            <path
               d="m 3.3125,-0.75 c 0.046875,0.390625 0.3125,0.8125 0.78125,0.8125 0.21875,0 0.828125,-0.140625 0.828125,-0.953125 v -0.5625 h -0.25 v 0.5625 c 0,0.578125 -0.25,0.640625 -0.359375,0.640625 -0.328125,0 -0.375,-0.453125 -0.375,-0.5 v -1.984375 c 0,-0.421875 0,-0.8125 -0.359375,-1.1875 C 3.1875,-4.3125 2.6875,-4.46875 2.21875,-4.46875 c -0.828125,0 -1.515625,0.46875 -1.515625,1.125 0,0.296875 0.203125,0.46875 0.46875,0.46875 0.28125,0 0.453125,-0.203125 0.453125,-0.453125 0,-0.125 -0.046875,-0.453125 -0.515625,-0.453125 C 1.390625,-4.140625 1.875,-4.25 2.1875,-4.25 c 0.5,0 1.0625,0.390625 1.0625,1.28125 v 0.359375 c -0.515625,0.03125 -1.203125,0.0625 -1.828125,0.359375 -0.75,0.34375 -1,0.859375 -1,1.296875 0,0.8125 0.96875,1.0625 1.59375,1.0625 0.65625,0 1.109375,-0.40625 1.296875,-0.859375 z M 3.25,-2.390625 v 1 c 0,0.9375 -0.71875,1.28125 -1.171875,1.28125 -0.484375,0 -0.890625,-0.34375 -0.890625,-0.84375 0,-0.546875 0.421875,-1.375 2.0625,-1.4375 z m 0,0"
               id="id-b1fdb6a3-e2fd-47a1-accd-77932dbd555f" />
          </g>
          <g
             id="id-e5c8cba3-d21b-4b84-966a-9b3ede9533fd">
            <path
               d="M 1.671875,-3.3125 V -4.40625 L 0.28125,-4.296875 v 0.3125 c 0.703125,0 0.78125,0.0625 0.78125,0.5625 V -0.75 c 0,0.4375 -0.109375,0.4375 -0.78125,0.4375 V 0 c 0.390625,-0.015625 0.859375,-0.03125 1.140625,-0.03125 0.390625,0 0.859375,0 1.265625,0.03125 V -0.3125 H 2.46875 c -0.734375,0 -0.75,-0.109375 -0.75,-0.46875 V -2.3125 c 0,-0.984375 0.421875,-1.875 1.171875,-1.875 0.0625,0 0.09375,0 0.109375,0.015625 -0.03125,0 -0.234375,0.125 -0.234375,0.390625 0,0.265625 0.21875,0.421875 0.4375,0.421875 0.171875,0 0.421875,-0.125 0.421875,-0.4375 0,-0.3125 -0.3125,-0.609375 -0.734375,-0.609375 -0.734375,0 -1.09375,0.671875 -1.21875,1.09375 z m 0,0"
               id="id-36ebd759-5980-4261-be22-44f99f04352d" />
          </g>
          <g
             id="id-9e76ff7e-4e05-4841-bed4-f2d95341bc2d">
            <path
               d="M 1.765625,-6.921875 0.328125,-6.8125 V -6.5 c 0.703125,0 0.78125,0.0625 0.78125,0.5625 V -0.75 c 0,0.4375 -0.109375,0.4375 -0.78125,0.4375 V 0 C 0.65625,-0.015625 1.1875,-0.03125 1.4375,-0.03125 c 0.25,0 0.734375,0.015625 1.109375,0.03125 v -0.3125 c -0.671875,0 -0.78125,0 -0.78125,-0.4375 z m 0,0"
               id="id-629bc3b1-c85d-474f-95e6-fec2e1751ddb" />
          </g>
        </g>
      </defs>
      <g
         fill="#000000"
         fill-opacity="1"
         id="id-0d17f776-b097-43b4-ad4f-91416b47ba56"
         transform="translate(-148.993,-127.843)">
        <g
           transform="translate(148.712,134.765)"
           id="g1">
          <path
             d="M 2.25,-6.03125 C 2.25,-6.390625 2.265625,-6.5 3.0625,-6.5 h 0.25 v -0.3125 c -0.34375,0.03125 -1.125,0.03125 -1.515625,0.03125 -0.375,0 -1.171875,0 -1.515625,-0.03125 V -6.5 h 0.25 c 0.796875,0 0.828125,0.109375 0.828125,0.46875 v 5.25 c 0,0.359375 -0.03125,0.46875 -0.828125,0.46875 h -0.25 V 0 c 0.34375,-0.03125 1.140625,-0.03125 1.515625,-0.03125 0.390625,0 1.171875,0 1.515625,0.03125 v -0.3125 h -0.25 C 2.265625,-0.3125 2.25,-0.421875 2.25,-0.78125 Z m 0,0"
             id="id-7a935d5b-21bf-4283-84c0-8c31650f32fb" />
        </g>
        <g
           transform="translate(152.309,134.765)"
           id="g2">
          <path
             d="M 1.09375,-3.421875 V -0.75 c 0,0.4375 -0.109375,0.4375 -0.78125,0.4375 V 0 c 0.359375,-0.015625 0.859375,-0.03125 1.140625,-0.03125 0.25,0 0.765625,0.015625 1.109375,0.03125 v -0.3125 c -0.671875,0 -0.78125,0 -0.78125,-0.4375 V -2.59375 C 1.78125,-3.625 2.5,-4.1875 3.125,-4.1875 c 0.640625,0 0.75,0.53125 0.75,1.109375 V -0.75 c 0,0.4375 -0.109375,0.4375 -0.78125,0.4375 V 0 c 0.34375,-0.015625 0.859375,-0.03125 1.125,-0.03125 0.25,0 0.78125,0.015625 1.109375,0.03125 v -0.3125 c -0.515625,0 -0.765625,0 -0.765625,-0.296875 v -1.90625 c 0,-0.859375 0,-1.15625 -0.3125,-1.515625 -0.140625,-0.171875 -0.46875,-0.375 -1.046875,-0.375 C 2.46875,-4.40625 2,-3.984375 1.71875,-3.359375 V -4.40625 L 0.3125,-4.296875 v 0.3125 c 0.703125,0 0.78125,0.0625 0.78125,0.5625 z m 0,0"
             id="id-b8caa9b1-8a66-472b-b767-452b286ed4f5" />
        </g>
        <g
           transform="translate(157.845,134.765)"
           id="g3">
          <path
             d="m 1.171875,-2.171875 c 0,-1.625 0.8125,-2.046875 1.34375,-2.046875 0.09375,0 0.71875,0.015625 1.0625,0.375 -0.40625,0.03125 -0.46875,0.328125 -0.46875,0.453125 0,0.265625 0.1875,0.453125 0.453125,0.453125 0.265625,0 0.46875,-0.15625 0.46875,-0.46875 0,-0.671875 -0.765625,-1.0625 -1.53125,-1.0625 -1.25,0 -2.15625,1.078125 -2.15625,2.3125 0,1.28125 0.984375,2.265625 2.140625,2.265625 1.328125,0 1.65625,-1.203125 1.65625,-1.296875 0,-0.09375 -0.109375,-0.09375 -0.140625,-0.09375 -0.078125,0 -0.109375,0.03125 -0.125,0.09375 -0.28125,0.921875 -0.9375,1.046875 -1.296875,1.046875 -0.53125,0 -1.40625,-0.421875 -1.40625,-2.03125 z m 0,0"
             id="id-0df5128e-badf-4862-a4b7-a843cbf33e52" />
        </g>
        <g
           transform="translate(162.272,134.765)"
           id="g4">
          <path
             d="M 1.765625,-4.40625 0.375,-4.296875 v 0.3125 c 0.640625,0 0.734375,0.0625 0.734375,0.546875 V -0.75 c 0,0.4375 -0.109375,0.4375 -0.78125,0.4375 V 0 C 0.640625,-0.015625 1.1875,-0.03125 1.421875,-0.03125 1.78125,-0.03125 2.125,-0.015625 2.46875,0 v -0.3125 c -0.671875,0 -0.703125,-0.046875 -0.703125,-0.4375 z m 0.03125,-1.734375 c 0,-0.3125 -0.234375,-0.53125 -0.515625,-0.53125 -0.3125,0 -0.53125,0.265625 -0.53125,0.53125 0,0.265625 0.21875,0.53125 0.53125,0.53125 0.28125,0 0.515625,-0.21875 0.515625,-0.53125 z m 0,0"
             id="id-b66d7c43-13cb-43c7-8828-8f17adb1b9ed" />
        </g>
        <g
           transform="translate(165.04,134.765)"
           id="g5">
          <path
             d="m 3.78125,-0.546875 v 0.65625 L 5.25,0 v -0.3125 c -0.6875,0 -0.78125,-0.0625 -0.78125,-0.5625 V -6.921875 L 3.046875,-6.8125 V -6.5 c 0.6875,0 0.765625,0.0625 0.765625,0.5625 v 2.15625 c -0.28125,-0.359375 -0.71875,-0.625 -1.25,-0.625 -1.171875,0 -2.21875,0.984375 -2.21875,2.265625 0,1.265625 0.96875,2.25 2.109375,2.25 0.640625,0 1.078125,-0.34375 1.328125,-0.65625 z m 0,-2.671875 v 2.046875 c 0,0.171875 0,0.1875 -0.109375,0.359375 C 3.375,-0.328125 2.9375,-0.109375 2.5,-0.109375 2.046875,-0.109375 1.6875,-0.375 1.453125,-0.75 1.203125,-1.15625 1.171875,-1.71875 1.171875,-2.140625 1.171875,-2.5 1.1875,-3.09375 1.46875,-3.546875 1.6875,-3.859375 2.0625,-4.1875 2.609375,-4.1875 c 0.34375,0 0.765625,0.15625 1.0625,0.59375 0.109375,0.171875 0.109375,0.1875 0.109375,0.375 z m 0,0"
             id="id-376bc5a3-19dd-45a2-a035-702d868ec50f" />
        </g>
        <g
           transform="translate(170.575,134.765)"
           id="g6">
          <path
             d="M 1.109375,-2.515625 C 1.171875,-4 2.015625,-4.25 2.359375,-4.25 c 1.015625,0 1.125,1.34375 1.125,1.734375 z m 0,0.21875 h 2.78125 c 0.21875,0 0.25,0 0.25,-0.21875 0,-0.984375 -0.546875,-1.953125 -1.78125,-1.953125 -1.15625,0 -2.078125,1.03125 -2.078125,2.28125 0,1.328125 1.046875,2.296875 2.1875,2.296875 C 3.6875,0.109375 4.140625,-1 4.140625,-1.1875 4.140625,-1.28125 4.0625,-1.3125 4,-1.3125 c -0.078125,0 -0.109375,0.0625 -0.125,0.140625 -0.34375,1.03125 -1.25,1.03125 -1.34375,1.03125 -0.5,0 -0.890625,-0.296875 -1.125,-0.671875 -0.296875,-0.46875 -0.296875,-1.125 -0.296875,-1.484375 z m 0,0"
             id="id-cc9a3638-7627-4e40-bc81-df3c31413b40" />
        </g>
        <g
           transform="translate(175.002,134.765)"
           id="g7">
          <path
             d="M 1.09375,-3.421875 V -0.75 c 0,0.4375 -0.109375,0.4375 -0.78125,0.4375 V 0 c 0.359375,-0.015625 0.859375,-0.03125 1.140625,-0.03125 0.25,0 0.765625,0.015625 1.109375,0.03125 v -0.3125 c -0.671875,0 -0.78125,0 -0.78125,-0.4375 V -2.59375 C 1.78125,-3.625 2.5,-4.1875 3.125,-4.1875 c 0.640625,0 0.75,0.53125 0.75,1.109375 V -0.75 c 0,0.4375 -0.109375,0.4375 -0.78125,0.4375 V 0 c 0.34375,-0.015625 0.859375,-0.03125 1.125,-0.03125 0.25,0 0.78125,0.015625 1.109375,0.03125 v -0.3125 c -0.515625,0 -0.765625,0 -0.765625,-0.296875 v -1.90625 c 0,-0.859375 0,-1.15625 -0.3125,-1.515625 -0.140625,-0.171875 -0.46875,-0.375 -1.046875,-0.375 C 2.46875,-4.40625 2,-3.984375 1.71875,-3.359375 V -4.40625 L 0.3125,-4.296875 v 0.3125 c 0.703125,0 0.78125,0.0625 0.78125,0.5625 z m 0,0"
             id="id-ac5c6c24-9c49-42c0-a1f8-ebc424cf8c96" />
        </g>
      </g>
      <g
         fill="#000000"
         fill-opacity="1"
         id="id-1f8b9dff-820e-46c9-ade0-4208ed6c7ab7"
         transform="translate(-148.993,-127.843)">
        <g
           transform="translate(180.259,134.765)"
           id="g8">
          <path
             d="m 1.71875,-3.984375 h 1.4375 v -0.3125 H 1.71875 V -6.125 h -0.25 c 0,0.8125 -0.296875,1.875 -1.28125,1.921875 v 0.21875 h 0.84375 v 2.75 c 0,1.21875 0.9375,1.34375 1.296875,1.34375 0.703125,0 0.984375,-0.703125 0.984375,-1.34375 v -0.5625 h -0.25 V -1.25 c 0,0.734375 -0.296875,1.109375 -0.671875,1.109375 -0.671875,0 -0.671875,-0.90625 -0.671875,-1.078125 z m 0,0"
             id="id-b762941a-c13f-4ca4-ac79-a64a7ac2c778" />
        </g>
      </g>
      <g
         fill="#000000"
         fill-opacity="1"
         id="id-9110930b-e858-4cea-8d90-800336b72537"
         transform="translate(-148.993,-127.843)">
        <g
           transform="translate(187.461,134.765)"
           id="g9">
          <path
             d="m 1.71875,-3.75 v -0.65625 l -1.4375,0.109375 v 0.3125 c 0.703125,0 0.78125,0.0625 0.78125,0.5 v 4.65625 C 1.0625,1.625 0.953125,1.625 0.28125,1.625 V 1.9375 C 0.625,1.921875 1.140625,1.90625 1.390625,1.90625 c 0.28125,0 0.78125,0.015625 1.125,0.03125 V 1.625 C 1.859375,1.625 1.75,1.625 1.75,1.171875 V -0.59375 c 0.046875,0.171875 0.46875,0.703125 1.21875,0.703125 1.1875,0 2.21875,-0.984375 2.21875,-2.265625 0,-1.265625 -0.953125,-2.25 -2.078125,-2.25 -0.78125,0 -1.203125,0.4375 -1.390625,0.65625 z M 1.75,-1.140625 v -2.21875 C 2.03125,-3.875 2.515625,-4.15625 3.03125,-4.15625 c 0.734375,0 1.328125,0.875 1.328125,2 0,1.203125 -0.6875,2.046875 -1.421875,2.046875 -0.40625,0 -0.78125,-0.203125 -1.046875,-0.609375 C 1.75,-0.921875 1.75,-0.9375 1.75,-1.140625 Z m 0,0"
             id="id-2feb95a5-e943-47c2-9727-6ff8af20c7d8" />
        </g>
        <g
           transform="translate(192.996,134.765)"
           id="g10">
          <path
             d="m 3.3125,-0.75 c 0.046875,0.390625 0.3125,0.8125 0.78125,0.8125 0.21875,0 0.828125,-0.140625 0.828125,-0.953125 v -0.5625 h -0.25 v 0.5625 c 0,0.578125 -0.25,0.640625 -0.359375,0.640625 -0.328125,0 -0.375,-0.453125 -0.375,-0.5 v -1.984375 c 0,-0.421875 0,-0.8125 -0.359375,-1.1875 C 3.1875,-4.3125 2.6875,-4.46875 2.21875,-4.46875 c -0.828125,0 -1.515625,0.46875 -1.515625,1.125 0,0.296875 0.203125,0.46875 0.46875,0.46875 0.28125,0 0.453125,-0.203125 0.453125,-0.453125 0,-0.125 -0.046875,-0.453125 -0.515625,-0.453125 C 1.390625,-4.140625 1.875,-4.25 2.1875,-4.25 c 0.5,0 1.0625,0.390625 1.0625,1.28125 v 0.359375 c -0.515625,0.03125 -1.203125,0.0625 -1.828125,0.359375 -0.75,0.34375 -1,0.859375 -1,1.296875 0,0.8125 0.96875,1.0625 1.59375,1.0625 0.65625,0 1.109375,-0.40625 1.296875,-0.859375 z M 3.25,-2.390625 v 1 c 0,0.9375 -0.71875,1.28125 -1.171875,1.28125 -0.484375,0 -0.890625,-0.34375 -0.890625,-0.84375 0,-0.546875 0.421875,-1.375 2.0625,-1.4375 z m 0,0"
             id="id-16d97aba-0fa3-486f-827b-76f65d511b7a" />
        </g>
        <g
           transform="translate(197.977,134.765)"
           id="g11">
          <path
             d="M 1.671875,-3.3125 V -4.40625 L 0.28125,-4.296875 v 0.3125 c 0.703125,0 0.78125,0.0625 0.78125,0.5625 V -0.75 c 0,0.4375 -0.109375,0.4375 -0.78125,0.4375 V 0 c 0.390625,-0.015625 0.859375,-0.03125 1.140625,-0.03125 0.390625,0 0.859375,0 1.265625,0.03125 V -0.3125 H 2.46875 c -0.734375,0 -0.75,-0.109375 -0.75,-0.46875 V -2.3125 c 0,-0.984375 0.421875,-1.875 1.171875,-1.875 0.0625,0 0.09375,0 0.109375,0.015625 -0.03125,0 -0.234375,0.125 -0.234375,0.390625 0,0.265625 0.21875,0.421875 0.4375,0.421875 0.171875,0 0.421875,-0.125 0.421875,-0.4375 0,-0.3125 -0.3125,-0.609375 -0.734375,-0.609375 -0.734375,0 -1.09375,0.671875 -1.21875,1.09375 z m 0,0"
             id="id-d379e192-3442-4682-8c87-b01b211fdc67" />
        </g>
      </g>
      <g
         fill="#000000"
         fill-opacity="1"
         id="id-5027cc2c-f529-44d3-a3c4-e400c0804120"
         transform="translate(-148.993,-127.843)">
        <g
           transform="translate(201.869,134.765)"
           id="g12">
          <path
             d="m 1.71875,-3.984375 h 1.4375 v -0.3125 H 1.71875 V -6.125 h -0.25 c 0,0.8125 -0.296875,1.875 -1.28125,1.921875 v 0.21875 h 0.84375 v 2.75 c 0,1.21875 0.9375,1.34375 1.296875,1.34375 0.703125,0 0.984375,-0.703125 0.984375,-1.34375 v -0.5625 h -0.25 V -1.25 c 0,0.734375 -0.296875,1.109375 -0.671875,1.109375 -0.671875,0 -0.671875,-0.90625 -0.671875,-1.078125 z m 0,0"
             id="id-8b4c304f-09cb-4903-80ab-6a01b8b6668a" />
        </g>
        <g
           transform="translate(205.744,134.765)"
           id="g13">
          <path
             d="M 1.765625,-4.40625 0.375,-4.296875 v 0.3125 c 0.640625,0 0.734375,0.0625 0.734375,0.546875 V -0.75 c 0,0.4375 -0.109375,0.4375 -0.78125,0.4375 V 0 C 0.640625,-0.015625 1.1875,-0.03125 1.421875,-0.03125 1.78125,-0.03125 2.125,-0.015625 2.46875,0 v -0.3125 c -0.671875,0 -0.703125,-0.046875 -0.703125,-0.4375 z m 0.03125,-1.734375 c 0,-0.3125 -0.234375,-0.53125 -0.515625,-0.53125 -0.3125,0 -0.53125,0.265625 -0.53125,0.53125 0,0.265625 0.21875,0.53125 0.53125,0.53125 0.28125,0 0.515625,-0.21875 0.515625,-0.53125 z m 0,0"
             id="id-5f1d72b9-c94c-4993-bf1a-84085a309c54" />
        </g>
        <g
           transform="translate(208.512,134.765)"
           id="g14">
          <path
             d="m 1.171875,-2.171875 c 0,-1.625 0.8125,-2.046875 1.34375,-2.046875 0.09375,0 0.71875,0.015625 1.0625,0.375 -0.40625,0.03125 -0.46875,0.328125 -0.46875,0.453125 0,0.265625 0.1875,0.453125 0.453125,0.453125 0.265625,0 0.46875,-0.15625 0.46875,-0.46875 0,-0.671875 -0.765625,-1.0625 -1.53125,-1.0625 -1.25,0 -2.15625,1.078125 -2.15625,2.3125 0,1.28125 0.984375,2.265625 2.140625,2.265625 1.328125,0 1.65625,-1.203125 1.65625,-1.296875 0,-0.09375 -0.109375,-0.09375 -0.140625,-0.09375 -0.078125,0 -0.109375,0.03125 -0.125,0.09375 -0.28125,0.921875 -0.9375,1.046875 -1.296875,1.046875 -0.53125,0 -1.40625,-0.421875 -1.40625,-2.03125 z m 0,0"
             id="id-92f3817c-68ad-48db-9914-c633aa8a86a8" />
        </g>
        <g
           transform="translate(212.939,134.765)"
           id="g15">
          <path
             d="M 1.765625,-6.921875 0.328125,-6.8125 V -6.5 c 0.703125,0 0.78125,0.0625 0.78125,0.5625 V -0.75 c 0,0.4375 -0.109375,0.4375 -0.78125,0.4375 V 0 C 0.65625,-0.015625 1.1875,-0.03125 1.4375,-0.03125 c 0.25,0 0.734375,0.015625 1.109375,0.03125 v -0.3125 c -0.671875,0 -0.78125,0 -0.78125,-0.4375 z m 0,0"
             id="id-6a49c5ca-1242-43f0-86ce-c5ec8ce3ac8d" />
        </g>
        <g
           transform="translate(215.707,134.765)"
           id="g16">
          <path
             d="M 1.109375,-2.515625 C 1.171875,-4 2.015625,-4.25 2.359375,-4.25 c 1.015625,0 1.125,1.34375 1.125,1.734375 z m 0,0.21875 h 2.78125 c 0.21875,0 0.25,0 0.25,-0.21875 0,-0.984375 -0.546875,-1.953125 -1.78125,-1.953125 -1.15625,0 -2.078125,1.03125 -2.078125,2.28125 0,1.328125 1.046875,2.296875 2.1875,2.296875 C 3.6875,0.109375 4.140625,-1 4.140625,-1.1875 4.140625,-1.28125 4.0625,-1.3125 4,-1.3125 c -0.078125,0 -0.109375,0.0625 -0.125,0.140625 -0.34375,1.03125 -1.25,1.03125 -1.34375,1.03125 -0.5,0 -0.890625,-0.296875 -1.125,-0.671875 -0.296875,-0.46875 -0.296875,-1.125 -0.296875,-1.484375 z m 0,0"
             id="id-2d0c45c6-3a21-485c-b30e-2dc7072ec598" />
        </g>
      </g>
    </g>
    <g
       transform="matrix(0.564445,0,0,0.564445,20.45626,139.3565)"
       ns17:version="1.10.2"
       ns17:texconverter="pdflatex"
       ns17:pdfconverter="inkscape"
       ns17:text="0"
       ns17:preamble="/usr/share/inkscape/extensions/textext/default_packages.tex"
       ns17:scale="1.6"
       ns17:alignment="middle center"
       ns17:stroke-to-path="0"
       ns17:inkscapeversion="1.4.3"
       ns17:jacobian_sqrt="0.564445"
       id="g19">
      <defs
         id="id-e37fb7df-9e65-4168-acf7-38ab535c31d1">
        <g
           id="id-ed8cfb90-014c-4206-bea1-ddd55d4271db">
          <g
             id="id-697442cc-7a75-4102-835a-0b188ef7feba">
            <path
               d="m 4.578125,-3.1875 c 0,-0.796875 -0.046875,-1.59375 -0.390625,-2.328125 -0.453125,-0.96875 -1.28125,-1.125 -1.6875,-1.125 -0.609375,0 -1.328125,0.265625 -1.75,1.1875 -0.3125,0.6875 -0.359375,1.46875 -0.359375,2.265625 0,0.75 0.03125,1.640625 0.453125,2.40625 0.421875,0.796875 1.15625,1 1.640625,1 0.53125,0 1.296875,-0.203125 1.734375,-1.15625 0.3125,-0.6875 0.359375,-1.46875 0.359375,-2.25 z M 2.484375,0 C 2.09375,0 1.5,-0.25 1.328125,-1.203125 1.21875,-1.796875 1.21875,-2.71875 1.21875,-3.3125 c 0,-0.640625 0,-1.296875 0.078125,-1.828125 0.1875,-1.1875 0.9375,-1.28125 1.1875,-1.28125 0.328125,0 0.984375,0.1875 1.171875,1.171875 0.109375,0.5625 0.109375,1.3125 0.109375,1.9375 0,0.75 0,1.421875 -0.109375,2.0625 C 3.5,-0.296875 2.9375,0 2.484375,0 Z m 0,0"
               id="id-5436adf6-5840-4403-b291-083e420070ae" />
          </g>
        </g>
      </defs>
      <g
         fill="#000000"
         fill-opacity="1"
         id="id-306227d6-383e-447b-b3f8-1832c2e42aa8"
         transform="translate(-149.103,-128.124)">
        <g
           transform="translate(148.712,134.765)"
           id="g18">
          <path
             d="m 4.578125,-3.1875 c 0,-0.796875 -0.046875,-1.59375 -0.390625,-2.328125 -0.453125,-0.96875 -1.28125,-1.125 -1.6875,-1.125 -0.609375,0 -1.328125,0.265625 -1.75,1.1875 -0.3125,0.6875 -0.359375,1.46875 -0.359375,2.265625 0,0.75 0.03125,1.640625 0.453125,2.40625 0.421875,0.796875 1.15625,1 1.640625,1 0.53125,0 1.296875,-0.203125 1.734375,-1.15625 0.3125,-0.6875 0.359375,-1.46875 0.359375,-2.25 z M 2.484375,0 C 2.09375,0 1.5,-0.25 1.328125,-1.203125 1.21875,-1.796875 1.21875,-2.71875 1.21875,-3.3125 c 0,-0.640625 0,-1.296875 0.078125,-1.828125 0.1875,-1.1875 0.9375,-1.28125 1.1875,-1.28125 0.328125,0 0.984375,0.1875 1.171875,1.171875 0.109375,0.5625 0.109375,1.3125 0.109375,1.9375 0,0.75 0,1.421875 -0.109375,2.0625 C 3.5,-0.296875 2.9375,0 2.484375,0 Z m 0,0"
             id="id-302ee5c4-186e-46b9-95d4-5fb2a25a57e0" />
        </g>
      </g>
    </g>
    <g
       transform="matrix(0.564445,0,0,0.564445,94.85268,139.75292)"
       ns17:version="1.10.2"
       ns17:texconverter="pdflatex"
       ns17:pdfconverter="inkscape"
       ns17:text="$x$"
       ns17:preamble="/usr/share/inkscape/extensions/textext/default_packages.tex"
       ns17:scale="1.6"
       ns17:alignment="middle center"
       ns17:stroke-to-path="0"
       ns17:inkscapeversion="1.4.3"
       ns17:jacobian_sqrt="0.564445"
       id="g21">
      <defs
         id="id-6c6cc4a2-da1d-4da5-953e-81b3d34364a4">
        <g
           id="id-3c508348-227c-4099-9f86-bc69566ebc52">
          <g
             id="id-382af30d-94e0-4a29-b0e5-61235aa088b8">
            <path
               d="M 3.328125,-3.015625 C 3.390625,-3.265625 3.625,-4.1875 4.3125,-4.1875 c 0.046875,0 0.296875,0 0.5,0.125 C 4.53125,-4 4.34375,-3.765625 4.34375,-3.515625 c 0,0.15625 0.109375,0.34375 0.375,0.34375 0.21875,0 0.53125,-0.171875 0.53125,-0.578125 0,-0.515625 -0.578125,-0.65625 -0.921875,-0.65625 -0.578125,0 -0.921875,0.53125 -1.046875,0.75 -0.25,-0.65625 -0.78125,-0.75 -1.078125,-0.75 -1.03125,0 -1.609375,1.28125 -1.609375,1.53125 0,0.109375 0.109375,0.109375 0.125,0.109375 0.078125,0 0.109375,-0.03125 0.125,-0.109375 0.34375,-1.0625 1,-1.3125 1.34375,-1.3125 0.1875,0 0.53125,0.09375 0.53125,0.671875 0,0.3125 -0.171875,0.96875 -0.53125,2.375 -0.15625,0.609375 -0.515625,1.03125 -0.953125,1.03125 -0.0625,0 -0.28125,0 -0.5,-0.125 0.25,-0.0625 0.46875,-0.265625 0.46875,-0.546875 0,-0.265625 -0.21875,-0.34375 -0.359375,-0.34375 -0.3125,0 -0.546875,0.25 -0.546875,0.578125 0,0.453125 0.484375,0.65625 0.921875,0.65625 0.671875,0 1.03125,-0.703125 1.046875,-0.75 0.125,0.359375 0.484375,0.75 1.078125,0.75 1.03125,0 1.59375,-1.28125 1.59375,-1.53125 0,-0.109375 -0.078125,-0.109375 -0.109375,-0.109375 -0.09375,0 -0.109375,0.046875 -0.140625,0.109375 -0.328125,1.078125 -1,1.3125 -1.3125,1.3125 -0.390625,0 -0.546875,-0.3125 -0.546875,-0.65625 0,-0.21875 0.046875,-0.4375 0.15625,-0.875 z m 0,0"
               id="id-12585f71-8180-4259-8c80-00aad1de37d9" />
          </g>
        </g>
      </defs>
      <g
         fill="#000000"
         fill-opacity="1"
         id="id-9531ca1c-93ac-49b7-8d24-8796d5d63504"
         transform="translate(-149.009,-130.359)">
        <g
           transform="translate(148.712,134.765)"
           id="g20">
          <path
             d="M 3.328125,-3.015625 C 3.390625,-3.265625 3.625,-4.1875 4.3125,-4.1875 c 0.046875,0 0.296875,0 0.5,0.125 C 4.53125,-4 4.34375,-3.765625 4.34375,-3.515625 c 0,0.15625 0.109375,0.34375 0.375,0.34375 0.21875,0 0.53125,-0.171875 0.53125,-0.578125 0,-0.515625 -0.578125,-0.65625 -0.921875,-0.65625 -0.578125,0 -0.921875,0.53125 -1.046875,0.75 -0.25,-0.65625 -0.78125,-0.75 -1.078125,-0.75 -1.03125,0 -1.609375,1.28125 -1.609375,1.53125 0,0.109375 0.109375,0.109375 0.125,0.109375 0.078125,0 0.109375,-0.03125 0.125,-0.109375 0.34375,-1.0625 1,-1.3125 1.34375,-1.3125 0.1875,0 0.53125,0.09375 0.53125,0.671875 0,0.3125 -0.171875,0.96875 -0.53125,2.375 -0.15625,0.609375 -0.515625,1.03125 -0.953125,1.03125 -0.0625,0 -0.28125,0 -0.5,-0.125 0.25,-0.0625 0.46875,-0.265625 0.46875,-0.546875 0,-0.265625 -0.21875,-0.34375 -0.359375,-0.34375 -0.3125,0 -0.546875,0.25 -0.546875,0.578125 0,0.453125 0.484375,0.65625 0.921875,0.65625 0.671875,0 1.03125,-0.703125 1.046875,-0.75 0.125,0.359375 0.484375,0.75 1.078125,0.75 1.03125,0 1.59375,-1.28125 1.59375,-1.53125 0,-0.109375 -0.078125,-0.109375 -0.109375,-0.109375 -0.09375,0 -0.109375,0.046875 -0.140625,0.109375 -0.328125,1.078125 -1,1.3125 -1.3125,1.3125 -0.390625,0 -0.546875,-0.3125 -0.546875,-0.65625 0,-0.21875 0.046875,-0.4375 0.15625,-0.875 z m 0,0"
             id="id-31f3d963-dd12-4edd-b4ee-a5d5aba31a9e" />
        </g>
      </g>
    </g>
  </g>
</svg>
