<?xml version="1.0" encoding="UTF-8" standalone="no"?>
<!-- Created with Inkscape (http://www.inkscape.org/) -->

<svg
   width="600"
   height="270.53201"
   viewBox="0 0 158.75 71.578262"
   version="1.1"
   id="svg5"
   sodipodi:docname="spherical_coords.svg"
   inkscape:version="1.4.3 (0d15f75042, 2025-12-25)"
   inkscape:export-filename="../fig/spherical_coords.png"
   inkscape:export-xdpi="164.038"
   inkscape:export-ydpi="164.038"
   xmlns:inkscape="http://www.inkscape.org/namespaces/inkscape"
   xmlns:sodipodi="http://sodipodi.sourceforge.net/DTD/sodipodi-0.dtd"
   xmlns:xlink="http://www.w3.org/1999/xlink"
   xmlns="http://www.w3.org/2000/svg"
   xmlns:svg="http://www.w3.org/2000/svg"
   xmlns:ns22="http://www.iki.fi/pav/software/textext/">
  <sodipodi:namedview
     id="namedview7"
     pagecolor="#ffffff"
     bordercolor="#666666"
     borderopacity="1.0"
     inkscape:pageshadow="2"
     inkscape:pageopacity="0.0"
     inkscape:pagecheckerboard="0"
     inkscape:document-units="mm"
     showgrid="false"
     inkscape:zoom="1"
     inkscape:cx="282"
     inkscape:cy="139.5"
     inkscape:window-width="1920"
     inkscape:window-height="1026"
     inkscape:window-x="0"
     inkscape:window-y="0"
     inkscape:window-maximized="1"
     inkscape:current-layer="layer1"
     fit-margin-top="0"
     fit-margin-left="0"
     fit-margin-right="0"
     fit-margin-bottom="0"
     inkscape:showpageshadow="2"
     inkscape:deskcolor="#d1d1d1" />
  <defs
     id="defs2">
    <marker
       style="overflow:visible"
       id="ConcaveTriangle"
       refX="0"
       refY="0"
       orient="auto-start-reverse"
       inkscape:stockid="Concave triangle arrow"
       markerWidth="1"
       markerHeight="1"
       viewBox="0 0 1 1"
       inkscape:isstock="true"
       inkscape:collect="always"
       preserveAspectRatio="xMidYMid">
      <path
         transform="scale(0.7)"
         d="M -2,-4 9,0 -2,4 c 2,-2.33 2,-5.66 0,-8 z"
         style="fill:context-stroke;fill-rule:evenodd;stroke:none"
         id="path7" />
    </marker>
    <marker
       style="overflow:visible"
       id="Arrow2Sstart"
       refX="0"
       refY="0"
       orient="auto"
       inkscape:stockid="Arrow2Sstart"
       inkscape:isstock="true">
      <path
         transform="matrix(0.3,0,0,0.3,-0.69,0)"
         d="M 8.7185878,4.0337352 -2.2072895,0.01601326 8.7185884,-4.0017078 c -1.7454984,2.3720609 -1.7354408,5.6174519 -6e-7,8.035443 z"
         style="fill:context-stroke;fill-rule:evenodd;stroke:context-stroke;stroke-width:0.625;stroke-linejoin:round"
         id="path3190" />
    </marker>
    <marker
       style="overflow:visible"
       id="marker3430"
       refX="0"
       refY="0"
       orient="auto"
       inkscape:stockid="Arrow2Lend"
       inkscape:isstock="true">
      <path
         transform="matrix(-1.1,0,0,-1.1,-1.1,0)"
         d="M 8.7185878,4.0337352 -2.2072895,0.01601326 8.7185884,-4.0017078 c -1.7454984,2.3720609 -1.7354408,5.6174519 -6e-7,8.035443 z"
         style="fill:context-stroke;fill-rule:evenodd;stroke:context-stroke;stroke-width:0.625;stroke-linejoin:round"
         id="path3428" />
    </marker>
    <marker
       style="overflow:visible"
       id="Arrow2Lend"
       refX="0"
       refY="0"
       orient="auto"
       inkscape:stockid="Arrow2Lend"
       inkscape:isstock="true">
      <path
         transform="matrix(-1.1,0,0,-1.1,-1.1,0)"
         d="M 8.7185878,4.0337352 -2.2072895,0.01601326 8.7185884,-4.0017078 c -1.7454984,2.3720609 -1.7354408,5.6174519 -6e-7,8.035443 z"
         style="fill:context-stroke;fill-rule:evenodd;stroke:context-stroke;stroke-width:0.625;stroke-linejoin:round"
         id="path3181" />
    </marker>
    <g
       id="g4097">
      <symbol
         overflow="visible"
         id="symbol6195">
        <path
           style="stroke:none"
           d=""
           id="path4019" />
      </symbol>
      <symbol
         overflow="visible"
         id="symbol4927">
        <path
           style="stroke:none"
           d="m 4.359375,-6.671875 c 0,-0.03125 0.03125,-0.140625 0.03125,-0.140625 0,-0.015625 0,-0.109375 -0.125,-0.109375 -0.09375,0 -0.109375,0.03125 -0.15625,0.203125 L 3.53125,-4.421875 c -1.578125,0.0625 -3.046875,1.375 -3.046875,2.734375 0,0.953125 0.703125,1.734375 1.921875,1.8125 C 2.328125,0.421875 2.25,0.75 2.171875,1.0625 c -0.125,0.46875 -0.21875,0.84375 -0.21875,0.875 0,0.09375 0.078125,0.109375 0.125,0.109375 C 2.125,2.046875 2.140625,2.03125 2.171875,2 2.1875,1.984375 2.25,1.75 2.28125,1.609375 L 2.65625,0.125 c 1.609375,-0.0625 3.0625,-1.40625 3.0625,-2.734375 0,-0.796875 -0.53125,-1.703125 -1.921875,-1.8125 z m -1.90625,6.578125 c -0.59375,-0.03125 -1.3125,-0.390625 -1.3125,-1.375 0,-1.203125 0.859375,-2.59375 2.34375,-2.734375 z m 1.28125,-4.109375 c 0.765625,0.046875 1.328125,0.5 1.328125,1.375 0,1.1875 -0.859375,2.609375 -2.34375,2.734375 z m 0,0"
           id="path8563" />
      </symbol>
    </g>
    <g
       id="g5623">
      <symbol
         overflow="visible"
         id="symbol2488">
        <path
           style="stroke:none"
           d=""
           id="path1731" />
      </symbol>
      <symbol
         overflow="visible"
         id="symbol1789">
        <path
           style="stroke:none"
           d="m 4.53125,-4.984375 c 0,-0.65625 -0.171875,-2.046875 -1.1875,-2.046875 -1.390625,0 -2.921875,2.8125 -2.921875,5.09375 0,0.9375 0.28125,2.046875 1.1875,2.046875 1.40625,0 2.921875,-2.859375 2.921875,-5.09375 z M 1.46875,-3.625 C 1.640625,-4.25 1.84375,-5.046875 2.25,-5.765625 2.515625,-6.25 2.875,-6.8125 3.328125,-6.8125 c 0.484375,0 0.546875,0.640625 0.546875,1.203125 0,0.5 -0.078125,1 -0.3125,1.984375 z m 2,0.328125 C 3.359375,-2.84375 3.15625,-2 2.765625,-1.28125 c -0.34375,0.6875 -0.71875,1.171875 -1.15625,1.171875 -0.328125,0 -0.53125,-0.296875 -0.53125,-1.21875 0,-0.421875 0.0625,-1 0.3125,-1.96875 z m 0,0"
           id="path1677" />
      </symbol>
    </g>
    <g
       id="g5839">
      <symbol
         overflow="visible"
         id="symbol2079">
        <path
           style="stroke:none"
           d=""
           id="path5391" />
      </symbol>
      <symbol
         overflow="visible"
         id="symbol9486">
        <path
           style="stroke:none"
           d="m 0.875,-0.59375 c -0.03125,0.15625 -0.09375,0.390625 -0.09375,0.4375 0,0.171875 0.140625,0.265625 0.296875,0.265625 0.125,0 0.296875,-0.078125 0.375,-0.28125 C 1.46875,-0.203125 1.796875,-1.5625 1.84375,-1.75 c 0.078125,-0.328125 0.265625,-1.015625 0.3125,-1.296875 0.046875,-0.125 0.328125,-0.59375 0.5625,-0.8125 0.078125,-0.0625 0.375,-0.328125 0.796875,-0.328125 0.265625,0 0.40625,0.125 0.421875,0.125 -0.296875,0.046875 -0.515625,0.28125 -0.515625,0.546875 0,0.15625 0.109375,0.34375 0.375,0.34375 0.265625,0 0.546875,-0.234375 0.546875,-0.59375 0,-0.34375 -0.3125,-0.640625 -0.828125,-0.640625 C 2.875,-4.40625 2.4375,-3.921875 2.25,-3.640625 2.15625,-4.09375 1.796875,-4.40625 1.328125,-4.40625 0.875,-4.40625 0.6875,-4.015625 0.59375,-3.84375 0.421875,-3.5 0.296875,-2.90625 0.296875,-2.875 c 0,0.109375 0.09375,0.109375 0.109375,0.109375 0.109375,0 0.109375,-0.015625 0.171875,-0.234375 0.171875,-0.703125 0.375,-1.1875 0.734375,-1.1875 0.15625,0 0.296875,0.078125 0.296875,0.453125 0,0.21875 -0.03125,0.328125 -0.15625,0.84375 z m 0,0"
           id="path6281" />
      </symbol>
    </g>
    <g
       id="g1595">
      <symbol
         overflow="visible"
         id="symbol9699">
        <path
           style="stroke:none"
           d=""
           id="path1820" />
      </symbol>
      <symbol
         overflow="visible"
         id="symbol4498">
        <path
           style="stroke:none"
           d="m 2.03125,-3.359375 v -1.125 L 0.375,-4.40625 v 0.46875 c 0.609375,0 0.6875,0 0.6875,0.390625 V -0.46875 H 0.375 V 0 c 0.34375,-0.015625 0.796875,-0.03125 1.25,-0.03125 0.375,0 1.015625,0 1.375,0.03125 V -0.46875 H 2.140625 v -1.75 c 0,-0.6875 0.234375,-1.90625 1.234375,-1.90625 0,0.015625 -0.1875,0.171875 -0.1875,0.453125 0,0.40625 0.328125,0.609375 0.609375,0.609375 0.296875,0 0.609375,-0.203125 0.609375,-0.609375 0,-0.53125 -0.53125,-0.8125 -1.0625,-0.8125 -0.6875,0 -1.09375,0.5 -1.3125,1.125 z m 0,0"
           id="path6585" />
      </symbol>
    </g>
    <g
       id="g9868">
      <symbol
         overflow="visible"
         id="symbol4501">
        <path
           style="stroke:none"
           d=""
           id="path7389" />
      </symbol>
      <symbol
         overflow="visible"
         id="symbol1683">
        <path
           style="stroke:none"
           d="m 4.359375,-6.671875 c 0,-0.03125 0.03125,-0.140625 0.03125,-0.140625 0,-0.015625 0,-0.109375 -0.125,-0.109375 -0.09375,0 -0.109375,0.03125 -0.15625,0.203125 L 3.53125,-4.421875 c -1.578125,0.0625 -3.046875,1.375 -3.046875,2.734375 0,0.953125 0.703125,1.734375 1.921875,1.8125 C 2.328125,0.421875 2.25,0.75 2.171875,1.0625 c -0.125,0.46875 -0.21875,0.84375 -0.21875,0.875 0,0.09375 0.078125,0.109375 0.125,0.109375 C 2.125,2.046875 2.140625,2.03125 2.171875,2 2.1875,1.984375 2.25,1.75 2.28125,1.609375 L 2.65625,0.125 c 1.609375,-0.0625 3.0625,-1.40625 3.0625,-2.734375 0,-0.796875 -0.53125,-1.703125 -1.921875,-1.8125 z m -1.90625,6.578125 c -0.59375,-0.03125 -1.3125,-0.390625 -1.3125,-1.375 0,-1.203125 0.859375,-2.59375 2.34375,-2.734375 z m 1.28125,-4.109375 c 0.765625,0.046875 1.328125,0.5 1.328125,1.375 0,1.1875 -0.859375,2.609375 -2.34375,2.734375 z m 0,0"
           id="path554" />
      </symbol>
      <symbol
         overflow="visible"
         id="symbol1551">
        <path
           style="stroke:none"
           d=""
           id="path710" />
      </symbol>
      <symbol
         overflow="visible"
         id="symbol771">
        <path
           style="stroke:none"
           d="m 6.84375,-3.265625 c 0.15625,0 0.34375,0 0.34375,-0.1875 C 7.1875,-3.65625 7,-3.65625 6.859375,-3.65625 h -5.96875 c -0.140625,0 -0.328125,0 -0.328125,0.203125 0,0.1875 0.1875,0.1875 0.328125,0.1875 z m 0.015625,1.9375 c 0.140625,0 0.328125,0 0.328125,-0.203125 0,-0.1875 -0.1875,-0.1875 -0.34375,-0.1875 H 0.890625 c -0.140625,0 -0.328125,0 -0.328125,0.1875 0,0.203125 0.1875,0.203125 0.328125,0.203125 z m 0,0"
           id="path6394" />
      </symbol>
      <symbol
         overflow="visible"
         id="symbol6247">
        <path
           style="stroke:none"
           d="m 4.578125,-3.1875 c 0,-0.796875 -0.046875,-1.59375 -0.390625,-2.328125 -0.453125,-0.96875 -1.28125,-1.125 -1.6875,-1.125 -0.609375,0 -1.328125,0.265625 -1.75,1.1875 -0.3125,0.6875 -0.359375,1.46875 -0.359375,2.265625 0,0.75 0.03125,1.640625 0.453125,2.40625 0.421875,0.796875 1.15625,1 1.640625,1 0.53125,0 1.296875,-0.203125 1.734375,-1.15625 0.3125,-0.6875 0.359375,-1.46875 0.359375,-2.25 z M 2.484375,0 C 2.09375,0 1.5,-0.25 1.328125,-1.203125 1.21875,-1.796875 1.21875,-2.71875 1.21875,-3.3125 c 0,-0.640625 0,-1.296875 0.078125,-1.828125 0.1875,-1.1875 0.9375,-1.28125 1.1875,-1.28125 0.328125,0 0.984375,0.1875 1.171875,1.171875 0.109375,0.5625 0.109375,1.3125 0.109375,1.9375 0,0.75 0,1.421875 -0.109375,2.0625 C 3.5,-0.296875 2.9375,0 2.484375,0 Z m 0,0"
           id="path1162" />
      </symbol>
      <symbol
         overflow="visible"
         id="symbol2284">
        <path
           style="stroke:none"
           d="m 3.3125,-0.75 c 0.046875,0.390625 0.3125,0.8125 0.78125,0.8125 0.21875,0 0.828125,-0.140625 0.828125,-0.953125 v -0.5625 h -0.25 v 0.5625 c 0,0.578125 -0.25,0.640625 -0.359375,0.640625 -0.328125,0 -0.375,-0.453125 -0.375,-0.5 v -1.984375 c 0,-0.421875 0,-0.8125 -0.359375,-1.1875 C 3.1875,-4.3125 2.6875,-4.46875 2.21875,-4.46875 c -0.828125,0 -1.515625,0.46875 -1.515625,1.125 0,0.296875 0.203125,0.46875 0.46875,0.46875 0.28125,0 0.453125,-0.203125 0.453125,-0.453125 0,-0.125 -0.046875,-0.453125 -0.515625,-0.453125 C 1.390625,-4.140625 1.875,-4.25 2.1875,-4.25 c 0.5,0 1.0625,0.390625 1.0625,1.28125 v 0.359375 c -0.515625,0.03125 -1.203125,0.0625 -1.828125,0.359375 -0.75,0.34375 -1,0.859375 -1,1.296875 0,0.8125 0.96875,1.0625 1.59375,1.0625 0.65625,0 1.109375,-0.40625 1.296875,-0.859375 z M 3.25,-2.390625 v 1 c 0,0.9375 -0.71875,1.28125 -1.171875,1.28125 -0.484375,0 -0.890625,-0.34375 -0.890625,-0.84375 0,-0.546875 0.421875,-1.375 2.0625,-1.4375 z m 0,0"
           id="path2163" />
      </symbol>
      <symbol
         overflow="visible"
         id="symbol6123">
        <path
           style="stroke:none"
           d="M 2.859375,-2.34375 C 3.15625,-2.71875 3.53125,-3.203125 3.78125,-3.46875 4.09375,-3.828125 4.5,-3.984375 4.96875,-3.984375 v -0.3125 c -0.265625,0.015625 -0.5625,0.03125 -0.828125,0.03125 -0.296875,0 -0.828125,-0.015625 -0.953125,-0.03125 v 0.3125 c 0.21875,0.015625 0.296875,0.140625 0.296875,0.3125 0,0.15625 -0.109375,0.28125 -0.15625,0.34375 L 2.71875,-2.546875 1.9375,-3.5625 C 1.84375,-3.65625 1.84375,-3.671875 1.84375,-3.734375 c 0,-0.15625 0.15625,-0.25 0.34375,-0.25 v -0.3125 c -0.25,0.015625 -0.90625,0.03125 -1.078125,0.03125 -0.203125,0 -0.671875,-0.015625 -0.9375,-0.03125 v 0.3125 c 0.703125,0 0.703125,0 1.171875,0.609375 l 0.984375,1.28125 -0.9375,1.1875 C 0.921875,-0.328125 0.328125,-0.3125 0.125,-0.3125 V 0 c 0.25,-0.015625 0.5625,-0.03125 0.828125,-0.03125 0.28125,0 0.703125,0.015625 0.9375,0.03125 v -0.3125 c -0.21875,-0.03125 -0.28125,-0.15625 -0.28125,-0.3125 0,-0.21875 0.28125,-0.546875 0.890625,-1.265625 l 0.765625,1 C 3.34375,-0.78125 3.46875,-0.625 3.46875,-0.5625 c 0,0.09375 -0.09375,0.25 -0.359375,0.25 V 0 C 3.40625,-0.015625 3.96875,-0.03125 4.1875,-0.03125 c 0.265625,0 0.65625,0.015625 0.953125,0.03125 v -0.3125 c -0.53125,0 -0.71875,-0.015625 -0.9375,-0.3125 z m 0,0"
           id="path3782" />
      </symbol>
      <symbol
         overflow="visible"
         id="symbol5102">
        <path
           style="stroke:none"
           d="M 1.765625,-4.40625 0.375,-4.296875 v 0.3125 c 0.640625,0 0.734375,0.0625 0.734375,0.546875 V -0.75 c 0,0.4375 -0.109375,0.4375 -0.78125,0.4375 V 0 C 0.640625,-0.015625 1.1875,-0.03125 1.421875,-0.03125 1.78125,-0.03125 2.125,-0.015625 2.46875,0 v -0.3125 c -0.671875,0 -0.703125,-0.046875 -0.703125,-0.4375 z m 0.03125,-1.734375 c 0,-0.3125 -0.234375,-0.53125 -0.515625,-0.53125 -0.3125,0 -0.53125,0.265625 -0.53125,0.53125 0,0.265625 0.21875,0.53125 0.53125,0.53125 0.28125,0 0.515625,-0.21875 0.515625,-0.53125 z m 0,0"
           id="path9841" />
      </symbol>
      <symbol
         overflow="visible"
         id="symbol3700">
        <path
           style="stroke:none"
           d="m 2.078125,-1.9375 c 0.21875,0.046875 1.03125,0.203125 1.03125,0.921875 0,0.5 -0.34375,0.90625 -1.125,0.90625 -0.84375,0 -1.203125,-0.5625 -1.390625,-1.421875 C 0.5625,-1.65625 0.5625,-1.6875 0.453125,-1.6875 c -0.125,0 -0.125,0.0625 -0.125,0.234375 V -0.125 c 0,0.171875 0,0.234375 0.109375,0.234375 0.046875,0 0.0625,-0.015625 0.25,-0.203125 0.015625,-0.015625 0.015625,-0.03125 0.203125,-0.21875 0.4375,0.40625 0.890625,0.421875 1.09375,0.421875 1.140625,0 1.609375,-0.671875 1.609375,-1.390625 0,-0.515625 -0.296875,-0.828125 -0.421875,-0.9375 C 2.84375,-2.546875 2.453125,-2.625 2.03125,-2.703125 1.46875,-2.8125 0.8125,-2.9375 0.8125,-3.515625 c 0,-0.359375 0.25,-0.765625 1.109375,-0.765625 1.09375,0 1.15625,0.90625 1.171875,1.203125 0,0.09375 0.09375,0.09375 0.109375,0.09375 0.140625,0 0.140625,-0.046875 0.140625,-0.234375 v -1.015625 c 0,-0.15625 0,-0.234375 -0.109375,-0.234375 -0.046875,0 -0.078125,0 -0.203125,0.125 -0.03125,0.03125 -0.125,0.125 -0.171875,0.15625 -0.375,-0.28125 -0.78125,-0.28125 -0.9375,-0.28125 -1.21875,0 -1.59375,0.671875 -1.59375,1.234375 0,0.34375 0.15625,0.625 0.421875,0.84375 0.328125,0.25 0.609375,0.3125 1.328125,0.453125 z m 0,0"
           id="path8642" />
      </symbol>
    </g>
    <g
       id="g557">
      <symbol
         overflow="visible"
         id="symbol4033">
        <path
           style="stroke:none"
           d=""
           id="path2099" />
      </symbol>
      <symbol
         overflow="visible"
         id="symbol704">
        <path
           style="stroke:none"
           d="m 4.53125,-4.984375 c 0,-0.65625 -0.171875,-2.046875 -1.1875,-2.046875 -1.390625,0 -2.921875,2.8125 -2.921875,5.09375 0,0.9375 0.28125,2.046875 1.1875,2.046875 1.40625,0 2.921875,-2.859375 2.921875,-5.09375 z M 1.46875,-3.625 C 1.640625,-4.25 1.84375,-5.046875 2.25,-5.765625 2.515625,-6.25 2.875,-6.8125 3.328125,-6.8125 c 0.484375,0 0.546875,0.640625 0.546875,1.203125 0,0.5 -0.078125,1 -0.3125,1.984375 z m 2,0.328125 C 3.359375,-2.84375 3.15625,-2 2.765625,-1.28125 c -0.34375,0.6875 -0.71875,1.171875 -1.15625,1.171875 -0.328125,0 -0.53125,-0.296875 -0.53125,-1.21875 0,-0.421875 0.0625,-1 0.3125,-1.96875 z m 0,0"
           id="path4981" />
      </symbol>
      <symbol
         overflow="visible"
         id="symbol5411">
        <path
           style="stroke:none"
           d=""
           id="path1173" />
      </symbol>
      <symbol
         overflow="visible"
         id="symbol207">
        <path
           style="stroke:none"
           d="m 6.84375,-3.265625 c 0.15625,0 0.34375,0 0.34375,-0.1875 C 7.1875,-3.65625 7,-3.65625 6.859375,-3.65625 h -5.96875 c -0.140625,0 -0.328125,0 -0.328125,0.203125 0,0.1875 0.1875,0.1875 0.328125,0.1875 z m 0.015625,1.9375 c 0.140625,0 0.328125,0 0.328125,-0.203125 0,-0.1875 -0.1875,-0.1875 -0.34375,-0.1875 H 0.890625 c -0.140625,0 -0.328125,0 -0.328125,0.1875 0,0.203125 0.1875,0.203125 0.328125,0.203125 z m 0,0"
           id="path6067" />
      </symbol>
      <symbol
         overflow="visible"
         id="symbol5689">
        <path
           style="stroke:none"
           d="m 4.578125,-3.1875 c 0,-0.796875 -0.046875,-1.59375 -0.390625,-2.328125 -0.453125,-0.96875 -1.28125,-1.125 -1.6875,-1.125 -0.609375,0 -1.328125,0.265625 -1.75,1.1875 -0.3125,0.6875 -0.359375,1.46875 -0.359375,2.265625 0,0.75 0.03125,1.640625 0.453125,2.40625 0.421875,0.796875 1.15625,1 1.640625,1 0.53125,0 1.296875,-0.203125 1.734375,-1.15625 0.3125,-0.6875 0.359375,-1.46875 0.359375,-2.25 z M 2.484375,0 C 2.09375,0 1.5,-0.25 1.328125,-1.203125 1.21875,-1.796875 1.21875,-2.71875 1.21875,-3.3125 c 0,-0.640625 0,-1.296875 0.078125,-1.828125 0.1875,-1.1875 0.9375,-1.28125 1.1875,-1.28125 0.328125,0 0.984375,0.1875 1.171875,1.171875 0.109375,0.5625 0.109375,1.3125 0.109375,1.9375 0,0.75 0,1.421875 -0.109375,2.0625 C 3.5,-0.296875 2.9375,0 2.484375,0 Z m 0,0"
           id="path3610" />
      </symbol>
      <symbol
         overflow="visible"
         id="symbol8034">
        <path
           style="stroke:none"
           d="m 3.3125,-0.75 c 0.046875,0.390625 0.3125,0.8125 0.78125,0.8125 0.21875,0 0.828125,-0.140625 0.828125,-0.953125 v -0.5625 h -0.25 v 0.5625 c 0,0.578125 -0.25,0.640625 -0.359375,0.640625 -0.328125,0 -0.375,-0.453125 -0.375,-0.5 v -1.984375 c 0,-0.421875 0,-0.8125 -0.359375,-1.1875 C 3.1875,-4.3125 2.6875,-4.46875 2.21875,-4.46875 c -0.828125,0 -1.515625,0.46875 -1.515625,1.125 0,0.296875 0.203125,0.46875 0.46875,0.46875 0.28125,0 0.453125,-0.203125 0.453125,-0.453125 0,-0.125 -0.046875,-0.453125 -0.515625,-0.453125 C 1.390625,-4.140625 1.875,-4.25 2.1875,-4.25 c 0.5,0 1.0625,0.390625 1.0625,1.28125 v 0.359375 c -0.515625,0.03125 -1.203125,0.0625 -1.828125,0.359375 -0.75,0.34375 -1,0.859375 -1,1.296875 0,0.8125 0.96875,1.0625 1.59375,1.0625 0.65625,0 1.109375,-0.40625 1.296875,-0.859375 z M 3.25,-2.390625 v 1 c 0,0.9375 -0.71875,1.28125 -1.171875,1.28125 -0.484375,0 -0.890625,-0.34375 -0.890625,-0.84375 0,-0.546875 0.421875,-1.375 2.0625,-1.4375 z m 0,0"
           id="path5704" />
      </symbol>
      <symbol
         overflow="visible"
         id="symbol4223">
        <path
           style="stroke:none"
           d="M 2.859375,-2.34375 C 3.15625,-2.71875 3.53125,-3.203125 3.78125,-3.46875 4.09375,-3.828125 4.5,-3.984375 4.96875,-3.984375 v -0.3125 c -0.265625,0.015625 -0.5625,0.03125 -0.828125,0.03125 -0.296875,0 -0.828125,-0.015625 -0.953125,-0.03125 v 0.3125 c 0.21875,0.015625 0.296875,0.140625 0.296875,0.3125 0,0.15625 -0.109375,0.28125 -0.15625,0.34375 L 2.71875,-2.546875 1.9375,-3.5625 C 1.84375,-3.65625 1.84375,-3.671875 1.84375,-3.734375 c 0,-0.15625 0.15625,-0.25 0.34375,-0.25 v -0.3125 c -0.25,0.015625 -0.90625,0.03125 -1.078125,0.03125 -0.203125,0 -0.671875,-0.015625 -0.9375,-0.03125 v 0.3125 c 0.703125,0 0.703125,0 1.171875,0.609375 l 0.984375,1.28125 -0.9375,1.1875 C 0.921875,-0.328125 0.328125,-0.3125 0.125,-0.3125 V 0 c 0.25,-0.015625 0.5625,-0.03125 0.828125,-0.03125 0.28125,0 0.703125,0.015625 0.9375,0.03125 v -0.3125 c -0.21875,-0.03125 -0.28125,-0.15625 -0.28125,-0.3125 0,-0.21875 0.28125,-0.546875 0.890625,-1.265625 l 0.765625,1 C 3.34375,-0.78125 3.46875,-0.625 3.46875,-0.5625 c 0,0.09375 -0.09375,0.25 -0.359375,0.25 V 0 C 3.40625,-0.015625 3.96875,-0.03125 4.1875,-0.03125 c 0.265625,0 0.65625,0.015625 0.953125,0.03125 v -0.3125 c -0.53125,0 -0.71875,-0.015625 -0.9375,-0.3125 z m 0,0"
           id="path7555" />
      </symbol>
      <symbol
         overflow="visible"
         id="symbol3325">
        <path
           style="stroke:none"
           d="M 1.765625,-4.40625 0.375,-4.296875 v 0.3125 c 0.640625,0 0.734375,0.0625 0.734375,0.546875 V -0.75 c 0,0.4375 -0.109375,0.4375 -0.78125,0.4375 V 0 C 0.640625,-0.015625 1.1875,-0.03125 1.421875,-0.03125 1.78125,-0.03125 2.125,-0.015625 2.46875,0 v -0.3125 c -0.671875,0 -0.703125,-0.046875 -0.703125,-0.4375 z m 0.03125,-1.734375 c 0,-0.3125 -0.234375,-0.53125 -0.515625,-0.53125 -0.3125,0 -0.53125,0.265625 -0.53125,0.53125 0,0.265625 0.21875,0.53125 0.53125,0.53125 0.28125,0 0.515625,-0.21875 0.515625,-0.53125 z m 0,0"
           id="path3513" />
      </symbol>
      <symbol
         overflow="visible"
         id="symbol2957">
        <path
           style="stroke:none"
           d="m 2.078125,-1.9375 c 0.21875,0.046875 1.03125,0.203125 1.03125,0.921875 0,0.5 -0.34375,0.90625 -1.125,0.90625 -0.84375,0 -1.203125,-0.5625 -1.390625,-1.421875 C 0.5625,-1.65625 0.5625,-1.6875 0.453125,-1.6875 c -0.125,0 -0.125,0.0625 -0.125,0.234375 V -0.125 c 0,0.171875 0,0.234375 0.109375,0.234375 0.046875,0 0.0625,-0.015625 0.25,-0.203125 0.015625,-0.015625 0.015625,-0.03125 0.203125,-0.21875 0.4375,0.40625 0.890625,0.421875 1.09375,0.421875 1.140625,0 1.609375,-0.671875 1.609375,-1.390625 0,-0.515625 -0.296875,-0.828125 -0.421875,-0.9375 C 2.84375,-2.546875 2.453125,-2.625 2.03125,-2.703125 1.46875,-2.8125 0.8125,-2.9375 0.8125,-3.515625 c 0,-0.359375 0.25,-0.765625 1.109375,-0.765625 1.09375,0 1.15625,0.90625 1.171875,1.203125 0,0.09375 0.09375,0.09375 0.109375,0.09375 0.140625,0 0.140625,-0.046875 0.140625,-0.234375 v -1.015625 c 0,-0.15625 0,-0.234375 -0.109375,-0.234375 -0.046875,0 -0.078125,0 -0.203125,0.125 -0.03125,0.03125 -0.125,0.125 -0.171875,0.15625 -0.375,-0.28125 -0.78125,-0.28125 -0.9375,-0.28125 -1.21875,0 -1.59375,0.671875 -1.59375,1.234375 0,0.34375 0.15625,0.625 0.421875,0.84375 0.328125,0.25 0.609375,0.3125 1.328125,0.453125 z m 0,0"
           id="path2118" />
      </symbol>
    </g>
    <marker
       style="overflow:visible"
       id="Arrow2Lend-7"
       refX="0"
       refY="0"
       orient="auto"
       inkscape:stockid="Arrow2Lend"
       inkscape:isstock="true">
      <path
         transform="matrix(-1.1,0,0,-1.1,-1.1,0)"
         d="M 8.7185878,4.0337352 -2.2072895,0.01601326 8.7185884,-4.0017078 c -1.7454984,2.3720609 -1.7354408,5.6174519 -6e-7,8.035443 z"
         style="fill:context-stroke;fill-rule:evenodd;stroke:context-stroke;stroke-width:0.625;stroke-linejoin:round"
         id="path3181-5" />
    </marker>
    <g
       id="g8432">
      <symbol
         overflow="visible"
         id="symbol6436">
        <path
           style="stroke:none"
           d=""
           id="path2566" />
      </symbol>
      <symbol
         overflow="visible"
         id="symbol3375">
        <path
           style="stroke:none"
           d="m 2.03125,-3.359375 v -1.125 L 0.375,-4.40625 v 0.46875 c 0.609375,0 0.6875,0 0.6875,0.390625 V -0.46875 H 0.375 V 0 c 0.34375,-0.015625 0.796875,-0.03125 1.25,-0.03125 0.375,0 1.015625,0 1.375,0.03125 V -0.46875 H 2.140625 v -1.75 c 0,-0.6875 0.234375,-1.90625 1.234375,-1.90625 0,0.015625 -0.1875,0.171875 -0.1875,0.453125 0,0.40625 0.328125,0.609375 0.609375,0.609375 0.296875,0 0.609375,-0.203125 0.609375,-0.609375 0,-0.53125 -0.53125,-0.8125 -1.0625,-0.8125 -0.6875,0 -1.09375,0.5 -1.3125,1.125 z m 0,0"
           id="path735" />
      </symbol>
      <symbol
         overflow="visible"
         id="symbol1705">
        <path
           style="stroke:none"
           d=""
           id="path2694" />
      </symbol>
      <symbol
         overflow="visible"
         id="symbol9879">
        <path
           style="stroke:none"
           d="m 6.5625,-2.296875 c 0.171875,0 0.359375,0 0.359375,-0.203125 0,-0.1875 -0.1875,-0.1875 -0.359375,-0.1875 H 1.171875 c -0.171875,0 -0.34375,0 -0.34375,0.1875 0,0.203125 0.171875,0.203125 0.34375,0.203125 z m 0,0"
           id="path2237" />
      </symbol>
      <symbol
         overflow="visible"
         id="symbol4014">
        <path
           style="stroke:none"
           d=""
           id="path6251" />
      </symbol>
      <symbol
         overflow="visible"
         id="symbol7732">
        <path
           style="stroke:none"
           d="m 2.015625,-3.296875 c 0.0625,-0.109375 0.0625,-0.171875 0.0625,-0.21875 0,-0.21875 -0.1875,-0.375 -0.40625,-0.375 -0.265625,0 -0.34375,0.21875 -0.375,0.328125 L 0.375,-0.546875 c -0.015625,0.015625 -0.046875,0.09375 -0.046875,0.109375 0,0.078125 0.21875,0.15625 0.28125,0.15625 0.046875,0 0.046875,-0.015625 0.09375,-0.125 z m 0,0"
           id="path2964" />
      </symbol>
    </g>
    <marker
       style="overflow:visible"
       id="Arrow2Lend-7-5"
       refX="0"
       refY="0"
       orient="auto"
       inkscape:stockid="Arrow2Lend"
       inkscape:isstock="true">
      <path
         transform="matrix(-1.1,0,0,-1.1,-1.1,0)"
         d="M 8.7185878,4.0337352 -2.2072895,0.01601326 8.7185884,-4.0017078 c -1.7454984,2.3720609 -1.7354408,5.6174519 -6e-7,8.035443 z"
         style="fill:context-stroke;fill-rule:evenodd;stroke:context-stroke;stroke-width:0.625;stroke-linejoin:round"
         id="path3181-5-6" />
    </marker>
    <g
       id="g9950">
      <symbol
         overflow="visible"
         id="symbol5623">
        <path
           style="stroke:none"
           d=""
           id="path6007" />
      </symbol>
      <symbol
         overflow="visible"
         id="symbol6881">
        <path
           style="stroke:none"
           d="m 2.140625,-2.359375 v -4.5625 L 0.375,-6.84375 V -6.375 c 0.609375,0 0.6875,0 0.6875,0.390625 V -0.46875 H 0.375 V 0 c 0.359375,-0.015625 0.828125,-0.03125 1.1875,-0.03125 0.375,0 0.84375,0.015625 1.203125,0.03125 v -0.46875 h -0.6875 V -1.734375 C 2.375,-1.96875 2.453125,-2.03125 2.65625,-2.15625 l 1,1.25 c 0.09375,0.125 0.25,0.3125 0.25,0.34375 0,0.09375 -0.171875,0.09375 -0.3125,0.09375 V 0 c 0.296875,-0.015625 1.171875,-0.03125 1.21875,-0.03125 0.359375,0 0.703125,0.015625 1.046875,0.03125 V -0.46875 H 5.6875 c -0.4375,0 -0.46875,-0.046875 -0.59375,-0.203125 L 3.40625,-2.765625 4.703125,-3.78125 C 4.84375,-3.890625 4.9375,-3.953125 5.609375,-3.953125 v -0.46875 c -0.28125,0.03125 -0.53125,0.03125 -0.78125,0.03125 -0.265625,0 -0.921875,-0.03125 -1.15625,-0.03125 v 0.46875 c 0.234375,0 0.265625,0.03125 0.34375,0.109375 z m 0,0"
           id="path3845" />
      </symbol>
    </g>
    <g
       id="g8314">
      <symbol
         overflow="visible"
         id="symbol9504">
        <path
           style="stroke:none"
           d=""
           id="path1898" />
      </symbol>
      <symbol
         overflow="visible"
         id="symbol2157">
        <path
           style="stroke:none"
           d="m 2.859375,-6.8125 c 0,0 0,-0.109375 -0.125,-0.109375 -0.234375,0 -0.953125,0.078125 -1.21875,0.109375 -0.078125,0 -0.1875,0.015625 -0.1875,0.1875 0,0.125 0.09375,0.125 0.234375,0.125 0.484375,0 0.5,0.0625 0.5,0.171875 L 2.03125,-6.125 0.59375,-0.390625 c -0.046875,0.140625 -0.046875,0.15625 -0.046875,0.21875 0,0.234375 0.203125,0.28125 0.296875,0.28125 0.125,0 0.265625,-0.09375 0.328125,-0.203125 0.046875,-0.09375 0.5,-1.9375 0.5625,-2.1875 0.34375,0.03125 1.15625,0.1875 1.15625,0.84375 0,0.078125 0,0.109375 -0.03125,0.21875 -0.015625,0.109375 -0.03125,0.234375 -0.03125,0.34375 0,0.578125 0.390625,0.984375 0.90625,0.984375 0.296875,0 0.578125,-0.15625 0.796875,-0.53125 0.25,-0.4375 0.359375,-0.984375 0.359375,-1 0,-0.109375 -0.09375,-0.109375 -0.125,-0.109375 -0.09375,0 -0.109375,0.046875 -0.140625,0.1875 -0.203125,0.71875 -0.421875,1.234375 -0.859375,1.234375 -0.203125,0 -0.328125,-0.109375 -0.328125,-0.46875 0,-0.171875 0.046875,-0.40625 0.078125,-0.5625 C 3.5625,-1.3125 3.5625,-1.34375 3.5625,-1.453125 3.5625,-2.09375 2.9375,-2.375 2.078125,-2.5 2.390625,-2.671875 2.71875,-2.984375 2.9375,-3.234375 3.421875,-3.765625 3.875,-4.1875 4.359375,-4.1875 c 0.0625,0 0.078125,0 0.09375,0.015625 0.125,0.015625 0.125,0.015625 0.21875,0.078125 0.015625,0 0.015625,0.015625 0.03125,0.03125 -0.46875,0.03125 -0.5625,0.421875 -0.5625,0.546875 0,0.15625 0.109375,0.34375 0.375,0.34375 0.265625,0 0.546875,-0.21875 0.546875,-0.609375 0,-0.296875 -0.234375,-0.625 -0.671875,-0.625 -0.28125,0 -0.734375,0.078125 -1.453125,0.875 -0.34375,0.375 -0.734375,0.78125 -1.109375,0.921875 z m 0,0"
           id="path7218" />
      </symbol>
    </g>
    <g
       id="g9765">
      <symbol
         overflow="visible"
         id="symbol603">
        <path
           style="stroke:none"
           d=""
           id="path2530" />
      </symbol>
      <symbol
         overflow="visible"
         id="symbol4819">
        <path
           style="stroke:none"
           d="m 2.140625,-2.359375 v -4.5625 L 0.375,-6.84375 V -6.375 c 0.609375,0 0.6875,0 0.6875,0.390625 V -0.46875 H 0.375 V 0 c 0.359375,-0.015625 0.828125,-0.03125 1.1875,-0.03125 0.375,0 0.84375,0.015625 1.203125,0.03125 v -0.46875 h -0.6875 V -1.734375 C 2.375,-1.96875 2.453125,-2.03125 2.65625,-2.15625 l 1,1.25 c 0.09375,0.125 0.25,0.3125 0.25,0.34375 0,0.09375 -0.171875,0.09375 -0.3125,0.09375 V 0 c 0.296875,-0.015625 1.171875,-0.03125 1.21875,-0.03125 0.359375,0 0.703125,0.015625 1.046875,0.03125 V -0.46875 H 5.6875 c -0.4375,0 -0.46875,-0.046875 -0.59375,-0.203125 L 3.40625,-2.765625 4.703125,-3.78125 C 4.84375,-3.890625 4.9375,-3.953125 5.609375,-3.953125 v -0.46875 c -0.28125,0.03125 -0.53125,0.03125 -0.78125,0.03125 -0.265625,0 -0.921875,-0.03125 -1.15625,-0.03125 v 0.46875 c 0.234375,0 0.265625,0.03125 0.34375,0.109375 z m 0,0"
           id="path9433" />
      </symbol>
      <symbol
         overflow="visible"
         id="symbol6719">
        <path
           style="stroke:none"
           d=""
           id="path4429" />
      </symbol>
      <symbol
         overflow="visible"
         id="symbol9523">
        <path
           style="stroke:none"
           d="m 6.84375,-3.265625 c 0.15625,0 0.34375,0 0.34375,-0.1875 C 7.1875,-3.65625 7,-3.65625 6.859375,-3.65625 h -5.96875 c -0.140625,0 -0.328125,0 -0.328125,0.203125 0,0.1875 0.1875,0.1875 0.328125,0.1875 z m 0.015625,1.9375 c 0.140625,0 0.328125,0 0.328125,-0.203125 0,-0.1875 -0.1875,-0.1875 -0.34375,-0.1875 H 0.890625 c -0.140625,0 -0.328125,0 -0.328125,0.1875 0,0.203125 0.1875,0.203125 0.328125,0.203125 z m 0,0"
           id="path1190" />
      </symbol>
      <symbol
         overflow="visible"
         id="symbol5505">
        <path
           style="stroke:none"
           d="m 4.578125,-3.1875 c 0,-0.796875 -0.046875,-1.59375 -0.390625,-2.328125 -0.453125,-0.96875 -1.28125,-1.125 -1.6875,-1.125 -0.609375,0 -1.328125,0.265625 -1.75,1.1875 -0.3125,0.6875 -0.359375,1.46875 -0.359375,2.265625 0,0.75 0.03125,1.640625 0.453125,2.40625 0.421875,0.796875 1.15625,1 1.640625,1 0.53125,0 1.296875,-0.203125 1.734375,-1.15625 0.3125,-0.6875 0.359375,-1.46875 0.359375,-2.25 z M 2.484375,0 C 2.09375,0 1.5,-0.25 1.328125,-1.203125 1.21875,-1.796875 1.21875,-2.71875 1.21875,-3.3125 c 0,-0.640625 0,-1.296875 0.078125,-1.828125 0.1875,-1.1875 0.9375,-1.28125 1.1875,-1.28125 0.328125,0 0.984375,0.1875 1.171875,1.171875 0.109375,0.5625 0.109375,1.3125 0.109375,1.9375 0,0.75 0,1.421875 -0.109375,2.0625 C 3.5,-0.296875 2.9375,0 2.484375,0 Z m 0,0"
           id="path8181" />
      </symbol>
    </g>
    <g
       id="g5735">
      <symbol
         overflow="visible"
         id="symbol6696">
        <path
           style="stroke:none"
           d=""
           id="path2645" />
      </symbol>
      <symbol
         overflow="visible"
         id="symbol2332">
        <path
           style="stroke:none"
           d="m 2.859375,-6.8125 c 0,0 0,-0.109375 -0.125,-0.109375 -0.234375,0 -0.953125,0.078125 -1.21875,0.109375 -0.078125,0 -0.1875,0.015625 -0.1875,0.1875 0,0.125 0.09375,0.125 0.234375,0.125 0.484375,0 0.5,0.0625 0.5,0.171875 L 2.03125,-6.125 0.59375,-0.390625 c -0.046875,0.140625 -0.046875,0.15625 -0.046875,0.21875 0,0.234375 0.203125,0.28125 0.296875,0.28125 0.125,0 0.265625,-0.09375 0.328125,-0.203125 0.046875,-0.09375 0.5,-1.9375 0.5625,-2.1875 0.34375,0.03125 1.15625,0.1875 1.15625,0.84375 0,0.078125 0,0.109375 -0.03125,0.21875 -0.015625,0.109375 -0.03125,0.234375 -0.03125,0.34375 0,0.578125 0.390625,0.984375 0.90625,0.984375 0.296875,0 0.578125,-0.15625 0.796875,-0.53125 0.25,-0.4375 0.359375,-0.984375 0.359375,-1 0,-0.109375 -0.09375,-0.109375 -0.125,-0.109375 -0.09375,0 -0.109375,0.046875 -0.140625,0.1875 -0.203125,0.71875 -0.421875,1.234375 -0.859375,1.234375 -0.203125,0 -0.328125,-0.109375 -0.328125,-0.46875 0,-0.171875 0.046875,-0.40625 0.078125,-0.5625 C 3.5625,-1.3125 3.5625,-1.34375 3.5625,-1.453125 3.5625,-2.09375 2.9375,-2.375 2.078125,-2.5 2.390625,-2.671875 2.71875,-2.984375 2.9375,-3.234375 3.421875,-3.765625 3.875,-4.1875 4.359375,-4.1875 c 0.0625,0 0.078125,0 0.09375,0.015625 0.125,0.015625 0.125,0.015625 0.21875,0.078125 0.015625,0 0.015625,0.015625 0.03125,0.03125 -0.46875,0.03125 -0.5625,0.421875 -0.5625,0.546875 0,0.15625 0.109375,0.34375 0.375,0.34375 0.265625,0 0.546875,-0.21875 0.546875,-0.609375 0,-0.296875 -0.234375,-0.625 -0.671875,-0.625 -0.28125,0 -0.734375,0.078125 -1.453125,0.875 -0.34375,0.375 -0.734375,0.78125 -1.109375,0.921875 z m 0,0"
           id="path7498" />
      </symbol>
      <symbol
         overflow="visible"
         id="symbol8352">
        <path
           style="stroke:none"
           d=""
           id="path4157" />
      </symbol>
      <symbol
         overflow="visible"
         id="symbol3824">
        <path
           style="stroke:none"
           d="m 2.015625,-3.296875 c 0.0625,-0.109375 0.0625,-0.171875 0.0625,-0.21875 0,-0.21875 -0.1875,-0.375 -0.40625,-0.375 -0.265625,0 -0.34375,0.21875 -0.375,0.328125 L 0.375,-0.546875 c -0.015625,0.015625 -0.046875,0.09375 -0.046875,0.109375 0,0.078125 0.21875,0.15625 0.28125,0.15625 0.046875,0 0.046875,-0.015625 0.09375,-0.125 z m 0,0"
           id="path5739" />
      </symbol>
      <symbol
         overflow="visible"
         id="symbol6888">
        <path
           style="stroke:none"
           d=""
           id="path1104" />
      </symbol>
      <symbol
         overflow="visible"
         id="symbol3872">
        <path
           style="stroke:none"
           d="m 6.84375,-3.265625 c 0.15625,0 0.34375,0 0.34375,-0.1875 C 7.1875,-3.65625 7,-3.65625 6.859375,-3.65625 h -5.96875 c -0.140625,0 -0.328125,0 -0.328125,0.203125 0,0.1875 0.1875,0.1875 0.328125,0.1875 z m 0.015625,1.9375 c 0.140625,0 0.328125,0 0.328125,-0.203125 0,-0.1875 -0.1875,-0.1875 -0.34375,-0.1875 H 0.890625 c -0.140625,0 -0.328125,0 -0.328125,0.1875 0,0.203125 0.1875,0.203125 0.328125,0.203125 z m 0,0"
           id="path3918" />
      </symbol>
      <symbol
         overflow="visible"
         id="symbol2219">
        <path
           style="stroke:none"
           d="m 4.578125,-3.1875 c 0,-0.796875 -0.046875,-1.59375 -0.390625,-2.328125 -0.453125,-0.96875 -1.28125,-1.125 -1.6875,-1.125 -0.609375,0 -1.328125,0.265625 -1.75,1.1875 -0.3125,0.6875 -0.359375,1.46875 -0.359375,2.265625 0,0.75 0.03125,1.640625 0.453125,2.40625 0.421875,0.796875 1.15625,1 1.640625,1 0.53125,0 1.296875,-0.203125 1.734375,-1.15625 0.3125,-0.6875 0.359375,-1.46875 0.359375,-2.25 z M 2.484375,0 C 2.09375,0 1.5,-0.25 1.328125,-1.203125 1.21875,-1.796875 1.21875,-2.71875 1.21875,-3.3125 c 0,-0.640625 0,-1.296875 0.078125,-1.828125 0.1875,-1.1875 0.9375,-1.28125 1.1875,-1.28125 0.328125,0 0.984375,0.1875 1.171875,1.171875 0.109375,0.5625 0.109375,1.3125 0.109375,1.9375 0,0.75 0,1.421875 -0.109375,2.0625 C 3.5,-0.296875 2.9375,0 2.484375,0 Z m 0,0"
           id="path5665" />
      </symbol>
    </g>
    <g
       id="g2294">
      <symbol
         overflow="visible"
         id="symbol1922">
        <path
           style="stroke:none"
           d=""
           id="path2357" />
      </symbol>
      <symbol
         overflow="visible"
         id="symbol1109">
        <path
           style="stroke:none"
           d="m 2.140625,-2.359375 v -4.5625 L 0.375,-6.84375 V -6.375 c 0.609375,0 0.6875,0 0.6875,0.390625 V -0.46875 H 0.375 V 0 c 0.359375,-0.015625 0.828125,-0.03125 1.1875,-0.03125 0.375,0 0.84375,0.015625 1.203125,0.03125 v -0.46875 h -0.6875 V -1.734375 C 2.375,-1.96875 2.453125,-2.03125 2.65625,-2.15625 l 1,1.25 c 0.09375,0.125 0.25,0.3125 0.25,0.34375 0,0.09375 -0.171875,0.09375 -0.3125,0.09375 V 0 c 0.296875,-0.015625 1.171875,-0.03125 1.21875,-0.03125 0.359375,0 0.703125,0.015625 1.046875,0.03125 V -0.46875 H 5.6875 c -0.4375,0 -0.46875,-0.046875 -0.59375,-0.203125 L 3.40625,-2.765625 4.703125,-3.78125 C 4.84375,-3.890625 4.9375,-3.953125 5.609375,-3.953125 v -0.46875 c -0.28125,0.03125 -0.53125,0.03125 -0.78125,0.03125 -0.265625,0 -0.921875,-0.03125 -1.15625,-0.03125 v 0.46875 c 0.234375,0 0.265625,0.03125 0.34375,0.109375 z m 0,0"
           id="path5748" />
      </symbol>
      <symbol
         overflow="visible"
         id="symbol5872">
        <path
           style="stroke:none"
           d=""
           id="path4686" />
      </symbol>
      <symbol
         overflow="visible"
         id="symbol1977">
        <path
           style="stroke:none"
           d="m 2.015625,-3.296875 c 0.0625,-0.109375 0.0625,-0.171875 0.0625,-0.21875 0,-0.21875 -0.1875,-0.375 -0.40625,-0.375 -0.265625,0 -0.34375,0.21875 -0.375,0.328125 L 0.375,-0.546875 c -0.015625,0.015625 -0.046875,0.09375 -0.046875,0.109375 0,0.078125 0.21875,0.15625 0.28125,0.15625 0.046875,0 0.046875,-0.015625 0.09375,-0.125 z m 0,0"
           id="path7310" />
      </symbol>
    </g>
    <g
       id="g7170">
      <symbol
         overflow="visible"
         id="symbol4246">
        <path
           style="stroke:none"
           d=""
           id="path4260" />
      </symbol>
      <symbol
         overflow="visible"
         id="symbol5252">
        <path
           style="stroke:none"
           d="m 2.859375,-6.8125 c 0,0 0,-0.109375 -0.125,-0.109375 -0.234375,0 -0.953125,0.078125 -1.21875,0.109375 -0.078125,0 -0.1875,0.015625 -0.1875,0.1875 0,0.125 0.09375,0.125 0.234375,0.125 0.484375,0 0.5,0.0625 0.5,0.171875 L 2.03125,-6.125 0.59375,-0.390625 c -0.046875,0.140625 -0.046875,0.15625 -0.046875,0.21875 0,0.234375 0.203125,0.28125 0.296875,0.28125 0.125,0 0.265625,-0.09375 0.328125,-0.203125 0.046875,-0.09375 0.5,-1.9375 0.5625,-2.1875 0.34375,0.03125 1.15625,0.1875 1.15625,0.84375 0,0.078125 0,0.109375 -0.03125,0.21875 -0.015625,0.109375 -0.03125,0.234375 -0.03125,0.34375 0,0.578125 0.390625,0.984375 0.90625,0.984375 0.296875,0 0.578125,-0.15625 0.796875,-0.53125 0.25,-0.4375 0.359375,-0.984375 0.359375,-1 0,-0.109375 -0.09375,-0.109375 -0.125,-0.109375 -0.09375,0 -0.109375,0.046875 -0.140625,0.1875 -0.203125,0.71875 -0.421875,1.234375 -0.859375,1.234375 -0.203125,0 -0.328125,-0.109375 -0.328125,-0.46875 0,-0.171875 0.046875,-0.40625 0.078125,-0.5625 C 3.5625,-1.3125 3.5625,-1.34375 3.5625,-1.453125 3.5625,-2.09375 2.9375,-2.375 2.078125,-2.5 2.390625,-2.671875 2.71875,-2.984375 2.9375,-3.234375 3.421875,-3.765625 3.875,-4.1875 4.359375,-4.1875 c 0.0625,0 0.078125,0 0.09375,0.015625 0.125,0.015625 0.125,0.015625 0.21875,0.078125 0.015625,0 0.015625,0.015625 0.03125,0.03125 -0.46875,0.03125 -0.5625,0.421875 -0.5625,0.546875 0,0.15625 0.109375,0.34375 0.375,0.34375 0.265625,0 0.546875,-0.21875 0.546875,-0.609375 0,-0.296875 -0.234375,-0.625 -0.671875,-0.625 -0.28125,0 -0.734375,0.078125 -1.453125,0.875 -0.34375,0.375 -0.734375,0.78125 -1.109375,0.921875 z m 0,0"
           id="path7623" />
      </symbol>
      <symbol
         overflow="visible"
         id="symbol4456">
        <path
           style="stroke:none"
           d=""
           id="path5609" />
      </symbol>
      <symbol
         overflow="visible"
         id="symbol9615">
        <path
           style="stroke:none"
           d="m 2.015625,-3.296875 c 0.0625,-0.109375 0.0625,-0.171875 0.0625,-0.21875 0,-0.21875 -0.1875,-0.375 -0.40625,-0.375 -0.265625,0 -0.34375,0.21875 -0.375,0.328125 L 0.375,-0.546875 c -0.015625,0.015625 -0.046875,0.09375 -0.046875,0.109375 0,0.078125 0.21875,0.15625 0.28125,0.15625 0.046875,0 0.046875,-0.015625 0.09375,-0.125 z m 0,0"
           id="path1025" />
      </symbol>
    </g>
    <marker
       style="overflow:visible"
       id="marker3430-3"
       refX="0"
       refY="0"
       orient="auto"
       inkscape:stockid="Arrow2Lend"
       inkscape:isstock="true">
      <path
         transform="matrix(-1.1,0,0,-1.1,-1.1,0)"
         d="M 8.7185878,4.0337352 -2.2072895,0.01601326 8.7185884,-4.0017078 c -1.7454984,2.3720609 -1.7354408,5.6174519 -6e-7,8.035443 z"
         style="fill:context-stroke;fill-rule:evenodd;stroke:context-stroke;stroke-width:0.625;stroke-linejoin:round"
         id="path3428-8" />
    </marker>
  </defs>
  <g
     inkscape:label="Layer 1"
     inkscape:groupmode="layer"
     id="layer1"
     transform="translate(-39.7538, -99.118)">
    <g
       id="g19"
       transform="translate(14.530633)">
      <path
         style="fill:none;stroke:#000000;stroke-width:0.264583px;stroke-linecap:butt;stroke-linejoin:miter;stroke-opacity:1;marker-end:url(#Arrow2Lend)"
         d="m 101.02665,139.77582 9.67007,-35.29879"
         id="path859"
         sodipodi:nodetypes="cc" />
      <path
         style="fill:none;stroke:#000000;stroke-width:2.71859;stroke-linecap:butt;stroke-linejoin:miter;stroke-miterlimit:4;stroke-dasharray:none;stroke-opacity:1;marker-end:url(#ConcaveTriangle)"
         d="m 56.503522,146.34046 4.835035,-17.6494"
         id="path859-3"
         sodipodi:nodetypes="cc"
         transform="matrix(0.26540167,0,0,0.32140394,105.16187,63.517681)" />
      <circle
         style="fill:none;stroke:#000000;stroke-width:0.264583;stroke-miterlimit:4;stroke-dasharray:0.264583, 0.264583;stroke-dashoffset:0"
         id="path965"
         cx="134.60632"
         cy="108.10271"
         r="30.730814"
         transform="rotate(15.320247)" />
      <ellipse
         style="fill:none;stroke:#000000;stroke-width:0.265;stroke-miterlimit:4;stroke-dasharray:1.06, 1.06;stroke-dashoffset:0.318"
         id="path1286"
         cx="134.41287"
         cy="91.112389"
         rx="24.900869"
         ry="7.5224543"
         transform="rotate(15.320247)" />
      <path
         style="fill:none;stroke:#000000;stroke-width:0.264583px;stroke-linecap:butt;stroke-linejoin:miter;stroke-opacity:1;marker-end:url(#marker3430-3)"
         d="m 106.25964,120.66967 11.11864,24.39381"
         id="path1401-31"
         sodipodi:nodetypes="cc"
         transform="translate(-5.2384827,19.64431)" />
      <path
         style="fill:none;stroke:#000000;stroke-width:0.264583px;stroke-linecap:butt;stroke-linejoin:miter;stroke-opacity:1"
         d="m 106.25964,120.66967 20.80307,11.54961"
         id="path1401-3"
         sodipodi:nodetypes="cc" />
      <path
         style="fill:none;stroke:#000000;stroke-width:0.635;stroke-linecap:butt;stroke-linejoin:miter;stroke-miterlimit:4;stroke-dasharray:none;stroke-opacity:1"
         d="m 127.06271,132.21928 -26.03606,7.55654"
         id="path1901"
         sodipodi:nodetypes="cc" />
      <circle
         style="fill:#030003;fill-opacity:1;stroke:#000000;stroke-width:0.235666;stroke-miterlimit:4;stroke-dasharray:none"
         id="path2151"
         cx="157.44946"
         cy="93.949226"
         r="0.90096629"
         transform="rotate(15.320247)" />
      <circle
         style="fill:#030003;fill-opacity:1;stroke:#000000;stroke-width:0.235666;stroke-miterlimit:4;stroke-dasharray:none"
         id="path2151-9"
         cx="134.39748"
         cy="108.36304"
         r="0.90096629"
         transform="rotate(15.320247)" />
      <rect
         style="fill:#fffeff;fill-opacity:1;stroke:none;stroke-width:0.264583;stroke-miterlimit:4;stroke-dasharray:none"
         id="rect2869"
         width="1.5860436"
         height="1.464276"
         x="141.11327"
         y="89.138512"
         transform="rotate(15.320247)" />
      <rect
         style="fill:#fffeff;fill-opacity:1;stroke:none;stroke-width:0.396413;stroke-miterlimit:4;stroke-dasharray:none"
         id="rect2869-6"
         width="4.193924"
         height="2.8234637"
         x="107.61623"
         y="137.98244"
         transform="matrix(1.3423423,-0.05945416,0.06921613,1.6888248,-40.83652,-92.512465)" />
      <g
         inkscape:label=""
         transform="matrix(0.59590705,0,0,0.59590705,55.775343,79.172463)"
         id="g2315">
        <g
           id="g5580">
          <g
             style="fill:#000000;fill-opacity:1"
             id="g6709">
            <use
               xlink:href="#symbol4927"
               x="91.925003"
               y="81.962997"
               id="use6393"
               width="100%"
               height="100%" />
          </g>
        </g>
      </g>
      <g
         inkscape:label=""
         transform="matrix(0.59590705,0,0,0.59590705,48.498432,88.816621)"
         id="g2392">
        <g
           id="g6463">
          <g
             style="fill:#000000;fill-opacity:1"
             id="g3492">
            <use
               xlink:href="#symbol1789"
               x="91.925003"
               y="81.962997"
               id="use918"
               width="100%"
               height="100%" />
          </g>
        </g>
      </g>
      <path
         style="fill:none;stroke:#000000;stroke-width:0.264583px;stroke-linecap:butt;stroke-linejoin:miter;stroke-opacity:1"
         d="m 101.58976,137.55893 c 1.05667,0.45403 1.51783,1.5339 1.51783,1.5339"
         id="path2551"
         transform="translate(0.16370259,-0.25724692)" />
      <path
         style="fill:none;stroke:#000000;stroke-width:0.264583px;stroke-linecap:butt;stroke-linejoin:miter;stroke-opacity:1"
         d="m 108.19413,124.73067 c 1.03863,-0.13936 2.39234,-1.58573 2.39234,-1.58573"
         id="path2765" />
      <path
         style="fill:#000000;fill-opacity:1;stroke:#000000;stroke-width:0.264583px;stroke-linecap:butt;stroke-linejoin:miter;stroke-opacity:1"
         d="m 122.8277,132.16797 3.8612,0.15541 -3.22832,2.51613 z"
         id="path4340" />
      <g
         transform="matrix(0.564445,0,0,0.564445,125.64506,99.645771)"
         ns22:version="1.10.2"
         ns22:texconverter="pdflatex"
         ns22:pdfconverter="inkscape"
         ns22:text="$\\mathbf{r}-\\mathbf{r}'$"
         ns22:preamble="/usr/share/inkscape/extensions/textext/default_packages.tex"
         ns22:scale="1.6"
         ns22:alignment="middle center"
         ns22:stroke-to-path="0"
         ns22:inkscapeversion="1.1.1"
         ns22:jacobian_sqrt="0.564445"
         id="g5">
        <defs
           id="id-74d2dcd4-0861-41c7-abf1-de190eed5132">
          <g
             id="id-3acb7506-9667-4698-b958-2392476aaf6a">
            <g
               id="id-041f3c50-4ec2-40f5-b9c0-cb3cf6048987">
              <path
                 d="m 2.03125,-3.359375 v -1.125 L 0.375,-4.40625 v 0.46875 c 0.609375,0 0.6875,0 0.6875,0.390625 V -0.46875 H 0.375 V 0 c 0.34375,-0.015625 0.796875,-0.03125 1.25,-0.03125 0.375,0 1.015625,0 1.375,0.03125 V -0.46875 H 2.140625 v -1.75 c 0,-0.6875 0.234375,-1.90625 1.234375,-1.90625 0,0.015625 -0.1875,0.171875 -0.1875,0.453125 0,0.40625 0.328125,0.609375 0.609375,0.609375 0.296875,0 0.609375,-0.203125 0.609375,-0.609375 0,-0.53125 -0.53125,-0.8125 -1.0625,-0.8125 -0.6875,0 -1.09375,0.5 -1.3125,1.125 z m 0,0"
                 id="id-5797c974-3619-4234-9117-190912f413d9" />
            </g>
            <g
               id="id-697bc6bc-43d7-4b55-a67e-5742b3232293">
              <path
                 d="m 6.5625,-2.296875 c 0.171875,0 0.359375,0 0.359375,-0.203125 0,-0.1875 -0.1875,-0.1875 -0.359375,-0.1875 H 1.171875 c -0.171875,0 -0.34375,0 -0.34375,0.1875 0,0.203125 0.171875,0.203125 0.34375,0.203125 z m 0,0"
                 id="id-e151c56e-e8a3-439c-8149-575a3a3ed0c0" />
            </g>
            <g
               id="id-ae8ca617-1e7c-43ee-9d3d-8414dcc478a1">
              <path
                 d="m 2.015625,-3.296875 c 0.0625,-0.109375 0.0625,-0.171875 0.0625,-0.21875 0,-0.21875 -0.1875,-0.375 -0.40625,-0.375 -0.265625,0 -0.34375,0.21875 -0.375,0.328125 L 0.375,-0.546875 c -0.015625,0.015625 -0.046875,0.09375 -0.046875,0.109375 0,0.078125 0.21875,0.15625 0.28125,0.15625 0.046875,0 0.046875,-0.015625 0.09375,-0.125 z m 0,0"
                 id="id-51d5a67b-dd88-4a23-8b85-b4512b87114f" />
            </g>
          </g>
        </defs>
        <g
           fill="#000000"
           fill-opacity="1"
           id="id-7bfd28b0-377f-4dbd-8faa-7c5632af569d"
           transform="translate(-149.087,-127.258)">
          <g
             transform="translate(148.712,134.765)"
             id="g1">
            <path
               d="m 2.03125,-3.359375 v -1.125 L 0.375,-4.40625 v 0.46875 c 0.609375,0 0.6875,0 0.6875,0.390625 V -0.46875 H 0.375 V 0 c 0.34375,-0.015625 0.796875,-0.03125 1.25,-0.03125 0.375,0 1.015625,0 1.375,0.03125 V -0.46875 H 2.140625 v -1.75 c 0,-0.6875 0.234375,-1.90625 1.234375,-1.90625 0,0.015625 -0.1875,0.171875 -0.1875,0.453125 0,0.40625 0.328125,0.609375 0.609375,0.609375 0.296875,0 0.609375,-0.203125 0.609375,-0.609375 0,-0.53125 -0.53125,-0.8125 -1.0625,-0.8125 -0.6875,0 -1.09375,0.5 -1.3125,1.125 z m 0,0"
               id="id-949af7c0-4edc-43aa-b41a-88de8debcb5a" />
          </g>
        </g>
        <g
           fill="#000000"
           fill-opacity="1"
           id="id-91d3a2bd-6c27-476a-8824-3c747a37d654"
           transform="translate(-149.087,-127.258)">
          <g
             transform="translate(155.642,134.765)"
             id="g2">
            <path
               d="m 6.5625,-2.296875 c 0.171875,0 0.359375,0 0.359375,-0.203125 0,-0.1875 -0.1875,-0.1875 -0.359375,-0.1875 H 1.171875 c -0.171875,0 -0.34375,0 -0.34375,0.1875 0,0.203125 0.171875,0.203125 0.34375,0.203125 z m 0,0"
               id="id-a9f4b364-8d91-4b00-839a-1354c8801bff" />
          </g>
        </g>
        <g
           fill="#000000"
           fill-opacity="1"
           id="id-abdc8a64-634e-43b3-8363-5ef16c0e257b"
           transform="translate(-149.087,-127.258)">
          <g
             transform="translate(165.603,134.765)"
             id="g3">
            <path
               d="m 2.03125,-3.359375 v -1.125 L 0.375,-4.40625 v 0.46875 c 0.609375,0 0.6875,0 0.6875,0.390625 V -0.46875 H 0.375 V 0 c 0.34375,-0.015625 0.796875,-0.03125 1.25,-0.03125 0.375,0 1.015625,0 1.375,0.03125 V -0.46875 H 2.140625 v -1.75 c 0,-0.6875 0.234375,-1.90625 1.234375,-1.90625 0,0.015625 -0.1875,0.171875 -0.1875,0.453125 0,0.40625 0.328125,0.609375 0.609375,0.609375 0.296875,0 0.609375,-0.203125 0.609375,-0.609375 0,-0.53125 -0.53125,-0.8125 -1.0625,-0.8125 -0.6875,0 -1.09375,0.5 -1.3125,1.125 z m 0,0"
               id="id-5b02ec6d-1118-49a1-92e3-7239a189057e" />
          </g>
        </g>
        <g
           fill="#000000"
           fill-opacity="1"
           id="id-73069baa-3726-49a9-a614-f56b5c990453"
           transform="translate(-149.087,-127.258)">
          <g
             transform="translate(170.326,131.149)"
             id="g4">
            <path
               d="m 2.015625,-3.296875 c 0.0625,-0.109375 0.0625,-0.171875 0.0625,-0.21875 0,-0.21875 -0.1875,-0.375 -0.40625,-0.375 -0.265625,0 -0.34375,0.21875 -0.375,0.328125 L 0.375,-0.546875 c -0.015625,0.015625 -0.046875,0.09375 -0.046875,0.109375 0,0.078125 0.21875,0.15625 0.28125,0.15625 0.046875,0 0.046875,-0.015625 0.09375,-0.125 z m 0,0"
               id="id-d54df36a-02d5-44c0-a5ea-3656353ecfb9" />
          </g>
        </g>
      </g>
      <g
         transform="matrix(0.564445,0,0,0.564445,97.200927,140.77432)"
         ns22:version="1.10.2"
         ns22:texconverter="pdflatex"
         ns22:pdfconverter="inkscape"
         ns22:text="0"
         ns22:preamble="/usr/share/inkscape/extensions/textext/default_packages.tex"
         ns22:scale="1.6"
         ns22:alignment="middle center"
         ns22:stroke-to-path="0"
         ns22:inkscapeversion="1.4.3"
         ns22:jacobian_sqrt="0.564445"
         id="g10">
        <defs
           id="id-71b89b40-6851-4cde-bfef-51d5c3e7f9c7">
          <g
             id="id-67374953-1d3b-429a-b327-a13b43fab79d">
            <g
               id="id-ae293774-ef06-4124-8b75-83409ff1bf31">
              <path
                 d="m 4.578125,-3.1875 c 0,-0.796875 -0.046875,-1.59375 -0.390625,-2.328125 -0.453125,-0.96875 -1.28125,-1.125 -1.6875,-1.125 -0.609375,0 -1.328125,0.265625 -1.75,1.1875 -0.3125,0.6875 -0.359375,1.46875 -0.359375,2.265625 0,0.75 0.03125,1.640625 0.453125,2.40625 0.421875,0.796875 1.15625,1 1.640625,1 0.53125,0 1.296875,-0.203125 1.734375,-1.15625 0.3125,-0.6875 0.359375,-1.46875 0.359375,-2.25 z M 2.484375,0 C 2.09375,0 1.5,-0.25 1.328125,-1.203125 1.21875,-1.796875 1.21875,-2.71875 1.21875,-3.3125 c 0,-0.640625 0,-1.296875 0.078125,-1.828125 0.1875,-1.1875 0.9375,-1.28125 1.1875,-1.28125 0.328125,0 0.984375,0.1875 1.171875,1.171875 0.109375,0.5625 0.109375,1.3125 0.109375,1.9375 0,0.75 0,1.421875 -0.109375,2.0625 C 3.5,-0.296875 2.9375,0 2.484375,0 Z m 0,0"
                 id="id-fa2433b8-6609-4009-977c-a0f0076a59a4" />
            </g>
          </g>
        </defs>
        <g
           fill="#000000"
           fill-opacity="1"
           id="id-a4615366-f292-4682-ae96-b3ad68c4648e"
           transform="translate(-149.103,-128.124)">
          <g
             transform="translate(148.712,134.765)"
             id="g13">
            <path
               d="m 4.578125,-3.1875 c 0,-0.796875 -0.046875,-1.59375 -0.390625,-2.328125 -0.453125,-0.96875 -1.28125,-1.125 -1.6875,-1.125 -0.609375,0 -1.328125,0.265625 -1.75,1.1875 -0.3125,0.6875 -0.359375,1.46875 -0.359375,2.265625 0,0.75 0.03125,1.640625 0.453125,2.40625 0.421875,0.796875 1.15625,1 1.640625,1 0.53125,0 1.296875,-0.203125 1.734375,-1.15625 0.3125,-0.6875 0.359375,-1.46875 0.359375,-2.25 z M 2.484375,0 C 2.09375,0 1.5,-0.25 1.328125,-1.203125 1.21875,-1.796875 1.21875,-2.71875 1.21875,-3.3125 c 0,-0.640625 0,-1.296875 0.078125,-1.828125 0.1875,-1.1875 0.9375,-1.28125 1.1875,-1.28125 0.328125,0 0.984375,0.1875 1.171875,1.171875 0.109375,0.5625 0.109375,1.3125 0.109375,1.9375 0,0.75 0,1.421875 -0.109375,2.0625 C 3.5,-0.296875 2.9375,0 2.484375,0 Z m 0,0"
               id="id-d2207ac6-fade-4cc8-8919-5ab185a33acc" />
          </g>
        </g>
      </g>
      <rect
         style="fill:#ffffff;fill-opacity:1;stroke-width:3.00094;stroke-linecap:square;stroke-dasharray:3.99999, 2;stroke-dashoffset:0;paint-order:markers fill stroke"
         id="rect15"
         width="24.875"
         height="20.75"
         x="332.25"
         y="130.375"
         transform="matrix(0.26458333,0,0,0.26458333,39.7538,99.118)" />
      <g
         transform="matrix(0.564445,0,0,0.564445,128.52779,133.96939)"
         ns22:version="1.10.2"
         ns22:texconverter="pdflatex"
         ns22:pdfconverter="inkscape"
         ns22:text="$\\mathbf{k}'$"
         ns22:preamble="/usr/share/inkscape/extensions/textext/default_packages.tex"
         ns22:scale="1.6"
         ns22:alignment="middle center"
         ns22:stroke-to-path="0"
         ns22:inkscapeversion="1.4.3"
         ns22:jacobian_sqrt="0.564445"
         id="g12">
        <defs
           id="id-55f4c3de-2cdd-4d57-9720-11dc15db8ca0">
          <g
             id="id-c53346f8-8cf2-43d5-9a9a-7967f4c2ca0e">
            <g
               id="id-2ceee457-62c9-4c4e-8b51-5b9ce9f3fafc">
              <path
                 d="m 2.140625,-2.359375 v -4.5625 L 0.375,-6.84375 V -6.375 c 0.609375,0 0.6875,0 0.6875,0.390625 V -0.46875 H 0.375 V 0 c 0.359375,-0.015625 0.828125,-0.03125 1.1875,-0.03125 0.375,0 0.84375,0.015625 1.203125,0.03125 v -0.46875 h -0.6875 V -1.734375 C 2.375,-1.96875 2.453125,-2.03125 2.65625,-2.15625 l 1,1.25 c 0.09375,0.125 0.25,0.3125 0.25,0.34375 0,0.09375 -0.171875,0.09375 -0.3125,0.09375 V 0 c 0.296875,-0.015625 1.171875,-0.03125 1.21875,-0.03125 0.359375,0 0.703125,0.015625 1.046875,0.03125 V -0.46875 H 5.6875 c -0.4375,0 -0.46875,-0.046875 -0.59375,-0.203125 L 3.40625,-2.765625 4.703125,-3.78125 C 4.84375,-3.890625 4.9375,-3.953125 5.609375,-3.953125 v -0.46875 c -0.28125,0.03125 -0.53125,0.03125 -0.78125,0.03125 -0.265625,0 -0.921875,-0.03125 -1.15625,-0.03125 v 0.46875 c 0.234375,0 0.265625,0.03125 0.34375,0.109375 z m 0,0"
                 id="id-a8ef791d-003e-4873-80fe-b7b3468a8c1b" />
            </g>
            <g
               id="id-9f2c7522-064b-4859-80aa-b1da863fb91a">
              <path
                 d="m 2.015625,-3.296875 c 0.0625,-0.109375 0.0625,-0.171875 0.0625,-0.21875 0,-0.21875 -0.1875,-0.375 -0.40625,-0.375 -0.265625,0 -0.34375,0.21875 -0.375,0.328125 L 0.375,-0.546875 c -0.015625,0.015625 -0.046875,0.09375 -0.046875,0.109375 0,0.078125 0.21875,0.15625 0.28125,0.15625 0.046875,0 0.046875,-0.015625 0.09375,-0.125 z m 0,0"
                 id="id-5be22fdf-a125-4792-9ade-a592b0154cf8" />
            </g>
          </g>
        </defs>
        <g
           fill="#000000"
           fill-opacity="1"
           id="id-3576efff-97ff-43de-b8c5-49faee98a73a"
           transform="translate(-149.087,-127.258)">
          <g
             transform="translate(148.712,134.765)"
             id="g14">
            <path
               d="m 2.140625,-2.359375 v -4.5625 L 0.375,-6.84375 V -6.375 c 0.609375,0 0.6875,0 0.6875,0.390625 V -0.46875 H 0.375 V 0 c 0.359375,-0.015625 0.828125,-0.03125 1.1875,-0.03125 0.375,0 0.84375,0.015625 1.203125,0.03125 v -0.46875 h -0.6875 V -1.734375 C 2.375,-1.96875 2.453125,-2.03125 2.65625,-2.15625 l 1,1.25 c 0.09375,0.125 0.25,0.3125 0.25,0.34375 0,0.09375 -0.171875,0.09375 -0.3125,0.09375 V 0 c 0.296875,-0.015625 1.171875,-0.03125 1.21875,-0.03125 0.359375,0 0.703125,0.015625 1.046875,0.03125 V -0.46875 H 5.6875 c -0.4375,0 -0.46875,-0.046875 -0.59375,-0.203125 L 3.40625,-2.765625 4.703125,-3.78125 C 4.84375,-3.890625 4.9375,-3.953125 5.609375,-3.953125 v -0.46875 c -0.28125,0.03125 -0.53125,0.03125 -0.78125,0.03125 -0.265625,0 -0.921875,-0.03125 -1.15625,-0.03125 v 0.46875 c 0.234375,0 0.265625,0.03125 0.34375,0.109375 z m 0,0"
               id="id-97ad5730-bb8a-44c9-8400-a899f5a1b762" />
          </g>
        </g>
        <g
           fill="#000000"
           fill-opacity="1"
           id="id-8cbdf999-9126-47b8-bb3c-4e5ea0864a7a"
           transform="translate(-149.087,-127.258)">
          <g
             transform="translate(154.759,131.149)"
             id="g15">
            <path
               d="m 2.015625,-3.296875 c 0.0625,-0.109375 0.0625,-0.171875 0.0625,-0.21875 0,-0.21875 -0.1875,-0.375 -0.40625,-0.375 -0.265625,0 -0.34375,0.21875 -0.375,0.328125 L 0.375,-0.546875 c -0.015625,0.015625 -0.046875,0.09375 -0.046875,0.109375 0,0.078125 0.21875,0.15625 0.28125,0.15625 0.046875,0 0.046875,-0.015625 0.09375,-0.125 z m 0,0"
               id="id-ec7f4979-ecb6-47f0-82aa-e14c88fad1ff" />
          </g>
        </g>
      </g>
      <g
         transform="matrix(0.564445,0,0,0.564445,113.93592,134.10946)"
         ns22:version="1.10.2"
         ns22:texconverter="pdflatex"
         ns22:pdfconverter="inkscape"
         ns22:text="$k'$"
         ns22:preamble="/usr/share/inkscape/extensions/textext/default_packages.tex"
         ns22:scale="1.6"
         ns22:alignment="middle center"
         ns22:stroke-to-path="0"
         ns22:inkscapeversion="1.4.3"
         ns22:jacobian_sqrt="0.564445"
         id="g18">
        <defs
           id="id-0579db64-bc19-4500-98d7-1a4f2875f8e6">
          <g
             id="id-4eb0502f-6687-4fe0-a6bc-4f3def2da7ca">
            <g
               id="id-2630ae6c-4d88-4fea-916d-49fc150d1fcf">
              <path
                 d="m 2.859375,-6.8125 c 0,0 0,-0.109375 -0.125,-0.109375 -0.234375,0 -0.953125,0.078125 -1.21875,0.109375 -0.078125,0 -0.1875,0.015625 -0.1875,0.1875 0,0.125 0.09375,0.125 0.234375,0.125 0.484375,0 0.5,0.0625 0.5,0.171875 L 2.03125,-6.125 0.59375,-0.390625 c -0.046875,0.140625 -0.046875,0.15625 -0.046875,0.21875 0,0.234375 0.203125,0.28125 0.296875,0.28125 0.125,0 0.265625,-0.09375 0.328125,-0.203125 0.046875,-0.09375 0.5,-1.9375 0.5625,-2.1875 0.34375,0.03125 1.15625,0.1875 1.15625,0.84375 0,0.078125 0,0.109375 -0.03125,0.21875 -0.015625,0.109375 -0.03125,0.234375 -0.03125,0.34375 0,0.578125 0.390625,0.984375 0.90625,0.984375 0.296875,0 0.578125,-0.15625 0.796875,-0.53125 0.25,-0.4375 0.359375,-0.984375 0.359375,-1 0,-0.109375 -0.09375,-0.109375 -0.125,-0.109375 -0.09375,0 -0.109375,0.046875 -0.140625,0.1875 -0.203125,0.71875 -0.421875,1.234375 -0.859375,1.234375 -0.203125,0 -0.328125,-0.109375 -0.328125,-0.46875 0,-0.171875 0.046875,-0.40625 0.078125,-0.5625 C 3.5625,-1.3125 3.5625,-1.34375 3.5625,-1.453125 3.5625,-2.09375 2.9375,-2.375 2.078125,-2.5 2.390625,-2.671875 2.71875,-2.984375 2.9375,-3.234375 3.421875,-3.765625 3.875,-4.1875 4.359375,-4.1875 c 0.0625,0 0.078125,0 0.09375,0.015625 0.125,0.015625 0.125,0.015625 0.21875,0.078125 0.015625,0 0.015625,0.015625 0.03125,0.03125 -0.46875,0.03125 -0.5625,0.421875 -0.5625,0.546875 0,0.15625 0.109375,0.34375 0.375,0.34375 0.265625,0 0.546875,-0.21875 0.546875,-0.609375 0,-0.296875 -0.234375,-0.625 -0.671875,-0.625 -0.28125,0 -0.734375,0.078125 -1.453125,0.875 -0.34375,0.375 -0.734375,0.78125 -1.109375,0.921875 z m 0,0"
                 id="id-0abb9496-0718-4d97-87f6-a1ad2c50a178" />
            </g>
            <g
               id="id-9c5a6343-9eba-4cd2-8549-13b33f96bfe4">
              <path
                 d="m 2.015625,-3.296875 c 0.0625,-0.109375 0.0625,-0.171875 0.0625,-0.21875 0,-0.21875 -0.1875,-0.375 -0.40625,-0.375 -0.265625,0 -0.34375,0.21875 -0.375,0.328125 L 0.375,-0.546875 c -0.015625,0.015625 -0.046875,0.09375 -0.046875,0.109375 0,0.078125 0.21875,0.15625 0.28125,0.15625 0.046875,0 0.046875,-0.015625 0.09375,-0.125 z m 0,0"
                 id="id-c4e170c5-1799-4023-a7a9-14d748b0f28d" />
            </g>
          </g>
        </defs>
        <g
           fill="#000000"
           fill-opacity="1"
           id="id-cb8c40f9-8570-4ca6-bc3a-235e32155bbb"
           transform="translate(-149.259,-127.258)">
          <g
             transform="translate(148.712,134.765)"
             id="g16">
            <path
               d="m 2.859375,-6.8125 c 0,0 0,-0.109375 -0.125,-0.109375 -0.234375,0 -0.953125,0.078125 -1.21875,0.109375 -0.078125,0 -0.1875,0.015625 -0.1875,0.1875 0,0.125 0.09375,0.125 0.234375,0.125 0.484375,0 0.5,0.0625 0.5,0.171875 L 2.03125,-6.125 0.59375,-0.390625 c -0.046875,0.140625 -0.046875,0.15625 -0.046875,0.21875 0,0.234375 0.203125,0.28125 0.296875,0.28125 0.125,0 0.265625,-0.09375 0.328125,-0.203125 0.046875,-0.09375 0.5,-1.9375 0.5625,-2.1875 0.34375,0.03125 1.15625,0.1875 1.15625,0.84375 0,0.078125 0,0.109375 -0.03125,0.21875 -0.015625,0.109375 -0.03125,0.234375 -0.03125,0.34375 0,0.578125 0.390625,0.984375 0.90625,0.984375 0.296875,0 0.578125,-0.15625 0.796875,-0.53125 0.25,-0.4375 0.359375,-0.984375 0.359375,-1 0,-0.109375 -0.09375,-0.109375 -0.125,-0.109375 -0.09375,0 -0.109375,0.046875 -0.140625,0.1875 -0.203125,0.71875 -0.421875,1.234375 -0.859375,1.234375 -0.203125,0 -0.328125,-0.109375 -0.328125,-0.46875 0,-0.171875 0.046875,-0.40625 0.078125,-0.5625 C 3.5625,-1.3125 3.5625,-1.34375 3.5625,-1.453125 3.5625,-2.09375 2.9375,-2.375 2.078125,-2.5 2.390625,-2.671875 2.71875,-2.984375 2.9375,-3.234375 3.421875,-3.765625 3.875,-4.1875 4.359375,-4.1875 c 0.0625,0 0.078125,0 0.09375,0.015625 0.125,0.015625 0.125,0.015625 0.21875,0.078125 0.015625,0 0.015625,0.015625 0.03125,0.03125 -0.46875,0.03125 -0.5625,0.421875 -0.5625,0.546875 0,0.15625 0.109375,0.34375 0.375,0.34375 0.265625,0 0.546875,-0.21875 0.546875,-0.609375 0,-0.296875 -0.234375,-0.625 -0.671875,-0.625 -0.28125,0 -0.734375,0.078125 -1.453125,0.875 -0.34375,0.375 -0.734375,0.78125 -1.109375,0.921875 z m 0,0"
               id="id-36d7b21b-c61e-41f1-9c6a-0204474be9c7" />
          </g>
        </g>
        <g
           fill="#000000"
           fill-opacity="1"
           id="id-9ececca6-1d7d-4c35-9260-fee23a1158d6"
           transform="translate(-149.259,-127.258)">
          <g
             transform="translate(154.213,131.149)"
             id="g17">
            <path
               d="m 2.015625,-3.296875 c 0.0625,-0.109375 0.0625,-0.171875 0.0625,-0.21875 0,-0.21875 -0.1875,-0.375 -0.40625,-0.375 -0.265625,0 -0.34375,0.21875 -0.375,0.328125 L 0.375,-0.546875 c -0.015625,0.015625 -0.046875,0.09375 -0.046875,0.109375 0,0.078125 0.21875,0.15625 0.28125,0.15625 0.046875,0 0.046875,-0.015625 0.09375,-0.125 z m 0,0"
               id="id-c3341029-70be-4d6b-93e7-640f38bd352d" />
          </g>
        </g>
      </g>
      <path
         style="fill:none;stroke:#000000;stroke-width:0.264583px;stroke-linecap:butt;stroke-linejoin:miter;stroke-dasharray:1.05833, 0.529166;stroke-dashoffset:0;stroke-opacity:1"
         d="m 106.25964,120.66967 4.50406,9.8748"
         id="path1401-9"
         sodipodi:nodetypes="cc" />
    </g>
  </g>
</svg>
